%TF.GenerationSoftware,KiCad,Pcbnew,(5.1.5)-3*%
%TF.CreationDate,2020-05-31T21:31:09+02:00*%
%TF.ProjectId,speaker_grill,73706561-6b65-4725-9f67-72696c6c2e6b,rev?*%
%TF.SameCoordinates,PXbebc200PY5f5e100*%
%TF.FileFunction,Other,Fab,Bot*%
%FSLAX46Y46*%
G04 Gerber Fmt 4.6, Leading zero omitted, Abs format (unit mm)*
G04 Created by KiCad (PCBNEW (5.1.5)-3) date 2020-05-31 21:31:09*
%MOMM*%
%LPD*%
G04 APERTURE LIST*
%ADD10C,0.100000*%
%ADD11C,0.150000*%
G04 APERTURE END LIST*
D10*
%TO.C,J3*%
X-43892893Y21625000D02*
X-44600000Y21125000D01*
X-44600000Y22125000D02*
X-43892893Y21625000D01*
X-40800000Y17375000D02*
X-40800000Y18875000D01*
X-41400000Y17375000D02*
X-40800000Y17375000D01*
X-41600000Y17175000D02*
X-41400000Y17375000D01*
X-43400000Y17175000D02*
X-41600000Y17175000D01*
X-43600000Y17375000D02*
X-43400000Y17175000D01*
X-43600000Y18875000D02*
X-43600000Y17375000D01*
X-40800000Y24625000D02*
X-40800000Y23125000D01*
X-41400000Y24625000D02*
X-40800000Y24625000D01*
X-41600000Y24825000D02*
X-41400000Y24625000D01*
X-43400000Y24825000D02*
X-41600000Y24825000D01*
X-43600000Y24625000D02*
X-43400000Y24825000D01*
X-43600000Y23125000D02*
X-43600000Y24625000D01*
X-44600000Y18875000D02*
X-40400000Y18875000D01*
X-44600000Y23125000D02*
X-40400000Y23125000D01*
X-40400000Y23125000D02*
X-40400000Y18875000D01*
X-44600000Y23125000D02*
X-44600000Y18875000D01*
%TO.C,J2*%
X-56107107Y20375000D02*
X-55400000Y20875000D01*
X-55400000Y19875000D02*
X-56107107Y20375000D01*
X-59200000Y24625000D02*
X-59200000Y23125000D01*
X-58600000Y24625000D02*
X-59200000Y24625000D01*
X-58400000Y24825000D02*
X-58600000Y24625000D01*
X-56600000Y24825000D02*
X-58400000Y24825000D01*
X-56400000Y24625000D02*
X-56600000Y24825000D01*
X-56400000Y23125000D02*
X-56400000Y24625000D01*
X-59200000Y17375000D02*
X-59200000Y18875000D01*
X-58600000Y17375000D02*
X-59200000Y17375000D01*
X-58400000Y17175000D02*
X-58600000Y17375000D01*
X-56600000Y17175000D02*
X-58400000Y17175000D01*
X-56400000Y17375000D02*
X-56600000Y17175000D01*
X-56400000Y18875000D02*
X-56400000Y17375000D01*
X-55400000Y23125000D02*
X-59600000Y23125000D01*
X-55400000Y18875000D02*
X-59600000Y18875000D01*
X-59600000Y18875000D02*
X-59600000Y23125000D01*
X-55400000Y18875000D02*
X-55400000Y23125000D01*
%TO.C,J1*%
X-53920000Y30640000D02*
X-52540000Y30640000D01*
X-53920000Y31280000D02*
X-53920000Y30640000D01*
X-52540000Y31280000D02*
X-53920000Y31280000D01*
X-46080000Y30640000D02*
X-46080000Y31280000D01*
X-47460000Y30640000D02*
X-46080000Y30640000D01*
X-46080000Y31280000D02*
X-47460000Y31280000D01*
X-53920000Y33180000D02*
X-52540000Y33180000D01*
X-53920000Y33820000D02*
X-53920000Y33180000D01*
X-52540000Y33820000D02*
X-53920000Y33820000D01*
X-46080000Y33180000D02*
X-46080000Y33820000D01*
X-47460000Y33180000D02*
X-46080000Y33180000D01*
X-46080000Y33820000D02*
X-47460000Y33820000D01*
X-53920000Y35720000D02*
X-52540000Y35720000D01*
X-53920000Y36360000D02*
X-53920000Y35720000D01*
X-52540000Y36360000D02*
X-53920000Y36360000D01*
X-46080000Y35720000D02*
X-46080000Y36360000D01*
X-47460000Y35720000D02*
X-46080000Y35720000D01*
X-46080000Y36360000D02*
X-47460000Y36360000D01*
X-47460000Y29690000D02*
X-47460000Y37310000D01*
X-52540000Y29690000D02*
X-47460000Y29690000D01*
X-52540000Y36310000D02*
X-52540000Y29690000D01*
X-51540000Y37310000D02*
X-52540000Y36310000D01*
X-47460000Y37310000D02*
X-51540000Y37310000D01*
%TD*%
%TO.C,J4*%
D11*
X-65814286Y17942858D02*
X-65766667Y17895239D01*
X-65623810Y17847620D01*
X-65528572Y17847620D01*
X-65385715Y17895239D01*
X-65290477Y17990477D01*
X-65242858Y18085715D01*
X-65195239Y18276191D01*
X-65195239Y18419048D01*
X-65242858Y18609524D01*
X-65290477Y18704762D01*
X-65385715Y18800000D01*
X-65528572Y18847620D01*
X-65623810Y18847620D01*
X-65766667Y18800000D01*
X-65814286Y18752381D01*
X-66385715Y17847620D02*
X-66290477Y17895239D01*
X-66242858Y17942858D01*
X-66195239Y18038096D01*
X-66195239Y18323810D01*
X-66242858Y18419048D01*
X-66290477Y18466667D01*
X-66385715Y18514286D01*
X-66528572Y18514286D01*
X-66623810Y18466667D01*
X-66671429Y18419048D01*
X-66719048Y18323810D01*
X-66719048Y18038096D01*
X-66671429Y17942858D01*
X-66623810Y17895239D01*
X-66528572Y17847620D01*
X-66385715Y17847620D01*
X-67147620Y18514286D02*
X-67147620Y17847620D01*
X-67147620Y18419048D02*
X-67195239Y18466667D01*
X-67290477Y18514286D01*
X-67433334Y18514286D01*
X-67528572Y18466667D01*
X-67576191Y18371429D01*
X-67576191Y17847620D01*
X-68052381Y18514286D02*
X-68052381Y17847620D01*
X-68052381Y18419048D02*
X-68100000Y18466667D01*
X-68195239Y18514286D01*
X-68338096Y18514286D01*
X-68433334Y18466667D01*
X-68480953Y18371429D01*
X-68480953Y17847620D01*
X-68719048Y17752381D02*
X-69480953Y17752381D01*
X-69909524Y18847620D02*
X-70004762Y18847620D01*
X-70100000Y18800000D01*
X-70147620Y18752381D01*
X-70195239Y18657143D01*
X-70242858Y18466667D01*
X-70242858Y18228572D01*
X-70195239Y18038096D01*
X-70147620Y17942858D01*
X-70100000Y17895239D01*
X-70004762Y17847620D01*
X-69909524Y17847620D01*
X-69814286Y17895239D01*
X-69766667Y17942858D01*
X-69719048Y18038096D01*
X-69671429Y18228572D01*
X-69671429Y18466667D01*
X-69719048Y18657143D01*
X-69766667Y18752381D01*
X-69814286Y18800000D01*
X-69909524Y18847620D01*
X-71195239Y17847620D02*
X-70623810Y17847620D01*
X-70909524Y17847620D02*
X-70909524Y18847620D01*
X-70814286Y18704762D01*
X-70719048Y18609524D01*
X-70623810Y18561905D01*
X-71528572Y17847620D02*
X-72052381Y18514286D01*
X-71528572Y18514286D02*
X-72052381Y17847620D01*
X-72623810Y18847620D02*
X-72719048Y18847620D01*
X-72814286Y18800000D01*
X-72861905Y18752381D01*
X-72909524Y18657143D01*
X-72957143Y18466667D01*
X-72957143Y18228572D01*
X-72909524Y18038096D01*
X-72861905Y17942858D01*
X-72814286Y17895239D01*
X-72719048Y17847620D01*
X-72623810Y17847620D01*
X-72528572Y17895239D01*
X-72480953Y17942858D01*
X-72433334Y18038096D01*
X-72385715Y18228572D01*
X-72385715Y18466667D01*
X-72433334Y18657143D01*
X-72480953Y18752381D01*
X-72528572Y18800000D01*
X-72623810Y18847620D01*
X-73528572Y18419048D02*
X-73433334Y18466667D01*
X-73385715Y18514286D01*
X-73338096Y18609524D01*
X-73338096Y18657143D01*
X-73385715Y18752381D01*
X-73433334Y18800000D01*
X-73528572Y18847620D01*
X-73719048Y18847620D01*
X-73814286Y18800000D01*
X-73861905Y18752381D01*
X-73909524Y18657143D01*
X-73909524Y18609524D01*
X-73861905Y18514286D01*
X-73814286Y18466667D01*
X-73719048Y18419048D01*
X-73528572Y18419048D01*
X-73433334Y18371429D01*
X-73385715Y18323810D01*
X-73338096Y18228572D01*
X-73338096Y18038096D01*
X-73385715Y17942858D01*
X-73433334Y17895239D01*
X-73528572Y17847620D01*
X-73719048Y17847620D01*
X-73814286Y17895239D01*
X-73861905Y17942858D01*
X-73909524Y18038096D01*
X-73909524Y18228572D01*
X-73861905Y18323810D01*
X-73814286Y18371429D01*
X-73719048Y18419048D01*
X-74100000Y17752381D02*
X-74861905Y17752381D01*
X-75433334Y18371429D02*
X-75100000Y18371429D01*
X-75100000Y17847620D02*
X-75100000Y18847620D01*
X-75576191Y18847620D01*
X-76338096Y17895239D02*
X-76242858Y17847620D01*
X-76052381Y17847620D01*
X-75957143Y17895239D01*
X-75909524Y17990477D01*
X-75909524Y18371429D01*
X-75957143Y18466667D01*
X-76052381Y18514286D01*
X-76242858Y18514286D01*
X-76338096Y18466667D01*
X-76385715Y18371429D01*
X-76385715Y18276191D01*
X-75909524Y18180953D01*
X-76814286Y17847620D02*
X-76814286Y18514286D01*
X-76814286Y18419048D02*
X-76861905Y18466667D01*
X-76957143Y18514286D01*
X-77100000Y18514286D01*
X-77195239Y18466667D01*
X-77242858Y18371429D01*
X-77242858Y17847620D01*
X-77242858Y18371429D02*
X-77290477Y18466667D01*
X-77385715Y18514286D01*
X-77528572Y18514286D01*
X-77623810Y18466667D01*
X-77671429Y18371429D01*
X-77671429Y17847620D01*
X-78576191Y17847620D02*
X-78576191Y18371429D01*
X-78528572Y18466667D01*
X-78433334Y18514286D01*
X-78242858Y18514286D01*
X-78147620Y18466667D01*
X-78576191Y17895239D02*
X-78480953Y17847620D01*
X-78242858Y17847620D01*
X-78147620Y17895239D01*
X-78100000Y17990477D01*
X-78100000Y18085715D01*
X-78147620Y18180953D01*
X-78242858Y18228572D01*
X-78480953Y18228572D01*
X-78576191Y18276191D01*
X-79195239Y17847620D02*
X-79100000Y17895239D01*
X-79052381Y17990477D01*
X-79052381Y18847620D01*
X-79957143Y17895239D02*
X-79861905Y17847620D01*
X-79671429Y17847620D01*
X-79576191Y17895239D01*
X-79528572Y17990477D01*
X-79528572Y18371429D01*
X-79576191Y18466667D01*
X-79671429Y18514286D01*
X-79861905Y18514286D01*
X-79957143Y18466667D01*
X-80004762Y18371429D01*
X-80004762Y18276191D01*
X-79528572Y18180953D01*
%TO.C,J3*%
X-38842858Y27785715D02*
X-38795239Y27833334D01*
X-38747620Y27976191D01*
X-38747620Y28071429D01*
X-38795239Y28214286D01*
X-38890477Y28309524D01*
X-38985715Y28357143D01*
X-39176191Y28404762D01*
X-39319048Y28404762D01*
X-39509524Y28357143D01*
X-39604762Y28309524D01*
X-39700000Y28214286D01*
X-39747620Y28071429D01*
X-39747620Y27976191D01*
X-39700000Y27833334D01*
X-39652381Y27785715D01*
X-38747620Y27214286D02*
X-38795239Y27309524D01*
X-38842858Y27357143D01*
X-38938096Y27404762D01*
X-39223810Y27404762D01*
X-39319048Y27357143D01*
X-39366667Y27309524D01*
X-39414286Y27214286D01*
X-39414286Y27071429D01*
X-39366667Y26976191D01*
X-39319048Y26928572D01*
X-39223810Y26880953D01*
X-38938096Y26880953D01*
X-38842858Y26928572D01*
X-38795239Y26976191D01*
X-38747620Y27071429D01*
X-38747620Y27214286D01*
X-39414286Y26452381D02*
X-38747620Y26452381D01*
X-39319048Y26452381D02*
X-39366667Y26404762D01*
X-39414286Y26309524D01*
X-39414286Y26166667D01*
X-39366667Y26071429D01*
X-39271429Y26023810D01*
X-38747620Y26023810D01*
X-39414286Y25547620D02*
X-38747620Y25547620D01*
X-39319048Y25547620D02*
X-39366667Y25500000D01*
X-39414286Y25404762D01*
X-39414286Y25261905D01*
X-39366667Y25166667D01*
X-39271429Y25119048D01*
X-38747620Y25119048D01*
X-38652381Y24880953D02*
X-38652381Y24119048D01*
X-39747620Y23690477D02*
X-39747620Y23595239D01*
X-39700000Y23500000D01*
X-39652381Y23452381D01*
X-39557143Y23404762D01*
X-39366667Y23357143D01*
X-39128572Y23357143D01*
X-38938096Y23404762D01*
X-38842858Y23452381D01*
X-38795239Y23500000D01*
X-38747620Y23595239D01*
X-38747620Y23690477D01*
X-38795239Y23785715D01*
X-38842858Y23833334D01*
X-38938096Y23880953D01*
X-39128572Y23928572D01*
X-39366667Y23928572D01*
X-39557143Y23880953D01*
X-39652381Y23833334D01*
X-39700000Y23785715D01*
X-39747620Y23690477D01*
X-38747620Y22404762D02*
X-38747620Y22976191D01*
X-38747620Y22690477D02*
X-39747620Y22690477D01*
X-39604762Y22785715D01*
X-39509524Y22880953D01*
X-39461905Y22976191D01*
X-38747620Y22071429D02*
X-39414286Y21547620D01*
X-39414286Y22071429D02*
X-38747620Y21547620D01*
X-39747620Y20976191D02*
X-39747620Y20880953D01*
X-39700000Y20785715D01*
X-39652381Y20738096D01*
X-39557143Y20690477D01*
X-39366667Y20642858D01*
X-39128572Y20642858D01*
X-38938096Y20690477D01*
X-38842858Y20738096D01*
X-38795239Y20785715D01*
X-38747620Y20880953D01*
X-38747620Y20976191D01*
X-38795239Y21071429D01*
X-38842858Y21119048D01*
X-38938096Y21166667D01*
X-39128572Y21214286D01*
X-39366667Y21214286D01*
X-39557143Y21166667D01*
X-39652381Y21119048D01*
X-39700000Y21071429D01*
X-39747620Y20976191D01*
X-39652381Y20261905D02*
X-39700000Y20214286D01*
X-39747620Y20119048D01*
X-39747620Y19880953D01*
X-39700000Y19785715D01*
X-39652381Y19738096D01*
X-39557143Y19690477D01*
X-39461905Y19690477D01*
X-39319048Y19738096D01*
X-38747620Y20309524D01*
X-38747620Y19690477D01*
X-38652381Y19500000D02*
X-38652381Y18738096D01*
X-39271429Y18166667D02*
X-39271429Y18500000D01*
X-38747620Y18500000D02*
X-39747620Y18500000D01*
X-39747620Y18023810D01*
X-38795239Y17261905D02*
X-38747620Y17357143D01*
X-38747620Y17547620D01*
X-38795239Y17642858D01*
X-38890477Y17690477D01*
X-39271429Y17690477D01*
X-39366667Y17642858D01*
X-39414286Y17547620D01*
X-39414286Y17357143D01*
X-39366667Y17261905D01*
X-39271429Y17214286D01*
X-39176191Y17214286D01*
X-39080953Y17690477D01*
X-38747620Y16785715D02*
X-39414286Y16785715D01*
X-39319048Y16785715D02*
X-39366667Y16738096D01*
X-39414286Y16642858D01*
X-39414286Y16500000D01*
X-39366667Y16404762D01*
X-39271429Y16357143D01*
X-38747620Y16357143D01*
X-39271429Y16357143D02*
X-39366667Y16309524D01*
X-39414286Y16214286D01*
X-39414286Y16071429D01*
X-39366667Y15976191D01*
X-39271429Y15928572D01*
X-38747620Y15928572D01*
X-38747620Y15023810D02*
X-39271429Y15023810D01*
X-39366667Y15071429D01*
X-39414286Y15166667D01*
X-39414286Y15357143D01*
X-39366667Y15452381D01*
X-38795239Y15023810D02*
X-38747620Y15119048D01*
X-38747620Y15357143D01*
X-38795239Y15452381D01*
X-38890477Y15500000D01*
X-38985715Y15500000D01*
X-39080953Y15452381D01*
X-39128572Y15357143D01*
X-39128572Y15119048D01*
X-39176191Y15023810D01*
X-38747620Y14404762D02*
X-38795239Y14500000D01*
X-38890477Y14547620D01*
X-39747620Y14547620D01*
X-38795239Y13642858D02*
X-38747620Y13738096D01*
X-38747620Y13928572D01*
X-38795239Y14023810D01*
X-38890477Y14071429D01*
X-39271429Y14071429D01*
X-39366667Y14023810D01*
X-39414286Y13928572D01*
X-39414286Y13738096D01*
X-39366667Y13642858D01*
X-39271429Y13595239D01*
X-39176191Y13595239D01*
X-39080953Y14071429D01*
X-41647620Y21333334D02*
X-40933334Y21333334D01*
X-40790477Y21380953D01*
X-40695239Y21476191D01*
X-40647620Y21619048D01*
X-40647620Y21714286D01*
X-41647620Y20952381D02*
X-41647620Y20333334D01*
X-41266667Y20666667D01*
X-41266667Y20523810D01*
X-41219048Y20428572D01*
X-41171429Y20380953D01*
X-41076191Y20333334D01*
X-40838096Y20333334D01*
X-40742858Y20380953D01*
X-40695239Y20428572D01*
X-40647620Y20523810D01*
X-40647620Y20809524D01*
X-40695239Y20904762D01*
X-40742858Y20952381D01*
%TO.C,J2*%
X-60442858Y27785715D02*
X-60395239Y27833334D01*
X-60347620Y27976191D01*
X-60347620Y28071429D01*
X-60395239Y28214286D01*
X-60490477Y28309524D01*
X-60585715Y28357143D01*
X-60776191Y28404762D01*
X-60919048Y28404762D01*
X-61109524Y28357143D01*
X-61204762Y28309524D01*
X-61300000Y28214286D01*
X-61347620Y28071429D01*
X-61347620Y27976191D01*
X-61300000Y27833334D01*
X-61252381Y27785715D01*
X-60347620Y27214286D02*
X-60395239Y27309524D01*
X-60442858Y27357143D01*
X-60538096Y27404762D01*
X-60823810Y27404762D01*
X-60919048Y27357143D01*
X-60966667Y27309524D01*
X-61014286Y27214286D01*
X-61014286Y27071429D01*
X-60966667Y26976191D01*
X-60919048Y26928572D01*
X-60823810Y26880953D01*
X-60538096Y26880953D01*
X-60442858Y26928572D01*
X-60395239Y26976191D01*
X-60347620Y27071429D01*
X-60347620Y27214286D01*
X-61014286Y26452381D02*
X-60347620Y26452381D01*
X-60919048Y26452381D02*
X-60966667Y26404762D01*
X-61014286Y26309524D01*
X-61014286Y26166667D01*
X-60966667Y26071429D01*
X-60871429Y26023810D01*
X-60347620Y26023810D01*
X-61014286Y25547620D02*
X-60347620Y25547620D01*
X-60919048Y25547620D02*
X-60966667Y25500000D01*
X-61014286Y25404762D01*
X-61014286Y25261905D01*
X-60966667Y25166667D01*
X-60871429Y25119048D01*
X-60347620Y25119048D01*
X-60252381Y24880953D02*
X-60252381Y24119048D01*
X-61347620Y23690477D02*
X-61347620Y23595239D01*
X-61300000Y23500000D01*
X-61252381Y23452381D01*
X-61157143Y23404762D01*
X-60966667Y23357143D01*
X-60728572Y23357143D01*
X-60538096Y23404762D01*
X-60442858Y23452381D01*
X-60395239Y23500000D01*
X-60347620Y23595239D01*
X-60347620Y23690477D01*
X-60395239Y23785715D01*
X-60442858Y23833334D01*
X-60538096Y23880953D01*
X-60728572Y23928572D01*
X-60966667Y23928572D01*
X-61157143Y23880953D01*
X-61252381Y23833334D01*
X-61300000Y23785715D01*
X-61347620Y23690477D01*
X-60347620Y22404762D02*
X-60347620Y22976191D01*
X-60347620Y22690477D02*
X-61347620Y22690477D01*
X-61204762Y22785715D01*
X-61109524Y22880953D01*
X-61061905Y22976191D01*
X-60347620Y22071429D02*
X-61014286Y21547620D01*
X-61014286Y22071429D02*
X-60347620Y21547620D01*
X-61347620Y20976191D02*
X-61347620Y20880953D01*
X-61300000Y20785715D01*
X-61252381Y20738096D01*
X-61157143Y20690477D01*
X-60966667Y20642858D01*
X-60728572Y20642858D01*
X-60538096Y20690477D01*
X-60442858Y20738096D01*
X-60395239Y20785715D01*
X-60347620Y20880953D01*
X-60347620Y20976191D01*
X-60395239Y21071429D01*
X-60442858Y21119048D01*
X-60538096Y21166667D01*
X-60728572Y21214286D01*
X-60966667Y21214286D01*
X-61157143Y21166667D01*
X-61252381Y21119048D01*
X-61300000Y21071429D01*
X-61347620Y20976191D01*
X-61252381Y20261905D02*
X-61300000Y20214286D01*
X-61347620Y20119048D01*
X-61347620Y19880953D01*
X-61300000Y19785715D01*
X-61252381Y19738096D01*
X-61157143Y19690477D01*
X-61061905Y19690477D01*
X-60919048Y19738096D01*
X-60347620Y20309524D01*
X-60347620Y19690477D01*
X-60252381Y19500000D02*
X-60252381Y18738096D01*
X-60871429Y18166667D02*
X-60871429Y18500000D01*
X-60347620Y18500000D02*
X-61347620Y18500000D01*
X-61347620Y18023810D01*
X-60395239Y17261905D02*
X-60347620Y17357143D01*
X-60347620Y17547620D01*
X-60395239Y17642858D01*
X-60490477Y17690477D01*
X-60871429Y17690477D01*
X-60966667Y17642858D01*
X-61014286Y17547620D01*
X-61014286Y17357143D01*
X-60966667Y17261905D01*
X-60871429Y17214286D01*
X-60776191Y17214286D01*
X-60680953Y17690477D01*
X-60347620Y16785715D02*
X-61014286Y16785715D01*
X-60919048Y16785715D02*
X-60966667Y16738096D01*
X-61014286Y16642858D01*
X-61014286Y16500000D01*
X-60966667Y16404762D01*
X-60871429Y16357143D01*
X-60347620Y16357143D01*
X-60871429Y16357143D02*
X-60966667Y16309524D01*
X-61014286Y16214286D01*
X-61014286Y16071429D01*
X-60966667Y15976191D01*
X-60871429Y15928572D01*
X-60347620Y15928572D01*
X-60347620Y15023810D02*
X-60871429Y15023810D01*
X-60966667Y15071429D01*
X-61014286Y15166667D01*
X-61014286Y15357143D01*
X-60966667Y15452381D01*
X-60395239Y15023810D02*
X-60347620Y15119048D01*
X-60347620Y15357143D01*
X-60395239Y15452381D01*
X-60490477Y15500001D01*
X-60585715Y15500001D01*
X-60680953Y15452381D01*
X-60728572Y15357143D01*
X-60728572Y15119048D01*
X-60776191Y15023810D01*
X-60347620Y14404762D02*
X-60395239Y14500001D01*
X-60490477Y14547620D01*
X-61347620Y14547620D01*
X-60395239Y13642858D02*
X-60347620Y13738096D01*
X-60347620Y13928572D01*
X-60395239Y14023810D01*
X-60490477Y14071429D01*
X-60871429Y14071429D01*
X-60966667Y14023810D01*
X-61014286Y13928572D01*
X-61014286Y13738096D01*
X-60966667Y13642858D01*
X-60871429Y13595239D01*
X-60776191Y13595239D01*
X-60680953Y14071429D01*
X-59447620Y21333334D02*
X-58733334Y21333334D01*
X-58590477Y21380953D01*
X-58495239Y21476191D01*
X-58447620Y21619048D01*
X-58447620Y21714286D01*
X-59352381Y20904762D02*
X-59400000Y20857143D01*
X-59447620Y20761905D01*
X-59447620Y20523810D01*
X-59400000Y20428572D01*
X-59352381Y20380953D01*
X-59257143Y20333334D01*
X-59161905Y20333334D01*
X-59019048Y20380953D01*
X-58447620Y20952381D01*
X-58447620Y20333334D01*
%TO.C,J1*%
X-42357143Y27832858D02*
X-42309524Y27785239D01*
X-42166667Y27737620D01*
X-42071429Y27737620D01*
X-41928572Y27785239D01*
X-41833334Y27880477D01*
X-41785715Y27975715D01*
X-41738096Y28166191D01*
X-41738096Y28309048D01*
X-41785715Y28499524D01*
X-41833334Y28594762D01*
X-41928572Y28690000D01*
X-42071429Y28737620D01*
X-42166667Y28737620D01*
X-42309524Y28690000D01*
X-42357143Y28642381D01*
X-42928572Y27737620D02*
X-42833334Y27785239D01*
X-42785715Y27832858D01*
X-42738096Y27928096D01*
X-42738096Y28213810D01*
X-42785715Y28309048D01*
X-42833334Y28356667D01*
X-42928572Y28404286D01*
X-43071429Y28404286D01*
X-43166667Y28356667D01*
X-43214286Y28309048D01*
X-43261905Y28213810D01*
X-43261905Y27928096D01*
X-43214286Y27832858D01*
X-43166667Y27785239D01*
X-43071429Y27737620D01*
X-42928572Y27737620D01*
X-43690477Y28404286D02*
X-43690477Y27737620D01*
X-43690477Y28309048D02*
X-43738096Y28356667D01*
X-43833334Y28404286D01*
X-43976191Y28404286D01*
X-44071429Y28356667D01*
X-44119048Y28261429D01*
X-44119048Y27737620D01*
X-44595239Y28404286D02*
X-44595239Y27737620D01*
X-44595239Y28309048D02*
X-44642858Y28356667D01*
X-44738096Y28404286D01*
X-44880953Y28404286D01*
X-44976191Y28356667D01*
X-45023810Y28261429D01*
X-45023810Y27737620D01*
X-45261905Y27642381D02*
X-46023810Y27642381D01*
X-46452381Y28737620D02*
X-46547620Y28737620D01*
X-46642858Y28690000D01*
X-46690477Y28642381D01*
X-46738096Y28547143D01*
X-46785715Y28356667D01*
X-46785715Y28118572D01*
X-46738096Y27928096D01*
X-46690477Y27832858D01*
X-46642858Y27785239D01*
X-46547620Y27737620D01*
X-46452381Y27737620D01*
X-46357143Y27785239D01*
X-46309524Y27832858D01*
X-46261905Y27928096D01*
X-46214286Y28118572D01*
X-46214286Y28356667D01*
X-46261905Y28547143D01*
X-46309524Y28642381D01*
X-46357143Y28690000D01*
X-46452381Y28737620D01*
X-47166667Y28642381D02*
X-47214286Y28690000D01*
X-47309524Y28737620D01*
X-47547620Y28737620D01*
X-47642858Y28690000D01*
X-47690477Y28642381D01*
X-47738096Y28547143D01*
X-47738096Y28451905D01*
X-47690477Y28309048D01*
X-47119048Y27737620D01*
X-47738096Y27737620D01*
X-48071429Y27737620D02*
X-48595239Y28404286D01*
X-48071429Y28404286D02*
X-48595239Y27737620D01*
X-49166667Y28737620D02*
X-49261905Y28737620D01*
X-49357143Y28690000D01*
X-49404762Y28642381D01*
X-49452381Y28547143D01*
X-49500000Y28356667D01*
X-49500000Y28118572D01*
X-49452381Y27928096D01*
X-49404762Y27832858D01*
X-49357143Y27785239D01*
X-49261905Y27737620D01*
X-49166667Y27737620D01*
X-49071429Y27785239D01*
X-49023810Y27832858D01*
X-48976191Y27928096D01*
X-48928572Y28118572D01*
X-48928572Y28356667D01*
X-48976191Y28547143D01*
X-49023810Y28642381D01*
X-49071429Y28690000D01*
X-49166667Y28737620D01*
X-49833334Y28737620D02*
X-50452381Y28737620D01*
X-50119048Y28356667D01*
X-50261905Y28356667D01*
X-50357143Y28309048D01*
X-50404762Y28261429D01*
X-50452381Y28166191D01*
X-50452381Y27928096D01*
X-50404762Y27832858D01*
X-50357143Y27785239D01*
X-50261905Y27737620D01*
X-49976191Y27737620D01*
X-49880953Y27785239D01*
X-49833334Y27832858D01*
X-50642858Y27642381D02*
X-51404762Y27642381D01*
X-51833334Y28737620D02*
X-52023810Y28737620D01*
X-52119048Y28690000D01*
X-52214286Y28594762D01*
X-52261905Y28404286D01*
X-52261905Y28070953D01*
X-52214286Y27880477D01*
X-52119048Y27785239D01*
X-52023810Y27737620D01*
X-51833334Y27737620D01*
X-51738096Y27785239D01*
X-51642858Y27880477D01*
X-51595239Y28070953D01*
X-51595239Y28404286D01*
X-51642858Y28594762D01*
X-51738096Y28690000D01*
X-51833334Y28737620D01*
X-53119048Y27737620D02*
X-53119048Y28737620D01*
X-53119048Y27785239D02*
X-53023810Y27737620D01*
X-52833334Y27737620D01*
X-52738096Y27785239D01*
X-52690477Y27832858D01*
X-52642858Y27928096D01*
X-52642858Y28213810D01*
X-52690477Y28309048D01*
X-52738096Y28356667D01*
X-52833334Y28404286D01*
X-53023810Y28404286D01*
X-53119048Y28356667D01*
X-54023810Y27737620D02*
X-54023810Y28737620D01*
X-54023810Y27785239D02*
X-53928572Y27737620D01*
X-53738096Y27737620D01*
X-53642858Y27785239D01*
X-53595239Y27832858D01*
X-53547620Y27928096D01*
X-53547620Y28213810D01*
X-53595239Y28309048D01*
X-53642858Y28356667D01*
X-53738096Y28404286D01*
X-53928572Y28404286D01*
X-54023810Y28356667D01*
X-54261905Y27642381D02*
X-55023810Y27642381D01*
X-55261905Y28261429D02*
X-55595239Y28261429D01*
X-55738096Y27737620D02*
X-55261905Y27737620D01*
X-55261905Y28737620D01*
X-55738096Y28737620D01*
X-56071429Y28404286D02*
X-56309524Y27737620D01*
X-56547620Y28404286D01*
X-57309524Y27785239D02*
X-57214286Y27737620D01*
X-57023810Y27737620D01*
X-56928572Y27785239D01*
X-56880953Y27880477D01*
X-56880953Y28261429D01*
X-56928572Y28356667D01*
X-57023810Y28404286D01*
X-57214286Y28404286D01*
X-57309524Y28356667D01*
X-57357143Y28261429D01*
X-57357143Y28166191D01*
X-56880953Y28070953D01*
X-57785715Y28404286D02*
X-57785715Y27737620D01*
X-57785715Y28309048D02*
X-57833334Y28356667D01*
X-57928572Y28404286D01*
X-58071429Y28404286D01*
X-58166667Y28356667D01*
X-58214286Y28261429D01*
X-58214286Y27737620D01*
X-50547620Y33833334D02*
X-49833334Y33833334D01*
X-49690477Y33880953D01*
X-49595239Y33976191D01*
X-49547620Y34119048D01*
X-49547620Y34214286D01*
X-49547620Y32833334D02*
X-49547620Y33404762D01*
X-49547620Y33119048D02*
X-50547620Y33119048D01*
X-50404762Y33214286D01*
X-50309524Y33309524D01*
X-50261905Y33404762D01*
%TD*%
M02*
