%TF.GenerationSoftware,KiCad,Pcbnew,(5.1.5)-3*%
%TF.CreationDate,2020-05-31T21:31:08+02:00*%
%TF.ProjectId,speaker_grill,73706561-6b65-4725-9f67-72696c6c2e6b,rev?*%
%TF.SameCoordinates,PXbebc200PY5f5e100*%
%TF.FileFunction,Copper,L2,Bot*%
%TF.FilePolarity,Positive*%
%FSLAX46Y46*%
G04 Gerber Fmt 4.6, Leading zero omitted, Abs format (unit mm)*
G04 Created by KiCad (PCBNEW (5.1.5)-3) date 2020-05-31 21:31:08*
%MOMM*%
%LPD*%
G04 APERTURE LIST*
%TA.AperFunction,ConnectorPad*%
%ADD10R,1.400000X1.800000*%
%TD*%
%TA.AperFunction,SMDPad,CuDef*%
%ADD11R,0.600000X2.500000*%
%TD*%
%TA.AperFunction,SMDPad,CuDef*%
%ADD12C,0.100000*%
%TD*%
%TA.AperFunction,SMDPad,CuDef*%
%ADD13R,3.000000X1.000000*%
%TD*%
%TA.AperFunction,Conductor*%
%ADD14C,0.600000*%
%TD*%
%TA.AperFunction,Conductor*%
%ADD15C,0.254000*%
%TD*%
G04 APERTURE END LIST*
D10*
%TO.P,J4,9*%
%TO.N,GND*%
X-77600000Y9100000D03*
X-67600000Y9100000D03*
D11*
%TO.P,J4,2*%
%TO.N,L+*%
X-70100000Y14300000D03*
%TO.P,J4,1*%
%TO.N,L-*%
X-69100000Y14300000D03*
%TO.P,J4,3*%
%TO.N,R-*%
X-71100000Y14300000D03*
%TO.P,J4,4*%
%TO.N,R+*%
X-72100000Y14300000D03*
%TO.P,J4,5*%
%TO.N,GND*%
X-73100000Y14300000D03*
%TO.P,J4,6*%
%TO.N,I2C_SCL*%
X-74100000Y14300000D03*
%TO.P,J4,7*%
%TO.N,I2C_SDA*%
X-75100000Y14300000D03*
%TO.P,J4,8*%
%TO.N,3V3*%
X-76100000Y14300000D03*
%TD*%
%TA.AperFunction,SMDPad,CuDef*%
D12*
%TO.P,J3,MP*%
%TO.N,N/C*%
G36*
X-41225496Y18873796D02*
G01*
X-41201227Y18870196D01*
X-41177429Y18864235D01*
X-41154329Y18855970D01*
X-41132151Y18845480D01*
X-41111107Y18832867D01*
X-41091402Y18818253D01*
X-41073223Y18801777D01*
X-41056747Y18783598D01*
X-41042133Y18763893D01*
X-41029520Y18742849D01*
X-41019030Y18720671D01*
X-41010765Y18697571D01*
X-41004804Y18673773D01*
X-41001204Y18649504D01*
X-41000000Y18625000D01*
X-41000000Y17025000D01*
X-41001204Y17000496D01*
X-41004804Y16976227D01*
X-41010765Y16952429D01*
X-41019030Y16929329D01*
X-41029520Y16907151D01*
X-41042133Y16886107D01*
X-41056747Y16866402D01*
X-41073223Y16848223D01*
X-41091402Y16831747D01*
X-41111107Y16817133D01*
X-41132151Y16804520D01*
X-41154329Y16794030D01*
X-41177429Y16785765D01*
X-41201227Y16779804D01*
X-41225496Y16776204D01*
X-41250000Y16775000D01*
X-43750000Y16775000D01*
X-43774504Y16776204D01*
X-43798773Y16779804D01*
X-43822571Y16785765D01*
X-43845671Y16794030D01*
X-43867849Y16804520D01*
X-43888893Y16817133D01*
X-43908598Y16831747D01*
X-43926777Y16848223D01*
X-43943253Y16866402D01*
X-43957867Y16886107D01*
X-43970480Y16907151D01*
X-43980970Y16929329D01*
X-43989235Y16952429D01*
X-43995196Y16976227D01*
X-43998796Y17000496D01*
X-44000000Y17025000D01*
X-44000000Y18625000D01*
X-43998796Y18649504D01*
X-43995196Y18673773D01*
X-43989235Y18697571D01*
X-43980970Y18720671D01*
X-43970480Y18742849D01*
X-43957867Y18763893D01*
X-43943253Y18783598D01*
X-43926777Y18801777D01*
X-43908598Y18818253D01*
X-43888893Y18832867D01*
X-43867849Y18845480D01*
X-43845671Y18855970D01*
X-43822571Y18864235D01*
X-43798773Y18870196D01*
X-43774504Y18873796D01*
X-43750000Y18875000D01*
X-41250000Y18875000D01*
X-41225496Y18873796D01*
G37*
%TD.AperFunction*%
%TA.AperFunction,SMDPad,CuDef*%
G36*
X-41225496Y25223796D02*
G01*
X-41201227Y25220196D01*
X-41177429Y25214235D01*
X-41154329Y25205970D01*
X-41132151Y25195480D01*
X-41111107Y25182867D01*
X-41091402Y25168253D01*
X-41073223Y25151777D01*
X-41056747Y25133598D01*
X-41042133Y25113893D01*
X-41029520Y25092849D01*
X-41019030Y25070671D01*
X-41010765Y25047571D01*
X-41004804Y25023773D01*
X-41001204Y24999504D01*
X-41000000Y24975000D01*
X-41000000Y23375000D01*
X-41001204Y23350496D01*
X-41004804Y23326227D01*
X-41010765Y23302429D01*
X-41019030Y23279329D01*
X-41029520Y23257151D01*
X-41042133Y23236107D01*
X-41056747Y23216402D01*
X-41073223Y23198223D01*
X-41091402Y23181747D01*
X-41111107Y23167133D01*
X-41132151Y23154520D01*
X-41154329Y23144030D01*
X-41177429Y23135765D01*
X-41201227Y23129804D01*
X-41225496Y23126204D01*
X-41250000Y23125000D01*
X-43750000Y23125000D01*
X-43774504Y23126204D01*
X-43798773Y23129804D01*
X-43822571Y23135765D01*
X-43845671Y23144030D01*
X-43867849Y23154520D01*
X-43888893Y23167133D01*
X-43908598Y23181747D01*
X-43926777Y23198223D01*
X-43943253Y23216402D01*
X-43957867Y23236107D01*
X-43970480Y23257151D01*
X-43980970Y23279329D01*
X-43989235Y23302429D01*
X-43995196Y23326227D01*
X-43998796Y23350496D01*
X-44000000Y23375000D01*
X-44000000Y24975000D01*
X-43998796Y24999504D01*
X-43995196Y25023773D01*
X-43989235Y25047571D01*
X-43980970Y25070671D01*
X-43970480Y25092849D01*
X-43957867Y25113893D01*
X-43943253Y25133598D01*
X-43926777Y25151777D01*
X-43908598Y25168253D01*
X-43888893Y25182867D01*
X-43867849Y25195480D01*
X-43845671Y25205970D01*
X-43822571Y25214235D01*
X-43798773Y25220196D01*
X-43774504Y25223796D01*
X-43750000Y25225000D01*
X-41250000Y25225000D01*
X-41225496Y25223796D01*
G37*
%TD.AperFunction*%
%TA.AperFunction,SMDPad,CuDef*%
%TO.P,J3,2*%
%TO.N,R+*%
G36*
X-44780397Y20774037D02*
G01*
X-44760982Y20771157D01*
X-44741943Y20766388D01*
X-44723463Y20759776D01*
X-44705721Y20751384D01*
X-44688886Y20741294D01*
X-44673121Y20729602D01*
X-44658579Y20716421D01*
X-44645398Y20701879D01*
X-44633706Y20686114D01*
X-44623616Y20669279D01*
X-44615224Y20651537D01*
X-44608612Y20633057D01*
X-44603843Y20614018D01*
X-44600963Y20594603D01*
X-44600000Y20575000D01*
X-44600000Y20175000D01*
X-44600963Y20155397D01*
X-44603843Y20135982D01*
X-44608612Y20116943D01*
X-44615224Y20098463D01*
X-44623616Y20080721D01*
X-44633706Y20063886D01*
X-44645398Y20048121D01*
X-44658579Y20033579D01*
X-44673121Y20020398D01*
X-44688886Y20008706D01*
X-44705721Y19998616D01*
X-44723463Y19990224D01*
X-44741943Y19983612D01*
X-44760982Y19978843D01*
X-44780397Y19975963D01*
X-44800000Y19975000D01*
X-46000000Y19975000D01*
X-46019603Y19975963D01*
X-46039018Y19978843D01*
X-46058057Y19983612D01*
X-46076537Y19990224D01*
X-46094279Y19998616D01*
X-46111114Y20008706D01*
X-46126879Y20020398D01*
X-46141421Y20033579D01*
X-46154602Y20048121D01*
X-46166294Y20063886D01*
X-46176384Y20080721D01*
X-46184776Y20098463D01*
X-46191388Y20116943D01*
X-46196157Y20135982D01*
X-46199037Y20155397D01*
X-46200000Y20175000D01*
X-46200000Y20575000D01*
X-46199037Y20594603D01*
X-46196157Y20614018D01*
X-46191388Y20633057D01*
X-46184776Y20651537D01*
X-46176384Y20669279D01*
X-46166294Y20686114D01*
X-46154602Y20701879D01*
X-46141421Y20716421D01*
X-46126879Y20729602D01*
X-46111114Y20741294D01*
X-46094279Y20751384D01*
X-46076537Y20759776D01*
X-46058057Y20766388D01*
X-46039018Y20771157D01*
X-46019603Y20774037D01*
X-46000000Y20775000D01*
X-44800000Y20775000D01*
X-44780397Y20774037D01*
G37*
%TD.AperFunction*%
%TA.AperFunction,SMDPad,CuDef*%
%TO.P,J3,1*%
%TO.N,R-*%
G36*
X-44780397Y22024037D02*
G01*
X-44760982Y22021157D01*
X-44741943Y22016388D01*
X-44723463Y22009776D01*
X-44705721Y22001384D01*
X-44688886Y21991294D01*
X-44673121Y21979602D01*
X-44658579Y21966421D01*
X-44645398Y21951879D01*
X-44633706Y21936114D01*
X-44623616Y21919279D01*
X-44615224Y21901537D01*
X-44608612Y21883057D01*
X-44603843Y21864018D01*
X-44600963Y21844603D01*
X-44600000Y21825000D01*
X-44600000Y21425000D01*
X-44600963Y21405397D01*
X-44603843Y21385982D01*
X-44608612Y21366943D01*
X-44615224Y21348463D01*
X-44623616Y21330721D01*
X-44633706Y21313886D01*
X-44645398Y21298121D01*
X-44658579Y21283579D01*
X-44673121Y21270398D01*
X-44688886Y21258706D01*
X-44705721Y21248616D01*
X-44723463Y21240224D01*
X-44741943Y21233612D01*
X-44760982Y21228843D01*
X-44780397Y21225963D01*
X-44800000Y21225000D01*
X-46000000Y21225000D01*
X-46019603Y21225963D01*
X-46039018Y21228843D01*
X-46058057Y21233612D01*
X-46076537Y21240224D01*
X-46094279Y21248616D01*
X-46111114Y21258706D01*
X-46126879Y21270398D01*
X-46141421Y21283579D01*
X-46154602Y21298121D01*
X-46166294Y21313886D01*
X-46176384Y21330721D01*
X-46184776Y21348463D01*
X-46191388Y21366943D01*
X-46196157Y21385982D01*
X-46199037Y21405397D01*
X-46200000Y21425000D01*
X-46200000Y21825000D01*
X-46199037Y21844603D01*
X-46196157Y21864018D01*
X-46191388Y21883057D01*
X-46184776Y21901537D01*
X-46176384Y21919279D01*
X-46166294Y21936114D01*
X-46154602Y21951879D01*
X-46141421Y21966421D01*
X-46126879Y21979602D01*
X-46111114Y21991294D01*
X-46094279Y22001384D01*
X-46076537Y22009776D01*
X-46058057Y22016388D01*
X-46039018Y22021157D01*
X-46019603Y22024037D01*
X-46000000Y22025000D01*
X-44800000Y22025000D01*
X-44780397Y22024037D01*
G37*
%TD.AperFunction*%
%TD*%
%TA.AperFunction,SMDPad,CuDef*%
%TO.P,J2,MP*%
%TO.N,N/C*%
G36*
X-56225496Y25223796D02*
G01*
X-56201227Y25220196D01*
X-56177429Y25214235D01*
X-56154329Y25205970D01*
X-56132151Y25195480D01*
X-56111107Y25182867D01*
X-56091402Y25168253D01*
X-56073223Y25151777D01*
X-56056747Y25133598D01*
X-56042133Y25113893D01*
X-56029520Y25092849D01*
X-56019030Y25070671D01*
X-56010765Y25047571D01*
X-56004804Y25023773D01*
X-56001204Y24999504D01*
X-56000000Y24975000D01*
X-56000000Y23375000D01*
X-56001204Y23350496D01*
X-56004804Y23326227D01*
X-56010765Y23302429D01*
X-56019030Y23279329D01*
X-56029520Y23257151D01*
X-56042133Y23236107D01*
X-56056747Y23216402D01*
X-56073223Y23198223D01*
X-56091402Y23181747D01*
X-56111107Y23167133D01*
X-56132151Y23154520D01*
X-56154329Y23144030D01*
X-56177429Y23135765D01*
X-56201227Y23129804D01*
X-56225496Y23126204D01*
X-56250000Y23125000D01*
X-58750000Y23125000D01*
X-58774504Y23126204D01*
X-58798773Y23129804D01*
X-58822571Y23135765D01*
X-58845671Y23144030D01*
X-58867849Y23154520D01*
X-58888893Y23167133D01*
X-58908598Y23181747D01*
X-58926777Y23198223D01*
X-58943253Y23216402D01*
X-58957867Y23236107D01*
X-58970480Y23257151D01*
X-58980970Y23279329D01*
X-58989235Y23302429D01*
X-58995196Y23326227D01*
X-58998796Y23350496D01*
X-59000000Y23375000D01*
X-59000000Y24975000D01*
X-58998796Y24999504D01*
X-58995196Y25023773D01*
X-58989235Y25047571D01*
X-58980970Y25070671D01*
X-58970480Y25092849D01*
X-58957867Y25113893D01*
X-58943253Y25133598D01*
X-58926777Y25151777D01*
X-58908598Y25168253D01*
X-58888893Y25182867D01*
X-58867849Y25195480D01*
X-58845671Y25205970D01*
X-58822571Y25214235D01*
X-58798773Y25220196D01*
X-58774504Y25223796D01*
X-58750000Y25225000D01*
X-56250000Y25225000D01*
X-56225496Y25223796D01*
G37*
%TD.AperFunction*%
%TA.AperFunction,SMDPad,CuDef*%
G36*
X-56225496Y18873796D02*
G01*
X-56201227Y18870196D01*
X-56177429Y18864235D01*
X-56154329Y18855970D01*
X-56132151Y18845480D01*
X-56111107Y18832867D01*
X-56091402Y18818253D01*
X-56073223Y18801777D01*
X-56056747Y18783598D01*
X-56042133Y18763893D01*
X-56029520Y18742849D01*
X-56019030Y18720671D01*
X-56010765Y18697571D01*
X-56004804Y18673773D01*
X-56001204Y18649504D01*
X-56000000Y18625000D01*
X-56000000Y17025000D01*
X-56001204Y17000496D01*
X-56004804Y16976227D01*
X-56010765Y16952429D01*
X-56019030Y16929329D01*
X-56029520Y16907151D01*
X-56042133Y16886107D01*
X-56056747Y16866402D01*
X-56073223Y16848223D01*
X-56091402Y16831747D01*
X-56111107Y16817133D01*
X-56132151Y16804520D01*
X-56154329Y16794030D01*
X-56177429Y16785765D01*
X-56201227Y16779804D01*
X-56225496Y16776204D01*
X-56250000Y16775000D01*
X-58750000Y16775000D01*
X-58774504Y16776204D01*
X-58798773Y16779804D01*
X-58822571Y16785765D01*
X-58845671Y16794030D01*
X-58867849Y16804520D01*
X-58888893Y16817133D01*
X-58908598Y16831747D01*
X-58926777Y16848223D01*
X-58943253Y16866402D01*
X-58957867Y16886107D01*
X-58970480Y16907151D01*
X-58980970Y16929329D01*
X-58989235Y16952429D01*
X-58995196Y16976227D01*
X-58998796Y17000496D01*
X-59000000Y17025000D01*
X-59000000Y18625000D01*
X-58998796Y18649504D01*
X-58995196Y18673773D01*
X-58989235Y18697571D01*
X-58980970Y18720671D01*
X-58970480Y18742849D01*
X-58957867Y18763893D01*
X-58943253Y18783598D01*
X-58926777Y18801777D01*
X-58908598Y18818253D01*
X-58888893Y18832867D01*
X-58867849Y18845480D01*
X-58845671Y18855970D01*
X-58822571Y18864235D01*
X-58798773Y18870196D01*
X-58774504Y18873796D01*
X-58750000Y18875000D01*
X-56250000Y18875000D01*
X-56225496Y18873796D01*
G37*
%TD.AperFunction*%
%TA.AperFunction,SMDPad,CuDef*%
%TO.P,J2,2*%
%TO.N,L+*%
G36*
X-53980397Y22024037D02*
G01*
X-53960982Y22021157D01*
X-53941943Y22016388D01*
X-53923463Y22009776D01*
X-53905721Y22001384D01*
X-53888886Y21991294D01*
X-53873121Y21979602D01*
X-53858579Y21966421D01*
X-53845398Y21951879D01*
X-53833706Y21936114D01*
X-53823616Y21919279D01*
X-53815224Y21901537D01*
X-53808612Y21883057D01*
X-53803843Y21864018D01*
X-53800963Y21844603D01*
X-53800000Y21825000D01*
X-53800000Y21425000D01*
X-53800963Y21405397D01*
X-53803843Y21385982D01*
X-53808612Y21366943D01*
X-53815224Y21348463D01*
X-53823616Y21330721D01*
X-53833706Y21313886D01*
X-53845398Y21298121D01*
X-53858579Y21283579D01*
X-53873121Y21270398D01*
X-53888886Y21258706D01*
X-53905721Y21248616D01*
X-53923463Y21240224D01*
X-53941943Y21233612D01*
X-53960982Y21228843D01*
X-53980397Y21225963D01*
X-54000000Y21225000D01*
X-55200000Y21225000D01*
X-55219603Y21225963D01*
X-55239018Y21228843D01*
X-55258057Y21233612D01*
X-55276537Y21240224D01*
X-55294279Y21248616D01*
X-55311114Y21258706D01*
X-55326879Y21270398D01*
X-55341421Y21283579D01*
X-55354602Y21298121D01*
X-55366294Y21313886D01*
X-55376384Y21330721D01*
X-55384776Y21348463D01*
X-55391388Y21366943D01*
X-55396157Y21385982D01*
X-55399037Y21405397D01*
X-55400000Y21425000D01*
X-55400000Y21825000D01*
X-55399037Y21844603D01*
X-55396157Y21864018D01*
X-55391388Y21883057D01*
X-55384776Y21901537D01*
X-55376384Y21919279D01*
X-55366294Y21936114D01*
X-55354602Y21951879D01*
X-55341421Y21966421D01*
X-55326879Y21979602D01*
X-55311114Y21991294D01*
X-55294279Y22001384D01*
X-55276537Y22009776D01*
X-55258057Y22016388D01*
X-55239018Y22021157D01*
X-55219603Y22024037D01*
X-55200000Y22025000D01*
X-54000000Y22025000D01*
X-53980397Y22024037D01*
G37*
%TD.AperFunction*%
%TA.AperFunction,SMDPad,CuDef*%
%TO.P,J2,1*%
%TO.N,L-*%
G36*
X-53980397Y20774037D02*
G01*
X-53960982Y20771157D01*
X-53941943Y20766388D01*
X-53923463Y20759776D01*
X-53905721Y20751384D01*
X-53888886Y20741294D01*
X-53873121Y20729602D01*
X-53858579Y20716421D01*
X-53845398Y20701879D01*
X-53833706Y20686114D01*
X-53823616Y20669279D01*
X-53815224Y20651537D01*
X-53808612Y20633057D01*
X-53803843Y20614018D01*
X-53800963Y20594603D01*
X-53800000Y20575000D01*
X-53800000Y20175000D01*
X-53800963Y20155397D01*
X-53803843Y20135982D01*
X-53808612Y20116943D01*
X-53815224Y20098463D01*
X-53823616Y20080721D01*
X-53833706Y20063886D01*
X-53845398Y20048121D01*
X-53858579Y20033579D01*
X-53873121Y20020398D01*
X-53888886Y20008706D01*
X-53905721Y19998616D01*
X-53923463Y19990224D01*
X-53941943Y19983612D01*
X-53960982Y19978843D01*
X-53980397Y19975963D01*
X-54000000Y19975000D01*
X-55200000Y19975000D01*
X-55219603Y19975963D01*
X-55239018Y19978843D01*
X-55258057Y19983612D01*
X-55276537Y19990224D01*
X-55294279Y19998616D01*
X-55311114Y20008706D01*
X-55326879Y20020398D01*
X-55341421Y20033579D01*
X-55354602Y20048121D01*
X-55366294Y20063886D01*
X-55376384Y20080721D01*
X-55384776Y20098463D01*
X-55391388Y20116943D01*
X-55396157Y20135982D01*
X-55399037Y20155397D01*
X-55400000Y20175000D01*
X-55400000Y20575000D01*
X-55399037Y20594603D01*
X-55396157Y20614018D01*
X-55391388Y20633057D01*
X-55384776Y20651537D01*
X-55376384Y20669279D01*
X-55366294Y20686114D01*
X-55354602Y20701879D01*
X-55341421Y20716421D01*
X-55326879Y20729602D01*
X-55311114Y20741294D01*
X-55294279Y20751384D01*
X-55276537Y20759776D01*
X-55258057Y20766388D01*
X-55239018Y20771157D01*
X-55219603Y20774037D01*
X-55200000Y20775000D01*
X-54000000Y20775000D01*
X-53980397Y20774037D01*
G37*
%TD.AperFunction*%
%TD*%
D13*
%TO.P,J1,6*%
%TO.N,Net-(J1-Pad6)*%
X-47480000Y30960000D03*
%TO.P,J1,5*%
%TO.N,Net-(J1-Pad5)*%
X-52520000Y30960000D03*
%TO.P,J1,4*%
%TO.N,I2C_SCL*%
X-47480000Y33500000D03*
%TO.P,J1,3*%
%TO.N,I2C_SDA*%
X-52520000Y33500000D03*
%TO.P,J1,2*%
%TO.N,GND*%
X-47480000Y36040000D03*
%TO.P,J1,1*%
%TO.N,3V3*%
X-52520000Y36040000D03*
%TD*%
D14*
%TO.N,I2C_SCL*%
X-74100000Y16500000D02*
X-74100000Y14300000D01*
X-64924990Y25725010D02*
X-74125000Y16525000D01*
X-47480000Y33500000D02*
X-48480000Y33500000D01*
X-49600000Y32380000D02*
X-49600000Y30979998D01*
X-49600000Y30979998D02*
X-54854988Y25725010D01*
X-48480000Y33500000D02*
X-49600000Y32380000D01*
X-54854988Y25725010D02*
X-64924990Y25725010D01*
%TO.N,I2C_SDA*%
X-54620000Y33500000D02*
X-52520000Y33500000D01*
X-58281384Y33500000D02*
X-54620000Y33500000D01*
X-75100000Y16681384D02*
X-75100000Y14300000D01*
X-74990692Y16790692D02*
X-58281384Y33500000D01*
X-74990692Y16790692D02*
X-75100000Y16681384D01*
%TO.N,3V3*%
X-54620000Y36040000D02*
X-52520000Y36040000D01*
X-56872768Y36040000D02*
X-54620000Y36040000D01*
X-76100000Y16812768D02*
X-76100000Y14300000D01*
X-76056384Y16856384D02*
X-76100000Y16812768D01*
X-76056384Y16856384D02*
X-56872768Y36040000D01*
%TO.N,L+*%
X-54600000Y21625000D02*
X-65025000Y21625000D01*
X-70100000Y16550000D02*
X-70100000Y14300000D01*
X-65025000Y21625000D02*
X-70100000Y16550000D01*
%TO.N,L-*%
X-55400000Y20375000D02*
X-54600000Y20375000D01*
X-62525000Y20375000D02*
X-55400000Y20375000D01*
X-69000000Y14200000D02*
X-68700000Y14200000D01*
X-68700000Y14200000D02*
X-62525000Y20375000D01*
%TO.N,R+*%
X-71140693Y11000000D02*
X-72100000Y11959307D01*
X-45400000Y20375000D02*
X-54775000Y11000000D01*
X-72100000Y11959307D02*
X-72100000Y14300000D01*
X-54775000Y11000000D02*
X-71140693Y11000000D01*
%TO.N,R-*%
X-46200000Y21625000D02*
X-45400000Y21625000D01*
X-55275001Y12549999D02*
X-46200000Y21625000D01*
X-70800001Y12549999D02*
X-71100000Y12849998D01*
X-70549999Y12549999D02*
X-55275001Y12549999D01*
X-71100000Y12849998D02*
X-71100000Y14300000D01*
X-70549999Y12549999D02*
X-70800001Y12549999D01*
%TD*%
D15*
%TO.N,GND*%
G36*
X-1747171Y39276877D02*
G01*
X-1503974Y39203451D01*
X-1279669Y39084186D01*
X-1082801Y38923625D01*
X-920869Y38727883D01*
X-800043Y38504420D01*
X-724920Y38261736D01*
X-695000Y37977071D01*
X-694999Y695000D01*
X-6505000Y695000D01*
X-6505000Y1034135D01*
X-6507996Y1064558D01*
X-6507910Y1076953D01*
X-6508856Y1086611D01*
X-6549657Y1474804D01*
X-6562325Y1536518D01*
X-6574127Y1598383D01*
X-6576932Y1607673D01*
X-6692355Y1980548D01*
X-6716765Y2038617D01*
X-6740362Y2097021D01*
X-6744918Y2105589D01*
X-6744918Y2105590D01*
X-6744921Y2105594D01*
X-6930569Y2448944D01*
X-6965792Y2501165D01*
X-7000286Y2553876D01*
X-7006419Y2561397D01*
X-7255226Y2862152D01*
X-7299935Y2906550D01*
X-7343995Y2951542D01*
X-7351466Y2957722D01*
X-7351472Y2957728D01*
X-7351479Y2957732D01*
X-7361452Y2965866D01*
X-6695000Y2965866D01*
X-6691537Y2930708D01*
X-6691537Y2911236D01*
X-6690523Y2901585D01*
X-6657890Y2610660D01*
X-6644794Y2549051D01*
X-6632558Y2487256D01*
X-6629689Y2477986D01*
X-6541171Y2198941D01*
X-6516348Y2141024D01*
X-6492351Y2082805D01*
X-6487736Y2074268D01*
X-6346703Y1817730D01*
X-6311105Y1765740D01*
X-6276256Y1713289D01*
X-6270071Y1705811D01*
X-6081896Y1481553D01*
X-6036882Y1437472D01*
X-5992504Y1392784D01*
X-5984990Y1386656D01*
X-5984985Y1386651D01*
X-5984980Y1386647D01*
X-5756834Y1203214D01*
X-5704139Y1168731D01*
X-5651905Y1133499D01*
X-5643337Y1128943D01*
X-5383902Y993313D01*
X-5325475Y969707D01*
X-5267427Y945306D01*
X-5258145Y942503D01*
X-5258139Y942501D01*
X-5258133Y942500D01*
X-4977299Y859846D01*
X-4915438Y848045D01*
X-4853718Y835376D01*
X-4844062Y834429D01*
X-4844060Y834429D01*
X-4552516Y807897D01*
X-4489528Y808337D01*
X-4426540Y807897D01*
X-4416882Y808844D01*
X-4416879Y808844D01*
X-4416876Y808845D01*
X-4125737Y839444D01*
X-4064017Y852113D01*
X-4002156Y863914D01*
X-3992874Y866717D01*
X-3992867Y866718D01*
X-3992861Y866721D01*
X-3713210Y953286D01*
X-3655118Y977706D01*
X-3596735Y1001294D01*
X-3588172Y1005847D01*
X-3588168Y1005849D01*
X-3588165Y1005851D01*
X-3330651Y1145089D01*
X-3278417Y1180321D01*
X-3225722Y1214804D01*
X-3218204Y1220935D01*
X-3218200Y1220938D01*
X-3218196Y1220942D01*
X-2992635Y1407542D01*
X-2948255Y1452232D01*
X-2903244Y1496311D01*
X-2897058Y1503788D01*
X-2712032Y1730652D01*
X-2677171Y1783121D01*
X-2641585Y1835094D01*
X-2636974Y1843622D01*
X-2636969Y1843630D01*
X-2636966Y1843638D01*
X-2499533Y2102111D01*
X-2475539Y2160325D01*
X-2450714Y2218246D01*
X-2447844Y2227516D01*
X-2363230Y2507770D01*
X-2350997Y2569553D01*
X-2337898Y2631178D01*
X-2336884Y2640829D01*
X-2308317Y2932180D01*
X-2308317Y2932187D01*
X-2305000Y2965865D01*
X-2305000Y7034135D01*
X-2308463Y7069293D01*
X-2308463Y7088765D01*
X-2309477Y7098416D01*
X-2342110Y7389340D01*
X-2355206Y7450949D01*
X-2367442Y7512744D01*
X-2370311Y7522015D01*
X-2458829Y7801059D01*
X-2483646Y7858962D01*
X-2507649Y7917196D01*
X-2512264Y7925732D01*
X-2653297Y8182270D01*
X-2688895Y8234260D01*
X-2723744Y8286711D01*
X-2729929Y8294189D01*
X-2918104Y8518447D01*
X-2963119Y8562528D01*
X-3007496Y8607216D01*
X-3015016Y8613349D01*
X-3243166Y8796786D01*
X-3295861Y8831269D01*
X-3348095Y8866501D01*
X-3356663Y8871057D01*
X-3616098Y9006687D01*
X-3674525Y9030293D01*
X-3732573Y9054694D01*
X-3741855Y9057497D01*
X-3741861Y9057499D01*
X-3741867Y9057500D01*
X-4022701Y9140154D01*
X-4084562Y9151955D01*
X-4146282Y9164624D01*
X-4155938Y9165571D01*
X-4155940Y9165571D01*
X-4447484Y9192103D01*
X-4510472Y9191663D01*
X-4573460Y9192103D01*
X-4583118Y9191156D01*
X-4583121Y9191156D01*
X-4583124Y9191155D01*
X-4874263Y9160556D01*
X-4935977Y9147888D01*
X-4997844Y9136086D01*
X-5007126Y9133283D01*
X-5007133Y9133282D01*
X-5007139Y9133279D01*
X-5286790Y9046713D01*
X-5344849Y9022307D01*
X-5403265Y8998706D01*
X-5411828Y8994153D01*
X-5411832Y8994151D01*
X-5411833Y8994150D01*
X-5669349Y8854911D01*
X-5721583Y8819679D01*
X-5774278Y8785196D01*
X-5781796Y8779065D01*
X-5781800Y8779062D01*
X-5781804Y8779058D01*
X-6007365Y8592458D01*
X-6051745Y8547768D01*
X-6096756Y8503689D01*
X-6102942Y8496212D01*
X-6287968Y8269348D01*
X-6322829Y8216879D01*
X-6358415Y8164906D01*
X-6363026Y8156378D01*
X-6363031Y8156370D01*
X-6363031Y8156369D01*
X-6500467Y7897889D01*
X-6524461Y7839675D01*
X-6549286Y7781754D01*
X-6552156Y7772484D01*
X-6636770Y7492230D01*
X-6649003Y7430447D01*
X-6662102Y7368822D01*
X-6663116Y7359171D01*
X-6691683Y7067819D01*
X-6691683Y7067802D01*
X-6694999Y7034135D01*
X-6695000Y2965866D01*
X-7361452Y2965866D01*
X-7653956Y3204428D01*
X-7706425Y3239289D01*
X-7758398Y3274875D01*
X-7766926Y3279486D01*
X-7766934Y3279491D01*
X-7766942Y3279494D01*
X-8111575Y3462740D01*
X-8169839Y3486755D01*
X-8227713Y3511559D01*
X-8236975Y3514427D01*
X-8236981Y3514429D01*
X-8236987Y3514430D01*
X-8610654Y3627247D01*
X-8672436Y3639480D01*
X-8734059Y3652578D01*
X-8743710Y3653593D01*
X-9132179Y3691683D01*
X-9132187Y3691683D01*
X-9165865Y3695000D01*
X-17634135Y3695000D01*
X-17664558Y3692004D01*
X-17676953Y3692090D01*
X-17686611Y3691144D01*
X-18074804Y3650343D01*
X-18136518Y3637675D01*
X-18198383Y3625873D01*
X-18207671Y3623069D01*
X-18207677Y3623067D01*
X-18580548Y3507645D01*
X-18638617Y3483235D01*
X-18697021Y3459638D01*
X-18705585Y3455084D01*
X-18705590Y3455082D01*
X-18705591Y3455081D01*
X-19048944Y3269431D01*
X-19101165Y3234208D01*
X-19153876Y3199714D01*
X-19161397Y3193581D01*
X-19462152Y2944774D01*
X-19506550Y2900065D01*
X-19551542Y2856005D01*
X-19557722Y2848534D01*
X-19557728Y2848528D01*
X-19557732Y2848521D01*
X-19804428Y2546044D01*
X-19839289Y2493575D01*
X-19874875Y2441602D01*
X-19879486Y2433074D01*
X-19879491Y2433066D01*
X-19879494Y2433058D01*
X-20062740Y2088425D01*
X-20086755Y2030161D01*
X-20111559Y1972287D01*
X-20114427Y1963025D01*
X-20114429Y1963019D01*
X-20114429Y1963017D01*
X-20227247Y1589346D01*
X-20239480Y1527564D01*
X-20252578Y1465941D01*
X-20253593Y1456290D01*
X-20291683Y1067821D01*
X-20291683Y1067802D01*
X-20294999Y1034135D01*
X-20294999Y695000D01*
X-99305000Y695000D01*
X-99305000Y2965866D01*
X-97695000Y2965866D01*
X-97691537Y2930708D01*
X-97691537Y2911236D01*
X-97690523Y2901585D01*
X-97657890Y2610660D01*
X-97644794Y2549051D01*
X-97632558Y2487256D01*
X-97629689Y2477986D01*
X-97541171Y2198941D01*
X-97516348Y2141024D01*
X-97492351Y2082805D01*
X-97487736Y2074268D01*
X-97346703Y1817730D01*
X-97311105Y1765740D01*
X-97276256Y1713289D01*
X-97270071Y1705811D01*
X-97081896Y1481553D01*
X-97036882Y1437472D01*
X-96992504Y1392784D01*
X-96984990Y1386656D01*
X-96984985Y1386651D01*
X-96984980Y1386647D01*
X-96756834Y1203214D01*
X-96704139Y1168731D01*
X-96651905Y1133499D01*
X-96643337Y1128943D01*
X-96383902Y993313D01*
X-96325475Y969707D01*
X-96267427Y945306D01*
X-96258145Y942503D01*
X-96258139Y942501D01*
X-96258133Y942500D01*
X-95977299Y859846D01*
X-95915438Y848045D01*
X-95853718Y835376D01*
X-95844062Y834429D01*
X-95844060Y834429D01*
X-95552516Y807897D01*
X-95489528Y808337D01*
X-95426540Y807897D01*
X-95416882Y808844D01*
X-95416879Y808844D01*
X-95416876Y808845D01*
X-95125737Y839444D01*
X-95064017Y852113D01*
X-95002156Y863914D01*
X-94992874Y866717D01*
X-94992867Y866718D01*
X-94992861Y866721D01*
X-94713210Y953286D01*
X-94655118Y977706D01*
X-94596735Y1001294D01*
X-94588172Y1005847D01*
X-94588168Y1005849D01*
X-94588165Y1005851D01*
X-94330651Y1145089D01*
X-94278417Y1180321D01*
X-94225722Y1214804D01*
X-94218204Y1220935D01*
X-94218200Y1220938D01*
X-94218196Y1220942D01*
X-93992635Y1407542D01*
X-93948255Y1452232D01*
X-93903244Y1496311D01*
X-93897058Y1503788D01*
X-93712032Y1730652D01*
X-93677171Y1783121D01*
X-93641585Y1835094D01*
X-93636974Y1843622D01*
X-93636969Y1843630D01*
X-93636966Y1843638D01*
X-93499533Y2102111D01*
X-93475539Y2160325D01*
X-93450714Y2218246D01*
X-93447844Y2227516D01*
X-93363230Y2507770D01*
X-93350997Y2569553D01*
X-93337898Y2631178D01*
X-93336884Y2640829D01*
X-93308317Y2932180D01*
X-93308317Y2932187D01*
X-93305000Y2965865D01*
X-93305000Y7034135D01*
X-93308463Y7069293D01*
X-93308463Y7088765D01*
X-93309477Y7098416D01*
X-93342110Y7389340D01*
X-93355206Y7450949D01*
X-93367442Y7512744D01*
X-93370311Y7522015D01*
X-93458829Y7801059D01*
X-93483646Y7858962D01*
X-93507649Y7917196D01*
X-93512264Y7925732D01*
X-93653297Y8182270D01*
X-93665436Y8200000D01*
X-78938072Y8200000D01*
X-78925812Y8075518D01*
X-78889502Y7955820D01*
X-78830537Y7845506D01*
X-78751185Y7748815D01*
X-78654494Y7669463D01*
X-78544180Y7610498D01*
X-78424482Y7574188D01*
X-78300000Y7561928D01*
X-77885750Y7565000D01*
X-77727000Y7723750D01*
X-77727000Y8973000D01*
X-77473000Y8973000D01*
X-77473000Y7723750D01*
X-77314250Y7565000D01*
X-76900000Y7561928D01*
X-76775518Y7574188D01*
X-76655820Y7610498D01*
X-76545506Y7669463D01*
X-76448815Y7748815D01*
X-76369463Y7845506D01*
X-76310498Y7955820D01*
X-76274188Y8075518D01*
X-76261928Y8200000D01*
X-68938072Y8200000D01*
X-68925812Y8075518D01*
X-68889502Y7955820D01*
X-68830537Y7845506D01*
X-68751185Y7748815D01*
X-68654494Y7669463D01*
X-68544180Y7610498D01*
X-68424482Y7574188D01*
X-68300000Y7561928D01*
X-67885750Y7565000D01*
X-67727000Y7723750D01*
X-67727000Y8973000D01*
X-67473000Y8973000D01*
X-67473000Y7723750D01*
X-67314250Y7565000D01*
X-66900000Y7561928D01*
X-66775518Y7574188D01*
X-66655820Y7610498D01*
X-66545506Y7669463D01*
X-66448815Y7748815D01*
X-66369463Y7845506D01*
X-66310498Y7955820D01*
X-66274188Y8075518D01*
X-66261928Y8200000D01*
X-66265000Y8814250D01*
X-66423750Y8973000D01*
X-67473000Y8973000D01*
X-67727000Y8973000D01*
X-68776250Y8973000D01*
X-68935000Y8814250D01*
X-68938072Y8200000D01*
X-76261928Y8200000D01*
X-76265000Y8814250D01*
X-76423750Y8973000D01*
X-77473000Y8973000D01*
X-77727000Y8973000D01*
X-78776250Y8973000D01*
X-78935000Y8814250D01*
X-78938072Y8200000D01*
X-93665436Y8200000D01*
X-93688895Y8234260D01*
X-93723744Y8286711D01*
X-93729929Y8294189D01*
X-93918104Y8518447D01*
X-93963119Y8562528D01*
X-94007496Y8607216D01*
X-94015016Y8613349D01*
X-94243166Y8796786D01*
X-94295861Y8831269D01*
X-94348095Y8866501D01*
X-94356663Y8871057D01*
X-94616098Y9006687D01*
X-94674525Y9030293D01*
X-94732573Y9054694D01*
X-94741855Y9057497D01*
X-94741861Y9057499D01*
X-94741867Y9057500D01*
X-95022701Y9140154D01*
X-95084562Y9151955D01*
X-95146282Y9164624D01*
X-95155938Y9165571D01*
X-95155940Y9165571D01*
X-95447484Y9192103D01*
X-95510472Y9191663D01*
X-95573460Y9192103D01*
X-95583118Y9191156D01*
X-95583121Y9191156D01*
X-95583124Y9191155D01*
X-95874263Y9160556D01*
X-95935977Y9147888D01*
X-95997844Y9136086D01*
X-96007126Y9133283D01*
X-96007133Y9133282D01*
X-96007139Y9133279D01*
X-96286790Y9046713D01*
X-96344849Y9022307D01*
X-96403265Y8998706D01*
X-96411828Y8994153D01*
X-96411832Y8994151D01*
X-96411833Y8994150D01*
X-96669349Y8854911D01*
X-96721583Y8819679D01*
X-96774278Y8785196D01*
X-96781796Y8779065D01*
X-96781800Y8779062D01*
X-96781804Y8779058D01*
X-97007365Y8592458D01*
X-97051745Y8547768D01*
X-97096756Y8503689D01*
X-97102942Y8496212D01*
X-97287968Y8269348D01*
X-97322829Y8216879D01*
X-97358415Y8164906D01*
X-97363026Y8156378D01*
X-97363031Y8156370D01*
X-97363031Y8156369D01*
X-97500467Y7897889D01*
X-97524461Y7839675D01*
X-97549286Y7781754D01*
X-97552156Y7772484D01*
X-97636770Y7492230D01*
X-97649003Y7430447D01*
X-97662102Y7368822D01*
X-97663116Y7359171D01*
X-97691683Y7067819D01*
X-97691683Y7067802D01*
X-97694999Y7034135D01*
X-97695000Y2965866D01*
X-99305000Y2965866D01*
X-99305000Y10000000D01*
X-78938072Y10000000D01*
X-78935000Y9385750D01*
X-78776250Y9227000D01*
X-77727000Y9227000D01*
X-77727000Y10476250D01*
X-77473000Y10476250D01*
X-77473000Y9227000D01*
X-76423750Y9227000D01*
X-76265000Y9385750D01*
X-76261928Y10000000D01*
X-76274188Y10124482D01*
X-76310498Y10244180D01*
X-76369463Y10354494D01*
X-76448815Y10451185D01*
X-76545506Y10530537D01*
X-76655820Y10589502D01*
X-76775518Y10625812D01*
X-76900000Y10638072D01*
X-77314250Y10635000D01*
X-77473000Y10476250D01*
X-77727000Y10476250D01*
X-77885750Y10635000D01*
X-78300000Y10638072D01*
X-78424482Y10625812D01*
X-78544180Y10589502D01*
X-78654494Y10530537D01*
X-78751185Y10451185D01*
X-78830537Y10354494D01*
X-78889502Y10244180D01*
X-78925812Y10124482D01*
X-78938072Y10000000D01*
X-99305000Y10000000D01*
X-99305000Y24721721D01*
X-92692795Y24721721D01*
X-92692795Y23478279D01*
X-92515835Y22247494D01*
X-92165517Y21054420D01*
X-91648972Y19923345D01*
X-90976717Y18877295D01*
X-90162436Y17937564D01*
X-89222705Y17123283D01*
X-88176655Y16451028D01*
X-87045580Y15934483D01*
X-85852506Y15584165D01*
X-84621721Y15407205D01*
X-83378279Y15407205D01*
X-82147494Y15584165D01*
X-80954420Y15934483D01*
X-79823345Y16451028D01*
X-79260467Y16812768D01*
X-77039524Y16812768D01*
X-77035000Y16766836D01*
X-77035000Y15581197D01*
X-77038072Y15550000D01*
X-77038072Y13050000D01*
X-77025812Y12925518D01*
X-76989502Y12805820D01*
X-76930537Y12695506D01*
X-76851185Y12598815D01*
X-76754494Y12519463D01*
X-76644180Y12460498D01*
X-76524482Y12424188D01*
X-76400000Y12411928D01*
X-75800000Y12411928D01*
X-75675518Y12424188D01*
X-75600000Y12447096D01*
X-75524482Y12424188D01*
X-75400000Y12411928D01*
X-74800000Y12411928D01*
X-74675518Y12424188D01*
X-74600000Y12447096D01*
X-74524482Y12424188D01*
X-74400000Y12411928D01*
X-73800000Y12411928D01*
X-73675518Y12424188D01*
X-73600000Y12447096D01*
X-73524482Y12424188D01*
X-73400000Y12411928D01*
X-73385750Y12415000D01*
X-73227000Y12573750D01*
X-73227000Y12774947D01*
X-73210498Y12805820D01*
X-73174188Y12925518D01*
X-73161928Y13050000D01*
X-73161928Y15550000D01*
X-73165000Y15581192D01*
X-73165000Y16162711D01*
X-64537701Y24790010D01*
X-59638072Y24790010D01*
X-59638072Y23375000D01*
X-59621008Y23201746D01*
X-59570472Y23035150D01*
X-59488405Y22881614D01*
X-59377962Y22747038D01*
X-59243386Y22636595D01*
X-59100087Y22560000D01*
X-64979068Y22560000D01*
X-65025000Y22564524D01*
X-65070932Y22560000D01*
X-65208292Y22546471D01*
X-65384540Y22493007D01*
X-65546972Y22406186D01*
X-65689344Y22289344D01*
X-65718630Y22253659D01*
X-70728659Y17243630D01*
X-70764344Y17214344D01*
X-70881186Y17071971D01*
X-70968007Y16909539D01*
X-71021471Y16733292D01*
X-71021471Y16733291D01*
X-71039524Y16550000D01*
X-71035000Y16504068D01*
X-71035000Y16188072D01*
X-71400000Y16188072D01*
X-71524482Y16175812D01*
X-71600000Y16152904D01*
X-71675518Y16175812D01*
X-71800000Y16188072D01*
X-72400000Y16188072D01*
X-72524482Y16175812D01*
X-72600000Y16152904D01*
X-72675518Y16175812D01*
X-72800000Y16188072D01*
X-72814250Y16185000D01*
X-72973000Y16026250D01*
X-72973000Y15825053D01*
X-72989502Y15794180D01*
X-73025812Y15674482D01*
X-73038072Y15550000D01*
X-73038072Y13050000D01*
X-73035000Y13018804D01*
X-73035000Y12005239D01*
X-73039524Y11959307D01*
X-73029386Y11856376D01*
X-73021471Y11776016D01*
X-72968007Y11599768D01*
X-72881186Y11437336D01*
X-72764344Y11294963D01*
X-72728659Y11265677D01*
X-71834323Y10371341D01*
X-71805037Y10335656D01*
X-71662665Y10218814D01*
X-71500233Y10131993D01*
X-71323985Y10078529D01*
X-71140693Y10060476D01*
X-71094761Y10065000D01*
X-68931670Y10065000D01*
X-68938072Y10000000D01*
X-68935000Y9385750D01*
X-68776250Y9227000D01*
X-67727000Y9227000D01*
X-67727000Y9247000D01*
X-67473000Y9247000D01*
X-67473000Y9227000D01*
X-66423750Y9227000D01*
X-66265000Y9385750D01*
X-66261928Y10000000D01*
X-66268330Y10065000D01*
X-54820932Y10065000D01*
X-54775000Y10060476D01*
X-54729068Y10065000D01*
X-54591708Y10078529D01*
X-54415460Y10131993D01*
X-54253028Y10218814D01*
X-54110656Y10335656D01*
X-54081370Y10371341D01*
X-45827711Y18625000D01*
X-44638072Y18625000D01*
X-44638072Y17025000D01*
X-44621008Y16851746D01*
X-44570472Y16685150D01*
X-44488405Y16531614D01*
X-44377962Y16397038D01*
X-44243386Y16286595D01*
X-44089850Y16204528D01*
X-43923254Y16153992D01*
X-43750000Y16136928D01*
X-41250000Y16136928D01*
X-41076746Y16153992D01*
X-40910150Y16204528D01*
X-40756614Y16286595D01*
X-40622038Y16397038D01*
X-40511595Y16531614D01*
X-40429528Y16685150D01*
X-40378992Y16851746D01*
X-40361928Y17025000D01*
X-40361928Y18625000D01*
X-40378992Y18798254D01*
X-40429528Y18964850D01*
X-40511595Y19118386D01*
X-40622038Y19252962D01*
X-40756614Y19363405D01*
X-40910150Y19445472D01*
X-41076746Y19496008D01*
X-41250000Y19513072D01*
X-43750000Y19513072D01*
X-43923254Y19496008D01*
X-44089850Y19445472D01*
X-44243386Y19363405D01*
X-44377962Y19252962D01*
X-44488405Y19118386D01*
X-44570472Y18964850D01*
X-44621008Y18798254D01*
X-44638072Y18625000D01*
X-45827711Y18625000D01*
X-45115782Y19336928D01*
X-44800000Y19336928D01*
X-44636500Y19353031D01*
X-44479284Y19400722D01*
X-44334392Y19478169D01*
X-44207394Y19582394D01*
X-44103169Y19709392D01*
X-44025722Y19854284D01*
X-43978031Y20011500D01*
X-43961928Y20175000D01*
X-43961928Y20575000D01*
X-43978031Y20738500D01*
X-44025722Y20895716D01*
X-44081463Y21000000D01*
X-44025722Y21104284D01*
X-43978031Y21261500D01*
X-43961928Y21425000D01*
X-43961928Y21825000D01*
X-43978031Y21988500D01*
X-44025722Y22145716D01*
X-44103169Y22290608D01*
X-44207394Y22417606D01*
X-44334392Y22521831D01*
X-44479284Y22599278D01*
X-44636500Y22646969D01*
X-44800000Y22663072D01*
X-46000000Y22663072D01*
X-46163500Y22646969D01*
X-46320716Y22599278D01*
X-46465608Y22521831D01*
X-46466246Y22521307D01*
X-46559540Y22493007D01*
X-46721972Y22406186D01*
X-46864344Y22289344D01*
X-46893625Y22253665D01*
X-55662290Y13484999D01*
X-68097382Y13484999D01*
X-68035656Y13535656D01*
X-68006370Y13571341D01*
X-62137711Y19440000D01*
X-59100087Y19440000D01*
X-59243386Y19363405D01*
X-59377962Y19252962D01*
X-59488405Y19118386D01*
X-59570472Y18964850D01*
X-59621008Y18798254D01*
X-59638072Y18625000D01*
X-59638072Y17025000D01*
X-59621008Y16851746D01*
X-59570472Y16685150D01*
X-59488405Y16531614D01*
X-59377962Y16397038D01*
X-59243386Y16286595D01*
X-59089850Y16204528D01*
X-58923254Y16153992D01*
X-58750000Y16136928D01*
X-56250000Y16136928D01*
X-56076746Y16153992D01*
X-55910150Y16204528D01*
X-55756614Y16286595D01*
X-55622038Y16397038D01*
X-55511595Y16531614D01*
X-55429528Y16685150D01*
X-55378992Y16851746D01*
X-55361928Y17025000D01*
X-55361928Y18625000D01*
X-55378992Y18798254D01*
X-55429528Y18964850D01*
X-55511595Y19118386D01*
X-55622038Y19252962D01*
X-55756614Y19363405D01*
X-55899913Y19440000D01*
X-55594199Y19440000D01*
X-55520716Y19400722D01*
X-55363500Y19353031D01*
X-55200000Y19336928D01*
X-54000000Y19336928D01*
X-53836500Y19353031D01*
X-53679284Y19400722D01*
X-53534392Y19478169D01*
X-53407394Y19582394D01*
X-53303169Y19709392D01*
X-53225722Y19854284D01*
X-53178031Y20011500D01*
X-53161928Y20175000D01*
X-53161928Y20575000D01*
X-53178031Y20738500D01*
X-53225722Y20895716D01*
X-53281463Y21000000D01*
X-53225722Y21104284D01*
X-53178031Y21261500D01*
X-53161928Y21425000D01*
X-53161928Y21825000D01*
X-53178031Y21988500D01*
X-53225722Y22145716D01*
X-53303169Y22290608D01*
X-53407394Y22417606D01*
X-53534392Y22521831D01*
X-53679284Y22599278D01*
X-53836500Y22646969D01*
X-54000000Y22663072D01*
X-55200000Y22663072D01*
X-55363500Y22646969D01*
X-55520716Y22599278D01*
X-55594199Y22560000D01*
X-55899913Y22560000D01*
X-55756614Y22636595D01*
X-55622038Y22747038D01*
X-55511595Y22881614D01*
X-55429528Y23035150D01*
X-55378992Y23201746D01*
X-55361928Y23375000D01*
X-55361928Y24790010D01*
X-54900920Y24790010D01*
X-54854988Y24785486D01*
X-54809056Y24790010D01*
X-54671696Y24803539D01*
X-54495448Y24857003D01*
X-54333016Y24943824D01*
X-54295029Y24975000D01*
X-44638072Y24975000D01*
X-44638072Y23375000D01*
X-44621008Y23201746D01*
X-44570472Y23035150D01*
X-44488405Y22881614D01*
X-44377962Y22747038D01*
X-44243386Y22636595D01*
X-44089850Y22554528D01*
X-43923254Y22503992D01*
X-43750000Y22486928D01*
X-41250000Y22486928D01*
X-41076746Y22503992D01*
X-40910150Y22554528D01*
X-40756614Y22636595D01*
X-40622038Y22747038D01*
X-40511595Y22881614D01*
X-40429528Y23035150D01*
X-40378992Y23201746D01*
X-40361928Y23375000D01*
X-40361928Y24721721D01*
X-24692795Y24721721D01*
X-24692795Y23478279D01*
X-24515835Y22247494D01*
X-24165517Y21054420D01*
X-23648972Y19923345D01*
X-22976717Y18877295D01*
X-22162436Y17937564D01*
X-21222705Y17123283D01*
X-20176655Y16451028D01*
X-19045580Y15934483D01*
X-17852506Y15584165D01*
X-16621721Y15407205D01*
X-15378279Y15407205D01*
X-14147494Y15584165D01*
X-12954420Y15934483D01*
X-11823345Y16451028D01*
X-10777295Y17123283D01*
X-9837564Y17937564D01*
X-9023283Y18877295D01*
X-8351028Y19923345D01*
X-7834483Y21054420D01*
X-7484165Y22247494D01*
X-7307205Y23478279D01*
X-7307205Y24721721D01*
X-7484165Y25952506D01*
X-7834483Y27145580D01*
X-8351028Y28276655D01*
X-9023283Y29322705D01*
X-9837564Y30262436D01*
X-10777295Y31076717D01*
X-11823345Y31748972D01*
X-12954420Y32265517D01*
X-14147494Y32615835D01*
X-15378279Y32792795D01*
X-16621721Y32792795D01*
X-17852506Y32615835D01*
X-19045580Y32265517D01*
X-20176655Y31748972D01*
X-21222705Y31076717D01*
X-22162436Y30262436D01*
X-22976717Y29322705D01*
X-23648972Y28276655D01*
X-24165517Y27145580D01*
X-24515835Y25952506D01*
X-24692795Y24721721D01*
X-40361928Y24721721D01*
X-40361928Y24975000D01*
X-40378992Y25148254D01*
X-40429528Y25314850D01*
X-40511595Y25468386D01*
X-40622038Y25602962D01*
X-40756614Y25713405D01*
X-40910150Y25795472D01*
X-41076746Y25846008D01*
X-41250000Y25863072D01*
X-43750000Y25863072D01*
X-43923254Y25846008D01*
X-44089850Y25795472D01*
X-44243386Y25713405D01*
X-44377962Y25602962D01*
X-44488405Y25468386D01*
X-44570472Y25314850D01*
X-44621008Y25148254D01*
X-44638072Y24975000D01*
X-54295029Y24975000D01*
X-54190644Y25060666D01*
X-54161358Y25096351D01*
X-49330422Y29927286D01*
X-49224180Y29870498D01*
X-49104482Y29834188D01*
X-48980000Y29821928D01*
X-45980000Y29821928D01*
X-45855518Y29834188D01*
X-45735820Y29870498D01*
X-45625506Y29929463D01*
X-45528815Y30008815D01*
X-45449463Y30105506D01*
X-45390498Y30215820D01*
X-45354188Y30335518D01*
X-45341928Y30460000D01*
X-45341928Y31460000D01*
X-45354188Y31584482D01*
X-45390498Y31704180D01*
X-45449463Y31814494D01*
X-45528815Y31911185D01*
X-45625506Y31990537D01*
X-45735820Y32049502D01*
X-45855518Y32085812D01*
X-45980000Y32098072D01*
X-48559639Y32098072D01*
X-48295782Y32361928D01*
X-45980000Y32361928D01*
X-45855518Y32374188D01*
X-45735820Y32410498D01*
X-45625506Y32469463D01*
X-45528815Y32548815D01*
X-45449463Y32645506D01*
X-45390498Y32755820D01*
X-45354188Y32875518D01*
X-45341928Y33000000D01*
X-45341928Y34000000D01*
X-45354188Y34124482D01*
X-45390498Y34244180D01*
X-45449463Y34354494D01*
X-45528815Y34451185D01*
X-45625506Y34530537D01*
X-45735820Y34589502D01*
X-45855518Y34625812D01*
X-45980000Y34638072D01*
X-48980000Y34638072D01*
X-49104482Y34625812D01*
X-49224180Y34589502D01*
X-49334494Y34530537D01*
X-49431185Y34451185D01*
X-49510537Y34354494D01*
X-49569502Y34244180D01*
X-49605812Y34124482D01*
X-49618072Y34000000D01*
X-49618072Y33684218D01*
X-50228659Y33073630D01*
X-50264344Y33044344D01*
X-50381186Y32901971D01*
X-50393931Y32878126D01*
X-50381928Y33000000D01*
X-50381928Y34000000D01*
X-50394188Y34124482D01*
X-50430498Y34244180D01*
X-50489463Y34354494D01*
X-50568815Y34451185D01*
X-50665506Y34530537D01*
X-50775820Y34589502D01*
X-50895518Y34625812D01*
X-51020000Y34638072D01*
X-54020000Y34638072D01*
X-54144482Y34625812D01*
X-54264180Y34589502D01*
X-54374494Y34530537D01*
X-54471185Y34451185D01*
X-54484468Y34435000D01*
X-57155479Y34435000D01*
X-56485479Y35105000D01*
X-54484468Y35105000D01*
X-54471185Y35088815D01*
X-54374494Y35009463D01*
X-54264180Y34950498D01*
X-54144482Y34914188D01*
X-54020000Y34901928D01*
X-51020000Y34901928D01*
X-50895518Y34914188D01*
X-50775820Y34950498D01*
X-50665506Y35009463D01*
X-50568815Y35088815D01*
X-50489463Y35185506D01*
X-50430498Y35295820D01*
X-50394188Y35415518D01*
X-50381928Y35540000D01*
X-49618072Y35540000D01*
X-49605812Y35415518D01*
X-49569502Y35295820D01*
X-49510537Y35185506D01*
X-49431185Y35088815D01*
X-49334494Y35009463D01*
X-49224180Y34950498D01*
X-49104482Y34914188D01*
X-48980000Y34901928D01*
X-47765750Y34905000D01*
X-47607000Y35063750D01*
X-47607000Y35913000D01*
X-47353000Y35913000D01*
X-47353000Y35063750D01*
X-47194250Y34905000D01*
X-45980000Y34901928D01*
X-45855518Y34914188D01*
X-45735820Y34950498D01*
X-45625506Y35009463D01*
X-45528815Y35088815D01*
X-45449463Y35185506D01*
X-45390498Y35295820D01*
X-45354188Y35415518D01*
X-45341928Y35540000D01*
X-45345000Y35754250D01*
X-45503750Y35913000D01*
X-47353000Y35913000D01*
X-47607000Y35913000D01*
X-49456250Y35913000D01*
X-49615000Y35754250D01*
X-49618072Y35540000D01*
X-50381928Y35540000D01*
X-50381928Y36540000D01*
X-49618072Y36540000D01*
X-49615000Y36325750D01*
X-49456250Y36167000D01*
X-47607000Y36167000D01*
X-47607000Y37016250D01*
X-47353000Y37016250D01*
X-47353000Y36167000D01*
X-45503750Y36167000D01*
X-45345000Y36325750D01*
X-45341928Y36540000D01*
X-45354188Y36664482D01*
X-45390498Y36784180D01*
X-45449463Y36894494D01*
X-45528815Y36991185D01*
X-45625506Y37070537D01*
X-45735820Y37129502D01*
X-45855518Y37165812D01*
X-45980000Y37178072D01*
X-47194250Y37175000D01*
X-47353000Y37016250D01*
X-47607000Y37016250D01*
X-47765750Y37175000D01*
X-48980000Y37178072D01*
X-49104482Y37165812D01*
X-49224180Y37129502D01*
X-49334494Y37070537D01*
X-49431185Y36991185D01*
X-49510537Y36894494D01*
X-49569502Y36784180D01*
X-49605812Y36664482D01*
X-49618072Y36540000D01*
X-50381928Y36540000D01*
X-50394188Y36664482D01*
X-50430498Y36784180D01*
X-50489463Y36894494D01*
X-50568815Y36991185D01*
X-50665506Y37070537D01*
X-50775820Y37129502D01*
X-50895518Y37165812D01*
X-51020000Y37178072D01*
X-54020000Y37178072D01*
X-54144482Y37165812D01*
X-54264180Y37129502D01*
X-54374494Y37070537D01*
X-54471185Y36991185D01*
X-54484468Y36975000D01*
X-56826836Y36975000D01*
X-56872768Y36979524D01*
X-56918700Y36975000D01*
X-57056060Y36961471D01*
X-57232308Y36908007D01*
X-57394740Y36821186D01*
X-57537112Y36704344D01*
X-57566398Y36668659D01*
X-76728659Y17506398D01*
X-76764344Y17477112D01*
X-76881186Y17334739D01*
X-76968007Y17172307D01*
X-76974703Y17150232D01*
X-77021471Y16996059D01*
X-77039524Y16812768D01*
X-79260467Y16812768D01*
X-78777295Y17123283D01*
X-77837564Y17937564D01*
X-77023283Y18877295D01*
X-76351028Y19923345D01*
X-75834483Y21054420D01*
X-75484165Y22247494D01*
X-75307205Y23478279D01*
X-75307205Y24721721D01*
X-75484165Y25952506D01*
X-75834483Y27145580D01*
X-76351028Y28276655D01*
X-77023283Y29322705D01*
X-77837564Y30262436D01*
X-78777295Y31076717D01*
X-79823345Y31748972D01*
X-80954420Y32265517D01*
X-82147494Y32615835D01*
X-83378279Y32792795D01*
X-84621721Y32792795D01*
X-85852506Y32615835D01*
X-87045580Y32265517D01*
X-88176655Y31748972D01*
X-89222705Y31076717D01*
X-90162436Y30262436D01*
X-90976717Y29322705D01*
X-91648972Y28276655D01*
X-92165517Y27145580D01*
X-92515835Y25952506D01*
X-92692795Y24721721D01*
X-99305000Y24721721D01*
X-99305000Y37966008D01*
X-99276877Y38252829D01*
X-99203451Y38496026D01*
X-99084186Y38720331D01*
X-98923625Y38917199D01*
X-98727883Y39079131D01*
X-98504420Y39199957D01*
X-98261736Y39275080D01*
X-97977071Y39305000D01*
X-2033992Y39305000D01*
X-1747171Y39276877D01*
G37*
X-1747171Y39276877D02*
X-1503974Y39203451D01*
X-1279669Y39084186D01*
X-1082801Y38923625D01*
X-920869Y38727883D01*
X-800043Y38504420D01*
X-724920Y38261736D01*
X-695000Y37977071D01*
X-694999Y695000D01*
X-6505000Y695000D01*
X-6505000Y1034135D01*
X-6507996Y1064558D01*
X-6507910Y1076953D01*
X-6508856Y1086611D01*
X-6549657Y1474804D01*
X-6562325Y1536518D01*
X-6574127Y1598383D01*
X-6576932Y1607673D01*
X-6692355Y1980548D01*
X-6716765Y2038617D01*
X-6740362Y2097021D01*
X-6744918Y2105589D01*
X-6744918Y2105590D01*
X-6744921Y2105594D01*
X-6930569Y2448944D01*
X-6965792Y2501165D01*
X-7000286Y2553876D01*
X-7006419Y2561397D01*
X-7255226Y2862152D01*
X-7299935Y2906550D01*
X-7343995Y2951542D01*
X-7351466Y2957722D01*
X-7351472Y2957728D01*
X-7351479Y2957732D01*
X-7361452Y2965866D01*
X-6695000Y2965866D01*
X-6691537Y2930708D01*
X-6691537Y2911236D01*
X-6690523Y2901585D01*
X-6657890Y2610660D01*
X-6644794Y2549051D01*
X-6632558Y2487256D01*
X-6629689Y2477986D01*
X-6541171Y2198941D01*
X-6516348Y2141024D01*
X-6492351Y2082805D01*
X-6487736Y2074268D01*
X-6346703Y1817730D01*
X-6311105Y1765740D01*
X-6276256Y1713289D01*
X-6270071Y1705811D01*
X-6081896Y1481553D01*
X-6036882Y1437472D01*
X-5992504Y1392784D01*
X-5984990Y1386656D01*
X-5984985Y1386651D01*
X-5984980Y1386647D01*
X-5756834Y1203214D01*
X-5704139Y1168731D01*
X-5651905Y1133499D01*
X-5643337Y1128943D01*
X-5383902Y993313D01*
X-5325475Y969707D01*
X-5267427Y945306D01*
X-5258145Y942503D01*
X-5258139Y942501D01*
X-5258133Y942500D01*
X-4977299Y859846D01*
X-4915438Y848045D01*
X-4853718Y835376D01*
X-4844062Y834429D01*
X-4844060Y834429D01*
X-4552516Y807897D01*
X-4489528Y808337D01*
X-4426540Y807897D01*
X-4416882Y808844D01*
X-4416879Y808844D01*
X-4416876Y808845D01*
X-4125737Y839444D01*
X-4064017Y852113D01*
X-4002156Y863914D01*
X-3992874Y866717D01*
X-3992867Y866718D01*
X-3992861Y866721D01*
X-3713210Y953286D01*
X-3655118Y977706D01*
X-3596735Y1001294D01*
X-3588172Y1005847D01*
X-3588168Y1005849D01*
X-3588165Y1005851D01*
X-3330651Y1145089D01*
X-3278417Y1180321D01*
X-3225722Y1214804D01*
X-3218204Y1220935D01*
X-3218200Y1220938D01*
X-3218196Y1220942D01*
X-2992635Y1407542D01*
X-2948255Y1452232D01*
X-2903244Y1496311D01*
X-2897058Y1503788D01*
X-2712032Y1730652D01*
X-2677171Y1783121D01*
X-2641585Y1835094D01*
X-2636974Y1843622D01*
X-2636969Y1843630D01*
X-2636966Y1843638D01*
X-2499533Y2102111D01*
X-2475539Y2160325D01*
X-2450714Y2218246D01*
X-2447844Y2227516D01*
X-2363230Y2507770D01*
X-2350997Y2569553D01*
X-2337898Y2631178D01*
X-2336884Y2640829D01*
X-2308317Y2932180D01*
X-2308317Y2932187D01*
X-2305000Y2965865D01*
X-2305000Y7034135D01*
X-2308463Y7069293D01*
X-2308463Y7088765D01*
X-2309477Y7098416D01*
X-2342110Y7389340D01*
X-2355206Y7450949D01*
X-2367442Y7512744D01*
X-2370311Y7522015D01*
X-2458829Y7801059D01*
X-2483646Y7858962D01*
X-2507649Y7917196D01*
X-2512264Y7925732D01*
X-2653297Y8182270D01*
X-2688895Y8234260D01*
X-2723744Y8286711D01*
X-2729929Y8294189D01*
X-2918104Y8518447D01*
X-2963119Y8562528D01*
X-3007496Y8607216D01*
X-3015016Y8613349D01*
X-3243166Y8796786D01*
X-3295861Y8831269D01*
X-3348095Y8866501D01*
X-3356663Y8871057D01*
X-3616098Y9006687D01*
X-3674525Y9030293D01*
X-3732573Y9054694D01*
X-3741855Y9057497D01*
X-3741861Y9057499D01*
X-3741867Y9057500D01*
X-4022701Y9140154D01*
X-4084562Y9151955D01*
X-4146282Y9164624D01*
X-4155938Y9165571D01*
X-4155940Y9165571D01*
X-4447484Y9192103D01*
X-4510472Y9191663D01*
X-4573460Y9192103D01*
X-4583118Y9191156D01*
X-4583121Y9191156D01*
X-4583124Y9191155D01*
X-4874263Y9160556D01*
X-4935977Y9147888D01*
X-4997844Y9136086D01*
X-5007126Y9133283D01*
X-5007133Y9133282D01*
X-5007139Y9133279D01*
X-5286790Y9046713D01*
X-5344849Y9022307D01*
X-5403265Y8998706D01*
X-5411828Y8994153D01*
X-5411832Y8994151D01*
X-5411833Y8994150D01*
X-5669349Y8854911D01*
X-5721583Y8819679D01*
X-5774278Y8785196D01*
X-5781796Y8779065D01*
X-5781800Y8779062D01*
X-5781804Y8779058D01*
X-6007365Y8592458D01*
X-6051745Y8547768D01*
X-6096756Y8503689D01*
X-6102942Y8496212D01*
X-6287968Y8269348D01*
X-6322829Y8216879D01*
X-6358415Y8164906D01*
X-6363026Y8156378D01*
X-6363031Y8156370D01*
X-6363031Y8156369D01*
X-6500467Y7897889D01*
X-6524461Y7839675D01*
X-6549286Y7781754D01*
X-6552156Y7772484D01*
X-6636770Y7492230D01*
X-6649003Y7430447D01*
X-6662102Y7368822D01*
X-6663116Y7359171D01*
X-6691683Y7067819D01*
X-6691683Y7067802D01*
X-6694999Y7034135D01*
X-6695000Y2965866D01*
X-7361452Y2965866D01*
X-7653956Y3204428D01*
X-7706425Y3239289D01*
X-7758398Y3274875D01*
X-7766926Y3279486D01*
X-7766934Y3279491D01*
X-7766942Y3279494D01*
X-8111575Y3462740D01*
X-8169839Y3486755D01*
X-8227713Y3511559D01*
X-8236975Y3514427D01*
X-8236981Y3514429D01*
X-8236987Y3514430D01*
X-8610654Y3627247D01*
X-8672436Y3639480D01*
X-8734059Y3652578D01*
X-8743710Y3653593D01*
X-9132179Y3691683D01*
X-9132187Y3691683D01*
X-9165865Y3695000D01*
X-17634135Y3695000D01*
X-17664558Y3692004D01*
X-17676953Y3692090D01*
X-17686611Y3691144D01*
X-18074804Y3650343D01*
X-18136518Y3637675D01*
X-18198383Y3625873D01*
X-18207671Y3623069D01*
X-18207677Y3623067D01*
X-18580548Y3507645D01*
X-18638617Y3483235D01*
X-18697021Y3459638D01*
X-18705585Y3455084D01*
X-18705590Y3455082D01*
X-18705591Y3455081D01*
X-19048944Y3269431D01*
X-19101165Y3234208D01*
X-19153876Y3199714D01*
X-19161397Y3193581D01*
X-19462152Y2944774D01*
X-19506550Y2900065D01*
X-19551542Y2856005D01*
X-19557722Y2848534D01*
X-19557728Y2848528D01*
X-19557732Y2848521D01*
X-19804428Y2546044D01*
X-19839289Y2493575D01*
X-19874875Y2441602D01*
X-19879486Y2433074D01*
X-19879491Y2433066D01*
X-19879494Y2433058D01*
X-20062740Y2088425D01*
X-20086755Y2030161D01*
X-20111559Y1972287D01*
X-20114427Y1963025D01*
X-20114429Y1963019D01*
X-20114429Y1963017D01*
X-20227247Y1589346D01*
X-20239480Y1527564D01*
X-20252578Y1465941D01*
X-20253593Y1456290D01*
X-20291683Y1067821D01*
X-20291683Y1067802D01*
X-20294999Y1034135D01*
X-20294999Y695000D01*
X-99305000Y695000D01*
X-99305000Y2965866D01*
X-97695000Y2965866D01*
X-97691537Y2930708D01*
X-97691537Y2911236D01*
X-97690523Y2901585D01*
X-97657890Y2610660D01*
X-97644794Y2549051D01*
X-97632558Y2487256D01*
X-97629689Y2477986D01*
X-97541171Y2198941D01*
X-97516348Y2141024D01*
X-97492351Y2082805D01*
X-97487736Y2074268D01*
X-97346703Y1817730D01*
X-97311105Y1765740D01*
X-97276256Y1713289D01*
X-97270071Y1705811D01*
X-97081896Y1481553D01*
X-97036882Y1437472D01*
X-96992504Y1392784D01*
X-96984990Y1386656D01*
X-96984985Y1386651D01*
X-96984980Y1386647D01*
X-96756834Y1203214D01*
X-96704139Y1168731D01*
X-96651905Y1133499D01*
X-96643337Y1128943D01*
X-96383902Y993313D01*
X-96325475Y969707D01*
X-96267427Y945306D01*
X-96258145Y942503D01*
X-96258139Y942501D01*
X-96258133Y942500D01*
X-95977299Y859846D01*
X-95915438Y848045D01*
X-95853718Y835376D01*
X-95844062Y834429D01*
X-95844060Y834429D01*
X-95552516Y807897D01*
X-95489528Y808337D01*
X-95426540Y807897D01*
X-95416882Y808844D01*
X-95416879Y808844D01*
X-95416876Y808845D01*
X-95125737Y839444D01*
X-95064017Y852113D01*
X-95002156Y863914D01*
X-94992874Y866717D01*
X-94992867Y866718D01*
X-94992861Y866721D01*
X-94713210Y953286D01*
X-94655118Y977706D01*
X-94596735Y1001294D01*
X-94588172Y1005847D01*
X-94588168Y1005849D01*
X-94588165Y1005851D01*
X-94330651Y1145089D01*
X-94278417Y1180321D01*
X-94225722Y1214804D01*
X-94218204Y1220935D01*
X-94218200Y1220938D01*
X-94218196Y1220942D01*
X-93992635Y1407542D01*
X-93948255Y1452232D01*
X-93903244Y1496311D01*
X-93897058Y1503788D01*
X-93712032Y1730652D01*
X-93677171Y1783121D01*
X-93641585Y1835094D01*
X-93636974Y1843622D01*
X-93636969Y1843630D01*
X-93636966Y1843638D01*
X-93499533Y2102111D01*
X-93475539Y2160325D01*
X-93450714Y2218246D01*
X-93447844Y2227516D01*
X-93363230Y2507770D01*
X-93350997Y2569553D01*
X-93337898Y2631178D01*
X-93336884Y2640829D01*
X-93308317Y2932180D01*
X-93308317Y2932187D01*
X-93305000Y2965865D01*
X-93305000Y7034135D01*
X-93308463Y7069293D01*
X-93308463Y7088765D01*
X-93309477Y7098416D01*
X-93342110Y7389340D01*
X-93355206Y7450949D01*
X-93367442Y7512744D01*
X-93370311Y7522015D01*
X-93458829Y7801059D01*
X-93483646Y7858962D01*
X-93507649Y7917196D01*
X-93512264Y7925732D01*
X-93653297Y8182270D01*
X-93665436Y8200000D01*
X-78938072Y8200000D01*
X-78925812Y8075518D01*
X-78889502Y7955820D01*
X-78830537Y7845506D01*
X-78751185Y7748815D01*
X-78654494Y7669463D01*
X-78544180Y7610498D01*
X-78424482Y7574188D01*
X-78300000Y7561928D01*
X-77885750Y7565000D01*
X-77727000Y7723750D01*
X-77727000Y8973000D01*
X-77473000Y8973000D01*
X-77473000Y7723750D01*
X-77314250Y7565000D01*
X-76900000Y7561928D01*
X-76775518Y7574188D01*
X-76655820Y7610498D01*
X-76545506Y7669463D01*
X-76448815Y7748815D01*
X-76369463Y7845506D01*
X-76310498Y7955820D01*
X-76274188Y8075518D01*
X-76261928Y8200000D01*
X-68938072Y8200000D01*
X-68925812Y8075518D01*
X-68889502Y7955820D01*
X-68830537Y7845506D01*
X-68751185Y7748815D01*
X-68654494Y7669463D01*
X-68544180Y7610498D01*
X-68424482Y7574188D01*
X-68300000Y7561928D01*
X-67885750Y7565000D01*
X-67727000Y7723750D01*
X-67727000Y8973000D01*
X-67473000Y8973000D01*
X-67473000Y7723750D01*
X-67314250Y7565000D01*
X-66900000Y7561928D01*
X-66775518Y7574188D01*
X-66655820Y7610498D01*
X-66545506Y7669463D01*
X-66448815Y7748815D01*
X-66369463Y7845506D01*
X-66310498Y7955820D01*
X-66274188Y8075518D01*
X-66261928Y8200000D01*
X-66265000Y8814250D01*
X-66423750Y8973000D01*
X-67473000Y8973000D01*
X-67727000Y8973000D01*
X-68776250Y8973000D01*
X-68935000Y8814250D01*
X-68938072Y8200000D01*
X-76261928Y8200000D01*
X-76265000Y8814250D01*
X-76423750Y8973000D01*
X-77473000Y8973000D01*
X-77727000Y8973000D01*
X-78776250Y8973000D01*
X-78935000Y8814250D01*
X-78938072Y8200000D01*
X-93665436Y8200000D01*
X-93688895Y8234260D01*
X-93723744Y8286711D01*
X-93729929Y8294189D01*
X-93918104Y8518447D01*
X-93963119Y8562528D01*
X-94007496Y8607216D01*
X-94015016Y8613349D01*
X-94243166Y8796786D01*
X-94295861Y8831269D01*
X-94348095Y8866501D01*
X-94356663Y8871057D01*
X-94616098Y9006687D01*
X-94674525Y9030293D01*
X-94732573Y9054694D01*
X-94741855Y9057497D01*
X-94741861Y9057499D01*
X-94741867Y9057500D01*
X-95022701Y9140154D01*
X-95084562Y9151955D01*
X-95146282Y9164624D01*
X-95155938Y9165571D01*
X-95155940Y9165571D01*
X-95447484Y9192103D01*
X-95510472Y9191663D01*
X-95573460Y9192103D01*
X-95583118Y9191156D01*
X-95583121Y9191156D01*
X-95583124Y9191155D01*
X-95874263Y9160556D01*
X-95935977Y9147888D01*
X-95997844Y9136086D01*
X-96007126Y9133283D01*
X-96007133Y9133282D01*
X-96007139Y9133279D01*
X-96286790Y9046713D01*
X-96344849Y9022307D01*
X-96403265Y8998706D01*
X-96411828Y8994153D01*
X-96411832Y8994151D01*
X-96411833Y8994150D01*
X-96669349Y8854911D01*
X-96721583Y8819679D01*
X-96774278Y8785196D01*
X-96781796Y8779065D01*
X-96781800Y8779062D01*
X-96781804Y8779058D01*
X-97007365Y8592458D01*
X-97051745Y8547768D01*
X-97096756Y8503689D01*
X-97102942Y8496212D01*
X-97287968Y8269348D01*
X-97322829Y8216879D01*
X-97358415Y8164906D01*
X-97363026Y8156378D01*
X-97363031Y8156370D01*
X-97363031Y8156369D01*
X-97500467Y7897889D01*
X-97524461Y7839675D01*
X-97549286Y7781754D01*
X-97552156Y7772484D01*
X-97636770Y7492230D01*
X-97649003Y7430447D01*
X-97662102Y7368822D01*
X-97663116Y7359171D01*
X-97691683Y7067819D01*
X-97691683Y7067802D01*
X-97694999Y7034135D01*
X-97695000Y2965866D01*
X-99305000Y2965866D01*
X-99305000Y10000000D01*
X-78938072Y10000000D01*
X-78935000Y9385750D01*
X-78776250Y9227000D01*
X-77727000Y9227000D01*
X-77727000Y10476250D01*
X-77473000Y10476250D01*
X-77473000Y9227000D01*
X-76423750Y9227000D01*
X-76265000Y9385750D01*
X-76261928Y10000000D01*
X-76274188Y10124482D01*
X-76310498Y10244180D01*
X-76369463Y10354494D01*
X-76448815Y10451185D01*
X-76545506Y10530537D01*
X-76655820Y10589502D01*
X-76775518Y10625812D01*
X-76900000Y10638072D01*
X-77314250Y10635000D01*
X-77473000Y10476250D01*
X-77727000Y10476250D01*
X-77885750Y10635000D01*
X-78300000Y10638072D01*
X-78424482Y10625812D01*
X-78544180Y10589502D01*
X-78654494Y10530537D01*
X-78751185Y10451185D01*
X-78830537Y10354494D01*
X-78889502Y10244180D01*
X-78925812Y10124482D01*
X-78938072Y10000000D01*
X-99305000Y10000000D01*
X-99305000Y24721721D01*
X-92692795Y24721721D01*
X-92692795Y23478279D01*
X-92515835Y22247494D01*
X-92165517Y21054420D01*
X-91648972Y19923345D01*
X-90976717Y18877295D01*
X-90162436Y17937564D01*
X-89222705Y17123283D01*
X-88176655Y16451028D01*
X-87045580Y15934483D01*
X-85852506Y15584165D01*
X-84621721Y15407205D01*
X-83378279Y15407205D01*
X-82147494Y15584165D01*
X-80954420Y15934483D01*
X-79823345Y16451028D01*
X-79260467Y16812768D01*
X-77039524Y16812768D01*
X-77035000Y16766836D01*
X-77035000Y15581197D01*
X-77038072Y15550000D01*
X-77038072Y13050000D01*
X-77025812Y12925518D01*
X-76989502Y12805820D01*
X-76930537Y12695506D01*
X-76851185Y12598815D01*
X-76754494Y12519463D01*
X-76644180Y12460498D01*
X-76524482Y12424188D01*
X-76400000Y12411928D01*
X-75800000Y12411928D01*
X-75675518Y12424188D01*
X-75600000Y12447096D01*
X-75524482Y12424188D01*
X-75400000Y12411928D01*
X-74800000Y12411928D01*
X-74675518Y12424188D01*
X-74600000Y12447096D01*
X-74524482Y12424188D01*
X-74400000Y12411928D01*
X-73800000Y12411928D01*
X-73675518Y12424188D01*
X-73600000Y12447096D01*
X-73524482Y12424188D01*
X-73400000Y12411928D01*
X-73385750Y12415000D01*
X-73227000Y12573750D01*
X-73227000Y12774947D01*
X-73210498Y12805820D01*
X-73174188Y12925518D01*
X-73161928Y13050000D01*
X-73161928Y15550000D01*
X-73165000Y15581192D01*
X-73165000Y16162711D01*
X-64537701Y24790010D01*
X-59638072Y24790010D01*
X-59638072Y23375000D01*
X-59621008Y23201746D01*
X-59570472Y23035150D01*
X-59488405Y22881614D01*
X-59377962Y22747038D01*
X-59243386Y22636595D01*
X-59100087Y22560000D01*
X-64979068Y22560000D01*
X-65025000Y22564524D01*
X-65070932Y22560000D01*
X-65208292Y22546471D01*
X-65384540Y22493007D01*
X-65546972Y22406186D01*
X-65689344Y22289344D01*
X-65718630Y22253659D01*
X-70728659Y17243630D01*
X-70764344Y17214344D01*
X-70881186Y17071971D01*
X-70968007Y16909539D01*
X-71021471Y16733292D01*
X-71021471Y16733291D01*
X-71039524Y16550000D01*
X-71035000Y16504068D01*
X-71035000Y16188072D01*
X-71400000Y16188072D01*
X-71524482Y16175812D01*
X-71600000Y16152904D01*
X-71675518Y16175812D01*
X-71800000Y16188072D01*
X-72400000Y16188072D01*
X-72524482Y16175812D01*
X-72600000Y16152904D01*
X-72675518Y16175812D01*
X-72800000Y16188072D01*
X-72814250Y16185000D01*
X-72973000Y16026250D01*
X-72973000Y15825053D01*
X-72989502Y15794180D01*
X-73025812Y15674482D01*
X-73038072Y15550000D01*
X-73038072Y13050000D01*
X-73035000Y13018804D01*
X-73035000Y12005239D01*
X-73039524Y11959307D01*
X-73029386Y11856376D01*
X-73021471Y11776016D01*
X-72968007Y11599768D01*
X-72881186Y11437336D01*
X-72764344Y11294963D01*
X-72728659Y11265677D01*
X-71834323Y10371341D01*
X-71805037Y10335656D01*
X-71662665Y10218814D01*
X-71500233Y10131993D01*
X-71323985Y10078529D01*
X-71140693Y10060476D01*
X-71094761Y10065000D01*
X-68931670Y10065000D01*
X-68938072Y10000000D01*
X-68935000Y9385750D01*
X-68776250Y9227000D01*
X-67727000Y9227000D01*
X-67727000Y9247000D01*
X-67473000Y9247000D01*
X-67473000Y9227000D01*
X-66423750Y9227000D01*
X-66265000Y9385750D01*
X-66261928Y10000000D01*
X-66268330Y10065000D01*
X-54820932Y10065000D01*
X-54775000Y10060476D01*
X-54729068Y10065000D01*
X-54591708Y10078529D01*
X-54415460Y10131993D01*
X-54253028Y10218814D01*
X-54110656Y10335656D01*
X-54081370Y10371341D01*
X-45827711Y18625000D01*
X-44638072Y18625000D01*
X-44638072Y17025000D01*
X-44621008Y16851746D01*
X-44570472Y16685150D01*
X-44488405Y16531614D01*
X-44377962Y16397038D01*
X-44243386Y16286595D01*
X-44089850Y16204528D01*
X-43923254Y16153992D01*
X-43750000Y16136928D01*
X-41250000Y16136928D01*
X-41076746Y16153992D01*
X-40910150Y16204528D01*
X-40756614Y16286595D01*
X-40622038Y16397038D01*
X-40511595Y16531614D01*
X-40429528Y16685150D01*
X-40378992Y16851746D01*
X-40361928Y17025000D01*
X-40361928Y18625000D01*
X-40378992Y18798254D01*
X-40429528Y18964850D01*
X-40511595Y19118386D01*
X-40622038Y19252962D01*
X-40756614Y19363405D01*
X-40910150Y19445472D01*
X-41076746Y19496008D01*
X-41250000Y19513072D01*
X-43750000Y19513072D01*
X-43923254Y19496008D01*
X-44089850Y19445472D01*
X-44243386Y19363405D01*
X-44377962Y19252962D01*
X-44488405Y19118386D01*
X-44570472Y18964850D01*
X-44621008Y18798254D01*
X-44638072Y18625000D01*
X-45827711Y18625000D01*
X-45115782Y19336928D01*
X-44800000Y19336928D01*
X-44636500Y19353031D01*
X-44479284Y19400722D01*
X-44334392Y19478169D01*
X-44207394Y19582394D01*
X-44103169Y19709392D01*
X-44025722Y19854284D01*
X-43978031Y20011500D01*
X-43961928Y20175000D01*
X-43961928Y20575000D01*
X-43978031Y20738500D01*
X-44025722Y20895716D01*
X-44081463Y21000000D01*
X-44025722Y21104284D01*
X-43978031Y21261500D01*
X-43961928Y21425000D01*
X-43961928Y21825000D01*
X-43978031Y21988500D01*
X-44025722Y22145716D01*
X-44103169Y22290608D01*
X-44207394Y22417606D01*
X-44334392Y22521831D01*
X-44479284Y22599278D01*
X-44636500Y22646969D01*
X-44800000Y22663072D01*
X-46000000Y22663072D01*
X-46163500Y22646969D01*
X-46320716Y22599278D01*
X-46465608Y22521831D01*
X-46466246Y22521307D01*
X-46559540Y22493007D01*
X-46721972Y22406186D01*
X-46864344Y22289344D01*
X-46893625Y22253665D01*
X-55662290Y13484999D01*
X-68097382Y13484999D01*
X-68035656Y13535656D01*
X-68006370Y13571341D01*
X-62137711Y19440000D01*
X-59100087Y19440000D01*
X-59243386Y19363405D01*
X-59377962Y19252962D01*
X-59488405Y19118386D01*
X-59570472Y18964850D01*
X-59621008Y18798254D01*
X-59638072Y18625000D01*
X-59638072Y17025000D01*
X-59621008Y16851746D01*
X-59570472Y16685150D01*
X-59488405Y16531614D01*
X-59377962Y16397038D01*
X-59243386Y16286595D01*
X-59089850Y16204528D01*
X-58923254Y16153992D01*
X-58750000Y16136928D01*
X-56250000Y16136928D01*
X-56076746Y16153992D01*
X-55910150Y16204528D01*
X-55756614Y16286595D01*
X-55622038Y16397038D01*
X-55511595Y16531614D01*
X-55429528Y16685150D01*
X-55378992Y16851746D01*
X-55361928Y17025000D01*
X-55361928Y18625000D01*
X-55378992Y18798254D01*
X-55429528Y18964850D01*
X-55511595Y19118386D01*
X-55622038Y19252962D01*
X-55756614Y19363405D01*
X-55899913Y19440000D01*
X-55594199Y19440000D01*
X-55520716Y19400722D01*
X-55363500Y19353031D01*
X-55200000Y19336928D01*
X-54000000Y19336928D01*
X-53836500Y19353031D01*
X-53679284Y19400722D01*
X-53534392Y19478169D01*
X-53407394Y19582394D01*
X-53303169Y19709392D01*
X-53225722Y19854284D01*
X-53178031Y20011500D01*
X-53161928Y20175000D01*
X-53161928Y20575000D01*
X-53178031Y20738500D01*
X-53225722Y20895716D01*
X-53281463Y21000000D01*
X-53225722Y21104284D01*
X-53178031Y21261500D01*
X-53161928Y21425000D01*
X-53161928Y21825000D01*
X-53178031Y21988500D01*
X-53225722Y22145716D01*
X-53303169Y22290608D01*
X-53407394Y22417606D01*
X-53534392Y22521831D01*
X-53679284Y22599278D01*
X-53836500Y22646969D01*
X-54000000Y22663072D01*
X-55200000Y22663072D01*
X-55363500Y22646969D01*
X-55520716Y22599278D01*
X-55594199Y22560000D01*
X-55899913Y22560000D01*
X-55756614Y22636595D01*
X-55622038Y22747038D01*
X-55511595Y22881614D01*
X-55429528Y23035150D01*
X-55378992Y23201746D01*
X-55361928Y23375000D01*
X-55361928Y24790010D01*
X-54900920Y24790010D01*
X-54854988Y24785486D01*
X-54809056Y24790010D01*
X-54671696Y24803539D01*
X-54495448Y24857003D01*
X-54333016Y24943824D01*
X-54295029Y24975000D01*
X-44638072Y24975000D01*
X-44638072Y23375000D01*
X-44621008Y23201746D01*
X-44570472Y23035150D01*
X-44488405Y22881614D01*
X-44377962Y22747038D01*
X-44243386Y22636595D01*
X-44089850Y22554528D01*
X-43923254Y22503992D01*
X-43750000Y22486928D01*
X-41250000Y22486928D01*
X-41076746Y22503992D01*
X-40910150Y22554528D01*
X-40756614Y22636595D01*
X-40622038Y22747038D01*
X-40511595Y22881614D01*
X-40429528Y23035150D01*
X-40378992Y23201746D01*
X-40361928Y23375000D01*
X-40361928Y24721721D01*
X-24692795Y24721721D01*
X-24692795Y23478279D01*
X-24515835Y22247494D01*
X-24165517Y21054420D01*
X-23648972Y19923345D01*
X-22976717Y18877295D01*
X-22162436Y17937564D01*
X-21222705Y17123283D01*
X-20176655Y16451028D01*
X-19045580Y15934483D01*
X-17852506Y15584165D01*
X-16621721Y15407205D01*
X-15378279Y15407205D01*
X-14147494Y15584165D01*
X-12954420Y15934483D01*
X-11823345Y16451028D01*
X-10777295Y17123283D01*
X-9837564Y17937564D01*
X-9023283Y18877295D01*
X-8351028Y19923345D01*
X-7834483Y21054420D01*
X-7484165Y22247494D01*
X-7307205Y23478279D01*
X-7307205Y24721721D01*
X-7484165Y25952506D01*
X-7834483Y27145580D01*
X-8351028Y28276655D01*
X-9023283Y29322705D01*
X-9837564Y30262436D01*
X-10777295Y31076717D01*
X-11823345Y31748972D01*
X-12954420Y32265517D01*
X-14147494Y32615835D01*
X-15378279Y32792795D01*
X-16621721Y32792795D01*
X-17852506Y32615835D01*
X-19045580Y32265517D01*
X-20176655Y31748972D01*
X-21222705Y31076717D01*
X-22162436Y30262436D01*
X-22976717Y29322705D01*
X-23648972Y28276655D01*
X-24165517Y27145580D01*
X-24515835Y25952506D01*
X-24692795Y24721721D01*
X-40361928Y24721721D01*
X-40361928Y24975000D01*
X-40378992Y25148254D01*
X-40429528Y25314850D01*
X-40511595Y25468386D01*
X-40622038Y25602962D01*
X-40756614Y25713405D01*
X-40910150Y25795472D01*
X-41076746Y25846008D01*
X-41250000Y25863072D01*
X-43750000Y25863072D01*
X-43923254Y25846008D01*
X-44089850Y25795472D01*
X-44243386Y25713405D01*
X-44377962Y25602962D01*
X-44488405Y25468386D01*
X-44570472Y25314850D01*
X-44621008Y25148254D01*
X-44638072Y24975000D01*
X-54295029Y24975000D01*
X-54190644Y25060666D01*
X-54161358Y25096351D01*
X-49330422Y29927286D01*
X-49224180Y29870498D01*
X-49104482Y29834188D01*
X-48980000Y29821928D01*
X-45980000Y29821928D01*
X-45855518Y29834188D01*
X-45735820Y29870498D01*
X-45625506Y29929463D01*
X-45528815Y30008815D01*
X-45449463Y30105506D01*
X-45390498Y30215820D01*
X-45354188Y30335518D01*
X-45341928Y30460000D01*
X-45341928Y31460000D01*
X-45354188Y31584482D01*
X-45390498Y31704180D01*
X-45449463Y31814494D01*
X-45528815Y31911185D01*
X-45625506Y31990537D01*
X-45735820Y32049502D01*
X-45855518Y32085812D01*
X-45980000Y32098072D01*
X-48559639Y32098072D01*
X-48295782Y32361928D01*
X-45980000Y32361928D01*
X-45855518Y32374188D01*
X-45735820Y32410498D01*
X-45625506Y32469463D01*
X-45528815Y32548815D01*
X-45449463Y32645506D01*
X-45390498Y32755820D01*
X-45354188Y32875518D01*
X-45341928Y33000000D01*
X-45341928Y34000000D01*
X-45354188Y34124482D01*
X-45390498Y34244180D01*
X-45449463Y34354494D01*
X-45528815Y34451185D01*
X-45625506Y34530537D01*
X-45735820Y34589502D01*
X-45855518Y34625812D01*
X-45980000Y34638072D01*
X-48980000Y34638072D01*
X-49104482Y34625812D01*
X-49224180Y34589502D01*
X-49334494Y34530537D01*
X-49431185Y34451185D01*
X-49510537Y34354494D01*
X-49569502Y34244180D01*
X-49605812Y34124482D01*
X-49618072Y34000000D01*
X-49618072Y33684218D01*
X-50228659Y33073630D01*
X-50264344Y33044344D01*
X-50381186Y32901971D01*
X-50393931Y32878126D01*
X-50381928Y33000000D01*
X-50381928Y34000000D01*
X-50394188Y34124482D01*
X-50430498Y34244180D01*
X-50489463Y34354494D01*
X-50568815Y34451185D01*
X-50665506Y34530537D01*
X-50775820Y34589502D01*
X-50895518Y34625812D01*
X-51020000Y34638072D01*
X-54020000Y34638072D01*
X-54144482Y34625812D01*
X-54264180Y34589502D01*
X-54374494Y34530537D01*
X-54471185Y34451185D01*
X-54484468Y34435000D01*
X-57155479Y34435000D01*
X-56485479Y35105000D01*
X-54484468Y35105000D01*
X-54471185Y35088815D01*
X-54374494Y35009463D01*
X-54264180Y34950498D01*
X-54144482Y34914188D01*
X-54020000Y34901928D01*
X-51020000Y34901928D01*
X-50895518Y34914188D01*
X-50775820Y34950498D01*
X-50665506Y35009463D01*
X-50568815Y35088815D01*
X-50489463Y35185506D01*
X-50430498Y35295820D01*
X-50394188Y35415518D01*
X-50381928Y35540000D01*
X-49618072Y35540000D01*
X-49605812Y35415518D01*
X-49569502Y35295820D01*
X-49510537Y35185506D01*
X-49431185Y35088815D01*
X-49334494Y35009463D01*
X-49224180Y34950498D01*
X-49104482Y34914188D01*
X-48980000Y34901928D01*
X-47765750Y34905000D01*
X-47607000Y35063750D01*
X-47607000Y35913000D01*
X-47353000Y35913000D01*
X-47353000Y35063750D01*
X-47194250Y34905000D01*
X-45980000Y34901928D01*
X-45855518Y34914188D01*
X-45735820Y34950498D01*
X-45625506Y35009463D01*
X-45528815Y35088815D01*
X-45449463Y35185506D01*
X-45390498Y35295820D01*
X-45354188Y35415518D01*
X-45341928Y35540000D01*
X-45345000Y35754250D01*
X-45503750Y35913000D01*
X-47353000Y35913000D01*
X-47607000Y35913000D01*
X-49456250Y35913000D01*
X-49615000Y35754250D01*
X-49618072Y35540000D01*
X-50381928Y35540000D01*
X-50381928Y36540000D01*
X-49618072Y36540000D01*
X-49615000Y36325750D01*
X-49456250Y36167000D01*
X-47607000Y36167000D01*
X-47607000Y37016250D01*
X-47353000Y37016250D01*
X-47353000Y36167000D01*
X-45503750Y36167000D01*
X-45345000Y36325750D01*
X-45341928Y36540000D01*
X-45354188Y36664482D01*
X-45390498Y36784180D01*
X-45449463Y36894494D01*
X-45528815Y36991185D01*
X-45625506Y37070537D01*
X-45735820Y37129502D01*
X-45855518Y37165812D01*
X-45980000Y37178072D01*
X-47194250Y37175000D01*
X-47353000Y37016250D01*
X-47607000Y37016250D01*
X-47765750Y37175000D01*
X-48980000Y37178072D01*
X-49104482Y37165812D01*
X-49224180Y37129502D01*
X-49334494Y37070537D01*
X-49431185Y36991185D01*
X-49510537Y36894494D01*
X-49569502Y36784180D01*
X-49605812Y36664482D01*
X-49618072Y36540000D01*
X-50381928Y36540000D01*
X-50394188Y36664482D01*
X-50430498Y36784180D01*
X-50489463Y36894494D01*
X-50568815Y36991185D01*
X-50665506Y37070537D01*
X-50775820Y37129502D01*
X-50895518Y37165812D01*
X-51020000Y37178072D01*
X-54020000Y37178072D01*
X-54144482Y37165812D01*
X-54264180Y37129502D01*
X-54374494Y37070537D01*
X-54471185Y36991185D01*
X-54484468Y36975000D01*
X-56826836Y36975000D01*
X-56872768Y36979524D01*
X-56918700Y36975000D01*
X-57056060Y36961471D01*
X-57232308Y36908007D01*
X-57394740Y36821186D01*
X-57537112Y36704344D01*
X-57566398Y36668659D01*
X-76728659Y17506398D01*
X-76764344Y17477112D01*
X-76881186Y17334739D01*
X-76968007Y17172307D01*
X-76974703Y17150232D01*
X-77021471Y16996059D01*
X-77039524Y16812768D01*
X-79260467Y16812768D01*
X-78777295Y17123283D01*
X-77837564Y17937564D01*
X-77023283Y18877295D01*
X-76351028Y19923345D01*
X-75834483Y21054420D01*
X-75484165Y22247494D01*
X-75307205Y23478279D01*
X-75307205Y24721721D01*
X-75484165Y25952506D01*
X-75834483Y27145580D01*
X-76351028Y28276655D01*
X-77023283Y29322705D01*
X-77837564Y30262436D01*
X-78777295Y31076717D01*
X-79823345Y31748972D01*
X-80954420Y32265517D01*
X-82147494Y32615835D01*
X-83378279Y32792795D01*
X-84621721Y32792795D01*
X-85852506Y32615835D01*
X-87045580Y32265517D01*
X-88176655Y31748972D01*
X-89222705Y31076717D01*
X-90162436Y30262436D01*
X-90976717Y29322705D01*
X-91648972Y28276655D01*
X-92165517Y27145580D01*
X-92515835Y25952506D01*
X-92692795Y24721721D01*
X-99305000Y24721721D01*
X-99305000Y37966008D01*
X-99276877Y38252829D01*
X-99203451Y38496026D01*
X-99084186Y38720331D01*
X-98923625Y38917199D01*
X-98727883Y39079131D01*
X-98504420Y39199957D01*
X-98261736Y39275080D01*
X-97977071Y39305000D01*
X-2033992Y39305000D01*
X-1747171Y39276877D01*
%TD*%
M02*
