%TF.GenerationSoftware,KiCad,Pcbnew,(5.1.5)-3*%
%TF.CreationDate,2020-06-01T11:27:06+02:00*%
%TF.ProjectId,panel,70616e65-6c2e-46b6-9963-61645f706362,rev?*%
%TF.SameCoordinates,Original*%
%TF.FileFunction,Other,User*%
%FSLAX46Y46*%
G04 Gerber Fmt 4.6, Leading zero omitted, Abs format (unit mm)*
G04 Created by KiCad (PCBNEW (5.1.5)-3) date 2020-06-01 11:27:06*
%MOMM*%
%LPD*%
G04 APERTURE LIST*
%ADD10C,0.050000*%
G04 APERTURE END LIST*
D10*
%TO.C,J1*%
X207550009Y-232800049D02*
X207550009Y-224150049D01*
X198500009Y-232800049D02*
X207550009Y-232800049D01*
X198500009Y-224150049D02*
X198500009Y-232800049D01*
X207550009Y-224150049D02*
X198500009Y-224150049D01*
%TO.C,J2*%
X199700009Y-236280049D02*
X199700009Y-245720049D01*
X192900009Y-236280049D02*
X199700009Y-236280049D01*
X192900009Y-245720049D02*
X192900009Y-236280049D01*
X199700009Y-245720049D02*
X192900009Y-245720049D01*
%TO.C,J3*%
X206300009Y-245720049D02*
X206300009Y-236280049D01*
X213100009Y-245720049D02*
X206300009Y-245720049D01*
X213100009Y-236280049D02*
X213100009Y-245720049D01*
X206300009Y-236280049D02*
X213100009Y-236280049D01*
%TO.C,REF\002A\002A*%
X180850009Y-252000049D02*
G75*
G03X180850009Y-252000049I-1250000J0D01*
G01*
X212050009Y-241000049D02*
G75*
G03X212050009Y-241000049I-1250000J0D01*
G01*
%TO.C,J1*%
X104550001Y-232800049D02*
X104550001Y-224150049D01*
X95500001Y-232800049D02*
X104550001Y-232800049D01*
X95500001Y-224150049D02*
X95500001Y-232800049D01*
X104550001Y-224150049D02*
X95500001Y-224150049D01*
%TO.C,J2*%
X96700001Y-236280049D02*
X96700001Y-245720049D01*
X89900001Y-236280049D02*
X96700001Y-236280049D01*
X89900001Y-245720049D02*
X89900001Y-236280049D01*
X96700001Y-245720049D02*
X89900001Y-245720049D01*
%TO.C,J3*%
X103300001Y-245720049D02*
X103300001Y-236280049D01*
X110100001Y-245720049D02*
X103300001Y-245720049D01*
X110100001Y-236280049D02*
X110100001Y-245720049D01*
X103300001Y-236280049D02*
X110100001Y-236280049D01*
%TO.C,REF\002A\002A*%
X77850001Y-252000049D02*
G75*
G03X77850001Y-252000049I-1250000J0D01*
G01*
X109050001Y-241000049D02*
G75*
G03X109050001Y-241000049I-1250000J0D01*
G01*
%TO.C,J1*%
X207550009Y-189800037D02*
X207550009Y-181150037D01*
X198500009Y-189800037D02*
X207550009Y-189800037D01*
X198500009Y-181150037D02*
X198500009Y-189800037D01*
X207550009Y-181150037D02*
X198500009Y-181150037D01*
%TO.C,J2*%
X199700009Y-193280037D02*
X199700009Y-202720037D01*
X192900009Y-193280037D02*
X199700009Y-193280037D01*
X192900009Y-202720037D02*
X192900009Y-193280037D01*
X199700009Y-202720037D02*
X192900009Y-202720037D01*
%TO.C,J3*%
X206300009Y-202720037D02*
X206300009Y-193280037D01*
X213100009Y-202720037D02*
X206300009Y-202720037D01*
X213100009Y-193280037D02*
X213100009Y-202720037D01*
X206300009Y-193280037D02*
X213100009Y-193280037D01*
%TO.C,REF\002A\002A*%
X180850009Y-209000037D02*
G75*
G03X180850009Y-209000037I-1250000J0D01*
G01*
X212050009Y-198000037D02*
G75*
G03X212050009Y-198000037I-1250000J0D01*
G01*
%TO.C,J1*%
X104550001Y-189800037D02*
X104550001Y-181150037D01*
X95500001Y-189800037D02*
X104550001Y-189800037D01*
X95500001Y-181150037D02*
X95500001Y-189800037D01*
X104550001Y-181150037D02*
X95500001Y-181150037D01*
%TO.C,J2*%
X96700001Y-193280037D02*
X96700001Y-202720037D01*
X89900001Y-193280037D02*
X96700001Y-193280037D01*
X89900001Y-202720037D02*
X89900001Y-193280037D01*
X96700001Y-202720037D02*
X89900001Y-202720037D01*
%TO.C,J3*%
X103300001Y-202720037D02*
X103300001Y-193280037D01*
X110100001Y-202720037D02*
X103300001Y-202720037D01*
X110100001Y-193280037D02*
X110100001Y-202720037D01*
X103300001Y-193280037D02*
X110100001Y-193280037D01*
%TO.C,REF\002A\002A*%
X77850001Y-209000037D02*
G75*
G03X77850001Y-209000037I-1250000J0D01*
G01*
X109050001Y-198000037D02*
G75*
G03X109050001Y-198000037I-1250000J0D01*
G01*
%TO.C,J1*%
X207550009Y-146800025D02*
X207550009Y-138150025D01*
X198500009Y-146800025D02*
X207550009Y-146800025D01*
X198500009Y-138150025D02*
X198500009Y-146800025D01*
X207550009Y-138150025D02*
X198500009Y-138150025D01*
%TO.C,J2*%
X199700009Y-150280025D02*
X199700009Y-159720025D01*
X192900009Y-150280025D02*
X199700009Y-150280025D01*
X192900009Y-159720025D02*
X192900009Y-150280025D01*
X199700009Y-159720025D02*
X192900009Y-159720025D01*
%TO.C,J3*%
X206300009Y-159720025D02*
X206300009Y-150280025D01*
X213100009Y-159720025D02*
X206300009Y-159720025D01*
X213100009Y-150280025D02*
X213100009Y-159720025D01*
X206300009Y-150280025D02*
X213100009Y-150280025D01*
%TO.C,REF\002A\002A*%
X180850009Y-166000025D02*
G75*
G03X180850009Y-166000025I-1250000J0D01*
G01*
X212050009Y-155000025D02*
G75*
G03X212050009Y-155000025I-1250000J0D01*
G01*
%TO.C,J1*%
X104550001Y-146800025D02*
X104550001Y-138150025D01*
X95500001Y-146800025D02*
X104550001Y-146800025D01*
X95500001Y-138150025D02*
X95500001Y-146800025D01*
X104550001Y-138150025D02*
X95500001Y-138150025D01*
%TO.C,J2*%
X96700001Y-150280025D02*
X96700001Y-159720025D01*
X89900001Y-150280025D02*
X96700001Y-150280025D01*
X89900001Y-159720025D02*
X89900001Y-150280025D01*
X96700001Y-159720025D02*
X89900001Y-159720025D01*
%TO.C,J3*%
X103300001Y-159720025D02*
X103300001Y-150280025D01*
X110100001Y-159720025D02*
X103300001Y-159720025D01*
X110100001Y-150280025D02*
X110100001Y-159720025D01*
X103300001Y-150280025D02*
X110100001Y-150280025D01*
%TO.C,REF\002A\002A*%
X77850001Y-166000025D02*
G75*
G03X77850001Y-166000025I-1250000J0D01*
G01*
X109050001Y-155000025D02*
G75*
G03X109050001Y-155000025I-1250000J0D01*
G01*
%TO.C,J1*%
X207550009Y-103800013D02*
X207550009Y-95150013D01*
X198500009Y-103800013D02*
X207550009Y-103800013D01*
X198500009Y-95150013D02*
X198500009Y-103800013D01*
X207550009Y-95150013D02*
X198500009Y-95150013D01*
%TO.C,J2*%
X199700009Y-107280013D02*
X199700009Y-116720013D01*
X192900009Y-107280013D02*
X199700009Y-107280013D01*
X192900009Y-116720013D02*
X192900009Y-107280013D01*
X199700009Y-116720013D02*
X192900009Y-116720013D01*
%TO.C,J3*%
X206300009Y-116720013D02*
X206300009Y-107280013D01*
X213100009Y-116720013D02*
X206300009Y-116720013D01*
X213100009Y-107280013D02*
X213100009Y-116720013D01*
X206300009Y-107280013D02*
X213100009Y-107280013D01*
%TO.C,REF\002A\002A*%
X180850009Y-123000013D02*
G75*
G03X180850009Y-123000013I-1250000J0D01*
G01*
X212050009Y-112000013D02*
G75*
G03X212050009Y-112000013I-1250000J0D01*
G01*
%TO.C,J1*%
X104550001Y-103800013D02*
X104550001Y-95150013D01*
X95500001Y-103800013D02*
X104550001Y-103800013D01*
X95500001Y-95150013D02*
X95500001Y-103800013D01*
X104550001Y-95150013D02*
X95500001Y-95150013D01*
%TO.C,J2*%
X96700001Y-107280013D02*
X96700001Y-116720013D01*
X89900001Y-107280013D02*
X96700001Y-107280013D01*
X89900001Y-116720013D02*
X89900001Y-107280013D01*
X96700001Y-116720013D02*
X89900001Y-116720013D01*
%TO.C,J3*%
X103300001Y-116720013D02*
X103300001Y-107280013D01*
X110100001Y-116720013D02*
X103300001Y-116720013D01*
X110100001Y-107280013D02*
X110100001Y-116720013D01*
X103300001Y-107280013D02*
X110100001Y-107280013D01*
%TO.C,REF\002A\002A*%
X77850001Y-123000013D02*
G75*
G03X77850001Y-123000013I-1250000J0D01*
G01*
X109050001Y-112000013D02*
G75*
G03X109050001Y-112000013I-1250000J0D01*
G01*
%TO.C,J1*%
X207550009Y-60800001D02*
X207550009Y-52150001D01*
X198500009Y-60800001D02*
X207550009Y-60800001D01*
X198500009Y-52150001D02*
X198500009Y-60800001D01*
X207550009Y-52150001D02*
X198500009Y-52150001D01*
%TO.C,J2*%
X199700009Y-64280001D02*
X199700009Y-73720001D01*
X192900009Y-64280001D02*
X199700009Y-64280001D01*
X192900009Y-73720001D02*
X192900009Y-64280001D01*
X199700009Y-73720001D02*
X192900009Y-73720001D01*
%TO.C,J3*%
X206300009Y-73720001D02*
X206300009Y-64280001D01*
X213100009Y-73720001D02*
X206300009Y-73720001D01*
X213100009Y-64280001D02*
X213100009Y-73720001D01*
X206300009Y-64280001D02*
X213100009Y-64280001D01*
%TO.C,REF\002A\002A*%
X180850009Y-80000001D02*
G75*
G03X180850009Y-80000001I-1250000J0D01*
G01*
X212050009Y-69000001D02*
G75*
G03X212050009Y-69000001I-1250000J0D01*
G01*
%TO.C,J1*%
X104550001Y-60800001D02*
X104550001Y-52150001D01*
X95500001Y-60800001D02*
X104550001Y-60800001D01*
X95500001Y-52150001D02*
X95500001Y-60800001D01*
X104550001Y-52150001D02*
X95500001Y-52150001D01*
%TO.C,J2*%
X96700001Y-64280001D02*
X96700001Y-73720001D01*
X89900001Y-64280001D02*
X96700001Y-64280001D01*
X89900001Y-73720001D02*
X89900001Y-64280001D01*
X96700001Y-73720001D02*
X89900001Y-73720001D01*
%TO.C,J3*%
X103300001Y-73720001D02*
X103300001Y-64280001D01*
X110100001Y-73720001D02*
X103300001Y-73720001D01*
X110100001Y-64280001D02*
X110100001Y-73720001D01*
X103300001Y-64280001D02*
X110100001Y-64280001D01*
%TO.C,REF\002A\002A*%
X77850001Y-80000001D02*
G75*
G03X77850001Y-80000001I-1250000J0D01*
G01*
X109050001Y-69000001D02*
G75*
G03X109050001Y-69000001I-1250000J0D01*
G01*
%TD*%
M02*
