%TF.GenerationSoftware,KiCad,Pcbnew,(5.1.5)-3*%
%TF.CreationDate,2020-06-01T11:27:06+02:00*%
%TF.ProjectId,panel,70616e65-6c2e-46b6-9963-61645f706362,rev?*%
%TF.SameCoordinates,Original*%
%TF.FileFunction,Other,Comment*%
%FSLAX46Y46*%
G04 Gerber Fmt 4.6, Leading zero omitted, Abs format (unit mm)*
G04 Created by KiCad (PCBNEW (5.1.5)-3) date 2020-06-01 11:27:06*
%MOMM*%
%LPD*%
G04 APERTURE LIST*
%ADD10C,0.400000*%
G04 APERTURE END LIST*
D10*
X251904761Y-37549553D02*
X253904761Y-36882887D01*
X251904761Y-36216220D01*
X253142857Y-35549553D02*
X253142857Y-34025744D01*
X253714285Y-31930506D02*
X253809523Y-32025744D01*
X253904761Y-32311458D01*
X253904761Y-32501934D01*
X253809523Y-32787649D01*
X253619047Y-32978125D01*
X253428571Y-33073363D01*
X253047619Y-33168601D01*
X252761904Y-33168601D01*
X252380952Y-33073363D01*
X252190476Y-32978125D01*
X252000000Y-32787649D01*
X251904761Y-32501934D01*
X251904761Y-32311458D01*
X252000000Y-32025744D01*
X252095238Y-31930506D01*
X251904761Y-31073363D02*
X253523809Y-31073363D01*
X253714285Y-30978125D01*
X253809523Y-30882887D01*
X253904761Y-30692410D01*
X253904761Y-30311458D01*
X253809523Y-30120982D01*
X253714285Y-30025744D01*
X253523809Y-29930506D01*
X251904761Y-29930506D01*
X251904761Y-29263839D02*
X251904761Y-28120982D01*
X253904761Y-28692410D02*
X251904761Y-28692410D01*
X253000000Y-41000030D02*
X253000000Y-271000030D01*
X148904761Y-37549553D02*
X150904761Y-36882887D01*
X148904761Y-36216220D01*
X150142857Y-35549553D02*
X150142857Y-34025744D01*
X150714285Y-31930506D02*
X150809523Y-32025744D01*
X150904761Y-32311458D01*
X150904761Y-32501934D01*
X150809523Y-32787649D01*
X150619047Y-32978125D01*
X150428571Y-33073363D01*
X150047619Y-33168601D01*
X149761904Y-33168601D01*
X149380952Y-33073363D01*
X149190476Y-32978125D01*
X149000000Y-32787649D01*
X148904761Y-32501934D01*
X148904761Y-32311458D01*
X149000000Y-32025744D01*
X149095238Y-31930506D01*
X148904761Y-31073363D02*
X150523809Y-31073363D01*
X150714285Y-30978125D01*
X150809523Y-30882887D01*
X150904761Y-30692410D01*
X150904761Y-30311458D01*
X150809523Y-30120982D01*
X150714285Y-30025744D01*
X150523809Y-29930506D01*
X148904761Y-29930506D01*
X148904761Y-29263839D02*
X148904761Y-28120982D01*
X150904761Y-28692410D02*
X148904761Y-28692410D01*
X150000000Y-41000030D02*
X150000000Y-271000030D01*
X151904761Y-37549553D02*
X153904761Y-36882887D01*
X151904761Y-36216220D01*
X153142857Y-35549553D02*
X153142857Y-34025744D01*
X153714285Y-31930506D02*
X153809523Y-32025744D01*
X153904761Y-32311458D01*
X153904761Y-32501934D01*
X153809523Y-32787649D01*
X153619047Y-32978125D01*
X153428571Y-33073363D01*
X153047619Y-33168601D01*
X152761904Y-33168601D01*
X152380952Y-33073363D01*
X152190476Y-32978125D01*
X152000000Y-32787649D01*
X151904761Y-32501934D01*
X151904761Y-32311458D01*
X152000000Y-32025744D01*
X152095238Y-31930506D01*
X151904761Y-31073363D02*
X153523809Y-31073363D01*
X153714285Y-30978125D01*
X153809523Y-30882887D01*
X153904761Y-30692410D01*
X153904761Y-30311458D01*
X153809523Y-30120982D01*
X153714285Y-30025744D01*
X153523809Y-29930506D01*
X151904761Y-29930506D01*
X151904761Y-29263839D02*
X151904761Y-28120982D01*
X153904761Y-28692410D02*
X151904761Y-28692410D01*
X153000000Y-41000030D02*
X153000000Y-271000030D01*
X48904761Y-37549553D02*
X50904761Y-36882887D01*
X48904761Y-36216220D01*
X50142857Y-35549553D02*
X50142857Y-34025744D01*
X50714285Y-31930506D02*
X50809523Y-32025744D01*
X50904761Y-32311458D01*
X50904761Y-32501934D01*
X50809523Y-32787649D01*
X50619047Y-32978125D01*
X50428571Y-33073363D01*
X50047619Y-33168601D01*
X49761904Y-33168601D01*
X49380952Y-33073363D01*
X49190476Y-32978125D01*
X49000000Y-32787649D01*
X48904761Y-32501934D01*
X48904761Y-32311458D01*
X49000000Y-32025744D01*
X49095238Y-31930506D01*
X48904761Y-31073363D02*
X50523809Y-31073363D01*
X50714285Y-30978125D01*
X50809523Y-30882887D01*
X50904761Y-30692410D01*
X50904761Y-30311458D01*
X50809523Y-30120982D01*
X50714285Y-30025744D01*
X50523809Y-29930506D01*
X48904761Y-29930506D01*
X48904761Y-29263839D02*
X48904761Y-28120982D01*
X50904761Y-28692410D02*
X48904761Y-28692410D01*
X50000000Y-41000030D02*
X50000000Y-271000030D01*
X265450484Y-260904761D02*
X266117150Y-262904761D01*
X266783817Y-260904761D01*
X267450484Y-262142857D02*
X268974293Y-262142857D01*
X271069531Y-262714285D02*
X270974293Y-262809523D01*
X270688579Y-262904761D01*
X270498103Y-262904761D01*
X270212388Y-262809523D01*
X270021912Y-262619047D01*
X269926674Y-262428571D01*
X269831436Y-262047619D01*
X269831436Y-261761904D01*
X269926674Y-261380952D01*
X270021912Y-261190476D01*
X270212388Y-261000000D01*
X270498103Y-260904761D01*
X270688579Y-260904761D01*
X270974293Y-261000000D01*
X271069531Y-261095238D01*
X271926674Y-260904761D02*
X271926674Y-262523809D01*
X272021912Y-262714285D01*
X272117150Y-262809523D01*
X272307627Y-262904761D01*
X272688579Y-262904761D01*
X272879055Y-262809523D01*
X272974293Y-262714285D01*
X273069531Y-262523809D01*
X273069531Y-260904761D01*
X273736198Y-260904761D02*
X274879055Y-260904761D01*
X274307627Y-262904761D02*
X274307627Y-260904761D01*
X41000008Y-262000000D02*
X262000008Y-262000000D01*
X265450484Y-220904761D02*
X266117150Y-222904761D01*
X266783817Y-220904761D01*
X267450484Y-222142857D02*
X268974293Y-222142857D01*
X271069531Y-222714285D02*
X270974293Y-222809523D01*
X270688579Y-222904761D01*
X270498103Y-222904761D01*
X270212388Y-222809523D01*
X270021912Y-222619047D01*
X269926674Y-222428571D01*
X269831436Y-222047619D01*
X269831436Y-221761904D01*
X269926674Y-221380952D01*
X270021912Y-221190476D01*
X270212388Y-221000000D01*
X270498103Y-220904761D01*
X270688579Y-220904761D01*
X270974293Y-221000000D01*
X271069531Y-221095238D01*
X271926674Y-220904761D02*
X271926674Y-222523809D01*
X272021912Y-222714285D01*
X272117150Y-222809523D01*
X272307627Y-222904761D01*
X272688579Y-222904761D01*
X272879055Y-222809523D01*
X272974293Y-222714285D01*
X273069531Y-222523809D01*
X273069531Y-220904761D01*
X273736198Y-220904761D02*
X274879055Y-220904761D01*
X274307627Y-222904761D02*
X274307627Y-220904761D01*
X41000008Y-222000000D02*
X262000008Y-222000000D01*
X265450484Y-217904761D02*
X266117150Y-219904761D01*
X266783817Y-217904761D01*
X267450484Y-219142857D02*
X268974293Y-219142857D01*
X271069531Y-219714285D02*
X270974293Y-219809523D01*
X270688579Y-219904761D01*
X270498103Y-219904761D01*
X270212388Y-219809523D01*
X270021912Y-219619047D01*
X269926674Y-219428571D01*
X269831436Y-219047619D01*
X269831436Y-218761904D01*
X269926674Y-218380952D01*
X270021912Y-218190476D01*
X270212388Y-218000000D01*
X270498103Y-217904761D01*
X270688579Y-217904761D01*
X270974293Y-218000000D01*
X271069531Y-218095238D01*
X271926674Y-217904761D02*
X271926674Y-219523809D01*
X272021912Y-219714285D01*
X272117150Y-219809523D01*
X272307627Y-219904761D01*
X272688579Y-219904761D01*
X272879055Y-219809523D01*
X272974293Y-219714285D01*
X273069531Y-219523809D01*
X273069531Y-217904761D01*
X273736198Y-217904761D02*
X274879055Y-217904761D01*
X274307627Y-219904761D02*
X274307627Y-217904761D01*
X41000008Y-219000000D02*
X262000008Y-219000000D01*
X265450484Y-177904761D02*
X266117150Y-179904761D01*
X266783817Y-177904761D01*
X267450484Y-179142857D02*
X268974293Y-179142857D01*
X271069531Y-179714285D02*
X270974293Y-179809523D01*
X270688579Y-179904761D01*
X270498103Y-179904761D01*
X270212388Y-179809523D01*
X270021912Y-179619047D01*
X269926674Y-179428571D01*
X269831436Y-179047619D01*
X269831436Y-178761904D01*
X269926674Y-178380952D01*
X270021912Y-178190476D01*
X270212388Y-178000000D01*
X270498103Y-177904761D01*
X270688579Y-177904761D01*
X270974293Y-178000000D01*
X271069531Y-178095238D01*
X271926674Y-177904761D02*
X271926674Y-179523809D01*
X272021912Y-179714285D01*
X272117150Y-179809523D01*
X272307627Y-179904761D01*
X272688579Y-179904761D01*
X272879055Y-179809523D01*
X272974293Y-179714285D01*
X273069531Y-179523809D01*
X273069531Y-177904761D01*
X273736198Y-177904761D02*
X274879055Y-177904761D01*
X274307627Y-179904761D02*
X274307627Y-177904761D01*
X41000008Y-179000000D02*
X262000008Y-179000000D01*
X265450484Y-174904761D02*
X266117150Y-176904761D01*
X266783817Y-174904761D01*
X267450484Y-176142857D02*
X268974293Y-176142857D01*
X271069531Y-176714285D02*
X270974293Y-176809523D01*
X270688579Y-176904761D01*
X270498103Y-176904761D01*
X270212388Y-176809523D01*
X270021912Y-176619047D01*
X269926674Y-176428571D01*
X269831436Y-176047619D01*
X269831436Y-175761904D01*
X269926674Y-175380952D01*
X270021912Y-175190476D01*
X270212388Y-175000000D01*
X270498103Y-174904761D01*
X270688579Y-174904761D01*
X270974293Y-175000000D01*
X271069531Y-175095238D01*
X271926674Y-174904761D02*
X271926674Y-176523809D01*
X272021912Y-176714285D01*
X272117150Y-176809523D01*
X272307627Y-176904761D01*
X272688579Y-176904761D01*
X272879055Y-176809523D01*
X272974293Y-176714285D01*
X273069531Y-176523809D01*
X273069531Y-174904761D01*
X273736198Y-174904761D02*
X274879055Y-174904761D01*
X274307627Y-176904761D02*
X274307627Y-174904761D01*
X41000008Y-176000000D02*
X262000008Y-176000000D01*
X265450484Y-88904761D02*
X266117150Y-90904761D01*
X266783817Y-88904761D01*
X267450484Y-90142857D02*
X268974293Y-90142857D01*
X271069531Y-90714285D02*
X270974293Y-90809523D01*
X270688579Y-90904761D01*
X270498103Y-90904761D01*
X270212388Y-90809523D01*
X270021912Y-90619047D01*
X269926674Y-90428571D01*
X269831436Y-90047619D01*
X269831436Y-89761904D01*
X269926674Y-89380952D01*
X270021912Y-89190476D01*
X270212388Y-89000000D01*
X270498103Y-88904761D01*
X270688579Y-88904761D01*
X270974293Y-89000000D01*
X271069531Y-89095238D01*
X271926674Y-88904761D02*
X271926674Y-90523809D01*
X272021912Y-90714285D01*
X272117150Y-90809523D01*
X272307627Y-90904761D01*
X272688579Y-90904761D01*
X272879055Y-90809523D01*
X272974293Y-90714285D01*
X273069531Y-90523809D01*
X273069531Y-88904761D01*
X273736198Y-88904761D02*
X274879055Y-88904761D01*
X274307627Y-90904761D02*
X274307627Y-88904761D01*
X41000008Y-90000000D02*
X262000008Y-90000000D01*
X265450484Y-91904761D02*
X266117150Y-93904761D01*
X266783817Y-91904761D01*
X267450484Y-93142857D02*
X268974293Y-93142857D01*
X271069531Y-93714285D02*
X270974293Y-93809523D01*
X270688579Y-93904761D01*
X270498103Y-93904761D01*
X270212388Y-93809523D01*
X270021912Y-93619047D01*
X269926674Y-93428571D01*
X269831436Y-93047619D01*
X269831436Y-92761904D01*
X269926674Y-92380952D01*
X270021912Y-92190476D01*
X270212388Y-92000000D01*
X270498103Y-91904761D01*
X270688579Y-91904761D01*
X270974293Y-92000000D01*
X271069531Y-92095238D01*
X271926674Y-91904761D02*
X271926674Y-93523809D01*
X272021912Y-93714285D01*
X272117150Y-93809523D01*
X272307627Y-93904761D01*
X272688579Y-93904761D01*
X272879055Y-93809523D01*
X272974293Y-93714285D01*
X273069531Y-93523809D01*
X273069531Y-91904761D01*
X273736198Y-91904761D02*
X274879055Y-91904761D01*
X274307627Y-93904761D02*
X274307627Y-91904761D01*
X41000008Y-93000000D02*
X262000008Y-93000000D01*
X265450484Y-131904761D02*
X266117150Y-133904761D01*
X266783817Y-131904761D01*
X267450484Y-133142857D02*
X268974293Y-133142857D01*
X271069531Y-133714285D02*
X270974293Y-133809523D01*
X270688579Y-133904761D01*
X270498103Y-133904761D01*
X270212388Y-133809523D01*
X270021912Y-133619047D01*
X269926674Y-133428571D01*
X269831436Y-133047619D01*
X269831436Y-132761904D01*
X269926674Y-132380952D01*
X270021912Y-132190476D01*
X270212388Y-132000000D01*
X270498103Y-131904761D01*
X270688579Y-131904761D01*
X270974293Y-132000000D01*
X271069531Y-132095238D01*
X271926674Y-131904761D02*
X271926674Y-133523809D01*
X272021912Y-133714285D01*
X272117150Y-133809523D01*
X272307627Y-133904761D01*
X272688579Y-133904761D01*
X272879055Y-133809523D01*
X272974293Y-133714285D01*
X273069531Y-133523809D01*
X273069531Y-131904761D01*
X273736198Y-131904761D02*
X274879055Y-131904761D01*
X274307627Y-133904761D02*
X274307627Y-131904761D01*
X41000008Y-133000000D02*
X262000008Y-133000000D01*
X265450484Y-134904761D02*
X266117150Y-136904761D01*
X266783817Y-134904761D01*
X267450484Y-136142857D02*
X268974293Y-136142857D01*
X271069531Y-136714285D02*
X270974293Y-136809523D01*
X270688579Y-136904761D01*
X270498103Y-136904761D01*
X270212388Y-136809523D01*
X270021912Y-136619047D01*
X269926674Y-136428571D01*
X269831436Y-136047619D01*
X269831436Y-135761904D01*
X269926674Y-135380952D01*
X270021912Y-135190476D01*
X270212388Y-135000000D01*
X270498103Y-134904761D01*
X270688579Y-134904761D01*
X270974293Y-135000000D01*
X271069531Y-135095238D01*
X271926674Y-134904761D02*
X271926674Y-136523809D01*
X272021912Y-136714285D01*
X272117150Y-136809523D01*
X272307627Y-136904761D01*
X272688579Y-136904761D01*
X272879055Y-136809523D01*
X272974293Y-136714285D01*
X273069531Y-136523809D01*
X273069531Y-134904761D01*
X273736198Y-134904761D02*
X274879055Y-134904761D01*
X274307627Y-136904761D02*
X274307627Y-134904761D01*
X41000008Y-136000000D02*
X262000008Y-136000000D01*
X265450484Y-48904761D02*
X266117150Y-50904761D01*
X266783817Y-48904761D01*
X267450484Y-50142857D02*
X268974293Y-50142857D01*
X271069531Y-50714285D02*
X270974293Y-50809523D01*
X270688579Y-50904761D01*
X270498103Y-50904761D01*
X270212388Y-50809523D01*
X270021912Y-50619047D01*
X269926674Y-50428571D01*
X269831436Y-50047619D01*
X269831436Y-49761904D01*
X269926674Y-49380952D01*
X270021912Y-49190476D01*
X270212388Y-49000000D01*
X270498103Y-48904761D01*
X270688579Y-48904761D01*
X270974293Y-49000000D01*
X271069531Y-49095238D01*
X271926674Y-48904761D02*
X271926674Y-50523809D01*
X272021912Y-50714285D01*
X272117150Y-50809523D01*
X272307627Y-50904761D01*
X272688579Y-50904761D01*
X272879055Y-50809523D01*
X272974293Y-50714285D01*
X273069531Y-50523809D01*
X273069531Y-48904761D01*
X273736198Y-48904761D02*
X274879055Y-48904761D01*
X274307627Y-50904761D02*
X274307627Y-48904761D01*
X41000008Y-50000000D02*
X262000008Y-50000000D01*
M02*
