%TF.GenerationSoftware,KiCad,Pcbnew,(5.1.5)-3*%
%TF.CreationDate,2020-06-01T11:27:06+02:00*%
%TF.ProjectId,panel,70616e65-6c2e-46b6-9963-61645f706362,rev?*%
%TF.SameCoordinates,Original*%
%TF.FileFunction,Paste,Bot*%
%TF.FilePolarity,Positive*%
%FSLAX46Y46*%
G04 Gerber Fmt 4.6, Leading zero omitted, Abs format (unit mm)*
G04 Created by KiCad (PCBNEW (5.1.5)-3) date 2020-06-01 11:27:06*
%MOMM*%
%LPD*%
G04 APERTURE LIST*
%ADD10R,3.000000X1.000000*%
%ADD11C,0.150000*%
%ADD12R,0.600000X2.500000*%
G04 APERTURE END LIST*
D10*
%TO.C,J1*%
X200480009Y-225960049D03*
X205520009Y-225960049D03*
X200480009Y-228500049D03*
X205520009Y-228500049D03*
X200480009Y-231040049D03*
X205520009Y-231040049D03*
%TD*%
D11*
%TO.C,J2*%
G36*
X199019612Y-241226012D02*
G01*
X199039027Y-241228892D01*
X199058066Y-241233661D01*
X199076546Y-241240273D01*
X199094288Y-241248665D01*
X199111123Y-241258755D01*
X199126888Y-241270447D01*
X199141430Y-241283628D01*
X199154611Y-241298170D01*
X199166303Y-241313935D01*
X199176393Y-241330770D01*
X199184785Y-241348512D01*
X199191397Y-241366992D01*
X199196166Y-241386031D01*
X199199046Y-241405446D01*
X199200009Y-241425049D01*
X199200009Y-241825049D01*
X199199046Y-241844652D01*
X199196166Y-241864067D01*
X199191397Y-241883106D01*
X199184785Y-241901586D01*
X199176393Y-241919328D01*
X199166303Y-241936163D01*
X199154611Y-241951928D01*
X199141430Y-241966470D01*
X199126888Y-241979651D01*
X199111123Y-241991343D01*
X199094288Y-242001433D01*
X199076546Y-242009825D01*
X199058066Y-242016437D01*
X199039027Y-242021206D01*
X199019612Y-242024086D01*
X199000009Y-242025049D01*
X197800009Y-242025049D01*
X197780406Y-242024086D01*
X197760991Y-242021206D01*
X197741952Y-242016437D01*
X197723472Y-242009825D01*
X197705730Y-242001433D01*
X197688895Y-241991343D01*
X197673130Y-241979651D01*
X197658588Y-241966470D01*
X197645407Y-241951928D01*
X197633715Y-241936163D01*
X197623625Y-241919328D01*
X197615233Y-241901586D01*
X197608621Y-241883106D01*
X197603852Y-241864067D01*
X197600972Y-241844652D01*
X197600009Y-241825049D01*
X197600009Y-241425049D01*
X197600972Y-241405446D01*
X197603852Y-241386031D01*
X197608621Y-241366992D01*
X197615233Y-241348512D01*
X197623625Y-241330770D01*
X197633715Y-241313935D01*
X197645407Y-241298170D01*
X197658588Y-241283628D01*
X197673130Y-241270447D01*
X197688895Y-241258755D01*
X197705730Y-241248665D01*
X197723472Y-241240273D01*
X197741952Y-241233661D01*
X197760991Y-241228892D01*
X197780406Y-241226012D01*
X197800009Y-241225049D01*
X199000009Y-241225049D01*
X199019612Y-241226012D01*
G37*
G36*
X199019612Y-239976012D02*
G01*
X199039027Y-239978892D01*
X199058066Y-239983661D01*
X199076546Y-239990273D01*
X199094288Y-239998665D01*
X199111123Y-240008755D01*
X199126888Y-240020447D01*
X199141430Y-240033628D01*
X199154611Y-240048170D01*
X199166303Y-240063935D01*
X199176393Y-240080770D01*
X199184785Y-240098512D01*
X199191397Y-240116992D01*
X199196166Y-240136031D01*
X199199046Y-240155446D01*
X199200009Y-240175049D01*
X199200009Y-240575049D01*
X199199046Y-240594652D01*
X199196166Y-240614067D01*
X199191397Y-240633106D01*
X199184785Y-240651586D01*
X199176393Y-240669328D01*
X199166303Y-240686163D01*
X199154611Y-240701928D01*
X199141430Y-240716470D01*
X199126888Y-240729651D01*
X199111123Y-240741343D01*
X199094288Y-240751433D01*
X199076546Y-240759825D01*
X199058066Y-240766437D01*
X199039027Y-240771206D01*
X199019612Y-240774086D01*
X199000009Y-240775049D01*
X197800009Y-240775049D01*
X197780406Y-240774086D01*
X197760991Y-240771206D01*
X197741952Y-240766437D01*
X197723472Y-240759825D01*
X197705730Y-240751433D01*
X197688895Y-240741343D01*
X197673130Y-240729651D01*
X197658588Y-240716470D01*
X197645407Y-240701928D01*
X197633715Y-240686163D01*
X197623625Y-240669328D01*
X197615233Y-240651586D01*
X197608621Y-240633106D01*
X197603852Y-240614067D01*
X197600972Y-240594652D01*
X197600009Y-240575049D01*
X197600009Y-240175049D01*
X197600972Y-240155446D01*
X197603852Y-240136031D01*
X197608621Y-240116992D01*
X197615233Y-240098512D01*
X197623625Y-240080770D01*
X197633715Y-240063935D01*
X197645407Y-240048170D01*
X197658588Y-240033628D01*
X197673130Y-240020447D01*
X197688895Y-240008755D01*
X197705730Y-239998665D01*
X197723472Y-239990273D01*
X197741952Y-239983661D01*
X197760991Y-239978892D01*
X197780406Y-239976012D01*
X197800009Y-239975049D01*
X199000009Y-239975049D01*
X199019612Y-239976012D01*
G37*
G36*
X196774513Y-243126253D02*
G01*
X196798782Y-243129853D01*
X196822580Y-243135814D01*
X196845680Y-243144079D01*
X196867858Y-243154569D01*
X196888902Y-243167182D01*
X196908607Y-243181796D01*
X196926786Y-243198272D01*
X196943262Y-243216451D01*
X196957876Y-243236156D01*
X196970489Y-243257200D01*
X196980979Y-243279378D01*
X196989244Y-243302478D01*
X196995205Y-243326276D01*
X196998805Y-243350545D01*
X197000009Y-243375049D01*
X197000009Y-244975049D01*
X196998805Y-244999553D01*
X196995205Y-245023822D01*
X196989244Y-245047620D01*
X196980979Y-245070720D01*
X196970489Y-245092898D01*
X196957876Y-245113942D01*
X196943262Y-245133647D01*
X196926786Y-245151826D01*
X196908607Y-245168302D01*
X196888902Y-245182916D01*
X196867858Y-245195529D01*
X196845680Y-245206019D01*
X196822580Y-245214284D01*
X196798782Y-245220245D01*
X196774513Y-245223845D01*
X196750009Y-245225049D01*
X194250009Y-245225049D01*
X194225505Y-245223845D01*
X194201236Y-245220245D01*
X194177438Y-245214284D01*
X194154338Y-245206019D01*
X194132160Y-245195529D01*
X194111116Y-245182916D01*
X194091411Y-245168302D01*
X194073232Y-245151826D01*
X194056756Y-245133647D01*
X194042142Y-245113942D01*
X194029529Y-245092898D01*
X194019039Y-245070720D01*
X194010774Y-245047620D01*
X194004813Y-245023822D01*
X194001213Y-244999553D01*
X194000009Y-244975049D01*
X194000009Y-243375049D01*
X194001213Y-243350545D01*
X194004813Y-243326276D01*
X194010774Y-243302478D01*
X194019039Y-243279378D01*
X194029529Y-243257200D01*
X194042142Y-243236156D01*
X194056756Y-243216451D01*
X194073232Y-243198272D01*
X194091411Y-243181796D01*
X194111116Y-243167182D01*
X194132160Y-243154569D01*
X194154338Y-243144079D01*
X194177438Y-243135814D01*
X194201236Y-243129853D01*
X194225505Y-243126253D01*
X194250009Y-243125049D01*
X196750009Y-243125049D01*
X196774513Y-243126253D01*
G37*
G36*
X196774513Y-236776253D02*
G01*
X196798782Y-236779853D01*
X196822580Y-236785814D01*
X196845680Y-236794079D01*
X196867858Y-236804569D01*
X196888902Y-236817182D01*
X196908607Y-236831796D01*
X196926786Y-236848272D01*
X196943262Y-236866451D01*
X196957876Y-236886156D01*
X196970489Y-236907200D01*
X196980979Y-236929378D01*
X196989244Y-236952478D01*
X196995205Y-236976276D01*
X196998805Y-237000545D01*
X197000009Y-237025049D01*
X197000009Y-238625049D01*
X196998805Y-238649553D01*
X196995205Y-238673822D01*
X196989244Y-238697620D01*
X196980979Y-238720720D01*
X196970489Y-238742898D01*
X196957876Y-238763942D01*
X196943262Y-238783647D01*
X196926786Y-238801826D01*
X196908607Y-238818302D01*
X196888902Y-238832916D01*
X196867858Y-238845529D01*
X196845680Y-238856019D01*
X196822580Y-238864284D01*
X196798782Y-238870245D01*
X196774513Y-238873845D01*
X196750009Y-238875049D01*
X194250009Y-238875049D01*
X194225505Y-238873845D01*
X194201236Y-238870245D01*
X194177438Y-238864284D01*
X194154338Y-238856019D01*
X194132160Y-238845529D01*
X194111116Y-238832916D01*
X194091411Y-238818302D01*
X194073232Y-238801826D01*
X194056756Y-238783647D01*
X194042142Y-238763942D01*
X194029529Y-238742898D01*
X194019039Y-238720720D01*
X194010774Y-238697620D01*
X194004813Y-238673822D01*
X194001213Y-238649553D01*
X194000009Y-238625049D01*
X194000009Y-237025049D01*
X194001213Y-237000545D01*
X194004813Y-236976276D01*
X194010774Y-236952478D01*
X194019039Y-236929378D01*
X194029529Y-236907200D01*
X194042142Y-236886156D01*
X194056756Y-236866451D01*
X194073232Y-236848272D01*
X194091411Y-236831796D01*
X194111116Y-236817182D01*
X194132160Y-236804569D01*
X194154338Y-236794079D01*
X194177438Y-236785814D01*
X194201236Y-236779853D01*
X194225505Y-236776253D01*
X194250009Y-236775049D01*
X196750009Y-236775049D01*
X196774513Y-236776253D01*
G37*
%TD*%
%TO.C,J3*%
G36*
X208219612Y-239976012D02*
G01*
X208239027Y-239978892D01*
X208258066Y-239983661D01*
X208276546Y-239990273D01*
X208294288Y-239998665D01*
X208311123Y-240008755D01*
X208326888Y-240020447D01*
X208341430Y-240033628D01*
X208354611Y-240048170D01*
X208366303Y-240063935D01*
X208376393Y-240080770D01*
X208384785Y-240098512D01*
X208391397Y-240116992D01*
X208396166Y-240136031D01*
X208399046Y-240155446D01*
X208400009Y-240175049D01*
X208400009Y-240575049D01*
X208399046Y-240594652D01*
X208396166Y-240614067D01*
X208391397Y-240633106D01*
X208384785Y-240651586D01*
X208376393Y-240669328D01*
X208366303Y-240686163D01*
X208354611Y-240701928D01*
X208341430Y-240716470D01*
X208326888Y-240729651D01*
X208311123Y-240741343D01*
X208294288Y-240751433D01*
X208276546Y-240759825D01*
X208258066Y-240766437D01*
X208239027Y-240771206D01*
X208219612Y-240774086D01*
X208200009Y-240775049D01*
X207000009Y-240775049D01*
X206980406Y-240774086D01*
X206960991Y-240771206D01*
X206941952Y-240766437D01*
X206923472Y-240759825D01*
X206905730Y-240751433D01*
X206888895Y-240741343D01*
X206873130Y-240729651D01*
X206858588Y-240716470D01*
X206845407Y-240701928D01*
X206833715Y-240686163D01*
X206823625Y-240669328D01*
X206815233Y-240651586D01*
X206808621Y-240633106D01*
X206803852Y-240614067D01*
X206800972Y-240594652D01*
X206800009Y-240575049D01*
X206800009Y-240175049D01*
X206800972Y-240155446D01*
X206803852Y-240136031D01*
X206808621Y-240116992D01*
X206815233Y-240098512D01*
X206823625Y-240080770D01*
X206833715Y-240063935D01*
X206845407Y-240048170D01*
X206858588Y-240033628D01*
X206873130Y-240020447D01*
X206888895Y-240008755D01*
X206905730Y-239998665D01*
X206923472Y-239990273D01*
X206941952Y-239983661D01*
X206960991Y-239978892D01*
X206980406Y-239976012D01*
X207000009Y-239975049D01*
X208200009Y-239975049D01*
X208219612Y-239976012D01*
G37*
G36*
X208219612Y-241226012D02*
G01*
X208239027Y-241228892D01*
X208258066Y-241233661D01*
X208276546Y-241240273D01*
X208294288Y-241248665D01*
X208311123Y-241258755D01*
X208326888Y-241270447D01*
X208341430Y-241283628D01*
X208354611Y-241298170D01*
X208366303Y-241313935D01*
X208376393Y-241330770D01*
X208384785Y-241348512D01*
X208391397Y-241366992D01*
X208396166Y-241386031D01*
X208399046Y-241405446D01*
X208400009Y-241425049D01*
X208400009Y-241825049D01*
X208399046Y-241844652D01*
X208396166Y-241864067D01*
X208391397Y-241883106D01*
X208384785Y-241901586D01*
X208376393Y-241919328D01*
X208366303Y-241936163D01*
X208354611Y-241951928D01*
X208341430Y-241966470D01*
X208326888Y-241979651D01*
X208311123Y-241991343D01*
X208294288Y-242001433D01*
X208276546Y-242009825D01*
X208258066Y-242016437D01*
X208239027Y-242021206D01*
X208219612Y-242024086D01*
X208200009Y-242025049D01*
X207000009Y-242025049D01*
X206980406Y-242024086D01*
X206960991Y-242021206D01*
X206941952Y-242016437D01*
X206923472Y-242009825D01*
X206905730Y-242001433D01*
X206888895Y-241991343D01*
X206873130Y-241979651D01*
X206858588Y-241966470D01*
X206845407Y-241951928D01*
X206833715Y-241936163D01*
X206823625Y-241919328D01*
X206815233Y-241901586D01*
X206808621Y-241883106D01*
X206803852Y-241864067D01*
X206800972Y-241844652D01*
X206800009Y-241825049D01*
X206800009Y-241425049D01*
X206800972Y-241405446D01*
X206803852Y-241386031D01*
X206808621Y-241366992D01*
X206815233Y-241348512D01*
X206823625Y-241330770D01*
X206833715Y-241313935D01*
X206845407Y-241298170D01*
X206858588Y-241283628D01*
X206873130Y-241270447D01*
X206888895Y-241258755D01*
X206905730Y-241248665D01*
X206923472Y-241240273D01*
X206941952Y-241233661D01*
X206960991Y-241228892D01*
X206980406Y-241226012D01*
X207000009Y-241225049D01*
X208200009Y-241225049D01*
X208219612Y-241226012D01*
G37*
G36*
X211774513Y-236776253D02*
G01*
X211798782Y-236779853D01*
X211822580Y-236785814D01*
X211845680Y-236794079D01*
X211867858Y-236804569D01*
X211888902Y-236817182D01*
X211908607Y-236831796D01*
X211926786Y-236848272D01*
X211943262Y-236866451D01*
X211957876Y-236886156D01*
X211970489Y-236907200D01*
X211980979Y-236929378D01*
X211989244Y-236952478D01*
X211995205Y-236976276D01*
X211998805Y-237000545D01*
X212000009Y-237025049D01*
X212000009Y-238625049D01*
X211998805Y-238649553D01*
X211995205Y-238673822D01*
X211989244Y-238697620D01*
X211980979Y-238720720D01*
X211970489Y-238742898D01*
X211957876Y-238763942D01*
X211943262Y-238783647D01*
X211926786Y-238801826D01*
X211908607Y-238818302D01*
X211888902Y-238832916D01*
X211867858Y-238845529D01*
X211845680Y-238856019D01*
X211822580Y-238864284D01*
X211798782Y-238870245D01*
X211774513Y-238873845D01*
X211750009Y-238875049D01*
X209250009Y-238875049D01*
X209225505Y-238873845D01*
X209201236Y-238870245D01*
X209177438Y-238864284D01*
X209154338Y-238856019D01*
X209132160Y-238845529D01*
X209111116Y-238832916D01*
X209091411Y-238818302D01*
X209073232Y-238801826D01*
X209056756Y-238783647D01*
X209042142Y-238763942D01*
X209029529Y-238742898D01*
X209019039Y-238720720D01*
X209010774Y-238697620D01*
X209004813Y-238673822D01*
X209001213Y-238649553D01*
X209000009Y-238625049D01*
X209000009Y-237025049D01*
X209001213Y-237000545D01*
X209004813Y-236976276D01*
X209010774Y-236952478D01*
X209019039Y-236929378D01*
X209029529Y-236907200D01*
X209042142Y-236886156D01*
X209056756Y-236866451D01*
X209073232Y-236848272D01*
X209091411Y-236831796D01*
X209111116Y-236817182D01*
X209132160Y-236804569D01*
X209154338Y-236794079D01*
X209177438Y-236785814D01*
X209201236Y-236779853D01*
X209225505Y-236776253D01*
X209250009Y-236775049D01*
X211750009Y-236775049D01*
X211774513Y-236776253D01*
G37*
G36*
X211774513Y-243126253D02*
G01*
X211798782Y-243129853D01*
X211822580Y-243135814D01*
X211845680Y-243144079D01*
X211867858Y-243154569D01*
X211888902Y-243167182D01*
X211908607Y-243181796D01*
X211926786Y-243198272D01*
X211943262Y-243216451D01*
X211957876Y-243236156D01*
X211970489Y-243257200D01*
X211980979Y-243279378D01*
X211989244Y-243302478D01*
X211995205Y-243326276D01*
X211998805Y-243350545D01*
X212000009Y-243375049D01*
X212000009Y-244975049D01*
X211998805Y-244999553D01*
X211995205Y-245023822D01*
X211989244Y-245047620D01*
X211980979Y-245070720D01*
X211970489Y-245092898D01*
X211957876Y-245113942D01*
X211943262Y-245133647D01*
X211926786Y-245151826D01*
X211908607Y-245168302D01*
X211888902Y-245182916D01*
X211867858Y-245195529D01*
X211845680Y-245206019D01*
X211822580Y-245214284D01*
X211798782Y-245220245D01*
X211774513Y-245223845D01*
X211750009Y-245225049D01*
X209250009Y-245225049D01*
X209225505Y-245223845D01*
X209201236Y-245220245D01*
X209177438Y-245214284D01*
X209154338Y-245206019D01*
X209132160Y-245195529D01*
X209111116Y-245182916D01*
X209091411Y-245168302D01*
X209073232Y-245151826D01*
X209056756Y-245133647D01*
X209042142Y-245113942D01*
X209029529Y-245092898D01*
X209019039Y-245070720D01*
X209010774Y-245047620D01*
X209004813Y-245023822D01*
X209001213Y-244999553D01*
X209000009Y-244975049D01*
X209000009Y-243375049D01*
X209001213Y-243350545D01*
X209004813Y-243326276D01*
X209010774Y-243302478D01*
X209019039Y-243279378D01*
X209029529Y-243257200D01*
X209042142Y-243236156D01*
X209056756Y-243216451D01*
X209073232Y-243198272D01*
X209091411Y-243181796D01*
X209111116Y-243167182D01*
X209132160Y-243154569D01*
X209154338Y-243144079D01*
X209177438Y-243135814D01*
X209201236Y-243129853D01*
X209225505Y-243126253D01*
X209250009Y-243125049D01*
X211750009Y-243125049D01*
X211774513Y-243126253D01*
G37*
%TD*%
D12*
%TO.C,J4*%
X176900009Y-247700049D03*
X177900009Y-247700049D03*
X178900009Y-247700049D03*
X179900009Y-247700049D03*
X180900009Y-247700049D03*
X181900009Y-247700049D03*
X183900009Y-247700049D03*
X182900009Y-247700049D03*
%TD*%
D10*
%TO.C,J1*%
X97480001Y-225960049D03*
X102520001Y-225960049D03*
X97480001Y-228500049D03*
X102520001Y-228500049D03*
X97480001Y-231040049D03*
X102520001Y-231040049D03*
%TD*%
D11*
%TO.C,J2*%
G36*
X96019604Y-241226012D02*
G01*
X96039019Y-241228892D01*
X96058058Y-241233661D01*
X96076538Y-241240273D01*
X96094280Y-241248665D01*
X96111115Y-241258755D01*
X96126880Y-241270447D01*
X96141422Y-241283628D01*
X96154603Y-241298170D01*
X96166295Y-241313935D01*
X96176385Y-241330770D01*
X96184777Y-241348512D01*
X96191389Y-241366992D01*
X96196158Y-241386031D01*
X96199038Y-241405446D01*
X96200001Y-241425049D01*
X96200001Y-241825049D01*
X96199038Y-241844652D01*
X96196158Y-241864067D01*
X96191389Y-241883106D01*
X96184777Y-241901586D01*
X96176385Y-241919328D01*
X96166295Y-241936163D01*
X96154603Y-241951928D01*
X96141422Y-241966470D01*
X96126880Y-241979651D01*
X96111115Y-241991343D01*
X96094280Y-242001433D01*
X96076538Y-242009825D01*
X96058058Y-242016437D01*
X96039019Y-242021206D01*
X96019604Y-242024086D01*
X96000001Y-242025049D01*
X94800001Y-242025049D01*
X94780398Y-242024086D01*
X94760983Y-242021206D01*
X94741944Y-242016437D01*
X94723464Y-242009825D01*
X94705722Y-242001433D01*
X94688887Y-241991343D01*
X94673122Y-241979651D01*
X94658580Y-241966470D01*
X94645399Y-241951928D01*
X94633707Y-241936163D01*
X94623617Y-241919328D01*
X94615225Y-241901586D01*
X94608613Y-241883106D01*
X94603844Y-241864067D01*
X94600964Y-241844652D01*
X94600001Y-241825049D01*
X94600001Y-241425049D01*
X94600964Y-241405446D01*
X94603844Y-241386031D01*
X94608613Y-241366992D01*
X94615225Y-241348512D01*
X94623617Y-241330770D01*
X94633707Y-241313935D01*
X94645399Y-241298170D01*
X94658580Y-241283628D01*
X94673122Y-241270447D01*
X94688887Y-241258755D01*
X94705722Y-241248665D01*
X94723464Y-241240273D01*
X94741944Y-241233661D01*
X94760983Y-241228892D01*
X94780398Y-241226012D01*
X94800001Y-241225049D01*
X96000001Y-241225049D01*
X96019604Y-241226012D01*
G37*
G36*
X96019604Y-239976012D02*
G01*
X96039019Y-239978892D01*
X96058058Y-239983661D01*
X96076538Y-239990273D01*
X96094280Y-239998665D01*
X96111115Y-240008755D01*
X96126880Y-240020447D01*
X96141422Y-240033628D01*
X96154603Y-240048170D01*
X96166295Y-240063935D01*
X96176385Y-240080770D01*
X96184777Y-240098512D01*
X96191389Y-240116992D01*
X96196158Y-240136031D01*
X96199038Y-240155446D01*
X96200001Y-240175049D01*
X96200001Y-240575049D01*
X96199038Y-240594652D01*
X96196158Y-240614067D01*
X96191389Y-240633106D01*
X96184777Y-240651586D01*
X96176385Y-240669328D01*
X96166295Y-240686163D01*
X96154603Y-240701928D01*
X96141422Y-240716470D01*
X96126880Y-240729651D01*
X96111115Y-240741343D01*
X96094280Y-240751433D01*
X96076538Y-240759825D01*
X96058058Y-240766437D01*
X96039019Y-240771206D01*
X96019604Y-240774086D01*
X96000001Y-240775049D01*
X94800001Y-240775049D01*
X94780398Y-240774086D01*
X94760983Y-240771206D01*
X94741944Y-240766437D01*
X94723464Y-240759825D01*
X94705722Y-240751433D01*
X94688887Y-240741343D01*
X94673122Y-240729651D01*
X94658580Y-240716470D01*
X94645399Y-240701928D01*
X94633707Y-240686163D01*
X94623617Y-240669328D01*
X94615225Y-240651586D01*
X94608613Y-240633106D01*
X94603844Y-240614067D01*
X94600964Y-240594652D01*
X94600001Y-240575049D01*
X94600001Y-240175049D01*
X94600964Y-240155446D01*
X94603844Y-240136031D01*
X94608613Y-240116992D01*
X94615225Y-240098512D01*
X94623617Y-240080770D01*
X94633707Y-240063935D01*
X94645399Y-240048170D01*
X94658580Y-240033628D01*
X94673122Y-240020447D01*
X94688887Y-240008755D01*
X94705722Y-239998665D01*
X94723464Y-239990273D01*
X94741944Y-239983661D01*
X94760983Y-239978892D01*
X94780398Y-239976012D01*
X94800001Y-239975049D01*
X96000001Y-239975049D01*
X96019604Y-239976012D01*
G37*
G36*
X93774505Y-243126253D02*
G01*
X93798774Y-243129853D01*
X93822572Y-243135814D01*
X93845672Y-243144079D01*
X93867850Y-243154569D01*
X93888894Y-243167182D01*
X93908599Y-243181796D01*
X93926778Y-243198272D01*
X93943254Y-243216451D01*
X93957868Y-243236156D01*
X93970481Y-243257200D01*
X93980971Y-243279378D01*
X93989236Y-243302478D01*
X93995197Y-243326276D01*
X93998797Y-243350545D01*
X94000001Y-243375049D01*
X94000001Y-244975049D01*
X93998797Y-244999553D01*
X93995197Y-245023822D01*
X93989236Y-245047620D01*
X93980971Y-245070720D01*
X93970481Y-245092898D01*
X93957868Y-245113942D01*
X93943254Y-245133647D01*
X93926778Y-245151826D01*
X93908599Y-245168302D01*
X93888894Y-245182916D01*
X93867850Y-245195529D01*
X93845672Y-245206019D01*
X93822572Y-245214284D01*
X93798774Y-245220245D01*
X93774505Y-245223845D01*
X93750001Y-245225049D01*
X91250001Y-245225049D01*
X91225497Y-245223845D01*
X91201228Y-245220245D01*
X91177430Y-245214284D01*
X91154330Y-245206019D01*
X91132152Y-245195529D01*
X91111108Y-245182916D01*
X91091403Y-245168302D01*
X91073224Y-245151826D01*
X91056748Y-245133647D01*
X91042134Y-245113942D01*
X91029521Y-245092898D01*
X91019031Y-245070720D01*
X91010766Y-245047620D01*
X91004805Y-245023822D01*
X91001205Y-244999553D01*
X91000001Y-244975049D01*
X91000001Y-243375049D01*
X91001205Y-243350545D01*
X91004805Y-243326276D01*
X91010766Y-243302478D01*
X91019031Y-243279378D01*
X91029521Y-243257200D01*
X91042134Y-243236156D01*
X91056748Y-243216451D01*
X91073224Y-243198272D01*
X91091403Y-243181796D01*
X91111108Y-243167182D01*
X91132152Y-243154569D01*
X91154330Y-243144079D01*
X91177430Y-243135814D01*
X91201228Y-243129853D01*
X91225497Y-243126253D01*
X91250001Y-243125049D01*
X93750001Y-243125049D01*
X93774505Y-243126253D01*
G37*
G36*
X93774505Y-236776253D02*
G01*
X93798774Y-236779853D01*
X93822572Y-236785814D01*
X93845672Y-236794079D01*
X93867850Y-236804569D01*
X93888894Y-236817182D01*
X93908599Y-236831796D01*
X93926778Y-236848272D01*
X93943254Y-236866451D01*
X93957868Y-236886156D01*
X93970481Y-236907200D01*
X93980971Y-236929378D01*
X93989236Y-236952478D01*
X93995197Y-236976276D01*
X93998797Y-237000545D01*
X94000001Y-237025049D01*
X94000001Y-238625049D01*
X93998797Y-238649553D01*
X93995197Y-238673822D01*
X93989236Y-238697620D01*
X93980971Y-238720720D01*
X93970481Y-238742898D01*
X93957868Y-238763942D01*
X93943254Y-238783647D01*
X93926778Y-238801826D01*
X93908599Y-238818302D01*
X93888894Y-238832916D01*
X93867850Y-238845529D01*
X93845672Y-238856019D01*
X93822572Y-238864284D01*
X93798774Y-238870245D01*
X93774505Y-238873845D01*
X93750001Y-238875049D01*
X91250001Y-238875049D01*
X91225497Y-238873845D01*
X91201228Y-238870245D01*
X91177430Y-238864284D01*
X91154330Y-238856019D01*
X91132152Y-238845529D01*
X91111108Y-238832916D01*
X91091403Y-238818302D01*
X91073224Y-238801826D01*
X91056748Y-238783647D01*
X91042134Y-238763942D01*
X91029521Y-238742898D01*
X91019031Y-238720720D01*
X91010766Y-238697620D01*
X91004805Y-238673822D01*
X91001205Y-238649553D01*
X91000001Y-238625049D01*
X91000001Y-237025049D01*
X91001205Y-237000545D01*
X91004805Y-236976276D01*
X91010766Y-236952478D01*
X91019031Y-236929378D01*
X91029521Y-236907200D01*
X91042134Y-236886156D01*
X91056748Y-236866451D01*
X91073224Y-236848272D01*
X91091403Y-236831796D01*
X91111108Y-236817182D01*
X91132152Y-236804569D01*
X91154330Y-236794079D01*
X91177430Y-236785814D01*
X91201228Y-236779853D01*
X91225497Y-236776253D01*
X91250001Y-236775049D01*
X93750001Y-236775049D01*
X93774505Y-236776253D01*
G37*
%TD*%
%TO.C,J3*%
G36*
X105219604Y-239976012D02*
G01*
X105239019Y-239978892D01*
X105258058Y-239983661D01*
X105276538Y-239990273D01*
X105294280Y-239998665D01*
X105311115Y-240008755D01*
X105326880Y-240020447D01*
X105341422Y-240033628D01*
X105354603Y-240048170D01*
X105366295Y-240063935D01*
X105376385Y-240080770D01*
X105384777Y-240098512D01*
X105391389Y-240116992D01*
X105396158Y-240136031D01*
X105399038Y-240155446D01*
X105400001Y-240175049D01*
X105400001Y-240575049D01*
X105399038Y-240594652D01*
X105396158Y-240614067D01*
X105391389Y-240633106D01*
X105384777Y-240651586D01*
X105376385Y-240669328D01*
X105366295Y-240686163D01*
X105354603Y-240701928D01*
X105341422Y-240716470D01*
X105326880Y-240729651D01*
X105311115Y-240741343D01*
X105294280Y-240751433D01*
X105276538Y-240759825D01*
X105258058Y-240766437D01*
X105239019Y-240771206D01*
X105219604Y-240774086D01*
X105200001Y-240775049D01*
X104000001Y-240775049D01*
X103980398Y-240774086D01*
X103960983Y-240771206D01*
X103941944Y-240766437D01*
X103923464Y-240759825D01*
X103905722Y-240751433D01*
X103888887Y-240741343D01*
X103873122Y-240729651D01*
X103858580Y-240716470D01*
X103845399Y-240701928D01*
X103833707Y-240686163D01*
X103823617Y-240669328D01*
X103815225Y-240651586D01*
X103808613Y-240633106D01*
X103803844Y-240614067D01*
X103800964Y-240594652D01*
X103800001Y-240575049D01*
X103800001Y-240175049D01*
X103800964Y-240155446D01*
X103803844Y-240136031D01*
X103808613Y-240116992D01*
X103815225Y-240098512D01*
X103823617Y-240080770D01*
X103833707Y-240063935D01*
X103845399Y-240048170D01*
X103858580Y-240033628D01*
X103873122Y-240020447D01*
X103888887Y-240008755D01*
X103905722Y-239998665D01*
X103923464Y-239990273D01*
X103941944Y-239983661D01*
X103960983Y-239978892D01*
X103980398Y-239976012D01*
X104000001Y-239975049D01*
X105200001Y-239975049D01*
X105219604Y-239976012D01*
G37*
G36*
X105219604Y-241226012D02*
G01*
X105239019Y-241228892D01*
X105258058Y-241233661D01*
X105276538Y-241240273D01*
X105294280Y-241248665D01*
X105311115Y-241258755D01*
X105326880Y-241270447D01*
X105341422Y-241283628D01*
X105354603Y-241298170D01*
X105366295Y-241313935D01*
X105376385Y-241330770D01*
X105384777Y-241348512D01*
X105391389Y-241366992D01*
X105396158Y-241386031D01*
X105399038Y-241405446D01*
X105400001Y-241425049D01*
X105400001Y-241825049D01*
X105399038Y-241844652D01*
X105396158Y-241864067D01*
X105391389Y-241883106D01*
X105384777Y-241901586D01*
X105376385Y-241919328D01*
X105366295Y-241936163D01*
X105354603Y-241951928D01*
X105341422Y-241966470D01*
X105326880Y-241979651D01*
X105311115Y-241991343D01*
X105294280Y-242001433D01*
X105276538Y-242009825D01*
X105258058Y-242016437D01*
X105239019Y-242021206D01*
X105219604Y-242024086D01*
X105200001Y-242025049D01*
X104000001Y-242025049D01*
X103980398Y-242024086D01*
X103960983Y-242021206D01*
X103941944Y-242016437D01*
X103923464Y-242009825D01*
X103905722Y-242001433D01*
X103888887Y-241991343D01*
X103873122Y-241979651D01*
X103858580Y-241966470D01*
X103845399Y-241951928D01*
X103833707Y-241936163D01*
X103823617Y-241919328D01*
X103815225Y-241901586D01*
X103808613Y-241883106D01*
X103803844Y-241864067D01*
X103800964Y-241844652D01*
X103800001Y-241825049D01*
X103800001Y-241425049D01*
X103800964Y-241405446D01*
X103803844Y-241386031D01*
X103808613Y-241366992D01*
X103815225Y-241348512D01*
X103823617Y-241330770D01*
X103833707Y-241313935D01*
X103845399Y-241298170D01*
X103858580Y-241283628D01*
X103873122Y-241270447D01*
X103888887Y-241258755D01*
X103905722Y-241248665D01*
X103923464Y-241240273D01*
X103941944Y-241233661D01*
X103960983Y-241228892D01*
X103980398Y-241226012D01*
X104000001Y-241225049D01*
X105200001Y-241225049D01*
X105219604Y-241226012D01*
G37*
G36*
X108774505Y-236776253D02*
G01*
X108798774Y-236779853D01*
X108822572Y-236785814D01*
X108845672Y-236794079D01*
X108867850Y-236804569D01*
X108888894Y-236817182D01*
X108908599Y-236831796D01*
X108926778Y-236848272D01*
X108943254Y-236866451D01*
X108957868Y-236886156D01*
X108970481Y-236907200D01*
X108980971Y-236929378D01*
X108989236Y-236952478D01*
X108995197Y-236976276D01*
X108998797Y-237000545D01*
X109000001Y-237025049D01*
X109000001Y-238625049D01*
X108998797Y-238649553D01*
X108995197Y-238673822D01*
X108989236Y-238697620D01*
X108980971Y-238720720D01*
X108970481Y-238742898D01*
X108957868Y-238763942D01*
X108943254Y-238783647D01*
X108926778Y-238801826D01*
X108908599Y-238818302D01*
X108888894Y-238832916D01*
X108867850Y-238845529D01*
X108845672Y-238856019D01*
X108822572Y-238864284D01*
X108798774Y-238870245D01*
X108774505Y-238873845D01*
X108750001Y-238875049D01*
X106250001Y-238875049D01*
X106225497Y-238873845D01*
X106201228Y-238870245D01*
X106177430Y-238864284D01*
X106154330Y-238856019D01*
X106132152Y-238845529D01*
X106111108Y-238832916D01*
X106091403Y-238818302D01*
X106073224Y-238801826D01*
X106056748Y-238783647D01*
X106042134Y-238763942D01*
X106029521Y-238742898D01*
X106019031Y-238720720D01*
X106010766Y-238697620D01*
X106004805Y-238673822D01*
X106001205Y-238649553D01*
X106000001Y-238625049D01*
X106000001Y-237025049D01*
X106001205Y-237000545D01*
X106004805Y-236976276D01*
X106010766Y-236952478D01*
X106019031Y-236929378D01*
X106029521Y-236907200D01*
X106042134Y-236886156D01*
X106056748Y-236866451D01*
X106073224Y-236848272D01*
X106091403Y-236831796D01*
X106111108Y-236817182D01*
X106132152Y-236804569D01*
X106154330Y-236794079D01*
X106177430Y-236785814D01*
X106201228Y-236779853D01*
X106225497Y-236776253D01*
X106250001Y-236775049D01*
X108750001Y-236775049D01*
X108774505Y-236776253D01*
G37*
G36*
X108774505Y-243126253D02*
G01*
X108798774Y-243129853D01*
X108822572Y-243135814D01*
X108845672Y-243144079D01*
X108867850Y-243154569D01*
X108888894Y-243167182D01*
X108908599Y-243181796D01*
X108926778Y-243198272D01*
X108943254Y-243216451D01*
X108957868Y-243236156D01*
X108970481Y-243257200D01*
X108980971Y-243279378D01*
X108989236Y-243302478D01*
X108995197Y-243326276D01*
X108998797Y-243350545D01*
X109000001Y-243375049D01*
X109000001Y-244975049D01*
X108998797Y-244999553D01*
X108995197Y-245023822D01*
X108989236Y-245047620D01*
X108980971Y-245070720D01*
X108970481Y-245092898D01*
X108957868Y-245113942D01*
X108943254Y-245133647D01*
X108926778Y-245151826D01*
X108908599Y-245168302D01*
X108888894Y-245182916D01*
X108867850Y-245195529D01*
X108845672Y-245206019D01*
X108822572Y-245214284D01*
X108798774Y-245220245D01*
X108774505Y-245223845D01*
X108750001Y-245225049D01*
X106250001Y-245225049D01*
X106225497Y-245223845D01*
X106201228Y-245220245D01*
X106177430Y-245214284D01*
X106154330Y-245206019D01*
X106132152Y-245195529D01*
X106111108Y-245182916D01*
X106091403Y-245168302D01*
X106073224Y-245151826D01*
X106056748Y-245133647D01*
X106042134Y-245113942D01*
X106029521Y-245092898D01*
X106019031Y-245070720D01*
X106010766Y-245047620D01*
X106004805Y-245023822D01*
X106001205Y-244999553D01*
X106000001Y-244975049D01*
X106000001Y-243375049D01*
X106001205Y-243350545D01*
X106004805Y-243326276D01*
X106010766Y-243302478D01*
X106019031Y-243279378D01*
X106029521Y-243257200D01*
X106042134Y-243236156D01*
X106056748Y-243216451D01*
X106073224Y-243198272D01*
X106091403Y-243181796D01*
X106111108Y-243167182D01*
X106132152Y-243154569D01*
X106154330Y-243144079D01*
X106177430Y-243135814D01*
X106201228Y-243129853D01*
X106225497Y-243126253D01*
X106250001Y-243125049D01*
X108750001Y-243125049D01*
X108774505Y-243126253D01*
G37*
%TD*%
D12*
%TO.C,J4*%
X73900001Y-247700049D03*
X74900001Y-247700049D03*
X75900001Y-247700049D03*
X76900001Y-247700049D03*
X77900001Y-247700049D03*
X78900001Y-247700049D03*
X80900001Y-247700049D03*
X79900001Y-247700049D03*
%TD*%
D10*
%TO.C,J1*%
X200480009Y-182960037D03*
X205520009Y-182960037D03*
X200480009Y-185500037D03*
X205520009Y-185500037D03*
X200480009Y-188040037D03*
X205520009Y-188040037D03*
%TD*%
D11*
%TO.C,J2*%
G36*
X199019612Y-198226000D02*
G01*
X199039027Y-198228880D01*
X199058066Y-198233649D01*
X199076546Y-198240261D01*
X199094288Y-198248653D01*
X199111123Y-198258743D01*
X199126888Y-198270435D01*
X199141430Y-198283616D01*
X199154611Y-198298158D01*
X199166303Y-198313923D01*
X199176393Y-198330758D01*
X199184785Y-198348500D01*
X199191397Y-198366980D01*
X199196166Y-198386019D01*
X199199046Y-198405434D01*
X199200009Y-198425037D01*
X199200009Y-198825037D01*
X199199046Y-198844640D01*
X199196166Y-198864055D01*
X199191397Y-198883094D01*
X199184785Y-198901574D01*
X199176393Y-198919316D01*
X199166303Y-198936151D01*
X199154611Y-198951916D01*
X199141430Y-198966458D01*
X199126888Y-198979639D01*
X199111123Y-198991331D01*
X199094288Y-199001421D01*
X199076546Y-199009813D01*
X199058066Y-199016425D01*
X199039027Y-199021194D01*
X199019612Y-199024074D01*
X199000009Y-199025037D01*
X197800009Y-199025037D01*
X197780406Y-199024074D01*
X197760991Y-199021194D01*
X197741952Y-199016425D01*
X197723472Y-199009813D01*
X197705730Y-199001421D01*
X197688895Y-198991331D01*
X197673130Y-198979639D01*
X197658588Y-198966458D01*
X197645407Y-198951916D01*
X197633715Y-198936151D01*
X197623625Y-198919316D01*
X197615233Y-198901574D01*
X197608621Y-198883094D01*
X197603852Y-198864055D01*
X197600972Y-198844640D01*
X197600009Y-198825037D01*
X197600009Y-198425037D01*
X197600972Y-198405434D01*
X197603852Y-198386019D01*
X197608621Y-198366980D01*
X197615233Y-198348500D01*
X197623625Y-198330758D01*
X197633715Y-198313923D01*
X197645407Y-198298158D01*
X197658588Y-198283616D01*
X197673130Y-198270435D01*
X197688895Y-198258743D01*
X197705730Y-198248653D01*
X197723472Y-198240261D01*
X197741952Y-198233649D01*
X197760991Y-198228880D01*
X197780406Y-198226000D01*
X197800009Y-198225037D01*
X199000009Y-198225037D01*
X199019612Y-198226000D01*
G37*
G36*
X199019612Y-196976000D02*
G01*
X199039027Y-196978880D01*
X199058066Y-196983649D01*
X199076546Y-196990261D01*
X199094288Y-196998653D01*
X199111123Y-197008743D01*
X199126888Y-197020435D01*
X199141430Y-197033616D01*
X199154611Y-197048158D01*
X199166303Y-197063923D01*
X199176393Y-197080758D01*
X199184785Y-197098500D01*
X199191397Y-197116980D01*
X199196166Y-197136019D01*
X199199046Y-197155434D01*
X199200009Y-197175037D01*
X199200009Y-197575037D01*
X199199046Y-197594640D01*
X199196166Y-197614055D01*
X199191397Y-197633094D01*
X199184785Y-197651574D01*
X199176393Y-197669316D01*
X199166303Y-197686151D01*
X199154611Y-197701916D01*
X199141430Y-197716458D01*
X199126888Y-197729639D01*
X199111123Y-197741331D01*
X199094288Y-197751421D01*
X199076546Y-197759813D01*
X199058066Y-197766425D01*
X199039027Y-197771194D01*
X199019612Y-197774074D01*
X199000009Y-197775037D01*
X197800009Y-197775037D01*
X197780406Y-197774074D01*
X197760991Y-197771194D01*
X197741952Y-197766425D01*
X197723472Y-197759813D01*
X197705730Y-197751421D01*
X197688895Y-197741331D01*
X197673130Y-197729639D01*
X197658588Y-197716458D01*
X197645407Y-197701916D01*
X197633715Y-197686151D01*
X197623625Y-197669316D01*
X197615233Y-197651574D01*
X197608621Y-197633094D01*
X197603852Y-197614055D01*
X197600972Y-197594640D01*
X197600009Y-197575037D01*
X197600009Y-197175037D01*
X197600972Y-197155434D01*
X197603852Y-197136019D01*
X197608621Y-197116980D01*
X197615233Y-197098500D01*
X197623625Y-197080758D01*
X197633715Y-197063923D01*
X197645407Y-197048158D01*
X197658588Y-197033616D01*
X197673130Y-197020435D01*
X197688895Y-197008743D01*
X197705730Y-196998653D01*
X197723472Y-196990261D01*
X197741952Y-196983649D01*
X197760991Y-196978880D01*
X197780406Y-196976000D01*
X197800009Y-196975037D01*
X199000009Y-196975037D01*
X199019612Y-196976000D01*
G37*
G36*
X196774513Y-200126241D02*
G01*
X196798782Y-200129841D01*
X196822580Y-200135802D01*
X196845680Y-200144067D01*
X196867858Y-200154557D01*
X196888902Y-200167170D01*
X196908607Y-200181784D01*
X196926786Y-200198260D01*
X196943262Y-200216439D01*
X196957876Y-200236144D01*
X196970489Y-200257188D01*
X196980979Y-200279366D01*
X196989244Y-200302466D01*
X196995205Y-200326264D01*
X196998805Y-200350533D01*
X197000009Y-200375037D01*
X197000009Y-201975037D01*
X196998805Y-201999541D01*
X196995205Y-202023810D01*
X196989244Y-202047608D01*
X196980979Y-202070708D01*
X196970489Y-202092886D01*
X196957876Y-202113930D01*
X196943262Y-202133635D01*
X196926786Y-202151814D01*
X196908607Y-202168290D01*
X196888902Y-202182904D01*
X196867858Y-202195517D01*
X196845680Y-202206007D01*
X196822580Y-202214272D01*
X196798782Y-202220233D01*
X196774513Y-202223833D01*
X196750009Y-202225037D01*
X194250009Y-202225037D01*
X194225505Y-202223833D01*
X194201236Y-202220233D01*
X194177438Y-202214272D01*
X194154338Y-202206007D01*
X194132160Y-202195517D01*
X194111116Y-202182904D01*
X194091411Y-202168290D01*
X194073232Y-202151814D01*
X194056756Y-202133635D01*
X194042142Y-202113930D01*
X194029529Y-202092886D01*
X194019039Y-202070708D01*
X194010774Y-202047608D01*
X194004813Y-202023810D01*
X194001213Y-201999541D01*
X194000009Y-201975037D01*
X194000009Y-200375037D01*
X194001213Y-200350533D01*
X194004813Y-200326264D01*
X194010774Y-200302466D01*
X194019039Y-200279366D01*
X194029529Y-200257188D01*
X194042142Y-200236144D01*
X194056756Y-200216439D01*
X194073232Y-200198260D01*
X194091411Y-200181784D01*
X194111116Y-200167170D01*
X194132160Y-200154557D01*
X194154338Y-200144067D01*
X194177438Y-200135802D01*
X194201236Y-200129841D01*
X194225505Y-200126241D01*
X194250009Y-200125037D01*
X196750009Y-200125037D01*
X196774513Y-200126241D01*
G37*
G36*
X196774513Y-193776241D02*
G01*
X196798782Y-193779841D01*
X196822580Y-193785802D01*
X196845680Y-193794067D01*
X196867858Y-193804557D01*
X196888902Y-193817170D01*
X196908607Y-193831784D01*
X196926786Y-193848260D01*
X196943262Y-193866439D01*
X196957876Y-193886144D01*
X196970489Y-193907188D01*
X196980979Y-193929366D01*
X196989244Y-193952466D01*
X196995205Y-193976264D01*
X196998805Y-194000533D01*
X197000009Y-194025037D01*
X197000009Y-195625037D01*
X196998805Y-195649541D01*
X196995205Y-195673810D01*
X196989244Y-195697608D01*
X196980979Y-195720708D01*
X196970489Y-195742886D01*
X196957876Y-195763930D01*
X196943262Y-195783635D01*
X196926786Y-195801814D01*
X196908607Y-195818290D01*
X196888902Y-195832904D01*
X196867858Y-195845517D01*
X196845680Y-195856007D01*
X196822580Y-195864272D01*
X196798782Y-195870233D01*
X196774513Y-195873833D01*
X196750009Y-195875037D01*
X194250009Y-195875037D01*
X194225505Y-195873833D01*
X194201236Y-195870233D01*
X194177438Y-195864272D01*
X194154338Y-195856007D01*
X194132160Y-195845517D01*
X194111116Y-195832904D01*
X194091411Y-195818290D01*
X194073232Y-195801814D01*
X194056756Y-195783635D01*
X194042142Y-195763930D01*
X194029529Y-195742886D01*
X194019039Y-195720708D01*
X194010774Y-195697608D01*
X194004813Y-195673810D01*
X194001213Y-195649541D01*
X194000009Y-195625037D01*
X194000009Y-194025037D01*
X194001213Y-194000533D01*
X194004813Y-193976264D01*
X194010774Y-193952466D01*
X194019039Y-193929366D01*
X194029529Y-193907188D01*
X194042142Y-193886144D01*
X194056756Y-193866439D01*
X194073232Y-193848260D01*
X194091411Y-193831784D01*
X194111116Y-193817170D01*
X194132160Y-193804557D01*
X194154338Y-193794067D01*
X194177438Y-193785802D01*
X194201236Y-193779841D01*
X194225505Y-193776241D01*
X194250009Y-193775037D01*
X196750009Y-193775037D01*
X196774513Y-193776241D01*
G37*
%TD*%
%TO.C,J3*%
G36*
X208219612Y-196976000D02*
G01*
X208239027Y-196978880D01*
X208258066Y-196983649D01*
X208276546Y-196990261D01*
X208294288Y-196998653D01*
X208311123Y-197008743D01*
X208326888Y-197020435D01*
X208341430Y-197033616D01*
X208354611Y-197048158D01*
X208366303Y-197063923D01*
X208376393Y-197080758D01*
X208384785Y-197098500D01*
X208391397Y-197116980D01*
X208396166Y-197136019D01*
X208399046Y-197155434D01*
X208400009Y-197175037D01*
X208400009Y-197575037D01*
X208399046Y-197594640D01*
X208396166Y-197614055D01*
X208391397Y-197633094D01*
X208384785Y-197651574D01*
X208376393Y-197669316D01*
X208366303Y-197686151D01*
X208354611Y-197701916D01*
X208341430Y-197716458D01*
X208326888Y-197729639D01*
X208311123Y-197741331D01*
X208294288Y-197751421D01*
X208276546Y-197759813D01*
X208258066Y-197766425D01*
X208239027Y-197771194D01*
X208219612Y-197774074D01*
X208200009Y-197775037D01*
X207000009Y-197775037D01*
X206980406Y-197774074D01*
X206960991Y-197771194D01*
X206941952Y-197766425D01*
X206923472Y-197759813D01*
X206905730Y-197751421D01*
X206888895Y-197741331D01*
X206873130Y-197729639D01*
X206858588Y-197716458D01*
X206845407Y-197701916D01*
X206833715Y-197686151D01*
X206823625Y-197669316D01*
X206815233Y-197651574D01*
X206808621Y-197633094D01*
X206803852Y-197614055D01*
X206800972Y-197594640D01*
X206800009Y-197575037D01*
X206800009Y-197175037D01*
X206800972Y-197155434D01*
X206803852Y-197136019D01*
X206808621Y-197116980D01*
X206815233Y-197098500D01*
X206823625Y-197080758D01*
X206833715Y-197063923D01*
X206845407Y-197048158D01*
X206858588Y-197033616D01*
X206873130Y-197020435D01*
X206888895Y-197008743D01*
X206905730Y-196998653D01*
X206923472Y-196990261D01*
X206941952Y-196983649D01*
X206960991Y-196978880D01*
X206980406Y-196976000D01*
X207000009Y-196975037D01*
X208200009Y-196975037D01*
X208219612Y-196976000D01*
G37*
G36*
X208219612Y-198226000D02*
G01*
X208239027Y-198228880D01*
X208258066Y-198233649D01*
X208276546Y-198240261D01*
X208294288Y-198248653D01*
X208311123Y-198258743D01*
X208326888Y-198270435D01*
X208341430Y-198283616D01*
X208354611Y-198298158D01*
X208366303Y-198313923D01*
X208376393Y-198330758D01*
X208384785Y-198348500D01*
X208391397Y-198366980D01*
X208396166Y-198386019D01*
X208399046Y-198405434D01*
X208400009Y-198425037D01*
X208400009Y-198825037D01*
X208399046Y-198844640D01*
X208396166Y-198864055D01*
X208391397Y-198883094D01*
X208384785Y-198901574D01*
X208376393Y-198919316D01*
X208366303Y-198936151D01*
X208354611Y-198951916D01*
X208341430Y-198966458D01*
X208326888Y-198979639D01*
X208311123Y-198991331D01*
X208294288Y-199001421D01*
X208276546Y-199009813D01*
X208258066Y-199016425D01*
X208239027Y-199021194D01*
X208219612Y-199024074D01*
X208200009Y-199025037D01*
X207000009Y-199025037D01*
X206980406Y-199024074D01*
X206960991Y-199021194D01*
X206941952Y-199016425D01*
X206923472Y-199009813D01*
X206905730Y-199001421D01*
X206888895Y-198991331D01*
X206873130Y-198979639D01*
X206858588Y-198966458D01*
X206845407Y-198951916D01*
X206833715Y-198936151D01*
X206823625Y-198919316D01*
X206815233Y-198901574D01*
X206808621Y-198883094D01*
X206803852Y-198864055D01*
X206800972Y-198844640D01*
X206800009Y-198825037D01*
X206800009Y-198425037D01*
X206800972Y-198405434D01*
X206803852Y-198386019D01*
X206808621Y-198366980D01*
X206815233Y-198348500D01*
X206823625Y-198330758D01*
X206833715Y-198313923D01*
X206845407Y-198298158D01*
X206858588Y-198283616D01*
X206873130Y-198270435D01*
X206888895Y-198258743D01*
X206905730Y-198248653D01*
X206923472Y-198240261D01*
X206941952Y-198233649D01*
X206960991Y-198228880D01*
X206980406Y-198226000D01*
X207000009Y-198225037D01*
X208200009Y-198225037D01*
X208219612Y-198226000D01*
G37*
G36*
X211774513Y-193776241D02*
G01*
X211798782Y-193779841D01*
X211822580Y-193785802D01*
X211845680Y-193794067D01*
X211867858Y-193804557D01*
X211888902Y-193817170D01*
X211908607Y-193831784D01*
X211926786Y-193848260D01*
X211943262Y-193866439D01*
X211957876Y-193886144D01*
X211970489Y-193907188D01*
X211980979Y-193929366D01*
X211989244Y-193952466D01*
X211995205Y-193976264D01*
X211998805Y-194000533D01*
X212000009Y-194025037D01*
X212000009Y-195625037D01*
X211998805Y-195649541D01*
X211995205Y-195673810D01*
X211989244Y-195697608D01*
X211980979Y-195720708D01*
X211970489Y-195742886D01*
X211957876Y-195763930D01*
X211943262Y-195783635D01*
X211926786Y-195801814D01*
X211908607Y-195818290D01*
X211888902Y-195832904D01*
X211867858Y-195845517D01*
X211845680Y-195856007D01*
X211822580Y-195864272D01*
X211798782Y-195870233D01*
X211774513Y-195873833D01*
X211750009Y-195875037D01*
X209250009Y-195875037D01*
X209225505Y-195873833D01*
X209201236Y-195870233D01*
X209177438Y-195864272D01*
X209154338Y-195856007D01*
X209132160Y-195845517D01*
X209111116Y-195832904D01*
X209091411Y-195818290D01*
X209073232Y-195801814D01*
X209056756Y-195783635D01*
X209042142Y-195763930D01*
X209029529Y-195742886D01*
X209019039Y-195720708D01*
X209010774Y-195697608D01*
X209004813Y-195673810D01*
X209001213Y-195649541D01*
X209000009Y-195625037D01*
X209000009Y-194025037D01*
X209001213Y-194000533D01*
X209004813Y-193976264D01*
X209010774Y-193952466D01*
X209019039Y-193929366D01*
X209029529Y-193907188D01*
X209042142Y-193886144D01*
X209056756Y-193866439D01*
X209073232Y-193848260D01*
X209091411Y-193831784D01*
X209111116Y-193817170D01*
X209132160Y-193804557D01*
X209154338Y-193794067D01*
X209177438Y-193785802D01*
X209201236Y-193779841D01*
X209225505Y-193776241D01*
X209250009Y-193775037D01*
X211750009Y-193775037D01*
X211774513Y-193776241D01*
G37*
G36*
X211774513Y-200126241D02*
G01*
X211798782Y-200129841D01*
X211822580Y-200135802D01*
X211845680Y-200144067D01*
X211867858Y-200154557D01*
X211888902Y-200167170D01*
X211908607Y-200181784D01*
X211926786Y-200198260D01*
X211943262Y-200216439D01*
X211957876Y-200236144D01*
X211970489Y-200257188D01*
X211980979Y-200279366D01*
X211989244Y-200302466D01*
X211995205Y-200326264D01*
X211998805Y-200350533D01*
X212000009Y-200375037D01*
X212000009Y-201975037D01*
X211998805Y-201999541D01*
X211995205Y-202023810D01*
X211989244Y-202047608D01*
X211980979Y-202070708D01*
X211970489Y-202092886D01*
X211957876Y-202113930D01*
X211943262Y-202133635D01*
X211926786Y-202151814D01*
X211908607Y-202168290D01*
X211888902Y-202182904D01*
X211867858Y-202195517D01*
X211845680Y-202206007D01*
X211822580Y-202214272D01*
X211798782Y-202220233D01*
X211774513Y-202223833D01*
X211750009Y-202225037D01*
X209250009Y-202225037D01*
X209225505Y-202223833D01*
X209201236Y-202220233D01*
X209177438Y-202214272D01*
X209154338Y-202206007D01*
X209132160Y-202195517D01*
X209111116Y-202182904D01*
X209091411Y-202168290D01*
X209073232Y-202151814D01*
X209056756Y-202133635D01*
X209042142Y-202113930D01*
X209029529Y-202092886D01*
X209019039Y-202070708D01*
X209010774Y-202047608D01*
X209004813Y-202023810D01*
X209001213Y-201999541D01*
X209000009Y-201975037D01*
X209000009Y-200375037D01*
X209001213Y-200350533D01*
X209004813Y-200326264D01*
X209010774Y-200302466D01*
X209019039Y-200279366D01*
X209029529Y-200257188D01*
X209042142Y-200236144D01*
X209056756Y-200216439D01*
X209073232Y-200198260D01*
X209091411Y-200181784D01*
X209111116Y-200167170D01*
X209132160Y-200154557D01*
X209154338Y-200144067D01*
X209177438Y-200135802D01*
X209201236Y-200129841D01*
X209225505Y-200126241D01*
X209250009Y-200125037D01*
X211750009Y-200125037D01*
X211774513Y-200126241D01*
G37*
%TD*%
D12*
%TO.C,J4*%
X176900009Y-204700037D03*
X177900009Y-204700037D03*
X178900009Y-204700037D03*
X179900009Y-204700037D03*
X180900009Y-204700037D03*
X181900009Y-204700037D03*
X183900009Y-204700037D03*
X182900009Y-204700037D03*
%TD*%
D10*
%TO.C,J1*%
X97480001Y-182960037D03*
X102520001Y-182960037D03*
X97480001Y-185500037D03*
X102520001Y-185500037D03*
X97480001Y-188040037D03*
X102520001Y-188040037D03*
%TD*%
D11*
%TO.C,J2*%
G36*
X96019604Y-198226000D02*
G01*
X96039019Y-198228880D01*
X96058058Y-198233649D01*
X96076538Y-198240261D01*
X96094280Y-198248653D01*
X96111115Y-198258743D01*
X96126880Y-198270435D01*
X96141422Y-198283616D01*
X96154603Y-198298158D01*
X96166295Y-198313923D01*
X96176385Y-198330758D01*
X96184777Y-198348500D01*
X96191389Y-198366980D01*
X96196158Y-198386019D01*
X96199038Y-198405434D01*
X96200001Y-198425037D01*
X96200001Y-198825037D01*
X96199038Y-198844640D01*
X96196158Y-198864055D01*
X96191389Y-198883094D01*
X96184777Y-198901574D01*
X96176385Y-198919316D01*
X96166295Y-198936151D01*
X96154603Y-198951916D01*
X96141422Y-198966458D01*
X96126880Y-198979639D01*
X96111115Y-198991331D01*
X96094280Y-199001421D01*
X96076538Y-199009813D01*
X96058058Y-199016425D01*
X96039019Y-199021194D01*
X96019604Y-199024074D01*
X96000001Y-199025037D01*
X94800001Y-199025037D01*
X94780398Y-199024074D01*
X94760983Y-199021194D01*
X94741944Y-199016425D01*
X94723464Y-199009813D01*
X94705722Y-199001421D01*
X94688887Y-198991331D01*
X94673122Y-198979639D01*
X94658580Y-198966458D01*
X94645399Y-198951916D01*
X94633707Y-198936151D01*
X94623617Y-198919316D01*
X94615225Y-198901574D01*
X94608613Y-198883094D01*
X94603844Y-198864055D01*
X94600964Y-198844640D01*
X94600001Y-198825037D01*
X94600001Y-198425037D01*
X94600964Y-198405434D01*
X94603844Y-198386019D01*
X94608613Y-198366980D01*
X94615225Y-198348500D01*
X94623617Y-198330758D01*
X94633707Y-198313923D01*
X94645399Y-198298158D01*
X94658580Y-198283616D01*
X94673122Y-198270435D01*
X94688887Y-198258743D01*
X94705722Y-198248653D01*
X94723464Y-198240261D01*
X94741944Y-198233649D01*
X94760983Y-198228880D01*
X94780398Y-198226000D01*
X94800001Y-198225037D01*
X96000001Y-198225037D01*
X96019604Y-198226000D01*
G37*
G36*
X96019604Y-196976000D02*
G01*
X96039019Y-196978880D01*
X96058058Y-196983649D01*
X96076538Y-196990261D01*
X96094280Y-196998653D01*
X96111115Y-197008743D01*
X96126880Y-197020435D01*
X96141422Y-197033616D01*
X96154603Y-197048158D01*
X96166295Y-197063923D01*
X96176385Y-197080758D01*
X96184777Y-197098500D01*
X96191389Y-197116980D01*
X96196158Y-197136019D01*
X96199038Y-197155434D01*
X96200001Y-197175037D01*
X96200001Y-197575037D01*
X96199038Y-197594640D01*
X96196158Y-197614055D01*
X96191389Y-197633094D01*
X96184777Y-197651574D01*
X96176385Y-197669316D01*
X96166295Y-197686151D01*
X96154603Y-197701916D01*
X96141422Y-197716458D01*
X96126880Y-197729639D01*
X96111115Y-197741331D01*
X96094280Y-197751421D01*
X96076538Y-197759813D01*
X96058058Y-197766425D01*
X96039019Y-197771194D01*
X96019604Y-197774074D01*
X96000001Y-197775037D01*
X94800001Y-197775037D01*
X94780398Y-197774074D01*
X94760983Y-197771194D01*
X94741944Y-197766425D01*
X94723464Y-197759813D01*
X94705722Y-197751421D01*
X94688887Y-197741331D01*
X94673122Y-197729639D01*
X94658580Y-197716458D01*
X94645399Y-197701916D01*
X94633707Y-197686151D01*
X94623617Y-197669316D01*
X94615225Y-197651574D01*
X94608613Y-197633094D01*
X94603844Y-197614055D01*
X94600964Y-197594640D01*
X94600001Y-197575037D01*
X94600001Y-197175037D01*
X94600964Y-197155434D01*
X94603844Y-197136019D01*
X94608613Y-197116980D01*
X94615225Y-197098500D01*
X94623617Y-197080758D01*
X94633707Y-197063923D01*
X94645399Y-197048158D01*
X94658580Y-197033616D01*
X94673122Y-197020435D01*
X94688887Y-197008743D01*
X94705722Y-196998653D01*
X94723464Y-196990261D01*
X94741944Y-196983649D01*
X94760983Y-196978880D01*
X94780398Y-196976000D01*
X94800001Y-196975037D01*
X96000001Y-196975037D01*
X96019604Y-196976000D01*
G37*
G36*
X93774505Y-200126241D02*
G01*
X93798774Y-200129841D01*
X93822572Y-200135802D01*
X93845672Y-200144067D01*
X93867850Y-200154557D01*
X93888894Y-200167170D01*
X93908599Y-200181784D01*
X93926778Y-200198260D01*
X93943254Y-200216439D01*
X93957868Y-200236144D01*
X93970481Y-200257188D01*
X93980971Y-200279366D01*
X93989236Y-200302466D01*
X93995197Y-200326264D01*
X93998797Y-200350533D01*
X94000001Y-200375037D01*
X94000001Y-201975037D01*
X93998797Y-201999541D01*
X93995197Y-202023810D01*
X93989236Y-202047608D01*
X93980971Y-202070708D01*
X93970481Y-202092886D01*
X93957868Y-202113930D01*
X93943254Y-202133635D01*
X93926778Y-202151814D01*
X93908599Y-202168290D01*
X93888894Y-202182904D01*
X93867850Y-202195517D01*
X93845672Y-202206007D01*
X93822572Y-202214272D01*
X93798774Y-202220233D01*
X93774505Y-202223833D01*
X93750001Y-202225037D01*
X91250001Y-202225037D01*
X91225497Y-202223833D01*
X91201228Y-202220233D01*
X91177430Y-202214272D01*
X91154330Y-202206007D01*
X91132152Y-202195517D01*
X91111108Y-202182904D01*
X91091403Y-202168290D01*
X91073224Y-202151814D01*
X91056748Y-202133635D01*
X91042134Y-202113930D01*
X91029521Y-202092886D01*
X91019031Y-202070708D01*
X91010766Y-202047608D01*
X91004805Y-202023810D01*
X91001205Y-201999541D01*
X91000001Y-201975037D01*
X91000001Y-200375037D01*
X91001205Y-200350533D01*
X91004805Y-200326264D01*
X91010766Y-200302466D01*
X91019031Y-200279366D01*
X91029521Y-200257188D01*
X91042134Y-200236144D01*
X91056748Y-200216439D01*
X91073224Y-200198260D01*
X91091403Y-200181784D01*
X91111108Y-200167170D01*
X91132152Y-200154557D01*
X91154330Y-200144067D01*
X91177430Y-200135802D01*
X91201228Y-200129841D01*
X91225497Y-200126241D01*
X91250001Y-200125037D01*
X93750001Y-200125037D01*
X93774505Y-200126241D01*
G37*
G36*
X93774505Y-193776241D02*
G01*
X93798774Y-193779841D01*
X93822572Y-193785802D01*
X93845672Y-193794067D01*
X93867850Y-193804557D01*
X93888894Y-193817170D01*
X93908599Y-193831784D01*
X93926778Y-193848260D01*
X93943254Y-193866439D01*
X93957868Y-193886144D01*
X93970481Y-193907188D01*
X93980971Y-193929366D01*
X93989236Y-193952466D01*
X93995197Y-193976264D01*
X93998797Y-194000533D01*
X94000001Y-194025037D01*
X94000001Y-195625037D01*
X93998797Y-195649541D01*
X93995197Y-195673810D01*
X93989236Y-195697608D01*
X93980971Y-195720708D01*
X93970481Y-195742886D01*
X93957868Y-195763930D01*
X93943254Y-195783635D01*
X93926778Y-195801814D01*
X93908599Y-195818290D01*
X93888894Y-195832904D01*
X93867850Y-195845517D01*
X93845672Y-195856007D01*
X93822572Y-195864272D01*
X93798774Y-195870233D01*
X93774505Y-195873833D01*
X93750001Y-195875037D01*
X91250001Y-195875037D01*
X91225497Y-195873833D01*
X91201228Y-195870233D01*
X91177430Y-195864272D01*
X91154330Y-195856007D01*
X91132152Y-195845517D01*
X91111108Y-195832904D01*
X91091403Y-195818290D01*
X91073224Y-195801814D01*
X91056748Y-195783635D01*
X91042134Y-195763930D01*
X91029521Y-195742886D01*
X91019031Y-195720708D01*
X91010766Y-195697608D01*
X91004805Y-195673810D01*
X91001205Y-195649541D01*
X91000001Y-195625037D01*
X91000001Y-194025037D01*
X91001205Y-194000533D01*
X91004805Y-193976264D01*
X91010766Y-193952466D01*
X91019031Y-193929366D01*
X91029521Y-193907188D01*
X91042134Y-193886144D01*
X91056748Y-193866439D01*
X91073224Y-193848260D01*
X91091403Y-193831784D01*
X91111108Y-193817170D01*
X91132152Y-193804557D01*
X91154330Y-193794067D01*
X91177430Y-193785802D01*
X91201228Y-193779841D01*
X91225497Y-193776241D01*
X91250001Y-193775037D01*
X93750001Y-193775037D01*
X93774505Y-193776241D01*
G37*
%TD*%
%TO.C,J3*%
G36*
X105219604Y-196976000D02*
G01*
X105239019Y-196978880D01*
X105258058Y-196983649D01*
X105276538Y-196990261D01*
X105294280Y-196998653D01*
X105311115Y-197008743D01*
X105326880Y-197020435D01*
X105341422Y-197033616D01*
X105354603Y-197048158D01*
X105366295Y-197063923D01*
X105376385Y-197080758D01*
X105384777Y-197098500D01*
X105391389Y-197116980D01*
X105396158Y-197136019D01*
X105399038Y-197155434D01*
X105400001Y-197175037D01*
X105400001Y-197575037D01*
X105399038Y-197594640D01*
X105396158Y-197614055D01*
X105391389Y-197633094D01*
X105384777Y-197651574D01*
X105376385Y-197669316D01*
X105366295Y-197686151D01*
X105354603Y-197701916D01*
X105341422Y-197716458D01*
X105326880Y-197729639D01*
X105311115Y-197741331D01*
X105294280Y-197751421D01*
X105276538Y-197759813D01*
X105258058Y-197766425D01*
X105239019Y-197771194D01*
X105219604Y-197774074D01*
X105200001Y-197775037D01*
X104000001Y-197775037D01*
X103980398Y-197774074D01*
X103960983Y-197771194D01*
X103941944Y-197766425D01*
X103923464Y-197759813D01*
X103905722Y-197751421D01*
X103888887Y-197741331D01*
X103873122Y-197729639D01*
X103858580Y-197716458D01*
X103845399Y-197701916D01*
X103833707Y-197686151D01*
X103823617Y-197669316D01*
X103815225Y-197651574D01*
X103808613Y-197633094D01*
X103803844Y-197614055D01*
X103800964Y-197594640D01*
X103800001Y-197575037D01*
X103800001Y-197175037D01*
X103800964Y-197155434D01*
X103803844Y-197136019D01*
X103808613Y-197116980D01*
X103815225Y-197098500D01*
X103823617Y-197080758D01*
X103833707Y-197063923D01*
X103845399Y-197048158D01*
X103858580Y-197033616D01*
X103873122Y-197020435D01*
X103888887Y-197008743D01*
X103905722Y-196998653D01*
X103923464Y-196990261D01*
X103941944Y-196983649D01*
X103960983Y-196978880D01*
X103980398Y-196976000D01*
X104000001Y-196975037D01*
X105200001Y-196975037D01*
X105219604Y-196976000D01*
G37*
G36*
X105219604Y-198226000D02*
G01*
X105239019Y-198228880D01*
X105258058Y-198233649D01*
X105276538Y-198240261D01*
X105294280Y-198248653D01*
X105311115Y-198258743D01*
X105326880Y-198270435D01*
X105341422Y-198283616D01*
X105354603Y-198298158D01*
X105366295Y-198313923D01*
X105376385Y-198330758D01*
X105384777Y-198348500D01*
X105391389Y-198366980D01*
X105396158Y-198386019D01*
X105399038Y-198405434D01*
X105400001Y-198425037D01*
X105400001Y-198825037D01*
X105399038Y-198844640D01*
X105396158Y-198864055D01*
X105391389Y-198883094D01*
X105384777Y-198901574D01*
X105376385Y-198919316D01*
X105366295Y-198936151D01*
X105354603Y-198951916D01*
X105341422Y-198966458D01*
X105326880Y-198979639D01*
X105311115Y-198991331D01*
X105294280Y-199001421D01*
X105276538Y-199009813D01*
X105258058Y-199016425D01*
X105239019Y-199021194D01*
X105219604Y-199024074D01*
X105200001Y-199025037D01*
X104000001Y-199025037D01*
X103980398Y-199024074D01*
X103960983Y-199021194D01*
X103941944Y-199016425D01*
X103923464Y-199009813D01*
X103905722Y-199001421D01*
X103888887Y-198991331D01*
X103873122Y-198979639D01*
X103858580Y-198966458D01*
X103845399Y-198951916D01*
X103833707Y-198936151D01*
X103823617Y-198919316D01*
X103815225Y-198901574D01*
X103808613Y-198883094D01*
X103803844Y-198864055D01*
X103800964Y-198844640D01*
X103800001Y-198825037D01*
X103800001Y-198425037D01*
X103800964Y-198405434D01*
X103803844Y-198386019D01*
X103808613Y-198366980D01*
X103815225Y-198348500D01*
X103823617Y-198330758D01*
X103833707Y-198313923D01*
X103845399Y-198298158D01*
X103858580Y-198283616D01*
X103873122Y-198270435D01*
X103888887Y-198258743D01*
X103905722Y-198248653D01*
X103923464Y-198240261D01*
X103941944Y-198233649D01*
X103960983Y-198228880D01*
X103980398Y-198226000D01*
X104000001Y-198225037D01*
X105200001Y-198225037D01*
X105219604Y-198226000D01*
G37*
G36*
X108774505Y-193776241D02*
G01*
X108798774Y-193779841D01*
X108822572Y-193785802D01*
X108845672Y-193794067D01*
X108867850Y-193804557D01*
X108888894Y-193817170D01*
X108908599Y-193831784D01*
X108926778Y-193848260D01*
X108943254Y-193866439D01*
X108957868Y-193886144D01*
X108970481Y-193907188D01*
X108980971Y-193929366D01*
X108989236Y-193952466D01*
X108995197Y-193976264D01*
X108998797Y-194000533D01*
X109000001Y-194025037D01*
X109000001Y-195625037D01*
X108998797Y-195649541D01*
X108995197Y-195673810D01*
X108989236Y-195697608D01*
X108980971Y-195720708D01*
X108970481Y-195742886D01*
X108957868Y-195763930D01*
X108943254Y-195783635D01*
X108926778Y-195801814D01*
X108908599Y-195818290D01*
X108888894Y-195832904D01*
X108867850Y-195845517D01*
X108845672Y-195856007D01*
X108822572Y-195864272D01*
X108798774Y-195870233D01*
X108774505Y-195873833D01*
X108750001Y-195875037D01*
X106250001Y-195875037D01*
X106225497Y-195873833D01*
X106201228Y-195870233D01*
X106177430Y-195864272D01*
X106154330Y-195856007D01*
X106132152Y-195845517D01*
X106111108Y-195832904D01*
X106091403Y-195818290D01*
X106073224Y-195801814D01*
X106056748Y-195783635D01*
X106042134Y-195763930D01*
X106029521Y-195742886D01*
X106019031Y-195720708D01*
X106010766Y-195697608D01*
X106004805Y-195673810D01*
X106001205Y-195649541D01*
X106000001Y-195625037D01*
X106000001Y-194025037D01*
X106001205Y-194000533D01*
X106004805Y-193976264D01*
X106010766Y-193952466D01*
X106019031Y-193929366D01*
X106029521Y-193907188D01*
X106042134Y-193886144D01*
X106056748Y-193866439D01*
X106073224Y-193848260D01*
X106091403Y-193831784D01*
X106111108Y-193817170D01*
X106132152Y-193804557D01*
X106154330Y-193794067D01*
X106177430Y-193785802D01*
X106201228Y-193779841D01*
X106225497Y-193776241D01*
X106250001Y-193775037D01*
X108750001Y-193775037D01*
X108774505Y-193776241D01*
G37*
G36*
X108774505Y-200126241D02*
G01*
X108798774Y-200129841D01*
X108822572Y-200135802D01*
X108845672Y-200144067D01*
X108867850Y-200154557D01*
X108888894Y-200167170D01*
X108908599Y-200181784D01*
X108926778Y-200198260D01*
X108943254Y-200216439D01*
X108957868Y-200236144D01*
X108970481Y-200257188D01*
X108980971Y-200279366D01*
X108989236Y-200302466D01*
X108995197Y-200326264D01*
X108998797Y-200350533D01*
X109000001Y-200375037D01*
X109000001Y-201975037D01*
X108998797Y-201999541D01*
X108995197Y-202023810D01*
X108989236Y-202047608D01*
X108980971Y-202070708D01*
X108970481Y-202092886D01*
X108957868Y-202113930D01*
X108943254Y-202133635D01*
X108926778Y-202151814D01*
X108908599Y-202168290D01*
X108888894Y-202182904D01*
X108867850Y-202195517D01*
X108845672Y-202206007D01*
X108822572Y-202214272D01*
X108798774Y-202220233D01*
X108774505Y-202223833D01*
X108750001Y-202225037D01*
X106250001Y-202225037D01*
X106225497Y-202223833D01*
X106201228Y-202220233D01*
X106177430Y-202214272D01*
X106154330Y-202206007D01*
X106132152Y-202195517D01*
X106111108Y-202182904D01*
X106091403Y-202168290D01*
X106073224Y-202151814D01*
X106056748Y-202133635D01*
X106042134Y-202113930D01*
X106029521Y-202092886D01*
X106019031Y-202070708D01*
X106010766Y-202047608D01*
X106004805Y-202023810D01*
X106001205Y-201999541D01*
X106000001Y-201975037D01*
X106000001Y-200375037D01*
X106001205Y-200350533D01*
X106004805Y-200326264D01*
X106010766Y-200302466D01*
X106019031Y-200279366D01*
X106029521Y-200257188D01*
X106042134Y-200236144D01*
X106056748Y-200216439D01*
X106073224Y-200198260D01*
X106091403Y-200181784D01*
X106111108Y-200167170D01*
X106132152Y-200154557D01*
X106154330Y-200144067D01*
X106177430Y-200135802D01*
X106201228Y-200129841D01*
X106225497Y-200126241D01*
X106250001Y-200125037D01*
X108750001Y-200125037D01*
X108774505Y-200126241D01*
G37*
%TD*%
D12*
%TO.C,J4*%
X73900001Y-204700037D03*
X74900001Y-204700037D03*
X75900001Y-204700037D03*
X76900001Y-204700037D03*
X77900001Y-204700037D03*
X78900001Y-204700037D03*
X80900001Y-204700037D03*
X79900001Y-204700037D03*
%TD*%
D10*
%TO.C,J1*%
X200480009Y-139960025D03*
X205520009Y-139960025D03*
X200480009Y-142500025D03*
X205520009Y-142500025D03*
X200480009Y-145040025D03*
X205520009Y-145040025D03*
%TD*%
D11*
%TO.C,J2*%
G36*
X199019612Y-155225988D02*
G01*
X199039027Y-155228868D01*
X199058066Y-155233637D01*
X199076546Y-155240249D01*
X199094288Y-155248641D01*
X199111123Y-155258731D01*
X199126888Y-155270423D01*
X199141430Y-155283604D01*
X199154611Y-155298146D01*
X199166303Y-155313911D01*
X199176393Y-155330746D01*
X199184785Y-155348488D01*
X199191397Y-155366968D01*
X199196166Y-155386007D01*
X199199046Y-155405422D01*
X199200009Y-155425025D01*
X199200009Y-155825025D01*
X199199046Y-155844628D01*
X199196166Y-155864043D01*
X199191397Y-155883082D01*
X199184785Y-155901562D01*
X199176393Y-155919304D01*
X199166303Y-155936139D01*
X199154611Y-155951904D01*
X199141430Y-155966446D01*
X199126888Y-155979627D01*
X199111123Y-155991319D01*
X199094288Y-156001409D01*
X199076546Y-156009801D01*
X199058066Y-156016413D01*
X199039027Y-156021182D01*
X199019612Y-156024062D01*
X199000009Y-156025025D01*
X197800009Y-156025025D01*
X197780406Y-156024062D01*
X197760991Y-156021182D01*
X197741952Y-156016413D01*
X197723472Y-156009801D01*
X197705730Y-156001409D01*
X197688895Y-155991319D01*
X197673130Y-155979627D01*
X197658588Y-155966446D01*
X197645407Y-155951904D01*
X197633715Y-155936139D01*
X197623625Y-155919304D01*
X197615233Y-155901562D01*
X197608621Y-155883082D01*
X197603852Y-155864043D01*
X197600972Y-155844628D01*
X197600009Y-155825025D01*
X197600009Y-155425025D01*
X197600972Y-155405422D01*
X197603852Y-155386007D01*
X197608621Y-155366968D01*
X197615233Y-155348488D01*
X197623625Y-155330746D01*
X197633715Y-155313911D01*
X197645407Y-155298146D01*
X197658588Y-155283604D01*
X197673130Y-155270423D01*
X197688895Y-155258731D01*
X197705730Y-155248641D01*
X197723472Y-155240249D01*
X197741952Y-155233637D01*
X197760991Y-155228868D01*
X197780406Y-155225988D01*
X197800009Y-155225025D01*
X199000009Y-155225025D01*
X199019612Y-155225988D01*
G37*
G36*
X199019612Y-153975988D02*
G01*
X199039027Y-153978868D01*
X199058066Y-153983637D01*
X199076546Y-153990249D01*
X199094288Y-153998641D01*
X199111123Y-154008731D01*
X199126888Y-154020423D01*
X199141430Y-154033604D01*
X199154611Y-154048146D01*
X199166303Y-154063911D01*
X199176393Y-154080746D01*
X199184785Y-154098488D01*
X199191397Y-154116968D01*
X199196166Y-154136007D01*
X199199046Y-154155422D01*
X199200009Y-154175025D01*
X199200009Y-154575025D01*
X199199046Y-154594628D01*
X199196166Y-154614043D01*
X199191397Y-154633082D01*
X199184785Y-154651562D01*
X199176393Y-154669304D01*
X199166303Y-154686139D01*
X199154611Y-154701904D01*
X199141430Y-154716446D01*
X199126888Y-154729627D01*
X199111123Y-154741319D01*
X199094288Y-154751409D01*
X199076546Y-154759801D01*
X199058066Y-154766413D01*
X199039027Y-154771182D01*
X199019612Y-154774062D01*
X199000009Y-154775025D01*
X197800009Y-154775025D01*
X197780406Y-154774062D01*
X197760991Y-154771182D01*
X197741952Y-154766413D01*
X197723472Y-154759801D01*
X197705730Y-154751409D01*
X197688895Y-154741319D01*
X197673130Y-154729627D01*
X197658588Y-154716446D01*
X197645407Y-154701904D01*
X197633715Y-154686139D01*
X197623625Y-154669304D01*
X197615233Y-154651562D01*
X197608621Y-154633082D01*
X197603852Y-154614043D01*
X197600972Y-154594628D01*
X197600009Y-154575025D01*
X197600009Y-154175025D01*
X197600972Y-154155422D01*
X197603852Y-154136007D01*
X197608621Y-154116968D01*
X197615233Y-154098488D01*
X197623625Y-154080746D01*
X197633715Y-154063911D01*
X197645407Y-154048146D01*
X197658588Y-154033604D01*
X197673130Y-154020423D01*
X197688895Y-154008731D01*
X197705730Y-153998641D01*
X197723472Y-153990249D01*
X197741952Y-153983637D01*
X197760991Y-153978868D01*
X197780406Y-153975988D01*
X197800009Y-153975025D01*
X199000009Y-153975025D01*
X199019612Y-153975988D01*
G37*
G36*
X196774513Y-157126229D02*
G01*
X196798782Y-157129829D01*
X196822580Y-157135790D01*
X196845680Y-157144055D01*
X196867858Y-157154545D01*
X196888902Y-157167158D01*
X196908607Y-157181772D01*
X196926786Y-157198248D01*
X196943262Y-157216427D01*
X196957876Y-157236132D01*
X196970489Y-157257176D01*
X196980979Y-157279354D01*
X196989244Y-157302454D01*
X196995205Y-157326252D01*
X196998805Y-157350521D01*
X197000009Y-157375025D01*
X197000009Y-158975025D01*
X196998805Y-158999529D01*
X196995205Y-159023798D01*
X196989244Y-159047596D01*
X196980979Y-159070696D01*
X196970489Y-159092874D01*
X196957876Y-159113918D01*
X196943262Y-159133623D01*
X196926786Y-159151802D01*
X196908607Y-159168278D01*
X196888902Y-159182892D01*
X196867858Y-159195505D01*
X196845680Y-159205995D01*
X196822580Y-159214260D01*
X196798782Y-159220221D01*
X196774513Y-159223821D01*
X196750009Y-159225025D01*
X194250009Y-159225025D01*
X194225505Y-159223821D01*
X194201236Y-159220221D01*
X194177438Y-159214260D01*
X194154338Y-159205995D01*
X194132160Y-159195505D01*
X194111116Y-159182892D01*
X194091411Y-159168278D01*
X194073232Y-159151802D01*
X194056756Y-159133623D01*
X194042142Y-159113918D01*
X194029529Y-159092874D01*
X194019039Y-159070696D01*
X194010774Y-159047596D01*
X194004813Y-159023798D01*
X194001213Y-158999529D01*
X194000009Y-158975025D01*
X194000009Y-157375025D01*
X194001213Y-157350521D01*
X194004813Y-157326252D01*
X194010774Y-157302454D01*
X194019039Y-157279354D01*
X194029529Y-157257176D01*
X194042142Y-157236132D01*
X194056756Y-157216427D01*
X194073232Y-157198248D01*
X194091411Y-157181772D01*
X194111116Y-157167158D01*
X194132160Y-157154545D01*
X194154338Y-157144055D01*
X194177438Y-157135790D01*
X194201236Y-157129829D01*
X194225505Y-157126229D01*
X194250009Y-157125025D01*
X196750009Y-157125025D01*
X196774513Y-157126229D01*
G37*
G36*
X196774513Y-150776229D02*
G01*
X196798782Y-150779829D01*
X196822580Y-150785790D01*
X196845680Y-150794055D01*
X196867858Y-150804545D01*
X196888902Y-150817158D01*
X196908607Y-150831772D01*
X196926786Y-150848248D01*
X196943262Y-150866427D01*
X196957876Y-150886132D01*
X196970489Y-150907176D01*
X196980979Y-150929354D01*
X196989244Y-150952454D01*
X196995205Y-150976252D01*
X196998805Y-151000521D01*
X197000009Y-151025025D01*
X197000009Y-152625025D01*
X196998805Y-152649529D01*
X196995205Y-152673798D01*
X196989244Y-152697596D01*
X196980979Y-152720696D01*
X196970489Y-152742874D01*
X196957876Y-152763918D01*
X196943262Y-152783623D01*
X196926786Y-152801802D01*
X196908607Y-152818278D01*
X196888902Y-152832892D01*
X196867858Y-152845505D01*
X196845680Y-152855995D01*
X196822580Y-152864260D01*
X196798782Y-152870221D01*
X196774513Y-152873821D01*
X196750009Y-152875025D01*
X194250009Y-152875025D01*
X194225505Y-152873821D01*
X194201236Y-152870221D01*
X194177438Y-152864260D01*
X194154338Y-152855995D01*
X194132160Y-152845505D01*
X194111116Y-152832892D01*
X194091411Y-152818278D01*
X194073232Y-152801802D01*
X194056756Y-152783623D01*
X194042142Y-152763918D01*
X194029529Y-152742874D01*
X194019039Y-152720696D01*
X194010774Y-152697596D01*
X194004813Y-152673798D01*
X194001213Y-152649529D01*
X194000009Y-152625025D01*
X194000009Y-151025025D01*
X194001213Y-151000521D01*
X194004813Y-150976252D01*
X194010774Y-150952454D01*
X194019039Y-150929354D01*
X194029529Y-150907176D01*
X194042142Y-150886132D01*
X194056756Y-150866427D01*
X194073232Y-150848248D01*
X194091411Y-150831772D01*
X194111116Y-150817158D01*
X194132160Y-150804545D01*
X194154338Y-150794055D01*
X194177438Y-150785790D01*
X194201236Y-150779829D01*
X194225505Y-150776229D01*
X194250009Y-150775025D01*
X196750009Y-150775025D01*
X196774513Y-150776229D01*
G37*
%TD*%
%TO.C,J3*%
G36*
X208219612Y-153975988D02*
G01*
X208239027Y-153978868D01*
X208258066Y-153983637D01*
X208276546Y-153990249D01*
X208294288Y-153998641D01*
X208311123Y-154008731D01*
X208326888Y-154020423D01*
X208341430Y-154033604D01*
X208354611Y-154048146D01*
X208366303Y-154063911D01*
X208376393Y-154080746D01*
X208384785Y-154098488D01*
X208391397Y-154116968D01*
X208396166Y-154136007D01*
X208399046Y-154155422D01*
X208400009Y-154175025D01*
X208400009Y-154575025D01*
X208399046Y-154594628D01*
X208396166Y-154614043D01*
X208391397Y-154633082D01*
X208384785Y-154651562D01*
X208376393Y-154669304D01*
X208366303Y-154686139D01*
X208354611Y-154701904D01*
X208341430Y-154716446D01*
X208326888Y-154729627D01*
X208311123Y-154741319D01*
X208294288Y-154751409D01*
X208276546Y-154759801D01*
X208258066Y-154766413D01*
X208239027Y-154771182D01*
X208219612Y-154774062D01*
X208200009Y-154775025D01*
X207000009Y-154775025D01*
X206980406Y-154774062D01*
X206960991Y-154771182D01*
X206941952Y-154766413D01*
X206923472Y-154759801D01*
X206905730Y-154751409D01*
X206888895Y-154741319D01*
X206873130Y-154729627D01*
X206858588Y-154716446D01*
X206845407Y-154701904D01*
X206833715Y-154686139D01*
X206823625Y-154669304D01*
X206815233Y-154651562D01*
X206808621Y-154633082D01*
X206803852Y-154614043D01*
X206800972Y-154594628D01*
X206800009Y-154575025D01*
X206800009Y-154175025D01*
X206800972Y-154155422D01*
X206803852Y-154136007D01*
X206808621Y-154116968D01*
X206815233Y-154098488D01*
X206823625Y-154080746D01*
X206833715Y-154063911D01*
X206845407Y-154048146D01*
X206858588Y-154033604D01*
X206873130Y-154020423D01*
X206888895Y-154008731D01*
X206905730Y-153998641D01*
X206923472Y-153990249D01*
X206941952Y-153983637D01*
X206960991Y-153978868D01*
X206980406Y-153975988D01*
X207000009Y-153975025D01*
X208200009Y-153975025D01*
X208219612Y-153975988D01*
G37*
G36*
X208219612Y-155225988D02*
G01*
X208239027Y-155228868D01*
X208258066Y-155233637D01*
X208276546Y-155240249D01*
X208294288Y-155248641D01*
X208311123Y-155258731D01*
X208326888Y-155270423D01*
X208341430Y-155283604D01*
X208354611Y-155298146D01*
X208366303Y-155313911D01*
X208376393Y-155330746D01*
X208384785Y-155348488D01*
X208391397Y-155366968D01*
X208396166Y-155386007D01*
X208399046Y-155405422D01*
X208400009Y-155425025D01*
X208400009Y-155825025D01*
X208399046Y-155844628D01*
X208396166Y-155864043D01*
X208391397Y-155883082D01*
X208384785Y-155901562D01*
X208376393Y-155919304D01*
X208366303Y-155936139D01*
X208354611Y-155951904D01*
X208341430Y-155966446D01*
X208326888Y-155979627D01*
X208311123Y-155991319D01*
X208294288Y-156001409D01*
X208276546Y-156009801D01*
X208258066Y-156016413D01*
X208239027Y-156021182D01*
X208219612Y-156024062D01*
X208200009Y-156025025D01*
X207000009Y-156025025D01*
X206980406Y-156024062D01*
X206960991Y-156021182D01*
X206941952Y-156016413D01*
X206923472Y-156009801D01*
X206905730Y-156001409D01*
X206888895Y-155991319D01*
X206873130Y-155979627D01*
X206858588Y-155966446D01*
X206845407Y-155951904D01*
X206833715Y-155936139D01*
X206823625Y-155919304D01*
X206815233Y-155901562D01*
X206808621Y-155883082D01*
X206803852Y-155864043D01*
X206800972Y-155844628D01*
X206800009Y-155825025D01*
X206800009Y-155425025D01*
X206800972Y-155405422D01*
X206803852Y-155386007D01*
X206808621Y-155366968D01*
X206815233Y-155348488D01*
X206823625Y-155330746D01*
X206833715Y-155313911D01*
X206845407Y-155298146D01*
X206858588Y-155283604D01*
X206873130Y-155270423D01*
X206888895Y-155258731D01*
X206905730Y-155248641D01*
X206923472Y-155240249D01*
X206941952Y-155233637D01*
X206960991Y-155228868D01*
X206980406Y-155225988D01*
X207000009Y-155225025D01*
X208200009Y-155225025D01*
X208219612Y-155225988D01*
G37*
G36*
X211774513Y-150776229D02*
G01*
X211798782Y-150779829D01*
X211822580Y-150785790D01*
X211845680Y-150794055D01*
X211867858Y-150804545D01*
X211888902Y-150817158D01*
X211908607Y-150831772D01*
X211926786Y-150848248D01*
X211943262Y-150866427D01*
X211957876Y-150886132D01*
X211970489Y-150907176D01*
X211980979Y-150929354D01*
X211989244Y-150952454D01*
X211995205Y-150976252D01*
X211998805Y-151000521D01*
X212000009Y-151025025D01*
X212000009Y-152625025D01*
X211998805Y-152649529D01*
X211995205Y-152673798D01*
X211989244Y-152697596D01*
X211980979Y-152720696D01*
X211970489Y-152742874D01*
X211957876Y-152763918D01*
X211943262Y-152783623D01*
X211926786Y-152801802D01*
X211908607Y-152818278D01*
X211888902Y-152832892D01*
X211867858Y-152845505D01*
X211845680Y-152855995D01*
X211822580Y-152864260D01*
X211798782Y-152870221D01*
X211774513Y-152873821D01*
X211750009Y-152875025D01*
X209250009Y-152875025D01*
X209225505Y-152873821D01*
X209201236Y-152870221D01*
X209177438Y-152864260D01*
X209154338Y-152855995D01*
X209132160Y-152845505D01*
X209111116Y-152832892D01*
X209091411Y-152818278D01*
X209073232Y-152801802D01*
X209056756Y-152783623D01*
X209042142Y-152763918D01*
X209029529Y-152742874D01*
X209019039Y-152720696D01*
X209010774Y-152697596D01*
X209004813Y-152673798D01*
X209001213Y-152649529D01*
X209000009Y-152625025D01*
X209000009Y-151025025D01*
X209001213Y-151000521D01*
X209004813Y-150976252D01*
X209010774Y-150952454D01*
X209019039Y-150929354D01*
X209029529Y-150907176D01*
X209042142Y-150886132D01*
X209056756Y-150866427D01*
X209073232Y-150848248D01*
X209091411Y-150831772D01*
X209111116Y-150817158D01*
X209132160Y-150804545D01*
X209154338Y-150794055D01*
X209177438Y-150785790D01*
X209201236Y-150779829D01*
X209225505Y-150776229D01*
X209250009Y-150775025D01*
X211750009Y-150775025D01*
X211774513Y-150776229D01*
G37*
G36*
X211774513Y-157126229D02*
G01*
X211798782Y-157129829D01*
X211822580Y-157135790D01*
X211845680Y-157144055D01*
X211867858Y-157154545D01*
X211888902Y-157167158D01*
X211908607Y-157181772D01*
X211926786Y-157198248D01*
X211943262Y-157216427D01*
X211957876Y-157236132D01*
X211970489Y-157257176D01*
X211980979Y-157279354D01*
X211989244Y-157302454D01*
X211995205Y-157326252D01*
X211998805Y-157350521D01*
X212000009Y-157375025D01*
X212000009Y-158975025D01*
X211998805Y-158999529D01*
X211995205Y-159023798D01*
X211989244Y-159047596D01*
X211980979Y-159070696D01*
X211970489Y-159092874D01*
X211957876Y-159113918D01*
X211943262Y-159133623D01*
X211926786Y-159151802D01*
X211908607Y-159168278D01*
X211888902Y-159182892D01*
X211867858Y-159195505D01*
X211845680Y-159205995D01*
X211822580Y-159214260D01*
X211798782Y-159220221D01*
X211774513Y-159223821D01*
X211750009Y-159225025D01*
X209250009Y-159225025D01*
X209225505Y-159223821D01*
X209201236Y-159220221D01*
X209177438Y-159214260D01*
X209154338Y-159205995D01*
X209132160Y-159195505D01*
X209111116Y-159182892D01*
X209091411Y-159168278D01*
X209073232Y-159151802D01*
X209056756Y-159133623D01*
X209042142Y-159113918D01*
X209029529Y-159092874D01*
X209019039Y-159070696D01*
X209010774Y-159047596D01*
X209004813Y-159023798D01*
X209001213Y-158999529D01*
X209000009Y-158975025D01*
X209000009Y-157375025D01*
X209001213Y-157350521D01*
X209004813Y-157326252D01*
X209010774Y-157302454D01*
X209019039Y-157279354D01*
X209029529Y-157257176D01*
X209042142Y-157236132D01*
X209056756Y-157216427D01*
X209073232Y-157198248D01*
X209091411Y-157181772D01*
X209111116Y-157167158D01*
X209132160Y-157154545D01*
X209154338Y-157144055D01*
X209177438Y-157135790D01*
X209201236Y-157129829D01*
X209225505Y-157126229D01*
X209250009Y-157125025D01*
X211750009Y-157125025D01*
X211774513Y-157126229D01*
G37*
%TD*%
D12*
%TO.C,J4*%
X176900009Y-161700025D03*
X177900009Y-161700025D03*
X178900009Y-161700025D03*
X179900009Y-161700025D03*
X180900009Y-161700025D03*
X181900009Y-161700025D03*
X183900009Y-161700025D03*
X182900009Y-161700025D03*
%TD*%
D10*
%TO.C,J1*%
X97480001Y-139960025D03*
X102520001Y-139960025D03*
X97480001Y-142500025D03*
X102520001Y-142500025D03*
X97480001Y-145040025D03*
X102520001Y-145040025D03*
%TD*%
D11*
%TO.C,J2*%
G36*
X96019604Y-155225988D02*
G01*
X96039019Y-155228868D01*
X96058058Y-155233637D01*
X96076538Y-155240249D01*
X96094280Y-155248641D01*
X96111115Y-155258731D01*
X96126880Y-155270423D01*
X96141422Y-155283604D01*
X96154603Y-155298146D01*
X96166295Y-155313911D01*
X96176385Y-155330746D01*
X96184777Y-155348488D01*
X96191389Y-155366968D01*
X96196158Y-155386007D01*
X96199038Y-155405422D01*
X96200001Y-155425025D01*
X96200001Y-155825025D01*
X96199038Y-155844628D01*
X96196158Y-155864043D01*
X96191389Y-155883082D01*
X96184777Y-155901562D01*
X96176385Y-155919304D01*
X96166295Y-155936139D01*
X96154603Y-155951904D01*
X96141422Y-155966446D01*
X96126880Y-155979627D01*
X96111115Y-155991319D01*
X96094280Y-156001409D01*
X96076538Y-156009801D01*
X96058058Y-156016413D01*
X96039019Y-156021182D01*
X96019604Y-156024062D01*
X96000001Y-156025025D01*
X94800001Y-156025025D01*
X94780398Y-156024062D01*
X94760983Y-156021182D01*
X94741944Y-156016413D01*
X94723464Y-156009801D01*
X94705722Y-156001409D01*
X94688887Y-155991319D01*
X94673122Y-155979627D01*
X94658580Y-155966446D01*
X94645399Y-155951904D01*
X94633707Y-155936139D01*
X94623617Y-155919304D01*
X94615225Y-155901562D01*
X94608613Y-155883082D01*
X94603844Y-155864043D01*
X94600964Y-155844628D01*
X94600001Y-155825025D01*
X94600001Y-155425025D01*
X94600964Y-155405422D01*
X94603844Y-155386007D01*
X94608613Y-155366968D01*
X94615225Y-155348488D01*
X94623617Y-155330746D01*
X94633707Y-155313911D01*
X94645399Y-155298146D01*
X94658580Y-155283604D01*
X94673122Y-155270423D01*
X94688887Y-155258731D01*
X94705722Y-155248641D01*
X94723464Y-155240249D01*
X94741944Y-155233637D01*
X94760983Y-155228868D01*
X94780398Y-155225988D01*
X94800001Y-155225025D01*
X96000001Y-155225025D01*
X96019604Y-155225988D01*
G37*
G36*
X96019604Y-153975988D02*
G01*
X96039019Y-153978868D01*
X96058058Y-153983637D01*
X96076538Y-153990249D01*
X96094280Y-153998641D01*
X96111115Y-154008731D01*
X96126880Y-154020423D01*
X96141422Y-154033604D01*
X96154603Y-154048146D01*
X96166295Y-154063911D01*
X96176385Y-154080746D01*
X96184777Y-154098488D01*
X96191389Y-154116968D01*
X96196158Y-154136007D01*
X96199038Y-154155422D01*
X96200001Y-154175025D01*
X96200001Y-154575025D01*
X96199038Y-154594628D01*
X96196158Y-154614043D01*
X96191389Y-154633082D01*
X96184777Y-154651562D01*
X96176385Y-154669304D01*
X96166295Y-154686139D01*
X96154603Y-154701904D01*
X96141422Y-154716446D01*
X96126880Y-154729627D01*
X96111115Y-154741319D01*
X96094280Y-154751409D01*
X96076538Y-154759801D01*
X96058058Y-154766413D01*
X96039019Y-154771182D01*
X96019604Y-154774062D01*
X96000001Y-154775025D01*
X94800001Y-154775025D01*
X94780398Y-154774062D01*
X94760983Y-154771182D01*
X94741944Y-154766413D01*
X94723464Y-154759801D01*
X94705722Y-154751409D01*
X94688887Y-154741319D01*
X94673122Y-154729627D01*
X94658580Y-154716446D01*
X94645399Y-154701904D01*
X94633707Y-154686139D01*
X94623617Y-154669304D01*
X94615225Y-154651562D01*
X94608613Y-154633082D01*
X94603844Y-154614043D01*
X94600964Y-154594628D01*
X94600001Y-154575025D01*
X94600001Y-154175025D01*
X94600964Y-154155422D01*
X94603844Y-154136007D01*
X94608613Y-154116968D01*
X94615225Y-154098488D01*
X94623617Y-154080746D01*
X94633707Y-154063911D01*
X94645399Y-154048146D01*
X94658580Y-154033604D01*
X94673122Y-154020423D01*
X94688887Y-154008731D01*
X94705722Y-153998641D01*
X94723464Y-153990249D01*
X94741944Y-153983637D01*
X94760983Y-153978868D01*
X94780398Y-153975988D01*
X94800001Y-153975025D01*
X96000001Y-153975025D01*
X96019604Y-153975988D01*
G37*
G36*
X93774505Y-157126229D02*
G01*
X93798774Y-157129829D01*
X93822572Y-157135790D01*
X93845672Y-157144055D01*
X93867850Y-157154545D01*
X93888894Y-157167158D01*
X93908599Y-157181772D01*
X93926778Y-157198248D01*
X93943254Y-157216427D01*
X93957868Y-157236132D01*
X93970481Y-157257176D01*
X93980971Y-157279354D01*
X93989236Y-157302454D01*
X93995197Y-157326252D01*
X93998797Y-157350521D01*
X94000001Y-157375025D01*
X94000001Y-158975025D01*
X93998797Y-158999529D01*
X93995197Y-159023798D01*
X93989236Y-159047596D01*
X93980971Y-159070696D01*
X93970481Y-159092874D01*
X93957868Y-159113918D01*
X93943254Y-159133623D01*
X93926778Y-159151802D01*
X93908599Y-159168278D01*
X93888894Y-159182892D01*
X93867850Y-159195505D01*
X93845672Y-159205995D01*
X93822572Y-159214260D01*
X93798774Y-159220221D01*
X93774505Y-159223821D01*
X93750001Y-159225025D01*
X91250001Y-159225025D01*
X91225497Y-159223821D01*
X91201228Y-159220221D01*
X91177430Y-159214260D01*
X91154330Y-159205995D01*
X91132152Y-159195505D01*
X91111108Y-159182892D01*
X91091403Y-159168278D01*
X91073224Y-159151802D01*
X91056748Y-159133623D01*
X91042134Y-159113918D01*
X91029521Y-159092874D01*
X91019031Y-159070696D01*
X91010766Y-159047596D01*
X91004805Y-159023798D01*
X91001205Y-158999529D01*
X91000001Y-158975025D01*
X91000001Y-157375025D01*
X91001205Y-157350521D01*
X91004805Y-157326252D01*
X91010766Y-157302454D01*
X91019031Y-157279354D01*
X91029521Y-157257176D01*
X91042134Y-157236132D01*
X91056748Y-157216427D01*
X91073224Y-157198248D01*
X91091403Y-157181772D01*
X91111108Y-157167158D01*
X91132152Y-157154545D01*
X91154330Y-157144055D01*
X91177430Y-157135790D01*
X91201228Y-157129829D01*
X91225497Y-157126229D01*
X91250001Y-157125025D01*
X93750001Y-157125025D01*
X93774505Y-157126229D01*
G37*
G36*
X93774505Y-150776229D02*
G01*
X93798774Y-150779829D01*
X93822572Y-150785790D01*
X93845672Y-150794055D01*
X93867850Y-150804545D01*
X93888894Y-150817158D01*
X93908599Y-150831772D01*
X93926778Y-150848248D01*
X93943254Y-150866427D01*
X93957868Y-150886132D01*
X93970481Y-150907176D01*
X93980971Y-150929354D01*
X93989236Y-150952454D01*
X93995197Y-150976252D01*
X93998797Y-151000521D01*
X94000001Y-151025025D01*
X94000001Y-152625025D01*
X93998797Y-152649529D01*
X93995197Y-152673798D01*
X93989236Y-152697596D01*
X93980971Y-152720696D01*
X93970481Y-152742874D01*
X93957868Y-152763918D01*
X93943254Y-152783623D01*
X93926778Y-152801802D01*
X93908599Y-152818278D01*
X93888894Y-152832892D01*
X93867850Y-152845505D01*
X93845672Y-152855995D01*
X93822572Y-152864260D01*
X93798774Y-152870221D01*
X93774505Y-152873821D01*
X93750001Y-152875025D01*
X91250001Y-152875025D01*
X91225497Y-152873821D01*
X91201228Y-152870221D01*
X91177430Y-152864260D01*
X91154330Y-152855995D01*
X91132152Y-152845505D01*
X91111108Y-152832892D01*
X91091403Y-152818278D01*
X91073224Y-152801802D01*
X91056748Y-152783623D01*
X91042134Y-152763918D01*
X91029521Y-152742874D01*
X91019031Y-152720696D01*
X91010766Y-152697596D01*
X91004805Y-152673798D01*
X91001205Y-152649529D01*
X91000001Y-152625025D01*
X91000001Y-151025025D01*
X91001205Y-151000521D01*
X91004805Y-150976252D01*
X91010766Y-150952454D01*
X91019031Y-150929354D01*
X91029521Y-150907176D01*
X91042134Y-150886132D01*
X91056748Y-150866427D01*
X91073224Y-150848248D01*
X91091403Y-150831772D01*
X91111108Y-150817158D01*
X91132152Y-150804545D01*
X91154330Y-150794055D01*
X91177430Y-150785790D01*
X91201228Y-150779829D01*
X91225497Y-150776229D01*
X91250001Y-150775025D01*
X93750001Y-150775025D01*
X93774505Y-150776229D01*
G37*
%TD*%
%TO.C,J3*%
G36*
X105219604Y-153975988D02*
G01*
X105239019Y-153978868D01*
X105258058Y-153983637D01*
X105276538Y-153990249D01*
X105294280Y-153998641D01*
X105311115Y-154008731D01*
X105326880Y-154020423D01*
X105341422Y-154033604D01*
X105354603Y-154048146D01*
X105366295Y-154063911D01*
X105376385Y-154080746D01*
X105384777Y-154098488D01*
X105391389Y-154116968D01*
X105396158Y-154136007D01*
X105399038Y-154155422D01*
X105400001Y-154175025D01*
X105400001Y-154575025D01*
X105399038Y-154594628D01*
X105396158Y-154614043D01*
X105391389Y-154633082D01*
X105384777Y-154651562D01*
X105376385Y-154669304D01*
X105366295Y-154686139D01*
X105354603Y-154701904D01*
X105341422Y-154716446D01*
X105326880Y-154729627D01*
X105311115Y-154741319D01*
X105294280Y-154751409D01*
X105276538Y-154759801D01*
X105258058Y-154766413D01*
X105239019Y-154771182D01*
X105219604Y-154774062D01*
X105200001Y-154775025D01*
X104000001Y-154775025D01*
X103980398Y-154774062D01*
X103960983Y-154771182D01*
X103941944Y-154766413D01*
X103923464Y-154759801D01*
X103905722Y-154751409D01*
X103888887Y-154741319D01*
X103873122Y-154729627D01*
X103858580Y-154716446D01*
X103845399Y-154701904D01*
X103833707Y-154686139D01*
X103823617Y-154669304D01*
X103815225Y-154651562D01*
X103808613Y-154633082D01*
X103803844Y-154614043D01*
X103800964Y-154594628D01*
X103800001Y-154575025D01*
X103800001Y-154175025D01*
X103800964Y-154155422D01*
X103803844Y-154136007D01*
X103808613Y-154116968D01*
X103815225Y-154098488D01*
X103823617Y-154080746D01*
X103833707Y-154063911D01*
X103845399Y-154048146D01*
X103858580Y-154033604D01*
X103873122Y-154020423D01*
X103888887Y-154008731D01*
X103905722Y-153998641D01*
X103923464Y-153990249D01*
X103941944Y-153983637D01*
X103960983Y-153978868D01*
X103980398Y-153975988D01*
X104000001Y-153975025D01*
X105200001Y-153975025D01*
X105219604Y-153975988D01*
G37*
G36*
X105219604Y-155225988D02*
G01*
X105239019Y-155228868D01*
X105258058Y-155233637D01*
X105276538Y-155240249D01*
X105294280Y-155248641D01*
X105311115Y-155258731D01*
X105326880Y-155270423D01*
X105341422Y-155283604D01*
X105354603Y-155298146D01*
X105366295Y-155313911D01*
X105376385Y-155330746D01*
X105384777Y-155348488D01*
X105391389Y-155366968D01*
X105396158Y-155386007D01*
X105399038Y-155405422D01*
X105400001Y-155425025D01*
X105400001Y-155825025D01*
X105399038Y-155844628D01*
X105396158Y-155864043D01*
X105391389Y-155883082D01*
X105384777Y-155901562D01*
X105376385Y-155919304D01*
X105366295Y-155936139D01*
X105354603Y-155951904D01*
X105341422Y-155966446D01*
X105326880Y-155979627D01*
X105311115Y-155991319D01*
X105294280Y-156001409D01*
X105276538Y-156009801D01*
X105258058Y-156016413D01*
X105239019Y-156021182D01*
X105219604Y-156024062D01*
X105200001Y-156025025D01*
X104000001Y-156025025D01*
X103980398Y-156024062D01*
X103960983Y-156021182D01*
X103941944Y-156016413D01*
X103923464Y-156009801D01*
X103905722Y-156001409D01*
X103888887Y-155991319D01*
X103873122Y-155979627D01*
X103858580Y-155966446D01*
X103845399Y-155951904D01*
X103833707Y-155936139D01*
X103823617Y-155919304D01*
X103815225Y-155901562D01*
X103808613Y-155883082D01*
X103803844Y-155864043D01*
X103800964Y-155844628D01*
X103800001Y-155825025D01*
X103800001Y-155425025D01*
X103800964Y-155405422D01*
X103803844Y-155386007D01*
X103808613Y-155366968D01*
X103815225Y-155348488D01*
X103823617Y-155330746D01*
X103833707Y-155313911D01*
X103845399Y-155298146D01*
X103858580Y-155283604D01*
X103873122Y-155270423D01*
X103888887Y-155258731D01*
X103905722Y-155248641D01*
X103923464Y-155240249D01*
X103941944Y-155233637D01*
X103960983Y-155228868D01*
X103980398Y-155225988D01*
X104000001Y-155225025D01*
X105200001Y-155225025D01*
X105219604Y-155225988D01*
G37*
G36*
X108774505Y-150776229D02*
G01*
X108798774Y-150779829D01*
X108822572Y-150785790D01*
X108845672Y-150794055D01*
X108867850Y-150804545D01*
X108888894Y-150817158D01*
X108908599Y-150831772D01*
X108926778Y-150848248D01*
X108943254Y-150866427D01*
X108957868Y-150886132D01*
X108970481Y-150907176D01*
X108980971Y-150929354D01*
X108989236Y-150952454D01*
X108995197Y-150976252D01*
X108998797Y-151000521D01*
X109000001Y-151025025D01*
X109000001Y-152625025D01*
X108998797Y-152649529D01*
X108995197Y-152673798D01*
X108989236Y-152697596D01*
X108980971Y-152720696D01*
X108970481Y-152742874D01*
X108957868Y-152763918D01*
X108943254Y-152783623D01*
X108926778Y-152801802D01*
X108908599Y-152818278D01*
X108888894Y-152832892D01*
X108867850Y-152845505D01*
X108845672Y-152855995D01*
X108822572Y-152864260D01*
X108798774Y-152870221D01*
X108774505Y-152873821D01*
X108750001Y-152875025D01*
X106250001Y-152875025D01*
X106225497Y-152873821D01*
X106201228Y-152870221D01*
X106177430Y-152864260D01*
X106154330Y-152855995D01*
X106132152Y-152845505D01*
X106111108Y-152832892D01*
X106091403Y-152818278D01*
X106073224Y-152801802D01*
X106056748Y-152783623D01*
X106042134Y-152763918D01*
X106029521Y-152742874D01*
X106019031Y-152720696D01*
X106010766Y-152697596D01*
X106004805Y-152673798D01*
X106001205Y-152649529D01*
X106000001Y-152625025D01*
X106000001Y-151025025D01*
X106001205Y-151000521D01*
X106004805Y-150976252D01*
X106010766Y-150952454D01*
X106019031Y-150929354D01*
X106029521Y-150907176D01*
X106042134Y-150886132D01*
X106056748Y-150866427D01*
X106073224Y-150848248D01*
X106091403Y-150831772D01*
X106111108Y-150817158D01*
X106132152Y-150804545D01*
X106154330Y-150794055D01*
X106177430Y-150785790D01*
X106201228Y-150779829D01*
X106225497Y-150776229D01*
X106250001Y-150775025D01*
X108750001Y-150775025D01*
X108774505Y-150776229D01*
G37*
G36*
X108774505Y-157126229D02*
G01*
X108798774Y-157129829D01*
X108822572Y-157135790D01*
X108845672Y-157144055D01*
X108867850Y-157154545D01*
X108888894Y-157167158D01*
X108908599Y-157181772D01*
X108926778Y-157198248D01*
X108943254Y-157216427D01*
X108957868Y-157236132D01*
X108970481Y-157257176D01*
X108980971Y-157279354D01*
X108989236Y-157302454D01*
X108995197Y-157326252D01*
X108998797Y-157350521D01*
X109000001Y-157375025D01*
X109000001Y-158975025D01*
X108998797Y-158999529D01*
X108995197Y-159023798D01*
X108989236Y-159047596D01*
X108980971Y-159070696D01*
X108970481Y-159092874D01*
X108957868Y-159113918D01*
X108943254Y-159133623D01*
X108926778Y-159151802D01*
X108908599Y-159168278D01*
X108888894Y-159182892D01*
X108867850Y-159195505D01*
X108845672Y-159205995D01*
X108822572Y-159214260D01*
X108798774Y-159220221D01*
X108774505Y-159223821D01*
X108750001Y-159225025D01*
X106250001Y-159225025D01*
X106225497Y-159223821D01*
X106201228Y-159220221D01*
X106177430Y-159214260D01*
X106154330Y-159205995D01*
X106132152Y-159195505D01*
X106111108Y-159182892D01*
X106091403Y-159168278D01*
X106073224Y-159151802D01*
X106056748Y-159133623D01*
X106042134Y-159113918D01*
X106029521Y-159092874D01*
X106019031Y-159070696D01*
X106010766Y-159047596D01*
X106004805Y-159023798D01*
X106001205Y-158999529D01*
X106000001Y-158975025D01*
X106000001Y-157375025D01*
X106001205Y-157350521D01*
X106004805Y-157326252D01*
X106010766Y-157302454D01*
X106019031Y-157279354D01*
X106029521Y-157257176D01*
X106042134Y-157236132D01*
X106056748Y-157216427D01*
X106073224Y-157198248D01*
X106091403Y-157181772D01*
X106111108Y-157167158D01*
X106132152Y-157154545D01*
X106154330Y-157144055D01*
X106177430Y-157135790D01*
X106201228Y-157129829D01*
X106225497Y-157126229D01*
X106250001Y-157125025D01*
X108750001Y-157125025D01*
X108774505Y-157126229D01*
G37*
%TD*%
D12*
%TO.C,J4*%
X73900001Y-161700025D03*
X74900001Y-161700025D03*
X75900001Y-161700025D03*
X76900001Y-161700025D03*
X77900001Y-161700025D03*
X78900001Y-161700025D03*
X80900001Y-161700025D03*
X79900001Y-161700025D03*
%TD*%
D10*
%TO.C,J1*%
X200480009Y-96960013D03*
X205520009Y-96960013D03*
X200480009Y-99500013D03*
X205520009Y-99500013D03*
X200480009Y-102040013D03*
X205520009Y-102040013D03*
%TD*%
D11*
%TO.C,J2*%
G36*
X199019612Y-112225976D02*
G01*
X199039027Y-112228856D01*
X199058066Y-112233625D01*
X199076546Y-112240237D01*
X199094288Y-112248629D01*
X199111123Y-112258719D01*
X199126888Y-112270411D01*
X199141430Y-112283592D01*
X199154611Y-112298134D01*
X199166303Y-112313899D01*
X199176393Y-112330734D01*
X199184785Y-112348476D01*
X199191397Y-112366956D01*
X199196166Y-112385995D01*
X199199046Y-112405410D01*
X199200009Y-112425013D01*
X199200009Y-112825013D01*
X199199046Y-112844616D01*
X199196166Y-112864031D01*
X199191397Y-112883070D01*
X199184785Y-112901550D01*
X199176393Y-112919292D01*
X199166303Y-112936127D01*
X199154611Y-112951892D01*
X199141430Y-112966434D01*
X199126888Y-112979615D01*
X199111123Y-112991307D01*
X199094288Y-113001397D01*
X199076546Y-113009789D01*
X199058066Y-113016401D01*
X199039027Y-113021170D01*
X199019612Y-113024050D01*
X199000009Y-113025013D01*
X197800009Y-113025013D01*
X197780406Y-113024050D01*
X197760991Y-113021170D01*
X197741952Y-113016401D01*
X197723472Y-113009789D01*
X197705730Y-113001397D01*
X197688895Y-112991307D01*
X197673130Y-112979615D01*
X197658588Y-112966434D01*
X197645407Y-112951892D01*
X197633715Y-112936127D01*
X197623625Y-112919292D01*
X197615233Y-112901550D01*
X197608621Y-112883070D01*
X197603852Y-112864031D01*
X197600972Y-112844616D01*
X197600009Y-112825013D01*
X197600009Y-112425013D01*
X197600972Y-112405410D01*
X197603852Y-112385995D01*
X197608621Y-112366956D01*
X197615233Y-112348476D01*
X197623625Y-112330734D01*
X197633715Y-112313899D01*
X197645407Y-112298134D01*
X197658588Y-112283592D01*
X197673130Y-112270411D01*
X197688895Y-112258719D01*
X197705730Y-112248629D01*
X197723472Y-112240237D01*
X197741952Y-112233625D01*
X197760991Y-112228856D01*
X197780406Y-112225976D01*
X197800009Y-112225013D01*
X199000009Y-112225013D01*
X199019612Y-112225976D01*
G37*
G36*
X199019612Y-110975976D02*
G01*
X199039027Y-110978856D01*
X199058066Y-110983625D01*
X199076546Y-110990237D01*
X199094288Y-110998629D01*
X199111123Y-111008719D01*
X199126888Y-111020411D01*
X199141430Y-111033592D01*
X199154611Y-111048134D01*
X199166303Y-111063899D01*
X199176393Y-111080734D01*
X199184785Y-111098476D01*
X199191397Y-111116956D01*
X199196166Y-111135995D01*
X199199046Y-111155410D01*
X199200009Y-111175013D01*
X199200009Y-111575013D01*
X199199046Y-111594616D01*
X199196166Y-111614031D01*
X199191397Y-111633070D01*
X199184785Y-111651550D01*
X199176393Y-111669292D01*
X199166303Y-111686127D01*
X199154611Y-111701892D01*
X199141430Y-111716434D01*
X199126888Y-111729615D01*
X199111123Y-111741307D01*
X199094288Y-111751397D01*
X199076546Y-111759789D01*
X199058066Y-111766401D01*
X199039027Y-111771170D01*
X199019612Y-111774050D01*
X199000009Y-111775013D01*
X197800009Y-111775013D01*
X197780406Y-111774050D01*
X197760991Y-111771170D01*
X197741952Y-111766401D01*
X197723472Y-111759789D01*
X197705730Y-111751397D01*
X197688895Y-111741307D01*
X197673130Y-111729615D01*
X197658588Y-111716434D01*
X197645407Y-111701892D01*
X197633715Y-111686127D01*
X197623625Y-111669292D01*
X197615233Y-111651550D01*
X197608621Y-111633070D01*
X197603852Y-111614031D01*
X197600972Y-111594616D01*
X197600009Y-111575013D01*
X197600009Y-111175013D01*
X197600972Y-111155410D01*
X197603852Y-111135995D01*
X197608621Y-111116956D01*
X197615233Y-111098476D01*
X197623625Y-111080734D01*
X197633715Y-111063899D01*
X197645407Y-111048134D01*
X197658588Y-111033592D01*
X197673130Y-111020411D01*
X197688895Y-111008719D01*
X197705730Y-110998629D01*
X197723472Y-110990237D01*
X197741952Y-110983625D01*
X197760991Y-110978856D01*
X197780406Y-110975976D01*
X197800009Y-110975013D01*
X199000009Y-110975013D01*
X199019612Y-110975976D01*
G37*
G36*
X196774513Y-114126217D02*
G01*
X196798782Y-114129817D01*
X196822580Y-114135778D01*
X196845680Y-114144043D01*
X196867858Y-114154533D01*
X196888902Y-114167146D01*
X196908607Y-114181760D01*
X196926786Y-114198236D01*
X196943262Y-114216415D01*
X196957876Y-114236120D01*
X196970489Y-114257164D01*
X196980979Y-114279342D01*
X196989244Y-114302442D01*
X196995205Y-114326240D01*
X196998805Y-114350509D01*
X197000009Y-114375013D01*
X197000009Y-115975013D01*
X196998805Y-115999517D01*
X196995205Y-116023786D01*
X196989244Y-116047584D01*
X196980979Y-116070684D01*
X196970489Y-116092862D01*
X196957876Y-116113906D01*
X196943262Y-116133611D01*
X196926786Y-116151790D01*
X196908607Y-116168266D01*
X196888902Y-116182880D01*
X196867858Y-116195493D01*
X196845680Y-116205983D01*
X196822580Y-116214248D01*
X196798782Y-116220209D01*
X196774513Y-116223809D01*
X196750009Y-116225013D01*
X194250009Y-116225013D01*
X194225505Y-116223809D01*
X194201236Y-116220209D01*
X194177438Y-116214248D01*
X194154338Y-116205983D01*
X194132160Y-116195493D01*
X194111116Y-116182880D01*
X194091411Y-116168266D01*
X194073232Y-116151790D01*
X194056756Y-116133611D01*
X194042142Y-116113906D01*
X194029529Y-116092862D01*
X194019039Y-116070684D01*
X194010774Y-116047584D01*
X194004813Y-116023786D01*
X194001213Y-115999517D01*
X194000009Y-115975013D01*
X194000009Y-114375013D01*
X194001213Y-114350509D01*
X194004813Y-114326240D01*
X194010774Y-114302442D01*
X194019039Y-114279342D01*
X194029529Y-114257164D01*
X194042142Y-114236120D01*
X194056756Y-114216415D01*
X194073232Y-114198236D01*
X194091411Y-114181760D01*
X194111116Y-114167146D01*
X194132160Y-114154533D01*
X194154338Y-114144043D01*
X194177438Y-114135778D01*
X194201236Y-114129817D01*
X194225505Y-114126217D01*
X194250009Y-114125013D01*
X196750009Y-114125013D01*
X196774513Y-114126217D01*
G37*
G36*
X196774513Y-107776217D02*
G01*
X196798782Y-107779817D01*
X196822580Y-107785778D01*
X196845680Y-107794043D01*
X196867858Y-107804533D01*
X196888902Y-107817146D01*
X196908607Y-107831760D01*
X196926786Y-107848236D01*
X196943262Y-107866415D01*
X196957876Y-107886120D01*
X196970489Y-107907164D01*
X196980979Y-107929342D01*
X196989244Y-107952442D01*
X196995205Y-107976240D01*
X196998805Y-108000509D01*
X197000009Y-108025013D01*
X197000009Y-109625013D01*
X196998805Y-109649517D01*
X196995205Y-109673786D01*
X196989244Y-109697584D01*
X196980979Y-109720684D01*
X196970489Y-109742862D01*
X196957876Y-109763906D01*
X196943262Y-109783611D01*
X196926786Y-109801790D01*
X196908607Y-109818266D01*
X196888902Y-109832880D01*
X196867858Y-109845493D01*
X196845680Y-109855983D01*
X196822580Y-109864248D01*
X196798782Y-109870209D01*
X196774513Y-109873809D01*
X196750009Y-109875013D01*
X194250009Y-109875013D01*
X194225505Y-109873809D01*
X194201236Y-109870209D01*
X194177438Y-109864248D01*
X194154338Y-109855983D01*
X194132160Y-109845493D01*
X194111116Y-109832880D01*
X194091411Y-109818266D01*
X194073232Y-109801790D01*
X194056756Y-109783611D01*
X194042142Y-109763906D01*
X194029529Y-109742862D01*
X194019039Y-109720684D01*
X194010774Y-109697584D01*
X194004813Y-109673786D01*
X194001213Y-109649517D01*
X194000009Y-109625013D01*
X194000009Y-108025013D01*
X194001213Y-108000509D01*
X194004813Y-107976240D01*
X194010774Y-107952442D01*
X194019039Y-107929342D01*
X194029529Y-107907164D01*
X194042142Y-107886120D01*
X194056756Y-107866415D01*
X194073232Y-107848236D01*
X194091411Y-107831760D01*
X194111116Y-107817146D01*
X194132160Y-107804533D01*
X194154338Y-107794043D01*
X194177438Y-107785778D01*
X194201236Y-107779817D01*
X194225505Y-107776217D01*
X194250009Y-107775013D01*
X196750009Y-107775013D01*
X196774513Y-107776217D01*
G37*
%TD*%
%TO.C,J3*%
G36*
X208219612Y-110975976D02*
G01*
X208239027Y-110978856D01*
X208258066Y-110983625D01*
X208276546Y-110990237D01*
X208294288Y-110998629D01*
X208311123Y-111008719D01*
X208326888Y-111020411D01*
X208341430Y-111033592D01*
X208354611Y-111048134D01*
X208366303Y-111063899D01*
X208376393Y-111080734D01*
X208384785Y-111098476D01*
X208391397Y-111116956D01*
X208396166Y-111135995D01*
X208399046Y-111155410D01*
X208400009Y-111175013D01*
X208400009Y-111575013D01*
X208399046Y-111594616D01*
X208396166Y-111614031D01*
X208391397Y-111633070D01*
X208384785Y-111651550D01*
X208376393Y-111669292D01*
X208366303Y-111686127D01*
X208354611Y-111701892D01*
X208341430Y-111716434D01*
X208326888Y-111729615D01*
X208311123Y-111741307D01*
X208294288Y-111751397D01*
X208276546Y-111759789D01*
X208258066Y-111766401D01*
X208239027Y-111771170D01*
X208219612Y-111774050D01*
X208200009Y-111775013D01*
X207000009Y-111775013D01*
X206980406Y-111774050D01*
X206960991Y-111771170D01*
X206941952Y-111766401D01*
X206923472Y-111759789D01*
X206905730Y-111751397D01*
X206888895Y-111741307D01*
X206873130Y-111729615D01*
X206858588Y-111716434D01*
X206845407Y-111701892D01*
X206833715Y-111686127D01*
X206823625Y-111669292D01*
X206815233Y-111651550D01*
X206808621Y-111633070D01*
X206803852Y-111614031D01*
X206800972Y-111594616D01*
X206800009Y-111575013D01*
X206800009Y-111175013D01*
X206800972Y-111155410D01*
X206803852Y-111135995D01*
X206808621Y-111116956D01*
X206815233Y-111098476D01*
X206823625Y-111080734D01*
X206833715Y-111063899D01*
X206845407Y-111048134D01*
X206858588Y-111033592D01*
X206873130Y-111020411D01*
X206888895Y-111008719D01*
X206905730Y-110998629D01*
X206923472Y-110990237D01*
X206941952Y-110983625D01*
X206960991Y-110978856D01*
X206980406Y-110975976D01*
X207000009Y-110975013D01*
X208200009Y-110975013D01*
X208219612Y-110975976D01*
G37*
G36*
X208219612Y-112225976D02*
G01*
X208239027Y-112228856D01*
X208258066Y-112233625D01*
X208276546Y-112240237D01*
X208294288Y-112248629D01*
X208311123Y-112258719D01*
X208326888Y-112270411D01*
X208341430Y-112283592D01*
X208354611Y-112298134D01*
X208366303Y-112313899D01*
X208376393Y-112330734D01*
X208384785Y-112348476D01*
X208391397Y-112366956D01*
X208396166Y-112385995D01*
X208399046Y-112405410D01*
X208400009Y-112425013D01*
X208400009Y-112825013D01*
X208399046Y-112844616D01*
X208396166Y-112864031D01*
X208391397Y-112883070D01*
X208384785Y-112901550D01*
X208376393Y-112919292D01*
X208366303Y-112936127D01*
X208354611Y-112951892D01*
X208341430Y-112966434D01*
X208326888Y-112979615D01*
X208311123Y-112991307D01*
X208294288Y-113001397D01*
X208276546Y-113009789D01*
X208258066Y-113016401D01*
X208239027Y-113021170D01*
X208219612Y-113024050D01*
X208200009Y-113025013D01*
X207000009Y-113025013D01*
X206980406Y-113024050D01*
X206960991Y-113021170D01*
X206941952Y-113016401D01*
X206923472Y-113009789D01*
X206905730Y-113001397D01*
X206888895Y-112991307D01*
X206873130Y-112979615D01*
X206858588Y-112966434D01*
X206845407Y-112951892D01*
X206833715Y-112936127D01*
X206823625Y-112919292D01*
X206815233Y-112901550D01*
X206808621Y-112883070D01*
X206803852Y-112864031D01*
X206800972Y-112844616D01*
X206800009Y-112825013D01*
X206800009Y-112425013D01*
X206800972Y-112405410D01*
X206803852Y-112385995D01*
X206808621Y-112366956D01*
X206815233Y-112348476D01*
X206823625Y-112330734D01*
X206833715Y-112313899D01*
X206845407Y-112298134D01*
X206858588Y-112283592D01*
X206873130Y-112270411D01*
X206888895Y-112258719D01*
X206905730Y-112248629D01*
X206923472Y-112240237D01*
X206941952Y-112233625D01*
X206960991Y-112228856D01*
X206980406Y-112225976D01*
X207000009Y-112225013D01*
X208200009Y-112225013D01*
X208219612Y-112225976D01*
G37*
G36*
X211774513Y-107776217D02*
G01*
X211798782Y-107779817D01*
X211822580Y-107785778D01*
X211845680Y-107794043D01*
X211867858Y-107804533D01*
X211888902Y-107817146D01*
X211908607Y-107831760D01*
X211926786Y-107848236D01*
X211943262Y-107866415D01*
X211957876Y-107886120D01*
X211970489Y-107907164D01*
X211980979Y-107929342D01*
X211989244Y-107952442D01*
X211995205Y-107976240D01*
X211998805Y-108000509D01*
X212000009Y-108025013D01*
X212000009Y-109625013D01*
X211998805Y-109649517D01*
X211995205Y-109673786D01*
X211989244Y-109697584D01*
X211980979Y-109720684D01*
X211970489Y-109742862D01*
X211957876Y-109763906D01*
X211943262Y-109783611D01*
X211926786Y-109801790D01*
X211908607Y-109818266D01*
X211888902Y-109832880D01*
X211867858Y-109845493D01*
X211845680Y-109855983D01*
X211822580Y-109864248D01*
X211798782Y-109870209D01*
X211774513Y-109873809D01*
X211750009Y-109875013D01*
X209250009Y-109875013D01*
X209225505Y-109873809D01*
X209201236Y-109870209D01*
X209177438Y-109864248D01*
X209154338Y-109855983D01*
X209132160Y-109845493D01*
X209111116Y-109832880D01*
X209091411Y-109818266D01*
X209073232Y-109801790D01*
X209056756Y-109783611D01*
X209042142Y-109763906D01*
X209029529Y-109742862D01*
X209019039Y-109720684D01*
X209010774Y-109697584D01*
X209004813Y-109673786D01*
X209001213Y-109649517D01*
X209000009Y-109625013D01*
X209000009Y-108025013D01*
X209001213Y-108000509D01*
X209004813Y-107976240D01*
X209010774Y-107952442D01*
X209019039Y-107929342D01*
X209029529Y-107907164D01*
X209042142Y-107886120D01*
X209056756Y-107866415D01*
X209073232Y-107848236D01*
X209091411Y-107831760D01*
X209111116Y-107817146D01*
X209132160Y-107804533D01*
X209154338Y-107794043D01*
X209177438Y-107785778D01*
X209201236Y-107779817D01*
X209225505Y-107776217D01*
X209250009Y-107775013D01*
X211750009Y-107775013D01*
X211774513Y-107776217D01*
G37*
G36*
X211774513Y-114126217D02*
G01*
X211798782Y-114129817D01*
X211822580Y-114135778D01*
X211845680Y-114144043D01*
X211867858Y-114154533D01*
X211888902Y-114167146D01*
X211908607Y-114181760D01*
X211926786Y-114198236D01*
X211943262Y-114216415D01*
X211957876Y-114236120D01*
X211970489Y-114257164D01*
X211980979Y-114279342D01*
X211989244Y-114302442D01*
X211995205Y-114326240D01*
X211998805Y-114350509D01*
X212000009Y-114375013D01*
X212000009Y-115975013D01*
X211998805Y-115999517D01*
X211995205Y-116023786D01*
X211989244Y-116047584D01*
X211980979Y-116070684D01*
X211970489Y-116092862D01*
X211957876Y-116113906D01*
X211943262Y-116133611D01*
X211926786Y-116151790D01*
X211908607Y-116168266D01*
X211888902Y-116182880D01*
X211867858Y-116195493D01*
X211845680Y-116205983D01*
X211822580Y-116214248D01*
X211798782Y-116220209D01*
X211774513Y-116223809D01*
X211750009Y-116225013D01*
X209250009Y-116225013D01*
X209225505Y-116223809D01*
X209201236Y-116220209D01*
X209177438Y-116214248D01*
X209154338Y-116205983D01*
X209132160Y-116195493D01*
X209111116Y-116182880D01*
X209091411Y-116168266D01*
X209073232Y-116151790D01*
X209056756Y-116133611D01*
X209042142Y-116113906D01*
X209029529Y-116092862D01*
X209019039Y-116070684D01*
X209010774Y-116047584D01*
X209004813Y-116023786D01*
X209001213Y-115999517D01*
X209000009Y-115975013D01*
X209000009Y-114375013D01*
X209001213Y-114350509D01*
X209004813Y-114326240D01*
X209010774Y-114302442D01*
X209019039Y-114279342D01*
X209029529Y-114257164D01*
X209042142Y-114236120D01*
X209056756Y-114216415D01*
X209073232Y-114198236D01*
X209091411Y-114181760D01*
X209111116Y-114167146D01*
X209132160Y-114154533D01*
X209154338Y-114144043D01*
X209177438Y-114135778D01*
X209201236Y-114129817D01*
X209225505Y-114126217D01*
X209250009Y-114125013D01*
X211750009Y-114125013D01*
X211774513Y-114126217D01*
G37*
%TD*%
D12*
%TO.C,J4*%
X176900009Y-118700013D03*
X177900009Y-118700013D03*
X178900009Y-118700013D03*
X179900009Y-118700013D03*
X180900009Y-118700013D03*
X181900009Y-118700013D03*
X183900009Y-118700013D03*
X182900009Y-118700013D03*
%TD*%
D10*
%TO.C,J1*%
X97480001Y-96960013D03*
X102520001Y-96960013D03*
X97480001Y-99500013D03*
X102520001Y-99500013D03*
X97480001Y-102040013D03*
X102520001Y-102040013D03*
%TD*%
D11*
%TO.C,J2*%
G36*
X96019604Y-112225976D02*
G01*
X96039019Y-112228856D01*
X96058058Y-112233625D01*
X96076538Y-112240237D01*
X96094280Y-112248629D01*
X96111115Y-112258719D01*
X96126880Y-112270411D01*
X96141422Y-112283592D01*
X96154603Y-112298134D01*
X96166295Y-112313899D01*
X96176385Y-112330734D01*
X96184777Y-112348476D01*
X96191389Y-112366956D01*
X96196158Y-112385995D01*
X96199038Y-112405410D01*
X96200001Y-112425013D01*
X96200001Y-112825013D01*
X96199038Y-112844616D01*
X96196158Y-112864031D01*
X96191389Y-112883070D01*
X96184777Y-112901550D01*
X96176385Y-112919292D01*
X96166295Y-112936127D01*
X96154603Y-112951892D01*
X96141422Y-112966434D01*
X96126880Y-112979615D01*
X96111115Y-112991307D01*
X96094280Y-113001397D01*
X96076538Y-113009789D01*
X96058058Y-113016401D01*
X96039019Y-113021170D01*
X96019604Y-113024050D01*
X96000001Y-113025013D01*
X94800001Y-113025013D01*
X94780398Y-113024050D01*
X94760983Y-113021170D01*
X94741944Y-113016401D01*
X94723464Y-113009789D01*
X94705722Y-113001397D01*
X94688887Y-112991307D01*
X94673122Y-112979615D01*
X94658580Y-112966434D01*
X94645399Y-112951892D01*
X94633707Y-112936127D01*
X94623617Y-112919292D01*
X94615225Y-112901550D01*
X94608613Y-112883070D01*
X94603844Y-112864031D01*
X94600964Y-112844616D01*
X94600001Y-112825013D01*
X94600001Y-112425013D01*
X94600964Y-112405410D01*
X94603844Y-112385995D01*
X94608613Y-112366956D01*
X94615225Y-112348476D01*
X94623617Y-112330734D01*
X94633707Y-112313899D01*
X94645399Y-112298134D01*
X94658580Y-112283592D01*
X94673122Y-112270411D01*
X94688887Y-112258719D01*
X94705722Y-112248629D01*
X94723464Y-112240237D01*
X94741944Y-112233625D01*
X94760983Y-112228856D01*
X94780398Y-112225976D01*
X94800001Y-112225013D01*
X96000001Y-112225013D01*
X96019604Y-112225976D01*
G37*
G36*
X96019604Y-110975976D02*
G01*
X96039019Y-110978856D01*
X96058058Y-110983625D01*
X96076538Y-110990237D01*
X96094280Y-110998629D01*
X96111115Y-111008719D01*
X96126880Y-111020411D01*
X96141422Y-111033592D01*
X96154603Y-111048134D01*
X96166295Y-111063899D01*
X96176385Y-111080734D01*
X96184777Y-111098476D01*
X96191389Y-111116956D01*
X96196158Y-111135995D01*
X96199038Y-111155410D01*
X96200001Y-111175013D01*
X96200001Y-111575013D01*
X96199038Y-111594616D01*
X96196158Y-111614031D01*
X96191389Y-111633070D01*
X96184777Y-111651550D01*
X96176385Y-111669292D01*
X96166295Y-111686127D01*
X96154603Y-111701892D01*
X96141422Y-111716434D01*
X96126880Y-111729615D01*
X96111115Y-111741307D01*
X96094280Y-111751397D01*
X96076538Y-111759789D01*
X96058058Y-111766401D01*
X96039019Y-111771170D01*
X96019604Y-111774050D01*
X96000001Y-111775013D01*
X94800001Y-111775013D01*
X94780398Y-111774050D01*
X94760983Y-111771170D01*
X94741944Y-111766401D01*
X94723464Y-111759789D01*
X94705722Y-111751397D01*
X94688887Y-111741307D01*
X94673122Y-111729615D01*
X94658580Y-111716434D01*
X94645399Y-111701892D01*
X94633707Y-111686127D01*
X94623617Y-111669292D01*
X94615225Y-111651550D01*
X94608613Y-111633070D01*
X94603844Y-111614031D01*
X94600964Y-111594616D01*
X94600001Y-111575013D01*
X94600001Y-111175013D01*
X94600964Y-111155410D01*
X94603844Y-111135995D01*
X94608613Y-111116956D01*
X94615225Y-111098476D01*
X94623617Y-111080734D01*
X94633707Y-111063899D01*
X94645399Y-111048134D01*
X94658580Y-111033592D01*
X94673122Y-111020411D01*
X94688887Y-111008719D01*
X94705722Y-110998629D01*
X94723464Y-110990237D01*
X94741944Y-110983625D01*
X94760983Y-110978856D01*
X94780398Y-110975976D01*
X94800001Y-110975013D01*
X96000001Y-110975013D01*
X96019604Y-110975976D01*
G37*
G36*
X93774505Y-114126217D02*
G01*
X93798774Y-114129817D01*
X93822572Y-114135778D01*
X93845672Y-114144043D01*
X93867850Y-114154533D01*
X93888894Y-114167146D01*
X93908599Y-114181760D01*
X93926778Y-114198236D01*
X93943254Y-114216415D01*
X93957868Y-114236120D01*
X93970481Y-114257164D01*
X93980971Y-114279342D01*
X93989236Y-114302442D01*
X93995197Y-114326240D01*
X93998797Y-114350509D01*
X94000001Y-114375013D01*
X94000001Y-115975013D01*
X93998797Y-115999517D01*
X93995197Y-116023786D01*
X93989236Y-116047584D01*
X93980971Y-116070684D01*
X93970481Y-116092862D01*
X93957868Y-116113906D01*
X93943254Y-116133611D01*
X93926778Y-116151790D01*
X93908599Y-116168266D01*
X93888894Y-116182880D01*
X93867850Y-116195493D01*
X93845672Y-116205983D01*
X93822572Y-116214248D01*
X93798774Y-116220209D01*
X93774505Y-116223809D01*
X93750001Y-116225013D01*
X91250001Y-116225013D01*
X91225497Y-116223809D01*
X91201228Y-116220209D01*
X91177430Y-116214248D01*
X91154330Y-116205983D01*
X91132152Y-116195493D01*
X91111108Y-116182880D01*
X91091403Y-116168266D01*
X91073224Y-116151790D01*
X91056748Y-116133611D01*
X91042134Y-116113906D01*
X91029521Y-116092862D01*
X91019031Y-116070684D01*
X91010766Y-116047584D01*
X91004805Y-116023786D01*
X91001205Y-115999517D01*
X91000001Y-115975013D01*
X91000001Y-114375013D01*
X91001205Y-114350509D01*
X91004805Y-114326240D01*
X91010766Y-114302442D01*
X91019031Y-114279342D01*
X91029521Y-114257164D01*
X91042134Y-114236120D01*
X91056748Y-114216415D01*
X91073224Y-114198236D01*
X91091403Y-114181760D01*
X91111108Y-114167146D01*
X91132152Y-114154533D01*
X91154330Y-114144043D01*
X91177430Y-114135778D01*
X91201228Y-114129817D01*
X91225497Y-114126217D01*
X91250001Y-114125013D01*
X93750001Y-114125013D01*
X93774505Y-114126217D01*
G37*
G36*
X93774505Y-107776217D02*
G01*
X93798774Y-107779817D01*
X93822572Y-107785778D01*
X93845672Y-107794043D01*
X93867850Y-107804533D01*
X93888894Y-107817146D01*
X93908599Y-107831760D01*
X93926778Y-107848236D01*
X93943254Y-107866415D01*
X93957868Y-107886120D01*
X93970481Y-107907164D01*
X93980971Y-107929342D01*
X93989236Y-107952442D01*
X93995197Y-107976240D01*
X93998797Y-108000509D01*
X94000001Y-108025013D01*
X94000001Y-109625013D01*
X93998797Y-109649517D01*
X93995197Y-109673786D01*
X93989236Y-109697584D01*
X93980971Y-109720684D01*
X93970481Y-109742862D01*
X93957868Y-109763906D01*
X93943254Y-109783611D01*
X93926778Y-109801790D01*
X93908599Y-109818266D01*
X93888894Y-109832880D01*
X93867850Y-109845493D01*
X93845672Y-109855983D01*
X93822572Y-109864248D01*
X93798774Y-109870209D01*
X93774505Y-109873809D01*
X93750001Y-109875013D01*
X91250001Y-109875013D01*
X91225497Y-109873809D01*
X91201228Y-109870209D01*
X91177430Y-109864248D01*
X91154330Y-109855983D01*
X91132152Y-109845493D01*
X91111108Y-109832880D01*
X91091403Y-109818266D01*
X91073224Y-109801790D01*
X91056748Y-109783611D01*
X91042134Y-109763906D01*
X91029521Y-109742862D01*
X91019031Y-109720684D01*
X91010766Y-109697584D01*
X91004805Y-109673786D01*
X91001205Y-109649517D01*
X91000001Y-109625013D01*
X91000001Y-108025013D01*
X91001205Y-108000509D01*
X91004805Y-107976240D01*
X91010766Y-107952442D01*
X91019031Y-107929342D01*
X91029521Y-107907164D01*
X91042134Y-107886120D01*
X91056748Y-107866415D01*
X91073224Y-107848236D01*
X91091403Y-107831760D01*
X91111108Y-107817146D01*
X91132152Y-107804533D01*
X91154330Y-107794043D01*
X91177430Y-107785778D01*
X91201228Y-107779817D01*
X91225497Y-107776217D01*
X91250001Y-107775013D01*
X93750001Y-107775013D01*
X93774505Y-107776217D01*
G37*
%TD*%
%TO.C,J3*%
G36*
X105219604Y-110975976D02*
G01*
X105239019Y-110978856D01*
X105258058Y-110983625D01*
X105276538Y-110990237D01*
X105294280Y-110998629D01*
X105311115Y-111008719D01*
X105326880Y-111020411D01*
X105341422Y-111033592D01*
X105354603Y-111048134D01*
X105366295Y-111063899D01*
X105376385Y-111080734D01*
X105384777Y-111098476D01*
X105391389Y-111116956D01*
X105396158Y-111135995D01*
X105399038Y-111155410D01*
X105400001Y-111175013D01*
X105400001Y-111575013D01*
X105399038Y-111594616D01*
X105396158Y-111614031D01*
X105391389Y-111633070D01*
X105384777Y-111651550D01*
X105376385Y-111669292D01*
X105366295Y-111686127D01*
X105354603Y-111701892D01*
X105341422Y-111716434D01*
X105326880Y-111729615D01*
X105311115Y-111741307D01*
X105294280Y-111751397D01*
X105276538Y-111759789D01*
X105258058Y-111766401D01*
X105239019Y-111771170D01*
X105219604Y-111774050D01*
X105200001Y-111775013D01*
X104000001Y-111775013D01*
X103980398Y-111774050D01*
X103960983Y-111771170D01*
X103941944Y-111766401D01*
X103923464Y-111759789D01*
X103905722Y-111751397D01*
X103888887Y-111741307D01*
X103873122Y-111729615D01*
X103858580Y-111716434D01*
X103845399Y-111701892D01*
X103833707Y-111686127D01*
X103823617Y-111669292D01*
X103815225Y-111651550D01*
X103808613Y-111633070D01*
X103803844Y-111614031D01*
X103800964Y-111594616D01*
X103800001Y-111575013D01*
X103800001Y-111175013D01*
X103800964Y-111155410D01*
X103803844Y-111135995D01*
X103808613Y-111116956D01*
X103815225Y-111098476D01*
X103823617Y-111080734D01*
X103833707Y-111063899D01*
X103845399Y-111048134D01*
X103858580Y-111033592D01*
X103873122Y-111020411D01*
X103888887Y-111008719D01*
X103905722Y-110998629D01*
X103923464Y-110990237D01*
X103941944Y-110983625D01*
X103960983Y-110978856D01*
X103980398Y-110975976D01*
X104000001Y-110975013D01*
X105200001Y-110975013D01*
X105219604Y-110975976D01*
G37*
G36*
X105219604Y-112225976D02*
G01*
X105239019Y-112228856D01*
X105258058Y-112233625D01*
X105276538Y-112240237D01*
X105294280Y-112248629D01*
X105311115Y-112258719D01*
X105326880Y-112270411D01*
X105341422Y-112283592D01*
X105354603Y-112298134D01*
X105366295Y-112313899D01*
X105376385Y-112330734D01*
X105384777Y-112348476D01*
X105391389Y-112366956D01*
X105396158Y-112385995D01*
X105399038Y-112405410D01*
X105400001Y-112425013D01*
X105400001Y-112825013D01*
X105399038Y-112844616D01*
X105396158Y-112864031D01*
X105391389Y-112883070D01*
X105384777Y-112901550D01*
X105376385Y-112919292D01*
X105366295Y-112936127D01*
X105354603Y-112951892D01*
X105341422Y-112966434D01*
X105326880Y-112979615D01*
X105311115Y-112991307D01*
X105294280Y-113001397D01*
X105276538Y-113009789D01*
X105258058Y-113016401D01*
X105239019Y-113021170D01*
X105219604Y-113024050D01*
X105200001Y-113025013D01*
X104000001Y-113025013D01*
X103980398Y-113024050D01*
X103960983Y-113021170D01*
X103941944Y-113016401D01*
X103923464Y-113009789D01*
X103905722Y-113001397D01*
X103888887Y-112991307D01*
X103873122Y-112979615D01*
X103858580Y-112966434D01*
X103845399Y-112951892D01*
X103833707Y-112936127D01*
X103823617Y-112919292D01*
X103815225Y-112901550D01*
X103808613Y-112883070D01*
X103803844Y-112864031D01*
X103800964Y-112844616D01*
X103800001Y-112825013D01*
X103800001Y-112425013D01*
X103800964Y-112405410D01*
X103803844Y-112385995D01*
X103808613Y-112366956D01*
X103815225Y-112348476D01*
X103823617Y-112330734D01*
X103833707Y-112313899D01*
X103845399Y-112298134D01*
X103858580Y-112283592D01*
X103873122Y-112270411D01*
X103888887Y-112258719D01*
X103905722Y-112248629D01*
X103923464Y-112240237D01*
X103941944Y-112233625D01*
X103960983Y-112228856D01*
X103980398Y-112225976D01*
X104000001Y-112225013D01*
X105200001Y-112225013D01*
X105219604Y-112225976D01*
G37*
G36*
X108774505Y-107776217D02*
G01*
X108798774Y-107779817D01*
X108822572Y-107785778D01*
X108845672Y-107794043D01*
X108867850Y-107804533D01*
X108888894Y-107817146D01*
X108908599Y-107831760D01*
X108926778Y-107848236D01*
X108943254Y-107866415D01*
X108957868Y-107886120D01*
X108970481Y-107907164D01*
X108980971Y-107929342D01*
X108989236Y-107952442D01*
X108995197Y-107976240D01*
X108998797Y-108000509D01*
X109000001Y-108025013D01*
X109000001Y-109625013D01*
X108998797Y-109649517D01*
X108995197Y-109673786D01*
X108989236Y-109697584D01*
X108980971Y-109720684D01*
X108970481Y-109742862D01*
X108957868Y-109763906D01*
X108943254Y-109783611D01*
X108926778Y-109801790D01*
X108908599Y-109818266D01*
X108888894Y-109832880D01*
X108867850Y-109845493D01*
X108845672Y-109855983D01*
X108822572Y-109864248D01*
X108798774Y-109870209D01*
X108774505Y-109873809D01*
X108750001Y-109875013D01*
X106250001Y-109875013D01*
X106225497Y-109873809D01*
X106201228Y-109870209D01*
X106177430Y-109864248D01*
X106154330Y-109855983D01*
X106132152Y-109845493D01*
X106111108Y-109832880D01*
X106091403Y-109818266D01*
X106073224Y-109801790D01*
X106056748Y-109783611D01*
X106042134Y-109763906D01*
X106029521Y-109742862D01*
X106019031Y-109720684D01*
X106010766Y-109697584D01*
X106004805Y-109673786D01*
X106001205Y-109649517D01*
X106000001Y-109625013D01*
X106000001Y-108025013D01*
X106001205Y-108000509D01*
X106004805Y-107976240D01*
X106010766Y-107952442D01*
X106019031Y-107929342D01*
X106029521Y-107907164D01*
X106042134Y-107886120D01*
X106056748Y-107866415D01*
X106073224Y-107848236D01*
X106091403Y-107831760D01*
X106111108Y-107817146D01*
X106132152Y-107804533D01*
X106154330Y-107794043D01*
X106177430Y-107785778D01*
X106201228Y-107779817D01*
X106225497Y-107776217D01*
X106250001Y-107775013D01*
X108750001Y-107775013D01*
X108774505Y-107776217D01*
G37*
G36*
X108774505Y-114126217D02*
G01*
X108798774Y-114129817D01*
X108822572Y-114135778D01*
X108845672Y-114144043D01*
X108867850Y-114154533D01*
X108888894Y-114167146D01*
X108908599Y-114181760D01*
X108926778Y-114198236D01*
X108943254Y-114216415D01*
X108957868Y-114236120D01*
X108970481Y-114257164D01*
X108980971Y-114279342D01*
X108989236Y-114302442D01*
X108995197Y-114326240D01*
X108998797Y-114350509D01*
X109000001Y-114375013D01*
X109000001Y-115975013D01*
X108998797Y-115999517D01*
X108995197Y-116023786D01*
X108989236Y-116047584D01*
X108980971Y-116070684D01*
X108970481Y-116092862D01*
X108957868Y-116113906D01*
X108943254Y-116133611D01*
X108926778Y-116151790D01*
X108908599Y-116168266D01*
X108888894Y-116182880D01*
X108867850Y-116195493D01*
X108845672Y-116205983D01*
X108822572Y-116214248D01*
X108798774Y-116220209D01*
X108774505Y-116223809D01*
X108750001Y-116225013D01*
X106250001Y-116225013D01*
X106225497Y-116223809D01*
X106201228Y-116220209D01*
X106177430Y-116214248D01*
X106154330Y-116205983D01*
X106132152Y-116195493D01*
X106111108Y-116182880D01*
X106091403Y-116168266D01*
X106073224Y-116151790D01*
X106056748Y-116133611D01*
X106042134Y-116113906D01*
X106029521Y-116092862D01*
X106019031Y-116070684D01*
X106010766Y-116047584D01*
X106004805Y-116023786D01*
X106001205Y-115999517D01*
X106000001Y-115975013D01*
X106000001Y-114375013D01*
X106001205Y-114350509D01*
X106004805Y-114326240D01*
X106010766Y-114302442D01*
X106019031Y-114279342D01*
X106029521Y-114257164D01*
X106042134Y-114236120D01*
X106056748Y-114216415D01*
X106073224Y-114198236D01*
X106091403Y-114181760D01*
X106111108Y-114167146D01*
X106132152Y-114154533D01*
X106154330Y-114144043D01*
X106177430Y-114135778D01*
X106201228Y-114129817D01*
X106225497Y-114126217D01*
X106250001Y-114125013D01*
X108750001Y-114125013D01*
X108774505Y-114126217D01*
G37*
%TD*%
D12*
%TO.C,J4*%
X73900001Y-118700013D03*
X74900001Y-118700013D03*
X75900001Y-118700013D03*
X76900001Y-118700013D03*
X77900001Y-118700013D03*
X78900001Y-118700013D03*
X80900001Y-118700013D03*
X79900001Y-118700013D03*
%TD*%
D10*
%TO.C,J1*%
X200480009Y-53960001D03*
X205520009Y-53960001D03*
X200480009Y-56500001D03*
X205520009Y-56500001D03*
X200480009Y-59040001D03*
X205520009Y-59040001D03*
%TD*%
D11*
%TO.C,J2*%
G36*
X199019612Y-69225964D02*
G01*
X199039027Y-69228844D01*
X199058066Y-69233613D01*
X199076546Y-69240225D01*
X199094288Y-69248617D01*
X199111123Y-69258707D01*
X199126888Y-69270399D01*
X199141430Y-69283580D01*
X199154611Y-69298122D01*
X199166303Y-69313887D01*
X199176393Y-69330722D01*
X199184785Y-69348464D01*
X199191397Y-69366944D01*
X199196166Y-69385983D01*
X199199046Y-69405398D01*
X199200009Y-69425001D01*
X199200009Y-69825001D01*
X199199046Y-69844604D01*
X199196166Y-69864019D01*
X199191397Y-69883058D01*
X199184785Y-69901538D01*
X199176393Y-69919280D01*
X199166303Y-69936115D01*
X199154611Y-69951880D01*
X199141430Y-69966422D01*
X199126888Y-69979603D01*
X199111123Y-69991295D01*
X199094288Y-70001385D01*
X199076546Y-70009777D01*
X199058066Y-70016389D01*
X199039027Y-70021158D01*
X199019612Y-70024038D01*
X199000009Y-70025001D01*
X197800009Y-70025001D01*
X197780406Y-70024038D01*
X197760991Y-70021158D01*
X197741952Y-70016389D01*
X197723472Y-70009777D01*
X197705730Y-70001385D01*
X197688895Y-69991295D01*
X197673130Y-69979603D01*
X197658588Y-69966422D01*
X197645407Y-69951880D01*
X197633715Y-69936115D01*
X197623625Y-69919280D01*
X197615233Y-69901538D01*
X197608621Y-69883058D01*
X197603852Y-69864019D01*
X197600972Y-69844604D01*
X197600009Y-69825001D01*
X197600009Y-69425001D01*
X197600972Y-69405398D01*
X197603852Y-69385983D01*
X197608621Y-69366944D01*
X197615233Y-69348464D01*
X197623625Y-69330722D01*
X197633715Y-69313887D01*
X197645407Y-69298122D01*
X197658588Y-69283580D01*
X197673130Y-69270399D01*
X197688895Y-69258707D01*
X197705730Y-69248617D01*
X197723472Y-69240225D01*
X197741952Y-69233613D01*
X197760991Y-69228844D01*
X197780406Y-69225964D01*
X197800009Y-69225001D01*
X199000009Y-69225001D01*
X199019612Y-69225964D01*
G37*
G36*
X199019612Y-67975964D02*
G01*
X199039027Y-67978844D01*
X199058066Y-67983613D01*
X199076546Y-67990225D01*
X199094288Y-67998617D01*
X199111123Y-68008707D01*
X199126888Y-68020399D01*
X199141430Y-68033580D01*
X199154611Y-68048122D01*
X199166303Y-68063887D01*
X199176393Y-68080722D01*
X199184785Y-68098464D01*
X199191397Y-68116944D01*
X199196166Y-68135983D01*
X199199046Y-68155398D01*
X199200009Y-68175001D01*
X199200009Y-68575001D01*
X199199046Y-68594604D01*
X199196166Y-68614019D01*
X199191397Y-68633058D01*
X199184785Y-68651538D01*
X199176393Y-68669280D01*
X199166303Y-68686115D01*
X199154611Y-68701880D01*
X199141430Y-68716422D01*
X199126888Y-68729603D01*
X199111123Y-68741295D01*
X199094288Y-68751385D01*
X199076546Y-68759777D01*
X199058066Y-68766389D01*
X199039027Y-68771158D01*
X199019612Y-68774038D01*
X199000009Y-68775001D01*
X197800009Y-68775001D01*
X197780406Y-68774038D01*
X197760991Y-68771158D01*
X197741952Y-68766389D01*
X197723472Y-68759777D01*
X197705730Y-68751385D01*
X197688895Y-68741295D01*
X197673130Y-68729603D01*
X197658588Y-68716422D01*
X197645407Y-68701880D01*
X197633715Y-68686115D01*
X197623625Y-68669280D01*
X197615233Y-68651538D01*
X197608621Y-68633058D01*
X197603852Y-68614019D01*
X197600972Y-68594604D01*
X197600009Y-68575001D01*
X197600009Y-68175001D01*
X197600972Y-68155398D01*
X197603852Y-68135983D01*
X197608621Y-68116944D01*
X197615233Y-68098464D01*
X197623625Y-68080722D01*
X197633715Y-68063887D01*
X197645407Y-68048122D01*
X197658588Y-68033580D01*
X197673130Y-68020399D01*
X197688895Y-68008707D01*
X197705730Y-67998617D01*
X197723472Y-67990225D01*
X197741952Y-67983613D01*
X197760991Y-67978844D01*
X197780406Y-67975964D01*
X197800009Y-67975001D01*
X199000009Y-67975001D01*
X199019612Y-67975964D01*
G37*
G36*
X196774513Y-71126205D02*
G01*
X196798782Y-71129805D01*
X196822580Y-71135766D01*
X196845680Y-71144031D01*
X196867858Y-71154521D01*
X196888902Y-71167134D01*
X196908607Y-71181748D01*
X196926786Y-71198224D01*
X196943262Y-71216403D01*
X196957876Y-71236108D01*
X196970489Y-71257152D01*
X196980979Y-71279330D01*
X196989244Y-71302430D01*
X196995205Y-71326228D01*
X196998805Y-71350497D01*
X197000009Y-71375001D01*
X197000009Y-72975001D01*
X196998805Y-72999505D01*
X196995205Y-73023774D01*
X196989244Y-73047572D01*
X196980979Y-73070672D01*
X196970489Y-73092850D01*
X196957876Y-73113894D01*
X196943262Y-73133599D01*
X196926786Y-73151778D01*
X196908607Y-73168254D01*
X196888902Y-73182868D01*
X196867858Y-73195481D01*
X196845680Y-73205971D01*
X196822580Y-73214236D01*
X196798782Y-73220197D01*
X196774513Y-73223797D01*
X196750009Y-73225001D01*
X194250009Y-73225001D01*
X194225505Y-73223797D01*
X194201236Y-73220197D01*
X194177438Y-73214236D01*
X194154338Y-73205971D01*
X194132160Y-73195481D01*
X194111116Y-73182868D01*
X194091411Y-73168254D01*
X194073232Y-73151778D01*
X194056756Y-73133599D01*
X194042142Y-73113894D01*
X194029529Y-73092850D01*
X194019039Y-73070672D01*
X194010774Y-73047572D01*
X194004813Y-73023774D01*
X194001213Y-72999505D01*
X194000009Y-72975001D01*
X194000009Y-71375001D01*
X194001213Y-71350497D01*
X194004813Y-71326228D01*
X194010774Y-71302430D01*
X194019039Y-71279330D01*
X194029529Y-71257152D01*
X194042142Y-71236108D01*
X194056756Y-71216403D01*
X194073232Y-71198224D01*
X194091411Y-71181748D01*
X194111116Y-71167134D01*
X194132160Y-71154521D01*
X194154338Y-71144031D01*
X194177438Y-71135766D01*
X194201236Y-71129805D01*
X194225505Y-71126205D01*
X194250009Y-71125001D01*
X196750009Y-71125001D01*
X196774513Y-71126205D01*
G37*
G36*
X196774513Y-64776205D02*
G01*
X196798782Y-64779805D01*
X196822580Y-64785766D01*
X196845680Y-64794031D01*
X196867858Y-64804521D01*
X196888902Y-64817134D01*
X196908607Y-64831748D01*
X196926786Y-64848224D01*
X196943262Y-64866403D01*
X196957876Y-64886108D01*
X196970489Y-64907152D01*
X196980979Y-64929330D01*
X196989244Y-64952430D01*
X196995205Y-64976228D01*
X196998805Y-65000497D01*
X197000009Y-65025001D01*
X197000009Y-66625001D01*
X196998805Y-66649505D01*
X196995205Y-66673774D01*
X196989244Y-66697572D01*
X196980979Y-66720672D01*
X196970489Y-66742850D01*
X196957876Y-66763894D01*
X196943262Y-66783599D01*
X196926786Y-66801778D01*
X196908607Y-66818254D01*
X196888902Y-66832868D01*
X196867858Y-66845481D01*
X196845680Y-66855971D01*
X196822580Y-66864236D01*
X196798782Y-66870197D01*
X196774513Y-66873797D01*
X196750009Y-66875001D01*
X194250009Y-66875001D01*
X194225505Y-66873797D01*
X194201236Y-66870197D01*
X194177438Y-66864236D01*
X194154338Y-66855971D01*
X194132160Y-66845481D01*
X194111116Y-66832868D01*
X194091411Y-66818254D01*
X194073232Y-66801778D01*
X194056756Y-66783599D01*
X194042142Y-66763894D01*
X194029529Y-66742850D01*
X194019039Y-66720672D01*
X194010774Y-66697572D01*
X194004813Y-66673774D01*
X194001213Y-66649505D01*
X194000009Y-66625001D01*
X194000009Y-65025001D01*
X194001213Y-65000497D01*
X194004813Y-64976228D01*
X194010774Y-64952430D01*
X194019039Y-64929330D01*
X194029529Y-64907152D01*
X194042142Y-64886108D01*
X194056756Y-64866403D01*
X194073232Y-64848224D01*
X194091411Y-64831748D01*
X194111116Y-64817134D01*
X194132160Y-64804521D01*
X194154338Y-64794031D01*
X194177438Y-64785766D01*
X194201236Y-64779805D01*
X194225505Y-64776205D01*
X194250009Y-64775001D01*
X196750009Y-64775001D01*
X196774513Y-64776205D01*
G37*
%TD*%
%TO.C,J3*%
G36*
X208219612Y-67975964D02*
G01*
X208239027Y-67978844D01*
X208258066Y-67983613D01*
X208276546Y-67990225D01*
X208294288Y-67998617D01*
X208311123Y-68008707D01*
X208326888Y-68020399D01*
X208341430Y-68033580D01*
X208354611Y-68048122D01*
X208366303Y-68063887D01*
X208376393Y-68080722D01*
X208384785Y-68098464D01*
X208391397Y-68116944D01*
X208396166Y-68135983D01*
X208399046Y-68155398D01*
X208400009Y-68175001D01*
X208400009Y-68575001D01*
X208399046Y-68594604D01*
X208396166Y-68614019D01*
X208391397Y-68633058D01*
X208384785Y-68651538D01*
X208376393Y-68669280D01*
X208366303Y-68686115D01*
X208354611Y-68701880D01*
X208341430Y-68716422D01*
X208326888Y-68729603D01*
X208311123Y-68741295D01*
X208294288Y-68751385D01*
X208276546Y-68759777D01*
X208258066Y-68766389D01*
X208239027Y-68771158D01*
X208219612Y-68774038D01*
X208200009Y-68775001D01*
X207000009Y-68775001D01*
X206980406Y-68774038D01*
X206960991Y-68771158D01*
X206941952Y-68766389D01*
X206923472Y-68759777D01*
X206905730Y-68751385D01*
X206888895Y-68741295D01*
X206873130Y-68729603D01*
X206858588Y-68716422D01*
X206845407Y-68701880D01*
X206833715Y-68686115D01*
X206823625Y-68669280D01*
X206815233Y-68651538D01*
X206808621Y-68633058D01*
X206803852Y-68614019D01*
X206800972Y-68594604D01*
X206800009Y-68575001D01*
X206800009Y-68175001D01*
X206800972Y-68155398D01*
X206803852Y-68135983D01*
X206808621Y-68116944D01*
X206815233Y-68098464D01*
X206823625Y-68080722D01*
X206833715Y-68063887D01*
X206845407Y-68048122D01*
X206858588Y-68033580D01*
X206873130Y-68020399D01*
X206888895Y-68008707D01*
X206905730Y-67998617D01*
X206923472Y-67990225D01*
X206941952Y-67983613D01*
X206960991Y-67978844D01*
X206980406Y-67975964D01*
X207000009Y-67975001D01*
X208200009Y-67975001D01*
X208219612Y-67975964D01*
G37*
G36*
X208219612Y-69225964D02*
G01*
X208239027Y-69228844D01*
X208258066Y-69233613D01*
X208276546Y-69240225D01*
X208294288Y-69248617D01*
X208311123Y-69258707D01*
X208326888Y-69270399D01*
X208341430Y-69283580D01*
X208354611Y-69298122D01*
X208366303Y-69313887D01*
X208376393Y-69330722D01*
X208384785Y-69348464D01*
X208391397Y-69366944D01*
X208396166Y-69385983D01*
X208399046Y-69405398D01*
X208400009Y-69425001D01*
X208400009Y-69825001D01*
X208399046Y-69844604D01*
X208396166Y-69864019D01*
X208391397Y-69883058D01*
X208384785Y-69901538D01*
X208376393Y-69919280D01*
X208366303Y-69936115D01*
X208354611Y-69951880D01*
X208341430Y-69966422D01*
X208326888Y-69979603D01*
X208311123Y-69991295D01*
X208294288Y-70001385D01*
X208276546Y-70009777D01*
X208258066Y-70016389D01*
X208239027Y-70021158D01*
X208219612Y-70024038D01*
X208200009Y-70025001D01*
X207000009Y-70025001D01*
X206980406Y-70024038D01*
X206960991Y-70021158D01*
X206941952Y-70016389D01*
X206923472Y-70009777D01*
X206905730Y-70001385D01*
X206888895Y-69991295D01*
X206873130Y-69979603D01*
X206858588Y-69966422D01*
X206845407Y-69951880D01*
X206833715Y-69936115D01*
X206823625Y-69919280D01*
X206815233Y-69901538D01*
X206808621Y-69883058D01*
X206803852Y-69864019D01*
X206800972Y-69844604D01*
X206800009Y-69825001D01*
X206800009Y-69425001D01*
X206800972Y-69405398D01*
X206803852Y-69385983D01*
X206808621Y-69366944D01*
X206815233Y-69348464D01*
X206823625Y-69330722D01*
X206833715Y-69313887D01*
X206845407Y-69298122D01*
X206858588Y-69283580D01*
X206873130Y-69270399D01*
X206888895Y-69258707D01*
X206905730Y-69248617D01*
X206923472Y-69240225D01*
X206941952Y-69233613D01*
X206960991Y-69228844D01*
X206980406Y-69225964D01*
X207000009Y-69225001D01*
X208200009Y-69225001D01*
X208219612Y-69225964D01*
G37*
G36*
X211774513Y-64776205D02*
G01*
X211798782Y-64779805D01*
X211822580Y-64785766D01*
X211845680Y-64794031D01*
X211867858Y-64804521D01*
X211888902Y-64817134D01*
X211908607Y-64831748D01*
X211926786Y-64848224D01*
X211943262Y-64866403D01*
X211957876Y-64886108D01*
X211970489Y-64907152D01*
X211980979Y-64929330D01*
X211989244Y-64952430D01*
X211995205Y-64976228D01*
X211998805Y-65000497D01*
X212000009Y-65025001D01*
X212000009Y-66625001D01*
X211998805Y-66649505D01*
X211995205Y-66673774D01*
X211989244Y-66697572D01*
X211980979Y-66720672D01*
X211970489Y-66742850D01*
X211957876Y-66763894D01*
X211943262Y-66783599D01*
X211926786Y-66801778D01*
X211908607Y-66818254D01*
X211888902Y-66832868D01*
X211867858Y-66845481D01*
X211845680Y-66855971D01*
X211822580Y-66864236D01*
X211798782Y-66870197D01*
X211774513Y-66873797D01*
X211750009Y-66875001D01*
X209250009Y-66875001D01*
X209225505Y-66873797D01*
X209201236Y-66870197D01*
X209177438Y-66864236D01*
X209154338Y-66855971D01*
X209132160Y-66845481D01*
X209111116Y-66832868D01*
X209091411Y-66818254D01*
X209073232Y-66801778D01*
X209056756Y-66783599D01*
X209042142Y-66763894D01*
X209029529Y-66742850D01*
X209019039Y-66720672D01*
X209010774Y-66697572D01*
X209004813Y-66673774D01*
X209001213Y-66649505D01*
X209000009Y-66625001D01*
X209000009Y-65025001D01*
X209001213Y-65000497D01*
X209004813Y-64976228D01*
X209010774Y-64952430D01*
X209019039Y-64929330D01*
X209029529Y-64907152D01*
X209042142Y-64886108D01*
X209056756Y-64866403D01*
X209073232Y-64848224D01*
X209091411Y-64831748D01*
X209111116Y-64817134D01*
X209132160Y-64804521D01*
X209154338Y-64794031D01*
X209177438Y-64785766D01*
X209201236Y-64779805D01*
X209225505Y-64776205D01*
X209250009Y-64775001D01*
X211750009Y-64775001D01*
X211774513Y-64776205D01*
G37*
G36*
X211774513Y-71126205D02*
G01*
X211798782Y-71129805D01*
X211822580Y-71135766D01*
X211845680Y-71144031D01*
X211867858Y-71154521D01*
X211888902Y-71167134D01*
X211908607Y-71181748D01*
X211926786Y-71198224D01*
X211943262Y-71216403D01*
X211957876Y-71236108D01*
X211970489Y-71257152D01*
X211980979Y-71279330D01*
X211989244Y-71302430D01*
X211995205Y-71326228D01*
X211998805Y-71350497D01*
X212000009Y-71375001D01*
X212000009Y-72975001D01*
X211998805Y-72999505D01*
X211995205Y-73023774D01*
X211989244Y-73047572D01*
X211980979Y-73070672D01*
X211970489Y-73092850D01*
X211957876Y-73113894D01*
X211943262Y-73133599D01*
X211926786Y-73151778D01*
X211908607Y-73168254D01*
X211888902Y-73182868D01*
X211867858Y-73195481D01*
X211845680Y-73205971D01*
X211822580Y-73214236D01*
X211798782Y-73220197D01*
X211774513Y-73223797D01*
X211750009Y-73225001D01*
X209250009Y-73225001D01*
X209225505Y-73223797D01*
X209201236Y-73220197D01*
X209177438Y-73214236D01*
X209154338Y-73205971D01*
X209132160Y-73195481D01*
X209111116Y-73182868D01*
X209091411Y-73168254D01*
X209073232Y-73151778D01*
X209056756Y-73133599D01*
X209042142Y-73113894D01*
X209029529Y-73092850D01*
X209019039Y-73070672D01*
X209010774Y-73047572D01*
X209004813Y-73023774D01*
X209001213Y-72999505D01*
X209000009Y-72975001D01*
X209000009Y-71375001D01*
X209001213Y-71350497D01*
X209004813Y-71326228D01*
X209010774Y-71302430D01*
X209019039Y-71279330D01*
X209029529Y-71257152D01*
X209042142Y-71236108D01*
X209056756Y-71216403D01*
X209073232Y-71198224D01*
X209091411Y-71181748D01*
X209111116Y-71167134D01*
X209132160Y-71154521D01*
X209154338Y-71144031D01*
X209177438Y-71135766D01*
X209201236Y-71129805D01*
X209225505Y-71126205D01*
X209250009Y-71125001D01*
X211750009Y-71125001D01*
X211774513Y-71126205D01*
G37*
%TD*%
D12*
%TO.C,J4*%
X176900009Y-75700001D03*
X177900009Y-75700001D03*
X178900009Y-75700001D03*
X179900009Y-75700001D03*
X180900009Y-75700001D03*
X181900009Y-75700001D03*
X183900009Y-75700001D03*
X182900009Y-75700001D03*
%TD*%
D10*
%TO.C,J1*%
X97480001Y-53960001D03*
X102520001Y-53960001D03*
X97480001Y-56500001D03*
X102520001Y-56500001D03*
X97480001Y-59040001D03*
X102520001Y-59040001D03*
%TD*%
D11*
%TO.C,J2*%
G36*
X96019604Y-69225964D02*
G01*
X96039019Y-69228844D01*
X96058058Y-69233613D01*
X96076538Y-69240225D01*
X96094280Y-69248617D01*
X96111115Y-69258707D01*
X96126880Y-69270399D01*
X96141422Y-69283580D01*
X96154603Y-69298122D01*
X96166295Y-69313887D01*
X96176385Y-69330722D01*
X96184777Y-69348464D01*
X96191389Y-69366944D01*
X96196158Y-69385983D01*
X96199038Y-69405398D01*
X96200001Y-69425001D01*
X96200001Y-69825001D01*
X96199038Y-69844604D01*
X96196158Y-69864019D01*
X96191389Y-69883058D01*
X96184777Y-69901538D01*
X96176385Y-69919280D01*
X96166295Y-69936115D01*
X96154603Y-69951880D01*
X96141422Y-69966422D01*
X96126880Y-69979603D01*
X96111115Y-69991295D01*
X96094280Y-70001385D01*
X96076538Y-70009777D01*
X96058058Y-70016389D01*
X96039019Y-70021158D01*
X96019604Y-70024038D01*
X96000001Y-70025001D01*
X94800001Y-70025001D01*
X94780398Y-70024038D01*
X94760983Y-70021158D01*
X94741944Y-70016389D01*
X94723464Y-70009777D01*
X94705722Y-70001385D01*
X94688887Y-69991295D01*
X94673122Y-69979603D01*
X94658580Y-69966422D01*
X94645399Y-69951880D01*
X94633707Y-69936115D01*
X94623617Y-69919280D01*
X94615225Y-69901538D01*
X94608613Y-69883058D01*
X94603844Y-69864019D01*
X94600964Y-69844604D01*
X94600001Y-69825001D01*
X94600001Y-69425001D01*
X94600964Y-69405398D01*
X94603844Y-69385983D01*
X94608613Y-69366944D01*
X94615225Y-69348464D01*
X94623617Y-69330722D01*
X94633707Y-69313887D01*
X94645399Y-69298122D01*
X94658580Y-69283580D01*
X94673122Y-69270399D01*
X94688887Y-69258707D01*
X94705722Y-69248617D01*
X94723464Y-69240225D01*
X94741944Y-69233613D01*
X94760983Y-69228844D01*
X94780398Y-69225964D01*
X94800001Y-69225001D01*
X96000001Y-69225001D01*
X96019604Y-69225964D01*
G37*
G36*
X96019604Y-67975964D02*
G01*
X96039019Y-67978844D01*
X96058058Y-67983613D01*
X96076538Y-67990225D01*
X96094280Y-67998617D01*
X96111115Y-68008707D01*
X96126880Y-68020399D01*
X96141422Y-68033580D01*
X96154603Y-68048122D01*
X96166295Y-68063887D01*
X96176385Y-68080722D01*
X96184777Y-68098464D01*
X96191389Y-68116944D01*
X96196158Y-68135983D01*
X96199038Y-68155398D01*
X96200001Y-68175001D01*
X96200001Y-68575001D01*
X96199038Y-68594604D01*
X96196158Y-68614019D01*
X96191389Y-68633058D01*
X96184777Y-68651538D01*
X96176385Y-68669280D01*
X96166295Y-68686115D01*
X96154603Y-68701880D01*
X96141422Y-68716422D01*
X96126880Y-68729603D01*
X96111115Y-68741295D01*
X96094280Y-68751385D01*
X96076538Y-68759777D01*
X96058058Y-68766389D01*
X96039019Y-68771158D01*
X96019604Y-68774038D01*
X96000001Y-68775001D01*
X94800001Y-68775001D01*
X94780398Y-68774038D01*
X94760983Y-68771158D01*
X94741944Y-68766389D01*
X94723464Y-68759777D01*
X94705722Y-68751385D01*
X94688887Y-68741295D01*
X94673122Y-68729603D01*
X94658580Y-68716422D01*
X94645399Y-68701880D01*
X94633707Y-68686115D01*
X94623617Y-68669280D01*
X94615225Y-68651538D01*
X94608613Y-68633058D01*
X94603844Y-68614019D01*
X94600964Y-68594604D01*
X94600001Y-68575001D01*
X94600001Y-68175001D01*
X94600964Y-68155398D01*
X94603844Y-68135983D01*
X94608613Y-68116944D01*
X94615225Y-68098464D01*
X94623617Y-68080722D01*
X94633707Y-68063887D01*
X94645399Y-68048122D01*
X94658580Y-68033580D01*
X94673122Y-68020399D01*
X94688887Y-68008707D01*
X94705722Y-67998617D01*
X94723464Y-67990225D01*
X94741944Y-67983613D01*
X94760983Y-67978844D01*
X94780398Y-67975964D01*
X94800001Y-67975001D01*
X96000001Y-67975001D01*
X96019604Y-67975964D01*
G37*
G36*
X93774505Y-71126205D02*
G01*
X93798774Y-71129805D01*
X93822572Y-71135766D01*
X93845672Y-71144031D01*
X93867850Y-71154521D01*
X93888894Y-71167134D01*
X93908599Y-71181748D01*
X93926778Y-71198224D01*
X93943254Y-71216403D01*
X93957868Y-71236108D01*
X93970481Y-71257152D01*
X93980971Y-71279330D01*
X93989236Y-71302430D01*
X93995197Y-71326228D01*
X93998797Y-71350497D01*
X94000001Y-71375001D01*
X94000001Y-72975001D01*
X93998797Y-72999505D01*
X93995197Y-73023774D01*
X93989236Y-73047572D01*
X93980971Y-73070672D01*
X93970481Y-73092850D01*
X93957868Y-73113894D01*
X93943254Y-73133599D01*
X93926778Y-73151778D01*
X93908599Y-73168254D01*
X93888894Y-73182868D01*
X93867850Y-73195481D01*
X93845672Y-73205971D01*
X93822572Y-73214236D01*
X93798774Y-73220197D01*
X93774505Y-73223797D01*
X93750001Y-73225001D01*
X91250001Y-73225001D01*
X91225497Y-73223797D01*
X91201228Y-73220197D01*
X91177430Y-73214236D01*
X91154330Y-73205971D01*
X91132152Y-73195481D01*
X91111108Y-73182868D01*
X91091403Y-73168254D01*
X91073224Y-73151778D01*
X91056748Y-73133599D01*
X91042134Y-73113894D01*
X91029521Y-73092850D01*
X91019031Y-73070672D01*
X91010766Y-73047572D01*
X91004805Y-73023774D01*
X91001205Y-72999505D01*
X91000001Y-72975001D01*
X91000001Y-71375001D01*
X91001205Y-71350497D01*
X91004805Y-71326228D01*
X91010766Y-71302430D01*
X91019031Y-71279330D01*
X91029521Y-71257152D01*
X91042134Y-71236108D01*
X91056748Y-71216403D01*
X91073224Y-71198224D01*
X91091403Y-71181748D01*
X91111108Y-71167134D01*
X91132152Y-71154521D01*
X91154330Y-71144031D01*
X91177430Y-71135766D01*
X91201228Y-71129805D01*
X91225497Y-71126205D01*
X91250001Y-71125001D01*
X93750001Y-71125001D01*
X93774505Y-71126205D01*
G37*
G36*
X93774505Y-64776205D02*
G01*
X93798774Y-64779805D01*
X93822572Y-64785766D01*
X93845672Y-64794031D01*
X93867850Y-64804521D01*
X93888894Y-64817134D01*
X93908599Y-64831748D01*
X93926778Y-64848224D01*
X93943254Y-64866403D01*
X93957868Y-64886108D01*
X93970481Y-64907152D01*
X93980971Y-64929330D01*
X93989236Y-64952430D01*
X93995197Y-64976228D01*
X93998797Y-65000497D01*
X94000001Y-65025001D01*
X94000001Y-66625001D01*
X93998797Y-66649505D01*
X93995197Y-66673774D01*
X93989236Y-66697572D01*
X93980971Y-66720672D01*
X93970481Y-66742850D01*
X93957868Y-66763894D01*
X93943254Y-66783599D01*
X93926778Y-66801778D01*
X93908599Y-66818254D01*
X93888894Y-66832868D01*
X93867850Y-66845481D01*
X93845672Y-66855971D01*
X93822572Y-66864236D01*
X93798774Y-66870197D01*
X93774505Y-66873797D01*
X93750001Y-66875001D01*
X91250001Y-66875001D01*
X91225497Y-66873797D01*
X91201228Y-66870197D01*
X91177430Y-66864236D01*
X91154330Y-66855971D01*
X91132152Y-66845481D01*
X91111108Y-66832868D01*
X91091403Y-66818254D01*
X91073224Y-66801778D01*
X91056748Y-66783599D01*
X91042134Y-66763894D01*
X91029521Y-66742850D01*
X91019031Y-66720672D01*
X91010766Y-66697572D01*
X91004805Y-66673774D01*
X91001205Y-66649505D01*
X91000001Y-66625001D01*
X91000001Y-65025001D01*
X91001205Y-65000497D01*
X91004805Y-64976228D01*
X91010766Y-64952430D01*
X91019031Y-64929330D01*
X91029521Y-64907152D01*
X91042134Y-64886108D01*
X91056748Y-64866403D01*
X91073224Y-64848224D01*
X91091403Y-64831748D01*
X91111108Y-64817134D01*
X91132152Y-64804521D01*
X91154330Y-64794031D01*
X91177430Y-64785766D01*
X91201228Y-64779805D01*
X91225497Y-64776205D01*
X91250001Y-64775001D01*
X93750001Y-64775001D01*
X93774505Y-64776205D01*
G37*
%TD*%
%TO.C,J3*%
G36*
X105219604Y-67975964D02*
G01*
X105239019Y-67978844D01*
X105258058Y-67983613D01*
X105276538Y-67990225D01*
X105294280Y-67998617D01*
X105311115Y-68008707D01*
X105326880Y-68020399D01*
X105341422Y-68033580D01*
X105354603Y-68048122D01*
X105366295Y-68063887D01*
X105376385Y-68080722D01*
X105384777Y-68098464D01*
X105391389Y-68116944D01*
X105396158Y-68135983D01*
X105399038Y-68155398D01*
X105400001Y-68175001D01*
X105400001Y-68575001D01*
X105399038Y-68594604D01*
X105396158Y-68614019D01*
X105391389Y-68633058D01*
X105384777Y-68651538D01*
X105376385Y-68669280D01*
X105366295Y-68686115D01*
X105354603Y-68701880D01*
X105341422Y-68716422D01*
X105326880Y-68729603D01*
X105311115Y-68741295D01*
X105294280Y-68751385D01*
X105276538Y-68759777D01*
X105258058Y-68766389D01*
X105239019Y-68771158D01*
X105219604Y-68774038D01*
X105200001Y-68775001D01*
X104000001Y-68775001D01*
X103980398Y-68774038D01*
X103960983Y-68771158D01*
X103941944Y-68766389D01*
X103923464Y-68759777D01*
X103905722Y-68751385D01*
X103888887Y-68741295D01*
X103873122Y-68729603D01*
X103858580Y-68716422D01*
X103845399Y-68701880D01*
X103833707Y-68686115D01*
X103823617Y-68669280D01*
X103815225Y-68651538D01*
X103808613Y-68633058D01*
X103803844Y-68614019D01*
X103800964Y-68594604D01*
X103800001Y-68575001D01*
X103800001Y-68175001D01*
X103800964Y-68155398D01*
X103803844Y-68135983D01*
X103808613Y-68116944D01*
X103815225Y-68098464D01*
X103823617Y-68080722D01*
X103833707Y-68063887D01*
X103845399Y-68048122D01*
X103858580Y-68033580D01*
X103873122Y-68020399D01*
X103888887Y-68008707D01*
X103905722Y-67998617D01*
X103923464Y-67990225D01*
X103941944Y-67983613D01*
X103960983Y-67978844D01*
X103980398Y-67975964D01*
X104000001Y-67975001D01*
X105200001Y-67975001D01*
X105219604Y-67975964D01*
G37*
G36*
X105219604Y-69225964D02*
G01*
X105239019Y-69228844D01*
X105258058Y-69233613D01*
X105276538Y-69240225D01*
X105294280Y-69248617D01*
X105311115Y-69258707D01*
X105326880Y-69270399D01*
X105341422Y-69283580D01*
X105354603Y-69298122D01*
X105366295Y-69313887D01*
X105376385Y-69330722D01*
X105384777Y-69348464D01*
X105391389Y-69366944D01*
X105396158Y-69385983D01*
X105399038Y-69405398D01*
X105400001Y-69425001D01*
X105400001Y-69825001D01*
X105399038Y-69844604D01*
X105396158Y-69864019D01*
X105391389Y-69883058D01*
X105384777Y-69901538D01*
X105376385Y-69919280D01*
X105366295Y-69936115D01*
X105354603Y-69951880D01*
X105341422Y-69966422D01*
X105326880Y-69979603D01*
X105311115Y-69991295D01*
X105294280Y-70001385D01*
X105276538Y-70009777D01*
X105258058Y-70016389D01*
X105239019Y-70021158D01*
X105219604Y-70024038D01*
X105200001Y-70025001D01*
X104000001Y-70025001D01*
X103980398Y-70024038D01*
X103960983Y-70021158D01*
X103941944Y-70016389D01*
X103923464Y-70009777D01*
X103905722Y-70001385D01*
X103888887Y-69991295D01*
X103873122Y-69979603D01*
X103858580Y-69966422D01*
X103845399Y-69951880D01*
X103833707Y-69936115D01*
X103823617Y-69919280D01*
X103815225Y-69901538D01*
X103808613Y-69883058D01*
X103803844Y-69864019D01*
X103800964Y-69844604D01*
X103800001Y-69825001D01*
X103800001Y-69425001D01*
X103800964Y-69405398D01*
X103803844Y-69385983D01*
X103808613Y-69366944D01*
X103815225Y-69348464D01*
X103823617Y-69330722D01*
X103833707Y-69313887D01*
X103845399Y-69298122D01*
X103858580Y-69283580D01*
X103873122Y-69270399D01*
X103888887Y-69258707D01*
X103905722Y-69248617D01*
X103923464Y-69240225D01*
X103941944Y-69233613D01*
X103960983Y-69228844D01*
X103980398Y-69225964D01*
X104000001Y-69225001D01*
X105200001Y-69225001D01*
X105219604Y-69225964D01*
G37*
G36*
X108774505Y-64776205D02*
G01*
X108798774Y-64779805D01*
X108822572Y-64785766D01*
X108845672Y-64794031D01*
X108867850Y-64804521D01*
X108888894Y-64817134D01*
X108908599Y-64831748D01*
X108926778Y-64848224D01*
X108943254Y-64866403D01*
X108957868Y-64886108D01*
X108970481Y-64907152D01*
X108980971Y-64929330D01*
X108989236Y-64952430D01*
X108995197Y-64976228D01*
X108998797Y-65000497D01*
X109000001Y-65025001D01*
X109000001Y-66625001D01*
X108998797Y-66649505D01*
X108995197Y-66673774D01*
X108989236Y-66697572D01*
X108980971Y-66720672D01*
X108970481Y-66742850D01*
X108957868Y-66763894D01*
X108943254Y-66783599D01*
X108926778Y-66801778D01*
X108908599Y-66818254D01*
X108888894Y-66832868D01*
X108867850Y-66845481D01*
X108845672Y-66855971D01*
X108822572Y-66864236D01*
X108798774Y-66870197D01*
X108774505Y-66873797D01*
X108750001Y-66875001D01*
X106250001Y-66875001D01*
X106225497Y-66873797D01*
X106201228Y-66870197D01*
X106177430Y-66864236D01*
X106154330Y-66855971D01*
X106132152Y-66845481D01*
X106111108Y-66832868D01*
X106091403Y-66818254D01*
X106073224Y-66801778D01*
X106056748Y-66783599D01*
X106042134Y-66763894D01*
X106029521Y-66742850D01*
X106019031Y-66720672D01*
X106010766Y-66697572D01*
X106004805Y-66673774D01*
X106001205Y-66649505D01*
X106000001Y-66625001D01*
X106000001Y-65025001D01*
X106001205Y-65000497D01*
X106004805Y-64976228D01*
X106010766Y-64952430D01*
X106019031Y-64929330D01*
X106029521Y-64907152D01*
X106042134Y-64886108D01*
X106056748Y-64866403D01*
X106073224Y-64848224D01*
X106091403Y-64831748D01*
X106111108Y-64817134D01*
X106132152Y-64804521D01*
X106154330Y-64794031D01*
X106177430Y-64785766D01*
X106201228Y-64779805D01*
X106225497Y-64776205D01*
X106250001Y-64775001D01*
X108750001Y-64775001D01*
X108774505Y-64776205D01*
G37*
G36*
X108774505Y-71126205D02*
G01*
X108798774Y-71129805D01*
X108822572Y-71135766D01*
X108845672Y-71144031D01*
X108867850Y-71154521D01*
X108888894Y-71167134D01*
X108908599Y-71181748D01*
X108926778Y-71198224D01*
X108943254Y-71216403D01*
X108957868Y-71236108D01*
X108970481Y-71257152D01*
X108980971Y-71279330D01*
X108989236Y-71302430D01*
X108995197Y-71326228D01*
X108998797Y-71350497D01*
X109000001Y-71375001D01*
X109000001Y-72975001D01*
X108998797Y-72999505D01*
X108995197Y-73023774D01*
X108989236Y-73047572D01*
X108980971Y-73070672D01*
X108970481Y-73092850D01*
X108957868Y-73113894D01*
X108943254Y-73133599D01*
X108926778Y-73151778D01*
X108908599Y-73168254D01*
X108888894Y-73182868D01*
X108867850Y-73195481D01*
X108845672Y-73205971D01*
X108822572Y-73214236D01*
X108798774Y-73220197D01*
X108774505Y-73223797D01*
X108750001Y-73225001D01*
X106250001Y-73225001D01*
X106225497Y-73223797D01*
X106201228Y-73220197D01*
X106177430Y-73214236D01*
X106154330Y-73205971D01*
X106132152Y-73195481D01*
X106111108Y-73182868D01*
X106091403Y-73168254D01*
X106073224Y-73151778D01*
X106056748Y-73133599D01*
X106042134Y-73113894D01*
X106029521Y-73092850D01*
X106019031Y-73070672D01*
X106010766Y-73047572D01*
X106004805Y-73023774D01*
X106001205Y-72999505D01*
X106000001Y-72975001D01*
X106000001Y-71375001D01*
X106001205Y-71350497D01*
X106004805Y-71326228D01*
X106010766Y-71302430D01*
X106019031Y-71279330D01*
X106029521Y-71257152D01*
X106042134Y-71236108D01*
X106056748Y-71216403D01*
X106073224Y-71198224D01*
X106091403Y-71181748D01*
X106111108Y-71167134D01*
X106132152Y-71154521D01*
X106154330Y-71144031D01*
X106177430Y-71135766D01*
X106201228Y-71129805D01*
X106225497Y-71126205D01*
X106250001Y-71125001D01*
X108750001Y-71125001D01*
X108774505Y-71126205D01*
G37*
%TD*%
D12*
%TO.C,J4*%
X73900001Y-75700001D03*
X74900001Y-75700001D03*
X75900001Y-75700001D03*
X76900001Y-75700001D03*
X77900001Y-75700001D03*
X78900001Y-75700001D03*
X80900001Y-75700001D03*
X79900001Y-75700001D03*
%TD*%
M02*
