<?xml version="1.0" encoding="UTF-8"?>
<svg width="32px" height="32px" viewBox="0 0 32 32" version="1.1" xmlns="http://www.w3.org/2000/svg" xmlns:xlink="http://www.w3.org/1999/xlink">
    <title>Arrow Right</title>
    <g id="Arrow-Right" stroke="none" stroke-width="1" fill="none" fill-rule="evenodd">
        <path d="M16,0 C24.836556,0 32,7.163444 32,16 C32,24.836556 24.836556,32 16,32 C7.163444,32 0,24.836556 0,16 C0,7.163444 7.163444,0 16,0 Z M19.6128994,11.2097046 C19.2206082,10.9046797 18.6533772,10.9324093 18.2928932,11.2928932 L18.2928932,11.2928932 L18.2097046,11.3871006 C17.9046797,11.7793918 17.9324093,12.3466228 18.2928932,12.7071068 L18.2928932,12.7071068 L20.585,15 L9,15 L8.88337887,15.0067277 C8.38604019,15.0644928 8,15.4871642 8,16 C8,16.5522847 8.44771525,17 9,17 L9,17 L20.585,17 L18.2928932,19.2928932 L18.2097046,19.3871006 C17.9046797,19.7793918 17.9324093,20.3466228 18.2928932,20.7071068 C18.6834175,21.0976311 19.3165825,21.0976311 19.7071068,20.7071068 L19.7071068,20.7071068 L23.7071068,16.7071068 L23.7803112,16.625449 C23.7826279,16.6225624 23.7849289,16.6196628 23.7902954,16.6128994 C23.7948255,16.6070733 23.7992821,16.6012086 23.8036865,16.5951593 C23.8215099,16.5711307 23.8382813,16.546275 23.8540045,16.5207088 C23.8613931,16.5086131 23.8685012,16.4963944 23.8751242,16.484277 C23.8862061,16.4642939 23.8966234,16.4438914 23.9063266,16.4232215 L23.9063266,16.4232215 L23.928896,16.3710585 C23.9366843,16.3515792 23.9438775,16.3317977 23.9502619,16.3121425 C23.9552713,16.2968513 23.9599023,16.2814633 23.964279,16.2658396 C23.9701664,16.2444365 23.9753602,16.2227461 23.9797599,16.2007258 C23.9832978,16.1833753 23.9863719,16.165949 23.9889807,16.1489612 L23.9889807,16.1489612 L23.996384,16.0852242 L23.996384,16.0852242 L24,16 C24,15.9888734 23.9998183,15.9777892 23.9994829,15.9677454 C23.9989053,15.9497336 23.9978436,15.9317345 23.9962623,15.912935 C23.9944666,15.892114 23.9920328,15.8714753 23.9889822,15.8515331 C23.9863719,15.834051 23.9832978,15.8166247 23.9798348,15.7992059 C23.9753602,15.7772539 23.9701664,15.7555635 23.9641549,15.734007 C23.9599023,15.7185367 23.9552713,15.7031487 23.9504533,15.6882636 C23.9438775,15.6682023 23.9366843,15.6484208 23.9287745,15.628664 L23.9287745,15.628664 L23.9063462,15.5769009 C23.8966234,15.5561086 23.8862061,15.5357061 23.8753288,15.5159379 L23.8753288,15.5159379 L23.8539326,15.4793398 C23.8382813,15.453725 23.8215099,15.4288693 23.8036654,15.4046934 L23.8036654,15.4046934 L23.779,15.374 L23.787214,15.3832499 L23.787214,15.3832499 L23.757,15.347 L23.7485042,15.336853 L23.7485042,15.336853 L23.7071068,15.2928932 L19.7071068,11.2928932 Z" id="Combined-Shape" fill="#FFFFFF"></path>
    </g>
</svg>