<?xml version="1.0" encoding="UTF-8"?>
<svg width="32px" height="32px" viewBox="0 0 32 32" version="1.1" xmlns="http://www.w3.org/2000/svg" xmlns:xlink="http://www.w3.org/1999/xlink">
    <title>Arrow Left</title>
    <g id="Arrow-Left" stroke="none" stroke-width="1" fill="none" fill-rule="evenodd">
        <path d="M16,0 C24.836556,0 32,7.163444 32,16 C32,24.836556 24.836556,32 16,32 C7.163444,32 0,24.836556 0,16 C0,7.163444 7.163444,0 16,0 Z M13.7071068,11.2928932 C13.3165825,10.9023689 12.6834175,10.9023689 12.2928932,11.2928932 L12.2928932,11.2928932 L8.29289322,15.2928932 C8.26442691,15.3213595 8.23766884,15.3515341 8.20970461,15.3871006 C8.20517454,15.3929267 8.20071786,15.3987914 8.19631351,15.4048407 C8.17849009,15.4288693 8.1617187,15.453725 8.14599545,15.4792912 C8.13860692,15.4913869 8.13149883,15.5036056 8.12487577,15.515723 C8.11379392,15.5357061 8.10337664,15.5561086 8.09367336,15.5767785 L8.09367336,15.5767785 L8.07110396,15.6289415 C8.06331574,15.6484208 8.05612249,15.6682023 8.04973809,15.6878575 C8.04472872,15.7031487 8.04009773,15.7185367 8.03572097,15.7341604 C8.02983363,15.7555635 8.0246398,15.7772539 8.02024007,15.7992742 C8.01670217,15.8166247 8.01362808,15.834051 8.01101934,15.8510388 L8.01101934,15.8510388 L8.003,15.918 L8.001,15.981 L8.001,15.946 L8.00016755,15.9816379 L8.00018615,16.0193545 C8.00063489,16.042681 8.00189498,16.0659949 8.00397748,16.0898018 C8.00574796,16.1096949 8.00810098,16.1294204 8.0110178,16.1484669 C8.01362808,16.165949 8.01670217,16.1833753 8.02016515,16.2007941 C8.0246398,16.2227461 8.02983363,16.2444365 8.03584514,16.265993 C8.04009773,16.2814633 8.04472872,16.2968513 8.04954668,16.3117364 C8.05612249,16.3317977 8.06331574,16.3515792 8.07122549,16.371336 L8.07122549,16.371336 L8.09365378,16.4230991 C8.10337664,16.4438914 8.11379392,16.4642939 8.12467117,16.4840621 L8.12467117,16.4840621 L8.14606743,16.5206602 C8.1617187,16.546275 8.17849009,16.5711307 8.19633458,16.5953066 L8.19633458,16.5953066 L8.22,16.625 L8.29289322,16.7071068 L12.2928932,20.7071068 L12.3871006,20.7902954 C12.7793918,21.0953203 13.3466228,21.0675907 13.7071068,20.7071068 L13.7071068,20.7071068 L13.7902954,20.6128994 C14.0953203,20.2206082 14.0675907,19.6533772 13.7071068,19.2928932 L13.7071068,19.2928932 L11.415,17 L23,17 L23.1166211,16.9932723 C23.6139598,16.9355072 24,16.5128358 24,16 C24,15.4477153 23.5522847,15 23,15 L23,15 L11.415,15 L13.7071068,12.7071068 L13.7902954,12.6128994 C14.0953203,12.2206082 14.0675907,11.6533772 13.7071068,11.2928932 Z" id="Combined-Shape" fill="#FFFFFF"></path>
    </g>
</svg>