<?xml version="1.0" encoding="UTF-8"?>
<svg width="32px" height="32px" viewBox="0 0 32 32" version="1.1" xmlns="http://www.w3.org/2000/svg" xmlns:xlink="http://www.w3.org/1999/xlink">
    <title>Check</title>
    <g id="Check" stroke="none" stroke-width="1" fill="none" fill-rule="evenodd">
        <path d="M16,0 C24.836556,0 32,7.163444 32,16 C32,24.836556 24.836556,32 16,32 C7.163444,32 0,24.836556 0,16 C0,7.163444 7.163444,0 16,0 Z M22.7071068,11.2928932 C22.3165825,10.9023689 21.6834175,10.9023689 21.2928932,11.2928932 L21.2928932,11.2928932 L14,18.585 L10.7071068,15.2928932 L10.6128994,15.2097046 C10.2206082,14.9046797 9.65337718,14.9324093 9.29289322,15.2928932 C8.90236893,15.6834175 8.90236893,16.3165825 9.29289322,16.7071068 L9.29289322,16.7071068 L13.2928932,20.7071068 L13.3871006,20.7902954 C13.7793918,21.0953203 14.3466228,21.0675907 14.7071068,20.7071068 L14.7071068,20.7071068 L22.7071068,12.7071068 L22.7902954,12.6128994 C23.0953203,12.2206082 23.0675907,11.6533772 22.7071068,11.2928932 Z" id="Combined-Shape" fill="#FFFFFF"></path>
    </g>
</svg>