<?xml version="1.0" encoding="UTF-8"?>
<svg width="32px" height="32px" viewBox="0 0 32 32" version="1.1" xmlns="http://www.w3.org/2000/svg" xmlns:xlink="http://www.w3.org/1999/xlink">
    <title>Cross</title>
    <g id="Cross" stroke="none" stroke-width="1" fill="none" fill-rule="evenodd">
        <path d="M16,0 C24.836556,0 32,7.163444 32,16 C32,24.836556 24.836556,32 16,32 C7.163444,32 0,24.836556 0,16 C0,7.163444 7.163444,0 16,0 Z M11.6128994,10.2097046 C11.2206082,9.90467972 10.6533772,9.93240926 10.2928932,10.2928932 C9.90236893,10.6834175 9.90236893,11.3165825 10.2928932,11.7071068 L10.2928932,11.7071068 L14.585,16 L10.2928932,20.2928932 L10.2097046,20.3871006 C9.90467972,20.7793918 9.93240926,21.3466228 10.2928932,21.7071068 C10.6834175,22.0976311 11.3165825,22.0976311 11.7071068,21.7071068 L11.7071068,21.7071068 L16,17.415 L20.2928932,21.7071068 L20.3871006,21.7902954 C20.7793918,22.0953203 21.3466228,22.0675907 21.7071068,21.7071068 C22.0976311,21.3165825 22.0976311,20.6834175 21.7071068,20.2928932 L21.7071068,20.2928932 L17.415,16 L21.7071068,11.7071068 L21.7902954,11.6128994 C22.0953203,11.2206082 22.0675907,10.6533772 21.7071068,10.2928932 C21.3165825,9.90236893 20.6834175,9.90236893 20.2928932,10.2928932 L20.2928932,10.2928932 L16,14.585 L11.7071068,10.2928932 Z" id="Combined-Shape" fill="#FFFFFF"></path>
    </g>
</svg>