<?xml version="1.0" encoding="UTF-8"?>
<svg width="32px" height="32px" viewBox="0 0 32 32" version="1.1" xmlns="http://www.w3.org/2000/svg" xmlns:xlink="http://www.w3.org/1999/xlink">
    <title>Hamburger</title>
    <g id="Hamburger" stroke="none" stroke-width="1" fill="none" fill-rule="evenodd">
        <path d="M16,0 C24.836556,0 32,7.163444 32,16 C32,24.836556 24.836556,32 16,32 C7.163444,32 0,24.836556 0,16 C0,7.163444 7.163444,0 16,0 Z M21,19 L11,19 L10.8833789,19.0067277 C10.3860402,19.0644928 10,19.4871642 10,20 C10,20.5522847 10.4477153,21 11,21 L11,21 L21,21 L21.1166211,20.9932723 C21.6139598,20.9355072 22,20.5128358 22,20 C22,19.4477153 21.5522847,19 21,19 L21,19 Z M21,15 L11,15 L10.8833789,15.0067277 C10.3860402,15.0644928 10,15.4871642 10,16 C10,16.5522847 10.4477153,17 11,17 L11,17 L21,17 L21.1166211,16.9932723 C21.6139598,16.9355072 22,16.5128358 22,16 C22,15.4477153 21.5522847,15 21,15 L21,15 Z M21,11 L11,11 L10.8833789,11.0067277 C10.3860402,11.0644928 10,11.4871642 10,12 C10,12.5522847 10.4477153,13 11,13 L11,13 L21,13 L21.1166211,12.9932723 C21.6139598,12.9355072 22,12.5128358 22,12 C22,11.4477153 21.5522847,11 21,11 L21,11 Z" id="Combined-Shape" fill="#FFFFFF"></path>
    </g>
</svg>