<?xml version="1.0" encoding="UTF-8"?>
<svg width="32px" height="32px" viewBox="0 0 32 32" version="1.1" xmlns="http://www.w3.org/2000/svg" xmlns:xlink="http://www.w3.org/1999/xlink">
    <title>Home</title>
    <g id="Home" stroke="none" stroke-width="1" fill="none" fill-rule="evenodd">
        <path d="M16,0 C24.836556,0 32,7.163444 32,16 C32,24.836556 24.836556,32 16,32 C7.163444,32 0,24.836556 0,16 C0,7.163444 7.163444,0 16,0 Z M16.6128994,8.20970461 C16.2206082,7.90467972 15.6533772,7.93240926 15.2928932,8.29289322 L15.2928932,8.29289322 L8.29289322,15.2928932 L8.20970461,15.3871006 C7.90467972,15.7793918 7.93240926,16.3466228 8.29289322,16.7071068 L8.29289322,16.7071068 L8.38710056,16.7902954 C8.77939176,17.0953203 9.34662282,17.0675907 9.70710678,16.7071068 L9.70710678,16.7071068 L10,16.414 L10,22 L10.0067277,22.1166211 C10.0644928,22.6139598 10.4871642,23 11,23 L11,23 L21,23 L21.1166211,22.9932723 C21.6139598,22.9355072 22,22.5128358 22,22 L22,22 L22,16.415 L22.2928932,16.7071068 L22.3871006,16.7902954 C22.7793918,17.0953203 23.3466228,17.0675907 23.7071068,16.7071068 C24.0976311,16.3165825 24.0976311,15.6834175 23.7071068,15.2928932 L23.7071068,15.2928932 L22,13.585 L22,11 L21.9932723,10.8833789 C21.9355072,10.3860402 21.5128358,10 21,10 L21,10 L20.8833789,10.0067277 C20.3860402,10.0644928 20,10.4871642 20,11 L20,11 L20,11.585 L16.7071068,8.29289322 Z M16,10.415 L20,14.415 L20,21 L12,21 L12,14.414 L16,10.415 Z" id="Combined-Shape" fill="#FFFFFF"></path>
    </g>
</svg>