<?xml version="1.0" encoding="UTF-8"?>
<svg width="32px" height="32px" viewBox="0 0 32 32" version="1.1" xmlns="http://www.w3.org/2000/svg" xmlns:xlink="http://www.w3.org/1999/xlink">
    <title>Triangle Left</title>
    <g id="Triangle-Left" stroke="none" stroke-width="1" fill="none" fill-rule="evenodd">
        <path d="M16,0 C24.836556,0 32,7.163444 32,16 C32,24.836556 24.836556,32 16,32 C7.163444,32 0,24.836556 0,16 C0,7.163444 7.163444,0 16,0 Z M18.7071068,9.29289322 C18.3165825,8.90236893 17.6834175,8.90236893 17.2928932,9.29289322 L17.2928932,9.29289322 L11.2928932,15.2928932 L11.2097046,15.3871006 C10.9046797,15.7793918 10.9324093,16.3466228 11.2928932,16.7071068 L11.2928932,16.7071068 L17.2928932,22.7071068 L17.3871006,22.7902954 C17.7793918,23.0953203 18.3466228,23.0675907 18.7071068,22.7071068 L18.7071068,22.7071068 L18.7902954,22.6128994 C19.0953203,22.2206082 19.0675907,21.6533772 18.7071068,21.2928932 L18.7071068,21.2928932 L13.415,16 L18.7071068,10.7071068 L18.7902954,10.6128994 C19.0953203,10.2206082 19.0675907,9.65337718 18.7071068,9.29289322 Z" id="Combined-Shape" fill="#FFFFFF"></path>
    </g>
</svg>