<?xml version="1.0" encoding="UTF-8"?>
<svg width="32px" height="32px" viewBox="0 0 32 32" version="1.1" xmlns="http://www.w3.org/2000/svg" xmlns:xlink="http://www.w3.org/1999/xlink">
    <title>Triangle Right</title>
    <g id="Triangle-Right" stroke="none" stroke-width="1" fill="none" fill-rule="evenodd">
        <path d="M16,0 C24.836556,0 32,7.163444 32,16 C32,24.836556 24.836556,32 16,32 C7.163444,32 0,24.836556 0,16 C0,7.163444 7.163444,0 16,0 Z M14.6128994,9.20970461 C14.2206082,8.90467972 13.6533772,8.93240926 13.2928932,9.29289322 L13.2928932,9.29289322 L13.2097046,9.38710056 C12.9046797,9.77939176 12.9324093,10.3466228 13.2928932,10.7071068 L13.2928932,10.7071068 L18.585,16 L13.2928932,21.2928932 L13.2097046,21.3871006 C12.9046797,21.7793918 12.9324093,22.3466228 13.2928932,22.7071068 C13.6834175,23.0976311 14.3165825,23.0976311 14.7071068,22.7071068 L14.7071068,22.7071068 L20.7071068,16.7071068 L20.7902954,16.6128994 C21.0953203,16.2206082 21.0675907,15.6533772 20.7071068,15.2928932 L20.7071068,15.2928932 L14.7071068,9.29289322 Z" id="Combined-Shape" fill="#FFFFFF"></path>
    </g>
</svg>