%TF.GenerationSoftware,KiCad,Pcbnew,(5.1.5)-3*%
%TF.CreationDate,2020-06-01T13:14:26+02:00*%
%TF.ProjectId,panel,70616e65-6c2e-46b6-9963-61645f706362,rev?*%
%TF.SameCoordinates,PX29f6300PYff95b00*%
%TF.FileFunction,Other,User*%
%FSLAX46Y46*%
G04 Gerber Fmt 4.6, Leading zero omitted, Abs format (unit mm)*
G04 Created by KiCad (PCBNEW (5.1.5)-3) date 2020-06-01 13:14:26*
%MOMM*%
%LPD*%
G04 APERTURE LIST*
%ADD10C,0.050000*%
G04 APERTURE END LIST*
D10*
%TO.C,J1*%
X163550009Y35199951D02*
X163550009Y43849951D01*
X154500009Y35199951D02*
X163550009Y35199951D01*
X154500009Y43849951D02*
X154500009Y35199951D01*
X163550009Y43849951D02*
X154500009Y43849951D01*
%TO.C,J2*%
X155700009Y31719951D02*
X155700009Y22279951D01*
X148900009Y31719951D02*
X155700009Y31719951D01*
X148900009Y22279951D02*
X148900009Y31719951D01*
X155700009Y22279951D02*
X148900009Y22279951D01*
%TO.C,J3*%
X162300009Y22279951D02*
X162300009Y31719951D01*
X169100009Y22279951D02*
X162300009Y22279951D01*
X169100009Y31719951D02*
X169100009Y22279951D01*
X162300009Y31719951D02*
X169100009Y31719951D01*
%TO.C,REF\002A\002A*%
X136850009Y15999951D02*
G75*
G03X136850009Y15999951I-1250000J0D01*
G01*
X168050009Y26999951D02*
G75*
G03X168050009Y26999951I-1250000J0D01*
G01*
%TO.C,J1*%
X60550001Y35199951D02*
X60550001Y43849951D01*
X51500001Y35199951D02*
X60550001Y35199951D01*
X51500001Y43849951D02*
X51500001Y35199951D01*
X60550001Y43849951D02*
X51500001Y43849951D01*
%TO.C,J2*%
X52700001Y31719951D02*
X52700001Y22279951D01*
X45900001Y31719951D02*
X52700001Y31719951D01*
X45900001Y22279951D02*
X45900001Y31719951D01*
X52700001Y22279951D02*
X45900001Y22279951D01*
%TO.C,J3*%
X59300001Y22279951D02*
X59300001Y31719951D01*
X66100001Y22279951D02*
X59300001Y22279951D01*
X66100001Y31719951D02*
X66100001Y22279951D01*
X59300001Y31719951D02*
X66100001Y31719951D01*
%TO.C,REF\002A\002A*%
X33850001Y15999951D02*
G75*
G03X33850001Y15999951I-1250000J0D01*
G01*
X65050001Y26999951D02*
G75*
G03X65050001Y26999951I-1250000J0D01*
G01*
%TO.C,J1*%
X163550009Y78199963D02*
X163550009Y86849963D01*
X154500009Y78199963D02*
X163550009Y78199963D01*
X154500009Y86849963D02*
X154500009Y78199963D01*
X163550009Y86849963D02*
X154500009Y86849963D01*
%TO.C,J2*%
X155700009Y74719963D02*
X155700009Y65279963D01*
X148900009Y74719963D02*
X155700009Y74719963D01*
X148900009Y65279963D02*
X148900009Y74719963D01*
X155700009Y65279963D02*
X148900009Y65279963D01*
%TO.C,J3*%
X162300009Y65279963D02*
X162300009Y74719963D01*
X169100009Y65279963D02*
X162300009Y65279963D01*
X169100009Y74719963D02*
X169100009Y65279963D01*
X162300009Y74719963D02*
X169100009Y74719963D01*
%TO.C,REF\002A\002A*%
X136850009Y58999963D02*
G75*
G03X136850009Y58999963I-1250000J0D01*
G01*
X168050009Y69999963D02*
G75*
G03X168050009Y69999963I-1250000J0D01*
G01*
%TO.C,J1*%
X60550001Y78199963D02*
X60550001Y86849963D01*
X51500001Y78199963D02*
X60550001Y78199963D01*
X51500001Y86849963D02*
X51500001Y78199963D01*
X60550001Y86849963D02*
X51500001Y86849963D01*
%TO.C,J2*%
X52700001Y74719963D02*
X52700001Y65279963D01*
X45900001Y74719963D02*
X52700001Y74719963D01*
X45900001Y65279963D02*
X45900001Y74719963D01*
X52700001Y65279963D02*
X45900001Y65279963D01*
%TO.C,J3*%
X59300001Y65279963D02*
X59300001Y74719963D01*
X66100001Y65279963D02*
X59300001Y65279963D01*
X66100001Y74719963D02*
X66100001Y65279963D01*
X59300001Y74719963D02*
X66100001Y74719963D01*
%TO.C,REF\002A\002A*%
X33850001Y58999963D02*
G75*
G03X33850001Y58999963I-1250000J0D01*
G01*
X65050001Y69999963D02*
G75*
G03X65050001Y69999963I-1250000J0D01*
G01*
%TO.C,J1*%
X163550009Y121199975D02*
X163550009Y129849975D01*
X154500009Y121199975D02*
X163550009Y121199975D01*
X154500009Y129849975D02*
X154500009Y121199975D01*
X163550009Y129849975D02*
X154500009Y129849975D01*
%TO.C,J2*%
X155700009Y117719975D02*
X155700009Y108279975D01*
X148900009Y117719975D02*
X155700009Y117719975D01*
X148900009Y108279975D02*
X148900009Y117719975D01*
X155700009Y108279975D02*
X148900009Y108279975D01*
%TO.C,J3*%
X162300009Y108279975D02*
X162300009Y117719975D01*
X169100009Y108279975D02*
X162300009Y108279975D01*
X169100009Y117719975D02*
X169100009Y108279975D01*
X162300009Y117719975D02*
X169100009Y117719975D01*
%TO.C,REF\002A\002A*%
X136850009Y101999975D02*
G75*
G03X136850009Y101999975I-1250000J0D01*
G01*
X168050009Y112999975D02*
G75*
G03X168050009Y112999975I-1250000J0D01*
G01*
%TO.C,J1*%
X60550001Y121199975D02*
X60550001Y129849975D01*
X51500001Y121199975D02*
X60550001Y121199975D01*
X51500001Y129849975D02*
X51500001Y121199975D01*
X60550001Y129849975D02*
X51500001Y129849975D01*
%TO.C,J2*%
X52700001Y117719975D02*
X52700001Y108279975D01*
X45900001Y117719975D02*
X52700001Y117719975D01*
X45900001Y108279975D02*
X45900001Y117719975D01*
X52700001Y108279975D02*
X45900001Y108279975D01*
%TO.C,J3*%
X59300001Y108279975D02*
X59300001Y117719975D01*
X66100001Y108279975D02*
X59300001Y108279975D01*
X66100001Y117719975D02*
X66100001Y108279975D01*
X59300001Y117719975D02*
X66100001Y117719975D01*
%TO.C,REF\002A\002A*%
X33850001Y101999975D02*
G75*
G03X33850001Y101999975I-1250000J0D01*
G01*
X65050001Y112999975D02*
G75*
G03X65050001Y112999975I-1250000J0D01*
G01*
%TO.C,J1*%
X163550009Y164199987D02*
X163550009Y172849987D01*
X154500009Y164199987D02*
X163550009Y164199987D01*
X154500009Y172849987D02*
X154500009Y164199987D01*
X163550009Y172849987D02*
X154500009Y172849987D01*
%TO.C,J2*%
X155700009Y160719987D02*
X155700009Y151279987D01*
X148900009Y160719987D02*
X155700009Y160719987D01*
X148900009Y151279987D02*
X148900009Y160719987D01*
X155700009Y151279987D02*
X148900009Y151279987D01*
%TO.C,J3*%
X162300009Y151279987D02*
X162300009Y160719987D01*
X169100009Y151279987D02*
X162300009Y151279987D01*
X169100009Y160719987D02*
X169100009Y151279987D01*
X162300009Y160719987D02*
X169100009Y160719987D01*
%TO.C,REF\002A\002A*%
X136850009Y144999987D02*
G75*
G03X136850009Y144999987I-1250000J0D01*
G01*
X168050009Y155999987D02*
G75*
G03X168050009Y155999987I-1250000J0D01*
G01*
%TO.C,J1*%
X60550001Y164199987D02*
X60550001Y172849987D01*
X51500001Y164199987D02*
X60550001Y164199987D01*
X51500001Y172849987D02*
X51500001Y164199987D01*
X60550001Y172849987D02*
X51500001Y172849987D01*
%TO.C,J2*%
X52700001Y160719987D02*
X52700001Y151279987D01*
X45900001Y160719987D02*
X52700001Y160719987D01*
X45900001Y151279987D02*
X45900001Y160719987D01*
X52700001Y151279987D02*
X45900001Y151279987D01*
%TO.C,J3*%
X59300001Y151279987D02*
X59300001Y160719987D01*
X66100001Y151279987D02*
X59300001Y151279987D01*
X66100001Y160719987D02*
X66100001Y151279987D01*
X59300001Y160719987D02*
X66100001Y160719987D01*
%TO.C,REF\002A\002A*%
X33850001Y144999987D02*
G75*
G03X33850001Y144999987I-1250000J0D01*
G01*
X65050001Y155999987D02*
G75*
G03X65050001Y155999987I-1250000J0D01*
G01*
%TO.C,J1*%
X163550009Y207199999D02*
X163550009Y215849999D01*
X154500009Y207199999D02*
X163550009Y207199999D01*
X154500009Y215849999D02*
X154500009Y207199999D01*
X163550009Y215849999D02*
X154500009Y215849999D01*
%TO.C,J2*%
X155700009Y203719999D02*
X155700009Y194279999D01*
X148900009Y203719999D02*
X155700009Y203719999D01*
X148900009Y194279999D02*
X148900009Y203719999D01*
X155700009Y194279999D02*
X148900009Y194279999D01*
%TO.C,J3*%
X162300009Y194279999D02*
X162300009Y203719999D01*
X169100009Y194279999D02*
X162300009Y194279999D01*
X169100009Y203719999D02*
X169100009Y194279999D01*
X162300009Y203719999D02*
X169100009Y203719999D01*
%TO.C,REF\002A\002A*%
X136850009Y187999999D02*
G75*
G03X136850009Y187999999I-1250000J0D01*
G01*
X168050009Y198999999D02*
G75*
G03X168050009Y198999999I-1250000J0D01*
G01*
%TO.C,J1*%
X60550001Y207199999D02*
X60550001Y215849999D01*
X51500001Y207199999D02*
X60550001Y207199999D01*
X51500001Y215849999D02*
X51500001Y207199999D01*
X60550001Y215849999D02*
X51500001Y215849999D01*
%TO.C,J2*%
X52700001Y203719999D02*
X52700001Y194279999D01*
X45900001Y203719999D02*
X52700001Y203719999D01*
X45900001Y194279999D02*
X45900001Y203719999D01*
X52700001Y194279999D02*
X45900001Y194279999D01*
%TO.C,J3*%
X59300001Y194279999D02*
X59300001Y203719999D01*
X66100001Y194279999D02*
X59300001Y194279999D01*
X66100001Y203719999D02*
X66100001Y194279999D01*
X59300001Y203719999D02*
X66100001Y203719999D01*
%TO.C,REF\002A\002A*%
X33850001Y187999999D02*
G75*
G03X33850001Y187999999I-1250000J0D01*
G01*
X65050001Y198999999D02*
G75*
G03X65050001Y198999999I-1250000J0D01*
G01*
%TD*%
M02*
