%TF.GenerationSoftware,KiCad,Pcbnew,(5.1.5)-3*%
%TF.CreationDate,2020-06-01T13:14:26+02:00*%
%TF.ProjectId,panel,70616e65-6c2e-46b6-9963-61645f706362,rev?*%
%TF.SameCoordinates,PX29f6300PYff95b00*%
%TF.FileFunction,Paste,Bot*%
%TF.FilePolarity,Positive*%
%FSLAX46Y46*%
G04 Gerber Fmt 4.6, Leading zero omitted, Abs format (unit mm)*
G04 Created by KiCad (PCBNEW (5.1.5)-3) date 2020-06-01 13:14:26*
%MOMM*%
%LPD*%
G04 APERTURE LIST*
%ADD10R,3.000000X1.000000*%
%ADD11C,0.150000*%
%ADD12R,0.600000X2.500000*%
G04 APERTURE END LIST*
D10*
%TO.C,J1*%
X156480009Y42039951D03*
X161520009Y42039951D03*
X156480009Y39499951D03*
X161520009Y39499951D03*
X156480009Y36959951D03*
X161520009Y36959951D03*
%TD*%
D11*
%TO.C,J2*%
G36*
X155019612Y26773988D02*
G01*
X155039027Y26771108D01*
X155058066Y26766339D01*
X155076546Y26759727D01*
X155094288Y26751335D01*
X155111123Y26741245D01*
X155126888Y26729553D01*
X155141430Y26716372D01*
X155154611Y26701830D01*
X155166303Y26686065D01*
X155176393Y26669230D01*
X155184785Y26651488D01*
X155191397Y26633008D01*
X155196166Y26613969D01*
X155199046Y26594554D01*
X155200009Y26574951D01*
X155200009Y26174951D01*
X155199046Y26155348D01*
X155196166Y26135933D01*
X155191397Y26116894D01*
X155184785Y26098414D01*
X155176393Y26080672D01*
X155166303Y26063837D01*
X155154611Y26048072D01*
X155141430Y26033530D01*
X155126888Y26020349D01*
X155111123Y26008657D01*
X155094288Y25998567D01*
X155076546Y25990175D01*
X155058066Y25983563D01*
X155039027Y25978794D01*
X155019612Y25975914D01*
X155000009Y25974951D01*
X153800009Y25974951D01*
X153780406Y25975914D01*
X153760991Y25978794D01*
X153741952Y25983563D01*
X153723472Y25990175D01*
X153705730Y25998567D01*
X153688895Y26008657D01*
X153673130Y26020349D01*
X153658588Y26033530D01*
X153645407Y26048072D01*
X153633715Y26063837D01*
X153623625Y26080672D01*
X153615233Y26098414D01*
X153608621Y26116894D01*
X153603852Y26135933D01*
X153600972Y26155348D01*
X153600009Y26174951D01*
X153600009Y26574951D01*
X153600972Y26594554D01*
X153603852Y26613969D01*
X153608621Y26633008D01*
X153615233Y26651488D01*
X153623625Y26669230D01*
X153633715Y26686065D01*
X153645407Y26701830D01*
X153658588Y26716372D01*
X153673130Y26729553D01*
X153688895Y26741245D01*
X153705730Y26751335D01*
X153723472Y26759727D01*
X153741952Y26766339D01*
X153760991Y26771108D01*
X153780406Y26773988D01*
X153800009Y26774951D01*
X155000009Y26774951D01*
X155019612Y26773988D01*
G37*
G36*
X155019612Y28023988D02*
G01*
X155039027Y28021108D01*
X155058066Y28016339D01*
X155076546Y28009727D01*
X155094288Y28001335D01*
X155111123Y27991245D01*
X155126888Y27979553D01*
X155141430Y27966372D01*
X155154611Y27951830D01*
X155166303Y27936065D01*
X155176393Y27919230D01*
X155184785Y27901488D01*
X155191397Y27883008D01*
X155196166Y27863969D01*
X155199046Y27844554D01*
X155200009Y27824951D01*
X155200009Y27424951D01*
X155199046Y27405348D01*
X155196166Y27385933D01*
X155191397Y27366894D01*
X155184785Y27348414D01*
X155176393Y27330672D01*
X155166303Y27313837D01*
X155154611Y27298072D01*
X155141430Y27283530D01*
X155126888Y27270349D01*
X155111123Y27258657D01*
X155094288Y27248567D01*
X155076546Y27240175D01*
X155058066Y27233563D01*
X155039027Y27228794D01*
X155019612Y27225914D01*
X155000009Y27224951D01*
X153800009Y27224951D01*
X153780406Y27225914D01*
X153760991Y27228794D01*
X153741952Y27233563D01*
X153723472Y27240175D01*
X153705730Y27248567D01*
X153688895Y27258657D01*
X153673130Y27270349D01*
X153658588Y27283530D01*
X153645407Y27298072D01*
X153633715Y27313837D01*
X153623625Y27330672D01*
X153615233Y27348414D01*
X153608621Y27366894D01*
X153603852Y27385933D01*
X153600972Y27405348D01*
X153600009Y27424951D01*
X153600009Y27824951D01*
X153600972Y27844554D01*
X153603852Y27863969D01*
X153608621Y27883008D01*
X153615233Y27901488D01*
X153623625Y27919230D01*
X153633715Y27936065D01*
X153645407Y27951830D01*
X153658588Y27966372D01*
X153673130Y27979553D01*
X153688895Y27991245D01*
X153705730Y28001335D01*
X153723472Y28009727D01*
X153741952Y28016339D01*
X153760991Y28021108D01*
X153780406Y28023988D01*
X153800009Y28024951D01*
X155000009Y28024951D01*
X155019612Y28023988D01*
G37*
G36*
X152774513Y24873747D02*
G01*
X152798782Y24870147D01*
X152822580Y24864186D01*
X152845680Y24855921D01*
X152867858Y24845431D01*
X152888902Y24832818D01*
X152908607Y24818204D01*
X152926786Y24801728D01*
X152943262Y24783549D01*
X152957876Y24763844D01*
X152970489Y24742800D01*
X152980979Y24720622D01*
X152989244Y24697522D01*
X152995205Y24673724D01*
X152998805Y24649455D01*
X153000009Y24624951D01*
X153000009Y23024951D01*
X152998805Y23000447D01*
X152995205Y22976178D01*
X152989244Y22952380D01*
X152980979Y22929280D01*
X152970489Y22907102D01*
X152957876Y22886058D01*
X152943262Y22866353D01*
X152926786Y22848174D01*
X152908607Y22831698D01*
X152888902Y22817084D01*
X152867858Y22804471D01*
X152845680Y22793981D01*
X152822580Y22785716D01*
X152798782Y22779755D01*
X152774513Y22776155D01*
X152750009Y22774951D01*
X150250009Y22774951D01*
X150225505Y22776155D01*
X150201236Y22779755D01*
X150177438Y22785716D01*
X150154338Y22793981D01*
X150132160Y22804471D01*
X150111116Y22817084D01*
X150091411Y22831698D01*
X150073232Y22848174D01*
X150056756Y22866353D01*
X150042142Y22886058D01*
X150029529Y22907102D01*
X150019039Y22929280D01*
X150010774Y22952380D01*
X150004813Y22976178D01*
X150001213Y23000447D01*
X150000009Y23024951D01*
X150000009Y24624951D01*
X150001213Y24649455D01*
X150004813Y24673724D01*
X150010774Y24697522D01*
X150019039Y24720622D01*
X150029529Y24742800D01*
X150042142Y24763844D01*
X150056756Y24783549D01*
X150073232Y24801728D01*
X150091411Y24818204D01*
X150111116Y24832818D01*
X150132160Y24845431D01*
X150154338Y24855921D01*
X150177438Y24864186D01*
X150201236Y24870147D01*
X150225505Y24873747D01*
X150250009Y24874951D01*
X152750009Y24874951D01*
X152774513Y24873747D01*
G37*
G36*
X152774513Y31223747D02*
G01*
X152798782Y31220147D01*
X152822580Y31214186D01*
X152845680Y31205921D01*
X152867858Y31195431D01*
X152888902Y31182818D01*
X152908607Y31168204D01*
X152926786Y31151728D01*
X152943262Y31133549D01*
X152957876Y31113844D01*
X152970489Y31092800D01*
X152980979Y31070622D01*
X152989244Y31047522D01*
X152995205Y31023724D01*
X152998805Y30999455D01*
X153000009Y30974951D01*
X153000009Y29374951D01*
X152998805Y29350447D01*
X152995205Y29326178D01*
X152989244Y29302380D01*
X152980979Y29279280D01*
X152970489Y29257102D01*
X152957876Y29236058D01*
X152943262Y29216353D01*
X152926786Y29198174D01*
X152908607Y29181698D01*
X152888902Y29167084D01*
X152867858Y29154471D01*
X152845680Y29143981D01*
X152822580Y29135716D01*
X152798782Y29129755D01*
X152774513Y29126155D01*
X152750009Y29124951D01*
X150250009Y29124951D01*
X150225505Y29126155D01*
X150201236Y29129755D01*
X150177438Y29135716D01*
X150154338Y29143981D01*
X150132160Y29154471D01*
X150111116Y29167084D01*
X150091411Y29181698D01*
X150073232Y29198174D01*
X150056756Y29216353D01*
X150042142Y29236058D01*
X150029529Y29257102D01*
X150019039Y29279280D01*
X150010774Y29302380D01*
X150004813Y29326178D01*
X150001213Y29350447D01*
X150000009Y29374951D01*
X150000009Y30974951D01*
X150001213Y30999455D01*
X150004813Y31023724D01*
X150010774Y31047522D01*
X150019039Y31070622D01*
X150029529Y31092800D01*
X150042142Y31113844D01*
X150056756Y31133549D01*
X150073232Y31151728D01*
X150091411Y31168204D01*
X150111116Y31182818D01*
X150132160Y31195431D01*
X150154338Y31205921D01*
X150177438Y31214186D01*
X150201236Y31220147D01*
X150225505Y31223747D01*
X150250009Y31224951D01*
X152750009Y31224951D01*
X152774513Y31223747D01*
G37*
%TD*%
%TO.C,J3*%
G36*
X164219612Y28023988D02*
G01*
X164239027Y28021108D01*
X164258066Y28016339D01*
X164276546Y28009727D01*
X164294288Y28001335D01*
X164311123Y27991245D01*
X164326888Y27979553D01*
X164341430Y27966372D01*
X164354611Y27951830D01*
X164366303Y27936065D01*
X164376393Y27919230D01*
X164384785Y27901488D01*
X164391397Y27883008D01*
X164396166Y27863969D01*
X164399046Y27844554D01*
X164400009Y27824951D01*
X164400009Y27424951D01*
X164399046Y27405348D01*
X164396166Y27385933D01*
X164391397Y27366894D01*
X164384785Y27348414D01*
X164376393Y27330672D01*
X164366303Y27313837D01*
X164354611Y27298072D01*
X164341430Y27283530D01*
X164326888Y27270349D01*
X164311123Y27258657D01*
X164294288Y27248567D01*
X164276546Y27240175D01*
X164258066Y27233563D01*
X164239027Y27228794D01*
X164219612Y27225914D01*
X164200009Y27224951D01*
X163000009Y27224951D01*
X162980406Y27225914D01*
X162960991Y27228794D01*
X162941952Y27233563D01*
X162923472Y27240175D01*
X162905730Y27248567D01*
X162888895Y27258657D01*
X162873130Y27270349D01*
X162858588Y27283530D01*
X162845407Y27298072D01*
X162833715Y27313837D01*
X162823625Y27330672D01*
X162815233Y27348414D01*
X162808621Y27366894D01*
X162803852Y27385933D01*
X162800972Y27405348D01*
X162800009Y27424951D01*
X162800009Y27824951D01*
X162800972Y27844554D01*
X162803852Y27863969D01*
X162808621Y27883008D01*
X162815233Y27901488D01*
X162823625Y27919230D01*
X162833715Y27936065D01*
X162845407Y27951830D01*
X162858588Y27966372D01*
X162873130Y27979553D01*
X162888895Y27991245D01*
X162905730Y28001335D01*
X162923472Y28009727D01*
X162941952Y28016339D01*
X162960991Y28021108D01*
X162980406Y28023988D01*
X163000009Y28024951D01*
X164200009Y28024951D01*
X164219612Y28023988D01*
G37*
G36*
X164219612Y26773988D02*
G01*
X164239027Y26771108D01*
X164258066Y26766339D01*
X164276546Y26759727D01*
X164294288Y26751335D01*
X164311123Y26741245D01*
X164326888Y26729553D01*
X164341430Y26716372D01*
X164354611Y26701830D01*
X164366303Y26686065D01*
X164376393Y26669230D01*
X164384785Y26651488D01*
X164391397Y26633008D01*
X164396166Y26613969D01*
X164399046Y26594554D01*
X164400009Y26574951D01*
X164400009Y26174951D01*
X164399046Y26155348D01*
X164396166Y26135933D01*
X164391397Y26116894D01*
X164384785Y26098414D01*
X164376393Y26080672D01*
X164366303Y26063837D01*
X164354611Y26048072D01*
X164341430Y26033530D01*
X164326888Y26020349D01*
X164311123Y26008657D01*
X164294288Y25998567D01*
X164276546Y25990175D01*
X164258066Y25983563D01*
X164239027Y25978794D01*
X164219612Y25975914D01*
X164200009Y25974951D01*
X163000009Y25974951D01*
X162980406Y25975914D01*
X162960991Y25978794D01*
X162941952Y25983563D01*
X162923472Y25990175D01*
X162905730Y25998567D01*
X162888895Y26008657D01*
X162873130Y26020349D01*
X162858588Y26033530D01*
X162845407Y26048072D01*
X162833715Y26063837D01*
X162823625Y26080672D01*
X162815233Y26098414D01*
X162808621Y26116894D01*
X162803852Y26135933D01*
X162800972Y26155348D01*
X162800009Y26174951D01*
X162800009Y26574951D01*
X162800972Y26594554D01*
X162803852Y26613969D01*
X162808621Y26633008D01*
X162815233Y26651488D01*
X162823625Y26669230D01*
X162833715Y26686065D01*
X162845407Y26701830D01*
X162858588Y26716372D01*
X162873130Y26729553D01*
X162888895Y26741245D01*
X162905730Y26751335D01*
X162923472Y26759727D01*
X162941952Y26766339D01*
X162960991Y26771108D01*
X162980406Y26773988D01*
X163000009Y26774951D01*
X164200009Y26774951D01*
X164219612Y26773988D01*
G37*
G36*
X167774513Y31223747D02*
G01*
X167798782Y31220147D01*
X167822580Y31214186D01*
X167845680Y31205921D01*
X167867858Y31195431D01*
X167888902Y31182818D01*
X167908607Y31168204D01*
X167926786Y31151728D01*
X167943262Y31133549D01*
X167957876Y31113844D01*
X167970489Y31092800D01*
X167980979Y31070622D01*
X167989244Y31047522D01*
X167995205Y31023724D01*
X167998805Y30999455D01*
X168000009Y30974951D01*
X168000009Y29374951D01*
X167998805Y29350447D01*
X167995205Y29326178D01*
X167989244Y29302380D01*
X167980979Y29279280D01*
X167970489Y29257102D01*
X167957876Y29236058D01*
X167943262Y29216353D01*
X167926786Y29198174D01*
X167908607Y29181698D01*
X167888902Y29167084D01*
X167867858Y29154471D01*
X167845680Y29143981D01*
X167822580Y29135716D01*
X167798782Y29129755D01*
X167774513Y29126155D01*
X167750009Y29124951D01*
X165250009Y29124951D01*
X165225505Y29126155D01*
X165201236Y29129755D01*
X165177438Y29135716D01*
X165154338Y29143981D01*
X165132160Y29154471D01*
X165111116Y29167084D01*
X165091411Y29181698D01*
X165073232Y29198174D01*
X165056756Y29216353D01*
X165042142Y29236058D01*
X165029529Y29257102D01*
X165019039Y29279280D01*
X165010774Y29302380D01*
X165004813Y29326178D01*
X165001213Y29350447D01*
X165000009Y29374951D01*
X165000009Y30974951D01*
X165001213Y30999455D01*
X165004813Y31023724D01*
X165010774Y31047522D01*
X165019039Y31070622D01*
X165029529Y31092800D01*
X165042142Y31113844D01*
X165056756Y31133549D01*
X165073232Y31151728D01*
X165091411Y31168204D01*
X165111116Y31182818D01*
X165132160Y31195431D01*
X165154338Y31205921D01*
X165177438Y31214186D01*
X165201236Y31220147D01*
X165225505Y31223747D01*
X165250009Y31224951D01*
X167750009Y31224951D01*
X167774513Y31223747D01*
G37*
G36*
X167774513Y24873747D02*
G01*
X167798782Y24870147D01*
X167822580Y24864186D01*
X167845680Y24855921D01*
X167867858Y24845431D01*
X167888902Y24832818D01*
X167908607Y24818204D01*
X167926786Y24801728D01*
X167943262Y24783549D01*
X167957876Y24763844D01*
X167970489Y24742800D01*
X167980979Y24720622D01*
X167989244Y24697522D01*
X167995205Y24673724D01*
X167998805Y24649455D01*
X168000009Y24624951D01*
X168000009Y23024951D01*
X167998805Y23000447D01*
X167995205Y22976178D01*
X167989244Y22952380D01*
X167980979Y22929280D01*
X167970489Y22907102D01*
X167957876Y22886058D01*
X167943262Y22866353D01*
X167926786Y22848174D01*
X167908607Y22831698D01*
X167888902Y22817084D01*
X167867858Y22804471D01*
X167845680Y22793981D01*
X167822580Y22785716D01*
X167798782Y22779755D01*
X167774513Y22776155D01*
X167750009Y22774951D01*
X165250009Y22774951D01*
X165225505Y22776155D01*
X165201236Y22779755D01*
X165177438Y22785716D01*
X165154338Y22793981D01*
X165132160Y22804471D01*
X165111116Y22817084D01*
X165091411Y22831698D01*
X165073232Y22848174D01*
X165056756Y22866353D01*
X165042142Y22886058D01*
X165029529Y22907102D01*
X165019039Y22929280D01*
X165010774Y22952380D01*
X165004813Y22976178D01*
X165001213Y23000447D01*
X165000009Y23024951D01*
X165000009Y24624951D01*
X165001213Y24649455D01*
X165004813Y24673724D01*
X165010774Y24697522D01*
X165019039Y24720622D01*
X165029529Y24742800D01*
X165042142Y24763844D01*
X165056756Y24783549D01*
X165073232Y24801728D01*
X165091411Y24818204D01*
X165111116Y24832818D01*
X165132160Y24845431D01*
X165154338Y24855921D01*
X165177438Y24864186D01*
X165201236Y24870147D01*
X165225505Y24873747D01*
X165250009Y24874951D01*
X167750009Y24874951D01*
X167774513Y24873747D01*
G37*
%TD*%
D12*
%TO.C,J4*%
X132900009Y20299951D03*
X133900009Y20299951D03*
X134900009Y20299951D03*
X135900009Y20299951D03*
X136900009Y20299951D03*
X137900009Y20299951D03*
X139900009Y20299951D03*
X138900009Y20299951D03*
%TD*%
D10*
%TO.C,J1*%
X53480001Y42039951D03*
X58520001Y42039951D03*
X53480001Y39499951D03*
X58520001Y39499951D03*
X53480001Y36959951D03*
X58520001Y36959951D03*
%TD*%
D11*
%TO.C,J2*%
G36*
X52019604Y26773988D02*
G01*
X52039019Y26771108D01*
X52058058Y26766339D01*
X52076538Y26759727D01*
X52094280Y26751335D01*
X52111115Y26741245D01*
X52126880Y26729553D01*
X52141422Y26716372D01*
X52154603Y26701830D01*
X52166295Y26686065D01*
X52176385Y26669230D01*
X52184777Y26651488D01*
X52191389Y26633008D01*
X52196158Y26613969D01*
X52199038Y26594554D01*
X52200001Y26574951D01*
X52200001Y26174951D01*
X52199038Y26155348D01*
X52196158Y26135933D01*
X52191389Y26116894D01*
X52184777Y26098414D01*
X52176385Y26080672D01*
X52166295Y26063837D01*
X52154603Y26048072D01*
X52141422Y26033530D01*
X52126880Y26020349D01*
X52111115Y26008657D01*
X52094280Y25998567D01*
X52076538Y25990175D01*
X52058058Y25983563D01*
X52039019Y25978794D01*
X52019604Y25975914D01*
X52000001Y25974951D01*
X50800001Y25974951D01*
X50780398Y25975914D01*
X50760983Y25978794D01*
X50741944Y25983563D01*
X50723464Y25990175D01*
X50705722Y25998567D01*
X50688887Y26008657D01*
X50673122Y26020349D01*
X50658580Y26033530D01*
X50645399Y26048072D01*
X50633707Y26063837D01*
X50623617Y26080672D01*
X50615225Y26098414D01*
X50608613Y26116894D01*
X50603844Y26135933D01*
X50600964Y26155348D01*
X50600001Y26174951D01*
X50600001Y26574951D01*
X50600964Y26594554D01*
X50603844Y26613969D01*
X50608613Y26633008D01*
X50615225Y26651488D01*
X50623617Y26669230D01*
X50633707Y26686065D01*
X50645399Y26701830D01*
X50658580Y26716372D01*
X50673122Y26729553D01*
X50688887Y26741245D01*
X50705722Y26751335D01*
X50723464Y26759727D01*
X50741944Y26766339D01*
X50760983Y26771108D01*
X50780398Y26773988D01*
X50800001Y26774951D01*
X52000001Y26774951D01*
X52019604Y26773988D01*
G37*
G36*
X52019604Y28023988D02*
G01*
X52039019Y28021108D01*
X52058058Y28016339D01*
X52076538Y28009727D01*
X52094280Y28001335D01*
X52111115Y27991245D01*
X52126880Y27979553D01*
X52141422Y27966372D01*
X52154603Y27951830D01*
X52166295Y27936065D01*
X52176385Y27919230D01*
X52184777Y27901488D01*
X52191389Y27883008D01*
X52196158Y27863969D01*
X52199038Y27844554D01*
X52200001Y27824951D01*
X52200001Y27424951D01*
X52199038Y27405348D01*
X52196158Y27385933D01*
X52191389Y27366894D01*
X52184777Y27348414D01*
X52176385Y27330672D01*
X52166295Y27313837D01*
X52154603Y27298072D01*
X52141422Y27283530D01*
X52126880Y27270349D01*
X52111115Y27258657D01*
X52094280Y27248567D01*
X52076538Y27240175D01*
X52058058Y27233563D01*
X52039019Y27228794D01*
X52019604Y27225914D01*
X52000001Y27224951D01*
X50800001Y27224951D01*
X50780398Y27225914D01*
X50760983Y27228794D01*
X50741944Y27233563D01*
X50723464Y27240175D01*
X50705722Y27248567D01*
X50688887Y27258657D01*
X50673122Y27270349D01*
X50658580Y27283530D01*
X50645399Y27298072D01*
X50633707Y27313837D01*
X50623617Y27330672D01*
X50615225Y27348414D01*
X50608613Y27366894D01*
X50603844Y27385933D01*
X50600964Y27405348D01*
X50600001Y27424951D01*
X50600001Y27824951D01*
X50600964Y27844554D01*
X50603844Y27863969D01*
X50608613Y27883008D01*
X50615225Y27901488D01*
X50623617Y27919230D01*
X50633707Y27936065D01*
X50645399Y27951830D01*
X50658580Y27966372D01*
X50673122Y27979553D01*
X50688887Y27991245D01*
X50705722Y28001335D01*
X50723464Y28009727D01*
X50741944Y28016339D01*
X50760983Y28021108D01*
X50780398Y28023988D01*
X50800001Y28024951D01*
X52000001Y28024951D01*
X52019604Y28023988D01*
G37*
G36*
X49774505Y24873747D02*
G01*
X49798774Y24870147D01*
X49822572Y24864186D01*
X49845672Y24855921D01*
X49867850Y24845431D01*
X49888894Y24832818D01*
X49908599Y24818204D01*
X49926778Y24801728D01*
X49943254Y24783549D01*
X49957868Y24763844D01*
X49970481Y24742800D01*
X49980971Y24720622D01*
X49989236Y24697522D01*
X49995197Y24673724D01*
X49998797Y24649455D01*
X50000001Y24624951D01*
X50000001Y23024951D01*
X49998797Y23000447D01*
X49995197Y22976178D01*
X49989236Y22952380D01*
X49980971Y22929280D01*
X49970481Y22907102D01*
X49957868Y22886058D01*
X49943254Y22866353D01*
X49926778Y22848174D01*
X49908599Y22831698D01*
X49888894Y22817084D01*
X49867850Y22804471D01*
X49845672Y22793981D01*
X49822572Y22785716D01*
X49798774Y22779755D01*
X49774505Y22776155D01*
X49750001Y22774951D01*
X47250001Y22774951D01*
X47225497Y22776155D01*
X47201228Y22779755D01*
X47177430Y22785716D01*
X47154330Y22793981D01*
X47132152Y22804471D01*
X47111108Y22817084D01*
X47091403Y22831698D01*
X47073224Y22848174D01*
X47056748Y22866353D01*
X47042134Y22886058D01*
X47029521Y22907102D01*
X47019031Y22929280D01*
X47010766Y22952380D01*
X47004805Y22976178D01*
X47001205Y23000447D01*
X47000001Y23024951D01*
X47000001Y24624951D01*
X47001205Y24649455D01*
X47004805Y24673724D01*
X47010766Y24697522D01*
X47019031Y24720622D01*
X47029521Y24742800D01*
X47042134Y24763844D01*
X47056748Y24783549D01*
X47073224Y24801728D01*
X47091403Y24818204D01*
X47111108Y24832818D01*
X47132152Y24845431D01*
X47154330Y24855921D01*
X47177430Y24864186D01*
X47201228Y24870147D01*
X47225497Y24873747D01*
X47250001Y24874951D01*
X49750001Y24874951D01*
X49774505Y24873747D01*
G37*
G36*
X49774505Y31223747D02*
G01*
X49798774Y31220147D01*
X49822572Y31214186D01*
X49845672Y31205921D01*
X49867850Y31195431D01*
X49888894Y31182818D01*
X49908599Y31168204D01*
X49926778Y31151728D01*
X49943254Y31133549D01*
X49957868Y31113844D01*
X49970481Y31092800D01*
X49980971Y31070622D01*
X49989236Y31047522D01*
X49995197Y31023724D01*
X49998797Y30999455D01*
X50000001Y30974951D01*
X50000001Y29374951D01*
X49998797Y29350447D01*
X49995197Y29326178D01*
X49989236Y29302380D01*
X49980971Y29279280D01*
X49970481Y29257102D01*
X49957868Y29236058D01*
X49943254Y29216353D01*
X49926778Y29198174D01*
X49908599Y29181698D01*
X49888894Y29167084D01*
X49867850Y29154471D01*
X49845672Y29143981D01*
X49822572Y29135716D01*
X49798774Y29129755D01*
X49774505Y29126155D01*
X49750001Y29124951D01*
X47250001Y29124951D01*
X47225497Y29126155D01*
X47201228Y29129755D01*
X47177430Y29135716D01*
X47154330Y29143981D01*
X47132152Y29154471D01*
X47111108Y29167084D01*
X47091403Y29181698D01*
X47073224Y29198174D01*
X47056748Y29216353D01*
X47042134Y29236058D01*
X47029521Y29257102D01*
X47019031Y29279280D01*
X47010766Y29302380D01*
X47004805Y29326178D01*
X47001205Y29350447D01*
X47000001Y29374951D01*
X47000001Y30974951D01*
X47001205Y30999455D01*
X47004805Y31023724D01*
X47010766Y31047522D01*
X47019031Y31070622D01*
X47029521Y31092800D01*
X47042134Y31113844D01*
X47056748Y31133549D01*
X47073224Y31151728D01*
X47091403Y31168204D01*
X47111108Y31182818D01*
X47132152Y31195431D01*
X47154330Y31205921D01*
X47177430Y31214186D01*
X47201228Y31220147D01*
X47225497Y31223747D01*
X47250001Y31224951D01*
X49750001Y31224951D01*
X49774505Y31223747D01*
G37*
%TD*%
%TO.C,J3*%
G36*
X61219604Y28023988D02*
G01*
X61239019Y28021108D01*
X61258058Y28016339D01*
X61276538Y28009727D01*
X61294280Y28001335D01*
X61311115Y27991245D01*
X61326880Y27979553D01*
X61341422Y27966372D01*
X61354603Y27951830D01*
X61366295Y27936065D01*
X61376385Y27919230D01*
X61384777Y27901488D01*
X61391389Y27883008D01*
X61396158Y27863969D01*
X61399038Y27844554D01*
X61400001Y27824951D01*
X61400001Y27424951D01*
X61399038Y27405348D01*
X61396158Y27385933D01*
X61391389Y27366894D01*
X61384777Y27348414D01*
X61376385Y27330672D01*
X61366295Y27313837D01*
X61354603Y27298072D01*
X61341422Y27283530D01*
X61326880Y27270349D01*
X61311115Y27258657D01*
X61294280Y27248567D01*
X61276538Y27240175D01*
X61258058Y27233563D01*
X61239019Y27228794D01*
X61219604Y27225914D01*
X61200001Y27224951D01*
X60000001Y27224951D01*
X59980398Y27225914D01*
X59960983Y27228794D01*
X59941944Y27233563D01*
X59923464Y27240175D01*
X59905722Y27248567D01*
X59888887Y27258657D01*
X59873122Y27270349D01*
X59858580Y27283530D01*
X59845399Y27298072D01*
X59833707Y27313837D01*
X59823617Y27330672D01*
X59815225Y27348414D01*
X59808613Y27366894D01*
X59803844Y27385933D01*
X59800964Y27405348D01*
X59800001Y27424951D01*
X59800001Y27824951D01*
X59800964Y27844554D01*
X59803844Y27863969D01*
X59808613Y27883008D01*
X59815225Y27901488D01*
X59823617Y27919230D01*
X59833707Y27936065D01*
X59845399Y27951830D01*
X59858580Y27966372D01*
X59873122Y27979553D01*
X59888887Y27991245D01*
X59905722Y28001335D01*
X59923464Y28009727D01*
X59941944Y28016339D01*
X59960983Y28021108D01*
X59980398Y28023988D01*
X60000001Y28024951D01*
X61200001Y28024951D01*
X61219604Y28023988D01*
G37*
G36*
X61219604Y26773988D02*
G01*
X61239019Y26771108D01*
X61258058Y26766339D01*
X61276538Y26759727D01*
X61294280Y26751335D01*
X61311115Y26741245D01*
X61326880Y26729553D01*
X61341422Y26716372D01*
X61354603Y26701830D01*
X61366295Y26686065D01*
X61376385Y26669230D01*
X61384777Y26651488D01*
X61391389Y26633008D01*
X61396158Y26613969D01*
X61399038Y26594554D01*
X61400001Y26574951D01*
X61400001Y26174951D01*
X61399038Y26155348D01*
X61396158Y26135933D01*
X61391389Y26116894D01*
X61384777Y26098414D01*
X61376385Y26080672D01*
X61366295Y26063837D01*
X61354603Y26048072D01*
X61341422Y26033530D01*
X61326880Y26020349D01*
X61311115Y26008657D01*
X61294280Y25998567D01*
X61276538Y25990175D01*
X61258058Y25983563D01*
X61239019Y25978794D01*
X61219604Y25975914D01*
X61200001Y25974951D01*
X60000001Y25974951D01*
X59980398Y25975914D01*
X59960983Y25978794D01*
X59941944Y25983563D01*
X59923464Y25990175D01*
X59905722Y25998567D01*
X59888887Y26008657D01*
X59873122Y26020349D01*
X59858580Y26033530D01*
X59845399Y26048072D01*
X59833707Y26063837D01*
X59823617Y26080672D01*
X59815225Y26098414D01*
X59808613Y26116894D01*
X59803844Y26135933D01*
X59800964Y26155348D01*
X59800001Y26174951D01*
X59800001Y26574951D01*
X59800964Y26594554D01*
X59803844Y26613969D01*
X59808613Y26633008D01*
X59815225Y26651488D01*
X59823617Y26669230D01*
X59833707Y26686065D01*
X59845399Y26701830D01*
X59858580Y26716372D01*
X59873122Y26729553D01*
X59888887Y26741245D01*
X59905722Y26751335D01*
X59923464Y26759727D01*
X59941944Y26766339D01*
X59960983Y26771108D01*
X59980398Y26773988D01*
X60000001Y26774951D01*
X61200001Y26774951D01*
X61219604Y26773988D01*
G37*
G36*
X64774505Y31223747D02*
G01*
X64798774Y31220147D01*
X64822572Y31214186D01*
X64845672Y31205921D01*
X64867850Y31195431D01*
X64888894Y31182818D01*
X64908599Y31168204D01*
X64926778Y31151728D01*
X64943254Y31133549D01*
X64957868Y31113844D01*
X64970481Y31092800D01*
X64980971Y31070622D01*
X64989236Y31047522D01*
X64995197Y31023724D01*
X64998797Y30999455D01*
X65000001Y30974951D01*
X65000001Y29374951D01*
X64998797Y29350447D01*
X64995197Y29326178D01*
X64989236Y29302380D01*
X64980971Y29279280D01*
X64970481Y29257102D01*
X64957868Y29236058D01*
X64943254Y29216353D01*
X64926778Y29198174D01*
X64908599Y29181698D01*
X64888894Y29167084D01*
X64867850Y29154471D01*
X64845672Y29143981D01*
X64822572Y29135716D01*
X64798774Y29129755D01*
X64774505Y29126155D01*
X64750001Y29124951D01*
X62250001Y29124951D01*
X62225497Y29126155D01*
X62201228Y29129755D01*
X62177430Y29135716D01*
X62154330Y29143981D01*
X62132152Y29154471D01*
X62111108Y29167084D01*
X62091403Y29181698D01*
X62073224Y29198174D01*
X62056748Y29216353D01*
X62042134Y29236058D01*
X62029521Y29257102D01*
X62019031Y29279280D01*
X62010766Y29302380D01*
X62004805Y29326178D01*
X62001205Y29350447D01*
X62000001Y29374951D01*
X62000001Y30974951D01*
X62001205Y30999455D01*
X62004805Y31023724D01*
X62010766Y31047522D01*
X62019031Y31070622D01*
X62029521Y31092800D01*
X62042134Y31113844D01*
X62056748Y31133549D01*
X62073224Y31151728D01*
X62091403Y31168204D01*
X62111108Y31182818D01*
X62132152Y31195431D01*
X62154330Y31205921D01*
X62177430Y31214186D01*
X62201228Y31220147D01*
X62225497Y31223747D01*
X62250001Y31224951D01*
X64750001Y31224951D01*
X64774505Y31223747D01*
G37*
G36*
X64774505Y24873747D02*
G01*
X64798774Y24870147D01*
X64822572Y24864186D01*
X64845672Y24855921D01*
X64867850Y24845431D01*
X64888894Y24832818D01*
X64908599Y24818204D01*
X64926778Y24801728D01*
X64943254Y24783549D01*
X64957868Y24763844D01*
X64970481Y24742800D01*
X64980971Y24720622D01*
X64989236Y24697522D01*
X64995197Y24673724D01*
X64998797Y24649455D01*
X65000001Y24624951D01*
X65000001Y23024951D01*
X64998797Y23000447D01*
X64995197Y22976178D01*
X64989236Y22952380D01*
X64980971Y22929280D01*
X64970481Y22907102D01*
X64957868Y22886058D01*
X64943254Y22866353D01*
X64926778Y22848174D01*
X64908599Y22831698D01*
X64888894Y22817084D01*
X64867850Y22804471D01*
X64845672Y22793981D01*
X64822572Y22785716D01*
X64798774Y22779755D01*
X64774505Y22776155D01*
X64750001Y22774951D01*
X62250001Y22774951D01*
X62225497Y22776155D01*
X62201228Y22779755D01*
X62177430Y22785716D01*
X62154330Y22793981D01*
X62132152Y22804471D01*
X62111108Y22817084D01*
X62091403Y22831698D01*
X62073224Y22848174D01*
X62056748Y22866353D01*
X62042134Y22886058D01*
X62029521Y22907102D01*
X62019031Y22929280D01*
X62010766Y22952380D01*
X62004805Y22976178D01*
X62001205Y23000447D01*
X62000001Y23024951D01*
X62000001Y24624951D01*
X62001205Y24649455D01*
X62004805Y24673724D01*
X62010766Y24697522D01*
X62019031Y24720622D01*
X62029521Y24742800D01*
X62042134Y24763844D01*
X62056748Y24783549D01*
X62073224Y24801728D01*
X62091403Y24818204D01*
X62111108Y24832818D01*
X62132152Y24845431D01*
X62154330Y24855921D01*
X62177430Y24864186D01*
X62201228Y24870147D01*
X62225497Y24873747D01*
X62250001Y24874951D01*
X64750001Y24874951D01*
X64774505Y24873747D01*
G37*
%TD*%
D12*
%TO.C,J4*%
X29900001Y20299951D03*
X30900001Y20299951D03*
X31900001Y20299951D03*
X32900001Y20299951D03*
X33900001Y20299951D03*
X34900001Y20299951D03*
X36900001Y20299951D03*
X35900001Y20299951D03*
%TD*%
D10*
%TO.C,J1*%
X156480009Y85039963D03*
X161520009Y85039963D03*
X156480009Y82499963D03*
X161520009Y82499963D03*
X156480009Y79959963D03*
X161520009Y79959963D03*
%TD*%
D11*
%TO.C,J2*%
G36*
X155019612Y69774000D02*
G01*
X155039027Y69771120D01*
X155058066Y69766351D01*
X155076546Y69759739D01*
X155094288Y69751347D01*
X155111123Y69741257D01*
X155126888Y69729565D01*
X155141430Y69716384D01*
X155154611Y69701842D01*
X155166303Y69686077D01*
X155176393Y69669242D01*
X155184785Y69651500D01*
X155191397Y69633020D01*
X155196166Y69613981D01*
X155199046Y69594566D01*
X155200009Y69574963D01*
X155200009Y69174963D01*
X155199046Y69155360D01*
X155196166Y69135945D01*
X155191397Y69116906D01*
X155184785Y69098426D01*
X155176393Y69080684D01*
X155166303Y69063849D01*
X155154611Y69048084D01*
X155141430Y69033542D01*
X155126888Y69020361D01*
X155111123Y69008669D01*
X155094288Y68998579D01*
X155076546Y68990187D01*
X155058066Y68983575D01*
X155039027Y68978806D01*
X155019612Y68975926D01*
X155000009Y68974963D01*
X153800009Y68974963D01*
X153780406Y68975926D01*
X153760991Y68978806D01*
X153741952Y68983575D01*
X153723472Y68990187D01*
X153705730Y68998579D01*
X153688895Y69008669D01*
X153673130Y69020361D01*
X153658588Y69033542D01*
X153645407Y69048084D01*
X153633715Y69063849D01*
X153623625Y69080684D01*
X153615233Y69098426D01*
X153608621Y69116906D01*
X153603852Y69135945D01*
X153600972Y69155360D01*
X153600009Y69174963D01*
X153600009Y69574963D01*
X153600972Y69594566D01*
X153603852Y69613981D01*
X153608621Y69633020D01*
X153615233Y69651500D01*
X153623625Y69669242D01*
X153633715Y69686077D01*
X153645407Y69701842D01*
X153658588Y69716384D01*
X153673130Y69729565D01*
X153688895Y69741257D01*
X153705730Y69751347D01*
X153723472Y69759739D01*
X153741952Y69766351D01*
X153760991Y69771120D01*
X153780406Y69774000D01*
X153800009Y69774963D01*
X155000009Y69774963D01*
X155019612Y69774000D01*
G37*
G36*
X155019612Y71024000D02*
G01*
X155039027Y71021120D01*
X155058066Y71016351D01*
X155076546Y71009739D01*
X155094288Y71001347D01*
X155111123Y70991257D01*
X155126888Y70979565D01*
X155141430Y70966384D01*
X155154611Y70951842D01*
X155166303Y70936077D01*
X155176393Y70919242D01*
X155184785Y70901500D01*
X155191397Y70883020D01*
X155196166Y70863981D01*
X155199046Y70844566D01*
X155200009Y70824963D01*
X155200009Y70424963D01*
X155199046Y70405360D01*
X155196166Y70385945D01*
X155191397Y70366906D01*
X155184785Y70348426D01*
X155176393Y70330684D01*
X155166303Y70313849D01*
X155154611Y70298084D01*
X155141430Y70283542D01*
X155126888Y70270361D01*
X155111123Y70258669D01*
X155094288Y70248579D01*
X155076546Y70240187D01*
X155058066Y70233575D01*
X155039027Y70228806D01*
X155019612Y70225926D01*
X155000009Y70224963D01*
X153800009Y70224963D01*
X153780406Y70225926D01*
X153760991Y70228806D01*
X153741952Y70233575D01*
X153723472Y70240187D01*
X153705730Y70248579D01*
X153688895Y70258669D01*
X153673130Y70270361D01*
X153658588Y70283542D01*
X153645407Y70298084D01*
X153633715Y70313849D01*
X153623625Y70330684D01*
X153615233Y70348426D01*
X153608621Y70366906D01*
X153603852Y70385945D01*
X153600972Y70405360D01*
X153600009Y70424963D01*
X153600009Y70824963D01*
X153600972Y70844566D01*
X153603852Y70863981D01*
X153608621Y70883020D01*
X153615233Y70901500D01*
X153623625Y70919242D01*
X153633715Y70936077D01*
X153645407Y70951842D01*
X153658588Y70966384D01*
X153673130Y70979565D01*
X153688895Y70991257D01*
X153705730Y71001347D01*
X153723472Y71009739D01*
X153741952Y71016351D01*
X153760991Y71021120D01*
X153780406Y71024000D01*
X153800009Y71024963D01*
X155000009Y71024963D01*
X155019612Y71024000D01*
G37*
G36*
X152774513Y67873759D02*
G01*
X152798782Y67870159D01*
X152822580Y67864198D01*
X152845680Y67855933D01*
X152867858Y67845443D01*
X152888902Y67832830D01*
X152908607Y67818216D01*
X152926786Y67801740D01*
X152943262Y67783561D01*
X152957876Y67763856D01*
X152970489Y67742812D01*
X152980979Y67720634D01*
X152989244Y67697534D01*
X152995205Y67673736D01*
X152998805Y67649467D01*
X153000009Y67624963D01*
X153000009Y66024963D01*
X152998805Y66000459D01*
X152995205Y65976190D01*
X152989244Y65952392D01*
X152980979Y65929292D01*
X152970489Y65907114D01*
X152957876Y65886070D01*
X152943262Y65866365D01*
X152926786Y65848186D01*
X152908607Y65831710D01*
X152888902Y65817096D01*
X152867858Y65804483D01*
X152845680Y65793993D01*
X152822580Y65785728D01*
X152798782Y65779767D01*
X152774513Y65776167D01*
X152750009Y65774963D01*
X150250009Y65774963D01*
X150225505Y65776167D01*
X150201236Y65779767D01*
X150177438Y65785728D01*
X150154338Y65793993D01*
X150132160Y65804483D01*
X150111116Y65817096D01*
X150091411Y65831710D01*
X150073232Y65848186D01*
X150056756Y65866365D01*
X150042142Y65886070D01*
X150029529Y65907114D01*
X150019039Y65929292D01*
X150010774Y65952392D01*
X150004813Y65976190D01*
X150001213Y66000459D01*
X150000009Y66024963D01*
X150000009Y67624963D01*
X150001213Y67649467D01*
X150004813Y67673736D01*
X150010774Y67697534D01*
X150019039Y67720634D01*
X150029529Y67742812D01*
X150042142Y67763856D01*
X150056756Y67783561D01*
X150073232Y67801740D01*
X150091411Y67818216D01*
X150111116Y67832830D01*
X150132160Y67845443D01*
X150154338Y67855933D01*
X150177438Y67864198D01*
X150201236Y67870159D01*
X150225505Y67873759D01*
X150250009Y67874963D01*
X152750009Y67874963D01*
X152774513Y67873759D01*
G37*
G36*
X152774513Y74223759D02*
G01*
X152798782Y74220159D01*
X152822580Y74214198D01*
X152845680Y74205933D01*
X152867858Y74195443D01*
X152888902Y74182830D01*
X152908607Y74168216D01*
X152926786Y74151740D01*
X152943262Y74133561D01*
X152957876Y74113856D01*
X152970489Y74092812D01*
X152980979Y74070634D01*
X152989244Y74047534D01*
X152995205Y74023736D01*
X152998805Y73999467D01*
X153000009Y73974963D01*
X153000009Y72374963D01*
X152998805Y72350459D01*
X152995205Y72326190D01*
X152989244Y72302392D01*
X152980979Y72279292D01*
X152970489Y72257114D01*
X152957876Y72236070D01*
X152943262Y72216365D01*
X152926786Y72198186D01*
X152908607Y72181710D01*
X152888902Y72167096D01*
X152867858Y72154483D01*
X152845680Y72143993D01*
X152822580Y72135728D01*
X152798782Y72129767D01*
X152774513Y72126167D01*
X152750009Y72124963D01*
X150250009Y72124963D01*
X150225505Y72126167D01*
X150201236Y72129767D01*
X150177438Y72135728D01*
X150154338Y72143993D01*
X150132160Y72154483D01*
X150111116Y72167096D01*
X150091411Y72181710D01*
X150073232Y72198186D01*
X150056756Y72216365D01*
X150042142Y72236070D01*
X150029529Y72257114D01*
X150019039Y72279292D01*
X150010774Y72302392D01*
X150004813Y72326190D01*
X150001213Y72350459D01*
X150000009Y72374963D01*
X150000009Y73974963D01*
X150001213Y73999467D01*
X150004813Y74023736D01*
X150010774Y74047534D01*
X150019039Y74070634D01*
X150029529Y74092812D01*
X150042142Y74113856D01*
X150056756Y74133561D01*
X150073232Y74151740D01*
X150091411Y74168216D01*
X150111116Y74182830D01*
X150132160Y74195443D01*
X150154338Y74205933D01*
X150177438Y74214198D01*
X150201236Y74220159D01*
X150225505Y74223759D01*
X150250009Y74224963D01*
X152750009Y74224963D01*
X152774513Y74223759D01*
G37*
%TD*%
%TO.C,J3*%
G36*
X164219612Y71024000D02*
G01*
X164239027Y71021120D01*
X164258066Y71016351D01*
X164276546Y71009739D01*
X164294288Y71001347D01*
X164311123Y70991257D01*
X164326888Y70979565D01*
X164341430Y70966384D01*
X164354611Y70951842D01*
X164366303Y70936077D01*
X164376393Y70919242D01*
X164384785Y70901500D01*
X164391397Y70883020D01*
X164396166Y70863981D01*
X164399046Y70844566D01*
X164400009Y70824963D01*
X164400009Y70424963D01*
X164399046Y70405360D01*
X164396166Y70385945D01*
X164391397Y70366906D01*
X164384785Y70348426D01*
X164376393Y70330684D01*
X164366303Y70313849D01*
X164354611Y70298084D01*
X164341430Y70283542D01*
X164326888Y70270361D01*
X164311123Y70258669D01*
X164294288Y70248579D01*
X164276546Y70240187D01*
X164258066Y70233575D01*
X164239027Y70228806D01*
X164219612Y70225926D01*
X164200009Y70224963D01*
X163000009Y70224963D01*
X162980406Y70225926D01*
X162960991Y70228806D01*
X162941952Y70233575D01*
X162923472Y70240187D01*
X162905730Y70248579D01*
X162888895Y70258669D01*
X162873130Y70270361D01*
X162858588Y70283542D01*
X162845407Y70298084D01*
X162833715Y70313849D01*
X162823625Y70330684D01*
X162815233Y70348426D01*
X162808621Y70366906D01*
X162803852Y70385945D01*
X162800972Y70405360D01*
X162800009Y70424963D01*
X162800009Y70824963D01*
X162800972Y70844566D01*
X162803852Y70863981D01*
X162808621Y70883020D01*
X162815233Y70901500D01*
X162823625Y70919242D01*
X162833715Y70936077D01*
X162845407Y70951842D01*
X162858588Y70966384D01*
X162873130Y70979565D01*
X162888895Y70991257D01*
X162905730Y71001347D01*
X162923472Y71009739D01*
X162941952Y71016351D01*
X162960991Y71021120D01*
X162980406Y71024000D01*
X163000009Y71024963D01*
X164200009Y71024963D01*
X164219612Y71024000D01*
G37*
G36*
X164219612Y69774000D02*
G01*
X164239027Y69771120D01*
X164258066Y69766351D01*
X164276546Y69759739D01*
X164294288Y69751347D01*
X164311123Y69741257D01*
X164326888Y69729565D01*
X164341430Y69716384D01*
X164354611Y69701842D01*
X164366303Y69686077D01*
X164376393Y69669242D01*
X164384785Y69651500D01*
X164391397Y69633020D01*
X164396166Y69613981D01*
X164399046Y69594566D01*
X164400009Y69574963D01*
X164400009Y69174963D01*
X164399046Y69155360D01*
X164396166Y69135945D01*
X164391397Y69116906D01*
X164384785Y69098426D01*
X164376393Y69080684D01*
X164366303Y69063849D01*
X164354611Y69048084D01*
X164341430Y69033542D01*
X164326888Y69020361D01*
X164311123Y69008669D01*
X164294288Y68998579D01*
X164276546Y68990187D01*
X164258066Y68983575D01*
X164239027Y68978806D01*
X164219612Y68975926D01*
X164200009Y68974963D01*
X163000009Y68974963D01*
X162980406Y68975926D01*
X162960991Y68978806D01*
X162941952Y68983575D01*
X162923472Y68990187D01*
X162905730Y68998579D01*
X162888895Y69008669D01*
X162873130Y69020361D01*
X162858588Y69033542D01*
X162845407Y69048084D01*
X162833715Y69063849D01*
X162823625Y69080684D01*
X162815233Y69098426D01*
X162808621Y69116906D01*
X162803852Y69135945D01*
X162800972Y69155360D01*
X162800009Y69174963D01*
X162800009Y69574963D01*
X162800972Y69594566D01*
X162803852Y69613981D01*
X162808621Y69633020D01*
X162815233Y69651500D01*
X162823625Y69669242D01*
X162833715Y69686077D01*
X162845407Y69701842D01*
X162858588Y69716384D01*
X162873130Y69729565D01*
X162888895Y69741257D01*
X162905730Y69751347D01*
X162923472Y69759739D01*
X162941952Y69766351D01*
X162960991Y69771120D01*
X162980406Y69774000D01*
X163000009Y69774963D01*
X164200009Y69774963D01*
X164219612Y69774000D01*
G37*
G36*
X167774513Y74223759D02*
G01*
X167798782Y74220159D01*
X167822580Y74214198D01*
X167845680Y74205933D01*
X167867858Y74195443D01*
X167888902Y74182830D01*
X167908607Y74168216D01*
X167926786Y74151740D01*
X167943262Y74133561D01*
X167957876Y74113856D01*
X167970489Y74092812D01*
X167980979Y74070634D01*
X167989244Y74047534D01*
X167995205Y74023736D01*
X167998805Y73999467D01*
X168000009Y73974963D01*
X168000009Y72374963D01*
X167998805Y72350459D01*
X167995205Y72326190D01*
X167989244Y72302392D01*
X167980979Y72279292D01*
X167970489Y72257114D01*
X167957876Y72236070D01*
X167943262Y72216365D01*
X167926786Y72198186D01*
X167908607Y72181710D01*
X167888902Y72167096D01*
X167867858Y72154483D01*
X167845680Y72143993D01*
X167822580Y72135728D01*
X167798782Y72129767D01*
X167774513Y72126167D01*
X167750009Y72124963D01*
X165250009Y72124963D01*
X165225505Y72126167D01*
X165201236Y72129767D01*
X165177438Y72135728D01*
X165154338Y72143993D01*
X165132160Y72154483D01*
X165111116Y72167096D01*
X165091411Y72181710D01*
X165073232Y72198186D01*
X165056756Y72216365D01*
X165042142Y72236070D01*
X165029529Y72257114D01*
X165019039Y72279292D01*
X165010774Y72302392D01*
X165004813Y72326190D01*
X165001213Y72350459D01*
X165000009Y72374963D01*
X165000009Y73974963D01*
X165001213Y73999467D01*
X165004813Y74023736D01*
X165010774Y74047534D01*
X165019039Y74070634D01*
X165029529Y74092812D01*
X165042142Y74113856D01*
X165056756Y74133561D01*
X165073232Y74151740D01*
X165091411Y74168216D01*
X165111116Y74182830D01*
X165132160Y74195443D01*
X165154338Y74205933D01*
X165177438Y74214198D01*
X165201236Y74220159D01*
X165225505Y74223759D01*
X165250009Y74224963D01*
X167750009Y74224963D01*
X167774513Y74223759D01*
G37*
G36*
X167774513Y67873759D02*
G01*
X167798782Y67870159D01*
X167822580Y67864198D01*
X167845680Y67855933D01*
X167867858Y67845443D01*
X167888902Y67832830D01*
X167908607Y67818216D01*
X167926786Y67801740D01*
X167943262Y67783561D01*
X167957876Y67763856D01*
X167970489Y67742812D01*
X167980979Y67720634D01*
X167989244Y67697534D01*
X167995205Y67673736D01*
X167998805Y67649467D01*
X168000009Y67624963D01*
X168000009Y66024963D01*
X167998805Y66000459D01*
X167995205Y65976190D01*
X167989244Y65952392D01*
X167980979Y65929292D01*
X167970489Y65907114D01*
X167957876Y65886070D01*
X167943262Y65866365D01*
X167926786Y65848186D01*
X167908607Y65831710D01*
X167888902Y65817096D01*
X167867858Y65804483D01*
X167845680Y65793993D01*
X167822580Y65785728D01*
X167798782Y65779767D01*
X167774513Y65776167D01*
X167750009Y65774963D01*
X165250009Y65774963D01*
X165225505Y65776167D01*
X165201236Y65779767D01*
X165177438Y65785728D01*
X165154338Y65793993D01*
X165132160Y65804483D01*
X165111116Y65817096D01*
X165091411Y65831710D01*
X165073232Y65848186D01*
X165056756Y65866365D01*
X165042142Y65886070D01*
X165029529Y65907114D01*
X165019039Y65929292D01*
X165010774Y65952392D01*
X165004813Y65976190D01*
X165001213Y66000459D01*
X165000009Y66024963D01*
X165000009Y67624963D01*
X165001213Y67649467D01*
X165004813Y67673736D01*
X165010774Y67697534D01*
X165019039Y67720634D01*
X165029529Y67742812D01*
X165042142Y67763856D01*
X165056756Y67783561D01*
X165073232Y67801740D01*
X165091411Y67818216D01*
X165111116Y67832830D01*
X165132160Y67845443D01*
X165154338Y67855933D01*
X165177438Y67864198D01*
X165201236Y67870159D01*
X165225505Y67873759D01*
X165250009Y67874963D01*
X167750009Y67874963D01*
X167774513Y67873759D01*
G37*
%TD*%
D12*
%TO.C,J4*%
X132900009Y63299963D03*
X133900009Y63299963D03*
X134900009Y63299963D03*
X135900009Y63299963D03*
X136900009Y63299963D03*
X137900009Y63299963D03*
X139900009Y63299963D03*
X138900009Y63299963D03*
%TD*%
D10*
%TO.C,J1*%
X53480001Y85039963D03*
X58520001Y85039963D03*
X53480001Y82499963D03*
X58520001Y82499963D03*
X53480001Y79959963D03*
X58520001Y79959963D03*
%TD*%
D11*
%TO.C,J2*%
G36*
X52019604Y69774000D02*
G01*
X52039019Y69771120D01*
X52058058Y69766351D01*
X52076538Y69759739D01*
X52094280Y69751347D01*
X52111115Y69741257D01*
X52126880Y69729565D01*
X52141422Y69716384D01*
X52154603Y69701842D01*
X52166295Y69686077D01*
X52176385Y69669242D01*
X52184777Y69651500D01*
X52191389Y69633020D01*
X52196158Y69613981D01*
X52199038Y69594566D01*
X52200001Y69574963D01*
X52200001Y69174963D01*
X52199038Y69155360D01*
X52196158Y69135945D01*
X52191389Y69116906D01*
X52184777Y69098426D01*
X52176385Y69080684D01*
X52166295Y69063849D01*
X52154603Y69048084D01*
X52141422Y69033542D01*
X52126880Y69020361D01*
X52111115Y69008669D01*
X52094280Y68998579D01*
X52076538Y68990187D01*
X52058058Y68983575D01*
X52039019Y68978806D01*
X52019604Y68975926D01*
X52000001Y68974963D01*
X50800001Y68974963D01*
X50780398Y68975926D01*
X50760983Y68978806D01*
X50741944Y68983575D01*
X50723464Y68990187D01*
X50705722Y68998579D01*
X50688887Y69008669D01*
X50673122Y69020361D01*
X50658580Y69033542D01*
X50645399Y69048084D01*
X50633707Y69063849D01*
X50623617Y69080684D01*
X50615225Y69098426D01*
X50608613Y69116906D01*
X50603844Y69135945D01*
X50600964Y69155360D01*
X50600001Y69174963D01*
X50600001Y69574963D01*
X50600964Y69594566D01*
X50603844Y69613981D01*
X50608613Y69633020D01*
X50615225Y69651500D01*
X50623617Y69669242D01*
X50633707Y69686077D01*
X50645399Y69701842D01*
X50658580Y69716384D01*
X50673122Y69729565D01*
X50688887Y69741257D01*
X50705722Y69751347D01*
X50723464Y69759739D01*
X50741944Y69766351D01*
X50760983Y69771120D01*
X50780398Y69774000D01*
X50800001Y69774963D01*
X52000001Y69774963D01*
X52019604Y69774000D01*
G37*
G36*
X52019604Y71024000D02*
G01*
X52039019Y71021120D01*
X52058058Y71016351D01*
X52076538Y71009739D01*
X52094280Y71001347D01*
X52111115Y70991257D01*
X52126880Y70979565D01*
X52141422Y70966384D01*
X52154603Y70951842D01*
X52166295Y70936077D01*
X52176385Y70919242D01*
X52184777Y70901500D01*
X52191389Y70883020D01*
X52196158Y70863981D01*
X52199038Y70844566D01*
X52200001Y70824963D01*
X52200001Y70424963D01*
X52199038Y70405360D01*
X52196158Y70385945D01*
X52191389Y70366906D01*
X52184777Y70348426D01*
X52176385Y70330684D01*
X52166295Y70313849D01*
X52154603Y70298084D01*
X52141422Y70283542D01*
X52126880Y70270361D01*
X52111115Y70258669D01*
X52094280Y70248579D01*
X52076538Y70240187D01*
X52058058Y70233575D01*
X52039019Y70228806D01*
X52019604Y70225926D01*
X52000001Y70224963D01*
X50800001Y70224963D01*
X50780398Y70225926D01*
X50760983Y70228806D01*
X50741944Y70233575D01*
X50723464Y70240187D01*
X50705722Y70248579D01*
X50688887Y70258669D01*
X50673122Y70270361D01*
X50658580Y70283542D01*
X50645399Y70298084D01*
X50633707Y70313849D01*
X50623617Y70330684D01*
X50615225Y70348426D01*
X50608613Y70366906D01*
X50603844Y70385945D01*
X50600964Y70405360D01*
X50600001Y70424963D01*
X50600001Y70824963D01*
X50600964Y70844566D01*
X50603844Y70863981D01*
X50608613Y70883020D01*
X50615225Y70901500D01*
X50623617Y70919242D01*
X50633707Y70936077D01*
X50645399Y70951842D01*
X50658580Y70966384D01*
X50673122Y70979565D01*
X50688887Y70991257D01*
X50705722Y71001347D01*
X50723464Y71009739D01*
X50741944Y71016351D01*
X50760983Y71021120D01*
X50780398Y71024000D01*
X50800001Y71024963D01*
X52000001Y71024963D01*
X52019604Y71024000D01*
G37*
G36*
X49774505Y67873759D02*
G01*
X49798774Y67870159D01*
X49822572Y67864198D01*
X49845672Y67855933D01*
X49867850Y67845443D01*
X49888894Y67832830D01*
X49908599Y67818216D01*
X49926778Y67801740D01*
X49943254Y67783561D01*
X49957868Y67763856D01*
X49970481Y67742812D01*
X49980971Y67720634D01*
X49989236Y67697534D01*
X49995197Y67673736D01*
X49998797Y67649467D01*
X50000001Y67624963D01*
X50000001Y66024963D01*
X49998797Y66000459D01*
X49995197Y65976190D01*
X49989236Y65952392D01*
X49980971Y65929292D01*
X49970481Y65907114D01*
X49957868Y65886070D01*
X49943254Y65866365D01*
X49926778Y65848186D01*
X49908599Y65831710D01*
X49888894Y65817096D01*
X49867850Y65804483D01*
X49845672Y65793993D01*
X49822572Y65785728D01*
X49798774Y65779767D01*
X49774505Y65776167D01*
X49750001Y65774963D01*
X47250001Y65774963D01*
X47225497Y65776167D01*
X47201228Y65779767D01*
X47177430Y65785728D01*
X47154330Y65793993D01*
X47132152Y65804483D01*
X47111108Y65817096D01*
X47091403Y65831710D01*
X47073224Y65848186D01*
X47056748Y65866365D01*
X47042134Y65886070D01*
X47029521Y65907114D01*
X47019031Y65929292D01*
X47010766Y65952392D01*
X47004805Y65976190D01*
X47001205Y66000459D01*
X47000001Y66024963D01*
X47000001Y67624963D01*
X47001205Y67649467D01*
X47004805Y67673736D01*
X47010766Y67697534D01*
X47019031Y67720634D01*
X47029521Y67742812D01*
X47042134Y67763856D01*
X47056748Y67783561D01*
X47073224Y67801740D01*
X47091403Y67818216D01*
X47111108Y67832830D01*
X47132152Y67845443D01*
X47154330Y67855933D01*
X47177430Y67864198D01*
X47201228Y67870159D01*
X47225497Y67873759D01*
X47250001Y67874963D01*
X49750001Y67874963D01*
X49774505Y67873759D01*
G37*
G36*
X49774505Y74223759D02*
G01*
X49798774Y74220159D01*
X49822572Y74214198D01*
X49845672Y74205933D01*
X49867850Y74195443D01*
X49888894Y74182830D01*
X49908599Y74168216D01*
X49926778Y74151740D01*
X49943254Y74133561D01*
X49957868Y74113856D01*
X49970481Y74092812D01*
X49980971Y74070634D01*
X49989236Y74047534D01*
X49995197Y74023736D01*
X49998797Y73999467D01*
X50000001Y73974963D01*
X50000001Y72374963D01*
X49998797Y72350459D01*
X49995197Y72326190D01*
X49989236Y72302392D01*
X49980971Y72279292D01*
X49970481Y72257114D01*
X49957868Y72236070D01*
X49943254Y72216365D01*
X49926778Y72198186D01*
X49908599Y72181710D01*
X49888894Y72167096D01*
X49867850Y72154483D01*
X49845672Y72143993D01*
X49822572Y72135728D01*
X49798774Y72129767D01*
X49774505Y72126167D01*
X49750001Y72124963D01*
X47250001Y72124963D01*
X47225497Y72126167D01*
X47201228Y72129767D01*
X47177430Y72135728D01*
X47154330Y72143993D01*
X47132152Y72154483D01*
X47111108Y72167096D01*
X47091403Y72181710D01*
X47073224Y72198186D01*
X47056748Y72216365D01*
X47042134Y72236070D01*
X47029521Y72257114D01*
X47019031Y72279292D01*
X47010766Y72302392D01*
X47004805Y72326190D01*
X47001205Y72350459D01*
X47000001Y72374963D01*
X47000001Y73974963D01*
X47001205Y73999467D01*
X47004805Y74023736D01*
X47010766Y74047534D01*
X47019031Y74070634D01*
X47029521Y74092812D01*
X47042134Y74113856D01*
X47056748Y74133561D01*
X47073224Y74151740D01*
X47091403Y74168216D01*
X47111108Y74182830D01*
X47132152Y74195443D01*
X47154330Y74205933D01*
X47177430Y74214198D01*
X47201228Y74220159D01*
X47225497Y74223759D01*
X47250001Y74224963D01*
X49750001Y74224963D01*
X49774505Y74223759D01*
G37*
%TD*%
%TO.C,J3*%
G36*
X61219604Y71024000D02*
G01*
X61239019Y71021120D01*
X61258058Y71016351D01*
X61276538Y71009739D01*
X61294280Y71001347D01*
X61311115Y70991257D01*
X61326880Y70979565D01*
X61341422Y70966384D01*
X61354603Y70951842D01*
X61366295Y70936077D01*
X61376385Y70919242D01*
X61384777Y70901500D01*
X61391389Y70883020D01*
X61396158Y70863981D01*
X61399038Y70844566D01*
X61400001Y70824963D01*
X61400001Y70424963D01*
X61399038Y70405360D01*
X61396158Y70385945D01*
X61391389Y70366906D01*
X61384777Y70348426D01*
X61376385Y70330684D01*
X61366295Y70313849D01*
X61354603Y70298084D01*
X61341422Y70283542D01*
X61326880Y70270361D01*
X61311115Y70258669D01*
X61294280Y70248579D01*
X61276538Y70240187D01*
X61258058Y70233575D01*
X61239019Y70228806D01*
X61219604Y70225926D01*
X61200001Y70224963D01*
X60000001Y70224963D01*
X59980398Y70225926D01*
X59960983Y70228806D01*
X59941944Y70233575D01*
X59923464Y70240187D01*
X59905722Y70248579D01*
X59888887Y70258669D01*
X59873122Y70270361D01*
X59858580Y70283542D01*
X59845399Y70298084D01*
X59833707Y70313849D01*
X59823617Y70330684D01*
X59815225Y70348426D01*
X59808613Y70366906D01*
X59803844Y70385945D01*
X59800964Y70405360D01*
X59800001Y70424963D01*
X59800001Y70824963D01*
X59800964Y70844566D01*
X59803844Y70863981D01*
X59808613Y70883020D01*
X59815225Y70901500D01*
X59823617Y70919242D01*
X59833707Y70936077D01*
X59845399Y70951842D01*
X59858580Y70966384D01*
X59873122Y70979565D01*
X59888887Y70991257D01*
X59905722Y71001347D01*
X59923464Y71009739D01*
X59941944Y71016351D01*
X59960983Y71021120D01*
X59980398Y71024000D01*
X60000001Y71024963D01*
X61200001Y71024963D01*
X61219604Y71024000D01*
G37*
G36*
X61219604Y69774000D02*
G01*
X61239019Y69771120D01*
X61258058Y69766351D01*
X61276538Y69759739D01*
X61294280Y69751347D01*
X61311115Y69741257D01*
X61326880Y69729565D01*
X61341422Y69716384D01*
X61354603Y69701842D01*
X61366295Y69686077D01*
X61376385Y69669242D01*
X61384777Y69651500D01*
X61391389Y69633020D01*
X61396158Y69613981D01*
X61399038Y69594566D01*
X61400001Y69574963D01*
X61400001Y69174963D01*
X61399038Y69155360D01*
X61396158Y69135945D01*
X61391389Y69116906D01*
X61384777Y69098426D01*
X61376385Y69080684D01*
X61366295Y69063849D01*
X61354603Y69048084D01*
X61341422Y69033542D01*
X61326880Y69020361D01*
X61311115Y69008669D01*
X61294280Y68998579D01*
X61276538Y68990187D01*
X61258058Y68983575D01*
X61239019Y68978806D01*
X61219604Y68975926D01*
X61200001Y68974963D01*
X60000001Y68974963D01*
X59980398Y68975926D01*
X59960983Y68978806D01*
X59941944Y68983575D01*
X59923464Y68990187D01*
X59905722Y68998579D01*
X59888887Y69008669D01*
X59873122Y69020361D01*
X59858580Y69033542D01*
X59845399Y69048084D01*
X59833707Y69063849D01*
X59823617Y69080684D01*
X59815225Y69098426D01*
X59808613Y69116906D01*
X59803844Y69135945D01*
X59800964Y69155360D01*
X59800001Y69174963D01*
X59800001Y69574963D01*
X59800964Y69594566D01*
X59803844Y69613981D01*
X59808613Y69633020D01*
X59815225Y69651500D01*
X59823617Y69669242D01*
X59833707Y69686077D01*
X59845399Y69701842D01*
X59858580Y69716384D01*
X59873122Y69729565D01*
X59888887Y69741257D01*
X59905722Y69751347D01*
X59923464Y69759739D01*
X59941944Y69766351D01*
X59960983Y69771120D01*
X59980398Y69774000D01*
X60000001Y69774963D01*
X61200001Y69774963D01*
X61219604Y69774000D01*
G37*
G36*
X64774505Y74223759D02*
G01*
X64798774Y74220159D01*
X64822572Y74214198D01*
X64845672Y74205933D01*
X64867850Y74195443D01*
X64888894Y74182830D01*
X64908599Y74168216D01*
X64926778Y74151740D01*
X64943254Y74133561D01*
X64957868Y74113856D01*
X64970481Y74092812D01*
X64980971Y74070634D01*
X64989236Y74047534D01*
X64995197Y74023736D01*
X64998797Y73999467D01*
X65000001Y73974963D01*
X65000001Y72374963D01*
X64998797Y72350459D01*
X64995197Y72326190D01*
X64989236Y72302392D01*
X64980971Y72279292D01*
X64970481Y72257114D01*
X64957868Y72236070D01*
X64943254Y72216365D01*
X64926778Y72198186D01*
X64908599Y72181710D01*
X64888894Y72167096D01*
X64867850Y72154483D01*
X64845672Y72143993D01*
X64822572Y72135728D01*
X64798774Y72129767D01*
X64774505Y72126167D01*
X64750001Y72124963D01*
X62250001Y72124963D01*
X62225497Y72126167D01*
X62201228Y72129767D01*
X62177430Y72135728D01*
X62154330Y72143993D01*
X62132152Y72154483D01*
X62111108Y72167096D01*
X62091403Y72181710D01*
X62073224Y72198186D01*
X62056748Y72216365D01*
X62042134Y72236070D01*
X62029521Y72257114D01*
X62019031Y72279292D01*
X62010766Y72302392D01*
X62004805Y72326190D01*
X62001205Y72350459D01*
X62000001Y72374963D01*
X62000001Y73974963D01*
X62001205Y73999467D01*
X62004805Y74023736D01*
X62010766Y74047534D01*
X62019031Y74070634D01*
X62029521Y74092812D01*
X62042134Y74113856D01*
X62056748Y74133561D01*
X62073224Y74151740D01*
X62091403Y74168216D01*
X62111108Y74182830D01*
X62132152Y74195443D01*
X62154330Y74205933D01*
X62177430Y74214198D01*
X62201228Y74220159D01*
X62225497Y74223759D01*
X62250001Y74224963D01*
X64750001Y74224963D01*
X64774505Y74223759D01*
G37*
G36*
X64774505Y67873759D02*
G01*
X64798774Y67870159D01*
X64822572Y67864198D01*
X64845672Y67855933D01*
X64867850Y67845443D01*
X64888894Y67832830D01*
X64908599Y67818216D01*
X64926778Y67801740D01*
X64943254Y67783561D01*
X64957868Y67763856D01*
X64970481Y67742812D01*
X64980971Y67720634D01*
X64989236Y67697534D01*
X64995197Y67673736D01*
X64998797Y67649467D01*
X65000001Y67624963D01*
X65000001Y66024963D01*
X64998797Y66000459D01*
X64995197Y65976190D01*
X64989236Y65952392D01*
X64980971Y65929292D01*
X64970481Y65907114D01*
X64957868Y65886070D01*
X64943254Y65866365D01*
X64926778Y65848186D01*
X64908599Y65831710D01*
X64888894Y65817096D01*
X64867850Y65804483D01*
X64845672Y65793993D01*
X64822572Y65785728D01*
X64798774Y65779767D01*
X64774505Y65776167D01*
X64750001Y65774963D01*
X62250001Y65774963D01*
X62225497Y65776167D01*
X62201228Y65779767D01*
X62177430Y65785728D01*
X62154330Y65793993D01*
X62132152Y65804483D01*
X62111108Y65817096D01*
X62091403Y65831710D01*
X62073224Y65848186D01*
X62056748Y65866365D01*
X62042134Y65886070D01*
X62029521Y65907114D01*
X62019031Y65929292D01*
X62010766Y65952392D01*
X62004805Y65976190D01*
X62001205Y66000459D01*
X62000001Y66024963D01*
X62000001Y67624963D01*
X62001205Y67649467D01*
X62004805Y67673736D01*
X62010766Y67697534D01*
X62019031Y67720634D01*
X62029521Y67742812D01*
X62042134Y67763856D01*
X62056748Y67783561D01*
X62073224Y67801740D01*
X62091403Y67818216D01*
X62111108Y67832830D01*
X62132152Y67845443D01*
X62154330Y67855933D01*
X62177430Y67864198D01*
X62201228Y67870159D01*
X62225497Y67873759D01*
X62250001Y67874963D01*
X64750001Y67874963D01*
X64774505Y67873759D01*
G37*
%TD*%
D12*
%TO.C,J4*%
X29900001Y63299963D03*
X30900001Y63299963D03*
X31900001Y63299963D03*
X32900001Y63299963D03*
X33900001Y63299963D03*
X34900001Y63299963D03*
X36900001Y63299963D03*
X35900001Y63299963D03*
%TD*%
D10*
%TO.C,J1*%
X156480009Y128039975D03*
X161520009Y128039975D03*
X156480009Y125499975D03*
X161520009Y125499975D03*
X156480009Y122959975D03*
X161520009Y122959975D03*
%TD*%
D11*
%TO.C,J2*%
G36*
X155019612Y112774012D02*
G01*
X155039027Y112771132D01*
X155058066Y112766363D01*
X155076546Y112759751D01*
X155094288Y112751359D01*
X155111123Y112741269D01*
X155126888Y112729577D01*
X155141430Y112716396D01*
X155154611Y112701854D01*
X155166303Y112686089D01*
X155176393Y112669254D01*
X155184785Y112651512D01*
X155191397Y112633032D01*
X155196166Y112613993D01*
X155199046Y112594578D01*
X155200009Y112574975D01*
X155200009Y112174975D01*
X155199046Y112155372D01*
X155196166Y112135957D01*
X155191397Y112116918D01*
X155184785Y112098438D01*
X155176393Y112080696D01*
X155166303Y112063861D01*
X155154611Y112048096D01*
X155141430Y112033554D01*
X155126888Y112020373D01*
X155111123Y112008681D01*
X155094288Y111998591D01*
X155076546Y111990199D01*
X155058066Y111983587D01*
X155039027Y111978818D01*
X155019612Y111975938D01*
X155000009Y111974975D01*
X153800009Y111974975D01*
X153780406Y111975938D01*
X153760991Y111978818D01*
X153741952Y111983587D01*
X153723472Y111990199D01*
X153705730Y111998591D01*
X153688895Y112008681D01*
X153673130Y112020373D01*
X153658588Y112033554D01*
X153645407Y112048096D01*
X153633715Y112063861D01*
X153623625Y112080696D01*
X153615233Y112098438D01*
X153608621Y112116918D01*
X153603852Y112135957D01*
X153600972Y112155372D01*
X153600009Y112174975D01*
X153600009Y112574975D01*
X153600972Y112594578D01*
X153603852Y112613993D01*
X153608621Y112633032D01*
X153615233Y112651512D01*
X153623625Y112669254D01*
X153633715Y112686089D01*
X153645407Y112701854D01*
X153658588Y112716396D01*
X153673130Y112729577D01*
X153688895Y112741269D01*
X153705730Y112751359D01*
X153723472Y112759751D01*
X153741952Y112766363D01*
X153760991Y112771132D01*
X153780406Y112774012D01*
X153800009Y112774975D01*
X155000009Y112774975D01*
X155019612Y112774012D01*
G37*
G36*
X155019612Y114024012D02*
G01*
X155039027Y114021132D01*
X155058066Y114016363D01*
X155076546Y114009751D01*
X155094288Y114001359D01*
X155111123Y113991269D01*
X155126888Y113979577D01*
X155141430Y113966396D01*
X155154611Y113951854D01*
X155166303Y113936089D01*
X155176393Y113919254D01*
X155184785Y113901512D01*
X155191397Y113883032D01*
X155196166Y113863993D01*
X155199046Y113844578D01*
X155200009Y113824975D01*
X155200009Y113424975D01*
X155199046Y113405372D01*
X155196166Y113385957D01*
X155191397Y113366918D01*
X155184785Y113348438D01*
X155176393Y113330696D01*
X155166303Y113313861D01*
X155154611Y113298096D01*
X155141430Y113283554D01*
X155126888Y113270373D01*
X155111123Y113258681D01*
X155094288Y113248591D01*
X155076546Y113240199D01*
X155058066Y113233587D01*
X155039027Y113228818D01*
X155019612Y113225938D01*
X155000009Y113224975D01*
X153800009Y113224975D01*
X153780406Y113225938D01*
X153760991Y113228818D01*
X153741952Y113233587D01*
X153723472Y113240199D01*
X153705730Y113248591D01*
X153688895Y113258681D01*
X153673130Y113270373D01*
X153658588Y113283554D01*
X153645407Y113298096D01*
X153633715Y113313861D01*
X153623625Y113330696D01*
X153615233Y113348438D01*
X153608621Y113366918D01*
X153603852Y113385957D01*
X153600972Y113405372D01*
X153600009Y113424975D01*
X153600009Y113824975D01*
X153600972Y113844578D01*
X153603852Y113863993D01*
X153608621Y113883032D01*
X153615233Y113901512D01*
X153623625Y113919254D01*
X153633715Y113936089D01*
X153645407Y113951854D01*
X153658588Y113966396D01*
X153673130Y113979577D01*
X153688895Y113991269D01*
X153705730Y114001359D01*
X153723472Y114009751D01*
X153741952Y114016363D01*
X153760991Y114021132D01*
X153780406Y114024012D01*
X153800009Y114024975D01*
X155000009Y114024975D01*
X155019612Y114024012D01*
G37*
G36*
X152774513Y110873771D02*
G01*
X152798782Y110870171D01*
X152822580Y110864210D01*
X152845680Y110855945D01*
X152867858Y110845455D01*
X152888902Y110832842D01*
X152908607Y110818228D01*
X152926786Y110801752D01*
X152943262Y110783573D01*
X152957876Y110763868D01*
X152970489Y110742824D01*
X152980979Y110720646D01*
X152989244Y110697546D01*
X152995205Y110673748D01*
X152998805Y110649479D01*
X153000009Y110624975D01*
X153000009Y109024975D01*
X152998805Y109000471D01*
X152995205Y108976202D01*
X152989244Y108952404D01*
X152980979Y108929304D01*
X152970489Y108907126D01*
X152957876Y108886082D01*
X152943262Y108866377D01*
X152926786Y108848198D01*
X152908607Y108831722D01*
X152888902Y108817108D01*
X152867858Y108804495D01*
X152845680Y108794005D01*
X152822580Y108785740D01*
X152798782Y108779779D01*
X152774513Y108776179D01*
X152750009Y108774975D01*
X150250009Y108774975D01*
X150225505Y108776179D01*
X150201236Y108779779D01*
X150177438Y108785740D01*
X150154338Y108794005D01*
X150132160Y108804495D01*
X150111116Y108817108D01*
X150091411Y108831722D01*
X150073232Y108848198D01*
X150056756Y108866377D01*
X150042142Y108886082D01*
X150029529Y108907126D01*
X150019039Y108929304D01*
X150010774Y108952404D01*
X150004813Y108976202D01*
X150001213Y109000471D01*
X150000009Y109024975D01*
X150000009Y110624975D01*
X150001213Y110649479D01*
X150004813Y110673748D01*
X150010774Y110697546D01*
X150019039Y110720646D01*
X150029529Y110742824D01*
X150042142Y110763868D01*
X150056756Y110783573D01*
X150073232Y110801752D01*
X150091411Y110818228D01*
X150111116Y110832842D01*
X150132160Y110845455D01*
X150154338Y110855945D01*
X150177438Y110864210D01*
X150201236Y110870171D01*
X150225505Y110873771D01*
X150250009Y110874975D01*
X152750009Y110874975D01*
X152774513Y110873771D01*
G37*
G36*
X152774513Y117223771D02*
G01*
X152798782Y117220171D01*
X152822580Y117214210D01*
X152845680Y117205945D01*
X152867858Y117195455D01*
X152888902Y117182842D01*
X152908607Y117168228D01*
X152926786Y117151752D01*
X152943262Y117133573D01*
X152957876Y117113868D01*
X152970489Y117092824D01*
X152980979Y117070646D01*
X152989244Y117047546D01*
X152995205Y117023748D01*
X152998805Y116999479D01*
X153000009Y116974975D01*
X153000009Y115374975D01*
X152998805Y115350471D01*
X152995205Y115326202D01*
X152989244Y115302404D01*
X152980979Y115279304D01*
X152970489Y115257126D01*
X152957876Y115236082D01*
X152943262Y115216377D01*
X152926786Y115198198D01*
X152908607Y115181722D01*
X152888902Y115167108D01*
X152867858Y115154495D01*
X152845680Y115144005D01*
X152822580Y115135740D01*
X152798782Y115129779D01*
X152774513Y115126179D01*
X152750009Y115124975D01*
X150250009Y115124975D01*
X150225505Y115126179D01*
X150201236Y115129779D01*
X150177438Y115135740D01*
X150154338Y115144005D01*
X150132160Y115154495D01*
X150111116Y115167108D01*
X150091411Y115181722D01*
X150073232Y115198198D01*
X150056756Y115216377D01*
X150042142Y115236082D01*
X150029529Y115257126D01*
X150019039Y115279304D01*
X150010774Y115302404D01*
X150004813Y115326202D01*
X150001213Y115350471D01*
X150000009Y115374975D01*
X150000009Y116974975D01*
X150001213Y116999479D01*
X150004813Y117023748D01*
X150010774Y117047546D01*
X150019039Y117070646D01*
X150029529Y117092824D01*
X150042142Y117113868D01*
X150056756Y117133573D01*
X150073232Y117151752D01*
X150091411Y117168228D01*
X150111116Y117182842D01*
X150132160Y117195455D01*
X150154338Y117205945D01*
X150177438Y117214210D01*
X150201236Y117220171D01*
X150225505Y117223771D01*
X150250009Y117224975D01*
X152750009Y117224975D01*
X152774513Y117223771D01*
G37*
%TD*%
%TO.C,J3*%
G36*
X164219612Y114024012D02*
G01*
X164239027Y114021132D01*
X164258066Y114016363D01*
X164276546Y114009751D01*
X164294288Y114001359D01*
X164311123Y113991269D01*
X164326888Y113979577D01*
X164341430Y113966396D01*
X164354611Y113951854D01*
X164366303Y113936089D01*
X164376393Y113919254D01*
X164384785Y113901512D01*
X164391397Y113883032D01*
X164396166Y113863993D01*
X164399046Y113844578D01*
X164400009Y113824975D01*
X164400009Y113424975D01*
X164399046Y113405372D01*
X164396166Y113385957D01*
X164391397Y113366918D01*
X164384785Y113348438D01*
X164376393Y113330696D01*
X164366303Y113313861D01*
X164354611Y113298096D01*
X164341430Y113283554D01*
X164326888Y113270373D01*
X164311123Y113258681D01*
X164294288Y113248591D01*
X164276546Y113240199D01*
X164258066Y113233587D01*
X164239027Y113228818D01*
X164219612Y113225938D01*
X164200009Y113224975D01*
X163000009Y113224975D01*
X162980406Y113225938D01*
X162960991Y113228818D01*
X162941952Y113233587D01*
X162923472Y113240199D01*
X162905730Y113248591D01*
X162888895Y113258681D01*
X162873130Y113270373D01*
X162858588Y113283554D01*
X162845407Y113298096D01*
X162833715Y113313861D01*
X162823625Y113330696D01*
X162815233Y113348438D01*
X162808621Y113366918D01*
X162803852Y113385957D01*
X162800972Y113405372D01*
X162800009Y113424975D01*
X162800009Y113824975D01*
X162800972Y113844578D01*
X162803852Y113863993D01*
X162808621Y113883032D01*
X162815233Y113901512D01*
X162823625Y113919254D01*
X162833715Y113936089D01*
X162845407Y113951854D01*
X162858588Y113966396D01*
X162873130Y113979577D01*
X162888895Y113991269D01*
X162905730Y114001359D01*
X162923472Y114009751D01*
X162941952Y114016363D01*
X162960991Y114021132D01*
X162980406Y114024012D01*
X163000009Y114024975D01*
X164200009Y114024975D01*
X164219612Y114024012D01*
G37*
G36*
X164219612Y112774012D02*
G01*
X164239027Y112771132D01*
X164258066Y112766363D01*
X164276546Y112759751D01*
X164294288Y112751359D01*
X164311123Y112741269D01*
X164326888Y112729577D01*
X164341430Y112716396D01*
X164354611Y112701854D01*
X164366303Y112686089D01*
X164376393Y112669254D01*
X164384785Y112651512D01*
X164391397Y112633032D01*
X164396166Y112613993D01*
X164399046Y112594578D01*
X164400009Y112574975D01*
X164400009Y112174975D01*
X164399046Y112155372D01*
X164396166Y112135957D01*
X164391397Y112116918D01*
X164384785Y112098438D01*
X164376393Y112080696D01*
X164366303Y112063861D01*
X164354611Y112048096D01*
X164341430Y112033554D01*
X164326888Y112020373D01*
X164311123Y112008681D01*
X164294288Y111998591D01*
X164276546Y111990199D01*
X164258066Y111983587D01*
X164239027Y111978818D01*
X164219612Y111975938D01*
X164200009Y111974975D01*
X163000009Y111974975D01*
X162980406Y111975938D01*
X162960991Y111978818D01*
X162941952Y111983587D01*
X162923472Y111990199D01*
X162905730Y111998591D01*
X162888895Y112008681D01*
X162873130Y112020373D01*
X162858588Y112033554D01*
X162845407Y112048096D01*
X162833715Y112063861D01*
X162823625Y112080696D01*
X162815233Y112098438D01*
X162808621Y112116918D01*
X162803852Y112135957D01*
X162800972Y112155372D01*
X162800009Y112174975D01*
X162800009Y112574975D01*
X162800972Y112594578D01*
X162803852Y112613993D01*
X162808621Y112633032D01*
X162815233Y112651512D01*
X162823625Y112669254D01*
X162833715Y112686089D01*
X162845407Y112701854D01*
X162858588Y112716396D01*
X162873130Y112729577D01*
X162888895Y112741269D01*
X162905730Y112751359D01*
X162923472Y112759751D01*
X162941952Y112766363D01*
X162960991Y112771132D01*
X162980406Y112774012D01*
X163000009Y112774975D01*
X164200009Y112774975D01*
X164219612Y112774012D01*
G37*
G36*
X167774513Y117223771D02*
G01*
X167798782Y117220171D01*
X167822580Y117214210D01*
X167845680Y117205945D01*
X167867858Y117195455D01*
X167888902Y117182842D01*
X167908607Y117168228D01*
X167926786Y117151752D01*
X167943262Y117133573D01*
X167957876Y117113868D01*
X167970489Y117092824D01*
X167980979Y117070646D01*
X167989244Y117047546D01*
X167995205Y117023748D01*
X167998805Y116999479D01*
X168000009Y116974975D01*
X168000009Y115374975D01*
X167998805Y115350471D01*
X167995205Y115326202D01*
X167989244Y115302404D01*
X167980979Y115279304D01*
X167970489Y115257126D01*
X167957876Y115236082D01*
X167943262Y115216377D01*
X167926786Y115198198D01*
X167908607Y115181722D01*
X167888902Y115167108D01*
X167867858Y115154495D01*
X167845680Y115144005D01*
X167822580Y115135740D01*
X167798782Y115129779D01*
X167774513Y115126179D01*
X167750009Y115124975D01*
X165250009Y115124975D01*
X165225505Y115126179D01*
X165201236Y115129779D01*
X165177438Y115135740D01*
X165154338Y115144005D01*
X165132160Y115154495D01*
X165111116Y115167108D01*
X165091411Y115181722D01*
X165073232Y115198198D01*
X165056756Y115216377D01*
X165042142Y115236082D01*
X165029529Y115257126D01*
X165019039Y115279304D01*
X165010774Y115302404D01*
X165004813Y115326202D01*
X165001213Y115350471D01*
X165000009Y115374975D01*
X165000009Y116974975D01*
X165001213Y116999479D01*
X165004813Y117023748D01*
X165010774Y117047546D01*
X165019039Y117070646D01*
X165029529Y117092824D01*
X165042142Y117113868D01*
X165056756Y117133573D01*
X165073232Y117151752D01*
X165091411Y117168228D01*
X165111116Y117182842D01*
X165132160Y117195455D01*
X165154338Y117205945D01*
X165177438Y117214210D01*
X165201236Y117220171D01*
X165225505Y117223771D01*
X165250009Y117224975D01*
X167750009Y117224975D01*
X167774513Y117223771D01*
G37*
G36*
X167774513Y110873771D02*
G01*
X167798782Y110870171D01*
X167822580Y110864210D01*
X167845680Y110855945D01*
X167867858Y110845455D01*
X167888902Y110832842D01*
X167908607Y110818228D01*
X167926786Y110801752D01*
X167943262Y110783573D01*
X167957876Y110763868D01*
X167970489Y110742824D01*
X167980979Y110720646D01*
X167989244Y110697546D01*
X167995205Y110673748D01*
X167998805Y110649479D01*
X168000009Y110624975D01*
X168000009Y109024975D01*
X167998805Y109000471D01*
X167995205Y108976202D01*
X167989244Y108952404D01*
X167980979Y108929304D01*
X167970489Y108907126D01*
X167957876Y108886082D01*
X167943262Y108866377D01*
X167926786Y108848198D01*
X167908607Y108831722D01*
X167888902Y108817108D01*
X167867858Y108804495D01*
X167845680Y108794005D01*
X167822580Y108785740D01*
X167798782Y108779779D01*
X167774513Y108776179D01*
X167750009Y108774975D01*
X165250009Y108774975D01*
X165225505Y108776179D01*
X165201236Y108779779D01*
X165177438Y108785740D01*
X165154338Y108794005D01*
X165132160Y108804495D01*
X165111116Y108817108D01*
X165091411Y108831722D01*
X165073232Y108848198D01*
X165056756Y108866377D01*
X165042142Y108886082D01*
X165029529Y108907126D01*
X165019039Y108929304D01*
X165010774Y108952404D01*
X165004813Y108976202D01*
X165001213Y109000471D01*
X165000009Y109024975D01*
X165000009Y110624975D01*
X165001213Y110649479D01*
X165004813Y110673748D01*
X165010774Y110697546D01*
X165019039Y110720646D01*
X165029529Y110742824D01*
X165042142Y110763868D01*
X165056756Y110783573D01*
X165073232Y110801752D01*
X165091411Y110818228D01*
X165111116Y110832842D01*
X165132160Y110845455D01*
X165154338Y110855945D01*
X165177438Y110864210D01*
X165201236Y110870171D01*
X165225505Y110873771D01*
X165250009Y110874975D01*
X167750009Y110874975D01*
X167774513Y110873771D01*
G37*
%TD*%
D12*
%TO.C,J4*%
X132900009Y106299975D03*
X133900009Y106299975D03*
X134900009Y106299975D03*
X135900009Y106299975D03*
X136900009Y106299975D03*
X137900009Y106299975D03*
X139900009Y106299975D03*
X138900009Y106299975D03*
%TD*%
D10*
%TO.C,J1*%
X53480001Y128039975D03*
X58520001Y128039975D03*
X53480001Y125499975D03*
X58520001Y125499975D03*
X53480001Y122959975D03*
X58520001Y122959975D03*
%TD*%
D11*
%TO.C,J2*%
G36*
X52019604Y112774012D02*
G01*
X52039019Y112771132D01*
X52058058Y112766363D01*
X52076538Y112759751D01*
X52094280Y112751359D01*
X52111115Y112741269D01*
X52126880Y112729577D01*
X52141422Y112716396D01*
X52154603Y112701854D01*
X52166295Y112686089D01*
X52176385Y112669254D01*
X52184777Y112651512D01*
X52191389Y112633032D01*
X52196158Y112613993D01*
X52199038Y112594578D01*
X52200001Y112574975D01*
X52200001Y112174975D01*
X52199038Y112155372D01*
X52196158Y112135957D01*
X52191389Y112116918D01*
X52184777Y112098438D01*
X52176385Y112080696D01*
X52166295Y112063861D01*
X52154603Y112048096D01*
X52141422Y112033554D01*
X52126880Y112020373D01*
X52111115Y112008681D01*
X52094280Y111998591D01*
X52076538Y111990199D01*
X52058058Y111983587D01*
X52039019Y111978818D01*
X52019604Y111975938D01*
X52000001Y111974975D01*
X50800001Y111974975D01*
X50780398Y111975938D01*
X50760983Y111978818D01*
X50741944Y111983587D01*
X50723464Y111990199D01*
X50705722Y111998591D01*
X50688887Y112008681D01*
X50673122Y112020373D01*
X50658580Y112033554D01*
X50645399Y112048096D01*
X50633707Y112063861D01*
X50623617Y112080696D01*
X50615225Y112098438D01*
X50608613Y112116918D01*
X50603844Y112135957D01*
X50600964Y112155372D01*
X50600001Y112174975D01*
X50600001Y112574975D01*
X50600964Y112594578D01*
X50603844Y112613993D01*
X50608613Y112633032D01*
X50615225Y112651512D01*
X50623617Y112669254D01*
X50633707Y112686089D01*
X50645399Y112701854D01*
X50658580Y112716396D01*
X50673122Y112729577D01*
X50688887Y112741269D01*
X50705722Y112751359D01*
X50723464Y112759751D01*
X50741944Y112766363D01*
X50760983Y112771132D01*
X50780398Y112774012D01*
X50800001Y112774975D01*
X52000001Y112774975D01*
X52019604Y112774012D01*
G37*
G36*
X52019604Y114024012D02*
G01*
X52039019Y114021132D01*
X52058058Y114016363D01*
X52076538Y114009751D01*
X52094280Y114001359D01*
X52111115Y113991269D01*
X52126880Y113979577D01*
X52141422Y113966396D01*
X52154603Y113951854D01*
X52166295Y113936089D01*
X52176385Y113919254D01*
X52184777Y113901512D01*
X52191389Y113883032D01*
X52196158Y113863993D01*
X52199038Y113844578D01*
X52200001Y113824975D01*
X52200001Y113424975D01*
X52199038Y113405372D01*
X52196158Y113385957D01*
X52191389Y113366918D01*
X52184777Y113348438D01*
X52176385Y113330696D01*
X52166295Y113313861D01*
X52154603Y113298096D01*
X52141422Y113283554D01*
X52126880Y113270373D01*
X52111115Y113258681D01*
X52094280Y113248591D01*
X52076538Y113240199D01*
X52058058Y113233587D01*
X52039019Y113228818D01*
X52019604Y113225938D01*
X52000001Y113224975D01*
X50800001Y113224975D01*
X50780398Y113225938D01*
X50760983Y113228818D01*
X50741944Y113233587D01*
X50723464Y113240199D01*
X50705722Y113248591D01*
X50688887Y113258681D01*
X50673122Y113270373D01*
X50658580Y113283554D01*
X50645399Y113298096D01*
X50633707Y113313861D01*
X50623617Y113330696D01*
X50615225Y113348438D01*
X50608613Y113366918D01*
X50603844Y113385957D01*
X50600964Y113405372D01*
X50600001Y113424975D01*
X50600001Y113824975D01*
X50600964Y113844578D01*
X50603844Y113863993D01*
X50608613Y113883032D01*
X50615225Y113901512D01*
X50623617Y113919254D01*
X50633707Y113936089D01*
X50645399Y113951854D01*
X50658580Y113966396D01*
X50673122Y113979577D01*
X50688887Y113991269D01*
X50705722Y114001359D01*
X50723464Y114009751D01*
X50741944Y114016363D01*
X50760983Y114021132D01*
X50780398Y114024012D01*
X50800001Y114024975D01*
X52000001Y114024975D01*
X52019604Y114024012D01*
G37*
G36*
X49774505Y110873771D02*
G01*
X49798774Y110870171D01*
X49822572Y110864210D01*
X49845672Y110855945D01*
X49867850Y110845455D01*
X49888894Y110832842D01*
X49908599Y110818228D01*
X49926778Y110801752D01*
X49943254Y110783573D01*
X49957868Y110763868D01*
X49970481Y110742824D01*
X49980971Y110720646D01*
X49989236Y110697546D01*
X49995197Y110673748D01*
X49998797Y110649479D01*
X50000001Y110624975D01*
X50000001Y109024975D01*
X49998797Y109000471D01*
X49995197Y108976202D01*
X49989236Y108952404D01*
X49980971Y108929304D01*
X49970481Y108907126D01*
X49957868Y108886082D01*
X49943254Y108866377D01*
X49926778Y108848198D01*
X49908599Y108831722D01*
X49888894Y108817108D01*
X49867850Y108804495D01*
X49845672Y108794005D01*
X49822572Y108785740D01*
X49798774Y108779779D01*
X49774505Y108776179D01*
X49750001Y108774975D01*
X47250001Y108774975D01*
X47225497Y108776179D01*
X47201228Y108779779D01*
X47177430Y108785740D01*
X47154330Y108794005D01*
X47132152Y108804495D01*
X47111108Y108817108D01*
X47091403Y108831722D01*
X47073224Y108848198D01*
X47056748Y108866377D01*
X47042134Y108886082D01*
X47029521Y108907126D01*
X47019031Y108929304D01*
X47010766Y108952404D01*
X47004805Y108976202D01*
X47001205Y109000471D01*
X47000001Y109024975D01*
X47000001Y110624975D01*
X47001205Y110649479D01*
X47004805Y110673748D01*
X47010766Y110697546D01*
X47019031Y110720646D01*
X47029521Y110742824D01*
X47042134Y110763868D01*
X47056748Y110783573D01*
X47073224Y110801752D01*
X47091403Y110818228D01*
X47111108Y110832842D01*
X47132152Y110845455D01*
X47154330Y110855945D01*
X47177430Y110864210D01*
X47201228Y110870171D01*
X47225497Y110873771D01*
X47250001Y110874975D01*
X49750001Y110874975D01*
X49774505Y110873771D01*
G37*
G36*
X49774505Y117223771D02*
G01*
X49798774Y117220171D01*
X49822572Y117214210D01*
X49845672Y117205945D01*
X49867850Y117195455D01*
X49888894Y117182842D01*
X49908599Y117168228D01*
X49926778Y117151752D01*
X49943254Y117133573D01*
X49957868Y117113868D01*
X49970481Y117092824D01*
X49980971Y117070646D01*
X49989236Y117047546D01*
X49995197Y117023748D01*
X49998797Y116999479D01*
X50000001Y116974975D01*
X50000001Y115374975D01*
X49998797Y115350471D01*
X49995197Y115326202D01*
X49989236Y115302404D01*
X49980971Y115279304D01*
X49970481Y115257126D01*
X49957868Y115236082D01*
X49943254Y115216377D01*
X49926778Y115198198D01*
X49908599Y115181722D01*
X49888894Y115167108D01*
X49867850Y115154495D01*
X49845672Y115144005D01*
X49822572Y115135740D01*
X49798774Y115129779D01*
X49774505Y115126179D01*
X49750001Y115124975D01*
X47250001Y115124975D01*
X47225497Y115126179D01*
X47201228Y115129779D01*
X47177430Y115135740D01*
X47154330Y115144005D01*
X47132152Y115154495D01*
X47111108Y115167108D01*
X47091403Y115181722D01*
X47073224Y115198198D01*
X47056748Y115216377D01*
X47042134Y115236082D01*
X47029521Y115257126D01*
X47019031Y115279304D01*
X47010766Y115302404D01*
X47004805Y115326202D01*
X47001205Y115350471D01*
X47000001Y115374975D01*
X47000001Y116974975D01*
X47001205Y116999479D01*
X47004805Y117023748D01*
X47010766Y117047546D01*
X47019031Y117070646D01*
X47029521Y117092824D01*
X47042134Y117113868D01*
X47056748Y117133573D01*
X47073224Y117151752D01*
X47091403Y117168228D01*
X47111108Y117182842D01*
X47132152Y117195455D01*
X47154330Y117205945D01*
X47177430Y117214210D01*
X47201228Y117220171D01*
X47225497Y117223771D01*
X47250001Y117224975D01*
X49750001Y117224975D01*
X49774505Y117223771D01*
G37*
%TD*%
%TO.C,J3*%
G36*
X61219604Y114024012D02*
G01*
X61239019Y114021132D01*
X61258058Y114016363D01*
X61276538Y114009751D01*
X61294280Y114001359D01*
X61311115Y113991269D01*
X61326880Y113979577D01*
X61341422Y113966396D01*
X61354603Y113951854D01*
X61366295Y113936089D01*
X61376385Y113919254D01*
X61384777Y113901512D01*
X61391389Y113883032D01*
X61396158Y113863993D01*
X61399038Y113844578D01*
X61400001Y113824975D01*
X61400001Y113424975D01*
X61399038Y113405372D01*
X61396158Y113385957D01*
X61391389Y113366918D01*
X61384777Y113348438D01*
X61376385Y113330696D01*
X61366295Y113313861D01*
X61354603Y113298096D01*
X61341422Y113283554D01*
X61326880Y113270373D01*
X61311115Y113258681D01*
X61294280Y113248591D01*
X61276538Y113240199D01*
X61258058Y113233587D01*
X61239019Y113228818D01*
X61219604Y113225938D01*
X61200001Y113224975D01*
X60000001Y113224975D01*
X59980398Y113225938D01*
X59960983Y113228818D01*
X59941944Y113233587D01*
X59923464Y113240199D01*
X59905722Y113248591D01*
X59888887Y113258681D01*
X59873122Y113270373D01*
X59858580Y113283554D01*
X59845399Y113298096D01*
X59833707Y113313861D01*
X59823617Y113330696D01*
X59815225Y113348438D01*
X59808613Y113366918D01*
X59803844Y113385957D01*
X59800964Y113405372D01*
X59800001Y113424975D01*
X59800001Y113824975D01*
X59800964Y113844578D01*
X59803844Y113863993D01*
X59808613Y113883032D01*
X59815225Y113901512D01*
X59823617Y113919254D01*
X59833707Y113936089D01*
X59845399Y113951854D01*
X59858580Y113966396D01*
X59873122Y113979577D01*
X59888887Y113991269D01*
X59905722Y114001359D01*
X59923464Y114009751D01*
X59941944Y114016363D01*
X59960983Y114021132D01*
X59980398Y114024012D01*
X60000001Y114024975D01*
X61200001Y114024975D01*
X61219604Y114024012D01*
G37*
G36*
X61219604Y112774012D02*
G01*
X61239019Y112771132D01*
X61258058Y112766363D01*
X61276538Y112759751D01*
X61294280Y112751359D01*
X61311115Y112741269D01*
X61326880Y112729577D01*
X61341422Y112716396D01*
X61354603Y112701854D01*
X61366295Y112686089D01*
X61376385Y112669254D01*
X61384777Y112651512D01*
X61391389Y112633032D01*
X61396158Y112613993D01*
X61399038Y112594578D01*
X61400001Y112574975D01*
X61400001Y112174975D01*
X61399038Y112155372D01*
X61396158Y112135957D01*
X61391389Y112116918D01*
X61384777Y112098438D01*
X61376385Y112080696D01*
X61366295Y112063861D01*
X61354603Y112048096D01*
X61341422Y112033554D01*
X61326880Y112020373D01*
X61311115Y112008681D01*
X61294280Y111998591D01*
X61276538Y111990199D01*
X61258058Y111983587D01*
X61239019Y111978818D01*
X61219604Y111975938D01*
X61200001Y111974975D01*
X60000001Y111974975D01*
X59980398Y111975938D01*
X59960983Y111978818D01*
X59941944Y111983587D01*
X59923464Y111990199D01*
X59905722Y111998591D01*
X59888887Y112008681D01*
X59873122Y112020373D01*
X59858580Y112033554D01*
X59845399Y112048096D01*
X59833707Y112063861D01*
X59823617Y112080696D01*
X59815225Y112098438D01*
X59808613Y112116918D01*
X59803844Y112135957D01*
X59800964Y112155372D01*
X59800001Y112174975D01*
X59800001Y112574975D01*
X59800964Y112594578D01*
X59803844Y112613993D01*
X59808613Y112633032D01*
X59815225Y112651512D01*
X59823617Y112669254D01*
X59833707Y112686089D01*
X59845399Y112701854D01*
X59858580Y112716396D01*
X59873122Y112729577D01*
X59888887Y112741269D01*
X59905722Y112751359D01*
X59923464Y112759751D01*
X59941944Y112766363D01*
X59960983Y112771132D01*
X59980398Y112774012D01*
X60000001Y112774975D01*
X61200001Y112774975D01*
X61219604Y112774012D01*
G37*
G36*
X64774505Y117223771D02*
G01*
X64798774Y117220171D01*
X64822572Y117214210D01*
X64845672Y117205945D01*
X64867850Y117195455D01*
X64888894Y117182842D01*
X64908599Y117168228D01*
X64926778Y117151752D01*
X64943254Y117133573D01*
X64957868Y117113868D01*
X64970481Y117092824D01*
X64980971Y117070646D01*
X64989236Y117047546D01*
X64995197Y117023748D01*
X64998797Y116999479D01*
X65000001Y116974975D01*
X65000001Y115374975D01*
X64998797Y115350471D01*
X64995197Y115326202D01*
X64989236Y115302404D01*
X64980971Y115279304D01*
X64970481Y115257126D01*
X64957868Y115236082D01*
X64943254Y115216377D01*
X64926778Y115198198D01*
X64908599Y115181722D01*
X64888894Y115167108D01*
X64867850Y115154495D01*
X64845672Y115144005D01*
X64822572Y115135740D01*
X64798774Y115129779D01*
X64774505Y115126179D01*
X64750001Y115124975D01*
X62250001Y115124975D01*
X62225497Y115126179D01*
X62201228Y115129779D01*
X62177430Y115135740D01*
X62154330Y115144005D01*
X62132152Y115154495D01*
X62111108Y115167108D01*
X62091403Y115181722D01*
X62073224Y115198198D01*
X62056748Y115216377D01*
X62042134Y115236082D01*
X62029521Y115257126D01*
X62019031Y115279304D01*
X62010766Y115302404D01*
X62004805Y115326202D01*
X62001205Y115350471D01*
X62000001Y115374975D01*
X62000001Y116974975D01*
X62001205Y116999479D01*
X62004805Y117023748D01*
X62010766Y117047546D01*
X62019031Y117070646D01*
X62029521Y117092824D01*
X62042134Y117113868D01*
X62056748Y117133573D01*
X62073224Y117151752D01*
X62091403Y117168228D01*
X62111108Y117182842D01*
X62132152Y117195455D01*
X62154330Y117205945D01*
X62177430Y117214210D01*
X62201228Y117220171D01*
X62225497Y117223771D01*
X62250001Y117224975D01*
X64750001Y117224975D01*
X64774505Y117223771D01*
G37*
G36*
X64774505Y110873771D02*
G01*
X64798774Y110870171D01*
X64822572Y110864210D01*
X64845672Y110855945D01*
X64867850Y110845455D01*
X64888894Y110832842D01*
X64908599Y110818228D01*
X64926778Y110801752D01*
X64943254Y110783573D01*
X64957868Y110763868D01*
X64970481Y110742824D01*
X64980971Y110720646D01*
X64989236Y110697546D01*
X64995197Y110673748D01*
X64998797Y110649479D01*
X65000001Y110624975D01*
X65000001Y109024975D01*
X64998797Y109000471D01*
X64995197Y108976202D01*
X64989236Y108952404D01*
X64980971Y108929304D01*
X64970481Y108907126D01*
X64957868Y108886082D01*
X64943254Y108866377D01*
X64926778Y108848198D01*
X64908599Y108831722D01*
X64888894Y108817108D01*
X64867850Y108804495D01*
X64845672Y108794005D01*
X64822572Y108785740D01*
X64798774Y108779779D01*
X64774505Y108776179D01*
X64750001Y108774975D01*
X62250001Y108774975D01*
X62225497Y108776179D01*
X62201228Y108779779D01*
X62177430Y108785740D01*
X62154330Y108794005D01*
X62132152Y108804495D01*
X62111108Y108817108D01*
X62091403Y108831722D01*
X62073224Y108848198D01*
X62056748Y108866377D01*
X62042134Y108886082D01*
X62029521Y108907126D01*
X62019031Y108929304D01*
X62010766Y108952404D01*
X62004805Y108976202D01*
X62001205Y109000471D01*
X62000001Y109024975D01*
X62000001Y110624975D01*
X62001205Y110649479D01*
X62004805Y110673748D01*
X62010766Y110697546D01*
X62019031Y110720646D01*
X62029521Y110742824D01*
X62042134Y110763868D01*
X62056748Y110783573D01*
X62073224Y110801752D01*
X62091403Y110818228D01*
X62111108Y110832842D01*
X62132152Y110845455D01*
X62154330Y110855945D01*
X62177430Y110864210D01*
X62201228Y110870171D01*
X62225497Y110873771D01*
X62250001Y110874975D01*
X64750001Y110874975D01*
X64774505Y110873771D01*
G37*
%TD*%
D12*
%TO.C,J4*%
X29900001Y106299975D03*
X30900001Y106299975D03*
X31900001Y106299975D03*
X32900001Y106299975D03*
X33900001Y106299975D03*
X34900001Y106299975D03*
X36900001Y106299975D03*
X35900001Y106299975D03*
%TD*%
D10*
%TO.C,J1*%
X156480009Y171039987D03*
X161520009Y171039987D03*
X156480009Y168499987D03*
X161520009Y168499987D03*
X156480009Y165959987D03*
X161520009Y165959987D03*
%TD*%
D11*
%TO.C,J2*%
G36*
X155019612Y155774024D02*
G01*
X155039027Y155771144D01*
X155058066Y155766375D01*
X155076546Y155759763D01*
X155094288Y155751371D01*
X155111123Y155741281D01*
X155126888Y155729589D01*
X155141430Y155716408D01*
X155154611Y155701866D01*
X155166303Y155686101D01*
X155176393Y155669266D01*
X155184785Y155651524D01*
X155191397Y155633044D01*
X155196166Y155614005D01*
X155199046Y155594590D01*
X155200009Y155574987D01*
X155200009Y155174987D01*
X155199046Y155155384D01*
X155196166Y155135969D01*
X155191397Y155116930D01*
X155184785Y155098450D01*
X155176393Y155080708D01*
X155166303Y155063873D01*
X155154611Y155048108D01*
X155141430Y155033566D01*
X155126888Y155020385D01*
X155111123Y155008693D01*
X155094288Y154998603D01*
X155076546Y154990211D01*
X155058066Y154983599D01*
X155039027Y154978830D01*
X155019612Y154975950D01*
X155000009Y154974987D01*
X153800009Y154974987D01*
X153780406Y154975950D01*
X153760991Y154978830D01*
X153741952Y154983599D01*
X153723472Y154990211D01*
X153705730Y154998603D01*
X153688895Y155008693D01*
X153673130Y155020385D01*
X153658588Y155033566D01*
X153645407Y155048108D01*
X153633715Y155063873D01*
X153623625Y155080708D01*
X153615233Y155098450D01*
X153608621Y155116930D01*
X153603852Y155135969D01*
X153600972Y155155384D01*
X153600009Y155174987D01*
X153600009Y155574987D01*
X153600972Y155594590D01*
X153603852Y155614005D01*
X153608621Y155633044D01*
X153615233Y155651524D01*
X153623625Y155669266D01*
X153633715Y155686101D01*
X153645407Y155701866D01*
X153658588Y155716408D01*
X153673130Y155729589D01*
X153688895Y155741281D01*
X153705730Y155751371D01*
X153723472Y155759763D01*
X153741952Y155766375D01*
X153760991Y155771144D01*
X153780406Y155774024D01*
X153800009Y155774987D01*
X155000009Y155774987D01*
X155019612Y155774024D01*
G37*
G36*
X155019612Y157024024D02*
G01*
X155039027Y157021144D01*
X155058066Y157016375D01*
X155076546Y157009763D01*
X155094288Y157001371D01*
X155111123Y156991281D01*
X155126888Y156979589D01*
X155141430Y156966408D01*
X155154611Y156951866D01*
X155166303Y156936101D01*
X155176393Y156919266D01*
X155184785Y156901524D01*
X155191397Y156883044D01*
X155196166Y156864005D01*
X155199046Y156844590D01*
X155200009Y156824987D01*
X155200009Y156424987D01*
X155199046Y156405384D01*
X155196166Y156385969D01*
X155191397Y156366930D01*
X155184785Y156348450D01*
X155176393Y156330708D01*
X155166303Y156313873D01*
X155154611Y156298108D01*
X155141430Y156283566D01*
X155126888Y156270385D01*
X155111123Y156258693D01*
X155094288Y156248603D01*
X155076546Y156240211D01*
X155058066Y156233599D01*
X155039027Y156228830D01*
X155019612Y156225950D01*
X155000009Y156224987D01*
X153800009Y156224987D01*
X153780406Y156225950D01*
X153760991Y156228830D01*
X153741952Y156233599D01*
X153723472Y156240211D01*
X153705730Y156248603D01*
X153688895Y156258693D01*
X153673130Y156270385D01*
X153658588Y156283566D01*
X153645407Y156298108D01*
X153633715Y156313873D01*
X153623625Y156330708D01*
X153615233Y156348450D01*
X153608621Y156366930D01*
X153603852Y156385969D01*
X153600972Y156405384D01*
X153600009Y156424987D01*
X153600009Y156824987D01*
X153600972Y156844590D01*
X153603852Y156864005D01*
X153608621Y156883044D01*
X153615233Y156901524D01*
X153623625Y156919266D01*
X153633715Y156936101D01*
X153645407Y156951866D01*
X153658588Y156966408D01*
X153673130Y156979589D01*
X153688895Y156991281D01*
X153705730Y157001371D01*
X153723472Y157009763D01*
X153741952Y157016375D01*
X153760991Y157021144D01*
X153780406Y157024024D01*
X153800009Y157024987D01*
X155000009Y157024987D01*
X155019612Y157024024D01*
G37*
G36*
X152774513Y153873783D02*
G01*
X152798782Y153870183D01*
X152822580Y153864222D01*
X152845680Y153855957D01*
X152867858Y153845467D01*
X152888902Y153832854D01*
X152908607Y153818240D01*
X152926786Y153801764D01*
X152943262Y153783585D01*
X152957876Y153763880D01*
X152970489Y153742836D01*
X152980979Y153720658D01*
X152989244Y153697558D01*
X152995205Y153673760D01*
X152998805Y153649491D01*
X153000009Y153624987D01*
X153000009Y152024987D01*
X152998805Y152000483D01*
X152995205Y151976214D01*
X152989244Y151952416D01*
X152980979Y151929316D01*
X152970489Y151907138D01*
X152957876Y151886094D01*
X152943262Y151866389D01*
X152926786Y151848210D01*
X152908607Y151831734D01*
X152888902Y151817120D01*
X152867858Y151804507D01*
X152845680Y151794017D01*
X152822580Y151785752D01*
X152798782Y151779791D01*
X152774513Y151776191D01*
X152750009Y151774987D01*
X150250009Y151774987D01*
X150225505Y151776191D01*
X150201236Y151779791D01*
X150177438Y151785752D01*
X150154338Y151794017D01*
X150132160Y151804507D01*
X150111116Y151817120D01*
X150091411Y151831734D01*
X150073232Y151848210D01*
X150056756Y151866389D01*
X150042142Y151886094D01*
X150029529Y151907138D01*
X150019039Y151929316D01*
X150010774Y151952416D01*
X150004813Y151976214D01*
X150001213Y152000483D01*
X150000009Y152024987D01*
X150000009Y153624987D01*
X150001213Y153649491D01*
X150004813Y153673760D01*
X150010774Y153697558D01*
X150019039Y153720658D01*
X150029529Y153742836D01*
X150042142Y153763880D01*
X150056756Y153783585D01*
X150073232Y153801764D01*
X150091411Y153818240D01*
X150111116Y153832854D01*
X150132160Y153845467D01*
X150154338Y153855957D01*
X150177438Y153864222D01*
X150201236Y153870183D01*
X150225505Y153873783D01*
X150250009Y153874987D01*
X152750009Y153874987D01*
X152774513Y153873783D01*
G37*
G36*
X152774513Y160223783D02*
G01*
X152798782Y160220183D01*
X152822580Y160214222D01*
X152845680Y160205957D01*
X152867858Y160195467D01*
X152888902Y160182854D01*
X152908607Y160168240D01*
X152926786Y160151764D01*
X152943262Y160133585D01*
X152957876Y160113880D01*
X152970489Y160092836D01*
X152980979Y160070658D01*
X152989244Y160047558D01*
X152995205Y160023760D01*
X152998805Y159999491D01*
X153000009Y159974987D01*
X153000009Y158374987D01*
X152998805Y158350483D01*
X152995205Y158326214D01*
X152989244Y158302416D01*
X152980979Y158279316D01*
X152970489Y158257138D01*
X152957876Y158236094D01*
X152943262Y158216389D01*
X152926786Y158198210D01*
X152908607Y158181734D01*
X152888902Y158167120D01*
X152867858Y158154507D01*
X152845680Y158144017D01*
X152822580Y158135752D01*
X152798782Y158129791D01*
X152774513Y158126191D01*
X152750009Y158124987D01*
X150250009Y158124987D01*
X150225505Y158126191D01*
X150201236Y158129791D01*
X150177438Y158135752D01*
X150154338Y158144017D01*
X150132160Y158154507D01*
X150111116Y158167120D01*
X150091411Y158181734D01*
X150073232Y158198210D01*
X150056756Y158216389D01*
X150042142Y158236094D01*
X150029529Y158257138D01*
X150019039Y158279316D01*
X150010774Y158302416D01*
X150004813Y158326214D01*
X150001213Y158350483D01*
X150000009Y158374987D01*
X150000009Y159974987D01*
X150001213Y159999491D01*
X150004813Y160023760D01*
X150010774Y160047558D01*
X150019039Y160070658D01*
X150029529Y160092836D01*
X150042142Y160113880D01*
X150056756Y160133585D01*
X150073232Y160151764D01*
X150091411Y160168240D01*
X150111116Y160182854D01*
X150132160Y160195467D01*
X150154338Y160205957D01*
X150177438Y160214222D01*
X150201236Y160220183D01*
X150225505Y160223783D01*
X150250009Y160224987D01*
X152750009Y160224987D01*
X152774513Y160223783D01*
G37*
%TD*%
%TO.C,J3*%
G36*
X164219612Y157024024D02*
G01*
X164239027Y157021144D01*
X164258066Y157016375D01*
X164276546Y157009763D01*
X164294288Y157001371D01*
X164311123Y156991281D01*
X164326888Y156979589D01*
X164341430Y156966408D01*
X164354611Y156951866D01*
X164366303Y156936101D01*
X164376393Y156919266D01*
X164384785Y156901524D01*
X164391397Y156883044D01*
X164396166Y156864005D01*
X164399046Y156844590D01*
X164400009Y156824987D01*
X164400009Y156424987D01*
X164399046Y156405384D01*
X164396166Y156385969D01*
X164391397Y156366930D01*
X164384785Y156348450D01*
X164376393Y156330708D01*
X164366303Y156313873D01*
X164354611Y156298108D01*
X164341430Y156283566D01*
X164326888Y156270385D01*
X164311123Y156258693D01*
X164294288Y156248603D01*
X164276546Y156240211D01*
X164258066Y156233599D01*
X164239027Y156228830D01*
X164219612Y156225950D01*
X164200009Y156224987D01*
X163000009Y156224987D01*
X162980406Y156225950D01*
X162960991Y156228830D01*
X162941952Y156233599D01*
X162923472Y156240211D01*
X162905730Y156248603D01*
X162888895Y156258693D01*
X162873130Y156270385D01*
X162858588Y156283566D01*
X162845407Y156298108D01*
X162833715Y156313873D01*
X162823625Y156330708D01*
X162815233Y156348450D01*
X162808621Y156366930D01*
X162803852Y156385969D01*
X162800972Y156405384D01*
X162800009Y156424987D01*
X162800009Y156824987D01*
X162800972Y156844590D01*
X162803852Y156864005D01*
X162808621Y156883044D01*
X162815233Y156901524D01*
X162823625Y156919266D01*
X162833715Y156936101D01*
X162845407Y156951866D01*
X162858588Y156966408D01*
X162873130Y156979589D01*
X162888895Y156991281D01*
X162905730Y157001371D01*
X162923472Y157009763D01*
X162941952Y157016375D01*
X162960991Y157021144D01*
X162980406Y157024024D01*
X163000009Y157024987D01*
X164200009Y157024987D01*
X164219612Y157024024D01*
G37*
G36*
X164219612Y155774024D02*
G01*
X164239027Y155771144D01*
X164258066Y155766375D01*
X164276546Y155759763D01*
X164294288Y155751371D01*
X164311123Y155741281D01*
X164326888Y155729589D01*
X164341430Y155716408D01*
X164354611Y155701866D01*
X164366303Y155686101D01*
X164376393Y155669266D01*
X164384785Y155651524D01*
X164391397Y155633044D01*
X164396166Y155614005D01*
X164399046Y155594590D01*
X164400009Y155574987D01*
X164400009Y155174987D01*
X164399046Y155155384D01*
X164396166Y155135969D01*
X164391397Y155116930D01*
X164384785Y155098450D01*
X164376393Y155080708D01*
X164366303Y155063873D01*
X164354611Y155048108D01*
X164341430Y155033566D01*
X164326888Y155020385D01*
X164311123Y155008693D01*
X164294288Y154998603D01*
X164276546Y154990211D01*
X164258066Y154983599D01*
X164239027Y154978830D01*
X164219612Y154975950D01*
X164200009Y154974987D01*
X163000009Y154974987D01*
X162980406Y154975950D01*
X162960991Y154978830D01*
X162941952Y154983599D01*
X162923472Y154990211D01*
X162905730Y154998603D01*
X162888895Y155008693D01*
X162873130Y155020385D01*
X162858588Y155033566D01*
X162845407Y155048108D01*
X162833715Y155063873D01*
X162823625Y155080708D01*
X162815233Y155098450D01*
X162808621Y155116930D01*
X162803852Y155135969D01*
X162800972Y155155384D01*
X162800009Y155174987D01*
X162800009Y155574987D01*
X162800972Y155594590D01*
X162803852Y155614005D01*
X162808621Y155633044D01*
X162815233Y155651524D01*
X162823625Y155669266D01*
X162833715Y155686101D01*
X162845407Y155701866D01*
X162858588Y155716408D01*
X162873130Y155729589D01*
X162888895Y155741281D01*
X162905730Y155751371D01*
X162923472Y155759763D01*
X162941952Y155766375D01*
X162960991Y155771144D01*
X162980406Y155774024D01*
X163000009Y155774987D01*
X164200009Y155774987D01*
X164219612Y155774024D01*
G37*
G36*
X167774513Y160223783D02*
G01*
X167798782Y160220183D01*
X167822580Y160214222D01*
X167845680Y160205957D01*
X167867858Y160195467D01*
X167888902Y160182854D01*
X167908607Y160168240D01*
X167926786Y160151764D01*
X167943262Y160133585D01*
X167957876Y160113880D01*
X167970489Y160092836D01*
X167980979Y160070658D01*
X167989244Y160047558D01*
X167995205Y160023760D01*
X167998805Y159999491D01*
X168000009Y159974987D01*
X168000009Y158374987D01*
X167998805Y158350483D01*
X167995205Y158326214D01*
X167989244Y158302416D01*
X167980979Y158279316D01*
X167970489Y158257138D01*
X167957876Y158236094D01*
X167943262Y158216389D01*
X167926786Y158198210D01*
X167908607Y158181734D01*
X167888902Y158167120D01*
X167867858Y158154507D01*
X167845680Y158144017D01*
X167822580Y158135752D01*
X167798782Y158129791D01*
X167774513Y158126191D01*
X167750009Y158124987D01*
X165250009Y158124987D01*
X165225505Y158126191D01*
X165201236Y158129791D01*
X165177438Y158135752D01*
X165154338Y158144017D01*
X165132160Y158154507D01*
X165111116Y158167120D01*
X165091411Y158181734D01*
X165073232Y158198210D01*
X165056756Y158216389D01*
X165042142Y158236094D01*
X165029529Y158257138D01*
X165019039Y158279316D01*
X165010774Y158302416D01*
X165004813Y158326214D01*
X165001213Y158350483D01*
X165000009Y158374987D01*
X165000009Y159974987D01*
X165001213Y159999491D01*
X165004813Y160023760D01*
X165010774Y160047558D01*
X165019039Y160070658D01*
X165029529Y160092836D01*
X165042142Y160113880D01*
X165056756Y160133585D01*
X165073232Y160151764D01*
X165091411Y160168240D01*
X165111116Y160182854D01*
X165132160Y160195467D01*
X165154338Y160205957D01*
X165177438Y160214222D01*
X165201236Y160220183D01*
X165225505Y160223783D01*
X165250009Y160224987D01*
X167750009Y160224987D01*
X167774513Y160223783D01*
G37*
G36*
X167774513Y153873783D02*
G01*
X167798782Y153870183D01*
X167822580Y153864222D01*
X167845680Y153855957D01*
X167867858Y153845467D01*
X167888902Y153832854D01*
X167908607Y153818240D01*
X167926786Y153801764D01*
X167943262Y153783585D01*
X167957876Y153763880D01*
X167970489Y153742836D01*
X167980979Y153720658D01*
X167989244Y153697558D01*
X167995205Y153673760D01*
X167998805Y153649491D01*
X168000009Y153624987D01*
X168000009Y152024987D01*
X167998805Y152000483D01*
X167995205Y151976214D01*
X167989244Y151952416D01*
X167980979Y151929316D01*
X167970489Y151907138D01*
X167957876Y151886094D01*
X167943262Y151866389D01*
X167926786Y151848210D01*
X167908607Y151831734D01*
X167888902Y151817120D01*
X167867858Y151804507D01*
X167845680Y151794017D01*
X167822580Y151785752D01*
X167798782Y151779791D01*
X167774513Y151776191D01*
X167750009Y151774987D01*
X165250009Y151774987D01*
X165225505Y151776191D01*
X165201236Y151779791D01*
X165177438Y151785752D01*
X165154338Y151794017D01*
X165132160Y151804507D01*
X165111116Y151817120D01*
X165091411Y151831734D01*
X165073232Y151848210D01*
X165056756Y151866389D01*
X165042142Y151886094D01*
X165029529Y151907138D01*
X165019039Y151929316D01*
X165010774Y151952416D01*
X165004813Y151976214D01*
X165001213Y152000483D01*
X165000009Y152024987D01*
X165000009Y153624987D01*
X165001213Y153649491D01*
X165004813Y153673760D01*
X165010774Y153697558D01*
X165019039Y153720658D01*
X165029529Y153742836D01*
X165042142Y153763880D01*
X165056756Y153783585D01*
X165073232Y153801764D01*
X165091411Y153818240D01*
X165111116Y153832854D01*
X165132160Y153845467D01*
X165154338Y153855957D01*
X165177438Y153864222D01*
X165201236Y153870183D01*
X165225505Y153873783D01*
X165250009Y153874987D01*
X167750009Y153874987D01*
X167774513Y153873783D01*
G37*
%TD*%
D12*
%TO.C,J4*%
X132900009Y149299987D03*
X133900009Y149299987D03*
X134900009Y149299987D03*
X135900009Y149299987D03*
X136900009Y149299987D03*
X137900009Y149299987D03*
X139900009Y149299987D03*
X138900009Y149299987D03*
%TD*%
D10*
%TO.C,J1*%
X53480001Y171039987D03*
X58520001Y171039987D03*
X53480001Y168499987D03*
X58520001Y168499987D03*
X53480001Y165959987D03*
X58520001Y165959987D03*
%TD*%
D11*
%TO.C,J2*%
G36*
X52019604Y155774024D02*
G01*
X52039019Y155771144D01*
X52058058Y155766375D01*
X52076538Y155759763D01*
X52094280Y155751371D01*
X52111115Y155741281D01*
X52126880Y155729589D01*
X52141422Y155716408D01*
X52154603Y155701866D01*
X52166295Y155686101D01*
X52176385Y155669266D01*
X52184777Y155651524D01*
X52191389Y155633044D01*
X52196158Y155614005D01*
X52199038Y155594590D01*
X52200001Y155574987D01*
X52200001Y155174987D01*
X52199038Y155155384D01*
X52196158Y155135969D01*
X52191389Y155116930D01*
X52184777Y155098450D01*
X52176385Y155080708D01*
X52166295Y155063873D01*
X52154603Y155048108D01*
X52141422Y155033566D01*
X52126880Y155020385D01*
X52111115Y155008693D01*
X52094280Y154998603D01*
X52076538Y154990211D01*
X52058058Y154983599D01*
X52039019Y154978830D01*
X52019604Y154975950D01*
X52000001Y154974987D01*
X50800001Y154974987D01*
X50780398Y154975950D01*
X50760983Y154978830D01*
X50741944Y154983599D01*
X50723464Y154990211D01*
X50705722Y154998603D01*
X50688887Y155008693D01*
X50673122Y155020385D01*
X50658580Y155033566D01*
X50645399Y155048108D01*
X50633707Y155063873D01*
X50623617Y155080708D01*
X50615225Y155098450D01*
X50608613Y155116930D01*
X50603844Y155135969D01*
X50600964Y155155384D01*
X50600001Y155174987D01*
X50600001Y155574987D01*
X50600964Y155594590D01*
X50603844Y155614005D01*
X50608613Y155633044D01*
X50615225Y155651524D01*
X50623617Y155669266D01*
X50633707Y155686101D01*
X50645399Y155701866D01*
X50658580Y155716408D01*
X50673122Y155729589D01*
X50688887Y155741281D01*
X50705722Y155751371D01*
X50723464Y155759763D01*
X50741944Y155766375D01*
X50760983Y155771144D01*
X50780398Y155774024D01*
X50800001Y155774987D01*
X52000001Y155774987D01*
X52019604Y155774024D01*
G37*
G36*
X52019604Y157024024D02*
G01*
X52039019Y157021144D01*
X52058058Y157016375D01*
X52076538Y157009763D01*
X52094280Y157001371D01*
X52111115Y156991281D01*
X52126880Y156979589D01*
X52141422Y156966408D01*
X52154603Y156951866D01*
X52166295Y156936101D01*
X52176385Y156919266D01*
X52184777Y156901524D01*
X52191389Y156883044D01*
X52196158Y156864005D01*
X52199038Y156844590D01*
X52200001Y156824987D01*
X52200001Y156424987D01*
X52199038Y156405384D01*
X52196158Y156385969D01*
X52191389Y156366930D01*
X52184777Y156348450D01*
X52176385Y156330708D01*
X52166295Y156313873D01*
X52154603Y156298108D01*
X52141422Y156283566D01*
X52126880Y156270385D01*
X52111115Y156258693D01*
X52094280Y156248603D01*
X52076538Y156240211D01*
X52058058Y156233599D01*
X52039019Y156228830D01*
X52019604Y156225950D01*
X52000001Y156224987D01*
X50800001Y156224987D01*
X50780398Y156225950D01*
X50760983Y156228830D01*
X50741944Y156233599D01*
X50723464Y156240211D01*
X50705722Y156248603D01*
X50688887Y156258693D01*
X50673122Y156270385D01*
X50658580Y156283566D01*
X50645399Y156298108D01*
X50633707Y156313873D01*
X50623617Y156330708D01*
X50615225Y156348450D01*
X50608613Y156366930D01*
X50603844Y156385969D01*
X50600964Y156405384D01*
X50600001Y156424987D01*
X50600001Y156824987D01*
X50600964Y156844590D01*
X50603844Y156864005D01*
X50608613Y156883044D01*
X50615225Y156901524D01*
X50623617Y156919266D01*
X50633707Y156936101D01*
X50645399Y156951866D01*
X50658580Y156966408D01*
X50673122Y156979589D01*
X50688887Y156991281D01*
X50705722Y157001371D01*
X50723464Y157009763D01*
X50741944Y157016375D01*
X50760983Y157021144D01*
X50780398Y157024024D01*
X50800001Y157024987D01*
X52000001Y157024987D01*
X52019604Y157024024D01*
G37*
G36*
X49774505Y153873783D02*
G01*
X49798774Y153870183D01*
X49822572Y153864222D01*
X49845672Y153855957D01*
X49867850Y153845467D01*
X49888894Y153832854D01*
X49908599Y153818240D01*
X49926778Y153801764D01*
X49943254Y153783585D01*
X49957868Y153763880D01*
X49970481Y153742836D01*
X49980971Y153720658D01*
X49989236Y153697558D01*
X49995197Y153673760D01*
X49998797Y153649491D01*
X50000001Y153624987D01*
X50000001Y152024987D01*
X49998797Y152000483D01*
X49995197Y151976214D01*
X49989236Y151952416D01*
X49980971Y151929316D01*
X49970481Y151907138D01*
X49957868Y151886094D01*
X49943254Y151866389D01*
X49926778Y151848210D01*
X49908599Y151831734D01*
X49888894Y151817120D01*
X49867850Y151804507D01*
X49845672Y151794017D01*
X49822572Y151785752D01*
X49798774Y151779791D01*
X49774505Y151776191D01*
X49750001Y151774987D01*
X47250001Y151774987D01*
X47225497Y151776191D01*
X47201228Y151779791D01*
X47177430Y151785752D01*
X47154330Y151794017D01*
X47132152Y151804507D01*
X47111108Y151817120D01*
X47091403Y151831734D01*
X47073224Y151848210D01*
X47056748Y151866389D01*
X47042134Y151886094D01*
X47029521Y151907138D01*
X47019031Y151929316D01*
X47010766Y151952416D01*
X47004805Y151976214D01*
X47001205Y152000483D01*
X47000001Y152024987D01*
X47000001Y153624987D01*
X47001205Y153649491D01*
X47004805Y153673760D01*
X47010766Y153697558D01*
X47019031Y153720658D01*
X47029521Y153742836D01*
X47042134Y153763880D01*
X47056748Y153783585D01*
X47073224Y153801764D01*
X47091403Y153818240D01*
X47111108Y153832854D01*
X47132152Y153845467D01*
X47154330Y153855957D01*
X47177430Y153864222D01*
X47201228Y153870183D01*
X47225497Y153873783D01*
X47250001Y153874987D01*
X49750001Y153874987D01*
X49774505Y153873783D01*
G37*
G36*
X49774505Y160223783D02*
G01*
X49798774Y160220183D01*
X49822572Y160214222D01*
X49845672Y160205957D01*
X49867850Y160195467D01*
X49888894Y160182854D01*
X49908599Y160168240D01*
X49926778Y160151764D01*
X49943254Y160133585D01*
X49957868Y160113880D01*
X49970481Y160092836D01*
X49980971Y160070658D01*
X49989236Y160047558D01*
X49995197Y160023760D01*
X49998797Y159999491D01*
X50000001Y159974987D01*
X50000001Y158374987D01*
X49998797Y158350483D01*
X49995197Y158326214D01*
X49989236Y158302416D01*
X49980971Y158279316D01*
X49970481Y158257138D01*
X49957868Y158236094D01*
X49943254Y158216389D01*
X49926778Y158198210D01*
X49908599Y158181734D01*
X49888894Y158167120D01*
X49867850Y158154507D01*
X49845672Y158144017D01*
X49822572Y158135752D01*
X49798774Y158129791D01*
X49774505Y158126191D01*
X49750001Y158124987D01*
X47250001Y158124987D01*
X47225497Y158126191D01*
X47201228Y158129791D01*
X47177430Y158135752D01*
X47154330Y158144017D01*
X47132152Y158154507D01*
X47111108Y158167120D01*
X47091403Y158181734D01*
X47073224Y158198210D01*
X47056748Y158216389D01*
X47042134Y158236094D01*
X47029521Y158257138D01*
X47019031Y158279316D01*
X47010766Y158302416D01*
X47004805Y158326214D01*
X47001205Y158350483D01*
X47000001Y158374987D01*
X47000001Y159974987D01*
X47001205Y159999491D01*
X47004805Y160023760D01*
X47010766Y160047558D01*
X47019031Y160070658D01*
X47029521Y160092836D01*
X47042134Y160113880D01*
X47056748Y160133585D01*
X47073224Y160151764D01*
X47091403Y160168240D01*
X47111108Y160182854D01*
X47132152Y160195467D01*
X47154330Y160205957D01*
X47177430Y160214222D01*
X47201228Y160220183D01*
X47225497Y160223783D01*
X47250001Y160224987D01*
X49750001Y160224987D01*
X49774505Y160223783D01*
G37*
%TD*%
%TO.C,J3*%
G36*
X61219604Y157024024D02*
G01*
X61239019Y157021144D01*
X61258058Y157016375D01*
X61276538Y157009763D01*
X61294280Y157001371D01*
X61311115Y156991281D01*
X61326880Y156979589D01*
X61341422Y156966408D01*
X61354603Y156951866D01*
X61366295Y156936101D01*
X61376385Y156919266D01*
X61384777Y156901524D01*
X61391389Y156883044D01*
X61396158Y156864005D01*
X61399038Y156844590D01*
X61400001Y156824987D01*
X61400001Y156424987D01*
X61399038Y156405384D01*
X61396158Y156385969D01*
X61391389Y156366930D01*
X61384777Y156348450D01*
X61376385Y156330708D01*
X61366295Y156313873D01*
X61354603Y156298108D01*
X61341422Y156283566D01*
X61326880Y156270385D01*
X61311115Y156258693D01*
X61294280Y156248603D01*
X61276538Y156240211D01*
X61258058Y156233599D01*
X61239019Y156228830D01*
X61219604Y156225950D01*
X61200001Y156224987D01*
X60000001Y156224987D01*
X59980398Y156225950D01*
X59960983Y156228830D01*
X59941944Y156233599D01*
X59923464Y156240211D01*
X59905722Y156248603D01*
X59888887Y156258693D01*
X59873122Y156270385D01*
X59858580Y156283566D01*
X59845399Y156298108D01*
X59833707Y156313873D01*
X59823617Y156330708D01*
X59815225Y156348450D01*
X59808613Y156366930D01*
X59803844Y156385969D01*
X59800964Y156405384D01*
X59800001Y156424987D01*
X59800001Y156824987D01*
X59800964Y156844590D01*
X59803844Y156864005D01*
X59808613Y156883044D01*
X59815225Y156901524D01*
X59823617Y156919266D01*
X59833707Y156936101D01*
X59845399Y156951866D01*
X59858580Y156966408D01*
X59873122Y156979589D01*
X59888887Y156991281D01*
X59905722Y157001371D01*
X59923464Y157009763D01*
X59941944Y157016375D01*
X59960983Y157021144D01*
X59980398Y157024024D01*
X60000001Y157024987D01*
X61200001Y157024987D01*
X61219604Y157024024D01*
G37*
G36*
X61219604Y155774024D02*
G01*
X61239019Y155771144D01*
X61258058Y155766375D01*
X61276538Y155759763D01*
X61294280Y155751371D01*
X61311115Y155741281D01*
X61326880Y155729589D01*
X61341422Y155716408D01*
X61354603Y155701866D01*
X61366295Y155686101D01*
X61376385Y155669266D01*
X61384777Y155651524D01*
X61391389Y155633044D01*
X61396158Y155614005D01*
X61399038Y155594590D01*
X61400001Y155574987D01*
X61400001Y155174987D01*
X61399038Y155155384D01*
X61396158Y155135969D01*
X61391389Y155116930D01*
X61384777Y155098450D01*
X61376385Y155080708D01*
X61366295Y155063873D01*
X61354603Y155048108D01*
X61341422Y155033566D01*
X61326880Y155020385D01*
X61311115Y155008693D01*
X61294280Y154998603D01*
X61276538Y154990211D01*
X61258058Y154983599D01*
X61239019Y154978830D01*
X61219604Y154975950D01*
X61200001Y154974987D01*
X60000001Y154974987D01*
X59980398Y154975950D01*
X59960983Y154978830D01*
X59941944Y154983599D01*
X59923464Y154990211D01*
X59905722Y154998603D01*
X59888887Y155008693D01*
X59873122Y155020385D01*
X59858580Y155033566D01*
X59845399Y155048108D01*
X59833707Y155063873D01*
X59823617Y155080708D01*
X59815225Y155098450D01*
X59808613Y155116930D01*
X59803844Y155135969D01*
X59800964Y155155384D01*
X59800001Y155174987D01*
X59800001Y155574987D01*
X59800964Y155594590D01*
X59803844Y155614005D01*
X59808613Y155633044D01*
X59815225Y155651524D01*
X59823617Y155669266D01*
X59833707Y155686101D01*
X59845399Y155701866D01*
X59858580Y155716408D01*
X59873122Y155729589D01*
X59888887Y155741281D01*
X59905722Y155751371D01*
X59923464Y155759763D01*
X59941944Y155766375D01*
X59960983Y155771144D01*
X59980398Y155774024D01*
X60000001Y155774987D01*
X61200001Y155774987D01*
X61219604Y155774024D01*
G37*
G36*
X64774505Y160223783D02*
G01*
X64798774Y160220183D01*
X64822572Y160214222D01*
X64845672Y160205957D01*
X64867850Y160195467D01*
X64888894Y160182854D01*
X64908599Y160168240D01*
X64926778Y160151764D01*
X64943254Y160133585D01*
X64957868Y160113880D01*
X64970481Y160092836D01*
X64980971Y160070658D01*
X64989236Y160047558D01*
X64995197Y160023760D01*
X64998797Y159999491D01*
X65000001Y159974987D01*
X65000001Y158374987D01*
X64998797Y158350483D01*
X64995197Y158326214D01*
X64989236Y158302416D01*
X64980971Y158279316D01*
X64970481Y158257138D01*
X64957868Y158236094D01*
X64943254Y158216389D01*
X64926778Y158198210D01*
X64908599Y158181734D01*
X64888894Y158167120D01*
X64867850Y158154507D01*
X64845672Y158144017D01*
X64822572Y158135752D01*
X64798774Y158129791D01*
X64774505Y158126191D01*
X64750001Y158124987D01*
X62250001Y158124987D01*
X62225497Y158126191D01*
X62201228Y158129791D01*
X62177430Y158135752D01*
X62154330Y158144017D01*
X62132152Y158154507D01*
X62111108Y158167120D01*
X62091403Y158181734D01*
X62073224Y158198210D01*
X62056748Y158216389D01*
X62042134Y158236094D01*
X62029521Y158257138D01*
X62019031Y158279316D01*
X62010766Y158302416D01*
X62004805Y158326214D01*
X62001205Y158350483D01*
X62000001Y158374987D01*
X62000001Y159974987D01*
X62001205Y159999491D01*
X62004805Y160023760D01*
X62010766Y160047558D01*
X62019031Y160070658D01*
X62029521Y160092836D01*
X62042134Y160113880D01*
X62056748Y160133585D01*
X62073224Y160151764D01*
X62091403Y160168240D01*
X62111108Y160182854D01*
X62132152Y160195467D01*
X62154330Y160205957D01*
X62177430Y160214222D01*
X62201228Y160220183D01*
X62225497Y160223783D01*
X62250001Y160224987D01*
X64750001Y160224987D01*
X64774505Y160223783D01*
G37*
G36*
X64774505Y153873783D02*
G01*
X64798774Y153870183D01*
X64822572Y153864222D01*
X64845672Y153855957D01*
X64867850Y153845467D01*
X64888894Y153832854D01*
X64908599Y153818240D01*
X64926778Y153801764D01*
X64943254Y153783585D01*
X64957868Y153763880D01*
X64970481Y153742836D01*
X64980971Y153720658D01*
X64989236Y153697558D01*
X64995197Y153673760D01*
X64998797Y153649491D01*
X65000001Y153624987D01*
X65000001Y152024987D01*
X64998797Y152000483D01*
X64995197Y151976214D01*
X64989236Y151952416D01*
X64980971Y151929316D01*
X64970481Y151907138D01*
X64957868Y151886094D01*
X64943254Y151866389D01*
X64926778Y151848210D01*
X64908599Y151831734D01*
X64888894Y151817120D01*
X64867850Y151804507D01*
X64845672Y151794017D01*
X64822572Y151785752D01*
X64798774Y151779791D01*
X64774505Y151776191D01*
X64750001Y151774987D01*
X62250001Y151774987D01*
X62225497Y151776191D01*
X62201228Y151779791D01*
X62177430Y151785752D01*
X62154330Y151794017D01*
X62132152Y151804507D01*
X62111108Y151817120D01*
X62091403Y151831734D01*
X62073224Y151848210D01*
X62056748Y151866389D01*
X62042134Y151886094D01*
X62029521Y151907138D01*
X62019031Y151929316D01*
X62010766Y151952416D01*
X62004805Y151976214D01*
X62001205Y152000483D01*
X62000001Y152024987D01*
X62000001Y153624987D01*
X62001205Y153649491D01*
X62004805Y153673760D01*
X62010766Y153697558D01*
X62019031Y153720658D01*
X62029521Y153742836D01*
X62042134Y153763880D01*
X62056748Y153783585D01*
X62073224Y153801764D01*
X62091403Y153818240D01*
X62111108Y153832854D01*
X62132152Y153845467D01*
X62154330Y153855957D01*
X62177430Y153864222D01*
X62201228Y153870183D01*
X62225497Y153873783D01*
X62250001Y153874987D01*
X64750001Y153874987D01*
X64774505Y153873783D01*
G37*
%TD*%
D12*
%TO.C,J4*%
X29900001Y149299987D03*
X30900001Y149299987D03*
X31900001Y149299987D03*
X32900001Y149299987D03*
X33900001Y149299987D03*
X34900001Y149299987D03*
X36900001Y149299987D03*
X35900001Y149299987D03*
%TD*%
D10*
%TO.C,J1*%
X156480009Y214039999D03*
X161520009Y214039999D03*
X156480009Y211499999D03*
X161520009Y211499999D03*
X156480009Y208959999D03*
X161520009Y208959999D03*
%TD*%
D11*
%TO.C,J2*%
G36*
X155019612Y198774036D02*
G01*
X155039027Y198771156D01*
X155058066Y198766387D01*
X155076546Y198759775D01*
X155094288Y198751383D01*
X155111123Y198741293D01*
X155126888Y198729601D01*
X155141430Y198716420D01*
X155154611Y198701878D01*
X155166303Y198686113D01*
X155176393Y198669278D01*
X155184785Y198651536D01*
X155191397Y198633056D01*
X155196166Y198614017D01*
X155199046Y198594602D01*
X155200009Y198574999D01*
X155200009Y198174999D01*
X155199046Y198155396D01*
X155196166Y198135981D01*
X155191397Y198116942D01*
X155184785Y198098462D01*
X155176393Y198080720D01*
X155166303Y198063885D01*
X155154611Y198048120D01*
X155141430Y198033578D01*
X155126888Y198020397D01*
X155111123Y198008705D01*
X155094288Y197998615D01*
X155076546Y197990223D01*
X155058066Y197983611D01*
X155039027Y197978842D01*
X155019612Y197975962D01*
X155000009Y197974999D01*
X153800009Y197974999D01*
X153780406Y197975962D01*
X153760991Y197978842D01*
X153741952Y197983611D01*
X153723472Y197990223D01*
X153705730Y197998615D01*
X153688895Y198008705D01*
X153673130Y198020397D01*
X153658588Y198033578D01*
X153645407Y198048120D01*
X153633715Y198063885D01*
X153623625Y198080720D01*
X153615233Y198098462D01*
X153608621Y198116942D01*
X153603852Y198135981D01*
X153600972Y198155396D01*
X153600009Y198174999D01*
X153600009Y198574999D01*
X153600972Y198594602D01*
X153603852Y198614017D01*
X153608621Y198633056D01*
X153615233Y198651536D01*
X153623625Y198669278D01*
X153633715Y198686113D01*
X153645407Y198701878D01*
X153658588Y198716420D01*
X153673130Y198729601D01*
X153688895Y198741293D01*
X153705730Y198751383D01*
X153723472Y198759775D01*
X153741952Y198766387D01*
X153760991Y198771156D01*
X153780406Y198774036D01*
X153800009Y198774999D01*
X155000009Y198774999D01*
X155019612Y198774036D01*
G37*
G36*
X155019612Y200024036D02*
G01*
X155039027Y200021156D01*
X155058066Y200016387D01*
X155076546Y200009775D01*
X155094288Y200001383D01*
X155111123Y199991293D01*
X155126888Y199979601D01*
X155141430Y199966420D01*
X155154611Y199951878D01*
X155166303Y199936113D01*
X155176393Y199919278D01*
X155184785Y199901536D01*
X155191397Y199883056D01*
X155196166Y199864017D01*
X155199046Y199844602D01*
X155200009Y199824999D01*
X155200009Y199424999D01*
X155199046Y199405396D01*
X155196166Y199385981D01*
X155191397Y199366942D01*
X155184785Y199348462D01*
X155176393Y199330720D01*
X155166303Y199313885D01*
X155154611Y199298120D01*
X155141430Y199283578D01*
X155126888Y199270397D01*
X155111123Y199258705D01*
X155094288Y199248615D01*
X155076546Y199240223D01*
X155058066Y199233611D01*
X155039027Y199228842D01*
X155019612Y199225962D01*
X155000009Y199224999D01*
X153800009Y199224999D01*
X153780406Y199225962D01*
X153760991Y199228842D01*
X153741952Y199233611D01*
X153723472Y199240223D01*
X153705730Y199248615D01*
X153688895Y199258705D01*
X153673130Y199270397D01*
X153658588Y199283578D01*
X153645407Y199298120D01*
X153633715Y199313885D01*
X153623625Y199330720D01*
X153615233Y199348462D01*
X153608621Y199366942D01*
X153603852Y199385981D01*
X153600972Y199405396D01*
X153600009Y199424999D01*
X153600009Y199824999D01*
X153600972Y199844602D01*
X153603852Y199864017D01*
X153608621Y199883056D01*
X153615233Y199901536D01*
X153623625Y199919278D01*
X153633715Y199936113D01*
X153645407Y199951878D01*
X153658588Y199966420D01*
X153673130Y199979601D01*
X153688895Y199991293D01*
X153705730Y200001383D01*
X153723472Y200009775D01*
X153741952Y200016387D01*
X153760991Y200021156D01*
X153780406Y200024036D01*
X153800009Y200024999D01*
X155000009Y200024999D01*
X155019612Y200024036D01*
G37*
G36*
X152774513Y196873795D02*
G01*
X152798782Y196870195D01*
X152822580Y196864234D01*
X152845680Y196855969D01*
X152867858Y196845479D01*
X152888902Y196832866D01*
X152908607Y196818252D01*
X152926786Y196801776D01*
X152943262Y196783597D01*
X152957876Y196763892D01*
X152970489Y196742848D01*
X152980979Y196720670D01*
X152989244Y196697570D01*
X152995205Y196673772D01*
X152998805Y196649503D01*
X153000009Y196624999D01*
X153000009Y195024999D01*
X152998805Y195000495D01*
X152995205Y194976226D01*
X152989244Y194952428D01*
X152980979Y194929328D01*
X152970489Y194907150D01*
X152957876Y194886106D01*
X152943262Y194866401D01*
X152926786Y194848222D01*
X152908607Y194831746D01*
X152888902Y194817132D01*
X152867858Y194804519D01*
X152845680Y194794029D01*
X152822580Y194785764D01*
X152798782Y194779803D01*
X152774513Y194776203D01*
X152750009Y194774999D01*
X150250009Y194774999D01*
X150225505Y194776203D01*
X150201236Y194779803D01*
X150177438Y194785764D01*
X150154338Y194794029D01*
X150132160Y194804519D01*
X150111116Y194817132D01*
X150091411Y194831746D01*
X150073232Y194848222D01*
X150056756Y194866401D01*
X150042142Y194886106D01*
X150029529Y194907150D01*
X150019039Y194929328D01*
X150010774Y194952428D01*
X150004813Y194976226D01*
X150001213Y195000495D01*
X150000009Y195024999D01*
X150000009Y196624999D01*
X150001213Y196649503D01*
X150004813Y196673772D01*
X150010774Y196697570D01*
X150019039Y196720670D01*
X150029529Y196742848D01*
X150042142Y196763892D01*
X150056756Y196783597D01*
X150073232Y196801776D01*
X150091411Y196818252D01*
X150111116Y196832866D01*
X150132160Y196845479D01*
X150154338Y196855969D01*
X150177438Y196864234D01*
X150201236Y196870195D01*
X150225505Y196873795D01*
X150250009Y196874999D01*
X152750009Y196874999D01*
X152774513Y196873795D01*
G37*
G36*
X152774513Y203223795D02*
G01*
X152798782Y203220195D01*
X152822580Y203214234D01*
X152845680Y203205969D01*
X152867858Y203195479D01*
X152888902Y203182866D01*
X152908607Y203168252D01*
X152926786Y203151776D01*
X152943262Y203133597D01*
X152957876Y203113892D01*
X152970489Y203092848D01*
X152980979Y203070670D01*
X152989244Y203047570D01*
X152995205Y203023772D01*
X152998805Y202999503D01*
X153000009Y202974999D01*
X153000009Y201374999D01*
X152998805Y201350495D01*
X152995205Y201326226D01*
X152989244Y201302428D01*
X152980979Y201279328D01*
X152970489Y201257150D01*
X152957876Y201236106D01*
X152943262Y201216401D01*
X152926786Y201198222D01*
X152908607Y201181746D01*
X152888902Y201167132D01*
X152867858Y201154519D01*
X152845680Y201144029D01*
X152822580Y201135764D01*
X152798782Y201129803D01*
X152774513Y201126203D01*
X152750009Y201124999D01*
X150250009Y201124999D01*
X150225505Y201126203D01*
X150201236Y201129803D01*
X150177438Y201135764D01*
X150154338Y201144029D01*
X150132160Y201154519D01*
X150111116Y201167132D01*
X150091411Y201181746D01*
X150073232Y201198222D01*
X150056756Y201216401D01*
X150042142Y201236106D01*
X150029529Y201257150D01*
X150019039Y201279328D01*
X150010774Y201302428D01*
X150004813Y201326226D01*
X150001213Y201350495D01*
X150000009Y201374999D01*
X150000009Y202974999D01*
X150001213Y202999503D01*
X150004813Y203023772D01*
X150010774Y203047570D01*
X150019039Y203070670D01*
X150029529Y203092848D01*
X150042142Y203113892D01*
X150056756Y203133597D01*
X150073232Y203151776D01*
X150091411Y203168252D01*
X150111116Y203182866D01*
X150132160Y203195479D01*
X150154338Y203205969D01*
X150177438Y203214234D01*
X150201236Y203220195D01*
X150225505Y203223795D01*
X150250009Y203224999D01*
X152750009Y203224999D01*
X152774513Y203223795D01*
G37*
%TD*%
%TO.C,J3*%
G36*
X164219612Y200024036D02*
G01*
X164239027Y200021156D01*
X164258066Y200016387D01*
X164276546Y200009775D01*
X164294288Y200001383D01*
X164311123Y199991293D01*
X164326888Y199979601D01*
X164341430Y199966420D01*
X164354611Y199951878D01*
X164366303Y199936113D01*
X164376393Y199919278D01*
X164384785Y199901536D01*
X164391397Y199883056D01*
X164396166Y199864017D01*
X164399046Y199844602D01*
X164400009Y199824999D01*
X164400009Y199424999D01*
X164399046Y199405396D01*
X164396166Y199385981D01*
X164391397Y199366942D01*
X164384785Y199348462D01*
X164376393Y199330720D01*
X164366303Y199313885D01*
X164354611Y199298120D01*
X164341430Y199283578D01*
X164326888Y199270397D01*
X164311123Y199258705D01*
X164294288Y199248615D01*
X164276546Y199240223D01*
X164258066Y199233611D01*
X164239027Y199228842D01*
X164219612Y199225962D01*
X164200009Y199224999D01*
X163000009Y199224999D01*
X162980406Y199225962D01*
X162960991Y199228842D01*
X162941952Y199233611D01*
X162923472Y199240223D01*
X162905730Y199248615D01*
X162888895Y199258705D01*
X162873130Y199270397D01*
X162858588Y199283578D01*
X162845407Y199298120D01*
X162833715Y199313885D01*
X162823625Y199330720D01*
X162815233Y199348462D01*
X162808621Y199366942D01*
X162803852Y199385981D01*
X162800972Y199405396D01*
X162800009Y199424999D01*
X162800009Y199824999D01*
X162800972Y199844602D01*
X162803852Y199864017D01*
X162808621Y199883056D01*
X162815233Y199901536D01*
X162823625Y199919278D01*
X162833715Y199936113D01*
X162845407Y199951878D01*
X162858588Y199966420D01*
X162873130Y199979601D01*
X162888895Y199991293D01*
X162905730Y200001383D01*
X162923472Y200009775D01*
X162941952Y200016387D01*
X162960991Y200021156D01*
X162980406Y200024036D01*
X163000009Y200024999D01*
X164200009Y200024999D01*
X164219612Y200024036D01*
G37*
G36*
X164219612Y198774036D02*
G01*
X164239027Y198771156D01*
X164258066Y198766387D01*
X164276546Y198759775D01*
X164294288Y198751383D01*
X164311123Y198741293D01*
X164326888Y198729601D01*
X164341430Y198716420D01*
X164354611Y198701878D01*
X164366303Y198686113D01*
X164376393Y198669278D01*
X164384785Y198651536D01*
X164391397Y198633056D01*
X164396166Y198614017D01*
X164399046Y198594602D01*
X164400009Y198574999D01*
X164400009Y198174999D01*
X164399046Y198155396D01*
X164396166Y198135981D01*
X164391397Y198116942D01*
X164384785Y198098462D01*
X164376393Y198080720D01*
X164366303Y198063885D01*
X164354611Y198048120D01*
X164341430Y198033578D01*
X164326888Y198020397D01*
X164311123Y198008705D01*
X164294288Y197998615D01*
X164276546Y197990223D01*
X164258066Y197983611D01*
X164239027Y197978842D01*
X164219612Y197975962D01*
X164200009Y197974999D01*
X163000009Y197974999D01*
X162980406Y197975962D01*
X162960991Y197978842D01*
X162941952Y197983611D01*
X162923472Y197990223D01*
X162905730Y197998615D01*
X162888895Y198008705D01*
X162873130Y198020397D01*
X162858588Y198033578D01*
X162845407Y198048120D01*
X162833715Y198063885D01*
X162823625Y198080720D01*
X162815233Y198098462D01*
X162808621Y198116942D01*
X162803852Y198135981D01*
X162800972Y198155396D01*
X162800009Y198174999D01*
X162800009Y198574999D01*
X162800972Y198594602D01*
X162803852Y198614017D01*
X162808621Y198633056D01*
X162815233Y198651536D01*
X162823625Y198669278D01*
X162833715Y198686113D01*
X162845407Y198701878D01*
X162858588Y198716420D01*
X162873130Y198729601D01*
X162888895Y198741293D01*
X162905730Y198751383D01*
X162923472Y198759775D01*
X162941952Y198766387D01*
X162960991Y198771156D01*
X162980406Y198774036D01*
X163000009Y198774999D01*
X164200009Y198774999D01*
X164219612Y198774036D01*
G37*
G36*
X167774513Y203223795D02*
G01*
X167798782Y203220195D01*
X167822580Y203214234D01*
X167845680Y203205969D01*
X167867858Y203195479D01*
X167888902Y203182866D01*
X167908607Y203168252D01*
X167926786Y203151776D01*
X167943262Y203133597D01*
X167957876Y203113892D01*
X167970489Y203092848D01*
X167980979Y203070670D01*
X167989244Y203047570D01*
X167995205Y203023772D01*
X167998805Y202999503D01*
X168000009Y202974999D01*
X168000009Y201374999D01*
X167998805Y201350495D01*
X167995205Y201326226D01*
X167989244Y201302428D01*
X167980979Y201279328D01*
X167970489Y201257150D01*
X167957876Y201236106D01*
X167943262Y201216401D01*
X167926786Y201198222D01*
X167908607Y201181746D01*
X167888902Y201167132D01*
X167867858Y201154519D01*
X167845680Y201144029D01*
X167822580Y201135764D01*
X167798782Y201129803D01*
X167774513Y201126203D01*
X167750009Y201124999D01*
X165250009Y201124999D01*
X165225505Y201126203D01*
X165201236Y201129803D01*
X165177438Y201135764D01*
X165154338Y201144029D01*
X165132160Y201154519D01*
X165111116Y201167132D01*
X165091411Y201181746D01*
X165073232Y201198222D01*
X165056756Y201216401D01*
X165042142Y201236106D01*
X165029529Y201257150D01*
X165019039Y201279328D01*
X165010774Y201302428D01*
X165004813Y201326226D01*
X165001213Y201350495D01*
X165000009Y201374999D01*
X165000009Y202974999D01*
X165001213Y202999503D01*
X165004813Y203023772D01*
X165010774Y203047570D01*
X165019039Y203070670D01*
X165029529Y203092848D01*
X165042142Y203113892D01*
X165056756Y203133597D01*
X165073232Y203151776D01*
X165091411Y203168252D01*
X165111116Y203182866D01*
X165132160Y203195479D01*
X165154338Y203205969D01*
X165177438Y203214234D01*
X165201236Y203220195D01*
X165225505Y203223795D01*
X165250009Y203224999D01*
X167750009Y203224999D01*
X167774513Y203223795D01*
G37*
G36*
X167774513Y196873795D02*
G01*
X167798782Y196870195D01*
X167822580Y196864234D01*
X167845680Y196855969D01*
X167867858Y196845479D01*
X167888902Y196832866D01*
X167908607Y196818252D01*
X167926786Y196801776D01*
X167943262Y196783597D01*
X167957876Y196763892D01*
X167970489Y196742848D01*
X167980979Y196720670D01*
X167989244Y196697570D01*
X167995205Y196673772D01*
X167998805Y196649503D01*
X168000009Y196624999D01*
X168000009Y195024999D01*
X167998805Y195000495D01*
X167995205Y194976226D01*
X167989244Y194952428D01*
X167980979Y194929328D01*
X167970489Y194907150D01*
X167957876Y194886106D01*
X167943262Y194866401D01*
X167926786Y194848222D01*
X167908607Y194831746D01*
X167888902Y194817132D01*
X167867858Y194804519D01*
X167845680Y194794029D01*
X167822580Y194785764D01*
X167798782Y194779803D01*
X167774513Y194776203D01*
X167750009Y194774999D01*
X165250009Y194774999D01*
X165225505Y194776203D01*
X165201236Y194779803D01*
X165177438Y194785764D01*
X165154338Y194794029D01*
X165132160Y194804519D01*
X165111116Y194817132D01*
X165091411Y194831746D01*
X165073232Y194848222D01*
X165056756Y194866401D01*
X165042142Y194886106D01*
X165029529Y194907150D01*
X165019039Y194929328D01*
X165010774Y194952428D01*
X165004813Y194976226D01*
X165001213Y195000495D01*
X165000009Y195024999D01*
X165000009Y196624999D01*
X165001213Y196649503D01*
X165004813Y196673772D01*
X165010774Y196697570D01*
X165019039Y196720670D01*
X165029529Y196742848D01*
X165042142Y196763892D01*
X165056756Y196783597D01*
X165073232Y196801776D01*
X165091411Y196818252D01*
X165111116Y196832866D01*
X165132160Y196845479D01*
X165154338Y196855969D01*
X165177438Y196864234D01*
X165201236Y196870195D01*
X165225505Y196873795D01*
X165250009Y196874999D01*
X167750009Y196874999D01*
X167774513Y196873795D01*
G37*
%TD*%
D12*
%TO.C,J4*%
X132900009Y192299999D03*
X133900009Y192299999D03*
X134900009Y192299999D03*
X135900009Y192299999D03*
X136900009Y192299999D03*
X137900009Y192299999D03*
X139900009Y192299999D03*
X138900009Y192299999D03*
%TD*%
D10*
%TO.C,J1*%
X53480001Y214039999D03*
X58520001Y214039999D03*
X53480001Y211499999D03*
X58520001Y211499999D03*
X53480001Y208959999D03*
X58520001Y208959999D03*
%TD*%
D11*
%TO.C,J2*%
G36*
X52019604Y198774036D02*
G01*
X52039019Y198771156D01*
X52058058Y198766387D01*
X52076538Y198759775D01*
X52094280Y198751383D01*
X52111115Y198741293D01*
X52126880Y198729601D01*
X52141422Y198716420D01*
X52154603Y198701878D01*
X52166295Y198686113D01*
X52176385Y198669278D01*
X52184777Y198651536D01*
X52191389Y198633056D01*
X52196158Y198614017D01*
X52199038Y198594602D01*
X52200001Y198574999D01*
X52200001Y198174999D01*
X52199038Y198155396D01*
X52196158Y198135981D01*
X52191389Y198116942D01*
X52184777Y198098462D01*
X52176385Y198080720D01*
X52166295Y198063885D01*
X52154603Y198048120D01*
X52141422Y198033578D01*
X52126880Y198020397D01*
X52111115Y198008705D01*
X52094280Y197998615D01*
X52076538Y197990223D01*
X52058058Y197983611D01*
X52039019Y197978842D01*
X52019604Y197975962D01*
X52000001Y197974999D01*
X50800001Y197974999D01*
X50780398Y197975962D01*
X50760983Y197978842D01*
X50741944Y197983611D01*
X50723464Y197990223D01*
X50705722Y197998615D01*
X50688887Y198008705D01*
X50673122Y198020397D01*
X50658580Y198033578D01*
X50645399Y198048120D01*
X50633707Y198063885D01*
X50623617Y198080720D01*
X50615225Y198098462D01*
X50608613Y198116942D01*
X50603844Y198135981D01*
X50600964Y198155396D01*
X50600001Y198174999D01*
X50600001Y198574999D01*
X50600964Y198594602D01*
X50603844Y198614017D01*
X50608613Y198633056D01*
X50615225Y198651536D01*
X50623617Y198669278D01*
X50633707Y198686113D01*
X50645399Y198701878D01*
X50658580Y198716420D01*
X50673122Y198729601D01*
X50688887Y198741293D01*
X50705722Y198751383D01*
X50723464Y198759775D01*
X50741944Y198766387D01*
X50760983Y198771156D01*
X50780398Y198774036D01*
X50800001Y198774999D01*
X52000001Y198774999D01*
X52019604Y198774036D01*
G37*
G36*
X52019604Y200024036D02*
G01*
X52039019Y200021156D01*
X52058058Y200016387D01*
X52076538Y200009775D01*
X52094280Y200001383D01*
X52111115Y199991293D01*
X52126880Y199979601D01*
X52141422Y199966420D01*
X52154603Y199951878D01*
X52166295Y199936113D01*
X52176385Y199919278D01*
X52184777Y199901536D01*
X52191389Y199883056D01*
X52196158Y199864017D01*
X52199038Y199844602D01*
X52200001Y199824999D01*
X52200001Y199424999D01*
X52199038Y199405396D01*
X52196158Y199385981D01*
X52191389Y199366942D01*
X52184777Y199348462D01*
X52176385Y199330720D01*
X52166295Y199313885D01*
X52154603Y199298120D01*
X52141422Y199283578D01*
X52126880Y199270397D01*
X52111115Y199258705D01*
X52094280Y199248615D01*
X52076538Y199240223D01*
X52058058Y199233611D01*
X52039019Y199228842D01*
X52019604Y199225962D01*
X52000001Y199224999D01*
X50800001Y199224999D01*
X50780398Y199225962D01*
X50760983Y199228842D01*
X50741944Y199233611D01*
X50723464Y199240223D01*
X50705722Y199248615D01*
X50688887Y199258705D01*
X50673122Y199270397D01*
X50658580Y199283578D01*
X50645399Y199298120D01*
X50633707Y199313885D01*
X50623617Y199330720D01*
X50615225Y199348462D01*
X50608613Y199366942D01*
X50603844Y199385981D01*
X50600964Y199405396D01*
X50600001Y199424999D01*
X50600001Y199824999D01*
X50600964Y199844602D01*
X50603844Y199864017D01*
X50608613Y199883056D01*
X50615225Y199901536D01*
X50623617Y199919278D01*
X50633707Y199936113D01*
X50645399Y199951878D01*
X50658580Y199966420D01*
X50673122Y199979601D01*
X50688887Y199991293D01*
X50705722Y200001383D01*
X50723464Y200009775D01*
X50741944Y200016387D01*
X50760983Y200021156D01*
X50780398Y200024036D01*
X50800001Y200024999D01*
X52000001Y200024999D01*
X52019604Y200024036D01*
G37*
G36*
X49774505Y196873795D02*
G01*
X49798774Y196870195D01*
X49822572Y196864234D01*
X49845672Y196855969D01*
X49867850Y196845479D01*
X49888894Y196832866D01*
X49908599Y196818252D01*
X49926778Y196801776D01*
X49943254Y196783597D01*
X49957868Y196763892D01*
X49970481Y196742848D01*
X49980971Y196720670D01*
X49989236Y196697570D01*
X49995197Y196673772D01*
X49998797Y196649503D01*
X50000001Y196624999D01*
X50000001Y195024999D01*
X49998797Y195000495D01*
X49995197Y194976226D01*
X49989236Y194952428D01*
X49980971Y194929328D01*
X49970481Y194907150D01*
X49957868Y194886106D01*
X49943254Y194866401D01*
X49926778Y194848222D01*
X49908599Y194831746D01*
X49888894Y194817132D01*
X49867850Y194804519D01*
X49845672Y194794029D01*
X49822572Y194785764D01*
X49798774Y194779803D01*
X49774505Y194776203D01*
X49750001Y194774999D01*
X47250001Y194774999D01*
X47225497Y194776203D01*
X47201228Y194779803D01*
X47177430Y194785764D01*
X47154330Y194794029D01*
X47132152Y194804519D01*
X47111108Y194817132D01*
X47091403Y194831746D01*
X47073224Y194848222D01*
X47056748Y194866401D01*
X47042134Y194886106D01*
X47029521Y194907150D01*
X47019031Y194929328D01*
X47010766Y194952428D01*
X47004805Y194976226D01*
X47001205Y195000495D01*
X47000001Y195024999D01*
X47000001Y196624999D01*
X47001205Y196649503D01*
X47004805Y196673772D01*
X47010766Y196697570D01*
X47019031Y196720670D01*
X47029521Y196742848D01*
X47042134Y196763892D01*
X47056748Y196783597D01*
X47073224Y196801776D01*
X47091403Y196818252D01*
X47111108Y196832866D01*
X47132152Y196845479D01*
X47154330Y196855969D01*
X47177430Y196864234D01*
X47201228Y196870195D01*
X47225497Y196873795D01*
X47250001Y196874999D01*
X49750001Y196874999D01*
X49774505Y196873795D01*
G37*
G36*
X49774505Y203223795D02*
G01*
X49798774Y203220195D01*
X49822572Y203214234D01*
X49845672Y203205969D01*
X49867850Y203195479D01*
X49888894Y203182866D01*
X49908599Y203168252D01*
X49926778Y203151776D01*
X49943254Y203133597D01*
X49957868Y203113892D01*
X49970481Y203092848D01*
X49980971Y203070670D01*
X49989236Y203047570D01*
X49995197Y203023772D01*
X49998797Y202999503D01*
X50000001Y202974999D01*
X50000001Y201374999D01*
X49998797Y201350495D01*
X49995197Y201326226D01*
X49989236Y201302428D01*
X49980971Y201279328D01*
X49970481Y201257150D01*
X49957868Y201236106D01*
X49943254Y201216401D01*
X49926778Y201198222D01*
X49908599Y201181746D01*
X49888894Y201167132D01*
X49867850Y201154519D01*
X49845672Y201144029D01*
X49822572Y201135764D01*
X49798774Y201129803D01*
X49774505Y201126203D01*
X49750001Y201124999D01*
X47250001Y201124999D01*
X47225497Y201126203D01*
X47201228Y201129803D01*
X47177430Y201135764D01*
X47154330Y201144029D01*
X47132152Y201154519D01*
X47111108Y201167132D01*
X47091403Y201181746D01*
X47073224Y201198222D01*
X47056748Y201216401D01*
X47042134Y201236106D01*
X47029521Y201257150D01*
X47019031Y201279328D01*
X47010766Y201302428D01*
X47004805Y201326226D01*
X47001205Y201350495D01*
X47000001Y201374999D01*
X47000001Y202974999D01*
X47001205Y202999503D01*
X47004805Y203023772D01*
X47010766Y203047570D01*
X47019031Y203070670D01*
X47029521Y203092848D01*
X47042134Y203113892D01*
X47056748Y203133597D01*
X47073224Y203151776D01*
X47091403Y203168252D01*
X47111108Y203182866D01*
X47132152Y203195479D01*
X47154330Y203205969D01*
X47177430Y203214234D01*
X47201228Y203220195D01*
X47225497Y203223795D01*
X47250001Y203224999D01*
X49750001Y203224999D01*
X49774505Y203223795D01*
G37*
%TD*%
%TO.C,J3*%
G36*
X61219604Y200024036D02*
G01*
X61239019Y200021156D01*
X61258058Y200016387D01*
X61276538Y200009775D01*
X61294280Y200001383D01*
X61311115Y199991293D01*
X61326880Y199979601D01*
X61341422Y199966420D01*
X61354603Y199951878D01*
X61366295Y199936113D01*
X61376385Y199919278D01*
X61384777Y199901536D01*
X61391389Y199883056D01*
X61396158Y199864017D01*
X61399038Y199844602D01*
X61400001Y199824999D01*
X61400001Y199424999D01*
X61399038Y199405396D01*
X61396158Y199385981D01*
X61391389Y199366942D01*
X61384777Y199348462D01*
X61376385Y199330720D01*
X61366295Y199313885D01*
X61354603Y199298120D01*
X61341422Y199283578D01*
X61326880Y199270397D01*
X61311115Y199258705D01*
X61294280Y199248615D01*
X61276538Y199240223D01*
X61258058Y199233611D01*
X61239019Y199228842D01*
X61219604Y199225962D01*
X61200001Y199224999D01*
X60000001Y199224999D01*
X59980398Y199225962D01*
X59960983Y199228842D01*
X59941944Y199233611D01*
X59923464Y199240223D01*
X59905722Y199248615D01*
X59888887Y199258705D01*
X59873122Y199270397D01*
X59858580Y199283578D01*
X59845399Y199298120D01*
X59833707Y199313885D01*
X59823617Y199330720D01*
X59815225Y199348462D01*
X59808613Y199366942D01*
X59803844Y199385981D01*
X59800964Y199405396D01*
X59800001Y199424999D01*
X59800001Y199824999D01*
X59800964Y199844602D01*
X59803844Y199864017D01*
X59808613Y199883056D01*
X59815225Y199901536D01*
X59823617Y199919278D01*
X59833707Y199936113D01*
X59845399Y199951878D01*
X59858580Y199966420D01*
X59873122Y199979601D01*
X59888887Y199991293D01*
X59905722Y200001383D01*
X59923464Y200009775D01*
X59941944Y200016387D01*
X59960983Y200021156D01*
X59980398Y200024036D01*
X60000001Y200024999D01*
X61200001Y200024999D01*
X61219604Y200024036D01*
G37*
G36*
X61219604Y198774036D02*
G01*
X61239019Y198771156D01*
X61258058Y198766387D01*
X61276538Y198759775D01*
X61294280Y198751383D01*
X61311115Y198741293D01*
X61326880Y198729601D01*
X61341422Y198716420D01*
X61354603Y198701878D01*
X61366295Y198686113D01*
X61376385Y198669278D01*
X61384777Y198651536D01*
X61391389Y198633056D01*
X61396158Y198614017D01*
X61399038Y198594602D01*
X61400001Y198574999D01*
X61400001Y198174999D01*
X61399038Y198155396D01*
X61396158Y198135981D01*
X61391389Y198116942D01*
X61384777Y198098462D01*
X61376385Y198080720D01*
X61366295Y198063885D01*
X61354603Y198048120D01*
X61341422Y198033578D01*
X61326880Y198020397D01*
X61311115Y198008705D01*
X61294280Y197998615D01*
X61276538Y197990223D01*
X61258058Y197983611D01*
X61239019Y197978842D01*
X61219604Y197975962D01*
X61200001Y197974999D01*
X60000001Y197974999D01*
X59980398Y197975962D01*
X59960983Y197978842D01*
X59941944Y197983611D01*
X59923464Y197990223D01*
X59905722Y197998615D01*
X59888887Y198008705D01*
X59873122Y198020397D01*
X59858580Y198033578D01*
X59845399Y198048120D01*
X59833707Y198063885D01*
X59823617Y198080720D01*
X59815225Y198098462D01*
X59808613Y198116942D01*
X59803844Y198135981D01*
X59800964Y198155396D01*
X59800001Y198174999D01*
X59800001Y198574999D01*
X59800964Y198594602D01*
X59803844Y198614017D01*
X59808613Y198633056D01*
X59815225Y198651536D01*
X59823617Y198669278D01*
X59833707Y198686113D01*
X59845399Y198701878D01*
X59858580Y198716420D01*
X59873122Y198729601D01*
X59888887Y198741293D01*
X59905722Y198751383D01*
X59923464Y198759775D01*
X59941944Y198766387D01*
X59960983Y198771156D01*
X59980398Y198774036D01*
X60000001Y198774999D01*
X61200001Y198774999D01*
X61219604Y198774036D01*
G37*
G36*
X64774505Y203223795D02*
G01*
X64798774Y203220195D01*
X64822572Y203214234D01*
X64845672Y203205969D01*
X64867850Y203195479D01*
X64888894Y203182866D01*
X64908599Y203168252D01*
X64926778Y203151776D01*
X64943254Y203133597D01*
X64957868Y203113892D01*
X64970481Y203092848D01*
X64980971Y203070670D01*
X64989236Y203047570D01*
X64995197Y203023772D01*
X64998797Y202999503D01*
X65000001Y202974999D01*
X65000001Y201374999D01*
X64998797Y201350495D01*
X64995197Y201326226D01*
X64989236Y201302428D01*
X64980971Y201279328D01*
X64970481Y201257150D01*
X64957868Y201236106D01*
X64943254Y201216401D01*
X64926778Y201198222D01*
X64908599Y201181746D01*
X64888894Y201167132D01*
X64867850Y201154519D01*
X64845672Y201144029D01*
X64822572Y201135764D01*
X64798774Y201129803D01*
X64774505Y201126203D01*
X64750001Y201124999D01*
X62250001Y201124999D01*
X62225497Y201126203D01*
X62201228Y201129803D01*
X62177430Y201135764D01*
X62154330Y201144029D01*
X62132152Y201154519D01*
X62111108Y201167132D01*
X62091403Y201181746D01*
X62073224Y201198222D01*
X62056748Y201216401D01*
X62042134Y201236106D01*
X62029521Y201257150D01*
X62019031Y201279328D01*
X62010766Y201302428D01*
X62004805Y201326226D01*
X62001205Y201350495D01*
X62000001Y201374999D01*
X62000001Y202974999D01*
X62001205Y202999503D01*
X62004805Y203023772D01*
X62010766Y203047570D01*
X62019031Y203070670D01*
X62029521Y203092848D01*
X62042134Y203113892D01*
X62056748Y203133597D01*
X62073224Y203151776D01*
X62091403Y203168252D01*
X62111108Y203182866D01*
X62132152Y203195479D01*
X62154330Y203205969D01*
X62177430Y203214234D01*
X62201228Y203220195D01*
X62225497Y203223795D01*
X62250001Y203224999D01*
X64750001Y203224999D01*
X64774505Y203223795D01*
G37*
G36*
X64774505Y196873795D02*
G01*
X64798774Y196870195D01*
X64822572Y196864234D01*
X64845672Y196855969D01*
X64867850Y196845479D01*
X64888894Y196832866D01*
X64908599Y196818252D01*
X64926778Y196801776D01*
X64943254Y196783597D01*
X64957868Y196763892D01*
X64970481Y196742848D01*
X64980971Y196720670D01*
X64989236Y196697570D01*
X64995197Y196673772D01*
X64998797Y196649503D01*
X65000001Y196624999D01*
X65000001Y195024999D01*
X64998797Y195000495D01*
X64995197Y194976226D01*
X64989236Y194952428D01*
X64980971Y194929328D01*
X64970481Y194907150D01*
X64957868Y194886106D01*
X64943254Y194866401D01*
X64926778Y194848222D01*
X64908599Y194831746D01*
X64888894Y194817132D01*
X64867850Y194804519D01*
X64845672Y194794029D01*
X64822572Y194785764D01*
X64798774Y194779803D01*
X64774505Y194776203D01*
X64750001Y194774999D01*
X62250001Y194774999D01*
X62225497Y194776203D01*
X62201228Y194779803D01*
X62177430Y194785764D01*
X62154330Y194794029D01*
X62132152Y194804519D01*
X62111108Y194817132D01*
X62091403Y194831746D01*
X62073224Y194848222D01*
X62056748Y194866401D01*
X62042134Y194886106D01*
X62029521Y194907150D01*
X62019031Y194929328D01*
X62010766Y194952428D01*
X62004805Y194976226D01*
X62001205Y195000495D01*
X62000001Y195024999D01*
X62000001Y196624999D01*
X62001205Y196649503D01*
X62004805Y196673772D01*
X62010766Y196697570D01*
X62019031Y196720670D01*
X62029521Y196742848D01*
X62042134Y196763892D01*
X62056748Y196783597D01*
X62073224Y196801776D01*
X62091403Y196818252D01*
X62111108Y196832866D01*
X62132152Y196845479D01*
X62154330Y196855969D01*
X62177430Y196864234D01*
X62201228Y196870195D01*
X62225497Y196873795D01*
X62250001Y196874999D01*
X64750001Y196874999D01*
X64774505Y196873795D01*
G37*
%TD*%
D12*
%TO.C,J4*%
X29900001Y192299999D03*
X30900001Y192299999D03*
X31900001Y192299999D03*
X32900001Y192299999D03*
X33900001Y192299999D03*
X34900001Y192299999D03*
X36900001Y192299999D03*
X35900001Y192299999D03*
%TD*%
M02*
