%TF.GenerationSoftware,KiCad,Pcbnew,(5.1.5)-3*%
%TF.CreationDate,2020-06-01T13:14:26+02:00*%
%TF.ProjectId,panel,70616e65-6c2e-46b6-9963-61645f706362,rev?*%
%TF.SameCoordinates,PX29f6300PYff95b00*%
%TF.FileFunction,Other,Comment*%
%FSLAX46Y46*%
G04 Gerber Fmt 4.6, Leading zero omitted, Abs format (unit mm)*
G04 Created by KiCad (PCBNEW (5.1.5)-3) date 2020-06-01 13:14:26*
%MOMM*%
%LPD*%
G04 APERTURE LIST*
%ADD10C,0.400000*%
G04 APERTURE END LIST*
D10*
X207904761Y230450447D02*
X209904761Y231117113D01*
X207904761Y231783780D01*
X209142857Y232450447D02*
X209142857Y233974256D01*
X209714285Y236069494D02*
X209809523Y235974256D01*
X209904761Y235688542D01*
X209904761Y235498066D01*
X209809523Y235212351D01*
X209619047Y235021875D01*
X209428571Y234926637D01*
X209047619Y234831399D01*
X208761904Y234831399D01*
X208380952Y234926637D01*
X208190476Y235021875D01*
X208000000Y235212351D01*
X207904761Y235498066D01*
X207904761Y235688542D01*
X208000000Y235974256D01*
X208095238Y236069494D01*
X207904761Y236926637D02*
X209523809Y236926637D01*
X209714285Y237021875D01*
X209809523Y237117113D01*
X209904761Y237307590D01*
X209904761Y237688542D01*
X209809523Y237879018D01*
X209714285Y237974256D01*
X209523809Y238069494D01*
X207904761Y238069494D01*
X207904761Y238736161D02*
X207904761Y239879018D01*
X209904761Y239307590D02*
X207904761Y239307590D01*
X209000000Y226999970D02*
X209000000Y-3000030D01*
X104904761Y230450447D02*
X106904761Y231117113D01*
X104904761Y231783780D01*
X106142857Y232450447D02*
X106142857Y233974256D01*
X106714285Y236069494D02*
X106809523Y235974256D01*
X106904761Y235688542D01*
X106904761Y235498066D01*
X106809523Y235212351D01*
X106619047Y235021875D01*
X106428571Y234926637D01*
X106047619Y234831399D01*
X105761904Y234831399D01*
X105380952Y234926637D01*
X105190476Y235021875D01*
X105000000Y235212351D01*
X104904761Y235498066D01*
X104904761Y235688542D01*
X105000000Y235974256D01*
X105095238Y236069494D01*
X104904761Y236926637D02*
X106523809Y236926637D01*
X106714285Y237021875D01*
X106809523Y237117113D01*
X106904761Y237307590D01*
X106904761Y237688542D01*
X106809523Y237879018D01*
X106714285Y237974256D01*
X106523809Y238069494D01*
X104904761Y238069494D01*
X104904761Y238736161D02*
X104904761Y239879018D01*
X106904761Y239307590D02*
X104904761Y239307590D01*
X106000000Y226999970D02*
X106000000Y-3000030D01*
X107904761Y230450447D02*
X109904761Y231117113D01*
X107904761Y231783780D01*
X109142857Y232450447D02*
X109142857Y233974256D01*
X109714285Y236069494D02*
X109809523Y235974256D01*
X109904761Y235688542D01*
X109904761Y235498066D01*
X109809523Y235212351D01*
X109619047Y235021875D01*
X109428571Y234926637D01*
X109047619Y234831399D01*
X108761904Y234831399D01*
X108380952Y234926637D01*
X108190476Y235021875D01*
X108000000Y235212351D01*
X107904761Y235498066D01*
X107904761Y235688542D01*
X108000000Y235974256D01*
X108095238Y236069494D01*
X107904761Y236926637D02*
X109523809Y236926637D01*
X109714285Y237021875D01*
X109809523Y237117113D01*
X109904761Y237307590D01*
X109904761Y237688542D01*
X109809523Y237879018D01*
X109714285Y237974256D01*
X109523809Y238069494D01*
X107904761Y238069494D01*
X107904761Y238736161D02*
X107904761Y239879018D01*
X109904761Y239307590D02*
X107904761Y239307590D01*
X109000000Y226999970D02*
X109000000Y-3000030D01*
X4904761Y230450447D02*
X6904761Y231117113D01*
X4904761Y231783780D01*
X6142857Y232450447D02*
X6142857Y233974256D01*
X6714285Y236069494D02*
X6809523Y235974256D01*
X6904761Y235688542D01*
X6904761Y235498066D01*
X6809523Y235212351D01*
X6619047Y235021875D01*
X6428571Y234926637D01*
X6047619Y234831399D01*
X5761904Y234831399D01*
X5380952Y234926637D01*
X5190476Y235021875D01*
X5000000Y235212351D01*
X4904761Y235498066D01*
X4904761Y235688542D01*
X5000000Y235974256D01*
X5095238Y236069494D01*
X4904761Y236926637D02*
X6523809Y236926637D01*
X6714285Y237021875D01*
X6809523Y237117113D01*
X6904761Y237307590D01*
X6904761Y237688542D01*
X6809523Y237879018D01*
X6714285Y237974256D01*
X6523809Y238069494D01*
X4904761Y238069494D01*
X4904761Y238736161D02*
X4904761Y239879018D01*
X6904761Y239307590D02*
X4904761Y239307590D01*
X6000000Y226999970D02*
X6000000Y-3000030D01*
X221450484Y7095239D02*
X222117150Y5095239D01*
X222783817Y7095239D01*
X223450484Y5857143D02*
X224974293Y5857143D01*
X227069531Y5285715D02*
X226974293Y5190477D01*
X226688579Y5095239D01*
X226498103Y5095239D01*
X226212388Y5190477D01*
X226021912Y5380953D01*
X225926674Y5571429D01*
X225831436Y5952381D01*
X225831436Y6238096D01*
X225926674Y6619048D01*
X226021912Y6809524D01*
X226212388Y7000000D01*
X226498103Y7095239D01*
X226688579Y7095239D01*
X226974293Y7000000D01*
X227069531Y6904762D01*
X227926674Y7095239D02*
X227926674Y5476191D01*
X228021912Y5285715D01*
X228117150Y5190477D01*
X228307627Y5095239D01*
X228688579Y5095239D01*
X228879055Y5190477D01*
X228974293Y5285715D01*
X229069531Y5476191D01*
X229069531Y7095239D01*
X229736198Y7095239D02*
X230879055Y7095239D01*
X230307627Y5095239D02*
X230307627Y7095239D01*
X-2999992Y6000000D02*
X218000008Y6000000D01*
X221450484Y47095239D02*
X222117150Y45095239D01*
X222783817Y47095239D01*
X223450484Y45857143D02*
X224974293Y45857143D01*
X227069531Y45285715D02*
X226974293Y45190477D01*
X226688579Y45095239D01*
X226498103Y45095239D01*
X226212388Y45190477D01*
X226021912Y45380953D01*
X225926674Y45571429D01*
X225831436Y45952381D01*
X225831436Y46238096D01*
X225926674Y46619048D01*
X226021912Y46809524D01*
X226212388Y47000000D01*
X226498103Y47095239D01*
X226688579Y47095239D01*
X226974293Y47000000D01*
X227069531Y46904762D01*
X227926674Y47095239D02*
X227926674Y45476191D01*
X228021912Y45285715D01*
X228117150Y45190477D01*
X228307627Y45095239D01*
X228688579Y45095239D01*
X228879055Y45190477D01*
X228974293Y45285715D01*
X229069531Y45476191D01*
X229069531Y47095239D01*
X229736198Y47095239D02*
X230879055Y47095239D01*
X230307627Y45095239D02*
X230307627Y47095239D01*
X-2999992Y46000000D02*
X218000008Y46000000D01*
X221450484Y50095239D02*
X222117150Y48095239D01*
X222783817Y50095239D01*
X223450484Y48857143D02*
X224974293Y48857143D01*
X227069531Y48285715D02*
X226974293Y48190477D01*
X226688579Y48095239D01*
X226498103Y48095239D01*
X226212388Y48190477D01*
X226021912Y48380953D01*
X225926674Y48571429D01*
X225831436Y48952381D01*
X225831436Y49238096D01*
X225926674Y49619048D01*
X226021912Y49809524D01*
X226212388Y50000000D01*
X226498103Y50095239D01*
X226688579Y50095239D01*
X226974293Y50000000D01*
X227069531Y49904762D01*
X227926674Y50095239D02*
X227926674Y48476191D01*
X228021912Y48285715D01*
X228117150Y48190477D01*
X228307627Y48095239D01*
X228688579Y48095239D01*
X228879055Y48190477D01*
X228974293Y48285715D01*
X229069531Y48476191D01*
X229069531Y50095239D01*
X229736198Y50095239D02*
X230879055Y50095239D01*
X230307627Y48095239D02*
X230307627Y50095239D01*
X-2999992Y49000000D02*
X218000008Y49000000D01*
X221450484Y90095239D02*
X222117150Y88095239D01*
X222783817Y90095239D01*
X223450484Y88857143D02*
X224974293Y88857143D01*
X227069531Y88285715D02*
X226974293Y88190477D01*
X226688579Y88095239D01*
X226498103Y88095239D01*
X226212388Y88190477D01*
X226021912Y88380953D01*
X225926674Y88571429D01*
X225831436Y88952381D01*
X225831436Y89238096D01*
X225926674Y89619048D01*
X226021912Y89809524D01*
X226212388Y90000000D01*
X226498103Y90095239D01*
X226688579Y90095239D01*
X226974293Y90000000D01*
X227069531Y89904762D01*
X227926674Y90095239D02*
X227926674Y88476191D01*
X228021912Y88285715D01*
X228117150Y88190477D01*
X228307627Y88095239D01*
X228688579Y88095239D01*
X228879055Y88190477D01*
X228974293Y88285715D01*
X229069531Y88476191D01*
X229069531Y90095239D01*
X229736198Y90095239D02*
X230879055Y90095239D01*
X230307627Y88095239D02*
X230307627Y90095239D01*
X-2999992Y89000000D02*
X218000008Y89000000D01*
X221450484Y93095239D02*
X222117150Y91095239D01*
X222783817Y93095239D01*
X223450484Y91857143D02*
X224974293Y91857143D01*
X227069531Y91285715D02*
X226974293Y91190477D01*
X226688579Y91095239D01*
X226498103Y91095239D01*
X226212388Y91190477D01*
X226021912Y91380953D01*
X225926674Y91571429D01*
X225831436Y91952381D01*
X225831436Y92238096D01*
X225926674Y92619048D01*
X226021912Y92809524D01*
X226212388Y93000000D01*
X226498103Y93095239D01*
X226688579Y93095239D01*
X226974293Y93000000D01*
X227069531Y92904762D01*
X227926674Y93095239D02*
X227926674Y91476191D01*
X228021912Y91285715D01*
X228117150Y91190477D01*
X228307627Y91095239D01*
X228688579Y91095239D01*
X228879055Y91190477D01*
X228974293Y91285715D01*
X229069531Y91476191D01*
X229069531Y93095239D01*
X229736198Y93095239D02*
X230879055Y93095239D01*
X230307627Y91095239D02*
X230307627Y93095239D01*
X-2999992Y92000000D02*
X218000008Y92000000D01*
X221450484Y179095239D02*
X222117150Y177095239D01*
X222783817Y179095239D01*
X223450484Y177857143D02*
X224974293Y177857143D01*
X227069531Y177285715D02*
X226974293Y177190477D01*
X226688579Y177095239D01*
X226498103Y177095239D01*
X226212388Y177190477D01*
X226021912Y177380953D01*
X225926674Y177571429D01*
X225831436Y177952381D01*
X225831436Y178238096D01*
X225926674Y178619048D01*
X226021912Y178809524D01*
X226212388Y179000000D01*
X226498103Y179095239D01*
X226688579Y179095239D01*
X226974293Y179000000D01*
X227069531Y178904762D01*
X227926674Y179095239D02*
X227926674Y177476191D01*
X228021912Y177285715D01*
X228117150Y177190477D01*
X228307627Y177095239D01*
X228688579Y177095239D01*
X228879055Y177190477D01*
X228974293Y177285715D01*
X229069531Y177476191D01*
X229069531Y179095239D01*
X229736198Y179095239D02*
X230879055Y179095239D01*
X230307627Y177095239D02*
X230307627Y179095239D01*
X-2999992Y178000000D02*
X218000008Y178000000D01*
X221450484Y176095239D02*
X222117150Y174095239D01*
X222783817Y176095239D01*
X223450484Y174857143D02*
X224974293Y174857143D01*
X227069531Y174285715D02*
X226974293Y174190477D01*
X226688579Y174095239D01*
X226498103Y174095239D01*
X226212388Y174190477D01*
X226021912Y174380953D01*
X225926674Y174571429D01*
X225831436Y174952381D01*
X225831436Y175238096D01*
X225926674Y175619048D01*
X226021912Y175809524D01*
X226212388Y176000000D01*
X226498103Y176095239D01*
X226688579Y176095239D01*
X226974293Y176000000D01*
X227069531Y175904762D01*
X227926674Y176095239D02*
X227926674Y174476191D01*
X228021912Y174285715D01*
X228117150Y174190477D01*
X228307627Y174095239D01*
X228688579Y174095239D01*
X228879055Y174190477D01*
X228974293Y174285715D01*
X229069531Y174476191D01*
X229069531Y176095239D01*
X229736198Y176095239D02*
X230879055Y176095239D01*
X230307627Y174095239D02*
X230307627Y176095239D01*
X-2999992Y175000000D02*
X218000008Y175000000D01*
X221450484Y136095239D02*
X222117150Y134095239D01*
X222783817Y136095239D01*
X223450484Y134857143D02*
X224974293Y134857143D01*
X227069531Y134285715D02*
X226974293Y134190477D01*
X226688579Y134095239D01*
X226498103Y134095239D01*
X226212388Y134190477D01*
X226021912Y134380953D01*
X225926674Y134571429D01*
X225831436Y134952381D01*
X225831436Y135238096D01*
X225926674Y135619048D01*
X226021912Y135809524D01*
X226212388Y136000000D01*
X226498103Y136095239D01*
X226688579Y136095239D01*
X226974293Y136000000D01*
X227069531Y135904762D01*
X227926674Y136095239D02*
X227926674Y134476191D01*
X228021912Y134285715D01*
X228117150Y134190477D01*
X228307627Y134095239D01*
X228688579Y134095239D01*
X228879055Y134190477D01*
X228974293Y134285715D01*
X229069531Y134476191D01*
X229069531Y136095239D01*
X229736198Y136095239D02*
X230879055Y136095239D01*
X230307627Y134095239D02*
X230307627Y136095239D01*
X-2999992Y135000000D02*
X218000008Y135000000D01*
X221450484Y133095239D02*
X222117150Y131095239D01*
X222783817Y133095239D01*
X223450484Y131857143D02*
X224974293Y131857143D01*
X227069531Y131285715D02*
X226974293Y131190477D01*
X226688579Y131095239D01*
X226498103Y131095239D01*
X226212388Y131190477D01*
X226021912Y131380953D01*
X225926674Y131571429D01*
X225831436Y131952381D01*
X225831436Y132238096D01*
X225926674Y132619048D01*
X226021912Y132809524D01*
X226212388Y133000000D01*
X226498103Y133095239D01*
X226688579Y133095239D01*
X226974293Y133000000D01*
X227069531Y132904762D01*
X227926674Y133095239D02*
X227926674Y131476191D01*
X228021912Y131285715D01*
X228117150Y131190477D01*
X228307627Y131095239D01*
X228688579Y131095239D01*
X228879055Y131190477D01*
X228974293Y131285715D01*
X229069531Y131476191D01*
X229069531Y133095239D01*
X229736198Y133095239D02*
X230879055Y133095239D01*
X230307627Y131095239D02*
X230307627Y133095239D01*
X-2999992Y132000000D02*
X218000008Y132000000D01*
X221450484Y219095239D02*
X222117150Y217095239D01*
X222783817Y219095239D01*
X223450484Y217857143D02*
X224974293Y217857143D01*
X227069531Y217285715D02*
X226974293Y217190477D01*
X226688579Y217095239D01*
X226498103Y217095239D01*
X226212388Y217190477D01*
X226021912Y217380953D01*
X225926674Y217571429D01*
X225831436Y217952381D01*
X225831436Y218238096D01*
X225926674Y218619048D01*
X226021912Y218809524D01*
X226212388Y219000000D01*
X226498103Y219095239D01*
X226688579Y219095239D01*
X226974293Y219000000D01*
X227069531Y218904762D01*
X227926674Y219095239D02*
X227926674Y217476191D01*
X228021912Y217285715D01*
X228117150Y217190477D01*
X228307627Y217095239D01*
X228688579Y217095239D01*
X228879055Y217190477D01*
X228974293Y217285715D01*
X229069531Y217476191D01*
X229069531Y219095239D01*
X229736198Y219095239D02*
X230879055Y219095239D01*
X230307627Y217095239D02*
X230307627Y219095239D01*
X-2999992Y218000000D02*
X218000008Y218000000D01*
M02*
