%TF.GenerationSoftware,KiCad,Pcbnew,(5.1.5)-3*%
%TF.CreationDate,2020-06-01T09:44:54+02:00*%
%TF.ProjectId,speaker_grill,73706561-6b65-4725-9f67-72696c6c2e6b,rev?*%
%TF.SameCoordinates,PXbebc200PY5f5e100*%
%TF.FileFunction,Copper,L1,Top*%
%TF.FilePolarity,Positive*%
%FSLAX46Y46*%
G04 Gerber Fmt 4.6, Leading zero omitted, Abs format (unit mm)*
G04 Created by KiCad (PCBNEW (5.1.5)-3) date 2020-06-01 09:44:54*
%MOMM*%
%LPD*%
G04 APERTURE LIST*
%TA.AperFunction,NonConductor*%
%ADD10C,0.254000*%
%TD*%
G04 APERTURE END LIST*
D10*
G36*
X-1747171Y39276877D02*
G01*
X-1503974Y39203451D01*
X-1279669Y39084186D01*
X-1082801Y38923625D01*
X-920869Y38727883D01*
X-800043Y38504420D01*
X-724920Y38261736D01*
X-695000Y37977071D01*
X-694999Y695000D01*
X-6505000Y695000D01*
X-6505000Y1034135D01*
X-6507996Y1064558D01*
X-6507910Y1076953D01*
X-6508856Y1086611D01*
X-6549657Y1474804D01*
X-6562325Y1536518D01*
X-6574127Y1598383D01*
X-6576932Y1607673D01*
X-6692355Y1980548D01*
X-6716765Y2038617D01*
X-6740362Y2097021D01*
X-6744918Y2105589D01*
X-6744918Y2105590D01*
X-6744921Y2105594D01*
X-6930569Y2448944D01*
X-6965792Y2501165D01*
X-7000286Y2553876D01*
X-7006419Y2561397D01*
X-7255226Y2862152D01*
X-7299935Y2906550D01*
X-7343995Y2951542D01*
X-7351466Y2957722D01*
X-7351472Y2957728D01*
X-7351479Y2957732D01*
X-7361452Y2965866D01*
X-6695000Y2965866D01*
X-6691537Y2930708D01*
X-6691537Y2911236D01*
X-6690523Y2901585D01*
X-6657890Y2610660D01*
X-6644794Y2549051D01*
X-6632558Y2487256D01*
X-6629689Y2477986D01*
X-6541171Y2198941D01*
X-6516348Y2141024D01*
X-6492351Y2082805D01*
X-6487736Y2074268D01*
X-6346703Y1817730D01*
X-6311105Y1765740D01*
X-6276256Y1713289D01*
X-6270071Y1705811D01*
X-6081896Y1481553D01*
X-6036882Y1437472D01*
X-5992504Y1392784D01*
X-5984990Y1386656D01*
X-5984985Y1386651D01*
X-5984980Y1386647D01*
X-5756834Y1203214D01*
X-5704139Y1168731D01*
X-5651905Y1133499D01*
X-5643337Y1128943D01*
X-5383902Y993313D01*
X-5325475Y969707D01*
X-5267427Y945306D01*
X-5258145Y942503D01*
X-5258139Y942501D01*
X-5258133Y942500D01*
X-4977299Y859846D01*
X-4915438Y848045D01*
X-4853718Y835376D01*
X-4844062Y834429D01*
X-4844060Y834429D01*
X-4552516Y807897D01*
X-4489528Y808337D01*
X-4426540Y807897D01*
X-4416882Y808844D01*
X-4416879Y808844D01*
X-4416876Y808845D01*
X-4125737Y839444D01*
X-4064017Y852113D01*
X-4002156Y863914D01*
X-3992874Y866717D01*
X-3992867Y866718D01*
X-3992861Y866721D01*
X-3713210Y953286D01*
X-3655118Y977706D01*
X-3596735Y1001294D01*
X-3588172Y1005847D01*
X-3588168Y1005849D01*
X-3588165Y1005851D01*
X-3330651Y1145089D01*
X-3278417Y1180321D01*
X-3225722Y1214804D01*
X-3218204Y1220935D01*
X-3218200Y1220938D01*
X-3218196Y1220942D01*
X-2992635Y1407542D01*
X-2948255Y1452232D01*
X-2903244Y1496311D01*
X-2897058Y1503788D01*
X-2712032Y1730652D01*
X-2677171Y1783121D01*
X-2641585Y1835094D01*
X-2636974Y1843622D01*
X-2636969Y1843630D01*
X-2636966Y1843638D01*
X-2499533Y2102111D01*
X-2475539Y2160325D01*
X-2450714Y2218246D01*
X-2447844Y2227516D01*
X-2363230Y2507770D01*
X-2350997Y2569553D01*
X-2337898Y2631178D01*
X-2336884Y2640829D01*
X-2308317Y2932180D01*
X-2308317Y2932187D01*
X-2305000Y2965865D01*
X-2305000Y7034135D01*
X-2308463Y7069293D01*
X-2308463Y7088765D01*
X-2309477Y7098416D01*
X-2342110Y7389340D01*
X-2355206Y7450949D01*
X-2367442Y7512744D01*
X-2370311Y7522015D01*
X-2458829Y7801059D01*
X-2483646Y7858962D01*
X-2507649Y7917196D01*
X-2512264Y7925732D01*
X-2653297Y8182270D01*
X-2688895Y8234260D01*
X-2723744Y8286711D01*
X-2729929Y8294189D01*
X-2918104Y8518447D01*
X-2963119Y8562528D01*
X-3007496Y8607216D01*
X-3015016Y8613349D01*
X-3243166Y8796786D01*
X-3295861Y8831269D01*
X-3348095Y8866501D01*
X-3356663Y8871057D01*
X-3616098Y9006687D01*
X-3674525Y9030293D01*
X-3732573Y9054694D01*
X-3741855Y9057497D01*
X-3741861Y9057499D01*
X-3741867Y9057500D01*
X-4022701Y9140154D01*
X-4084562Y9151955D01*
X-4146282Y9164624D01*
X-4155938Y9165571D01*
X-4155940Y9165571D01*
X-4447484Y9192103D01*
X-4510472Y9191663D01*
X-4573460Y9192103D01*
X-4583118Y9191156D01*
X-4583121Y9191156D01*
X-4583124Y9191155D01*
X-4874263Y9160556D01*
X-4935977Y9147888D01*
X-4997844Y9136086D01*
X-5007126Y9133283D01*
X-5007133Y9133282D01*
X-5007139Y9133279D01*
X-5286790Y9046713D01*
X-5344849Y9022307D01*
X-5403265Y8998706D01*
X-5411828Y8994153D01*
X-5411832Y8994151D01*
X-5411833Y8994150D01*
X-5669349Y8854911D01*
X-5721583Y8819679D01*
X-5774278Y8785196D01*
X-5781796Y8779065D01*
X-5781800Y8779062D01*
X-5781804Y8779058D01*
X-6007365Y8592458D01*
X-6051745Y8547768D01*
X-6096756Y8503689D01*
X-6102942Y8496212D01*
X-6287968Y8269348D01*
X-6322829Y8216879D01*
X-6358415Y8164906D01*
X-6363026Y8156378D01*
X-6363031Y8156370D01*
X-6363031Y8156369D01*
X-6500467Y7897889D01*
X-6524461Y7839675D01*
X-6549286Y7781754D01*
X-6552156Y7772484D01*
X-6636770Y7492230D01*
X-6649003Y7430447D01*
X-6662102Y7368822D01*
X-6663116Y7359171D01*
X-6691683Y7067819D01*
X-6691683Y7067802D01*
X-6694999Y7034135D01*
X-6695000Y2965866D01*
X-7361452Y2965866D01*
X-7653956Y3204428D01*
X-7706425Y3239289D01*
X-7758398Y3274875D01*
X-7766926Y3279486D01*
X-7766934Y3279491D01*
X-7766942Y3279494D01*
X-8111575Y3462740D01*
X-8169839Y3486755D01*
X-8227713Y3511559D01*
X-8236975Y3514427D01*
X-8236981Y3514429D01*
X-8236987Y3514430D01*
X-8610654Y3627247D01*
X-8672436Y3639480D01*
X-8734059Y3652578D01*
X-8743710Y3653593D01*
X-9132179Y3691683D01*
X-9132187Y3691683D01*
X-9165865Y3695000D01*
X-17634135Y3695000D01*
X-17664558Y3692004D01*
X-17676953Y3692090D01*
X-17686611Y3691144D01*
X-18074804Y3650343D01*
X-18136518Y3637675D01*
X-18198383Y3625873D01*
X-18207671Y3623069D01*
X-18207677Y3623067D01*
X-18580548Y3507645D01*
X-18638617Y3483235D01*
X-18697021Y3459638D01*
X-18705585Y3455084D01*
X-18705590Y3455082D01*
X-18705591Y3455081D01*
X-19048944Y3269431D01*
X-19101165Y3234208D01*
X-19153876Y3199714D01*
X-19161397Y3193581D01*
X-19462152Y2944774D01*
X-19506550Y2900065D01*
X-19551542Y2856005D01*
X-19557722Y2848534D01*
X-19557728Y2848528D01*
X-19557732Y2848521D01*
X-19804428Y2546044D01*
X-19839289Y2493575D01*
X-19874875Y2441602D01*
X-19879486Y2433074D01*
X-19879491Y2433066D01*
X-19879494Y2433058D01*
X-20062740Y2088425D01*
X-20086755Y2030161D01*
X-20111559Y1972287D01*
X-20114427Y1963025D01*
X-20114429Y1963019D01*
X-20114429Y1963017D01*
X-20227247Y1589346D01*
X-20239480Y1527564D01*
X-20252578Y1465941D01*
X-20253593Y1456290D01*
X-20291683Y1067821D01*
X-20291683Y1067802D01*
X-20294999Y1034135D01*
X-20294999Y695000D01*
X-99305000Y695000D01*
X-99305000Y2965866D01*
X-97695000Y2965866D01*
X-97691537Y2930708D01*
X-97691537Y2911236D01*
X-97690523Y2901585D01*
X-97657890Y2610660D01*
X-97644794Y2549051D01*
X-97632558Y2487256D01*
X-97629689Y2477986D01*
X-97541171Y2198941D01*
X-97516348Y2141024D01*
X-97492351Y2082805D01*
X-97487736Y2074268D01*
X-97346703Y1817730D01*
X-97311105Y1765740D01*
X-97276256Y1713289D01*
X-97270071Y1705811D01*
X-97081896Y1481553D01*
X-97036882Y1437472D01*
X-96992504Y1392784D01*
X-96984990Y1386656D01*
X-96984985Y1386651D01*
X-96984980Y1386647D01*
X-96756834Y1203214D01*
X-96704139Y1168731D01*
X-96651905Y1133499D01*
X-96643337Y1128943D01*
X-96383902Y993313D01*
X-96325475Y969707D01*
X-96267427Y945306D01*
X-96258145Y942503D01*
X-96258139Y942501D01*
X-96258133Y942500D01*
X-95977299Y859846D01*
X-95915438Y848045D01*
X-95853718Y835376D01*
X-95844062Y834429D01*
X-95844060Y834429D01*
X-95552516Y807897D01*
X-95489528Y808337D01*
X-95426540Y807897D01*
X-95416882Y808844D01*
X-95416879Y808844D01*
X-95416876Y808845D01*
X-95125737Y839444D01*
X-95064017Y852113D01*
X-95002156Y863914D01*
X-94992874Y866717D01*
X-94992867Y866718D01*
X-94992861Y866721D01*
X-94713210Y953286D01*
X-94655118Y977706D01*
X-94596735Y1001294D01*
X-94588172Y1005847D01*
X-94588168Y1005849D01*
X-94588165Y1005851D01*
X-94330651Y1145089D01*
X-94278417Y1180321D01*
X-94225722Y1214804D01*
X-94218204Y1220935D01*
X-94218200Y1220938D01*
X-94218196Y1220942D01*
X-93992635Y1407542D01*
X-93948255Y1452232D01*
X-93903244Y1496311D01*
X-93897058Y1503788D01*
X-93712032Y1730652D01*
X-93677171Y1783121D01*
X-93641585Y1835094D01*
X-93636974Y1843622D01*
X-93636969Y1843630D01*
X-93636966Y1843638D01*
X-93499533Y2102111D01*
X-93475539Y2160325D01*
X-93450714Y2218246D01*
X-93447844Y2227516D01*
X-93363230Y2507770D01*
X-93350997Y2569553D01*
X-93337898Y2631178D01*
X-93336884Y2640829D01*
X-93308317Y2932180D01*
X-93308317Y2932187D01*
X-93305000Y2965865D01*
X-93305000Y7034135D01*
X-93308463Y7069293D01*
X-93308463Y7088765D01*
X-93309477Y7098416D01*
X-93342110Y7389340D01*
X-93355206Y7450949D01*
X-93367442Y7512744D01*
X-93370311Y7522015D01*
X-93458829Y7801059D01*
X-93483646Y7858962D01*
X-93507649Y7917196D01*
X-93512264Y7925732D01*
X-93653297Y8182270D01*
X-93688895Y8234260D01*
X-93723744Y8286711D01*
X-93729929Y8294189D01*
X-93918104Y8518447D01*
X-93963119Y8562528D01*
X-94007496Y8607216D01*
X-94015016Y8613349D01*
X-94243166Y8796786D01*
X-94295861Y8831269D01*
X-94348095Y8866501D01*
X-94356663Y8871057D01*
X-94616098Y9006687D01*
X-94674525Y9030293D01*
X-94732573Y9054694D01*
X-94741855Y9057497D01*
X-94741861Y9057499D01*
X-94741867Y9057500D01*
X-95022701Y9140154D01*
X-95084562Y9151955D01*
X-95146282Y9164624D01*
X-95155938Y9165571D01*
X-95155940Y9165571D01*
X-95447484Y9192103D01*
X-95510472Y9191663D01*
X-95573460Y9192103D01*
X-95583118Y9191156D01*
X-95583121Y9191156D01*
X-95583124Y9191155D01*
X-95874263Y9160556D01*
X-95935977Y9147888D01*
X-95997844Y9136086D01*
X-96007126Y9133283D01*
X-96007133Y9133282D01*
X-96007139Y9133279D01*
X-96286790Y9046713D01*
X-96344849Y9022307D01*
X-96403265Y8998706D01*
X-96411828Y8994153D01*
X-96411832Y8994151D01*
X-96411833Y8994150D01*
X-96669349Y8854911D01*
X-96721583Y8819679D01*
X-96774278Y8785196D01*
X-96781796Y8779065D01*
X-96781800Y8779062D01*
X-96781804Y8779058D01*
X-97007365Y8592458D01*
X-97051745Y8547768D01*
X-97096756Y8503689D01*
X-97102942Y8496212D01*
X-97287968Y8269348D01*
X-97322829Y8216879D01*
X-97358415Y8164906D01*
X-97363026Y8156378D01*
X-97363031Y8156370D01*
X-97363031Y8156369D01*
X-97500467Y7897889D01*
X-97524461Y7839675D01*
X-97549286Y7781754D01*
X-97552156Y7772484D01*
X-97636770Y7492230D01*
X-97649003Y7430447D01*
X-97662102Y7368822D01*
X-97663116Y7359171D01*
X-97691683Y7067819D01*
X-97691683Y7067802D01*
X-97694999Y7034135D01*
X-97695000Y2965866D01*
X-99305000Y2965866D01*
X-99305000Y24721721D01*
X-92692795Y24721721D01*
X-92692795Y23478279D01*
X-92515835Y22247494D01*
X-92165517Y21054420D01*
X-91648972Y19923345D01*
X-90976717Y18877295D01*
X-90162436Y17937564D01*
X-89222705Y17123283D01*
X-88176655Y16451028D01*
X-87045580Y15934483D01*
X-85852506Y15584165D01*
X-84621721Y15407205D01*
X-83378279Y15407205D01*
X-82147494Y15584165D01*
X-80954420Y15934483D01*
X-79823345Y16451028D01*
X-78777295Y17123283D01*
X-77837564Y17937564D01*
X-77023283Y18877295D01*
X-76351028Y19923345D01*
X-75834483Y21054420D01*
X-75484165Y22247494D01*
X-75307205Y23478279D01*
X-75307205Y24721721D01*
X-24692795Y24721721D01*
X-24692795Y23478279D01*
X-24515835Y22247494D01*
X-24165517Y21054420D01*
X-23648972Y19923345D01*
X-22976717Y18877295D01*
X-22162436Y17937564D01*
X-21222705Y17123283D01*
X-20176655Y16451028D01*
X-19045580Y15934483D01*
X-17852506Y15584165D01*
X-16621721Y15407205D01*
X-15378279Y15407205D01*
X-14147494Y15584165D01*
X-12954420Y15934483D01*
X-11823345Y16451028D01*
X-10777295Y17123283D01*
X-9837564Y17937564D01*
X-9023283Y18877295D01*
X-8351028Y19923345D01*
X-7834483Y21054420D01*
X-7484165Y22247494D01*
X-7307205Y23478279D01*
X-7307205Y24721721D01*
X-7484165Y25952506D01*
X-7834483Y27145580D01*
X-8351028Y28276655D01*
X-9023283Y29322705D01*
X-9837564Y30262436D01*
X-10777295Y31076717D01*
X-11823345Y31748972D01*
X-12954420Y32265517D01*
X-14147494Y32615835D01*
X-15378279Y32792795D01*
X-16621721Y32792795D01*
X-17852506Y32615835D01*
X-19045580Y32265517D01*
X-20176655Y31748972D01*
X-21222705Y31076717D01*
X-22162436Y30262436D01*
X-22976717Y29322705D01*
X-23648972Y28276655D01*
X-24165517Y27145580D01*
X-24515835Y25952506D01*
X-24692795Y24721721D01*
X-75307205Y24721721D01*
X-75484165Y25952506D01*
X-75834483Y27145580D01*
X-76351028Y28276655D01*
X-77023283Y29322705D01*
X-77837564Y30262436D01*
X-78777295Y31076717D01*
X-79823345Y31748972D01*
X-80954420Y32265517D01*
X-82147494Y32615835D01*
X-83378279Y32792795D01*
X-84621721Y32792795D01*
X-85852506Y32615835D01*
X-87045580Y32265517D01*
X-88176655Y31748972D01*
X-89222705Y31076717D01*
X-90162436Y30262436D01*
X-90976717Y29322705D01*
X-91648972Y28276655D01*
X-92165517Y27145580D01*
X-92515835Y25952506D01*
X-92692795Y24721721D01*
X-99305000Y24721721D01*
X-99305000Y37966008D01*
X-99276877Y38252829D01*
X-99203451Y38496026D01*
X-99084186Y38720331D01*
X-98923625Y38917199D01*
X-98727883Y39079131D01*
X-98504420Y39199957D01*
X-98261736Y39275080D01*
X-97977071Y39305000D01*
X-2033992Y39305000D01*
X-1747171Y39276877D01*
G37*
X-1747171Y39276877D02*
X-1503974Y39203451D01*
X-1279669Y39084186D01*
X-1082801Y38923625D01*
X-920869Y38727883D01*
X-800043Y38504420D01*
X-724920Y38261736D01*
X-695000Y37977071D01*
X-694999Y695000D01*
X-6505000Y695000D01*
X-6505000Y1034135D01*
X-6507996Y1064558D01*
X-6507910Y1076953D01*
X-6508856Y1086611D01*
X-6549657Y1474804D01*
X-6562325Y1536518D01*
X-6574127Y1598383D01*
X-6576932Y1607673D01*
X-6692355Y1980548D01*
X-6716765Y2038617D01*
X-6740362Y2097021D01*
X-6744918Y2105589D01*
X-6744918Y2105590D01*
X-6744921Y2105594D01*
X-6930569Y2448944D01*
X-6965792Y2501165D01*
X-7000286Y2553876D01*
X-7006419Y2561397D01*
X-7255226Y2862152D01*
X-7299935Y2906550D01*
X-7343995Y2951542D01*
X-7351466Y2957722D01*
X-7351472Y2957728D01*
X-7351479Y2957732D01*
X-7361452Y2965866D01*
X-6695000Y2965866D01*
X-6691537Y2930708D01*
X-6691537Y2911236D01*
X-6690523Y2901585D01*
X-6657890Y2610660D01*
X-6644794Y2549051D01*
X-6632558Y2487256D01*
X-6629689Y2477986D01*
X-6541171Y2198941D01*
X-6516348Y2141024D01*
X-6492351Y2082805D01*
X-6487736Y2074268D01*
X-6346703Y1817730D01*
X-6311105Y1765740D01*
X-6276256Y1713289D01*
X-6270071Y1705811D01*
X-6081896Y1481553D01*
X-6036882Y1437472D01*
X-5992504Y1392784D01*
X-5984990Y1386656D01*
X-5984985Y1386651D01*
X-5984980Y1386647D01*
X-5756834Y1203214D01*
X-5704139Y1168731D01*
X-5651905Y1133499D01*
X-5643337Y1128943D01*
X-5383902Y993313D01*
X-5325475Y969707D01*
X-5267427Y945306D01*
X-5258145Y942503D01*
X-5258139Y942501D01*
X-5258133Y942500D01*
X-4977299Y859846D01*
X-4915438Y848045D01*
X-4853718Y835376D01*
X-4844062Y834429D01*
X-4844060Y834429D01*
X-4552516Y807897D01*
X-4489528Y808337D01*
X-4426540Y807897D01*
X-4416882Y808844D01*
X-4416879Y808844D01*
X-4416876Y808845D01*
X-4125737Y839444D01*
X-4064017Y852113D01*
X-4002156Y863914D01*
X-3992874Y866717D01*
X-3992867Y866718D01*
X-3992861Y866721D01*
X-3713210Y953286D01*
X-3655118Y977706D01*
X-3596735Y1001294D01*
X-3588172Y1005847D01*
X-3588168Y1005849D01*
X-3588165Y1005851D01*
X-3330651Y1145089D01*
X-3278417Y1180321D01*
X-3225722Y1214804D01*
X-3218204Y1220935D01*
X-3218200Y1220938D01*
X-3218196Y1220942D01*
X-2992635Y1407542D01*
X-2948255Y1452232D01*
X-2903244Y1496311D01*
X-2897058Y1503788D01*
X-2712032Y1730652D01*
X-2677171Y1783121D01*
X-2641585Y1835094D01*
X-2636974Y1843622D01*
X-2636969Y1843630D01*
X-2636966Y1843638D01*
X-2499533Y2102111D01*
X-2475539Y2160325D01*
X-2450714Y2218246D01*
X-2447844Y2227516D01*
X-2363230Y2507770D01*
X-2350997Y2569553D01*
X-2337898Y2631178D01*
X-2336884Y2640829D01*
X-2308317Y2932180D01*
X-2308317Y2932187D01*
X-2305000Y2965865D01*
X-2305000Y7034135D01*
X-2308463Y7069293D01*
X-2308463Y7088765D01*
X-2309477Y7098416D01*
X-2342110Y7389340D01*
X-2355206Y7450949D01*
X-2367442Y7512744D01*
X-2370311Y7522015D01*
X-2458829Y7801059D01*
X-2483646Y7858962D01*
X-2507649Y7917196D01*
X-2512264Y7925732D01*
X-2653297Y8182270D01*
X-2688895Y8234260D01*
X-2723744Y8286711D01*
X-2729929Y8294189D01*
X-2918104Y8518447D01*
X-2963119Y8562528D01*
X-3007496Y8607216D01*
X-3015016Y8613349D01*
X-3243166Y8796786D01*
X-3295861Y8831269D01*
X-3348095Y8866501D01*
X-3356663Y8871057D01*
X-3616098Y9006687D01*
X-3674525Y9030293D01*
X-3732573Y9054694D01*
X-3741855Y9057497D01*
X-3741861Y9057499D01*
X-3741867Y9057500D01*
X-4022701Y9140154D01*
X-4084562Y9151955D01*
X-4146282Y9164624D01*
X-4155938Y9165571D01*
X-4155940Y9165571D01*
X-4447484Y9192103D01*
X-4510472Y9191663D01*
X-4573460Y9192103D01*
X-4583118Y9191156D01*
X-4583121Y9191156D01*
X-4583124Y9191155D01*
X-4874263Y9160556D01*
X-4935977Y9147888D01*
X-4997844Y9136086D01*
X-5007126Y9133283D01*
X-5007133Y9133282D01*
X-5007139Y9133279D01*
X-5286790Y9046713D01*
X-5344849Y9022307D01*
X-5403265Y8998706D01*
X-5411828Y8994153D01*
X-5411832Y8994151D01*
X-5411833Y8994150D01*
X-5669349Y8854911D01*
X-5721583Y8819679D01*
X-5774278Y8785196D01*
X-5781796Y8779065D01*
X-5781800Y8779062D01*
X-5781804Y8779058D01*
X-6007365Y8592458D01*
X-6051745Y8547768D01*
X-6096756Y8503689D01*
X-6102942Y8496212D01*
X-6287968Y8269348D01*
X-6322829Y8216879D01*
X-6358415Y8164906D01*
X-6363026Y8156378D01*
X-6363031Y8156370D01*
X-6363031Y8156369D01*
X-6500467Y7897889D01*
X-6524461Y7839675D01*
X-6549286Y7781754D01*
X-6552156Y7772484D01*
X-6636770Y7492230D01*
X-6649003Y7430447D01*
X-6662102Y7368822D01*
X-6663116Y7359171D01*
X-6691683Y7067819D01*
X-6691683Y7067802D01*
X-6694999Y7034135D01*
X-6695000Y2965866D01*
X-7361452Y2965866D01*
X-7653956Y3204428D01*
X-7706425Y3239289D01*
X-7758398Y3274875D01*
X-7766926Y3279486D01*
X-7766934Y3279491D01*
X-7766942Y3279494D01*
X-8111575Y3462740D01*
X-8169839Y3486755D01*
X-8227713Y3511559D01*
X-8236975Y3514427D01*
X-8236981Y3514429D01*
X-8236987Y3514430D01*
X-8610654Y3627247D01*
X-8672436Y3639480D01*
X-8734059Y3652578D01*
X-8743710Y3653593D01*
X-9132179Y3691683D01*
X-9132187Y3691683D01*
X-9165865Y3695000D01*
X-17634135Y3695000D01*
X-17664558Y3692004D01*
X-17676953Y3692090D01*
X-17686611Y3691144D01*
X-18074804Y3650343D01*
X-18136518Y3637675D01*
X-18198383Y3625873D01*
X-18207671Y3623069D01*
X-18207677Y3623067D01*
X-18580548Y3507645D01*
X-18638617Y3483235D01*
X-18697021Y3459638D01*
X-18705585Y3455084D01*
X-18705590Y3455082D01*
X-18705591Y3455081D01*
X-19048944Y3269431D01*
X-19101165Y3234208D01*
X-19153876Y3199714D01*
X-19161397Y3193581D01*
X-19462152Y2944774D01*
X-19506550Y2900065D01*
X-19551542Y2856005D01*
X-19557722Y2848534D01*
X-19557728Y2848528D01*
X-19557732Y2848521D01*
X-19804428Y2546044D01*
X-19839289Y2493575D01*
X-19874875Y2441602D01*
X-19879486Y2433074D01*
X-19879491Y2433066D01*
X-19879494Y2433058D01*
X-20062740Y2088425D01*
X-20086755Y2030161D01*
X-20111559Y1972287D01*
X-20114427Y1963025D01*
X-20114429Y1963019D01*
X-20114429Y1963017D01*
X-20227247Y1589346D01*
X-20239480Y1527564D01*
X-20252578Y1465941D01*
X-20253593Y1456290D01*
X-20291683Y1067821D01*
X-20291683Y1067802D01*
X-20294999Y1034135D01*
X-20294999Y695000D01*
X-99305000Y695000D01*
X-99305000Y2965866D01*
X-97695000Y2965866D01*
X-97691537Y2930708D01*
X-97691537Y2911236D01*
X-97690523Y2901585D01*
X-97657890Y2610660D01*
X-97644794Y2549051D01*
X-97632558Y2487256D01*
X-97629689Y2477986D01*
X-97541171Y2198941D01*
X-97516348Y2141024D01*
X-97492351Y2082805D01*
X-97487736Y2074268D01*
X-97346703Y1817730D01*
X-97311105Y1765740D01*
X-97276256Y1713289D01*
X-97270071Y1705811D01*
X-97081896Y1481553D01*
X-97036882Y1437472D01*
X-96992504Y1392784D01*
X-96984990Y1386656D01*
X-96984985Y1386651D01*
X-96984980Y1386647D01*
X-96756834Y1203214D01*
X-96704139Y1168731D01*
X-96651905Y1133499D01*
X-96643337Y1128943D01*
X-96383902Y993313D01*
X-96325475Y969707D01*
X-96267427Y945306D01*
X-96258145Y942503D01*
X-96258139Y942501D01*
X-96258133Y942500D01*
X-95977299Y859846D01*
X-95915438Y848045D01*
X-95853718Y835376D01*
X-95844062Y834429D01*
X-95844060Y834429D01*
X-95552516Y807897D01*
X-95489528Y808337D01*
X-95426540Y807897D01*
X-95416882Y808844D01*
X-95416879Y808844D01*
X-95416876Y808845D01*
X-95125737Y839444D01*
X-95064017Y852113D01*
X-95002156Y863914D01*
X-94992874Y866717D01*
X-94992867Y866718D01*
X-94992861Y866721D01*
X-94713210Y953286D01*
X-94655118Y977706D01*
X-94596735Y1001294D01*
X-94588172Y1005847D01*
X-94588168Y1005849D01*
X-94588165Y1005851D01*
X-94330651Y1145089D01*
X-94278417Y1180321D01*
X-94225722Y1214804D01*
X-94218204Y1220935D01*
X-94218200Y1220938D01*
X-94218196Y1220942D01*
X-93992635Y1407542D01*
X-93948255Y1452232D01*
X-93903244Y1496311D01*
X-93897058Y1503788D01*
X-93712032Y1730652D01*
X-93677171Y1783121D01*
X-93641585Y1835094D01*
X-93636974Y1843622D01*
X-93636969Y1843630D01*
X-93636966Y1843638D01*
X-93499533Y2102111D01*
X-93475539Y2160325D01*
X-93450714Y2218246D01*
X-93447844Y2227516D01*
X-93363230Y2507770D01*
X-93350997Y2569553D01*
X-93337898Y2631178D01*
X-93336884Y2640829D01*
X-93308317Y2932180D01*
X-93308317Y2932187D01*
X-93305000Y2965865D01*
X-93305000Y7034135D01*
X-93308463Y7069293D01*
X-93308463Y7088765D01*
X-93309477Y7098416D01*
X-93342110Y7389340D01*
X-93355206Y7450949D01*
X-93367442Y7512744D01*
X-93370311Y7522015D01*
X-93458829Y7801059D01*
X-93483646Y7858962D01*
X-93507649Y7917196D01*
X-93512264Y7925732D01*
X-93653297Y8182270D01*
X-93688895Y8234260D01*
X-93723744Y8286711D01*
X-93729929Y8294189D01*
X-93918104Y8518447D01*
X-93963119Y8562528D01*
X-94007496Y8607216D01*
X-94015016Y8613349D01*
X-94243166Y8796786D01*
X-94295861Y8831269D01*
X-94348095Y8866501D01*
X-94356663Y8871057D01*
X-94616098Y9006687D01*
X-94674525Y9030293D01*
X-94732573Y9054694D01*
X-94741855Y9057497D01*
X-94741861Y9057499D01*
X-94741867Y9057500D01*
X-95022701Y9140154D01*
X-95084562Y9151955D01*
X-95146282Y9164624D01*
X-95155938Y9165571D01*
X-95155940Y9165571D01*
X-95447484Y9192103D01*
X-95510472Y9191663D01*
X-95573460Y9192103D01*
X-95583118Y9191156D01*
X-95583121Y9191156D01*
X-95583124Y9191155D01*
X-95874263Y9160556D01*
X-95935977Y9147888D01*
X-95997844Y9136086D01*
X-96007126Y9133283D01*
X-96007133Y9133282D01*
X-96007139Y9133279D01*
X-96286790Y9046713D01*
X-96344849Y9022307D01*
X-96403265Y8998706D01*
X-96411828Y8994153D01*
X-96411832Y8994151D01*
X-96411833Y8994150D01*
X-96669349Y8854911D01*
X-96721583Y8819679D01*
X-96774278Y8785196D01*
X-96781796Y8779065D01*
X-96781800Y8779062D01*
X-96781804Y8779058D01*
X-97007365Y8592458D01*
X-97051745Y8547768D01*
X-97096756Y8503689D01*
X-97102942Y8496212D01*
X-97287968Y8269348D01*
X-97322829Y8216879D01*
X-97358415Y8164906D01*
X-97363026Y8156378D01*
X-97363031Y8156370D01*
X-97363031Y8156369D01*
X-97500467Y7897889D01*
X-97524461Y7839675D01*
X-97549286Y7781754D01*
X-97552156Y7772484D01*
X-97636770Y7492230D01*
X-97649003Y7430447D01*
X-97662102Y7368822D01*
X-97663116Y7359171D01*
X-97691683Y7067819D01*
X-97691683Y7067802D01*
X-97694999Y7034135D01*
X-97695000Y2965866D01*
X-99305000Y2965866D01*
X-99305000Y24721721D01*
X-92692795Y24721721D01*
X-92692795Y23478279D01*
X-92515835Y22247494D01*
X-92165517Y21054420D01*
X-91648972Y19923345D01*
X-90976717Y18877295D01*
X-90162436Y17937564D01*
X-89222705Y17123283D01*
X-88176655Y16451028D01*
X-87045580Y15934483D01*
X-85852506Y15584165D01*
X-84621721Y15407205D01*
X-83378279Y15407205D01*
X-82147494Y15584165D01*
X-80954420Y15934483D01*
X-79823345Y16451028D01*
X-78777295Y17123283D01*
X-77837564Y17937564D01*
X-77023283Y18877295D01*
X-76351028Y19923345D01*
X-75834483Y21054420D01*
X-75484165Y22247494D01*
X-75307205Y23478279D01*
X-75307205Y24721721D01*
X-24692795Y24721721D01*
X-24692795Y23478279D01*
X-24515835Y22247494D01*
X-24165517Y21054420D01*
X-23648972Y19923345D01*
X-22976717Y18877295D01*
X-22162436Y17937564D01*
X-21222705Y17123283D01*
X-20176655Y16451028D01*
X-19045580Y15934483D01*
X-17852506Y15584165D01*
X-16621721Y15407205D01*
X-15378279Y15407205D01*
X-14147494Y15584165D01*
X-12954420Y15934483D01*
X-11823345Y16451028D01*
X-10777295Y17123283D01*
X-9837564Y17937564D01*
X-9023283Y18877295D01*
X-8351028Y19923345D01*
X-7834483Y21054420D01*
X-7484165Y22247494D01*
X-7307205Y23478279D01*
X-7307205Y24721721D01*
X-7484165Y25952506D01*
X-7834483Y27145580D01*
X-8351028Y28276655D01*
X-9023283Y29322705D01*
X-9837564Y30262436D01*
X-10777295Y31076717D01*
X-11823345Y31748972D01*
X-12954420Y32265517D01*
X-14147494Y32615835D01*
X-15378279Y32792795D01*
X-16621721Y32792795D01*
X-17852506Y32615835D01*
X-19045580Y32265517D01*
X-20176655Y31748972D01*
X-21222705Y31076717D01*
X-22162436Y30262436D01*
X-22976717Y29322705D01*
X-23648972Y28276655D01*
X-24165517Y27145580D01*
X-24515835Y25952506D01*
X-24692795Y24721721D01*
X-75307205Y24721721D01*
X-75484165Y25952506D01*
X-75834483Y27145580D01*
X-76351028Y28276655D01*
X-77023283Y29322705D01*
X-77837564Y30262436D01*
X-78777295Y31076717D01*
X-79823345Y31748972D01*
X-80954420Y32265517D01*
X-82147494Y32615835D01*
X-83378279Y32792795D01*
X-84621721Y32792795D01*
X-85852506Y32615835D01*
X-87045580Y32265517D01*
X-88176655Y31748972D01*
X-89222705Y31076717D01*
X-90162436Y30262436D01*
X-90976717Y29322705D01*
X-91648972Y28276655D01*
X-92165517Y27145580D01*
X-92515835Y25952506D01*
X-92692795Y24721721D01*
X-99305000Y24721721D01*
X-99305000Y37966008D01*
X-99276877Y38252829D01*
X-99203451Y38496026D01*
X-99084186Y38720331D01*
X-98923625Y38917199D01*
X-98727883Y39079131D01*
X-98504420Y39199957D01*
X-98261736Y39275080D01*
X-97977071Y39305000D01*
X-2033992Y39305000D01*
X-1747171Y39276877D01*
M02*
