%TF.GenerationSoftware,KiCad,Pcbnew,(5.1.5)-3*%
%TF.CreationDate,2020-06-01T09:44:55+02:00*%
%TF.ProjectId,speaker_grill,73706561-6b65-4725-9f67-72696c6c2e6b,rev?*%
%TF.SameCoordinates,PXbebc200PY5f5e100*%
%TF.FileFunction,Other,Fab,Bot*%
%FSLAX46Y46*%
G04 Gerber Fmt 4.6, Leading zero omitted, Abs format (unit mm)*
G04 Created by KiCad (PCBNEW (5.1.5)-3) date 2020-06-01 09:44:55*
%MOMM*%
%LPD*%
G04 APERTURE LIST*
%ADD10C,0.100000*%
%ADD11C,0.150000*%
%ADD12C,0.060000*%
G04 APERTURE END LIST*
D10*
%TO.C,REF\002A\002A*%
X-41200000Y21000000D02*
G75*
G03X-41200000Y21000000I-1000000J0D01*
G01*
X-72400000Y10000000D02*
G75*
G03X-72400000Y10000000I-1000000J0D01*
G01*
%TO.C,J3*%
X-43892893Y21625000D02*
X-44600000Y21125000D01*
X-44600000Y22125000D02*
X-43892893Y21625000D01*
X-40800000Y17375000D02*
X-40800000Y18875000D01*
X-41400000Y17375000D02*
X-40800000Y17375000D01*
X-41600000Y17175000D02*
X-41400000Y17375000D01*
X-43400000Y17175000D02*
X-41600000Y17175000D01*
X-43600000Y17375000D02*
X-43400000Y17175000D01*
X-43600000Y18875000D02*
X-43600000Y17375000D01*
X-40800000Y24625000D02*
X-40800000Y23125000D01*
X-41400000Y24625000D02*
X-40800000Y24625000D01*
X-41600000Y24825000D02*
X-41400000Y24625000D01*
X-43400000Y24825000D02*
X-41600000Y24825000D01*
X-43600000Y24625000D02*
X-43400000Y24825000D01*
X-43600000Y23125000D02*
X-43600000Y24625000D01*
X-44600000Y18875000D02*
X-40400000Y18875000D01*
X-44600000Y23125000D02*
X-40400000Y23125000D01*
X-40400000Y23125000D02*
X-40400000Y18875000D01*
X-44600000Y23125000D02*
X-44600000Y18875000D01*
%TO.C,J2*%
X-56107107Y20375000D02*
X-55400000Y20875000D01*
X-55400000Y19875000D02*
X-56107107Y20375000D01*
X-59200000Y24625000D02*
X-59200000Y23125000D01*
X-58600000Y24625000D02*
X-59200000Y24625000D01*
X-58400000Y24825000D02*
X-58600000Y24625000D01*
X-56600000Y24825000D02*
X-58400000Y24825000D01*
X-56400000Y24625000D02*
X-56600000Y24825000D01*
X-56400000Y23125000D02*
X-56400000Y24625000D01*
X-59200000Y17375000D02*
X-59200000Y18875000D01*
X-58600000Y17375000D02*
X-59200000Y17375000D01*
X-58400000Y17175000D02*
X-58600000Y17375000D01*
X-56600000Y17175000D02*
X-58400000Y17175000D01*
X-56400000Y17375000D02*
X-56600000Y17175000D01*
X-56400000Y18875000D02*
X-56400000Y17375000D01*
X-55400000Y23125000D02*
X-59600000Y23125000D01*
X-55400000Y18875000D02*
X-59600000Y18875000D01*
X-59600000Y18875000D02*
X-59600000Y23125000D01*
X-55400000Y18875000D02*
X-55400000Y23125000D01*
%TO.C,J1*%
X-53920000Y30640000D02*
X-52540000Y30640000D01*
X-53920000Y31280000D02*
X-53920000Y30640000D01*
X-52540000Y31280000D02*
X-53920000Y31280000D01*
X-46080000Y30640000D02*
X-46080000Y31280000D01*
X-47460000Y30640000D02*
X-46080000Y30640000D01*
X-46080000Y31280000D02*
X-47460000Y31280000D01*
X-53920000Y33180000D02*
X-52540000Y33180000D01*
X-53920000Y33820000D02*
X-53920000Y33180000D01*
X-52540000Y33820000D02*
X-53920000Y33820000D01*
X-46080000Y33180000D02*
X-46080000Y33820000D01*
X-47460000Y33180000D02*
X-46080000Y33180000D01*
X-46080000Y33820000D02*
X-47460000Y33820000D01*
X-53920000Y35720000D02*
X-52540000Y35720000D01*
X-53920000Y36360000D02*
X-53920000Y35720000D01*
X-52540000Y36360000D02*
X-53920000Y36360000D01*
X-46080000Y35720000D02*
X-46080000Y36360000D01*
X-47460000Y35720000D02*
X-46080000Y35720000D01*
X-46080000Y36360000D02*
X-47460000Y36360000D01*
X-47460000Y29690000D02*
X-47460000Y37310000D01*
X-52540000Y29690000D02*
X-47460000Y29690000D01*
X-52540000Y36310000D02*
X-52540000Y29690000D01*
X-51540000Y37310000D02*
X-52540000Y36310000D01*
X-47460000Y37310000D02*
X-51540000Y37310000D01*
%TD*%
%TO.C,REF\002A\002A*%
D11*
X-33604762Y23071429D02*
X-33271429Y23071429D01*
X-33271429Y22547620D02*
X-33271429Y23547620D01*
X-33747620Y23547620D01*
X-34128572Y22547620D02*
X-34128572Y23214286D01*
X-34128572Y23547620D02*
X-34080953Y23500000D01*
X-34128572Y23452381D01*
X-34176191Y23500000D01*
X-34128572Y23547620D01*
X-34128572Y23452381D01*
X-35033334Y22547620D02*
X-35033334Y23547620D01*
X-35033334Y22595239D02*
X-34938096Y22547620D01*
X-34747620Y22547620D01*
X-34652381Y22595239D01*
X-34604762Y22642858D01*
X-34557143Y22738096D01*
X-34557143Y23023810D01*
X-34604762Y23119048D01*
X-34652381Y23166667D01*
X-34747620Y23214286D01*
X-34938096Y23214286D01*
X-35033334Y23166667D01*
X-35938096Y23214286D02*
X-35938096Y22547620D01*
X-35509524Y23214286D02*
X-35509524Y22690477D01*
X-35557143Y22595239D01*
X-35652381Y22547620D01*
X-35795239Y22547620D01*
X-35890477Y22595239D01*
X-35938096Y22642858D01*
X-36842858Y22595239D02*
X-36747620Y22547620D01*
X-36557143Y22547620D01*
X-36461905Y22595239D01*
X-36414286Y22642858D01*
X-36366667Y22738096D01*
X-36366667Y23023810D01*
X-36414286Y23119048D01*
X-36461905Y23166667D01*
X-36557143Y23214286D01*
X-36747620Y23214286D01*
X-36842858Y23166667D01*
X-37271429Y22547620D02*
X-37271429Y23214286D01*
X-37271429Y23547620D02*
X-37223810Y23500000D01*
X-37271429Y23452381D01*
X-37319048Y23500000D01*
X-37271429Y23547620D01*
X-37271429Y23452381D01*
X-38176191Y22547620D02*
X-38176191Y23071429D01*
X-38128572Y23166667D01*
X-38033334Y23214286D01*
X-37842858Y23214286D01*
X-37747620Y23166667D01*
X-38176191Y22595239D02*
X-38080953Y22547620D01*
X-37842858Y22547620D01*
X-37747620Y22595239D01*
X-37700000Y22690477D01*
X-37700000Y22785715D01*
X-37747620Y22880953D01*
X-37842858Y22928572D01*
X-38080953Y22928572D01*
X-38176191Y22976191D01*
X-38795239Y22547620D02*
X-38700000Y22595239D01*
X-38652381Y22690477D01*
X-38652381Y23547620D01*
X-38938096Y22452381D02*
X-39700000Y22452381D01*
X-40461905Y22547620D02*
X-39890477Y22547620D01*
X-40176191Y22547620D02*
X-40176191Y23547620D01*
X-40080953Y23404762D01*
X-39985715Y23309524D01*
X-39890477Y23261905D01*
X-40890477Y22547620D02*
X-40890477Y23214286D01*
X-40890477Y23119048D02*
X-40938096Y23166667D01*
X-41033334Y23214286D01*
X-41176191Y23214286D01*
X-41271429Y23166667D01*
X-41319048Y23071429D01*
X-41319048Y22547620D01*
X-41319048Y23071429D02*
X-41366667Y23166667D01*
X-41461905Y23214286D01*
X-41604762Y23214286D01*
X-41700000Y23166667D01*
X-41747620Y23071429D01*
X-41747620Y22547620D01*
X-42223810Y22547620D02*
X-42223810Y23214286D01*
X-42223810Y23119048D02*
X-42271429Y23166667D01*
X-42366667Y23214286D01*
X-42509524Y23214286D01*
X-42604762Y23166667D01*
X-42652381Y23071429D01*
X-42652381Y22547620D01*
X-42652381Y23071429D02*
X-42700000Y23166667D01*
X-42795239Y23214286D01*
X-42938096Y23214286D01*
X-43033334Y23166667D01*
X-43080953Y23071429D01*
X-43080953Y22547620D01*
X-43319048Y22452381D02*
X-44080953Y22452381D01*
X-44319048Y22547620D02*
X-44319048Y23547620D01*
X-44652381Y22833334D01*
X-44985715Y23547620D01*
X-44985715Y22547620D01*
X-45890477Y22547620D02*
X-45890477Y23071429D01*
X-45842858Y23166667D01*
X-45747620Y23214286D01*
X-45557143Y23214286D01*
X-45461905Y23166667D01*
X-45890477Y22595239D02*
X-45795239Y22547620D01*
X-45557143Y22547620D01*
X-45461905Y22595239D01*
X-45414286Y22690477D01*
X-45414286Y22785715D01*
X-45461905Y22880953D01*
X-45557143Y22928572D01*
X-45795239Y22928572D01*
X-45890477Y22976191D01*
X-46319048Y22595239D02*
X-46414286Y22547620D01*
X-46604762Y22547620D01*
X-46700000Y22595239D01*
X-46747620Y22690477D01*
X-46747620Y22738096D01*
X-46700000Y22833334D01*
X-46604762Y22880953D01*
X-46461905Y22880953D01*
X-46366667Y22928572D01*
X-46319048Y23023810D01*
X-46319048Y23071429D01*
X-46366667Y23166667D01*
X-46461905Y23214286D01*
X-46604762Y23214286D01*
X-46700000Y23166667D01*
X-47176191Y22547620D02*
X-47176191Y23547620D01*
X-47271429Y22928572D02*
X-47557143Y22547620D01*
X-47557143Y23214286D02*
X-47176191Y22833334D01*
X-47938096Y23452381D02*
X-47985715Y23500000D01*
X-48080953Y23547620D01*
X-48319048Y23547620D01*
X-48414286Y23500000D01*
X-48461905Y23452381D01*
X-48509524Y23357143D01*
X-48509524Y23261905D01*
X-48461905Y23119048D01*
X-47890477Y22547620D01*
X-48509524Y22547620D01*
X-48938096Y22547620D02*
X-48938096Y23214286D01*
X-48938096Y23119048D02*
X-48985715Y23166667D01*
X-49080953Y23214286D01*
X-49223810Y23214286D01*
X-49319048Y23166667D01*
X-49366667Y23071429D01*
X-49366667Y22547620D01*
X-49366667Y23071429D02*
X-49414286Y23166667D01*
X-49509524Y23214286D01*
X-49652381Y23214286D01*
X-49747620Y23166667D01*
X-49795239Y23071429D01*
X-49795239Y22547620D01*
X-50271429Y22547620D02*
X-50271429Y23214286D01*
X-50271429Y23119048D02*
X-50319048Y23166667D01*
X-50414286Y23214286D01*
X-50557143Y23214286D01*
X-50652381Y23166667D01*
X-50700000Y23071429D01*
X-50700000Y22547620D01*
X-50700000Y23071429D02*
X-50747620Y23166667D01*
X-50842858Y23214286D01*
X-50985715Y23214286D01*
X-51080953Y23166667D01*
X-51128572Y23071429D01*
X-51128572Y22547620D01*
D12*
X-41666667Y20819048D02*
X-41533334Y21009524D01*
X-41438096Y20819048D02*
X-41438096Y21219048D01*
X-41590477Y21219048D01*
X-41628572Y21200000D01*
X-41647620Y21180953D01*
X-41666667Y21142858D01*
X-41666667Y21085715D01*
X-41647620Y21047620D01*
X-41628572Y21028572D01*
X-41590477Y21009524D01*
X-41438096Y21009524D01*
X-41838096Y21028572D02*
X-41971429Y21028572D01*
X-42028572Y20819048D02*
X-41838096Y20819048D01*
X-41838096Y21219048D01*
X-42028572Y21219048D01*
X-42333334Y21028572D02*
X-42200000Y21028572D01*
X-42200000Y20819048D02*
X-42200000Y21219048D01*
X-42390477Y21219048D01*
X-42600000Y21219048D02*
X-42600000Y21123810D01*
X-42504762Y21161905D02*
X-42600000Y21123810D01*
X-42695239Y21161905D01*
X-42542858Y21047620D02*
X-42600000Y21123810D01*
X-42657143Y21047620D01*
X-42904762Y21219048D02*
X-42904762Y21123810D01*
X-42809524Y21161905D02*
X-42904762Y21123810D01*
X-43000000Y21161905D01*
X-42847620Y21047620D02*
X-42904762Y21123810D01*
X-42961905Y21047620D01*
D11*
X-64804762Y12071429D02*
X-64471429Y12071429D01*
X-64471429Y11547620D02*
X-64471429Y12547620D01*
X-64947620Y12547620D01*
X-65328572Y11547620D02*
X-65328572Y12214286D01*
X-65328572Y12547620D02*
X-65280953Y12500000D01*
X-65328572Y12452381D01*
X-65376191Y12500000D01*
X-65328572Y12547620D01*
X-65328572Y12452381D01*
X-66233334Y11547620D02*
X-66233334Y12547620D01*
X-66233334Y11595239D02*
X-66138096Y11547620D01*
X-65947620Y11547620D01*
X-65852381Y11595239D01*
X-65804762Y11642858D01*
X-65757143Y11738096D01*
X-65757143Y12023810D01*
X-65804762Y12119048D01*
X-65852381Y12166667D01*
X-65947620Y12214286D01*
X-66138096Y12214286D01*
X-66233334Y12166667D01*
X-67138096Y12214286D02*
X-67138096Y11547620D01*
X-66709524Y12214286D02*
X-66709524Y11690477D01*
X-66757143Y11595239D01*
X-66852381Y11547620D01*
X-66995239Y11547620D01*
X-67090477Y11595239D01*
X-67138096Y11642858D01*
X-68042858Y11595239D02*
X-67947620Y11547620D01*
X-67757143Y11547620D01*
X-67661905Y11595239D01*
X-67614286Y11642858D01*
X-67566667Y11738096D01*
X-67566667Y12023810D01*
X-67614286Y12119048D01*
X-67661905Y12166667D01*
X-67757143Y12214286D01*
X-67947620Y12214286D01*
X-68042858Y12166667D01*
X-68471429Y11547620D02*
X-68471429Y12214286D01*
X-68471429Y12547620D02*
X-68423810Y12500000D01*
X-68471429Y12452381D01*
X-68519048Y12500000D01*
X-68471429Y12547620D01*
X-68471429Y12452381D01*
X-69376191Y11547620D02*
X-69376191Y12071429D01*
X-69328572Y12166667D01*
X-69233334Y12214286D01*
X-69042858Y12214286D01*
X-68947620Y12166667D01*
X-69376191Y11595239D02*
X-69280953Y11547620D01*
X-69042858Y11547620D01*
X-68947620Y11595239D01*
X-68900000Y11690477D01*
X-68900000Y11785715D01*
X-68947620Y11880953D01*
X-69042858Y11928572D01*
X-69280953Y11928572D01*
X-69376191Y11976191D01*
X-69995239Y11547620D02*
X-69900000Y11595239D01*
X-69852381Y11690477D01*
X-69852381Y12547620D01*
X-70138096Y11452381D02*
X-70900000Y11452381D01*
X-71661905Y11547620D02*
X-71090477Y11547620D01*
X-71376191Y11547620D02*
X-71376191Y12547620D01*
X-71280953Y12404762D01*
X-71185715Y12309524D01*
X-71090477Y12261905D01*
X-72090477Y11547620D02*
X-72090477Y12214286D01*
X-72090477Y12119048D02*
X-72138096Y12166667D01*
X-72233334Y12214286D01*
X-72376191Y12214286D01*
X-72471429Y12166667D01*
X-72519048Y12071429D01*
X-72519048Y11547620D01*
X-72519048Y12071429D02*
X-72566667Y12166667D01*
X-72661905Y12214286D01*
X-72804762Y12214286D01*
X-72900000Y12166667D01*
X-72947620Y12071429D01*
X-72947620Y11547620D01*
X-73423810Y11547620D02*
X-73423810Y12214286D01*
X-73423810Y12119048D02*
X-73471429Y12166667D01*
X-73566667Y12214286D01*
X-73709524Y12214286D01*
X-73804762Y12166667D01*
X-73852381Y12071429D01*
X-73852381Y11547620D01*
X-73852381Y12071429D02*
X-73900000Y12166667D01*
X-73995239Y12214286D01*
X-74138096Y12214286D01*
X-74233334Y12166667D01*
X-74280953Y12071429D01*
X-74280953Y11547620D01*
X-74519048Y11452381D02*
X-75280953Y11452381D01*
X-75519048Y11547620D02*
X-75519048Y12547620D01*
X-75852381Y11833334D01*
X-76185715Y12547620D01*
X-76185715Y11547620D01*
X-77090477Y11547620D02*
X-77090477Y12071429D01*
X-77042858Y12166667D01*
X-76947620Y12214286D01*
X-76757143Y12214286D01*
X-76661905Y12166667D01*
X-77090477Y11595239D02*
X-76995239Y11547620D01*
X-76757143Y11547620D01*
X-76661905Y11595239D01*
X-76614286Y11690477D01*
X-76614286Y11785715D01*
X-76661905Y11880953D01*
X-76757143Y11928572D01*
X-76995239Y11928572D01*
X-77090477Y11976191D01*
X-77519048Y11595239D02*
X-77614286Y11547620D01*
X-77804762Y11547620D01*
X-77900000Y11595239D01*
X-77947620Y11690477D01*
X-77947620Y11738096D01*
X-77900000Y11833334D01*
X-77804762Y11880953D01*
X-77661905Y11880953D01*
X-77566667Y11928572D01*
X-77519048Y12023810D01*
X-77519048Y12071429D01*
X-77566667Y12166667D01*
X-77661905Y12214286D01*
X-77804762Y12214286D01*
X-77900000Y12166667D01*
X-78376191Y11547620D02*
X-78376191Y12547620D01*
X-78471429Y11928572D02*
X-78757143Y11547620D01*
X-78757143Y12214286D02*
X-78376191Y11833334D01*
X-79138096Y12452381D02*
X-79185715Y12500000D01*
X-79280953Y12547620D01*
X-79519048Y12547620D01*
X-79614286Y12500000D01*
X-79661905Y12452381D01*
X-79709524Y12357143D01*
X-79709524Y12261905D01*
X-79661905Y12119048D01*
X-79090477Y11547620D01*
X-79709524Y11547620D01*
X-80138096Y11547620D02*
X-80138096Y12214286D01*
X-80138096Y12119048D02*
X-80185715Y12166667D01*
X-80280953Y12214286D01*
X-80423810Y12214286D01*
X-80519048Y12166667D01*
X-80566667Y12071429D01*
X-80566667Y11547620D01*
X-80566667Y12071429D02*
X-80614286Y12166667D01*
X-80709524Y12214286D01*
X-80852381Y12214286D01*
X-80947620Y12166667D01*
X-80995239Y12071429D01*
X-80995239Y11547620D01*
X-81471429Y11547620D02*
X-81471429Y12214286D01*
X-81471429Y12119048D02*
X-81519048Y12166667D01*
X-81614286Y12214286D01*
X-81757143Y12214286D01*
X-81852381Y12166667D01*
X-81900000Y12071429D01*
X-81900000Y11547620D01*
X-81900000Y12071429D02*
X-81947620Y12166667D01*
X-82042858Y12214286D01*
X-82185715Y12214286D01*
X-82280953Y12166667D01*
X-82328572Y12071429D01*
X-82328572Y11547620D01*
D12*
X-72866667Y9819048D02*
X-72733334Y10009524D01*
X-72638096Y9819048D02*
X-72638096Y10219048D01*
X-72790477Y10219048D01*
X-72828572Y10200000D01*
X-72847620Y10180953D01*
X-72866667Y10142858D01*
X-72866667Y10085715D01*
X-72847620Y10047620D01*
X-72828572Y10028572D01*
X-72790477Y10009524D01*
X-72638096Y10009524D01*
X-73038096Y10028572D02*
X-73171429Y10028572D01*
X-73228572Y9819048D02*
X-73038096Y9819048D01*
X-73038096Y10219048D01*
X-73228572Y10219048D01*
X-73533334Y10028572D02*
X-73400000Y10028572D01*
X-73400000Y9819048D02*
X-73400000Y10219048D01*
X-73590477Y10219048D01*
X-73800000Y10219048D02*
X-73800000Y10123810D01*
X-73704762Y10161905D02*
X-73800000Y10123810D01*
X-73895239Y10161905D01*
X-73742858Y10047620D02*
X-73800000Y10123810D01*
X-73857143Y10047620D01*
X-74104762Y10219048D02*
X-74104762Y10123810D01*
X-74009524Y10161905D02*
X-74104762Y10123810D01*
X-74200000Y10161905D01*
X-74047620Y10047620D02*
X-74104762Y10123810D01*
X-74161905Y10047620D01*
%TO.C,J4*%
D11*
X-65814286Y17942858D02*
X-65766667Y17895239D01*
X-65623810Y17847620D01*
X-65528572Y17847620D01*
X-65385715Y17895239D01*
X-65290477Y17990477D01*
X-65242858Y18085715D01*
X-65195239Y18276191D01*
X-65195239Y18419048D01*
X-65242858Y18609524D01*
X-65290477Y18704762D01*
X-65385715Y18800000D01*
X-65528572Y18847620D01*
X-65623810Y18847620D01*
X-65766667Y18800000D01*
X-65814286Y18752381D01*
X-66385715Y17847620D02*
X-66290477Y17895239D01*
X-66242858Y17942858D01*
X-66195239Y18038096D01*
X-66195239Y18323810D01*
X-66242858Y18419048D01*
X-66290477Y18466667D01*
X-66385715Y18514286D01*
X-66528572Y18514286D01*
X-66623810Y18466667D01*
X-66671429Y18419048D01*
X-66719048Y18323810D01*
X-66719048Y18038096D01*
X-66671429Y17942858D01*
X-66623810Y17895239D01*
X-66528572Y17847620D01*
X-66385715Y17847620D01*
X-67147620Y18514286D02*
X-67147620Y17847620D01*
X-67147620Y18419048D02*
X-67195239Y18466667D01*
X-67290477Y18514286D01*
X-67433334Y18514286D01*
X-67528572Y18466667D01*
X-67576191Y18371429D01*
X-67576191Y17847620D01*
X-68052381Y18514286D02*
X-68052381Y17847620D01*
X-68052381Y18419048D02*
X-68100000Y18466667D01*
X-68195239Y18514286D01*
X-68338096Y18514286D01*
X-68433334Y18466667D01*
X-68480953Y18371429D01*
X-68480953Y17847620D01*
X-68719048Y17752381D02*
X-69480953Y17752381D01*
X-69909524Y18847620D02*
X-70004762Y18847620D01*
X-70100000Y18800000D01*
X-70147620Y18752381D01*
X-70195239Y18657143D01*
X-70242858Y18466667D01*
X-70242858Y18228572D01*
X-70195239Y18038096D01*
X-70147620Y17942858D01*
X-70100000Y17895239D01*
X-70004762Y17847620D01*
X-69909524Y17847620D01*
X-69814286Y17895239D01*
X-69766667Y17942858D01*
X-69719048Y18038096D01*
X-69671429Y18228572D01*
X-69671429Y18466667D01*
X-69719048Y18657143D01*
X-69766667Y18752381D01*
X-69814286Y18800000D01*
X-69909524Y18847620D01*
X-71195239Y17847620D02*
X-70623810Y17847620D01*
X-70909524Y17847620D02*
X-70909524Y18847620D01*
X-70814286Y18704762D01*
X-70719048Y18609524D01*
X-70623810Y18561905D01*
X-71528572Y17847620D02*
X-72052381Y18514286D01*
X-71528572Y18514286D02*
X-72052381Y17847620D01*
X-72623810Y18847620D02*
X-72719048Y18847620D01*
X-72814286Y18800000D01*
X-72861905Y18752381D01*
X-72909524Y18657143D01*
X-72957143Y18466667D01*
X-72957143Y18228572D01*
X-72909524Y18038096D01*
X-72861905Y17942858D01*
X-72814286Y17895239D01*
X-72719048Y17847620D01*
X-72623810Y17847620D01*
X-72528572Y17895239D01*
X-72480953Y17942858D01*
X-72433334Y18038096D01*
X-72385715Y18228572D01*
X-72385715Y18466667D01*
X-72433334Y18657143D01*
X-72480953Y18752381D01*
X-72528572Y18800000D01*
X-72623810Y18847620D01*
X-73528572Y18419048D02*
X-73433334Y18466667D01*
X-73385715Y18514286D01*
X-73338096Y18609524D01*
X-73338096Y18657143D01*
X-73385715Y18752381D01*
X-73433334Y18800000D01*
X-73528572Y18847620D01*
X-73719048Y18847620D01*
X-73814286Y18800000D01*
X-73861905Y18752381D01*
X-73909524Y18657143D01*
X-73909524Y18609524D01*
X-73861905Y18514286D01*
X-73814286Y18466667D01*
X-73719048Y18419048D01*
X-73528572Y18419048D01*
X-73433334Y18371429D01*
X-73385715Y18323810D01*
X-73338096Y18228572D01*
X-73338096Y18038096D01*
X-73385715Y17942858D01*
X-73433334Y17895239D01*
X-73528572Y17847620D01*
X-73719048Y17847620D01*
X-73814286Y17895239D01*
X-73861905Y17942858D01*
X-73909524Y18038096D01*
X-73909524Y18228572D01*
X-73861905Y18323810D01*
X-73814286Y18371429D01*
X-73719048Y18419048D01*
X-74100000Y17752381D02*
X-74861905Y17752381D01*
X-75433334Y18371429D02*
X-75100000Y18371429D01*
X-75100000Y17847620D02*
X-75100000Y18847620D01*
X-75576191Y18847620D01*
X-76338096Y17895239D02*
X-76242858Y17847620D01*
X-76052381Y17847620D01*
X-75957143Y17895239D01*
X-75909524Y17990477D01*
X-75909524Y18371429D01*
X-75957143Y18466667D01*
X-76052381Y18514286D01*
X-76242858Y18514286D01*
X-76338096Y18466667D01*
X-76385715Y18371429D01*
X-76385715Y18276191D01*
X-75909524Y18180953D01*
X-76814286Y17847620D02*
X-76814286Y18514286D01*
X-76814286Y18419048D02*
X-76861905Y18466667D01*
X-76957143Y18514286D01*
X-77100000Y18514286D01*
X-77195239Y18466667D01*
X-77242858Y18371429D01*
X-77242858Y17847620D01*
X-77242858Y18371429D02*
X-77290477Y18466667D01*
X-77385715Y18514286D01*
X-77528572Y18514286D01*
X-77623810Y18466667D01*
X-77671429Y18371429D01*
X-77671429Y17847620D01*
X-78576191Y17847620D02*
X-78576191Y18371429D01*
X-78528572Y18466667D01*
X-78433334Y18514286D01*
X-78242858Y18514286D01*
X-78147620Y18466667D01*
X-78576191Y17895239D02*
X-78480953Y17847620D01*
X-78242858Y17847620D01*
X-78147620Y17895239D01*
X-78100000Y17990477D01*
X-78100000Y18085715D01*
X-78147620Y18180953D01*
X-78242858Y18228572D01*
X-78480953Y18228572D01*
X-78576191Y18276191D01*
X-79195239Y17847620D02*
X-79100000Y17895239D01*
X-79052381Y17990477D01*
X-79052381Y18847620D01*
X-79957143Y17895239D02*
X-79861905Y17847620D01*
X-79671429Y17847620D01*
X-79576191Y17895239D01*
X-79528572Y17990477D01*
X-79528572Y18371429D01*
X-79576191Y18466667D01*
X-79671429Y18514286D01*
X-79861905Y18514286D01*
X-79957143Y18466667D01*
X-80004762Y18371429D01*
X-80004762Y18276191D01*
X-79528572Y18180953D01*
%TO.C,J3*%
X-38842858Y27785715D02*
X-38795239Y27833334D01*
X-38747620Y27976191D01*
X-38747620Y28071429D01*
X-38795239Y28214286D01*
X-38890477Y28309524D01*
X-38985715Y28357143D01*
X-39176191Y28404762D01*
X-39319048Y28404762D01*
X-39509524Y28357143D01*
X-39604762Y28309524D01*
X-39700000Y28214286D01*
X-39747620Y28071429D01*
X-39747620Y27976191D01*
X-39700000Y27833334D01*
X-39652381Y27785715D01*
X-38747620Y27214286D02*
X-38795239Y27309524D01*
X-38842858Y27357143D01*
X-38938096Y27404762D01*
X-39223810Y27404762D01*
X-39319048Y27357143D01*
X-39366667Y27309524D01*
X-39414286Y27214286D01*
X-39414286Y27071429D01*
X-39366667Y26976191D01*
X-39319048Y26928572D01*
X-39223810Y26880953D01*
X-38938096Y26880953D01*
X-38842858Y26928572D01*
X-38795239Y26976191D01*
X-38747620Y27071429D01*
X-38747620Y27214286D01*
X-39414286Y26452381D02*
X-38747620Y26452381D01*
X-39319048Y26452381D02*
X-39366667Y26404762D01*
X-39414286Y26309524D01*
X-39414286Y26166667D01*
X-39366667Y26071429D01*
X-39271429Y26023810D01*
X-38747620Y26023810D01*
X-39414286Y25547620D02*
X-38747620Y25547620D01*
X-39319048Y25547620D02*
X-39366667Y25500000D01*
X-39414286Y25404762D01*
X-39414286Y25261905D01*
X-39366667Y25166667D01*
X-39271429Y25119048D01*
X-38747620Y25119048D01*
X-38652381Y24880953D02*
X-38652381Y24119048D01*
X-39747620Y23690477D02*
X-39747620Y23595239D01*
X-39700000Y23500000D01*
X-39652381Y23452381D01*
X-39557143Y23404762D01*
X-39366667Y23357143D01*
X-39128572Y23357143D01*
X-38938096Y23404762D01*
X-38842858Y23452381D01*
X-38795239Y23500000D01*
X-38747620Y23595239D01*
X-38747620Y23690477D01*
X-38795239Y23785715D01*
X-38842858Y23833334D01*
X-38938096Y23880953D01*
X-39128572Y23928572D01*
X-39366667Y23928572D01*
X-39557143Y23880953D01*
X-39652381Y23833334D01*
X-39700000Y23785715D01*
X-39747620Y23690477D01*
X-38747620Y22404762D02*
X-38747620Y22976191D01*
X-38747620Y22690477D02*
X-39747620Y22690477D01*
X-39604762Y22785715D01*
X-39509524Y22880953D01*
X-39461905Y22976191D01*
X-38747620Y22071429D02*
X-39414286Y21547620D01*
X-39414286Y22071429D02*
X-38747620Y21547620D01*
X-39747620Y20976191D02*
X-39747620Y20880953D01*
X-39700000Y20785715D01*
X-39652381Y20738096D01*
X-39557143Y20690477D01*
X-39366667Y20642858D01*
X-39128572Y20642858D01*
X-38938096Y20690477D01*
X-38842858Y20738096D01*
X-38795239Y20785715D01*
X-38747620Y20880953D01*
X-38747620Y20976191D01*
X-38795239Y21071429D01*
X-38842858Y21119048D01*
X-38938096Y21166667D01*
X-39128572Y21214286D01*
X-39366667Y21214286D01*
X-39557143Y21166667D01*
X-39652381Y21119048D01*
X-39700000Y21071429D01*
X-39747620Y20976191D01*
X-39652381Y20261905D02*
X-39700000Y20214286D01*
X-39747620Y20119048D01*
X-39747620Y19880953D01*
X-39700000Y19785715D01*
X-39652381Y19738096D01*
X-39557143Y19690477D01*
X-39461905Y19690477D01*
X-39319048Y19738096D01*
X-38747620Y20309524D01*
X-38747620Y19690477D01*
X-38652381Y19500000D02*
X-38652381Y18738096D01*
X-39271429Y18166667D02*
X-39271429Y18500000D01*
X-38747620Y18500000D02*
X-39747620Y18500000D01*
X-39747620Y18023810D01*
X-38795239Y17261905D02*
X-38747620Y17357143D01*
X-38747620Y17547620D01*
X-38795239Y17642858D01*
X-38890477Y17690477D01*
X-39271429Y17690477D01*
X-39366667Y17642858D01*
X-39414286Y17547620D01*
X-39414286Y17357143D01*
X-39366667Y17261905D01*
X-39271429Y17214286D01*
X-39176191Y17214286D01*
X-39080953Y17690477D01*
X-38747620Y16785715D02*
X-39414286Y16785715D01*
X-39319048Y16785715D02*
X-39366667Y16738096D01*
X-39414286Y16642858D01*
X-39414286Y16500000D01*
X-39366667Y16404762D01*
X-39271429Y16357143D01*
X-38747620Y16357143D01*
X-39271429Y16357143D02*
X-39366667Y16309524D01*
X-39414286Y16214286D01*
X-39414286Y16071429D01*
X-39366667Y15976191D01*
X-39271429Y15928572D01*
X-38747620Y15928572D01*
X-38747620Y15023810D02*
X-39271429Y15023810D01*
X-39366667Y15071429D01*
X-39414286Y15166667D01*
X-39414286Y15357143D01*
X-39366667Y15452381D01*
X-38795239Y15023810D02*
X-38747620Y15119048D01*
X-38747620Y15357143D01*
X-38795239Y15452381D01*
X-38890477Y15500000D01*
X-38985715Y15500000D01*
X-39080953Y15452381D01*
X-39128572Y15357143D01*
X-39128572Y15119048D01*
X-39176191Y15023810D01*
X-38747620Y14404762D02*
X-38795239Y14500000D01*
X-38890477Y14547620D01*
X-39747620Y14547620D01*
X-38795239Y13642858D02*
X-38747620Y13738096D01*
X-38747620Y13928572D01*
X-38795239Y14023810D01*
X-38890477Y14071429D01*
X-39271429Y14071429D01*
X-39366667Y14023810D01*
X-39414286Y13928572D01*
X-39414286Y13738096D01*
X-39366667Y13642858D01*
X-39271429Y13595239D01*
X-39176191Y13595239D01*
X-39080953Y14071429D01*
X-41647620Y21333334D02*
X-40933334Y21333334D01*
X-40790477Y21380953D01*
X-40695239Y21476191D01*
X-40647620Y21619048D01*
X-40647620Y21714286D01*
X-41647620Y20952381D02*
X-41647620Y20333334D01*
X-41266667Y20666667D01*
X-41266667Y20523810D01*
X-41219048Y20428572D01*
X-41171429Y20380953D01*
X-41076191Y20333334D01*
X-40838096Y20333334D01*
X-40742858Y20380953D01*
X-40695239Y20428572D01*
X-40647620Y20523810D01*
X-40647620Y20809524D01*
X-40695239Y20904762D01*
X-40742858Y20952381D01*
%TO.C,J2*%
X-60442858Y27785715D02*
X-60395239Y27833334D01*
X-60347620Y27976191D01*
X-60347620Y28071429D01*
X-60395239Y28214286D01*
X-60490477Y28309524D01*
X-60585715Y28357143D01*
X-60776191Y28404762D01*
X-60919048Y28404762D01*
X-61109524Y28357143D01*
X-61204762Y28309524D01*
X-61300000Y28214286D01*
X-61347620Y28071429D01*
X-61347620Y27976191D01*
X-61300000Y27833334D01*
X-61252381Y27785715D01*
X-60347620Y27214286D02*
X-60395239Y27309524D01*
X-60442858Y27357143D01*
X-60538096Y27404762D01*
X-60823810Y27404762D01*
X-60919048Y27357143D01*
X-60966667Y27309524D01*
X-61014286Y27214286D01*
X-61014286Y27071429D01*
X-60966667Y26976191D01*
X-60919048Y26928572D01*
X-60823810Y26880953D01*
X-60538096Y26880953D01*
X-60442858Y26928572D01*
X-60395239Y26976191D01*
X-60347620Y27071429D01*
X-60347620Y27214286D01*
X-61014286Y26452381D02*
X-60347620Y26452381D01*
X-60919048Y26452381D02*
X-60966667Y26404762D01*
X-61014286Y26309524D01*
X-61014286Y26166667D01*
X-60966667Y26071429D01*
X-60871429Y26023810D01*
X-60347620Y26023810D01*
X-61014286Y25547620D02*
X-60347620Y25547620D01*
X-60919048Y25547620D02*
X-60966667Y25500000D01*
X-61014286Y25404762D01*
X-61014286Y25261905D01*
X-60966667Y25166667D01*
X-60871429Y25119048D01*
X-60347620Y25119048D01*
X-60252381Y24880953D02*
X-60252381Y24119048D01*
X-61347620Y23690477D02*
X-61347620Y23595239D01*
X-61300000Y23500000D01*
X-61252381Y23452381D01*
X-61157143Y23404762D01*
X-60966667Y23357143D01*
X-60728572Y23357143D01*
X-60538096Y23404762D01*
X-60442858Y23452381D01*
X-60395239Y23500000D01*
X-60347620Y23595239D01*
X-60347620Y23690477D01*
X-60395239Y23785715D01*
X-60442858Y23833334D01*
X-60538096Y23880953D01*
X-60728572Y23928572D01*
X-60966667Y23928572D01*
X-61157143Y23880953D01*
X-61252381Y23833334D01*
X-61300000Y23785715D01*
X-61347620Y23690477D01*
X-60347620Y22404762D02*
X-60347620Y22976191D01*
X-60347620Y22690477D02*
X-61347620Y22690477D01*
X-61204762Y22785715D01*
X-61109524Y22880953D01*
X-61061905Y22976191D01*
X-60347620Y22071429D02*
X-61014286Y21547620D01*
X-61014286Y22071429D02*
X-60347620Y21547620D01*
X-61347620Y20976191D02*
X-61347620Y20880953D01*
X-61300000Y20785715D01*
X-61252381Y20738096D01*
X-61157143Y20690477D01*
X-60966667Y20642858D01*
X-60728572Y20642858D01*
X-60538096Y20690477D01*
X-60442858Y20738096D01*
X-60395239Y20785715D01*
X-60347620Y20880953D01*
X-60347620Y20976191D01*
X-60395239Y21071429D01*
X-60442858Y21119048D01*
X-60538096Y21166667D01*
X-60728572Y21214286D01*
X-60966667Y21214286D01*
X-61157143Y21166667D01*
X-61252381Y21119048D01*
X-61300000Y21071429D01*
X-61347620Y20976191D01*
X-61252381Y20261905D02*
X-61300000Y20214286D01*
X-61347620Y20119048D01*
X-61347620Y19880953D01*
X-61300000Y19785715D01*
X-61252381Y19738096D01*
X-61157143Y19690477D01*
X-61061905Y19690477D01*
X-60919048Y19738096D01*
X-60347620Y20309524D01*
X-60347620Y19690477D01*
X-60252381Y19500000D02*
X-60252381Y18738096D01*
X-60871429Y18166667D02*
X-60871429Y18500000D01*
X-60347620Y18500000D02*
X-61347620Y18500000D01*
X-61347620Y18023810D01*
X-60395239Y17261905D02*
X-60347620Y17357143D01*
X-60347620Y17547620D01*
X-60395239Y17642858D01*
X-60490477Y17690477D01*
X-60871429Y17690477D01*
X-60966667Y17642858D01*
X-61014286Y17547620D01*
X-61014286Y17357143D01*
X-60966667Y17261905D01*
X-60871429Y17214286D01*
X-60776191Y17214286D01*
X-60680953Y17690477D01*
X-60347620Y16785715D02*
X-61014286Y16785715D01*
X-60919048Y16785715D02*
X-60966667Y16738096D01*
X-61014286Y16642858D01*
X-61014286Y16500000D01*
X-60966667Y16404762D01*
X-60871429Y16357143D01*
X-60347620Y16357143D01*
X-60871429Y16357143D02*
X-60966667Y16309524D01*
X-61014286Y16214286D01*
X-61014286Y16071429D01*
X-60966667Y15976191D01*
X-60871429Y15928572D01*
X-60347620Y15928572D01*
X-60347620Y15023810D02*
X-60871429Y15023810D01*
X-60966667Y15071429D01*
X-61014286Y15166667D01*
X-61014286Y15357143D01*
X-60966667Y15452381D01*
X-60395239Y15023810D02*
X-60347620Y15119048D01*
X-60347620Y15357143D01*
X-60395239Y15452381D01*
X-60490477Y15500001D01*
X-60585715Y15500001D01*
X-60680953Y15452381D01*
X-60728572Y15357143D01*
X-60728572Y15119048D01*
X-60776191Y15023810D01*
X-60347620Y14404762D02*
X-60395239Y14500001D01*
X-60490477Y14547620D01*
X-61347620Y14547620D01*
X-60395239Y13642858D02*
X-60347620Y13738096D01*
X-60347620Y13928572D01*
X-60395239Y14023810D01*
X-60490477Y14071429D01*
X-60871429Y14071429D01*
X-60966667Y14023810D01*
X-61014286Y13928572D01*
X-61014286Y13738096D01*
X-60966667Y13642858D01*
X-60871429Y13595239D01*
X-60776191Y13595239D01*
X-60680953Y14071429D01*
X-59447620Y21333334D02*
X-58733334Y21333334D01*
X-58590477Y21380953D01*
X-58495239Y21476191D01*
X-58447620Y21619048D01*
X-58447620Y21714286D01*
X-59352381Y20904762D02*
X-59400000Y20857143D01*
X-59447620Y20761905D01*
X-59447620Y20523810D01*
X-59400000Y20428572D01*
X-59352381Y20380953D01*
X-59257143Y20333334D01*
X-59161905Y20333334D01*
X-59019048Y20380953D01*
X-58447620Y20952381D01*
X-58447620Y20333334D01*
%TO.C,J1*%
X-42357143Y27832858D02*
X-42309524Y27785239D01*
X-42166667Y27737620D01*
X-42071429Y27737620D01*
X-41928572Y27785239D01*
X-41833334Y27880477D01*
X-41785715Y27975715D01*
X-41738096Y28166191D01*
X-41738096Y28309048D01*
X-41785715Y28499524D01*
X-41833334Y28594762D01*
X-41928572Y28690000D01*
X-42071429Y28737620D01*
X-42166667Y28737620D01*
X-42309524Y28690000D01*
X-42357143Y28642381D01*
X-42928572Y27737620D02*
X-42833334Y27785239D01*
X-42785715Y27832858D01*
X-42738096Y27928096D01*
X-42738096Y28213810D01*
X-42785715Y28309048D01*
X-42833334Y28356667D01*
X-42928572Y28404286D01*
X-43071429Y28404286D01*
X-43166667Y28356667D01*
X-43214286Y28309048D01*
X-43261905Y28213810D01*
X-43261905Y27928096D01*
X-43214286Y27832858D01*
X-43166667Y27785239D01*
X-43071429Y27737620D01*
X-42928572Y27737620D01*
X-43690477Y28404286D02*
X-43690477Y27737620D01*
X-43690477Y28309048D02*
X-43738096Y28356667D01*
X-43833334Y28404286D01*
X-43976191Y28404286D01*
X-44071429Y28356667D01*
X-44119048Y28261429D01*
X-44119048Y27737620D01*
X-44595239Y28404286D02*
X-44595239Y27737620D01*
X-44595239Y28309048D02*
X-44642858Y28356667D01*
X-44738096Y28404286D01*
X-44880953Y28404286D01*
X-44976191Y28356667D01*
X-45023810Y28261429D01*
X-45023810Y27737620D01*
X-45261905Y27642381D02*
X-46023810Y27642381D01*
X-46452381Y28737620D02*
X-46547620Y28737620D01*
X-46642858Y28690000D01*
X-46690477Y28642381D01*
X-46738096Y28547143D01*
X-46785715Y28356667D01*
X-46785715Y28118572D01*
X-46738096Y27928096D01*
X-46690477Y27832858D01*
X-46642858Y27785239D01*
X-46547620Y27737620D01*
X-46452381Y27737620D01*
X-46357143Y27785239D01*
X-46309524Y27832858D01*
X-46261905Y27928096D01*
X-46214286Y28118572D01*
X-46214286Y28356667D01*
X-46261905Y28547143D01*
X-46309524Y28642381D01*
X-46357143Y28690000D01*
X-46452381Y28737620D01*
X-47166667Y28642381D02*
X-47214286Y28690000D01*
X-47309524Y28737620D01*
X-47547620Y28737620D01*
X-47642858Y28690000D01*
X-47690477Y28642381D01*
X-47738096Y28547143D01*
X-47738096Y28451905D01*
X-47690477Y28309048D01*
X-47119048Y27737620D01*
X-47738096Y27737620D01*
X-48071429Y27737620D02*
X-48595239Y28404286D01*
X-48071429Y28404286D02*
X-48595239Y27737620D01*
X-49166667Y28737620D02*
X-49261905Y28737620D01*
X-49357143Y28690000D01*
X-49404762Y28642381D01*
X-49452381Y28547143D01*
X-49500000Y28356667D01*
X-49500000Y28118572D01*
X-49452381Y27928096D01*
X-49404762Y27832858D01*
X-49357143Y27785239D01*
X-49261905Y27737620D01*
X-49166667Y27737620D01*
X-49071429Y27785239D01*
X-49023810Y27832858D01*
X-48976191Y27928096D01*
X-48928572Y28118572D01*
X-48928572Y28356667D01*
X-48976191Y28547143D01*
X-49023810Y28642381D01*
X-49071429Y28690000D01*
X-49166667Y28737620D01*
X-49833334Y28737620D02*
X-50452381Y28737620D01*
X-50119048Y28356667D01*
X-50261905Y28356667D01*
X-50357143Y28309048D01*
X-50404762Y28261429D01*
X-50452381Y28166191D01*
X-50452381Y27928096D01*
X-50404762Y27832858D01*
X-50357143Y27785239D01*
X-50261905Y27737620D01*
X-49976191Y27737620D01*
X-49880953Y27785239D01*
X-49833334Y27832858D01*
X-50642858Y27642381D02*
X-51404762Y27642381D01*
X-51833334Y28737620D02*
X-52023810Y28737620D01*
X-52119048Y28690000D01*
X-52214286Y28594762D01*
X-52261905Y28404286D01*
X-52261905Y28070953D01*
X-52214286Y27880477D01*
X-52119048Y27785239D01*
X-52023810Y27737620D01*
X-51833334Y27737620D01*
X-51738096Y27785239D01*
X-51642858Y27880477D01*
X-51595239Y28070953D01*
X-51595239Y28404286D01*
X-51642858Y28594762D01*
X-51738096Y28690000D01*
X-51833334Y28737620D01*
X-53119048Y27737620D02*
X-53119048Y28737620D01*
X-53119048Y27785239D02*
X-53023810Y27737620D01*
X-52833334Y27737620D01*
X-52738096Y27785239D01*
X-52690477Y27832858D01*
X-52642858Y27928096D01*
X-52642858Y28213810D01*
X-52690477Y28309048D01*
X-52738096Y28356667D01*
X-52833334Y28404286D01*
X-53023810Y28404286D01*
X-53119048Y28356667D01*
X-54023810Y27737620D02*
X-54023810Y28737620D01*
X-54023810Y27785239D02*
X-53928572Y27737620D01*
X-53738096Y27737620D01*
X-53642858Y27785239D01*
X-53595239Y27832858D01*
X-53547620Y27928096D01*
X-53547620Y28213810D01*
X-53595239Y28309048D01*
X-53642858Y28356667D01*
X-53738096Y28404286D01*
X-53928572Y28404286D01*
X-54023810Y28356667D01*
X-54261905Y27642381D02*
X-55023810Y27642381D01*
X-55261905Y28261429D02*
X-55595239Y28261429D01*
X-55738096Y27737620D02*
X-55261905Y27737620D01*
X-55261905Y28737620D01*
X-55738096Y28737620D01*
X-56071429Y28404286D02*
X-56309524Y27737620D01*
X-56547620Y28404286D01*
X-57309524Y27785239D02*
X-57214286Y27737620D01*
X-57023810Y27737620D01*
X-56928572Y27785239D01*
X-56880953Y27880477D01*
X-56880953Y28261429D01*
X-56928572Y28356667D01*
X-57023810Y28404286D01*
X-57214286Y28404286D01*
X-57309524Y28356667D01*
X-57357143Y28261429D01*
X-57357143Y28166191D01*
X-56880953Y28070953D01*
X-57785715Y28404286D02*
X-57785715Y27737620D01*
X-57785715Y28309048D02*
X-57833334Y28356667D01*
X-57928572Y28404286D01*
X-58071429Y28404286D01*
X-58166667Y28356667D01*
X-58214286Y28261429D01*
X-58214286Y27737620D01*
X-50547620Y33833334D02*
X-49833334Y33833334D01*
X-49690477Y33880953D01*
X-49595239Y33976191D01*
X-49547620Y34119048D01*
X-49547620Y34214286D01*
X-49547620Y32833334D02*
X-49547620Y33404762D01*
X-49547620Y33119048D02*
X-50547620Y33119048D01*
X-50404762Y33214286D01*
X-50309524Y33309524D01*
X-50261905Y33404762D01*
%TD*%
M02*
