%TF.GenerationSoftware,KiCad,Pcbnew,(5.1.5)-3*%
%TF.CreationDate,2020-06-01T09:44:54+02:00*%
%TF.ProjectId,speaker_grill,73706561-6b65-4725-9f67-72696c6c2e6b,rev?*%
%TF.SameCoordinates,PXbebc200PY5f5e100*%
%TF.FileFunction,Profile,NP*%
%FSLAX46Y46*%
G04 Gerber Fmt 4.6, Leading zero omitted, Abs format (unit mm)*
G04 Created by KiCad (PCBNEW (5.1.5)-3) date 2020-06-01 09:44:54*
%MOMM*%
%LPD*%
G04 APERTURE LIST*
%TA.AperFunction,Profile*%
%ADD10C,0.120000*%
%TD*%
G04 APERTURE END LIST*
D10*
X-8000000Y24100000D02*
G75*
G03X-8000000Y24100000I-8000000J0D01*
G01*
X-76000000Y24100000D02*
G75*
G03X-76000000Y24100000I-8000000J0D01*
G01*
X-3000000Y3000000D02*
X-3000000Y7000000D01*
X-3000000Y3000000D02*
G75*
G02X-6000000Y3000000I-1500000J0D01*
G01*
X-6000000Y7000000D02*
G75*
G02X-3000000Y7000000I1500000J0D01*
G01*
X-6000000Y3000000D02*
X-6000000Y7000000D01*
X-94000000Y3000000D02*
X-94000000Y7000000D01*
X-94000000Y3000000D02*
G75*
G02X-97000000Y3000000I-1500000J0D01*
G01*
X-97000000Y7000000D02*
G75*
G02X-94000000Y7000000I1500000J0D01*
G01*
X-97000000Y3000000D02*
X-97000000Y7000000D01*
X-17600000Y3000000D02*
X-9200000Y3000000D01*
X-9200000Y3000000D02*
G75*
G02X-7200000Y1000000I0J-2000000D01*
G01*
X-7200000Y0D02*
X-7200000Y1000000D01*
X-19600000Y1000000D02*
G75*
G02X-17600000Y3000000I2000000J0D01*
G01*
X-19600000Y0D02*
X-19600000Y1000000D01*
X-19600000Y0D02*
X-100000000Y0D01*
X0Y0D02*
X-7200000Y0D01*
X-2000000Y40000000D02*
G75*
G02X0Y38000000I0J-2000000D01*
G01*
X-100000000Y38000000D02*
G75*
G02X-98000000Y40000000I2000000J0D01*
G01*
X0Y38000000D02*
X0Y0D01*
X-98000000Y40000000D02*
X-2000000Y40000000D01*
X-100000000Y0D02*
X-100000000Y38000000D01*
M02*
