M48
; DRILL file {KiCad (5.1.4-0-10_14)} date 2020 March 20, Friday 12:08:53
; FORMAT={-:-/ absolute / metric / decimal}
; #@! TF.CreationDate,2020-03-20T12:08:53+01:00
; #@! TF.GenerationSoftware,Kicad,Pcbnew,(5.1.4-0-10_14)
; #@! TF.FileFunction,Plated,1,2,PTH
FMAT,2
METRIC
T1C0.300
T2C0.400
%
G90
G05
T1
X1.25Y80.65
X1.3Y83.3
X2.5Y82.05
X2.5Y75.4
X4.4Y73.75
X5.8Y75.35
X7.85Y102.95
X8.49Y101.71
X8.91Y100.39
X9.8Y87.8
X9.8Y63.2
X9.8Y38.2
X9.8Y13.2
X9.9Y75.95
X10.2Y72.15
X12.1Y104.45
X12.4Y86.8
X12.4Y61.8
X12.4Y36.8
X12.4Y11.8
X13.4Y72.05
X13.6Y98.6
X13.8Y99.6
X13.8Y97.6
X14.0Y108.2
X14.8Y99.6
X14.8Y97.6
X14.8Y11.8
X15.0Y98.6
X15.0Y86.4
X15.0Y61.8
X15.0Y36.8
X15.5Y107.35
X15.6Y95.8
X15.7Y101.1
X15.775Y13.25
X15.8Y63.225
X15.85Y88.7
X15.85Y38.1
X16.2Y99.6
X16.2Y98.6
X16.2Y97.6
X16.8Y96.8
X17.4Y99.6
X17.4Y98.8
X17.4Y97.6
X17.8Y96.0
X17.9Y78.75
X17.95Y101.05
X18.0Y108.25
X18.1Y100.2
X18.8Y98.2
X18.8Y97.6
X18.942Y24.416
X19.4Y96.2
X19.8Y97.6
X19.95Y101.1
X19.95Y100.3
X20.3Y54.85
X20.45Y107.85
X21.228Y65.691
X21.228Y41.434
X21.228Y39.91
X21.277Y64.043
X21.6Y96.785
X22.2Y100.2
X22.244Y41.434
X22.244Y39.91
X22.4Y96.785
X22.4Y94.1
X22.6Y80.4
X22.6Y67.6
X22.6Y30.7
X22.6Y17.9
X23.0Y91.4
X23.514Y64.241
X23.65Y108.05
X23.768Y65.818
X23.8Y98.615
X24.0Y100.95
X24.0Y99.6
X24.0Y96.4
X24.5Y73.0
X25.0Y99.6
X25.0Y98.615
X25.0Y96.785
X25.5Y82.25
X25.875Y78.65
X26.1Y76.8
X26.275Y72.2
X26.4Y99.6
X26.4Y98.8
X26.6Y96.4
X27.0Y100.95
X27.324Y41.434
X27.324Y39.91
X27.4Y99.6
X27.4Y96.785
X27.4Y67.5
X27.4Y30.8
X27.4Y17.9
X27.414Y54.864
X27.6Y98.8
X28.2Y65.818
X28.2Y63.786
X28.34Y41.434
X28.34Y39.91
X29.0Y99.6
X29.0Y98.8
X29.0Y96.785
X29.356Y20.098
X30.0Y99.6
X30.0Y98.8
X30.0Y96.785
X30.15Y100.95
X30.8Y93.4
X31.6Y99.6
X31.6Y98.8
X31.6Y96.785
X32.4Y99.6
X32.404Y25.94
X32.6Y98.8
X32.6Y96.785
X32.912Y29.242
X33.166Y21.114
X33.42Y26.675
X33.525Y54.6
X34.0Y102.0
X34.15Y38.2
X34.161Y13.2
X34.2Y99.4
X34.373Y39.381
X34.516Y89.601
X34.561Y14.663
X34.7Y88.175
X34.8Y61.8
X34.809Y64.966
X34.825Y62.85
X34.886Y11.8
X34.95Y36.8
X35.0Y86.8
X36.125Y28.694
X36.475Y78.35
X37.1Y101.3
X37.2Y85.2
X37.484Y86.646
X37.484Y61.754
X37.5Y102.65
X37.525Y36.775
X37.6Y11.8
X38.55Y102.7
X38.85Y101.2
X39.2Y84.775
X39.2Y52.2
X40.024Y26.448
X40.532Y24.924
X40.8Y52.2
X41.025Y78.175
X41.294Y20.86
X42.0Y49.8
X42.35Y75.75
X42.686Y100.475
X42.8Y73.625
X42.95Y95.8
X43.05Y97.6
X44.2Y79.4
X44.342Y4.699
X44.35Y95.15
X44.615Y97.26
X45.0Y68.6
X45.5Y98.05
X45.5Y92.5
X45.866Y5.112
X45.9Y74.243
X46.825Y78.25
X46.85Y94.15
X47.0Y15.0
X47.3Y82.6
X47.65Y86.35
X47.898Y28.48
X47.898Y8.414
X47.898Y5.874
X48.0Y97.5
X48.0Y61.1
X48.15Y90.9
X48.152Y9.938
X48.914Y11.208
X48.925Y75.25
X49.2Y80.85
X49.35Y84.4
X49.4Y88.75
X50.1Y52.0
X50.15Y90.9
X51.3Y82.8
X51.4Y75.318
X51.4Y49.8
X51.6Y90.2
X52.25Y98.75
X52.25Y79.025
X52.978Y29.242
X53.6Y33.9
X53.685Y89.315
X54.0Y90.6
X54.625Y78.95
X55.385Y96.5
X55.75Y81.325
X55.75Y80.425
X56.0Y97.5
X57.375Y78.05
X58.9Y50.5
X58.9Y49.7
X58.9Y48.9
X58.9Y48.1
X58.925Y70.554
X58.945Y63.5
X59.0Y87.0
X59.582Y38.132
X59.75Y62.25
X60.075Y73.472
X60.078Y74.352
X60.2Y75.5
X60.25Y61.25
X60.75Y60.5
X60.913Y84.474
X61.106Y10.192
X61.255Y50.5
X61.3Y49.7
X61.3Y48.9
X61.3Y48.1
X61.364Y71.322
X61.523Y77.562
X61.67Y84.7
X61.76Y78.365
X61.868Y15.272
X61.9Y97.5
X62.2Y85.95
X62.376Y36.608
X62.885Y91.0
X62.9Y84.75
X63.5Y89.815
X63.5Y66.0
X63.691Y98.691
X63.825Y78.05
X64.0Y103.5
X64.191Y15.272
X64.25Y59.5
X64.431Y89.581
X64.55Y78.575
X64.615Y98.0
X64.75Y61.0
X64.916Y11.97
X65.0Y100.0
X65.05Y88.0
X65.124Y64.459
X65.17Y36.862
X65.25Y62.75
X65.5Y103.5
X65.8Y86.0
X65.825Y74.375
X65.932Y37.624
X65.932Y13.24
X66.5Y100.331
X66.572Y75.162
X66.675Y79.35
X66.875Y71.115
X66.925Y75.95
X67.775Y76.725
X68.4Y55.5
X68.625Y69.975
X68.65Y70.85
X68.8Y73.472
X69.234Y22.384
X69.37Y70.268
X69.45Y81.575
X70.0Y93.0
X70.001Y43.471
X70.25Y47.784
X70.9Y59.5
X71.06Y67.69
X71.08Y51.775
X71.266Y34.83
X71.3Y57.2
X71.365Y66.95
X71.365Y60.791
X71.52Y41.434
X71.52Y36.354
X71.9Y73.0
X71.925Y65.175
X71.95Y90.325
X72.0Y86.3
X72.237Y71.103
X72.4Y71.95
X72.536Y61.5
X72.536Y31.02
X72.536Y19.336
X72.79Y55.658
X72.79Y51.086
X72.79Y41.434
X72.851Y70.59
X72.888Y79.388
X73.044Y36.354
X73.044Y34.83
X73.073Y73.173
X73.3Y88.9
X73.31Y61.297
X74.065Y73.065
X74.2Y47.4
X74.55Y5.9
X74.6Y96.9
X74.941Y73.073
X75.022Y73.876
X75.086Y85.332
X75.175Y76.275
X75.4Y59.325
X75.825Y83.65
X76.25Y70.225
X76.6Y97.1
X76.85Y74.5
X77.15Y5.9
X77.158Y73.5
X77.2Y107.95
X77.2Y72.325
X77.362Y31.274
X77.362Y18.828
X77.575Y84.275
X77.575Y67.475
X77.616Y61.5
X78.025Y79.55
X78.2Y55.55
X78.25Y63.75
X78.632Y36.354
X78.8Y47.4
X78.999Y34.825
X79.3Y100.7
X79.3Y99.3
X79.3Y55.1
X79.4Y5.9
X79.625Y69.75
X79.875Y77.85
X80.0Y68.05
X80.1Y53.9
X80.575Y78.35
X80.6Y69.75
X80.664Y22.384
X80.75Y81.5
X80.825Y71.975
X80.925Y73.45
X81.4Y55.0
X81.925Y71.975
X82.1Y101.0
X82.175Y69.75
X82.4Y76.675
X82.75Y79.75
X82.775Y54.55
X83.05Y72.05
X83.6Y26.2
X83.6Y24.35
X83.6Y22.5
X83.65Y20.85
X83.7Y28.5
X83.886Y12.794
X83.9Y71.215
X84.05Y76.6
X84.075Y11.8
X84.125Y48.475
X84.15Y49.275
X84.175Y60.8
X84.22Y36.354
X84.425Y14.457
X84.5Y64.4
X84.7Y74.1
X84.75Y28.65
X84.8Y87.8
X84.8Y63.2
X84.8Y38.2
X84.8Y21.9
X85.222Y12.525
X85.3Y75.8
X86.4Y53.3
X87.05Y14.55
X87.1Y90.7
X87.4Y86.8
X87.4Y61.8
X87.4Y36.8
X87.4Y11.8
X87.55Y37.95
X88.385Y53.2
X88.625Y78.525
X88.625Y77.575
X89.2Y23.05
X90.0Y86.4
X90.0Y61.8
X90.625Y60.5
X91.2Y20.9
X91.55Y24.75
X92.1Y48.55
X92.1Y49.925
X92.85Y100.3
X92.875Y55.025
X94.05Y5.95
X94.1Y72.6
X94.15Y21.0
X94.25Y78.65
X94.568Y77.583
X94.85Y7.35
X95.45Y17.05
X95.95Y18.1
X97.25Y72.05
X97.269Y70.978
X97.35Y13.35
X97.6Y84.4
X97.9Y7.85
X98.4Y34.75
X98.4Y23.35
T2
X2.4Y85.05
X13.0Y50.0
X13.05Y105.25
X13.1Y100.15
X16.0Y49.0
X19.0Y29.5
X21.0Y80.0
X21.5Y3.5
X24.0Y58.0
X25.0Y33.0
X25.0Y8.5
X27.375Y79.8
X28.475Y80.2
X29.0Y28.5
X29.0Y3.5
X29.425Y77.525
X29.5Y81.2
X30.325Y47.1
X30.425Y78.5
X30.575Y81.3
X31.0Y45.0
X31.425Y78.45
X31.525Y48.125
X32.425Y78.625
X32.45Y105.25
X32.6Y49.1
X33.35Y51.3
X37.0Y46.875
X37.1Y48.0
X44.55Y101.1
X45.0Y30.0
X45.5Y43.4
X46.0Y26.0
X46.0Y23.0
X46.0Y19.0
X47.575Y57.15
X48.725Y59.5
X49.0Y50.275
X49.422Y32.798
X49.422Y29.242
X49.422Y25.686
X49.422Y22.13
X50.8Y51.125
X52.0Y40.0
X52.0Y15.0
X54.45Y43.45
X61.8Y103.3
X66.0Y53.5
X69.0Y30.0
X69.5Y54.0
X70.0Y4.0
X72.5Y54.0
X74.0Y66.0
X75.838Y53.88
X75.838Y50.324
X75.838Y46.514
X75.838Y42.704
X77.0Y9.0
X78.0Y4.0
X78.0Y94.1
X79.4Y108.4
X79.4Y106.2
X79.6Y104.0
X84.2Y107.6
X84.2Y101.8
X86.0Y107.6
X88.0Y107.6
X89.0Y101.8
X90.75Y51.8
X93.5Y96.15
T0
M30
