M48
; DRILL file {KiCad (5.1.4-0-10_14)} date 2019 December 13, Friday 16:10:39
; FORMAT={-:-/ absolute / metric / decimal}
; #@! TF.CreationDate,2019-12-13T16:10:39+01:00
; #@! TF.GenerationSoftware,Kicad,Pcbnew,(5.1.4-0-10_14)
; #@! TF.FileFunction,Plated,1,2,PTH
FMAT,2
METRIC
T1C0.400
T2C0.600
T3C0.800
%
G90
G05
T1
X3.519Y111.981
X4.5Y103.25
X6.25Y110.25
X7.728Y114.272
X8.0Y99.0
X9.5Y103.25
X11.0Y90.0
X11.0Y65.0
X11.0Y62.0
X11.0Y40.0
X11.0Y37.0
X11.0Y15.0
X11.0Y12.0
X11.5Y101.5
X11.906Y88.684
X12.5Y108.0
X12.5Y90.5
X12.5Y65.5
X12.5Y40.5
X12.5Y15.5
X13.0Y111.75
X14.5Y71.5
X14.5Y46.5
X14.5Y21.5
X15.5Y88.0
X15.5Y63.0
X15.5Y38.0
X15.5Y13.0
X16.91Y115.59
X18.5Y76.5
X18.5Y51.5
X18.5Y26.5
X18.905Y115.507
X19.0Y94.0
X22.6Y81.4
X22.6Y56.4
X22.6Y32.6
X22.6Y7.6
X24.212Y115.5
X24.5Y110.225
X24.739Y106.038
X25.0Y54.0
X25.0Y29.0
X25.0Y4.0
X26.0Y89.5
X26.5Y112.793
X26.5Y110.0
X27.0Y95.5
X27.0Y43.0
X27.0Y18.0
X27.5Y68.5
X28.0Y89.5
X28.5Y117.5
X29.586Y106.914
X31.25Y110.5
X31.5Y95.5
X33.0Y114.0
X33.5Y111.0
X34.5Y87.0
X34.5Y62.0
X34.5Y37.0
X34.5Y12.0
X34.925Y76.575
X35.075Y26.575
X35.668Y113.693
X36.0Y90.0
X36.0Y65.0
X36.0Y40.0
X36.0Y15.0
X36.25Y110.75
X36.612Y106.112
X37.5Y90.5
X37.5Y65.5
X37.5Y40.5
X37.5Y15.5
X38.0Y110.0
X38.25Y107.0
X38.75Y114.25
X39.0Y103.25
X39.5Y71.5
X39.5Y46.5
X39.5Y21.5
X40.25Y97.5
X40.425Y26.575
X40.5Y106.275
X40.5Y88.0
X40.5Y63.0
X40.5Y38.0
X40.5Y13.0
X40.575Y76.575
X40.75Y107.75
X41.457Y108.457
X41.5Y114.75
X42.0Y116.0
X42.0Y110.75
X44.5Y81.0
X45.0Y6.0
X46.242Y109.782
X46.475Y108.81
X46.862Y107.888
X47.6Y56.4
X47.6Y31.9
X47.75Y106.0
X48.0Y104.75
X49.0Y115.25
X49.0Y113.5
X50.0Y68.5
X50.0Y55.225
X50.0Y43.0
X50.0Y29.0
X50.25Y102.5
X50.5Y104.5
X51.0Y18.0
X51.0Y5.0
X51.25Y115.75
X57.0Y97.775
X57.75Y101.0
X58.937Y108.977
X59.0Y113.5
X59.0Y112.25
X59.5Y87.0
X59.5Y62.0
X59.5Y37.0
X59.5Y12.0
X59.575Y26.575
X59.925Y76.575
X60.75Y99.75
X61.0Y90.0
X61.0Y65.0
X61.0Y40.0
X61.0Y15.0
X62.0Y102.0
X62.25Y97.0
X62.5Y90.5
X62.5Y65.5
X62.5Y40.5
X62.5Y15.5
X64.0Y105.5
X64.5Y96.5
X64.5Y71.5
X64.5Y46.5
X64.5Y21.5
X65.075Y76.575
X65.5Y103.5
X65.5Y88.0
X65.5Y63.0
X65.5Y38.0
X65.5Y13.0
X65.925Y26.575
X66.5Y112.0
X66.85Y100.04
X67.5Y101.5
X68.5Y105.5
X69.75Y112.25
X72.6Y81.1
X72.6Y56.4
X72.6Y32.6
X72.6Y7.1
X74.0Y103.5
X75.0Y103.0
X75.0Y54.0
X75.0Y29.0
X75.0Y4.0
X76.25Y89.5
X77.0Y112.5
X77.0Y68.0
X77.0Y43.0
X77.0Y18.0
X78.5Y89.5
X81.25Y104.75
X81.575Y76.575
X83.0Y78.125
X84.5Y87.0
X84.5Y62.0
X84.5Y37.0
X84.5Y12.0
X85.0Y114.5
X85.0Y26.5
X86.0Y90.0
X86.0Y78.5
X86.0Y65.0
X86.0Y40.0
X86.0Y15.0
X87.25Y114.5
X87.5Y90.5
X87.5Y65.5
X87.5Y40.5
X87.5Y15.5
X89.5Y116.5
X89.5Y96.5
X89.5Y71.5
X89.5Y46.5
X89.5Y21.5
X89.563Y88.063
X89.563Y63.063
X89.563Y38.063
X90.0Y53.5
X90.5Y114.5
X93.5Y104.93
X95.013Y6.487
X95.5Y29.5
X97.5Y60.0
X97.6Y81.4
T2
X1.35Y78.75
X1.35Y22.75
X4.5Y78.5
X4.5Y22.5
X5.85Y50.75
X9.0Y50.5
X20.5Y105.0
X20.75Y107.15
X30.5Y25.5
X30.75Y28.65
X33.5Y48.75
X52.0Y75.5
X52.25Y78.65
X55.0Y25.5
X55.25Y28.65
X57.0Y50.5
X57.25Y53.65
T3
X97.5Y105.5
X97.5Y101.69
X2.5Y105.56
X2.5Y101.75
T0
M30
