G04 #@! TF.GenerationSoftware,KiCad,Pcbnew,(5.1.4-0-10_14)*
G04 #@! TF.CreationDate,2019-12-13T16:10:25+01:00*
G04 #@! TF.ProjectId,cz-badge-hardware,637a2d62-6164-4676-952d-686172647761,rev?*
G04 #@! TF.SameCoordinates,PX17d7840PY7735940*
G04 #@! TF.FileFunction,Paste,Bot*
G04 #@! TF.FilePolarity,Positive*
%FSLAX46Y46*%
G04 Gerber Fmt 4.6, Leading zero omitted, Abs format (unit mm)*
G04 Created by KiCad (PCBNEW (5.1.4-0-10_14)) date 2019-12-13 16:10:25*
%MOMM*%
%LPD*%
G04 APERTURE LIST*
%ADD10C,0.100000*%
%ADD11C,1.600000*%
%ADD12R,1.900000X1.000000*%
%ADD13C,0.875000*%
%ADD14C,0.100000*%
%ADD15R,0.600000X1.160000*%
%ADD16R,0.300000X1.160000*%
%ADD17R,1.800000X1.200000*%
%ADD18R,1.800000X1.450000*%
%ADD19R,0.800000X1.500000*%
%ADD20R,1.450000X2.000000*%
%ADD21R,2.000000X1.500000*%
%ADD22R,2.000000X3.800000*%
%ADD23R,1.200000X0.900000*%
%ADD24R,2.000000X0.900000*%
%ADD25R,0.900000X2.000000*%
%ADD26R,5.000000X5.000000*%
%ADD27C,0.600000*%
%ADD28R,0.900000X0.800000*%
G04 APERTURE END LIST*
D10*
G36*
X34824504Y44573796D02*
G01*
X34848773Y44570196D01*
X34872571Y44564235D01*
X34895671Y44555970D01*
X34917849Y44545480D01*
X34938893Y44532867D01*
X34958598Y44518253D01*
X34976777Y44501777D01*
X34993253Y44483598D01*
X35007867Y44463893D01*
X35020480Y44442849D01*
X35030970Y44420671D01*
X35039235Y44397571D01*
X35045196Y44373773D01*
X35048796Y44349504D01*
X35050000Y44325000D01*
X35050000Y42050000D01*
X35048796Y42025496D01*
X35045196Y42001227D01*
X35039235Y41977429D01*
X35030970Y41954329D01*
X35020480Y41932151D01*
X35007867Y41911107D01*
X34993253Y41891402D01*
X34976777Y41873223D01*
X34958598Y41856747D01*
X34938893Y41842133D01*
X34917849Y41829520D01*
X34895671Y41819030D01*
X34872571Y41810765D01*
X34848773Y41804804D01*
X34824504Y41801204D01*
X34800000Y41800000D01*
X33700000Y41800000D01*
X33675496Y41801204D01*
X33651227Y41804804D01*
X33627429Y41810765D01*
X33604329Y41819030D01*
X33582151Y41829520D01*
X33561107Y41842133D01*
X33541402Y41856747D01*
X33523223Y41873223D01*
X33506747Y41891402D01*
X33492133Y41911107D01*
X33479520Y41932151D01*
X33469030Y41954329D01*
X33460765Y41977429D01*
X33454804Y42001227D01*
X33451204Y42025496D01*
X33450000Y42050000D01*
X33450000Y44325000D01*
X33451204Y44349504D01*
X33454804Y44373773D01*
X33460765Y44397571D01*
X33469030Y44420671D01*
X33479520Y44442849D01*
X33492133Y44463893D01*
X33506747Y44483598D01*
X33523223Y44501777D01*
X33541402Y44518253D01*
X33561107Y44532867D01*
X33582151Y44545480D01*
X33604329Y44555970D01*
X33627429Y44564235D01*
X33651227Y44570196D01*
X33675496Y44573796D01*
X33700000Y44575000D01*
X34800000Y44575000D01*
X34824504Y44573796D01*
X34824504Y44573796D01*
G37*
D11*
X34250000Y43187500D03*
D10*
G36*
X34824504Y48698796D02*
G01*
X34848773Y48695196D01*
X34872571Y48689235D01*
X34895671Y48680970D01*
X34917849Y48670480D01*
X34938893Y48657867D01*
X34958598Y48643253D01*
X34976777Y48626777D01*
X34993253Y48608598D01*
X35007867Y48588893D01*
X35020480Y48567849D01*
X35030970Y48545671D01*
X35039235Y48522571D01*
X35045196Y48498773D01*
X35048796Y48474504D01*
X35050000Y48450000D01*
X35050000Y46175000D01*
X35048796Y46150496D01*
X35045196Y46126227D01*
X35039235Y46102429D01*
X35030970Y46079329D01*
X35020480Y46057151D01*
X35007867Y46036107D01*
X34993253Y46016402D01*
X34976777Y45998223D01*
X34958598Y45981747D01*
X34938893Y45967133D01*
X34917849Y45954520D01*
X34895671Y45944030D01*
X34872571Y45935765D01*
X34848773Y45929804D01*
X34824504Y45926204D01*
X34800000Y45925000D01*
X33700000Y45925000D01*
X33675496Y45926204D01*
X33651227Y45929804D01*
X33627429Y45935765D01*
X33604329Y45944030D01*
X33582151Y45954520D01*
X33561107Y45967133D01*
X33541402Y45981747D01*
X33523223Y45998223D01*
X33506747Y46016402D01*
X33492133Y46036107D01*
X33479520Y46057151D01*
X33469030Y46079329D01*
X33460765Y46102429D01*
X33454804Y46126227D01*
X33451204Y46150496D01*
X33450000Y46175000D01*
X33450000Y48450000D01*
X33451204Y48474504D01*
X33454804Y48498773D01*
X33460765Y48522571D01*
X33469030Y48545671D01*
X33479520Y48567849D01*
X33492133Y48588893D01*
X33506747Y48608598D01*
X33523223Y48626777D01*
X33541402Y48643253D01*
X33561107Y48657867D01*
X33582151Y48670480D01*
X33604329Y48680970D01*
X33627429Y48689235D01*
X33651227Y48695196D01*
X33675496Y48698796D01*
X33700000Y48700000D01*
X34800000Y48700000D01*
X34824504Y48698796D01*
X34824504Y48698796D01*
G37*
D11*
X34250000Y47312500D03*
D10*
G36*
X77074504Y106823796D02*
G01*
X77098773Y106820196D01*
X77122571Y106814235D01*
X77145671Y106805970D01*
X77167849Y106795480D01*
X77188893Y106782867D01*
X77208598Y106768253D01*
X77226777Y106751777D01*
X77243253Y106733598D01*
X77257867Y106713893D01*
X77270480Y106692849D01*
X77280970Y106670671D01*
X77289235Y106647571D01*
X77295196Y106623773D01*
X77298796Y106599504D01*
X77300000Y106575000D01*
X77300000Y104300000D01*
X77298796Y104275496D01*
X77295196Y104251227D01*
X77289235Y104227429D01*
X77280970Y104204329D01*
X77270480Y104182151D01*
X77257867Y104161107D01*
X77243253Y104141402D01*
X77226777Y104123223D01*
X77208598Y104106747D01*
X77188893Y104092133D01*
X77167849Y104079520D01*
X77145671Y104069030D01*
X77122571Y104060765D01*
X77098773Y104054804D01*
X77074504Y104051204D01*
X77050000Y104050000D01*
X75950000Y104050000D01*
X75925496Y104051204D01*
X75901227Y104054804D01*
X75877429Y104060765D01*
X75854329Y104069030D01*
X75832151Y104079520D01*
X75811107Y104092133D01*
X75791402Y104106747D01*
X75773223Y104123223D01*
X75756747Y104141402D01*
X75742133Y104161107D01*
X75729520Y104182151D01*
X75719030Y104204329D01*
X75710765Y104227429D01*
X75704804Y104251227D01*
X75701204Y104275496D01*
X75700000Y104300000D01*
X75700000Y106575000D01*
X75701204Y106599504D01*
X75704804Y106623773D01*
X75710765Y106647571D01*
X75719030Y106670671D01*
X75729520Y106692849D01*
X75742133Y106713893D01*
X75756747Y106733598D01*
X75773223Y106751777D01*
X75791402Y106768253D01*
X75811107Y106782867D01*
X75832151Y106795480D01*
X75854329Y106805970D01*
X75877429Y106814235D01*
X75901227Y106820196D01*
X75925496Y106823796D01*
X75950000Y106825000D01*
X77050000Y106825000D01*
X77074504Y106823796D01*
X77074504Y106823796D01*
G37*
D11*
X76500000Y105437500D03*
D10*
G36*
X77074504Y110948796D02*
G01*
X77098773Y110945196D01*
X77122571Y110939235D01*
X77145671Y110930970D01*
X77167849Y110920480D01*
X77188893Y110907867D01*
X77208598Y110893253D01*
X77226777Y110876777D01*
X77243253Y110858598D01*
X77257867Y110838893D01*
X77270480Y110817849D01*
X77280970Y110795671D01*
X77289235Y110772571D01*
X77295196Y110748773D01*
X77298796Y110724504D01*
X77300000Y110700000D01*
X77300000Y108425000D01*
X77298796Y108400496D01*
X77295196Y108376227D01*
X77289235Y108352429D01*
X77280970Y108329329D01*
X77270480Y108307151D01*
X77257867Y108286107D01*
X77243253Y108266402D01*
X77226777Y108248223D01*
X77208598Y108231747D01*
X77188893Y108217133D01*
X77167849Y108204520D01*
X77145671Y108194030D01*
X77122571Y108185765D01*
X77098773Y108179804D01*
X77074504Y108176204D01*
X77050000Y108175000D01*
X75950000Y108175000D01*
X75925496Y108176204D01*
X75901227Y108179804D01*
X75877429Y108185765D01*
X75854329Y108194030D01*
X75832151Y108204520D01*
X75811107Y108217133D01*
X75791402Y108231747D01*
X75773223Y108248223D01*
X75756747Y108266402D01*
X75742133Y108286107D01*
X75729520Y108307151D01*
X75719030Y108329329D01*
X75710765Y108352429D01*
X75704804Y108376227D01*
X75701204Y108400496D01*
X75700000Y108425000D01*
X75700000Y110700000D01*
X75701204Y110724504D01*
X75704804Y110748773D01*
X75710765Y110772571D01*
X75719030Y110795671D01*
X75729520Y110817849D01*
X75742133Y110838893D01*
X75756747Y110858598D01*
X75773223Y110876777D01*
X75791402Y110893253D01*
X75811107Y110907867D01*
X75832151Y110920480D01*
X75854329Y110930970D01*
X75877429Y110939235D01*
X75901227Y110945196D01*
X75925496Y110948796D01*
X75950000Y110950000D01*
X77050000Y110950000D01*
X77074504Y110948796D01*
X77074504Y110948796D01*
G37*
D11*
X76500000Y109562500D03*
D10*
G36*
X28074504Y104823796D02*
G01*
X28098773Y104820196D01*
X28122571Y104814235D01*
X28145671Y104805970D01*
X28167849Y104795480D01*
X28188893Y104782867D01*
X28208598Y104768253D01*
X28226777Y104751777D01*
X28243253Y104733598D01*
X28257867Y104713893D01*
X28270480Y104692849D01*
X28280970Y104670671D01*
X28289235Y104647571D01*
X28295196Y104623773D01*
X28298796Y104599504D01*
X28300000Y104575000D01*
X28300000Y102300000D01*
X28298796Y102275496D01*
X28295196Y102251227D01*
X28289235Y102227429D01*
X28280970Y102204329D01*
X28270480Y102182151D01*
X28257867Y102161107D01*
X28243253Y102141402D01*
X28226777Y102123223D01*
X28208598Y102106747D01*
X28188893Y102092133D01*
X28167849Y102079520D01*
X28145671Y102069030D01*
X28122571Y102060765D01*
X28098773Y102054804D01*
X28074504Y102051204D01*
X28050000Y102050000D01*
X26950000Y102050000D01*
X26925496Y102051204D01*
X26901227Y102054804D01*
X26877429Y102060765D01*
X26854329Y102069030D01*
X26832151Y102079520D01*
X26811107Y102092133D01*
X26791402Y102106747D01*
X26773223Y102123223D01*
X26756747Y102141402D01*
X26742133Y102161107D01*
X26729520Y102182151D01*
X26719030Y102204329D01*
X26710765Y102227429D01*
X26704804Y102251227D01*
X26701204Y102275496D01*
X26700000Y102300000D01*
X26700000Y104575000D01*
X26701204Y104599504D01*
X26704804Y104623773D01*
X26710765Y104647571D01*
X26719030Y104670671D01*
X26729520Y104692849D01*
X26742133Y104713893D01*
X26756747Y104733598D01*
X26773223Y104751777D01*
X26791402Y104768253D01*
X26811107Y104782867D01*
X26832151Y104795480D01*
X26854329Y104805970D01*
X26877429Y104814235D01*
X26901227Y104820196D01*
X26925496Y104823796D01*
X26950000Y104825000D01*
X28050000Y104825000D01*
X28074504Y104823796D01*
X28074504Y104823796D01*
G37*
D11*
X27500000Y103437500D03*
D10*
G36*
X28074504Y108948796D02*
G01*
X28098773Y108945196D01*
X28122571Y108939235D01*
X28145671Y108930970D01*
X28167849Y108920480D01*
X28188893Y108907867D01*
X28208598Y108893253D01*
X28226777Y108876777D01*
X28243253Y108858598D01*
X28257867Y108838893D01*
X28270480Y108817849D01*
X28280970Y108795671D01*
X28289235Y108772571D01*
X28295196Y108748773D01*
X28298796Y108724504D01*
X28300000Y108700000D01*
X28300000Y106425000D01*
X28298796Y106400496D01*
X28295196Y106376227D01*
X28289235Y106352429D01*
X28280970Y106329329D01*
X28270480Y106307151D01*
X28257867Y106286107D01*
X28243253Y106266402D01*
X28226777Y106248223D01*
X28208598Y106231747D01*
X28188893Y106217133D01*
X28167849Y106204520D01*
X28145671Y106194030D01*
X28122571Y106185765D01*
X28098773Y106179804D01*
X28074504Y106176204D01*
X28050000Y106175000D01*
X26950000Y106175000D01*
X26925496Y106176204D01*
X26901227Y106179804D01*
X26877429Y106185765D01*
X26854329Y106194030D01*
X26832151Y106204520D01*
X26811107Y106217133D01*
X26791402Y106231747D01*
X26773223Y106248223D01*
X26756747Y106266402D01*
X26742133Y106286107D01*
X26729520Y106307151D01*
X26719030Y106329329D01*
X26710765Y106352429D01*
X26704804Y106376227D01*
X26701204Y106400496D01*
X26700000Y106425000D01*
X26700000Y108700000D01*
X26701204Y108724504D01*
X26704804Y108748773D01*
X26710765Y108772571D01*
X26719030Y108795671D01*
X26729520Y108817849D01*
X26742133Y108838893D01*
X26756747Y108858598D01*
X26773223Y108876777D01*
X26791402Y108893253D01*
X26811107Y108907867D01*
X26832151Y108920480D01*
X26854329Y108930970D01*
X26877429Y108939235D01*
X26901227Y108945196D01*
X26925496Y108948796D01*
X26950000Y108950000D01*
X28050000Y108950000D01*
X28074504Y108948796D01*
X28074504Y108948796D01*
G37*
D11*
X27500000Y107562500D03*
D12*
X70150000Y97500000D03*
X66850000Y100040000D03*
X66850000Y94960000D03*
D10*
G36*
X3027691Y110973947D02*
G01*
X3048926Y110970797D01*
X3069750Y110965581D01*
X3089962Y110958349D01*
X3109368Y110949170D01*
X3127781Y110938134D01*
X3145024Y110925346D01*
X3160930Y110910930D01*
X3175346Y110895024D01*
X3188134Y110877781D01*
X3199170Y110859368D01*
X3208349Y110839962D01*
X3215581Y110819750D01*
X3220797Y110798926D01*
X3223947Y110777691D01*
X3225000Y110756250D01*
X3225000Y110243750D01*
X3223947Y110222309D01*
X3220797Y110201074D01*
X3215581Y110180250D01*
X3208349Y110160038D01*
X3199170Y110140632D01*
X3188134Y110122219D01*
X3175346Y110104976D01*
X3160930Y110089070D01*
X3145024Y110074654D01*
X3127781Y110061866D01*
X3109368Y110050830D01*
X3089962Y110041651D01*
X3069750Y110034419D01*
X3048926Y110029203D01*
X3027691Y110026053D01*
X3006250Y110025000D01*
X2568750Y110025000D01*
X2547309Y110026053D01*
X2526074Y110029203D01*
X2505250Y110034419D01*
X2485038Y110041651D01*
X2465632Y110050830D01*
X2447219Y110061866D01*
X2429976Y110074654D01*
X2414070Y110089070D01*
X2399654Y110104976D01*
X2386866Y110122219D01*
X2375830Y110140632D01*
X2366651Y110160038D01*
X2359419Y110180250D01*
X2354203Y110201074D01*
X2351053Y110222309D01*
X2350000Y110243750D01*
X2350000Y110756250D01*
X2351053Y110777691D01*
X2354203Y110798926D01*
X2359419Y110819750D01*
X2366651Y110839962D01*
X2375830Y110859368D01*
X2386866Y110877781D01*
X2399654Y110895024D01*
X2414070Y110910930D01*
X2429976Y110925346D01*
X2447219Y110938134D01*
X2465632Y110949170D01*
X2485038Y110958349D01*
X2505250Y110965581D01*
X2526074Y110970797D01*
X2547309Y110973947D01*
X2568750Y110975000D01*
X3006250Y110975000D01*
X3027691Y110973947D01*
X3027691Y110973947D01*
G37*
D13*
X2787500Y110500000D03*
D10*
G36*
X1452691Y110973947D02*
G01*
X1473926Y110970797D01*
X1494750Y110965581D01*
X1514962Y110958349D01*
X1534368Y110949170D01*
X1552781Y110938134D01*
X1570024Y110925346D01*
X1585930Y110910930D01*
X1600346Y110895024D01*
X1613134Y110877781D01*
X1624170Y110859368D01*
X1633349Y110839962D01*
X1640581Y110819750D01*
X1645797Y110798926D01*
X1648947Y110777691D01*
X1650000Y110756250D01*
X1650000Y110243750D01*
X1648947Y110222309D01*
X1645797Y110201074D01*
X1640581Y110180250D01*
X1633349Y110160038D01*
X1624170Y110140632D01*
X1613134Y110122219D01*
X1600346Y110104976D01*
X1585930Y110089070D01*
X1570024Y110074654D01*
X1552781Y110061866D01*
X1534368Y110050830D01*
X1514962Y110041651D01*
X1494750Y110034419D01*
X1473926Y110029203D01*
X1452691Y110026053D01*
X1431250Y110025000D01*
X993750Y110025000D01*
X972309Y110026053D01*
X951074Y110029203D01*
X930250Y110034419D01*
X910038Y110041651D01*
X890632Y110050830D01*
X872219Y110061866D01*
X854976Y110074654D01*
X839070Y110089070D01*
X824654Y110104976D01*
X811866Y110122219D01*
X800830Y110140632D01*
X791651Y110160038D01*
X784419Y110180250D01*
X779203Y110201074D01*
X776053Y110222309D01*
X775000Y110243750D01*
X775000Y110756250D01*
X776053Y110777691D01*
X779203Y110798926D01*
X784419Y110819750D01*
X791651Y110839962D01*
X800830Y110859368D01*
X811866Y110877781D01*
X824654Y110895024D01*
X839070Y110910930D01*
X854976Y110925346D01*
X872219Y110938134D01*
X890632Y110949170D01*
X910038Y110958349D01*
X930250Y110965581D01*
X951074Y110970797D01*
X972309Y110973947D01*
X993750Y110975000D01*
X1431250Y110975000D01*
X1452691Y110973947D01*
X1452691Y110973947D01*
G37*
D13*
X1212500Y110500000D03*
D10*
G36*
X1452691Y109473947D02*
G01*
X1473926Y109470797D01*
X1494750Y109465581D01*
X1514962Y109458349D01*
X1534368Y109449170D01*
X1552781Y109438134D01*
X1570024Y109425346D01*
X1585930Y109410930D01*
X1600346Y109395024D01*
X1613134Y109377781D01*
X1624170Y109359368D01*
X1633349Y109339962D01*
X1640581Y109319750D01*
X1645797Y109298926D01*
X1648947Y109277691D01*
X1650000Y109256250D01*
X1650000Y108743750D01*
X1648947Y108722309D01*
X1645797Y108701074D01*
X1640581Y108680250D01*
X1633349Y108660038D01*
X1624170Y108640632D01*
X1613134Y108622219D01*
X1600346Y108604976D01*
X1585930Y108589070D01*
X1570024Y108574654D01*
X1552781Y108561866D01*
X1534368Y108550830D01*
X1514962Y108541651D01*
X1494750Y108534419D01*
X1473926Y108529203D01*
X1452691Y108526053D01*
X1431250Y108525000D01*
X993750Y108525000D01*
X972309Y108526053D01*
X951074Y108529203D01*
X930250Y108534419D01*
X910038Y108541651D01*
X890632Y108550830D01*
X872219Y108561866D01*
X854976Y108574654D01*
X839070Y108589070D01*
X824654Y108604976D01*
X811866Y108622219D01*
X800830Y108640632D01*
X791651Y108660038D01*
X784419Y108680250D01*
X779203Y108701074D01*
X776053Y108722309D01*
X775000Y108743750D01*
X775000Y109256250D01*
X776053Y109277691D01*
X779203Y109298926D01*
X784419Y109319750D01*
X791651Y109339962D01*
X800830Y109359368D01*
X811866Y109377781D01*
X824654Y109395024D01*
X839070Y109410930D01*
X854976Y109425346D01*
X872219Y109438134D01*
X890632Y109449170D01*
X910038Y109458349D01*
X930250Y109465581D01*
X951074Y109470797D01*
X972309Y109473947D01*
X993750Y109475000D01*
X1431250Y109475000D01*
X1452691Y109473947D01*
X1452691Y109473947D01*
G37*
D13*
X1212500Y109000000D03*
D10*
G36*
X3027691Y109473947D02*
G01*
X3048926Y109470797D01*
X3069750Y109465581D01*
X3089962Y109458349D01*
X3109368Y109449170D01*
X3127781Y109438134D01*
X3145024Y109425346D01*
X3160930Y109410930D01*
X3175346Y109395024D01*
X3188134Y109377781D01*
X3199170Y109359368D01*
X3208349Y109339962D01*
X3215581Y109319750D01*
X3220797Y109298926D01*
X3223947Y109277691D01*
X3225000Y109256250D01*
X3225000Y108743750D01*
X3223947Y108722309D01*
X3220797Y108701074D01*
X3215581Y108680250D01*
X3208349Y108660038D01*
X3199170Y108640632D01*
X3188134Y108622219D01*
X3175346Y108604976D01*
X3160930Y108589070D01*
X3145024Y108574654D01*
X3127781Y108561866D01*
X3109368Y108550830D01*
X3089962Y108541651D01*
X3069750Y108534419D01*
X3048926Y108529203D01*
X3027691Y108526053D01*
X3006250Y108525000D01*
X2568750Y108525000D01*
X2547309Y108526053D01*
X2526074Y108529203D01*
X2505250Y108534419D01*
X2485038Y108541651D01*
X2465632Y108550830D01*
X2447219Y108561866D01*
X2429976Y108574654D01*
X2414070Y108589070D01*
X2399654Y108604976D01*
X2386866Y108622219D01*
X2375830Y108640632D01*
X2366651Y108660038D01*
X2359419Y108680250D01*
X2354203Y108701074D01*
X2351053Y108722309D01*
X2350000Y108743750D01*
X2350000Y109256250D01*
X2351053Y109277691D01*
X2354203Y109298926D01*
X2359419Y109319750D01*
X2366651Y109339962D01*
X2375830Y109359368D01*
X2386866Y109377781D01*
X2399654Y109395024D01*
X2414070Y109410930D01*
X2429976Y109425346D01*
X2447219Y109438134D01*
X2465632Y109449170D01*
X2485038Y109458349D01*
X2505250Y109465581D01*
X2526074Y109470797D01*
X2547309Y109473947D01*
X2568750Y109475000D01*
X3006250Y109475000D01*
X3027691Y109473947D01*
X3027691Y109473947D01*
G37*
D13*
X2787500Y109000000D03*
D10*
G36*
X6127450Y114749880D02*
G01*
X6129877Y114749520D01*
X6132257Y114748924D01*
X6134567Y114748097D01*
X6136785Y114747048D01*
X6138889Y114745787D01*
X6140860Y114744325D01*
X6142678Y114742678D01*
X6144325Y114740860D01*
X6145787Y114738889D01*
X6147048Y114736785D01*
X6148097Y114734567D01*
X6148924Y114732257D01*
X6149520Y114729877D01*
X6149880Y114727450D01*
X6150000Y114725000D01*
X6150000Y114675000D01*
X6149880Y114672550D01*
X6149520Y114670123D01*
X6148924Y114667743D01*
X6148097Y114665433D01*
X6147048Y114663215D01*
X6145787Y114661111D01*
X6144325Y114659140D01*
X6142678Y114657322D01*
X6140860Y114655675D01*
X6138889Y114654213D01*
X6136785Y114652952D01*
X6134567Y114651903D01*
X6132257Y114651076D01*
X6129877Y114650480D01*
X6127450Y114650120D01*
X6125000Y114650000D01*
X6075000Y114650000D01*
X6072550Y114650120D01*
X6070123Y114650480D01*
X6067743Y114651076D01*
X6065433Y114651903D01*
X6063215Y114652952D01*
X6061111Y114654213D01*
X6059140Y114655675D01*
X6057322Y114657322D01*
X6055675Y114659140D01*
X6054213Y114661111D01*
X6052952Y114663215D01*
X6051903Y114665433D01*
X6051076Y114667743D01*
X6050480Y114670123D01*
X6050120Y114672550D01*
X6050000Y114675000D01*
X6050000Y114725000D01*
X6050120Y114727450D01*
X6050480Y114729877D01*
X6051076Y114732257D01*
X6051903Y114734567D01*
X6052952Y114736785D01*
X6054213Y114738889D01*
X6055675Y114740860D01*
X6057322Y114742678D01*
X6059140Y114744325D01*
X6061111Y114745787D01*
X6063215Y114747048D01*
X6065433Y114748097D01*
X6067743Y114748924D01*
X6070123Y114749520D01*
X6072550Y114749880D01*
X6075000Y114750000D01*
X6125000Y114750000D01*
X6127450Y114749880D01*
X6127450Y114749880D01*
G37*
D14*
X6100000Y114700000D03*
D10*
G36*
X6127450Y114749880D02*
G01*
X6129877Y114749520D01*
X6132257Y114748924D01*
X6134567Y114748097D01*
X6136785Y114747048D01*
X6138889Y114745787D01*
X6140860Y114744325D01*
X6142678Y114742678D01*
X6144325Y114740860D01*
X6145787Y114738889D01*
X6147048Y114736785D01*
X6148097Y114734567D01*
X6148924Y114732257D01*
X6149520Y114729877D01*
X6149880Y114727450D01*
X6150000Y114725000D01*
X6150000Y114675000D01*
X6149880Y114672550D01*
X6149520Y114670123D01*
X6148924Y114667743D01*
X6148097Y114665433D01*
X6147048Y114663215D01*
X6145787Y114661111D01*
X6144325Y114659140D01*
X6142678Y114657322D01*
X6140860Y114655675D01*
X6138889Y114654213D01*
X6136785Y114652952D01*
X6134567Y114651903D01*
X6132257Y114651076D01*
X6129877Y114650480D01*
X6127450Y114650120D01*
X6125000Y114650000D01*
X6075000Y114650000D01*
X6072550Y114650120D01*
X6070123Y114650480D01*
X6067743Y114651076D01*
X6065433Y114651903D01*
X6063215Y114652952D01*
X6061111Y114654213D01*
X6059140Y114655675D01*
X6057322Y114657322D01*
X6055675Y114659140D01*
X6054213Y114661111D01*
X6052952Y114663215D01*
X6051903Y114665433D01*
X6051076Y114667743D01*
X6050480Y114670123D01*
X6050120Y114672550D01*
X6050000Y114675000D01*
X6050000Y114725000D01*
X6050120Y114727450D01*
X6050480Y114729877D01*
X6051076Y114732257D01*
X6051903Y114734567D01*
X6052952Y114736785D01*
X6054213Y114738889D01*
X6055675Y114740860D01*
X6057322Y114742678D01*
X6059140Y114744325D01*
X6061111Y114745787D01*
X6063215Y114747048D01*
X6065433Y114748097D01*
X6067743Y114748924D01*
X6070123Y114749520D01*
X6072550Y114749880D01*
X6075000Y114750000D01*
X6125000Y114750000D01*
X6127450Y114749880D01*
X6127450Y114749880D01*
G37*
D14*
X6100000Y114700000D03*
D10*
G36*
X6127450Y114749880D02*
G01*
X6129877Y114749520D01*
X6132257Y114748924D01*
X6134567Y114748097D01*
X6136785Y114747048D01*
X6138889Y114745787D01*
X6140860Y114744325D01*
X6142678Y114742678D01*
X6144325Y114740860D01*
X6145787Y114738889D01*
X6147048Y114736785D01*
X6148097Y114734567D01*
X6148924Y114732257D01*
X6149520Y114729877D01*
X6149880Y114727450D01*
X6150000Y114725000D01*
X6150000Y114675000D01*
X6149880Y114672550D01*
X6149520Y114670123D01*
X6148924Y114667743D01*
X6148097Y114665433D01*
X6147048Y114663215D01*
X6145787Y114661111D01*
X6144325Y114659140D01*
X6142678Y114657322D01*
X6140860Y114655675D01*
X6138889Y114654213D01*
X6136785Y114652952D01*
X6134567Y114651903D01*
X6132257Y114651076D01*
X6129877Y114650480D01*
X6127450Y114650120D01*
X6125000Y114650000D01*
X6075000Y114650000D01*
X6072550Y114650120D01*
X6070123Y114650480D01*
X6067743Y114651076D01*
X6065433Y114651903D01*
X6063215Y114652952D01*
X6061111Y114654213D01*
X6059140Y114655675D01*
X6057322Y114657322D01*
X6055675Y114659140D01*
X6054213Y114661111D01*
X6052952Y114663215D01*
X6051903Y114665433D01*
X6051076Y114667743D01*
X6050480Y114670123D01*
X6050120Y114672550D01*
X6050000Y114675000D01*
X6050000Y114725000D01*
X6050120Y114727450D01*
X6050480Y114729877D01*
X6051076Y114732257D01*
X6051903Y114734567D01*
X6052952Y114736785D01*
X6054213Y114738889D01*
X6055675Y114740860D01*
X6057322Y114742678D01*
X6059140Y114744325D01*
X6061111Y114745787D01*
X6063215Y114747048D01*
X6065433Y114748097D01*
X6067743Y114748924D01*
X6070123Y114749520D01*
X6072550Y114749880D01*
X6075000Y114750000D01*
X6125000Y114750000D01*
X6127450Y114749880D01*
X6127450Y114749880D01*
G37*
D14*
X6100000Y114700000D03*
D10*
G36*
X6127450Y114749880D02*
G01*
X6129877Y114749520D01*
X6132257Y114748924D01*
X6134567Y114748097D01*
X6136785Y114747048D01*
X6138889Y114745787D01*
X6140860Y114744325D01*
X6142678Y114742678D01*
X6144325Y114740860D01*
X6145787Y114738889D01*
X6147048Y114736785D01*
X6148097Y114734567D01*
X6148924Y114732257D01*
X6149520Y114729877D01*
X6149880Y114727450D01*
X6150000Y114725000D01*
X6150000Y114675000D01*
X6149880Y114672550D01*
X6149520Y114670123D01*
X6148924Y114667743D01*
X6148097Y114665433D01*
X6147048Y114663215D01*
X6145787Y114661111D01*
X6144325Y114659140D01*
X6142678Y114657322D01*
X6140860Y114655675D01*
X6138889Y114654213D01*
X6136785Y114652952D01*
X6134567Y114651903D01*
X6132257Y114651076D01*
X6129877Y114650480D01*
X6127450Y114650120D01*
X6125000Y114650000D01*
X6075000Y114650000D01*
X6072550Y114650120D01*
X6070123Y114650480D01*
X6067743Y114651076D01*
X6065433Y114651903D01*
X6063215Y114652952D01*
X6061111Y114654213D01*
X6059140Y114655675D01*
X6057322Y114657322D01*
X6055675Y114659140D01*
X6054213Y114661111D01*
X6052952Y114663215D01*
X6051903Y114665433D01*
X6051076Y114667743D01*
X6050480Y114670123D01*
X6050120Y114672550D01*
X6050000Y114675000D01*
X6050000Y114725000D01*
X6050120Y114727450D01*
X6050480Y114729877D01*
X6051076Y114732257D01*
X6051903Y114734567D01*
X6052952Y114736785D01*
X6054213Y114738889D01*
X6055675Y114740860D01*
X6057322Y114742678D01*
X6059140Y114744325D01*
X6061111Y114745787D01*
X6063215Y114747048D01*
X6065433Y114748097D01*
X6067743Y114748924D01*
X6070123Y114749520D01*
X6072550Y114749880D01*
X6075000Y114750000D01*
X6125000Y114750000D01*
X6127450Y114749880D01*
X6127450Y114749880D01*
G37*
D14*
X6100000Y114700000D03*
D10*
G36*
X6127450Y114749880D02*
G01*
X6129877Y114749520D01*
X6132257Y114748924D01*
X6134567Y114748097D01*
X6136785Y114747048D01*
X6138889Y114745787D01*
X6140860Y114744325D01*
X6142678Y114742678D01*
X6144325Y114740860D01*
X6145787Y114738889D01*
X6147048Y114736785D01*
X6148097Y114734567D01*
X6148924Y114732257D01*
X6149520Y114729877D01*
X6149880Y114727450D01*
X6150000Y114725000D01*
X6150000Y114675000D01*
X6149880Y114672550D01*
X6149520Y114670123D01*
X6148924Y114667743D01*
X6148097Y114665433D01*
X6147048Y114663215D01*
X6145787Y114661111D01*
X6144325Y114659140D01*
X6142678Y114657322D01*
X6140860Y114655675D01*
X6138889Y114654213D01*
X6136785Y114652952D01*
X6134567Y114651903D01*
X6132257Y114651076D01*
X6129877Y114650480D01*
X6127450Y114650120D01*
X6125000Y114650000D01*
X6075000Y114650000D01*
X6072550Y114650120D01*
X6070123Y114650480D01*
X6067743Y114651076D01*
X6065433Y114651903D01*
X6063215Y114652952D01*
X6061111Y114654213D01*
X6059140Y114655675D01*
X6057322Y114657322D01*
X6055675Y114659140D01*
X6054213Y114661111D01*
X6052952Y114663215D01*
X6051903Y114665433D01*
X6051076Y114667743D01*
X6050480Y114670123D01*
X6050120Y114672550D01*
X6050000Y114675000D01*
X6050000Y114725000D01*
X6050120Y114727450D01*
X6050480Y114729877D01*
X6051076Y114732257D01*
X6051903Y114734567D01*
X6052952Y114736785D01*
X6054213Y114738889D01*
X6055675Y114740860D01*
X6057322Y114742678D01*
X6059140Y114744325D01*
X6061111Y114745787D01*
X6063215Y114747048D01*
X6065433Y114748097D01*
X6067743Y114748924D01*
X6070123Y114749520D01*
X6072550Y114749880D01*
X6075000Y114750000D01*
X6125000Y114750000D01*
X6127450Y114749880D01*
X6127450Y114749880D01*
G37*
D14*
X6100000Y114700000D03*
D10*
G36*
X6127450Y114749880D02*
G01*
X6129877Y114749520D01*
X6132257Y114748924D01*
X6134567Y114748097D01*
X6136785Y114747048D01*
X6138889Y114745787D01*
X6140860Y114744325D01*
X6142678Y114742678D01*
X6144325Y114740860D01*
X6145787Y114738889D01*
X6147048Y114736785D01*
X6148097Y114734567D01*
X6148924Y114732257D01*
X6149520Y114729877D01*
X6149880Y114727450D01*
X6150000Y114725000D01*
X6150000Y114675000D01*
X6149880Y114672550D01*
X6149520Y114670123D01*
X6148924Y114667743D01*
X6148097Y114665433D01*
X6147048Y114663215D01*
X6145787Y114661111D01*
X6144325Y114659140D01*
X6142678Y114657322D01*
X6140860Y114655675D01*
X6138889Y114654213D01*
X6136785Y114652952D01*
X6134567Y114651903D01*
X6132257Y114651076D01*
X6129877Y114650480D01*
X6127450Y114650120D01*
X6125000Y114650000D01*
X6075000Y114650000D01*
X6072550Y114650120D01*
X6070123Y114650480D01*
X6067743Y114651076D01*
X6065433Y114651903D01*
X6063215Y114652952D01*
X6061111Y114654213D01*
X6059140Y114655675D01*
X6057322Y114657322D01*
X6055675Y114659140D01*
X6054213Y114661111D01*
X6052952Y114663215D01*
X6051903Y114665433D01*
X6051076Y114667743D01*
X6050480Y114670123D01*
X6050120Y114672550D01*
X6050000Y114675000D01*
X6050000Y114725000D01*
X6050120Y114727450D01*
X6050480Y114729877D01*
X6051076Y114732257D01*
X6051903Y114734567D01*
X6052952Y114736785D01*
X6054213Y114738889D01*
X6055675Y114740860D01*
X6057322Y114742678D01*
X6059140Y114744325D01*
X6061111Y114745787D01*
X6063215Y114747048D01*
X6065433Y114748097D01*
X6067743Y114748924D01*
X6070123Y114749520D01*
X6072550Y114749880D01*
X6075000Y114750000D01*
X6125000Y114750000D01*
X6127450Y114749880D01*
X6127450Y114749880D01*
G37*
D14*
X6100000Y114700000D03*
D10*
G36*
X6127450Y114749880D02*
G01*
X6129877Y114749520D01*
X6132257Y114748924D01*
X6134567Y114748097D01*
X6136785Y114747048D01*
X6138889Y114745787D01*
X6140860Y114744325D01*
X6142678Y114742678D01*
X6144325Y114740860D01*
X6145787Y114738889D01*
X6147048Y114736785D01*
X6148097Y114734567D01*
X6148924Y114732257D01*
X6149520Y114729877D01*
X6149880Y114727450D01*
X6150000Y114725000D01*
X6150000Y114675000D01*
X6149880Y114672550D01*
X6149520Y114670123D01*
X6148924Y114667743D01*
X6148097Y114665433D01*
X6147048Y114663215D01*
X6145787Y114661111D01*
X6144325Y114659140D01*
X6142678Y114657322D01*
X6140860Y114655675D01*
X6138889Y114654213D01*
X6136785Y114652952D01*
X6134567Y114651903D01*
X6132257Y114651076D01*
X6129877Y114650480D01*
X6127450Y114650120D01*
X6125000Y114650000D01*
X6075000Y114650000D01*
X6072550Y114650120D01*
X6070123Y114650480D01*
X6067743Y114651076D01*
X6065433Y114651903D01*
X6063215Y114652952D01*
X6061111Y114654213D01*
X6059140Y114655675D01*
X6057322Y114657322D01*
X6055675Y114659140D01*
X6054213Y114661111D01*
X6052952Y114663215D01*
X6051903Y114665433D01*
X6051076Y114667743D01*
X6050480Y114670123D01*
X6050120Y114672550D01*
X6050000Y114675000D01*
X6050000Y114725000D01*
X6050120Y114727450D01*
X6050480Y114729877D01*
X6051076Y114732257D01*
X6051903Y114734567D01*
X6052952Y114736785D01*
X6054213Y114738889D01*
X6055675Y114740860D01*
X6057322Y114742678D01*
X6059140Y114744325D01*
X6061111Y114745787D01*
X6063215Y114747048D01*
X6065433Y114748097D01*
X6067743Y114748924D01*
X6070123Y114749520D01*
X6072550Y114749880D01*
X6075000Y114750000D01*
X6125000Y114750000D01*
X6127450Y114749880D01*
X6127450Y114749880D01*
G37*
D14*
X6100000Y114700000D03*
D10*
G36*
X6127450Y114749880D02*
G01*
X6129877Y114749520D01*
X6132257Y114748924D01*
X6134567Y114748097D01*
X6136785Y114747048D01*
X6138889Y114745787D01*
X6140860Y114744325D01*
X6142678Y114742678D01*
X6144325Y114740860D01*
X6145787Y114738889D01*
X6147048Y114736785D01*
X6148097Y114734567D01*
X6148924Y114732257D01*
X6149520Y114729877D01*
X6149880Y114727450D01*
X6150000Y114725000D01*
X6150000Y114675000D01*
X6149880Y114672550D01*
X6149520Y114670123D01*
X6148924Y114667743D01*
X6148097Y114665433D01*
X6147048Y114663215D01*
X6145787Y114661111D01*
X6144325Y114659140D01*
X6142678Y114657322D01*
X6140860Y114655675D01*
X6138889Y114654213D01*
X6136785Y114652952D01*
X6134567Y114651903D01*
X6132257Y114651076D01*
X6129877Y114650480D01*
X6127450Y114650120D01*
X6125000Y114650000D01*
X6075000Y114650000D01*
X6072550Y114650120D01*
X6070123Y114650480D01*
X6067743Y114651076D01*
X6065433Y114651903D01*
X6063215Y114652952D01*
X6061111Y114654213D01*
X6059140Y114655675D01*
X6057322Y114657322D01*
X6055675Y114659140D01*
X6054213Y114661111D01*
X6052952Y114663215D01*
X6051903Y114665433D01*
X6051076Y114667743D01*
X6050480Y114670123D01*
X6050120Y114672550D01*
X6050000Y114675000D01*
X6050000Y114725000D01*
X6050120Y114727450D01*
X6050480Y114729877D01*
X6051076Y114732257D01*
X6051903Y114734567D01*
X6052952Y114736785D01*
X6054213Y114738889D01*
X6055675Y114740860D01*
X6057322Y114742678D01*
X6059140Y114744325D01*
X6061111Y114745787D01*
X6063215Y114747048D01*
X6065433Y114748097D01*
X6067743Y114748924D01*
X6070123Y114749520D01*
X6072550Y114749880D01*
X6075000Y114750000D01*
X6125000Y114750000D01*
X6127450Y114749880D01*
X6127450Y114749880D01*
G37*
D14*
X6100000Y114700000D03*
D15*
X9200000Y112990000D03*
X8400000Y112990000D03*
X9200000Y112990000D03*
X8400000Y112990000D03*
X2800000Y112990000D03*
X2800000Y112990000D03*
X3600000Y112990000D03*
X3600000Y112990000D03*
D16*
X7750000Y112990000D03*
X6750000Y112990000D03*
X7250000Y112990000D03*
X4750000Y112990000D03*
X4250000Y112990000D03*
X6250000Y112990000D03*
X5750000Y112990000D03*
X5250000Y112990000D03*
D17*
X11050000Y118200000D03*
X950000Y118200000D03*
D18*
X11050000Y114020000D03*
X950000Y114020000D03*
D19*
X91700000Y115550000D03*
X90600000Y115550000D03*
X89500000Y115550000D03*
X88400000Y115550000D03*
X87300000Y115550000D03*
X86200000Y115550000D03*
X85100000Y115550000D03*
X84000000Y115550000D03*
D20*
X81625000Y109850000D03*
X95375000Y109850000D03*
X95375000Y118150000D03*
X81625000Y118150000D03*
D21*
X77900000Y118050000D03*
X77900000Y113450000D03*
X77900000Y115750000D03*
D22*
X71600000Y115750000D03*
D10*
G36*
X9027691Y103648947D02*
G01*
X9048926Y103645797D01*
X9069750Y103640581D01*
X9089962Y103633349D01*
X9109368Y103624170D01*
X9127781Y103613134D01*
X9145024Y103600346D01*
X9160930Y103585930D01*
X9175346Y103570024D01*
X9188134Y103552781D01*
X9199170Y103534368D01*
X9208349Y103514962D01*
X9215581Y103494750D01*
X9220797Y103473926D01*
X9223947Y103452691D01*
X9225000Y103431250D01*
X9225000Y102993750D01*
X9223947Y102972309D01*
X9220797Y102951074D01*
X9215581Y102930250D01*
X9208349Y102910038D01*
X9199170Y102890632D01*
X9188134Y102872219D01*
X9175346Y102854976D01*
X9160930Y102839070D01*
X9145024Y102824654D01*
X9127781Y102811866D01*
X9109368Y102800830D01*
X9089962Y102791651D01*
X9069750Y102784419D01*
X9048926Y102779203D01*
X9027691Y102776053D01*
X9006250Y102775000D01*
X8493750Y102775000D01*
X8472309Y102776053D01*
X8451074Y102779203D01*
X8430250Y102784419D01*
X8410038Y102791651D01*
X8390632Y102800830D01*
X8372219Y102811866D01*
X8354976Y102824654D01*
X8339070Y102839070D01*
X8324654Y102854976D01*
X8311866Y102872219D01*
X8300830Y102890632D01*
X8291651Y102910038D01*
X8284419Y102930250D01*
X8279203Y102951074D01*
X8276053Y102972309D01*
X8275000Y102993750D01*
X8275000Y103431250D01*
X8276053Y103452691D01*
X8279203Y103473926D01*
X8284419Y103494750D01*
X8291651Y103514962D01*
X8300830Y103534368D01*
X8311866Y103552781D01*
X8324654Y103570024D01*
X8339070Y103585930D01*
X8354976Y103600346D01*
X8372219Y103613134D01*
X8390632Y103624170D01*
X8410038Y103633349D01*
X8430250Y103640581D01*
X8451074Y103645797D01*
X8472309Y103648947D01*
X8493750Y103650000D01*
X9006250Y103650000D01*
X9027691Y103648947D01*
X9027691Y103648947D01*
G37*
D13*
X8750000Y103212500D03*
D10*
G36*
X9027691Y105223947D02*
G01*
X9048926Y105220797D01*
X9069750Y105215581D01*
X9089962Y105208349D01*
X9109368Y105199170D01*
X9127781Y105188134D01*
X9145024Y105175346D01*
X9160930Y105160930D01*
X9175346Y105145024D01*
X9188134Y105127781D01*
X9199170Y105109368D01*
X9208349Y105089962D01*
X9215581Y105069750D01*
X9220797Y105048926D01*
X9223947Y105027691D01*
X9225000Y105006250D01*
X9225000Y104568750D01*
X9223947Y104547309D01*
X9220797Y104526074D01*
X9215581Y104505250D01*
X9208349Y104485038D01*
X9199170Y104465632D01*
X9188134Y104447219D01*
X9175346Y104429976D01*
X9160930Y104414070D01*
X9145024Y104399654D01*
X9127781Y104386866D01*
X9109368Y104375830D01*
X9089962Y104366651D01*
X9069750Y104359419D01*
X9048926Y104354203D01*
X9027691Y104351053D01*
X9006250Y104350000D01*
X8493750Y104350000D01*
X8472309Y104351053D01*
X8451074Y104354203D01*
X8430250Y104359419D01*
X8410038Y104366651D01*
X8390632Y104375830D01*
X8372219Y104386866D01*
X8354976Y104399654D01*
X8339070Y104414070D01*
X8324654Y104429976D01*
X8311866Y104447219D01*
X8300830Y104465632D01*
X8291651Y104485038D01*
X8284419Y104505250D01*
X8279203Y104526074D01*
X8276053Y104547309D01*
X8275000Y104568750D01*
X8275000Y105006250D01*
X8276053Y105027691D01*
X8279203Y105048926D01*
X8284419Y105069750D01*
X8291651Y105089962D01*
X8300830Y105109368D01*
X8311866Y105127781D01*
X8324654Y105145024D01*
X8339070Y105160930D01*
X8354976Y105175346D01*
X8372219Y105188134D01*
X8390632Y105199170D01*
X8410038Y105208349D01*
X8430250Y105215581D01*
X8451074Y105220797D01*
X8472309Y105223947D01*
X8493750Y105225000D01*
X9006250Y105225000D01*
X9027691Y105223947D01*
X9027691Y105223947D01*
G37*
D13*
X8750000Y104787500D03*
D23*
X94000000Y5650000D03*
X94000000Y2350000D03*
X72500000Y5650000D03*
X72500000Y2350000D03*
X44500000Y5150000D03*
X44500000Y1850000D03*
X22500000Y5650000D03*
X22500000Y2350000D03*
X94500000Y28650000D03*
X94500000Y25350000D03*
X72500000Y30150000D03*
X72500000Y26850000D03*
X45000000Y30150000D03*
X45000000Y26850000D03*
X22500000Y30150000D03*
X22500000Y26850000D03*
X94500000Y54650000D03*
X94500000Y51350000D03*
X72500000Y55150000D03*
X72500000Y51850000D03*
X45000000Y55650000D03*
X45000000Y52350000D03*
X22500000Y55150000D03*
X22500000Y51850000D03*
X96500000Y80150000D03*
X96500000Y76850000D03*
X72500000Y80150000D03*
X72500000Y76850000D03*
X44500000Y80150000D03*
X44500000Y76850000D03*
X22500000Y80150000D03*
X22500000Y76850000D03*
D24*
X43500000Y117255000D03*
X43500000Y115985000D03*
X43500000Y114715000D03*
X43500000Y113445000D03*
X43500000Y112175000D03*
X43500000Y110905000D03*
X43500000Y109635000D03*
X43500000Y108365000D03*
X43500000Y107095000D03*
X43500000Y105825000D03*
X43500000Y104555000D03*
X43500000Y103285000D03*
X43500000Y102015000D03*
X43500000Y100745000D03*
D25*
X46285000Y99745000D03*
X47555000Y99745000D03*
X48825000Y99745000D03*
X50095000Y99745000D03*
X51365000Y99745000D03*
X52635000Y99745000D03*
X53905000Y99745000D03*
X55175000Y99745000D03*
X56445000Y99745000D03*
X57715000Y99745000D03*
D24*
X60500000Y100745000D03*
X60500000Y102015000D03*
X60500000Y103285000D03*
X60500000Y104555000D03*
X60500000Y105825000D03*
X60500000Y107095000D03*
X60500000Y108365000D03*
X60500000Y109635000D03*
X60500000Y110905000D03*
X60500000Y112175000D03*
X60500000Y113445000D03*
X60500000Y114715000D03*
X60500000Y115985000D03*
X60500000Y117255000D03*
D26*
X53000000Y109755000D03*
D10*
G36*
X13219703Y109999278D02*
G01*
X13234264Y109997118D01*
X13248543Y109993541D01*
X13262403Y109988582D01*
X13275710Y109982288D01*
X13288336Y109974720D01*
X13300159Y109965952D01*
X13311066Y109956066D01*
X13320952Y109945159D01*
X13329720Y109933336D01*
X13337288Y109920710D01*
X13343582Y109907403D01*
X13348541Y109893543D01*
X13352118Y109879264D01*
X13354278Y109864703D01*
X13355000Y109850000D01*
X13355000Y108200000D01*
X13354278Y108185297D01*
X13352118Y108170736D01*
X13348541Y108156457D01*
X13343582Y108142597D01*
X13337288Y108129290D01*
X13329720Y108116664D01*
X13320952Y108104841D01*
X13311066Y108093934D01*
X13300159Y108084048D01*
X13288336Y108075280D01*
X13275710Y108067712D01*
X13262403Y108061418D01*
X13248543Y108056459D01*
X13234264Y108052882D01*
X13219703Y108050722D01*
X13205000Y108050000D01*
X12905000Y108050000D01*
X12890297Y108050722D01*
X12875736Y108052882D01*
X12861457Y108056459D01*
X12847597Y108061418D01*
X12834290Y108067712D01*
X12821664Y108075280D01*
X12809841Y108084048D01*
X12798934Y108093934D01*
X12789048Y108104841D01*
X12780280Y108116664D01*
X12772712Y108129290D01*
X12766418Y108142597D01*
X12761459Y108156457D01*
X12757882Y108170736D01*
X12755722Y108185297D01*
X12755000Y108200000D01*
X12755000Y109850000D01*
X12755722Y109864703D01*
X12757882Y109879264D01*
X12761459Y109893543D01*
X12766418Y109907403D01*
X12772712Y109920710D01*
X12780280Y109933336D01*
X12789048Y109945159D01*
X12798934Y109956066D01*
X12809841Y109965952D01*
X12821664Y109974720D01*
X12834290Y109982288D01*
X12847597Y109988582D01*
X12861457Y109993541D01*
X12875736Y109997118D01*
X12890297Y109999278D01*
X12905000Y110000000D01*
X13205000Y110000000D01*
X13219703Y109999278D01*
X13219703Y109999278D01*
G37*
D27*
X13055000Y109025000D03*
D10*
G36*
X14489703Y109999278D02*
G01*
X14504264Y109997118D01*
X14518543Y109993541D01*
X14532403Y109988582D01*
X14545710Y109982288D01*
X14558336Y109974720D01*
X14570159Y109965952D01*
X14581066Y109956066D01*
X14590952Y109945159D01*
X14599720Y109933336D01*
X14607288Y109920710D01*
X14613582Y109907403D01*
X14618541Y109893543D01*
X14622118Y109879264D01*
X14624278Y109864703D01*
X14625000Y109850000D01*
X14625000Y108200000D01*
X14624278Y108185297D01*
X14622118Y108170736D01*
X14618541Y108156457D01*
X14613582Y108142597D01*
X14607288Y108129290D01*
X14599720Y108116664D01*
X14590952Y108104841D01*
X14581066Y108093934D01*
X14570159Y108084048D01*
X14558336Y108075280D01*
X14545710Y108067712D01*
X14532403Y108061418D01*
X14518543Y108056459D01*
X14504264Y108052882D01*
X14489703Y108050722D01*
X14475000Y108050000D01*
X14175000Y108050000D01*
X14160297Y108050722D01*
X14145736Y108052882D01*
X14131457Y108056459D01*
X14117597Y108061418D01*
X14104290Y108067712D01*
X14091664Y108075280D01*
X14079841Y108084048D01*
X14068934Y108093934D01*
X14059048Y108104841D01*
X14050280Y108116664D01*
X14042712Y108129290D01*
X14036418Y108142597D01*
X14031459Y108156457D01*
X14027882Y108170736D01*
X14025722Y108185297D01*
X14025000Y108200000D01*
X14025000Y109850000D01*
X14025722Y109864703D01*
X14027882Y109879264D01*
X14031459Y109893543D01*
X14036418Y109907403D01*
X14042712Y109920710D01*
X14050280Y109933336D01*
X14059048Y109945159D01*
X14068934Y109956066D01*
X14079841Y109965952D01*
X14091664Y109974720D01*
X14104290Y109982288D01*
X14117597Y109988582D01*
X14131457Y109993541D01*
X14145736Y109997118D01*
X14160297Y109999278D01*
X14175000Y110000000D01*
X14475000Y110000000D01*
X14489703Y109999278D01*
X14489703Y109999278D01*
G37*
D27*
X14325000Y109025000D03*
D10*
G36*
X15759703Y109999278D02*
G01*
X15774264Y109997118D01*
X15788543Y109993541D01*
X15802403Y109988582D01*
X15815710Y109982288D01*
X15828336Y109974720D01*
X15840159Y109965952D01*
X15851066Y109956066D01*
X15860952Y109945159D01*
X15869720Y109933336D01*
X15877288Y109920710D01*
X15883582Y109907403D01*
X15888541Y109893543D01*
X15892118Y109879264D01*
X15894278Y109864703D01*
X15895000Y109850000D01*
X15895000Y108200000D01*
X15894278Y108185297D01*
X15892118Y108170736D01*
X15888541Y108156457D01*
X15883582Y108142597D01*
X15877288Y108129290D01*
X15869720Y108116664D01*
X15860952Y108104841D01*
X15851066Y108093934D01*
X15840159Y108084048D01*
X15828336Y108075280D01*
X15815710Y108067712D01*
X15802403Y108061418D01*
X15788543Y108056459D01*
X15774264Y108052882D01*
X15759703Y108050722D01*
X15745000Y108050000D01*
X15445000Y108050000D01*
X15430297Y108050722D01*
X15415736Y108052882D01*
X15401457Y108056459D01*
X15387597Y108061418D01*
X15374290Y108067712D01*
X15361664Y108075280D01*
X15349841Y108084048D01*
X15338934Y108093934D01*
X15329048Y108104841D01*
X15320280Y108116664D01*
X15312712Y108129290D01*
X15306418Y108142597D01*
X15301459Y108156457D01*
X15297882Y108170736D01*
X15295722Y108185297D01*
X15295000Y108200000D01*
X15295000Y109850000D01*
X15295722Y109864703D01*
X15297882Y109879264D01*
X15301459Y109893543D01*
X15306418Y109907403D01*
X15312712Y109920710D01*
X15320280Y109933336D01*
X15329048Y109945159D01*
X15338934Y109956066D01*
X15349841Y109965952D01*
X15361664Y109974720D01*
X15374290Y109982288D01*
X15387597Y109988582D01*
X15401457Y109993541D01*
X15415736Y109997118D01*
X15430297Y109999278D01*
X15445000Y110000000D01*
X15745000Y110000000D01*
X15759703Y109999278D01*
X15759703Y109999278D01*
G37*
D27*
X15595000Y109025000D03*
D10*
G36*
X17029703Y109999278D02*
G01*
X17044264Y109997118D01*
X17058543Y109993541D01*
X17072403Y109988582D01*
X17085710Y109982288D01*
X17098336Y109974720D01*
X17110159Y109965952D01*
X17121066Y109956066D01*
X17130952Y109945159D01*
X17139720Y109933336D01*
X17147288Y109920710D01*
X17153582Y109907403D01*
X17158541Y109893543D01*
X17162118Y109879264D01*
X17164278Y109864703D01*
X17165000Y109850000D01*
X17165000Y108200000D01*
X17164278Y108185297D01*
X17162118Y108170736D01*
X17158541Y108156457D01*
X17153582Y108142597D01*
X17147288Y108129290D01*
X17139720Y108116664D01*
X17130952Y108104841D01*
X17121066Y108093934D01*
X17110159Y108084048D01*
X17098336Y108075280D01*
X17085710Y108067712D01*
X17072403Y108061418D01*
X17058543Y108056459D01*
X17044264Y108052882D01*
X17029703Y108050722D01*
X17015000Y108050000D01*
X16715000Y108050000D01*
X16700297Y108050722D01*
X16685736Y108052882D01*
X16671457Y108056459D01*
X16657597Y108061418D01*
X16644290Y108067712D01*
X16631664Y108075280D01*
X16619841Y108084048D01*
X16608934Y108093934D01*
X16599048Y108104841D01*
X16590280Y108116664D01*
X16582712Y108129290D01*
X16576418Y108142597D01*
X16571459Y108156457D01*
X16567882Y108170736D01*
X16565722Y108185297D01*
X16565000Y108200000D01*
X16565000Y109850000D01*
X16565722Y109864703D01*
X16567882Y109879264D01*
X16571459Y109893543D01*
X16576418Y109907403D01*
X16582712Y109920710D01*
X16590280Y109933336D01*
X16599048Y109945159D01*
X16608934Y109956066D01*
X16619841Y109965952D01*
X16631664Y109974720D01*
X16644290Y109982288D01*
X16657597Y109988582D01*
X16671457Y109993541D01*
X16685736Y109997118D01*
X16700297Y109999278D01*
X16715000Y110000000D01*
X17015000Y110000000D01*
X17029703Y109999278D01*
X17029703Y109999278D01*
G37*
D27*
X16865000Y109025000D03*
D10*
G36*
X18299703Y109999278D02*
G01*
X18314264Y109997118D01*
X18328543Y109993541D01*
X18342403Y109988582D01*
X18355710Y109982288D01*
X18368336Y109974720D01*
X18380159Y109965952D01*
X18391066Y109956066D01*
X18400952Y109945159D01*
X18409720Y109933336D01*
X18417288Y109920710D01*
X18423582Y109907403D01*
X18428541Y109893543D01*
X18432118Y109879264D01*
X18434278Y109864703D01*
X18435000Y109850000D01*
X18435000Y108200000D01*
X18434278Y108185297D01*
X18432118Y108170736D01*
X18428541Y108156457D01*
X18423582Y108142597D01*
X18417288Y108129290D01*
X18409720Y108116664D01*
X18400952Y108104841D01*
X18391066Y108093934D01*
X18380159Y108084048D01*
X18368336Y108075280D01*
X18355710Y108067712D01*
X18342403Y108061418D01*
X18328543Y108056459D01*
X18314264Y108052882D01*
X18299703Y108050722D01*
X18285000Y108050000D01*
X17985000Y108050000D01*
X17970297Y108050722D01*
X17955736Y108052882D01*
X17941457Y108056459D01*
X17927597Y108061418D01*
X17914290Y108067712D01*
X17901664Y108075280D01*
X17889841Y108084048D01*
X17878934Y108093934D01*
X17869048Y108104841D01*
X17860280Y108116664D01*
X17852712Y108129290D01*
X17846418Y108142597D01*
X17841459Y108156457D01*
X17837882Y108170736D01*
X17835722Y108185297D01*
X17835000Y108200000D01*
X17835000Y109850000D01*
X17835722Y109864703D01*
X17837882Y109879264D01*
X17841459Y109893543D01*
X17846418Y109907403D01*
X17852712Y109920710D01*
X17860280Y109933336D01*
X17869048Y109945159D01*
X17878934Y109956066D01*
X17889841Y109965952D01*
X17901664Y109974720D01*
X17914290Y109982288D01*
X17927597Y109988582D01*
X17941457Y109993541D01*
X17955736Y109997118D01*
X17970297Y109999278D01*
X17985000Y110000000D01*
X18285000Y110000000D01*
X18299703Y109999278D01*
X18299703Y109999278D01*
G37*
D27*
X18135000Y109025000D03*
D10*
G36*
X19569703Y109999278D02*
G01*
X19584264Y109997118D01*
X19598543Y109993541D01*
X19612403Y109988582D01*
X19625710Y109982288D01*
X19638336Y109974720D01*
X19650159Y109965952D01*
X19661066Y109956066D01*
X19670952Y109945159D01*
X19679720Y109933336D01*
X19687288Y109920710D01*
X19693582Y109907403D01*
X19698541Y109893543D01*
X19702118Y109879264D01*
X19704278Y109864703D01*
X19705000Y109850000D01*
X19705000Y108200000D01*
X19704278Y108185297D01*
X19702118Y108170736D01*
X19698541Y108156457D01*
X19693582Y108142597D01*
X19687288Y108129290D01*
X19679720Y108116664D01*
X19670952Y108104841D01*
X19661066Y108093934D01*
X19650159Y108084048D01*
X19638336Y108075280D01*
X19625710Y108067712D01*
X19612403Y108061418D01*
X19598543Y108056459D01*
X19584264Y108052882D01*
X19569703Y108050722D01*
X19555000Y108050000D01*
X19255000Y108050000D01*
X19240297Y108050722D01*
X19225736Y108052882D01*
X19211457Y108056459D01*
X19197597Y108061418D01*
X19184290Y108067712D01*
X19171664Y108075280D01*
X19159841Y108084048D01*
X19148934Y108093934D01*
X19139048Y108104841D01*
X19130280Y108116664D01*
X19122712Y108129290D01*
X19116418Y108142597D01*
X19111459Y108156457D01*
X19107882Y108170736D01*
X19105722Y108185297D01*
X19105000Y108200000D01*
X19105000Y109850000D01*
X19105722Y109864703D01*
X19107882Y109879264D01*
X19111459Y109893543D01*
X19116418Y109907403D01*
X19122712Y109920710D01*
X19130280Y109933336D01*
X19139048Y109945159D01*
X19148934Y109956066D01*
X19159841Y109965952D01*
X19171664Y109974720D01*
X19184290Y109982288D01*
X19197597Y109988582D01*
X19211457Y109993541D01*
X19225736Y109997118D01*
X19240297Y109999278D01*
X19255000Y110000000D01*
X19555000Y110000000D01*
X19569703Y109999278D01*
X19569703Y109999278D01*
G37*
D27*
X19405000Y109025000D03*
D10*
G36*
X20839703Y109999278D02*
G01*
X20854264Y109997118D01*
X20868543Y109993541D01*
X20882403Y109988582D01*
X20895710Y109982288D01*
X20908336Y109974720D01*
X20920159Y109965952D01*
X20931066Y109956066D01*
X20940952Y109945159D01*
X20949720Y109933336D01*
X20957288Y109920710D01*
X20963582Y109907403D01*
X20968541Y109893543D01*
X20972118Y109879264D01*
X20974278Y109864703D01*
X20975000Y109850000D01*
X20975000Y108200000D01*
X20974278Y108185297D01*
X20972118Y108170736D01*
X20968541Y108156457D01*
X20963582Y108142597D01*
X20957288Y108129290D01*
X20949720Y108116664D01*
X20940952Y108104841D01*
X20931066Y108093934D01*
X20920159Y108084048D01*
X20908336Y108075280D01*
X20895710Y108067712D01*
X20882403Y108061418D01*
X20868543Y108056459D01*
X20854264Y108052882D01*
X20839703Y108050722D01*
X20825000Y108050000D01*
X20525000Y108050000D01*
X20510297Y108050722D01*
X20495736Y108052882D01*
X20481457Y108056459D01*
X20467597Y108061418D01*
X20454290Y108067712D01*
X20441664Y108075280D01*
X20429841Y108084048D01*
X20418934Y108093934D01*
X20409048Y108104841D01*
X20400280Y108116664D01*
X20392712Y108129290D01*
X20386418Y108142597D01*
X20381459Y108156457D01*
X20377882Y108170736D01*
X20375722Y108185297D01*
X20375000Y108200000D01*
X20375000Y109850000D01*
X20375722Y109864703D01*
X20377882Y109879264D01*
X20381459Y109893543D01*
X20386418Y109907403D01*
X20392712Y109920710D01*
X20400280Y109933336D01*
X20409048Y109945159D01*
X20418934Y109956066D01*
X20429841Y109965952D01*
X20441664Y109974720D01*
X20454290Y109982288D01*
X20467597Y109988582D01*
X20481457Y109993541D01*
X20495736Y109997118D01*
X20510297Y109999278D01*
X20525000Y110000000D01*
X20825000Y110000000D01*
X20839703Y109999278D01*
X20839703Y109999278D01*
G37*
D27*
X20675000Y109025000D03*
D10*
G36*
X22109703Y109999278D02*
G01*
X22124264Y109997118D01*
X22138543Y109993541D01*
X22152403Y109988582D01*
X22165710Y109982288D01*
X22178336Y109974720D01*
X22190159Y109965952D01*
X22201066Y109956066D01*
X22210952Y109945159D01*
X22219720Y109933336D01*
X22227288Y109920710D01*
X22233582Y109907403D01*
X22238541Y109893543D01*
X22242118Y109879264D01*
X22244278Y109864703D01*
X22245000Y109850000D01*
X22245000Y108200000D01*
X22244278Y108185297D01*
X22242118Y108170736D01*
X22238541Y108156457D01*
X22233582Y108142597D01*
X22227288Y108129290D01*
X22219720Y108116664D01*
X22210952Y108104841D01*
X22201066Y108093934D01*
X22190159Y108084048D01*
X22178336Y108075280D01*
X22165710Y108067712D01*
X22152403Y108061418D01*
X22138543Y108056459D01*
X22124264Y108052882D01*
X22109703Y108050722D01*
X22095000Y108050000D01*
X21795000Y108050000D01*
X21780297Y108050722D01*
X21765736Y108052882D01*
X21751457Y108056459D01*
X21737597Y108061418D01*
X21724290Y108067712D01*
X21711664Y108075280D01*
X21699841Y108084048D01*
X21688934Y108093934D01*
X21679048Y108104841D01*
X21670280Y108116664D01*
X21662712Y108129290D01*
X21656418Y108142597D01*
X21651459Y108156457D01*
X21647882Y108170736D01*
X21645722Y108185297D01*
X21645000Y108200000D01*
X21645000Y109850000D01*
X21645722Y109864703D01*
X21647882Y109879264D01*
X21651459Y109893543D01*
X21656418Y109907403D01*
X21662712Y109920710D01*
X21670280Y109933336D01*
X21679048Y109945159D01*
X21688934Y109956066D01*
X21699841Y109965952D01*
X21711664Y109974720D01*
X21724290Y109982288D01*
X21737597Y109988582D01*
X21751457Y109993541D01*
X21765736Y109997118D01*
X21780297Y109999278D01*
X21795000Y110000000D01*
X22095000Y110000000D01*
X22109703Y109999278D01*
X22109703Y109999278D01*
G37*
D27*
X21945000Y109025000D03*
D10*
G36*
X22109703Y114949278D02*
G01*
X22124264Y114947118D01*
X22138543Y114943541D01*
X22152403Y114938582D01*
X22165710Y114932288D01*
X22178336Y114924720D01*
X22190159Y114915952D01*
X22201066Y114906066D01*
X22210952Y114895159D01*
X22219720Y114883336D01*
X22227288Y114870710D01*
X22233582Y114857403D01*
X22238541Y114843543D01*
X22242118Y114829264D01*
X22244278Y114814703D01*
X22245000Y114800000D01*
X22245000Y113150000D01*
X22244278Y113135297D01*
X22242118Y113120736D01*
X22238541Y113106457D01*
X22233582Y113092597D01*
X22227288Y113079290D01*
X22219720Y113066664D01*
X22210952Y113054841D01*
X22201066Y113043934D01*
X22190159Y113034048D01*
X22178336Y113025280D01*
X22165710Y113017712D01*
X22152403Y113011418D01*
X22138543Y113006459D01*
X22124264Y113002882D01*
X22109703Y113000722D01*
X22095000Y113000000D01*
X21795000Y113000000D01*
X21780297Y113000722D01*
X21765736Y113002882D01*
X21751457Y113006459D01*
X21737597Y113011418D01*
X21724290Y113017712D01*
X21711664Y113025280D01*
X21699841Y113034048D01*
X21688934Y113043934D01*
X21679048Y113054841D01*
X21670280Y113066664D01*
X21662712Y113079290D01*
X21656418Y113092597D01*
X21651459Y113106457D01*
X21647882Y113120736D01*
X21645722Y113135297D01*
X21645000Y113150000D01*
X21645000Y114800000D01*
X21645722Y114814703D01*
X21647882Y114829264D01*
X21651459Y114843543D01*
X21656418Y114857403D01*
X21662712Y114870710D01*
X21670280Y114883336D01*
X21679048Y114895159D01*
X21688934Y114906066D01*
X21699841Y114915952D01*
X21711664Y114924720D01*
X21724290Y114932288D01*
X21737597Y114938582D01*
X21751457Y114943541D01*
X21765736Y114947118D01*
X21780297Y114949278D01*
X21795000Y114950000D01*
X22095000Y114950000D01*
X22109703Y114949278D01*
X22109703Y114949278D01*
G37*
D27*
X21945000Y113975000D03*
D10*
G36*
X20839703Y114949278D02*
G01*
X20854264Y114947118D01*
X20868543Y114943541D01*
X20882403Y114938582D01*
X20895710Y114932288D01*
X20908336Y114924720D01*
X20920159Y114915952D01*
X20931066Y114906066D01*
X20940952Y114895159D01*
X20949720Y114883336D01*
X20957288Y114870710D01*
X20963582Y114857403D01*
X20968541Y114843543D01*
X20972118Y114829264D01*
X20974278Y114814703D01*
X20975000Y114800000D01*
X20975000Y113150000D01*
X20974278Y113135297D01*
X20972118Y113120736D01*
X20968541Y113106457D01*
X20963582Y113092597D01*
X20957288Y113079290D01*
X20949720Y113066664D01*
X20940952Y113054841D01*
X20931066Y113043934D01*
X20920159Y113034048D01*
X20908336Y113025280D01*
X20895710Y113017712D01*
X20882403Y113011418D01*
X20868543Y113006459D01*
X20854264Y113002882D01*
X20839703Y113000722D01*
X20825000Y113000000D01*
X20525000Y113000000D01*
X20510297Y113000722D01*
X20495736Y113002882D01*
X20481457Y113006459D01*
X20467597Y113011418D01*
X20454290Y113017712D01*
X20441664Y113025280D01*
X20429841Y113034048D01*
X20418934Y113043934D01*
X20409048Y113054841D01*
X20400280Y113066664D01*
X20392712Y113079290D01*
X20386418Y113092597D01*
X20381459Y113106457D01*
X20377882Y113120736D01*
X20375722Y113135297D01*
X20375000Y113150000D01*
X20375000Y114800000D01*
X20375722Y114814703D01*
X20377882Y114829264D01*
X20381459Y114843543D01*
X20386418Y114857403D01*
X20392712Y114870710D01*
X20400280Y114883336D01*
X20409048Y114895159D01*
X20418934Y114906066D01*
X20429841Y114915952D01*
X20441664Y114924720D01*
X20454290Y114932288D01*
X20467597Y114938582D01*
X20481457Y114943541D01*
X20495736Y114947118D01*
X20510297Y114949278D01*
X20525000Y114950000D01*
X20825000Y114950000D01*
X20839703Y114949278D01*
X20839703Y114949278D01*
G37*
D27*
X20675000Y113975000D03*
D10*
G36*
X19569703Y114949278D02*
G01*
X19584264Y114947118D01*
X19598543Y114943541D01*
X19612403Y114938582D01*
X19625710Y114932288D01*
X19638336Y114924720D01*
X19650159Y114915952D01*
X19661066Y114906066D01*
X19670952Y114895159D01*
X19679720Y114883336D01*
X19687288Y114870710D01*
X19693582Y114857403D01*
X19698541Y114843543D01*
X19702118Y114829264D01*
X19704278Y114814703D01*
X19705000Y114800000D01*
X19705000Y113150000D01*
X19704278Y113135297D01*
X19702118Y113120736D01*
X19698541Y113106457D01*
X19693582Y113092597D01*
X19687288Y113079290D01*
X19679720Y113066664D01*
X19670952Y113054841D01*
X19661066Y113043934D01*
X19650159Y113034048D01*
X19638336Y113025280D01*
X19625710Y113017712D01*
X19612403Y113011418D01*
X19598543Y113006459D01*
X19584264Y113002882D01*
X19569703Y113000722D01*
X19555000Y113000000D01*
X19255000Y113000000D01*
X19240297Y113000722D01*
X19225736Y113002882D01*
X19211457Y113006459D01*
X19197597Y113011418D01*
X19184290Y113017712D01*
X19171664Y113025280D01*
X19159841Y113034048D01*
X19148934Y113043934D01*
X19139048Y113054841D01*
X19130280Y113066664D01*
X19122712Y113079290D01*
X19116418Y113092597D01*
X19111459Y113106457D01*
X19107882Y113120736D01*
X19105722Y113135297D01*
X19105000Y113150000D01*
X19105000Y114800000D01*
X19105722Y114814703D01*
X19107882Y114829264D01*
X19111459Y114843543D01*
X19116418Y114857403D01*
X19122712Y114870710D01*
X19130280Y114883336D01*
X19139048Y114895159D01*
X19148934Y114906066D01*
X19159841Y114915952D01*
X19171664Y114924720D01*
X19184290Y114932288D01*
X19197597Y114938582D01*
X19211457Y114943541D01*
X19225736Y114947118D01*
X19240297Y114949278D01*
X19255000Y114950000D01*
X19555000Y114950000D01*
X19569703Y114949278D01*
X19569703Y114949278D01*
G37*
D27*
X19405000Y113975000D03*
D10*
G36*
X18299703Y114949278D02*
G01*
X18314264Y114947118D01*
X18328543Y114943541D01*
X18342403Y114938582D01*
X18355710Y114932288D01*
X18368336Y114924720D01*
X18380159Y114915952D01*
X18391066Y114906066D01*
X18400952Y114895159D01*
X18409720Y114883336D01*
X18417288Y114870710D01*
X18423582Y114857403D01*
X18428541Y114843543D01*
X18432118Y114829264D01*
X18434278Y114814703D01*
X18435000Y114800000D01*
X18435000Y113150000D01*
X18434278Y113135297D01*
X18432118Y113120736D01*
X18428541Y113106457D01*
X18423582Y113092597D01*
X18417288Y113079290D01*
X18409720Y113066664D01*
X18400952Y113054841D01*
X18391066Y113043934D01*
X18380159Y113034048D01*
X18368336Y113025280D01*
X18355710Y113017712D01*
X18342403Y113011418D01*
X18328543Y113006459D01*
X18314264Y113002882D01*
X18299703Y113000722D01*
X18285000Y113000000D01*
X17985000Y113000000D01*
X17970297Y113000722D01*
X17955736Y113002882D01*
X17941457Y113006459D01*
X17927597Y113011418D01*
X17914290Y113017712D01*
X17901664Y113025280D01*
X17889841Y113034048D01*
X17878934Y113043934D01*
X17869048Y113054841D01*
X17860280Y113066664D01*
X17852712Y113079290D01*
X17846418Y113092597D01*
X17841459Y113106457D01*
X17837882Y113120736D01*
X17835722Y113135297D01*
X17835000Y113150000D01*
X17835000Y114800000D01*
X17835722Y114814703D01*
X17837882Y114829264D01*
X17841459Y114843543D01*
X17846418Y114857403D01*
X17852712Y114870710D01*
X17860280Y114883336D01*
X17869048Y114895159D01*
X17878934Y114906066D01*
X17889841Y114915952D01*
X17901664Y114924720D01*
X17914290Y114932288D01*
X17927597Y114938582D01*
X17941457Y114943541D01*
X17955736Y114947118D01*
X17970297Y114949278D01*
X17985000Y114950000D01*
X18285000Y114950000D01*
X18299703Y114949278D01*
X18299703Y114949278D01*
G37*
D27*
X18135000Y113975000D03*
D10*
G36*
X17029703Y114949278D02*
G01*
X17044264Y114947118D01*
X17058543Y114943541D01*
X17072403Y114938582D01*
X17085710Y114932288D01*
X17098336Y114924720D01*
X17110159Y114915952D01*
X17121066Y114906066D01*
X17130952Y114895159D01*
X17139720Y114883336D01*
X17147288Y114870710D01*
X17153582Y114857403D01*
X17158541Y114843543D01*
X17162118Y114829264D01*
X17164278Y114814703D01*
X17165000Y114800000D01*
X17165000Y113150000D01*
X17164278Y113135297D01*
X17162118Y113120736D01*
X17158541Y113106457D01*
X17153582Y113092597D01*
X17147288Y113079290D01*
X17139720Y113066664D01*
X17130952Y113054841D01*
X17121066Y113043934D01*
X17110159Y113034048D01*
X17098336Y113025280D01*
X17085710Y113017712D01*
X17072403Y113011418D01*
X17058543Y113006459D01*
X17044264Y113002882D01*
X17029703Y113000722D01*
X17015000Y113000000D01*
X16715000Y113000000D01*
X16700297Y113000722D01*
X16685736Y113002882D01*
X16671457Y113006459D01*
X16657597Y113011418D01*
X16644290Y113017712D01*
X16631664Y113025280D01*
X16619841Y113034048D01*
X16608934Y113043934D01*
X16599048Y113054841D01*
X16590280Y113066664D01*
X16582712Y113079290D01*
X16576418Y113092597D01*
X16571459Y113106457D01*
X16567882Y113120736D01*
X16565722Y113135297D01*
X16565000Y113150000D01*
X16565000Y114800000D01*
X16565722Y114814703D01*
X16567882Y114829264D01*
X16571459Y114843543D01*
X16576418Y114857403D01*
X16582712Y114870710D01*
X16590280Y114883336D01*
X16599048Y114895159D01*
X16608934Y114906066D01*
X16619841Y114915952D01*
X16631664Y114924720D01*
X16644290Y114932288D01*
X16657597Y114938582D01*
X16671457Y114943541D01*
X16685736Y114947118D01*
X16700297Y114949278D01*
X16715000Y114950000D01*
X17015000Y114950000D01*
X17029703Y114949278D01*
X17029703Y114949278D01*
G37*
D27*
X16865000Y113975000D03*
D10*
G36*
X15759703Y114949278D02*
G01*
X15774264Y114947118D01*
X15788543Y114943541D01*
X15802403Y114938582D01*
X15815710Y114932288D01*
X15828336Y114924720D01*
X15840159Y114915952D01*
X15851066Y114906066D01*
X15860952Y114895159D01*
X15869720Y114883336D01*
X15877288Y114870710D01*
X15883582Y114857403D01*
X15888541Y114843543D01*
X15892118Y114829264D01*
X15894278Y114814703D01*
X15895000Y114800000D01*
X15895000Y113150000D01*
X15894278Y113135297D01*
X15892118Y113120736D01*
X15888541Y113106457D01*
X15883582Y113092597D01*
X15877288Y113079290D01*
X15869720Y113066664D01*
X15860952Y113054841D01*
X15851066Y113043934D01*
X15840159Y113034048D01*
X15828336Y113025280D01*
X15815710Y113017712D01*
X15802403Y113011418D01*
X15788543Y113006459D01*
X15774264Y113002882D01*
X15759703Y113000722D01*
X15745000Y113000000D01*
X15445000Y113000000D01*
X15430297Y113000722D01*
X15415736Y113002882D01*
X15401457Y113006459D01*
X15387597Y113011418D01*
X15374290Y113017712D01*
X15361664Y113025280D01*
X15349841Y113034048D01*
X15338934Y113043934D01*
X15329048Y113054841D01*
X15320280Y113066664D01*
X15312712Y113079290D01*
X15306418Y113092597D01*
X15301459Y113106457D01*
X15297882Y113120736D01*
X15295722Y113135297D01*
X15295000Y113150000D01*
X15295000Y114800000D01*
X15295722Y114814703D01*
X15297882Y114829264D01*
X15301459Y114843543D01*
X15306418Y114857403D01*
X15312712Y114870710D01*
X15320280Y114883336D01*
X15329048Y114895159D01*
X15338934Y114906066D01*
X15349841Y114915952D01*
X15361664Y114924720D01*
X15374290Y114932288D01*
X15387597Y114938582D01*
X15401457Y114943541D01*
X15415736Y114947118D01*
X15430297Y114949278D01*
X15445000Y114950000D01*
X15745000Y114950000D01*
X15759703Y114949278D01*
X15759703Y114949278D01*
G37*
D27*
X15595000Y113975000D03*
D10*
G36*
X14489703Y114949278D02*
G01*
X14504264Y114947118D01*
X14518543Y114943541D01*
X14532403Y114938582D01*
X14545710Y114932288D01*
X14558336Y114924720D01*
X14570159Y114915952D01*
X14581066Y114906066D01*
X14590952Y114895159D01*
X14599720Y114883336D01*
X14607288Y114870710D01*
X14613582Y114857403D01*
X14618541Y114843543D01*
X14622118Y114829264D01*
X14624278Y114814703D01*
X14625000Y114800000D01*
X14625000Y113150000D01*
X14624278Y113135297D01*
X14622118Y113120736D01*
X14618541Y113106457D01*
X14613582Y113092597D01*
X14607288Y113079290D01*
X14599720Y113066664D01*
X14590952Y113054841D01*
X14581066Y113043934D01*
X14570159Y113034048D01*
X14558336Y113025280D01*
X14545710Y113017712D01*
X14532403Y113011418D01*
X14518543Y113006459D01*
X14504264Y113002882D01*
X14489703Y113000722D01*
X14475000Y113000000D01*
X14175000Y113000000D01*
X14160297Y113000722D01*
X14145736Y113002882D01*
X14131457Y113006459D01*
X14117597Y113011418D01*
X14104290Y113017712D01*
X14091664Y113025280D01*
X14079841Y113034048D01*
X14068934Y113043934D01*
X14059048Y113054841D01*
X14050280Y113066664D01*
X14042712Y113079290D01*
X14036418Y113092597D01*
X14031459Y113106457D01*
X14027882Y113120736D01*
X14025722Y113135297D01*
X14025000Y113150000D01*
X14025000Y114800000D01*
X14025722Y114814703D01*
X14027882Y114829264D01*
X14031459Y114843543D01*
X14036418Y114857403D01*
X14042712Y114870710D01*
X14050280Y114883336D01*
X14059048Y114895159D01*
X14068934Y114906066D01*
X14079841Y114915952D01*
X14091664Y114924720D01*
X14104290Y114932288D01*
X14117597Y114938582D01*
X14131457Y114943541D01*
X14145736Y114947118D01*
X14160297Y114949278D01*
X14175000Y114950000D01*
X14475000Y114950000D01*
X14489703Y114949278D01*
X14489703Y114949278D01*
G37*
D27*
X14325000Y113975000D03*
D10*
G36*
X13219703Y114949278D02*
G01*
X13234264Y114947118D01*
X13248543Y114943541D01*
X13262403Y114938582D01*
X13275710Y114932288D01*
X13288336Y114924720D01*
X13300159Y114915952D01*
X13311066Y114906066D01*
X13320952Y114895159D01*
X13329720Y114883336D01*
X13337288Y114870710D01*
X13343582Y114857403D01*
X13348541Y114843543D01*
X13352118Y114829264D01*
X13354278Y114814703D01*
X13355000Y114800000D01*
X13355000Y113150000D01*
X13354278Y113135297D01*
X13352118Y113120736D01*
X13348541Y113106457D01*
X13343582Y113092597D01*
X13337288Y113079290D01*
X13329720Y113066664D01*
X13320952Y113054841D01*
X13311066Y113043934D01*
X13300159Y113034048D01*
X13288336Y113025280D01*
X13275710Y113017712D01*
X13262403Y113011418D01*
X13248543Y113006459D01*
X13234264Y113002882D01*
X13219703Y113000722D01*
X13205000Y113000000D01*
X12905000Y113000000D01*
X12890297Y113000722D01*
X12875736Y113002882D01*
X12861457Y113006459D01*
X12847597Y113011418D01*
X12834290Y113017712D01*
X12821664Y113025280D01*
X12809841Y113034048D01*
X12798934Y113043934D01*
X12789048Y113054841D01*
X12780280Y113066664D01*
X12772712Y113079290D01*
X12766418Y113092597D01*
X12761459Y113106457D01*
X12757882Y113120736D01*
X12755722Y113135297D01*
X12755000Y113150000D01*
X12755000Y114800000D01*
X12755722Y114814703D01*
X12757882Y114829264D01*
X12761459Y114843543D01*
X12766418Y114857403D01*
X12772712Y114870710D01*
X12780280Y114883336D01*
X12789048Y114895159D01*
X12798934Y114906066D01*
X12809841Y114915952D01*
X12821664Y114924720D01*
X12834290Y114932288D01*
X12847597Y114938582D01*
X12861457Y114943541D01*
X12875736Y114947118D01*
X12890297Y114949278D01*
X12905000Y114950000D01*
X13205000Y114950000D01*
X13219703Y114949278D01*
X13219703Y114949278D01*
G37*
D27*
X13055000Y113975000D03*
D10*
G36*
X70777691Y109713947D02*
G01*
X70798926Y109710797D01*
X70819750Y109705581D01*
X70839962Y109698349D01*
X70859368Y109689170D01*
X70877781Y109678134D01*
X70895024Y109665346D01*
X70910930Y109650930D01*
X70925346Y109635024D01*
X70938134Y109617781D01*
X70949170Y109599368D01*
X70958349Y109579962D01*
X70965581Y109559750D01*
X70970797Y109538926D01*
X70973947Y109517691D01*
X70975000Y109496250D01*
X70975000Y109058750D01*
X70973947Y109037309D01*
X70970797Y109016074D01*
X70965581Y108995250D01*
X70958349Y108975038D01*
X70949170Y108955632D01*
X70938134Y108937219D01*
X70925346Y108919976D01*
X70910930Y108904070D01*
X70895024Y108889654D01*
X70877781Y108876866D01*
X70859368Y108865830D01*
X70839962Y108856651D01*
X70819750Y108849419D01*
X70798926Y108844203D01*
X70777691Y108841053D01*
X70756250Y108840000D01*
X70243750Y108840000D01*
X70222309Y108841053D01*
X70201074Y108844203D01*
X70180250Y108849419D01*
X70160038Y108856651D01*
X70140632Y108865830D01*
X70122219Y108876866D01*
X70104976Y108889654D01*
X70089070Y108904070D01*
X70074654Y108919976D01*
X70061866Y108937219D01*
X70050830Y108955632D01*
X70041651Y108975038D01*
X70034419Y108995250D01*
X70029203Y109016074D01*
X70026053Y109037309D01*
X70025000Y109058750D01*
X70025000Y109496250D01*
X70026053Y109517691D01*
X70029203Y109538926D01*
X70034419Y109559750D01*
X70041651Y109579962D01*
X70050830Y109599368D01*
X70061866Y109617781D01*
X70074654Y109635024D01*
X70089070Y109650930D01*
X70104976Y109665346D01*
X70122219Y109678134D01*
X70140632Y109689170D01*
X70160038Y109698349D01*
X70180250Y109705581D01*
X70201074Y109710797D01*
X70222309Y109713947D01*
X70243750Y109715000D01*
X70756250Y109715000D01*
X70777691Y109713947D01*
X70777691Y109713947D01*
G37*
D13*
X70500000Y109277500D03*
D10*
G36*
X70777691Y108138947D02*
G01*
X70798926Y108135797D01*
X70819750Y108130581D01*
X70839962Y108123349D01*
X70859368Y108114170D01*
X70877781Y108103134D01*
X70895024Y108090346D01*
X70910930Y108075930D01*
X70925346Y108060024D01*
X70938134Y108042781D01*
X70949170Y108024368D01*
X70958349Y108004962D01*
X70965581Y107984750D01*
X70970797Y107963926D01*
X70973947Y107942691D01*
X70975000Y107921250D01*
X70975000Y107483750D01*
X70973947Y107462309D01*
X70970797Y107441074D01*
X70965581Y107420250D01*
X70958349Y107400038D01*
X70949170Y107380632D01*
X70938134Y107362219D01*
X70925346Y107344976D01*
X70910930Y107329070D01*
X70895024Y107314654D01*
X70877781Y107301866D01*
X70859368Y107290830D01*
X70839962Y107281651D01*
X70819750Y107274419D01*
X70798926Y107269203D01*
X70777691Y107266053D01*
X70756250Y107265000D01*
X70243750Y107265000D01*
X70222309Y107266053D01*
X70201074Y107269203D01*
X70180250Y107274419D01*
X70160038Y107281651D01*
X70140632Y107290830D01*
X70122219Y107301866D01*
X70104976Y107314654D01*
X70089070Y107329070D01*
X70074654Y107344976D01*
X70061866Y107362219D01*
X70050830Y107380632D01*
X70041651Y107400038D01*
X70034419Y107420250D01*
X70029203Y107441074D01*
X70026053Y107462309D01*
X70025000Y107483750D01*
X70025000Y107921250D01*
X70026053Y107942691D01*
X70029203Y107963926D01*
X70034419Y107984750D01*
X70041651Y108004962D01*
X70050830Y108024368D01*
X70061866Y108042781D01*
X70074654Y108060024D01*
X70089070Y108075930D01*
X70104976Y108090346D01*
X70122219Y108103134D01*
X70140632Y108114170D01*
X70160038Y108123349D01*
X70180250Y108130581D01*
X70201074Y108135797D01*
X70222309Y108138947D01*
X70243750Y108140000D01*
X70756250Y108140000D01*
X70777691Y108138947D01*
X70777691Y108138947D01*
G37*
D13*
X70500000Y107702500D03*
D10*
G36*
X69277691Y108138947D02*
G01*
X69298926Y108135797D01*
X69319750Y108130581D01*
X69339962Y108123349D01*
X69359368Y108114170D01*
X69377781Y108103134D01*
X69395024Y108090346D01*
X69410930Y108075930D01*
X69425346Y108060024D01*
X69438134Y108042781D01*
X69449170Y108024368D01*
X69458349Y108004962D01*
X69465581Y107984750D01*
X69470797Y107963926D01*
X69473947Y107942691D01*
X69475000Y107921250D01*
X69475000Y107483750D01*
X69473947Y107462309D01*
X69470797Y107441074D01*
X69465581Y107420250D01*
X69458349Y107400038D01*
X69449170Y107380632D01*
X69438134Y107362219D01*
X69425346Y107344976D01*
X69410930Y107329070D01*
X69395024Y107314654D01*
X69377781Y107301866D01*
X69359368Y107290830D01*
X69339962Y107281651D01*
X69319750Y107274419D01*
X69298926Y107269203D01*
X69277691Y107266053D01*
X69256250Y107265000D01*
X68743750Y107265000D01*
X68722309Y107266053D01*
X68701074Y107269203D01*
X68680250Y107274419D01*
X68660038Y107281651D01*
X68640632Y107290830D01*
X68622219Y107301866D01*
X68604976Y107314654D01*
X68589070Y107329070D01*
X68574654Y107344976D01*
X68561866Y107362219D01*
X68550830Y107380632D01*
X68541651Y107400038D01*
X68534419Y107420250D01*
X68529203Y107441074D01*
X68526053Y107462309D01*
X68525000Y107483750D01*
X68525000Y107921250D01*
X68526053Y107942691D01*
X68529203Y107963926D01*
X68534419Y107984750D01*
X68541651Y108004962D01*
X68550830Y108024368D01*
X68561866Y108042781D01*
X68574654Y108060024D01*
X68589070Y108075930D01*
X68604976Y108090346D01*
X68622219Y108103134D01*
X68640632Y108114170D01*
X68660038Y108123349D01*
X68680250Y108130581D01*
X68701074Y108135797D01*
X68722309Y108138947D01*
X68743750Y108140000D01*
X69256250Y108140000D01*
X69277691Y108138947D01*
X69277691Y108138947D01*
G37*
D13*
X69000000Y107702500D03*
D10*
G36*
X69277691Y109713947D02*
G01*
X69298926Y109710797D01*
X69319750Y109705581D01*
X69339962Y109698349D01*
X69359368Y109689170D01*
X69377781Y109678134D01*
X69395024Y109665346D01*
X69410930Y109650930D01*
X69425346Y109635024D01*
X69438134Y109617781D01*
X69449170Y109599368D01*
X69458349Y109579962D01*
X69465581Y109559750D01*
X69470797Y109538926D01*
X69473947Y109517691D01*
X69475000Y109496250D01*
X69475000Y109058750D01*
X69473947Y109037309D01*
X69470797Y109016074D01*
X69465581Y108995250D01*
X69458349Y108975038D01*
X69449170Y108955632D01*
X69438134Y108937219D01*
X69425346Y108919976D01*
X69410930Y108904070D01*
X69395024Y108889654D01*
X69377781Y108876866D01*
X69359368Y108865830D01*
X69339962Y108856651D01*
X69319750Y108849419D01*
X69298926Y108844203D01*
X69277691Y108841053D01*
X69256250Y108840000D01*
X68743750Y108840000D01*
X68722309Y108841053D01*
X68701074Y108844203D01*
X68680250Y108849419D01*
X68660038Y108856651D01*
X68640632Y108865830D01*
X68622219Y108876866D01*
X68604976Y108889654D01*
X68589070Y108904070D01*
X68574654Y108919976D01*
X68561866Y108937219D01*
X68550830Y108955632D01*
X68541651Y108975038D01*
X68534419Y108995250D01*
X68529203Y109016074D01*
X68526053Y109037309D01*
X68525000Y109058750D01*
X68525000Y109496250D01*
X68526053Y109517691D01*
X68529203Y109538926D01*
X68534419Y109559750D01*
X68541651Y109579962D01*
X68550830Y109599368D01*
X68561866Y109617781D01*
X68574654Y109635024D01*
X68589070Y109650930D01*
X68604976Y109665346D01*
X68622219Y109678134D01*
X68640632Y109689170D01*
X68660038Y109698349D01*
X68680250Y109705581D01*
X68701074Y109710797D01*
X68722309Y109713947D01*
X68743750Y109715000D01*
X69256250Y109715000D01*
X69277691Y109713947D01*
X69277691Y109713947D01*
G37*
D13*
X69000000Y109277500D03*
D10*
G36*
X60527691Y97973947D02*
G01*
X60548926Y97970797D01*
X60569750Y97965581D01*
X60589962Y97958349D01*
X60609368Y97949170D01*
X60627781Y97938134D01*
X60645024Y97925346D01*
X60660930Y97910930D01*
X60675346Y97895024D01*
X60688134Y97877781D01*
X60699170Y97859368D01*
X60708349Y97839962D01*
X60715581Y97819750D01*
X60720797Y97798926D01*
X60723947Y97777691D01*
X60725000Y97756250D01*
X60725000Y97243750D01*
X60723947Y97222309D01*
X60720797Y97201074D01*
X60715581Y97180250D01*
X60708349Y97160038D01*
X60699170Y97140632D01*
X60688134Y97122219D01*
X60675346Y97104976D01*
X60660930Y97089070D01*
X60645024Y97074654D01*
X60627781Y97061866D01*
X60609368Y97050830D01*
X60589962Y97041651D01*
X60569750Y97034419D01*
X60548926Y97029203D01*
X60527691Y97026053D01*
X60506250Y97025000D01*
X60068750Y97025000D01*
X60047309Y97026053D01*
X60026074Y97029203D01*
X60005250Y97034419D01*
X59985038Y97041651D01*
X59965632Y97050830D01*
X59947219Y97061866D01*
X59929976Y97074654D01*
X59914070Y97089070D01*
X59899654Y97104976D01*
X59886866Y97122219D01*
X59875830Y97140632D01*
X59866651Y97160038D01*
X59859419Y97180250D01*
X59854203Y97201074D01*
X59851053Y97222309D01*
X59850000Y97243750D01*
X59850000Y97756250D01*
X59851053Y97777691D01*
X59854203Y97798926D01*
X59859419Y97819750D01*
X59866651Y97839962D01*
X59875830Y97859368D01*
X59886866Y97877781D01*
X59899654Y97895024D01*
X59914070Y97910930D01*
X59929976Y97925346D01*
X59947219Y97938134D01*
X59965632Y97949170D01*
X59985038Y97958349D01*
X60005250Y97965581D01*
X60026074Y97970797D01*
X60047309Y97973947D01*
X60068750Y97975000D01*
X60506250Y97975000D01*
X60527691Y97973947D01*
X60527691Y97973947D01*
G37*
D13*
X60287500Y97500000D03*
D10*
G36*
X58952691Y97973947D02*
G01*
X58973926Y97970797D01*
X58994750Y97965581D01*
X59014962Y97958349D01*
X59034368Y97949170D01*
X59052781Y97938134D01*
X59070024Y97925346D01*
X59085930Y97910930D01*
X59100346Y97895024D01*
X59113134Y97877781D01*
X59124170Y97859368D01*
X59133349Y97839962D01*
X59140581Y97819750D01*
X59145797Y97798926D01*
X59148947Y97777691D01*
X59150000Y97756250D01*
X59150000Y97243750D01*
X59148947Y97222309D01*
X59145797Y97201074D01*
X59140581Y97180250D01*
X59133349Y97160038D01*
X59124170Y97140632D01*
X59113134Y97122219D01*
X59100346Y97104976D01*
X59085930Y97089070D01*
X59070024Y97074654D01*
X59052781Y97061866D01*
X59034368Y97050830D01*
X59014962Y97041651D01*
X58994750Y97034419D01*
X58973926Y97029203D01*
X58952691Y97026053D01*
X58931250Y97025000D01*
X58493750Y97025000D01*
X58472309Y97026053D01*
X58451074Y97029203D01*
X58430250Y97034419D01*
X58410038Y97041651D01*
X58390632Y97050830D01*
X58372219Y97061866D01*
X58354976Y97074654D01*
X58339070Y97089070D01*
X58324654Y97104976D01*
X58311866Y97122219D01*
X58300830Y97140632D01*
X58291651Y97160038D01*
X58284419Y97180250D01*
X58279203Y97201074D01*
X58276053Y97222309D01*
X58275000Y97243750D01*
X58275000Y97756250D01*
X58276053Y97777691D01*
X58279203Y97798926D01*
X58284419Y97819750D01*
X58291651Y97839962D01*
X58300830Y97859368D01*
X58311866Y97877781D01*
X58324654Y97895024D01*
X58339070Y97910930D01*
X58354976Y97925346D01*
X58372219Y97938134D01*
X58390632Y97949170D01*
X58410038Y97958349D01*
X58430250Y97965581D01*
X58451074Y97970797D01*
X58472309Y97973947D01*
X58493750Y97975000D01*
X58931250Y97975000D01*
X58952691Y97973947D01*
X58952691Y97973947D01*
G37*
D13*
X58712500Y97500000D03*
D10*
G36*
X46277691Y96723947D02*
G01*
X46298926Y96720797D01*
X46319750Y96715581D01*
X46339962Y96708349D01*
X46359368Y96699170D01*
X46377781Y96688134D01*
X46395024Y96675346D01*
X46410930Y96660930D01*
X46425346Y96645024D01*
X46438134Y96627781D01*
X46449170Y96609368D01*
X46458349Y96589962D01*
X46465581Y96569750D01*
X46470797Y96548926D01*
X46473947Y96527691D01*
X46475000Y96506250D01*
X46475000Y96068750D01*
X46473947Y96047309D01*
X46470797Y96026074D01*
X46465581Y96005250D01*
X46458349Y95985038D01*
X46449170Y95965632D01*
X46438134Y95947219D01*
X46425346Y95929976D01*
X46410930Y95914070D01*
X46395024Y95899654D01*
X46377781Y95886866D01*
X46359368Y95875830D01*
X46339962Y95866651D01*
X46319750Y95859419D01*
X46298926Y95854203D01*
X46277691Y95851053D01*
X46256250Y95850000D01*
X45743750Y95850000D01*
X45722309Y95851053D01*
X45701074Y95854203D01*
X45680250Y95859419D01*
X45660038Y95866651D01*
X45640632Y95875830D01*
X45622219Y95886866D01*
X45604976Y95899654D01*
X45589070Y95914070D01*
X45574654Y95929976D01*
X45561866Y95947219D01*
X45550830Y95965632D01*
X45541651Y95985038D01*
X45534419Y96005250D01*
X45529203Y96026074D01*
X45526053Y96047309D01*
X45525000Y96068750D01*
X45525000Y96506250D01*
X45526053Y96527691D01*
X45529203Y96548926D01*
X45534419Y96569750D01*
X45541651Y96589962D01*
X45550830Y96609368D01*
X45561866Y96627781D01*
X45574654Y96645024D01*
X45589070Y96660930D01*
X45604976Y96675346D01*
X45622219Y96688134D01*
X45640632Y96699170D01*
X45660038Y96708349D01*
X45680250Y96715581D01*
X45701074Y96720797D01*
X45722309Y96723947D01*
X45743750Y96725000D01*
X46256250Y96725000D01*
X46277691Y96723947D01*
X46277691Y96723947D01*
G37*
D13*
X46000000Y96287500D03*
D10*
G36*
X46277691Y95148947D02*
G01*
X46298926Y95145797D01*
X46319750Y95140581D01*
X46339962Y95133349D01*
X46359368Y95124170D01*
X46377781Y95113134D01*
X46395024Y95100346D01*
X46410930Y95085930D01*
X46425346Y95070024D01*
X46438134Y95052781D01*
X46449170Y95034368D01*
X46458349Y95014962D01*
X46465581Y94994750D01*
X46470797Y94973926D01*
X46473947Y94952691D01*
X46475000Y94931250D01*
X46475000Y94493750D01*
X46473947Y94472309D01*
X46470797Y94451074D01*
X46465581Y94430250D01*
X46458349Y94410038D01*
X46449170Y94390632D01*
X46438134Y94372219D01*
X46425346Y94354976D01*
X46410930Y94339070D01*
X46395024Y94324654D01*
X46377781Y94311866D01*
X46359368Y94300830D01*
X46339962Y94291651D01*
X46319750Y94284419D01*
X46298926Y94279203D01*
X46277691Y94276053D01*
X46256250Y94275000D01*
X45743750Y94275000D01*
X45722309Y94276053D01*
X45701074Y94279203D01*
X45680250Y94284419D01*
X45660038Y94291651D01*
X45640632Y94300830D01*
X45622219Y94311866D01*
X45604976Y94324654D01*
X45589070Y94339070D01*
X45574654Y94354976D01*
X45561866Y94372219D01*
X45550830Y94390632D01*
X45541651Y94410038D01*
X45534419Y94430250D01*
X45529203Y94451074D01*
X45526053Y94472309D01*
X45525000Y94493750D01*
X45525000Y94931250D01*
X45526053Y94952691D01*
X45529203Y94973926D01*
X45534419Y94994750D01*
X45541651Y95014962D01*
X45550830Y95034368D01*
X45561866Y95052781D01*
X45574654Y95070024D01*
X45589070Y95085930D01*
X45604976Y95100346D01*
X45622219Y95113134D01*
X45640632Y95124170D01*
X45660038Y95133349D01*
X45680250Y95140581D01*
X45701074Y95145797D01*
X45722309Y95148947D01*
X45743750Y95150000D01*
X46256250Y95150000D01*
X46277691Y95148947D01*
X46277691Y95148947D01*
G37*
D13*
X46000000Y94712500D03*
D10*
G36*
X58952691Y96473947D02*
G01*
X58973926Y96470797D01*
X58994750Y96465581D01*
X59014962Y96458349D01*
X59034368Y96449170D01*
X59052781Y96438134D01*
X59070024Y96425346D01*
X59085930Y96410930D01*
X59100346Y96395024D01*
X59113134Y96377781D01*
X59124170Y96359368D01*
X59133349Y96339962D01*
X59140581Y96319750D01*
X59145797Y96298926D01*
X59148947Y96277691D01*
X59150000Y96256250D01*
X59150000Y95743750D01*
X59148947Y95722309D01*
X59145797Y95701074D01*
X59140581Y95680250D01*
X59133349Y95660038D01*
X59124170Y95640632D01*
X59113134Y95622219D01*
X59100346Y95604976D01*
X59085930Y95589070D01*
X59070024Y95574654D01*
X59052781Y95561866D01*
X59034368Y95550830D01*
X59014962Y95541651D01*
X58994750Y95534419D01*
X58973926Y95529203D01*
X58952691Y95526053D01*
X58931250Y95525000D01*
X58493750Y95525000D01*
X58472309Y95526053D01*
X58451074Y95529203D01*
X58430250Y95534419D01*
X58410038Y95541651D01*
X58390632Y95550830D01*
X58372219Y95561866D01*
X58354976Y95574654D01*
X58339070Y95589070D01*
X58324654Y95604976D01*
X58311866Y95622219D01*
X58300830Y95640632D01*
X58291651Y95660038D01*
X58284419Y95680250D01*
X58279203Y95701074D01*
X58276053Y95722309D01*
X58275000Y95743750D01*
X58275000Y96256250D01*
X58276053Y96277691D01*
X58279203Y96298926D01*
X58284419Y96319750D01*
X58291651Y96339962D01*
X58300830Y96359368D01*
X58311866Y96377781D01*
X58324654Y96395024D01*
X58339070Y96410930D01*
X58354976Y96425346D01*
X58372219Y96438134D01*
X58390632Y96449170D01*
X58410038Y96458349D01*
X58430250Y96465581D01*
X58451074Y96470797D01*
X58472309Y96473947D01*
X58493750Y96475000D01*
X58931250Y96475000D01*
X58952691Y96473947D01*
X58952691Y96473947D01*
G37*
D13*
X58712500Y96000000D03*
D10*
G36*
X60527691Y96473947D02*
G01*
X60548926Y96470797D01*
X60569750Y96465581D01*
X60589962Y96458349D01*
X60609368Y96449170D01*
X60627781Y96438134D01*
X60645024Y96425346D01*
X60660930Y96410930D01*
X60675346Y96395024D01*
X60688134Y96377781D01*
X60699170Y96359368D01*
X60708349Y96339962D01*
X60715581Y96319750D01*
X60720797Y96298926D01*
X60723947Y96277691D01*
X60725000Y96256250D01*
X60725000Y95743750D01*
X60723947Y95722309D01*
X60720797Y95701074D01*
X60715581Y95680250D01*
X60708349Y95660038D01*
X60699170Y95640632D01*
X60688134Y95622219D01*
X60675346Y95604976D01*
X60660930Y95589070D01*
X60645024Y95574654D01*
X60627781Y95561866D01*
X60609368Y95550830D01*
X60589962Y95541651D01*
X60569750Y95534419D01*
X60548926Y95529203D01*
X60527691Y95526053D01*
X60506250Y95525000D01*
X60068750Y95525000D01*
X60047309Y95526053D01*
X60026074Y95529203D01*
X60005250Y95534419D01*
X59985038Y95541651D01*
X59965632Y95550830D01*
X59947219Y95561866D01*
X59929976Y95574654D01*
X59914070Y95589070D01*
X59899654Y95604976D01*
X59886866Y95622219D01*
X59875830Y95640632D01*
X59866651Y95660038D01*
X59859419Y95680250D01*
X59854203Y95701074D01*
X59851053Y95722309D01*
X59850000Y95743750D01*
X59850000Y96256250D01*
X59851053Y96277691D01*
X59854203Y96298926D01*
X59859419Y96319750D01*
X59866651Y96339962D01*
X59875830Y96359368D01*
X59886866Y96377781D01*
X59899654Y96395024D01*
X59914070Y96410930D01*
X59929976Y96425346D01*
X59947219Y96438134D01*
X59965632Y96449170D01*
X59985038Y96458349D01*
X60005250Y96465581D01*
X60026074Y96470797D01*
X60047309Y96473947D01*
X60068750Y96475000D01*
X60506250Y96475000D01*
X60527691Y96473947D01*
X60527691Y96473947D01*
G37*
D13*
X60287500Y96000000D03*
D10*
G36*
X66277691Y116723947D02*
G01*
X66298926Y116720797D01*
X66319750Y116715581D01*
X66339962Y116708349D01*
X66359368Y116699170D01*
X66377781Y116688134D01*
X66395024Y116675346D01*
X66410930Y116660930D01*
X66425346Y116645024D01*
X66438134Y116627781D01*
X66449170Y116609368D01*
X66458349Y116589962D01*
X66465581Y116569750D01*
X66470797Y116548926D01*
X66473947Y116527691D01*
X66475000Y116506250D01*
X66475000Y116068750D01*
X66473947Y116047309D01*
X66470797Y116026074D01*
X66465581Y116005250D01*
X66458349Y115985038D01*
X66449170Y115965632D01*
X66438134Y115947219D01*
X66425346Y115929976D01*
X66410930Y115914070D01*
X66395024Y115899654D01*
X66377781Y115886866D01*
X66359368Y115875830D01*
X66339962Y115866651D01*
X66319750Y115859419D01*
X66298926Y115854203D01*
X66277691Y115851053D01*
X66256250Y115850000D01*
X65743750Y115850000D01*
X65722309Y115851053D01*
X65701074Y115854203D01*
X65680250Y115859419D01*
X65660038Y115866651D01*
X65640632Y115875830D01*
X65622219Y115886866D01*
X65604976Y115899654D01*
X65589070Y115914070D01*
X65574654Y115929976D01*
X65561866Y115947219D01*
X65550830Y115965632D01*
X65541651Y115985038D01*
X65534419Y116005250D01*
X65529203Y116026074D01*
X65526053Y116047309D01*
X65525000Y116068750D01*
X65525000Y116506250D01*
X65526053Y116527691D01*
X65529203Y116548926D01*
X65534419Y116569750D01*
X65541651Y116589962D01*
X65550830Y116609368D01*
X65561866Y116627781D01*
X65574654Y116645024D01*
X65589070Y116660930D01*
X65604976Y116675346D01*
X65622219Y116688134D01*
X65640632Y116699170D01*
X65660038Y116708349D01*
X65680250Y116715581D01*
X65701074Y116720797D01*
X65722309Y116723947D01*
X65743750Y116725000D01*
X66256250Y116725000D01*
X66277691Y116723947D01*
X66277691Y116723947D01*
G37*
D13*
X66000000Y116287500D03*
D10*
G36*
X66277691Y115148947D02*
G01*
X66298926Y115145797D01*
X66319750Y115140581D01*
X66339962Y115133349D01*
X66359368Y115124170D01*
X66377781Y115113134D01*
X66395024Y115100346D01*
X66410930Y115085930D01*
X66425346Y115070024D01*
X66438134Y115052781D01*
X66449170Y115034368D01*
X66458349Y115014962D01*
X66465581Y114994750D01*
X66470797Y114973926D01*
X66473947Y114952691D01*
X66475000Y114931250D01*
X66475000Y114493750D01*
X66473947Y114472309D01*
X66470797Y114451074D01*
X66465581Y114430250D01*
X66458349Y114410038D01*
X66449170Y114390632D01*
X66438134Y114372219D01*
X66425346Y114354976D01*
X66410930Y114339070D01*
X66395024Y114324654D01*
X66377781Y114311866D01*
X66359368Y114300830D01*
X66339962Y114291651D01*
X66319750Y114284419D01*
X66298926Y114279203D01*
X66277691Y114276053D01*
X66256250Y114275000D01*
X65743750Y114275000D01*
X65722309Y114276053D01*
X65701074Y114279203D01*
X65680250Y114284419D01*
X65660038Y114291651D01*
X65640632Y114300830D01*
X65622219Y114311866D01*
X65604976Y114324654D01*
X65589070Y114339070D01*
X65574654Y114354976D01*
X65561866Y114372219D01*
X65550830Y114390632D01*
X65541651Y114410038D01*
X65534419Y114430250D01*
X65529203Y114451074D01*
X65526053Y114472309D01*
X65525000Y114493750D01*
X65525000Y114931250D01*
X65526053Y114952691D01*
X65529203Y114973926D01*
X65534419Y114994750D01*
X65541651Y115014962D01*
X65550830Y115034368D01*
X65561866Y115052781D01*
X65574654Y115070024D01*
X65589070Y115085930D01*
X65604976Y115100346D01*
X65622219Y115113134D01*
X65640632Y115124170D01*
X65660038Y115133349D01*
X65680250Y115140581D01*
X65701074Y115145797D01*
X65722309Y115148947D01*
X65743750Y115150000D01*
X66256250Y115150000D01*
X66277691Y115148947D01*
X66277691Y115148947D01*
G37*
D13*
X66000000Y114712500D03*
D10*
G36*
X32952691Y115973947D02*
G01*
X32973926Y115970797D01*
X32994750Y115965581D01*
X33014962Y115958349D01*
X33034368Y115949170D01*
X33052781Y115938134D01*
X33070024Y115925346D01*
X33085930Y115910930D01*
X33100346Y115895024D01*
X33113134Y115877781D01*
X33124170Y115859368D01*
X33133349Y115839962D01*
X33140581Y115819750D01*
X33145797Y115798926D01*
X33148947Y115777691D01*
X33150000Y115756250D01*
X33150000Y115243750D01*
X33148947Y115222309D01*
X33145797Y115201074D01*
X33140581Y115180250D01*
X33133349Y115160038D01*
X33124170Y115140632D01*
X33113134Y115122219D01*
X33100346Y115104976D01*
X33085930Y115089070D01*
X33070024Y115074654D01*
X33052781Y115061866D01*
X33034368Y115050830D01*
X33014962Y115041651D01*
X32994750Y115034419D01*
X32973926Y115029203D01*
X32952691Y115026053D01*
X32931250Y115025000D01*
X32493750Y115025000D01*
X32472309Y115026053D01*
X32451074Y115029203D01*
X32430250Y115034419D01*
X32410038Y115041651D01*
X32390632Y115050830D01*
X32372219Y115061866D01*
X32354976Y115074654D01*
X32339070Y115089070D01*
X32324654Y115104976D01*
X32311866Y115122219D01*
X32300830Y115140632D01*
X32291651Y115160038D01*
X32284419Y115180250D01*
X32279203Y115201074D01*
X32276053Y115222309D01*
X32275000Y115243750D01*
X32275000Y115756250D01*
X32276053Y115777691D01*
X32279203Y115798926D01*
X32284419Y115819750D01*
X32291651Y115839962D01*
X32300830Y115859368D01*
X32311866Y115877781D01*
X32324654Y115895024D01*
X32339070Y115910930D01*
X32354976Y115925346D01*
X32372219Y115938134D01*
X32390632Y115949170D01*
X32410038Y115958349D01*
X32430250Y115965581D01*
X32451074Y115970797D01*
X32472309Y115973947D01*
X32493750Y115975000D01*
X32931250Y115975000D01*
X32952691Y115973947D01*
X32952691Y115973947D01*
G37*
D13*
X32712500Y115500000D03*
D10*
G36*
X34527691Y115973947D02*
G01*
X34548926Y115970797D01*
X34569750Y115965581D01*
X34589962Y115958349D01*
X34609368Y115949170D01*
X34627781Y115938134D01*
X34645024Y115925346D01*
X34660930Y115910930D01*
X34675346Y115895024D01*
X34688134Y115877781D01*
X34699170Y115859368D01*
X34708349Y115839962D01*
X34715581Y115819750D01*
X34720797Y115798926D01*
X34723947Y115777691D01*
X34725000Y115756250D01*
X34725000Y115243750D01*
X34723947Y115222309D01*
X34720797Y115201074D01*
X34715581Y115180250D01*
X34708349Y115160038D01*
X34699170Y115140632D01*
X34688134Y115122219D01*
X34675346Y115104976D01*
X34660930Y115089070D01*
X34645024Y115074654D01*
X34627781Y115061866D01*
X34609368Y115050830D01*
X34589962Y115041651D01*
X34569750Y115034419D01*
X34548926Y115029203D01*
X34527691Y115026053D01*
X34506250Y115025000D01*
X34068750Y115025000D01*
X34047309Y115026053D01*
X34026074Y115029203D01*
X34005250Y115034419D01*
X33985038Y115041651D01*
X33965632Y115050830D01*
X33947219Y115061866D01*
X33929976Y115074654D01*
X33914070Y115089070D01*
X33899654Y115104976D01*
X33886866Y115122219D01*
X33875830Y115140632D01*
X33866651Y115160038D01*
X33859419Y115180250D01*
X33854203Y115201074D01*
X33851053Y115222309D01*
X33850000Y115243750D01*
X33850000Y115756250D01*
X33851053Y115777691D01*
X33854203Y115798926D01*
X33859419Y115819750D01*
X33866651Y115839962D01*
X33875830Y115859368D01*
X33886866Y115877781D01*
X33899654Y115895024D01*
X33914070Y115910930D01*
X33929976Y115925346D01*
X33947219Y115938134D01*
X33965632Y115949170D01*
X33985038Y115958349D01*
X34005250Y115965581D01*
X34026074Y115970797D01*
X34047309Y115973947D01*
X34068750Y115975000D01*
X34506250Y115975000D01*
X34527691Y115973947D01*
X34527691Y115973947D01*
G37*
D13*
X34287500Y115500000D03*
D10*
G36*
X31027691Y115973947D02*
G01*
X31048926Y115970797D01*
X31069750Y115965581D01*
X31089962Y115958349D01*
X31109368Y115949170D01*
X31127781Y115938134D01*
X31145024Y115925346D01*
X31160930Y115910930D01*
X31175346Y115895024D01*
X31188134Y115877781D01*
X31199170Y115859368D01*
X31208349Y115839962D01*
X31215581Y115819750D01*
X31220797Y115798926D01*
X31223947Y115777691D01*
X31225000Y115756250D01*
X31225000Y115243750D01*
X31223947Y115222309D01*
X31220797Y115201074D01*
X31215581Y115180250D01*
X31208349Y115160038D01*
X31199170Y115140632D01*
X31188134Y115122219D01*
X31175346Y115104976D01*
X31160930Y115089070D01*
X31145024Y115074654D01*
X31127781Y115061866D01*
X31109368Y115050830D01*
X31089962Y115041651D01*
X31069750Y115034419D01*
X31048926Y115029203D01*
X31027691Y115026053D01*
X31006250Y115025000D01*
X30568750Y115025000D01*
X30547309Y115026053D01*
X30526074Y115029203D01*
X30505250Y115034419D01*
X30485038Y115041651D01*
X30465632Y115050830D01*
X30447219Y115061866D01*
X30429976Y115074654D01*
X30414070Y115089070D01*
X30399654Y115104976D01*
X30386866Y115122219D01*
X30375830Y115140632D01*
X30366651Y115160038D01*
X30359419Y115180250D01*
X30354203Y115201074D01*
X30351053Y115222309D01*
X30350000Y115243750D01*
X30350000Y115756250D01*
X30351053Y115777691D01*
X30354203Y115798926D01*
X30359419Y115819750D01*
X30366651Y115839962D01*
X30375830Y115859368D01*
X30386866Y115877781D01*
X30399654Y115895024D01*
X30414070Y115910930D01*
X30429976Y115925346D01*
X30447219Y115938134D01*
X30465632Y115949170D01*
X30485038Y115958349D01*
X30505250Y115965581D01*
X30526074Y115970797D01*
X30547309Y115973947D01*
X30568750Y115975000D01*
X31006250Y115975000D01*
X31027691Y115973947D01*
X31027691Y115973947D01*
G37*
D13*
X30787500Y115500000D03*
D10*
G36*
X29452691Y115973947D02*
G01*
X29473926Y115970797D01*
X29494750Y115965581D01*
X29514962Y115958349D01*
X29534368Y115949170D01*
X29552781Y115938134D01*
X29570024Y115925346D01*
X29585930Y115910930D01*
X29600346Y115895024D01*
X29613134Y115877781D01*
X29624170Y115859368D01*
X29633349Y115839962D01*
X29640581Y115819750D01*
X29645797Y115798926D01*
X29648947Y115777691D01*
X29650000Y115756250D01*
X29650000Y115243750D01*
X29648947Y115222309D01*
X29645797Y115201074D01*
X29640581Y115180250D01*
X29633349Y115160038D01*
X29624170Y115140632D01*
X29613134Y115122219D01*
X29600346Y115104976D01*
X29585930Y115089070D01*
X29570024Y115074654D01*
X29552781Y115061866D01*
X29534368Y115050830D01*
X29514962Y115041651D01*
X29494750Y115034419D01*
X29473926Y115029203D01*
X29452691Y115026053D01*
X29431250Y115025000D01*
X28993750Y115025000D01*
X28972309Y115026053D01*
X28951074Y115029203D01*
X28930250Y115034419D01*
X28910038Y115041651D01*
X28890632Y115050830D01*
X28872219Y115061866D01*
X28854976Y115074654D01*
X28839070Y115089070D01*
X28824654Y115104976D01*
X28811866Y115122219D01*
X28800830Y115140632D01*
X28791651Y115160038D01*
X28784419Y115180250D01*
X28779203Y115201074D01*
X28776053Y115222309D01*
X28775000Y115243750D01*
X28775000Y115756250D01*
X28776053Y115777691D01*
X28779203Y115798926D01*
X28784419Y115819750D01*
X28791651Y115839962D01*
X28800830Y115859368D01*
X28811866Y115877781D01*
X28824654Y115895024D01*
X28839070Y115910930D01*
X28854976Y115925346D01*
X28872219Y115938134D01*
X28890632Y115949170D01*
X28910038Y115958349D01*
X28930250Y115965581D01*
X28951074Y115970797D01*
X28972309Y115973947D01*
X28993750Y115975000D01*
X29431250Y115975000D01*
X29452691Y115973947D01*
X29452691Y115973947D01*
G37*
D13*
X29212500Y115500000D03*
D10*
G36*
X17452691Y106473947D02*
G01*
X17473926Y106470797D01*
X17494750Y106465581D01*
X17514962Y106458349D01*
X17534368Y106449170D01*
X17552781Y106438134D01*
X17570024Y106425346D01*
X17585930Y106410930D01*
X17600346Y106395024D01*
X17613134Y106377781D01*
X17624170Y106359368D01*
X17633349Y106339962D01*
X17640581Y106319750D01*
X17645797Y106298926D01*
X17648947Y106277691D01*
X17650000Y106256250D01*
X17650000Y105743750D01*
X17648947Y105722309D01*
X17645797Y105701074D01*
X17640581Y105680250D01*
X17633349Y105660038D01*
X17624170Y105640632D01*
X17613134Y105622219D01*
X17600346Y105604976D01*
X17585930Y105589070D01*
X17570024Y105574654D01*
X17552781Y105561866D01*
X17534368Y105550830D01*
X17514962Y105541651D01*
X17494750Y105534419D01*
X17473926Y105529203D01*
X17452691Y105526053D01*
X17431250Y105525000D01*
X16993750Y105525000D01*
X16972309Y105526053D01*
X16951074Y105529203D01*
X16930250Y105534419D01*
X16910038Y105541651D01*
X16890632Y105550830D01*
X16872219Y105561866D01*
X16854976Y105574654D01*
X16839070Y105589070D01*
X16824654Y105604976D01*
X16811866Y105622219D01*
X16800830Y105640632D01*
X16791651Y105660038D01*
X16784419Y105680250D01*
X16779203Y105701074D01*
X16776053Y105722309D01*
X16775000Y105743750D01*
X16775000Y106256250D01*
X16776053Y106277691D01*
X16779203Y106298926D01*
X16784419Y106319750D01*
X16791651Y106339962D01*
X16800830Y106359368D01*
X16811866Y106377781D01*
X16824654Y106395024D01*
X16839070Y106410930D01*
X16854976Y106425346D01*
X16872219Y106438134D01*
X16890632Y106449170D01*
X16910038Y106458349D01*
X16930250Y106465581D01*
X16951074Y106470797D01*
X16972309Y106473947D01*
X16993750Y106475000D01*
X17431250Y106475000D01*
X17452691Y106473947D01*
X17452691Y106473947D01*
G37*
D13*
X17212500Y106000000D03*
D10*
G36*
X19027691Y106473947D02*
G01*
X19048926Y106470797D01*
X19069750Y106465581D01*
X19089962Y106458349D01*
X19109368Y106449170D01*
X19127781Y106438134D01*
X19145024Y106425346D01*
X19160930Y106410930D01*
X19175346Y106395024D01*
X19188134Y106377781D01*
X19199170Y106359368D01*
X19208349Y106339962D01*
X19215581Y106319750D01*
X19220797Y106298926D01*
X19223947Y106277691D01*
X19225000Y106256250D01*
X19225000Y105743750D01*
X19223947Y105722309D01*
X19220797Y105701074D01*
X19215581Y105680250D01*
X19208349Y105660038D01*
X19199170Y105640632D01*
X19188134Y105622219D01*
X19175346Y105604976D01*
X19160930Y105589070D01*
X19145024Y105574654D01*
X19127781Y105561866D01*
X19109368Y105550830D01*
X19089962Y105541651D01*
X19069750Y105534419D01*
X19048926Y105529203D01*
X19027691Y105526053D01*
X19006250Y105525000D01*
X18568750Y105525000D01*
X18547309Y105526053D01*
X18526074Y105529203D01*
X18505250Y105534419D01*
X18485038Y105541651D01*
X18465632Y105550830D01*
X18447219Y105561866D01*
X18429976Y105574654D01*
X18414070Y105589070D01*
X18399654Y105604976D01*
X18386866Y105622219D01*
X18375830Y105640632D01*
X18366651Y105660038D01*
X18359419Y105680250D01*
X18354203Y105701074D01*
X18351053Y105722309D01*
X18350000Y105743750D01*
X18350000Y106256250D01*
X18351053Y106277691D01*
X18354203Y106298926D01*
X18359419Y106319750D01*
X18366651Y106339962D01*
X18375830Y106359368D01*
X18386866Y106377781D01*
X18399654Y106395024D01*
X18414070Y106410930D01*
X18429976Y106425346D01*
X18447219Y106438134D01*
X18465632Y106449170D01*
X18485038Y106458349D01*
X18505250Y106465581D01*
X18526074Y106470797D01*
X18547309Y106473947D01*
X18568750Y106475000D01*
X19006250Y106475000D01*
X19027691Y106473947D01*
X19027691Y106473947D01*
G37*
D13*
X18787500Y106000000D03*
D10*
G36*
X11452691Y104973947D02*
G01*
X11473926Y104970797D01*
X11494750Y104965581D01*
X11514962Y104958349D01*
X11534368Y104949170D01*
X11552781Y104938134D01*
X11570024Y104925346D01*
X11585930Y104910930D01*
X11600346Y104895024D01*
X11613134Y104877781D01*
X11624170Y104859368D01*
X11633349Y104839962D01*
X11640581Y104819750D01*
X11645797Y104798926D01*
X11648947Y104777691D01*
X11650000Y104756250D01*
X11650000Y104243750D01*
X11648947Y104222309D01*
X11645797Y104201074D01*
X11640581Y104180250D01*
X11633349Y104160038D01*
X11624170Y104140632D01*
X11613134Y104122219D01*
X11600346Y104104976D01*
X11585930Y104089070D01*
X11570024Y104074654D01*
X11552781Y104061866D01*
X11534368Y104050830D01*
X11514962Y104041651D01*
X11494750Y104034419D01*
X11473926Y104029203D01*
X11452691Y104026053D01*
X11431250Y104025000D01*
X10993750Y104025000D01*
X10972309Y104026053D01*
X10951074Y104029203D01*
X10930250Y104034419D01*
X10910038Y104041651D01*
X10890632Y104050830D01*
X10872219Y104061866D01*
X10854976Y104074654D01*
X10839070Y104089070D01*
X10824654Y104104976D01*
X10811866Y104122219D01*
X10800830Y104140632D01*
X10791651Y104160038D01*
X10784419Y104180250D01*
X10779203Y104201074D01*
X10776053Y104222309D01*
X10775000Y104243750D01*
X10775000Y104756250D01*
X10776053Y104777691D01*
X10779203Y104798926D01*
X10784419Y104819750D01*
X10791651Y104839962D01*
X10800830Y104859368D01*
X10811866Y104877781D01*
X10824654Y104895024D01*
X10839070Y104910930D01*
X10854976Y104925346D01*
X10872219Y104938134D01*
X10890632Y104949170D01*
X10910038Y104958349D01*
X10930250Y104965581D01*
X10951074Y104970797D01*
X10972309Y104973947D01*
X10993750Y104975000D01*
X11431250Y104975000D01*
X11452691Y104973947D01*
X11452691Y104973947D01*
G37*
D13*
X11212500Y104500000D03*
D10*
G36*
X13027691Y104973947D02*
G01*
X13048926Y104970797D01*
X13069750Y104965581D01*
X13089962Y104958349D01*
X13109368Y104949170D01*
X13127781Y104938134D01*
X13145024Y104925346D01*
X13160930Y104910930D01*
X13175346Y104895024D01*
X13188134Y104877781D01*
X13199170Y104859368D01*
X13208349Y104839962D01*
X13215581Y104819750D01*
X13220797Y104798926D01*
X13223947Y104777691D01*
X13225000Y104756250D01*
X13225000Y104243750D01*
X13223947Y104222309D01*
X13220797Y104201074D01*
X13215581Y104180250D01*
X13208349Y104160038D01*
X13199170Y104140632D01*
X13188134Y104122219D01*
X13175346Y104104976D01*
X13160930Y104089070D01*
X13145024Y104074654D01*
X13127781Y104061866D01*
X13109368Y104050830D01*
X13089962Y104041651D01*
X13069750Y104034419D01*
X13048926Y104029203D01*
X13027691Y104026053D01*
X13006250Y104025000D01*
X12568750Y104025000D01*
X12547309Y104026053D01*
X12526074Y104029203D01*
X12505250Y104034419D01*
X12485038Y104041651D01*
X12465632Y104050830D01*
X12447219Y104061866D01*
X12429976Y104074654D01*
X12414070Y104089070D01*
X12399654Y104104976D01*
X12386866Y104122219D01*
X12375830Y104140632D01*
X12366651Y104160038D01*
X12359419Y104180250D01*
X12354203Y104201074D01*
X12351053Y104222309D01*
X12350000Y104243750D01*
X12350000Y104756250D01*
X12351053Y104777691D01*
X12354203Y104798926D01*
X12359419Y104819750D01*
X12366651Y104839962D01*
X12375830Y104859368D01*
X12386866Y104877781D01*
X12399654Y104895024D01*
X12414070Y104910930D01*
X12429976Y104925346D01*
X12447219Y104938134D01*
X12465632Y104949170D01*
X12485038Y104958349D01*
X12505250Y104965581D01*
X12526074Y104970797D01*
X12547309Y104973947D01*
X12568750Y104975000D01*
X13006250Y104975000D01*
X13027691Y104973947D01*
X13027691Y104973947D01*
G37*
D13*
X12787500Y104500000D03*
D28*
X19500000Y103000000D03*
X17500000Y103950000D03*
X17500000Y102050000D03*
X9000000Y110000000D03*
X11000000Y109050000D03*
X11000000Y110950000D03*
D10*
G36*
X32952691Y117473947D02*
G01*
X32973926Y117470797D01*
X32994750Y117465581D01*
X33014962Y117458349D01*
X33034368Y117449170D01*
X33052781Y117438134D01*
X33070024Y117425346D01*
X33085930Y117410930D01*
X33100346Y117395024D01*
X33113134Y117377781D01*
X33124170Y117359368D01*
X33133349Y117339962D01*
X33140581Y117319750D01*
X33145797Y117298926D01*
X33148947Y117277691D01*
X33150000Y117256250D01*
X33150000Y116743750D01*
X33148947Y116722309D01*
X33145797Y116701074D01*
X33140581Y116680250D01*
X33133349Y116660038D01*
X33124170Y116640632D01*
X33113134Y116622219D01*
X33100346Y116604976D01*
X33085930Y116589070D01*
X33070024Y116574654D01*
X33052781Y116561866D01*
X33034368Y116550830D01*
X33014962Y116541651D01*
X32994750Y116534419D01*
X32973926Y116529203D01*
X32952691Y116526053D01*
X32931250Y116525000D01*
X32493750Y116525000D01*
X32472309Y116526053D01*
X32451074Y116529203D01*
X32430250Y116534419D01*
X32410038Y116541651D01*
X32390632Y116550830D01*
X32372219Y116561866D01*
X32354976Y116574654D01*
X32339070Y116589070D01*
X32324654Y116604976D01*
X32311866Y116622219D01*
X32300830Y116640632D01*
X32291651Y116660038D01*
X32284419Y116680250D01*
X32279203Y116701074D01*
X32276053Y116722309D01*
X32275000Y116743750D01*
X32275000Y117256250D01*
X32276053Y117277691D01*
X32279203Y117298926D01*
X32284419Y117319750D01*
X32291651Y117339962D01*
X32300830Y117359368D01*
X32311866Y117377781D01*
X32324654Y117395024D01*
X32339070Y117410930D01*
X32354976Y117425346D01*
X32372219Y117438134D01*
X32390632Y117449170D01*
X32410038Y117458349D01*
X32430250Y117465581D01*
X32451074Y117470797D01*
X32472309Y117473947D01*
X32493750Y117475000D01*
X32931250Y117475000D01*
X32952691Y117473947D01*
X32952691Y117473947D01*
G37*
D13*
X32712500Y117000000D03*
D10*
G36*
X34527691Y117473947D02*
G01*
X34548926Y117470797D01*
X34569750Y117465581D01*
X34589962Y117458349D01*
X34609368Y117449170D01*
X34627781Y117438134D01*
X34645024Y117425346D01*
X34660930Y117410930D01*
X34675346Y117395024D01*
X34688134Y117377781D01*
X34699170Y117359368D01*
X34708349Y117339962D01*
X34715581Y117319750D01*
X34720797Y117298926D01*
X34723947Y117277691D01*
X34725000Y117256250D01*
X34725000Y116743750D01*
X34723947Y116722309D01*
X34720797Y116701074D01*
X34715581Y116680250D01*
X34708349Y116660038D01*
X34699170Y116640632D01*
X34688134Y116622219D01*
X34675346Y116604976D01*
X34660930Y116589070D01*
X34645024Y116574654D01*
X34627781Y116561866D01*
X34609368Y116550830D01*
X34589962Y116541651D01*
X34569750Y116534419D01*
X34548926Y116529203D01*
X34527691Y116526053D01*
X34506250Y116525000D01*
X34068750Y116525000D01*
X34047309Y116526053D01*
X34026074Y116529203D01*
X34005250Y116534419D01*
X33985038Y116541651D01*
X33965632Y116550830D01*
X33947219Y116561866D01*
X33929976Y116574654D01*
X33914070Y116589070D01*
X33899654Y116604976D01*
X33886866Y116622219D01*
X33875830Y116640632D01*
X33866651Y116660038D01*
X33859419Y116680250D01*
X33854203Y116701074D01*
X33851053Y116722309D01*
X33850000Y116743750D01*
X33850000Y117256250D01*
X33851053Y117277691D01*
X33854203Y117298926D01*
X33859419Y117319750D01*
X33866651Y117339962D01*
X33875830Y117359368D01*
X33886866Y117377781D01*
X33899654Y117395024D01*
X33914070Y117410930D01*
X33929976Y117425346D01*
X33947219Y117438134D01*
X33965632Y117449170D01*
X33985038Y117458349D01*
X34005250Y117465581D01*
X34026074Y117470797D01*
X34047309Y117473947D01*
X34068750Y117475000D01*
X34506250Y117475000D01*
X34527691Y117473947D01*
X34527691Y117473947D01*
G37*
D13*
X34287500Y117000000D03*
D10*
G36*
X29452691Y117473947D02*
G01*
X29473926Y117470797D01*
X29494750Y117465581D01*
X29514962Y117458349D01*
X29534368Y117449170D01*
X29552781Y117438134D01*
X29570024Y117425346D01*
X29585930Y117410930D01*
X29600346Y117395024D01*
X29613134Y117377781D01*
X29624170Y117359368D01*
X29633349Y117339962D01*
X29640581Y117319750D01*
X29645797Y117298926D01*
X29648947Y117277691D01*
X29650000Y117256250D01*
X29650000Y116743750D01*
X29648947Y116722309D01*
X29645797Y116701074D01*
X29640581Y116680250D01*
X29633349Y116660038D01*
X29624170Y116640632D01*
X29613134Y116622219D01*
X29600346Y116604976D01*
X29585930Y116589070D01*
X29570024Y116574654D01*
X29552781Y116561866D01*
X29534368Y116550830D01*
X29514962Y116541651D01*
X29494750Y116534419D01*
X29473926Y116529203D01*
X29452691Y116526053D01*
X29431250Y116525000D01*
X28993750Y116525000D01*
X28972309Y116526053D01*
X28951074Y116529203D01*
X28930250Y116534419D01*
X28910038Y116541651D01*
X28890632Y116550830D01*
X28872219Y116561866D01*
X28854976Y116574654D01*
X28839070Y116589070D01*
X28824654Y116604976D01*
X28811866Y116622219D01*
X28800830Y116640632D01*
X28791651Y116660038D01*
X28784419Y116680250D01*
X28779203Y116701074D01*
X28776053Y116722309D01*
X28775000Y116743750D01*
X28775000Y117256250D01*
X28776053Y117277691D01*
X28779203Y117298926D01*
X28784419Y117319750D01*
X28791651Y117339962D01*
X28800830Y117359368D01*
X28811866Y117377781D01*
X28824654Y117395024D01*
X28839070Y117410930D01*
X28854976Y117425346D01*
X28872219Y117438134D01*
X28890632Y117449170D01*
X28910038Y117458349D01*
X28930250Y117465581D01*
X28951074Y117470797D01*
X28972309Y117473947D01*
X28993750Y117475000D01*
X29431250Y117475000D01*
X29452691Y117473947D01*
X29452691Y117473947D01*
G37*
D13*
X29212500Y117000000D03*
D10*
G36*
X31027691Y117473947D02*
G01*
X31048926Y117470797D01*
X31069750Y117465581D01*
X31089962Y117458349D01*
X31109368Y117449170D01*
X31127781Y117438134D01*
X31145024Y117425346D01*
X31160930Y117410930D01*
X31175346Y117395024D01*
X31188134Y117377781D01*
X31199170Y117359368D01*
X31208349Y117339962D01*
X31215581Y117319750D01*
X31220797Y117298926D01*
X31223947Y117277691D01*
X31225000Y117256250D01*
X31225000Y116743750D01*
X31223947Y116722309D01*
X31220797Y116701074D01*
X31215581Y116680250D01*
X31208349Y116660038D01*
X31199170Y116640632D01*
X31188134Y116622219D01*
X31175346Y116604976D01*
X31160930Y116589070D01*
X31145024Y116574654D01*
X31127781Y116561866D01*
X31109368Y116550830D01*
X31089962Y116541651D01*
X31069750Y116534419D01*
X31048926Y116529203D01*
X31027691Y116526053D01*
X31006250Y116525000D01*
X30568750Y116525000D01*
X30547309Y116526053D01*
X30526074Y116529203D01*
X30505250Y116534419D01*
X30485038Y116541651D01*
X30465632Y116550830D01*
X30447219Y116561866D01*
X30429976Y116574654D01*
X30414070Y116589070D01*
X30399654Y116604976D01*
X30386866Y116622219D01*
X30375830Y116640632D01*
X30366651Y116660038D01*
X30359419Y116680250D01*
X30354203Y116701074D01*
X30351053Y116722309D01*
X30350000Y116743750D01*
X30350000Y117256250D01*
X30351053Y117277691D01*
X30354203Y117298926D01*
X30359419Y117319750D01*
X30366651Y117339962D01*
X30375830Y117359368D01*
X30386866Y117377781D01*
X30399654Y117395024D01*
X30414070Y117410930D01*
X30429976Y117425346D01*
X30447219Y117438134D01*
X30465632Y117449170D01*
X30485038Y117458349D01*
X30505250Y117465581D01*
X30526074Y117470797D01*
X30547309Y117473947D01*
X30568750Y117475000D01*
X31006250Y117475000D01*
X31027691Y117473947D01*
X31027691Y117473947D01*
G37*
D13*
X30787500Y117000000D03*
D10*
G36*
X67777691Y108148947D02*
G01*
X67798926Y108145797D01*
X67819750Y108140581D01*
X67839962Y108133349D01*
X67859368Y108124170D01*
X67877781Y108113134D01*
X67895024Y108100346D01*
X67910930Y108085930D01*
X67925346Y108070024D01*
X67938134Y108052781D01*
X67949170Y108034368D01*
X67958349Y108014962D01*
X67965581Y107994750D01*
X67970797Y107973926D01*
X67973947Y107952691D01*
X67975000Y107931250D01*
X67975000Y107493750D01*
X67973947Y107472309D01*
X67970797Y107451074D01*
X67965581Y107430250D01*
X67958349Y107410038D01*
X67949170Y107390632D01*
X67938134Y107372219D01*
X67925346Y107354976D01*
X67910930Y107339070D01*
X67895024Y107324654D01*
X67877781Y107311866D01*
X67859368Y107300830D01*
X67839962Y107291651D01*
X67819750Y107284419D01*
X67798926Y107279203D01*
X67777691Y107276053D01*
X67756250Y107275000D01*
X67243750Y107275000D01*
X67222309Y107276053D01*
X67201074Y107279203D01*
X67180250Y107284419D01*
X67160038Y107291651D01*
X67140632Y107300830D01*
X67122219Y107311866D01*
X67104976Y107324654D01*
X67089070Y107339070D01*
X67074654Y107354976D01*
X67061866Y107372219D01*
X67050830Y107390632D01*
X67041651Y107410038D01*
X67034419Y107430250D01*
X67029203Y107451074D01*
X67026053Y107472309D01*
X67025000Y107493750D01*
X67025000Y107931250D01*
X67026053Y107952691D01*
X67029203Y107973926D01*
X67034419Y107994750D01*
X67041651Y108014962D01*
X67050830Y108034368D01*
X67061866Y108052781D01*
X67074654Y108070024D01*
X67089070Y108085930D01*
X67104976Y108100346D01*
X67122219Y108113134D01*
X67140632Y108124170D01*
X67160038Y108133349D01*
X67180250Y108140581D01*
X67201074Y108145797D01*
X67222309Y108148947D01*
X67243750Y108150000D01*
X67756250Y108150000D01*
X67777691Y108148947D01*
X67777691Y108148947D01*
G37*
D13*
X67500000Y107712500D03*
D10*
G36*
X67777691Y109723947D02*
G01*
X67798926Y109720797D01*
X67819750Y109715581D01*
X67839962Y109708349D01*
X67859368Y109699170D01*
X67877781Y109688134D01*
X67895024Y109675346D01*
X67910930Y109660930D01*
X67925346Y109645024D01*
X67938134Y109627781D01*
X67949170Y109609368D01*
X67958349Y109589962D01*
X67965581Y109569750D01*
X67970797Y109548926D01*
X67973947Y109527691D01*
X67975000Y109506250D01*
X67975000Y109068750D01*
X67973947Y109047309D01*
X67970797Y109026074D01*
X67965581Y109005250D01*
X67958349Y108985038D01*
X67949170Y108965632D01*
X67938134Y108947219D01*
X67925346Y108929976D01*
X67910930Y108914070D01*
X67895024Y108899654D01*
X67877781Y108886866D01*
X67859368Y108875830D01*
X67839962Y108866651D01*
X67819750Y108859419D01*
X67798926Y108854203D01*
X67777691Y108851053D01*
X67756250Y108850000D01*
X67243750Y108850000D01*
X67222309Y108851053D01*
X67201074Y108854203D01*
X67180250Y108859419D01*
X67160038Y108866651D01*
X67140632Y108875830D01*
X67122219Y108886866D01*
X67104976Y108899654D01*
X67089070Y108914070D01*
X67074654Y108929976D01*
X67061866Y108947219D01*
X67050830Y108965632D01*
X67041651Y108985038D01*
X67034419Y109005250D01*
X67029203Y109026074D01*
X67026053Y109047309D01*
X67025000Y109068750D01*
X67025000Y109506250D01*
X67026053Y109527691D01*
X67029203Y109548926D01*
X67034419Y109569750D01*
X67041651Y109589962D01*
X67050830Y109609368D01*
X67061866Y109627781D01*
X67074654Y109645024D01*
X67089070Y109660930D01*
X67104976Y109675346D01*
X67122219Y109688134D01*
X67140632Y109699170D01*
X67160038Y109708349D01*
X67180250Y109715581D01*
X67201074Y109720797D01*
X67222309Y109723947D01*
X67243750Y109725000D01*
X67756250Y109725000D01*
X67777691Y109723947D01*
X67777691Y109723947D01*
G37*
D13*
X67500000Y109287500D03*
D10*
G36*
X69277691Y116723947D02*
G01*
X69298926Y116720797D01*
X69319750Y116715581D01*
X69339962Y116708349D01*
X69359368Y116699170D01*
X69377781Y116688134D01*
X69395024Y116675346D01*
X69410930Y116660930D01*
X69425346Y116645024D01*
X69438134Y116627781D01*
X69449170Y116609368D01*
X69458349Y116589962D01*
X69465581Y116569750D01*
X69470797Y116548926D01*
X69473947Y116527691D01*
X69475000Y116506250D01*
X69475000Y116068750D01*
X69473947Y116047309D01*
X69470797Y116026074D01*
X69465581Y116005250D01*
X69458349Y115985038D01*
X69449170Y115965632D01*
X69438134Y115947219D01*
X69425346Y115929976D01*
X69410930Y115914070D01*
X69395024Y115899654D01*
X69377781Y115886866D01*
X69359368Y115875830D01*
X69339962Y115866651D01*
X69319750Y115859419D01*
X69298926Y115854203D01*
X69277691Y115851053D01*
X69256250Y115850000D01*
X68743750Y115850000D01*
X68722309Y115851053D01*
X68701074Y115854203D01*
X68680250Y115859419D01*
X68660038Y115866651D01*
X68640632Y115875830D01*
X68622219Y115886866D01*
X68604976Y115899654D01*
X68589070Y115914070D01*
X68574654Y115929976D01*
X68561866Y115947219D01*
X68550830Y115965632D01*
X68541651Y115985038D01*
X68534419Y116005250D01*
X68529203Y116026074D01*
X68526053Y116047309D01*
X68525000Y116068750D01*
X68525000Y116506250D01*
X68526053Y116527691D01*
X68529203Y116548926D01*
X68534419Y116569750D01*
X68541651Y116589962D01*
X68550830Y116609368D01*
X68561866Y116627781D01*
X68574654Y116645024D01*
X68589070Y116660930D01*
X68604976Y116675346D01*
X68622219Y116688134D01*
X68640632Y116699170D01*
X68660038Y116708349D01*
X68680250Y116715581D01*
X68701074Y116720797D01*
X68722309Y116723947D01*
X68743750Y116725000D01*
X69256250Y116725000D01*
X69277691Y116723947D01*
X69277691Y116723947D01*
G37*
D13*
X69000000Y116287500D03*
D10*
G36*
X69277691Y115148947D02*
G01*
X69298926Y115145797D01*
X69319750Y115140581D01*
X69339962Y115133349D01*
X69359368Y115124170D01*
X69377781Y115113134D01*
X69395024Y115100346D01*
X69410930Y115085930D01*
X69425346Y115070024D01*
X69438134Y115052781D01*
X69449170Y115034368D01*
X69458349Y115014962D01*
X69465581Y114994750D01*
X69470797Y114973926D01*
X69473947Y114952691D01*
X69475000Y114931250D01*
X69475000Y114493750D01*
X69473947Y114472309D01*
X69470797Y114451074D01*
X69465581Y114430250D01*
X69458349Y114410038D01*
X69449170Y114390632D01*
X69438134Y114372219D01*
X69425346Y114354976D01*
X69410930Y114339070D01*
X69395024Y114324654D01*
X69377781Y114311866D01*
X69359368Y114300830D01*
X69339962Y114291651D01*
X69319750Y114284419D01*
X69298926Y114279203D01*
X69277691Y114276053D01*
X69256250Y114275000D01*
X68743750Y114275000D01*
X68722309Y114276053D01*
X68701074Y114279203D01*
X68680250Y114284419D01*
X68660038Y114291651D01*
X68640632Y114300830D01*
X68622219Y114311866D01*
X68604976Y114324654D01*
X68589070Y114339070D01*
X68574654Y114354976D01*
X68561866Y114372219D01*
X68550830Y114390632D01*
X68541651Y114410038D01*
X68534419Y114430250D01*
X68529203Y114451074D01*
X68526053Y114472309D01*
X68525000Y114493750D01*
X68525000Y114931250D01*
X68526053Y114952691D01*
X68529203Y114973926D01*
X68534419Y114994750D01*
X68541651Y115014962D01*
X68550830Y115034368D01*
X68561866Y115052781D01*
X68574654Y115070024D01*
X68589070Y115085930D01*
X68604976Y115100346D01*
X68622219Y115113134D01*
X68640632Y115124170D01*
X68660038Y115133349D01*
X68680250Y115140581D01*
X68701074Y115145797D01*
X68722309Y115148947D01*
X68743750Y115150000D01*
X69256250Y115150000D01*
X69277691Y115148947D01*
X69277691Y115148947D01*
G37*
D13*
X69000000Y114712500D03*
D10*
G36*
X67777691Y116723947D02*
G01*
X67798926Y116720797D01*
X67819750Y116715581D01*
X67839962Y116708349D01*
X67859368Y116699170D01*
X67877781Y116688134D01*
X67895024Y116675346D01*
X67910930Y116660930D01*
X67925346Y116645024D01*
X67938134Y116627781D01*
X67949170Y116609368D01*
X67958349Y116589962D01*
X67965581Y116569750D01*
X67970797Y116548926D01*
X67973947Y116527691D01*
X67975000Y116506250D01*
X67975000Y116068750D01*
X67973947Y116047309D01*
X67970797Y116026074D01*
X67965581Y116005250D01*
X67958349Y115985038D01*
X67949170Y115965632D01*
X67938134Y115947219D01*
X67925346Y115929976D01*
X67910930Y115914070D01*
X67895024Y115899654D01*
X67877781Y115886866D01*
X67859368Y115875830D01*
X67839962Y115866651D01*
X67819750Y115859419D01*
X67798926Y115854203D01*
X67777691Y115851053D01*
X67756250Y115850000D01*
X67243750Y115850000D01*
X67222309Y115851053D01*
X67201074Y115854203D01*
X67180250Y115859419D01*
X67160038Y115866651D01*
X67140632Y115875830D01*
X67122219Y115886866D01*
X67104976Y115899654D01*
X67089070Y115914070D01*
X67074654Y115929976D01*
X67061866Y115947219D01*
X67050830Y115965632D01*
X67041651Y115985038D01*
X67034419Y116005250D01*
X67029203Y116026074D01*
X67026053Y116047309D01*
X67025000Y116068750D01*
X67025000Y116506250D01*
X67026053Y116527691D01*
X67029203Y116548926D01*
X67034419Y116569750D01*
X67041651Y116589962D01*
X67050830Y116609368D01*
X67061866Y116627781D01*
X67074654Y116645024D01*
X67089070Y116660930D01*
X67104976Y116675346D01*
X67122219Y116688134D01*
X67140632Y116699170D01*
X67160038Y116708349D01*
X67180250Y116715581D01*
X67201074Y116720797D01*
X67222309Y116723947D01*
X67243750Y116725000D01*
X67756250Y116725000D01*
X67777691Y116723947D01*
X67777691Y116723947D01*
G37*
D13*
X67500000Y116287500D03*
D10*
G36*
X67777691Y115148947D02*
G01*
X67798926Y115145797D01*
X67819750Y115140581D01*
X67839962Y115133349D01*
X67859368Y115124170D01*
X67877781Y115113134D01*
X67895024Y115100346D01*
X67910930Y115085930D01*
X67925346Y115070024D01*
X67938134Y115052781D01*
X67949170Y115034368D01*
X67958349Y115014962D01*
X67965581Y114994750D01*
X67970797Y114973926D01*
X67973947Y114952691D01*
X67975000Y114931250D01*
X67975000Y114493750D01*
X67973947Y114472309D01*
X67970797Y114451074D01*
X67965581Y114430250D01*
X67958349Y114410038D01*
X67949170Y114390632D01*
X67938134Y114372219D01*
X67925346Y114354976D01*
X67910930Y114339070D01*
X67895024Y114324654D01*
X67877781Y114311866D01*
X67859368Y114300830D01*
X67839962Y114291651D01*
X67819750Y114284419D01*
X67798926Y114279203D01*
X67777691Y114276053D01*
X67756250Y114275000D01*
X67243750Y114275000D01*
X67222309Y114276053D01*
X67201074Y114279203D01*
X67180250Y114284419D01*
X67160038Y114291651D01*
X67140632Y114300830D01*
X67122219Y114311866D01*
X67104976Y114324654D01*
X67089070Y114339070D01*
X67074654Y114354976D01*
X67061866Y114372219D01*
X67050830Y114390632D01*
X67041651Y114410038D01*
X67034419Y114430250D01*
X67029203Y114451074D01*
X67026053Y114472309D01*
X67025000Y114493750D01*
X67025000Y114931250D01*
X67026053Y114952691D01*
X67029203Y114973926D01*
X67034419Y114994750D01*
X67041651Y115014962D01*
X67050830Y115034368D01*
X67061866Y115052781D01*
X67074654Y115070024D01*
X67089070Y115085930D01*
X67104976Y115100346D01*
X67122219Y115113134D01*
X67140632Y115124170D01*
X67160038Y115133349D01*
X67180250Y115140581D01*
X67201074Y115145797D01*
X67222309Y115148947D01*
X67243750Y115150000D01*
X67756250Y115150000D01*
X67777691Y115148947D01*
X67777691Y115148947D01*
G37*
D13*
X67500000Y114712500D03*
D10*
G36*
X13027691Y106473947D02*
G01*
X13048926Y106470797D01*
X13069750Y106465581D01*
X13089962Y106458349D01*
X13109368Y106449170D01*
X13127781Y106438134D01*
X13145024Y106425346D01*
X13160930Y106410930D01*
X13175346Y106395024D01*
X13188134Y106377781D01*
X13199170Y106359368D01*
X13208349Y106339962D01*
X13215581Y106319750D01*
X13220797Y106298926D01*
X13223947Y106277691D01*
X13225000Y106256250D01*
X13225000Y105743750D01*
X13223947Y105722309D01*
X13220797Y105701074D01*
X13215581Y105680250D01*
X13208349Y105660038D01*
X13199170Y105640632D01*
X13188134Y105622219D01*
X13175346Y105604976D01*
X13160930Y105589070D01*
X13145024Y105574654D01*
X13127781Y105561866D01*
X13109368Y105550830D01*
X13089962Y105541651D01*
X13069750Y105534419D01*
X13048926Y105529203D01*
X13027691Y105526053D01*
X13006250Y105525000D01*
X12568750Y105525000D01*
X12547309Y105526053D01*
X12526074Y105529203D01*
X12505250Y105534419D01*
X12485038Y105541651D01*
X12465632Y105550830D01*
X12447219Y105561866D01*
X12429976Y105574654D01*
X12414070Y105589070D01*
X12399654Y105604976D01*
X12386866Y105622219D01*
X12375830Y105640632D01*
X12366651Y105660038D01*
X12359419Y105680250D01*
X12354203Y105701074D01*
X12351053Y105722309D01*
X12350000Y105743750D01*
X12350000Y106256250D01*
X12351053Y106277691D01*
X12354203Y106298926D01*
X12359419Y106319750D01*
X12366651Y106339962D01*
X12375830Y106359368D01*
X12386866Y106377781D01*
X12399654Y106395024D01*
X12414070Y106410930D01*
X12429976Y106425346D01*
X12447219Y106438134D01*
X12465632Y106449170D01*
X12485038Y106458349D01*
X12505250Y106465581D01*
X12526074Y106470797D01*
X12547309Y106473947D01*
X12568750Y106475000D01*
X13006250Y106475000D01*
X13027691Y106473947D01*
X13027691Y106473947D01*
G37*
D13*
X12787500Y106000000D03*
D10*
G36*
X11452691Y106473947D02*
G01*
X11473926Y106470797D01*
X11494750Y106465581D01*
X11514962Y106458349D01*
X11534368Y106449170D01*
X11552781Y106438134D01*
X11570024Y106425346D01*
X11585930Y106410930D01*
X11600346Y106395024D01*
X11613134Y106377781D01*
X11624170Y106359368D01*
X11633349Y106339962D01*
X11640581Y106319750D01*
X11645797Y106298926D01*
X11648947Y106277691D01*
X11650000Y106256250D01*
X11650000Y105743750D01*
X11648947Y105722309D01*
X11645797Y105701074D01*
X11640581Y105680250D01*
X11633349Y105660038D01*
X11624170Y105640632D01*
X11613134Y105622219D01*
X11600346Y105604976D01*
X11585930Y105589070D01*
X11570024Y105574654D01*
X11552781Y105561866D01*
X11534368Y105550830D01*
X11514962Y105541651D01*
X11494750Y105534419D01*
X11473926Y105529203D01*
X11452691Y105526053D01*
X11431250Y105525000D01*
X10993750Y105525000D01*
X10972309Y105526053D01*
X10951074Y105529203D01*
X10930250Y105534419D01*
X10910038Y105541651D01*
X10890632Y105550830D01*
X10872219Y105561866D01*
X10854976Y105574654D01*
X10839070Y105589070D01*
X10824654Y105604976D01*
X10811866Y105622219D01*
X10800830Y105640632D01*
X10791651Y105660038D01*
X10784419Y105680250D01*
X10779203Y105701074D01*
X10776053Y105722309D01*
X10775000Y105743750D01*
X10775000Y106256250D01*
X10776053Y106277691D01*
X10779203Y106298926D01*
X10784419Y106319750D01*
X10791651Y106339962D01*
X10800830Y106359368D01*
X10811866Y106377781D01*
X10824654Y106395024D01*
X10839070Y106410930D01*
X10854976Y106425346D01*
X10872219Y106438134D01*
X10890632Y106449170D01*
X10910038Y106458349D01*
X10930250Y106465581D01*
X10951074Y106470797D01*
X10972309Y106473947D01*
X10993750Y106475000D01*
X11431250Y106475000D01*
X11452691Y106473947D01*
X11452691Y106473947D01*
G37*
D13*
X11212500Y106000000D03*
D10*
G36*
X69277691Y111148947D02*
G01*
X69298926Y111145797D01*
X69319750Y111140581D01*
X69339962Y111133349D01*
X69359368Y111124170D01*
X69377781Y111113134D01*
X69395024Y111100346D01*
X69410930Y111085930D01*
X69425346Y111070024D01*
X69438134Y111052781D01*
X69449170Y111034368D01*
X69458349Y111014962D01*
X69465581Y110994750D01*
X69470797Y110973926D01*
X69473947Y110952691D01*
X69475000Y110931250D01*
X69475000Y110493750D01*
X69473947Y110472309D01*
X69470797Y110451074D01*
X69465581Y110430250D01*
X69458349Y110410038D01*
X69449170Y110390632D01*
X69438134Y110372219D01*
X69425346Y110354976D01*
X69410930Y110339070D01*
X69395024Y110324654D01*
X69377781Y110311866D01*
X69359368Y110300830D01*
X69339962Y110291651D01*
X69319750Y110284419D01*
X69298926Y110279203D01*
X69277691Y110276053D01*
X69256250Y110275000D01*
X68743750Y110275000D01*
X68722309Y110276053D01*
X68701074Y110279203D01*
X68680250Y110284419D01*
X68660038Y110291651D01*
X68640632Y110300830D01*
X68622219Y110311866D01*
X68604976Y110324654D01*
X68589070Y110339070D01*
X68574654Y110354976D01*
X68561866Y110372219D01*
X68550830Y110390632D01*
X68541651Y110410038D01*
X68534419Y110430250D01*
X68529203Y110451074D01*
X68526053Y110472309D01*
X68525000Y110493750D01*
X68525000Y110931250D01*
X68526053Y110952691D01*
X68529203Y110973926D01*
X68534419Y110994750D01*
X68541651Y111014962D01*
X68550830Y111034368D01*
X68561866Y111052781D01*
X68574654Y111070024D01*
X68589070Y111085930D01*
X68604976Y111100346D01*
X68622219Y111113134D01*
X68640632Y111124170D01*
X68660038Y111133349D01*
X68680250Y111140581D01*
X68701074Y111145797D01*
X68722309Y111148947D01*
X68743750Y111150000D01*
X69256250Y111150000D01*
X69277691Y111148947D01*
X69277691Y111148947D01*
G37*
D13*
X69000000Y110712500D03*
D10*
G36*
X69277691Y112723947D02*
G01*
X69298926Y112720797D01*
X69319750Y112715581D01*
X69339962Y112708349D01*
X69359368Y112699170D01*
X69377781Y112688134D01*
X69395024Y112675346D01*
X69410930Y112660930D01*
X69425346Y112645024D01*
X69438134Y112627781D01*
X69449170Y112609368D01*
X69458349Y112589962D01*
X69465581Y112569750D01*
X69470797Y112548926D01*
X69473947Y112527691D01*
X69475000Y112506250D01*
X69475000Y112068750D01*
X69473947Y112047309D01*
X69470797Y112026074D01*
X69465581Y112005250D01*
X69458349Y111985038D01*
X69449170Y111965632D01*
X69438134Y111947219D01*
X69425346Y111929976D01*
X69410930Y111914070D01*
X69395024Y111899654D01*
X69377781Y111886866D01*
X69359368Y111875830D01*
X69339962Y111866651D01*
X69319750Y111859419D01*
X69298926Y111854203D01*
X69277691Y111851053D01*
X69256250Y111850000D01*
X68743750Y111850000D01*
X68722309Y111851053D01*
X68701074Y111854203D01*
X68680250Y111859419D01*
X68660038Y111866651D01*
X68640632Y111875830D01*
X68622219Y111886866D01*
X68604976Y111899654D01*
X68589070Y111914070D01*
X68574654Y111929976D01*
X68561866Y111947219D01*
X68550830Y111965632D01*
X68541651Y111985038D01*
X68534419Y112005250D01*
X68529203Y112026074D01*
X68526053Y112047309D01*
X68525000Y112068750D01*
X68525000Y112506250D01*
X68526053Y112527691D01*
X68529203Y112548926D01*
X68534419Y112569750D01*
X68541651Y112589962D01*
X68550830Y112609368D01*
X68561866Y112627781D01*
X68574654Y112645024D01*
X68589070Y112660930D01*
X68604976Y112675346D01*
X68622219Y112688134D01*
X68640632Y112699170D01*
X68660038Y112708349D01*
X68680250Y112715581D01*
X68701074Y112720797D01*
X68722309Y112723947D01*
X68743750Y112725000D01*
X69256250Y112725000D01*
X69277691Y112723947D01*
X69277691Y112723947D01*
G37*
D13*
X69000000Y112287500D03*
D10*
G36*
X67777691Y111148947D02*
G01*
X67798926Y111145797D01*
X67819750Y111140581D01*
X67839962Y111133349D01*
X67859368Y111124170D01*
X67877781Y111113134D01*
X67895024Y111100346D01*
X67910930Y111085930D01*
X67925346Y111070024D01*
X67938134Y111052781D01*
X67949170Y111034368D01*
X67958349Y111014962D01*
X67965581Y110994750D01*
X67970797Y110973926D01*
X67973947Y110952691D01*
X67975000Y110931250D01*
X67975000Y110493750D01*
X67973947Y110472309D01*
X67970797Y110451074D01*
X67965581Y110430250D01*
X67958349Y110410038D01*
X67949170Y110390632D01*
X67938134Y110372219D01*
X67925346Y110354976D01*
X67910930Y110339070D01*
X67895024Y110324654D01*
X67877781Y110311866D01*
X67859368Y110300830D01*
X67839962Y110291651D01*
X67819750Y110284419D01*
X67798926Y110279203D01*
X67777691Y110276053D01*
X67756250Y110275000D01*
X67243750Y110275000D01*
X67222309Y110276053D01*
X67201074Y110279203D01*
X67180250Y110284419D01*
X67160038Y110291651D01*
X67140632Y110300830D01*
X67122219Y110311866D01*
X67104976Y110324654D01*
X67089070Y110339070D01*
X67074654Y110354976D01*
X67061866Y110372219D01*
X67050830Y110390632D01*
X67041651Y110410038D01*
X67034419Y110430250D01*
X67029203Y110451074D01*
X67026053Y110472309D01*
X67025000Y110493750D01*
X67025000Y110931250D01*
X67026053Y110952691D01*
X67029203Y110973926D01*
X67034419Y110994750D01*
X67041651Y111014962D01*
X67050830Y111034368D01*
X67061866Y111052781D01*
X67074654Y111070024D01*
X67089070Y111085930D01*
X67104976Y111100346D01*
X67122219Y111113134D01*
X67140632Y111124170D01*
X67160038Y111133349D01*
X67180250Y111140581D01*
X67201074Y111145797D01*
X67222309Y111148947D01*
X67243750Y111150000D01*
X67756250Y111150000D01*
X67777691Y111148947D01*
X67777691Y111148947D01*
G37*
D13*
X67500000Y110712500D03*
D10*
G36*
X67777691Y112723947D02*
G01*
X67798926Y112720797D01*
X67819750Y112715581D01*
X67839962Y112708349D01*
X67859368Y112699170D01*
X67877781Y112688134D01*
X67895024Y112675346D01*
X67910930Y112660930D01*
X67925346Y112645024D01*
X67938134Y112627781D01*
X67949170Y112609368D01*
X67958349Y112589962D01*
X67965581Y112569750D01*
X67970797Y112548926D01*
X67973947Y112527691D01*
X67975000Y112506250D01*
X67975000Y112068750D01*
X67973947Y112047309D01*
X67970797Y112026074D01*
X67965581Y112005250D01*
X67958349Y111985038D01*
X67949170Y111965632D01*
X67938134Y111947219D01*
X67925346Y111929976D01*
X67910930Y111914070D01*
X67895024Y111899654D01*
X67877781Y111886866D01*
X67859368Y111875830D01*
X67839962Y111866651D01*
X67819750Y111859419D01*
X67798926Y111854203D01*
X67777691Y111851053D01*
X67756250Y111850000D01*
X67243750Y111850000D01*
X67222309Y111851053D01*
X67201074Y111854203D01*
X67180250Y111859419D01*
X67160038Y111866651D01*
X67140632Y111875830D01*
X67122219Y111886866D01*
X67104976Y111899654D01*
X67089070Y111914070D01*
X67074654Y111929976D01*
X67061866Y111947219D01*
X67050830Y111965632D01*
X67041651Y111985038D01*
X67034419Y112005250D01*
X67029203Y112026074D01*
X67026053Y112047309D01*
X67025000Y112068750D01*
X67025000Y112506250D01*
X67026053Y112527691D01*
X67029203Y112548926D01*
X67034419Y112569750D01*
X67041651Y112589962D01*
X67050830Y112609368D01*
X67061866Y112627781D01*
X67074654Y112645024D01*
X67089070Y112660930D01*
X67104976Y112675346D01*
X67122219Y112688134D01*
X67140632Y112699170D01*
X67160038Y112708349D01*
X67180250Y112715581D01*
X67201074Y112720797D01*
X67222309Y112723947D01*
X67243750Y112725000D01*
X67756250Y112725000D01*
X67777691Y112723947D01*
X67777691Y112723947D01*
G37*
D13*
X67500000Y112287500D03*
D10*
G36*
X40027691Y104898947D02*
G01*
X40048926Y104895797D01*
X40069750Y104890581D01*
X40089962Y104883349D01*
X40109368Y104874170D01*
X40127781Y104863134D01*
X40145024Y104850346D01*
X40160930Y104835930D01*
X40175346Y104820024D01*
X40188134Y104802781D01*
X40199170Y104784368D01*
X40208349Y104764962D01*
X40215581Y104744750D01*
X40220797Y104723926D01*
X40223947Y104702691D01*
X40225000Y104681250D01*
X40225000Y104243750D01*
X40223947Y104222309D01*
X40220797Y104201074D01*
X40215581Y104180250D01*
X40208349Y104160038D01*
X40199170Y104140632D01*
X40188134Y104122219D01*
X40175346Y104104976D01*
X40160930Y104089070D01*
X40145024Y104074654D01*
X40127781Y104061866D01*
X40109368Y104050830D01*
X40089962Y104041651D01*
X40069750Y104034419D01*
X40048926Y104029203D01*
X40027691Y104026053D01*
X40006250Y104025000D01*
X39493750Y104025000D01*
X39472309Y104026053D01*
X39451074Y104029203D01*
X39430250Y104034419D01*
X39410038Y104041651D01*
X39390632Y104050830D01*
X39372219Y104061866D01*
X39354976Y104074654D01*
X39339070Y104089070D01*
X39324654Y104104976D01*
X39311866Y104122219D01*
X39300830Y104140632D01*
X39291651Y104160038D01*
X39284419Y104180250D01*
X39279203Y104201074D01*
X39276053Y104222309D01*
X39275000Y104243750D01*
X39275000Y104681250D01*
X39276053Y104702691D01*
X39279203Y104723926D01*
X39284419Y104744750D01*
X39291651Y104764962D01*
X39300830Y104784368D01*
X39311866Y104802781D01*
X39324654Y104820024D01*
X39339070Y104835930D01*
X39354976Y104850346D01*
X39372219Y104863134D01*
X39390632Y104874170D01*
X39410038Y104883349D01*
X39430250Y104890581D01*
X39451074Y104895797D01*
X39472309Y104898947D01*
X39493750Y104900000D01*
X40006250Y104900000D01*
X40027691Y104898947D01*
X40027691Y104898947D01*
G37*
D13*
X39750000Y104462500D03*
D10*
G36*
X40027691Y106473947D02*
G01*
X40048926Y106470797D01*
X40069750Y106465581D01*
X40089962Y106458349D01*
X40109368Y106449170D01*
X40127781Y106438134D01*
X40145024Y106425346D01*
X40160930Y106410930D01*
X40175346Y106395024D01*
X40188134Y106377781D01*
X40199170Y106359368D01*
X40208349Y106339962D01*
X40215581Y106319750D01*
X40220797Y106298926D01*
X40223947Y106277691D01*
X40225000Y106256250D01*
X40225000Y105818750D01*
X40223947Y105797309D01*
X40220797Y105776074D01*
X40215581Y105755250D01*
X40208349Y105735038D01*
X40199170Y105715632D01*
X40188134Y105697219D01*
X40175346Y105679976D01*
X40160930Y105664070D01*
X40145024Y105649654D01*
X40127781Y105636866D01*
X40109368Y105625830D01*
X40089962Y105616651D01*
X40069750Y105609419D01*
X40048926Y105604203D01*
X40027691Y105601053D01*
X40006250Y105600000D01*
X39493750Y105600000D01*
X39472309Y105601053D01*
X39451074Y105604203D01*
X39430250Y105609419D01*
X39410038Y105616651D01*
X39390632Y105625830D01*
X39372219Y105636866D01*
X39354976Y105649654D01*
X39339070Y105664070D01*
X39324654Y105679976D01*
X39311866Y105697219D01*
X39300830Y105715632D01*
X39291651Y105735038D01*
X39284419Y105755250D01*
X39279203Y105776074D01*
X39276053Y105797309D01*
X39275000Y105818750D01*
X39275000Y106256250D01*
X39276053Y106277691D01*
X39279203Y106298926D01*
X39284419Y106319750D01*
X39291651Y106339962D01*
X39300830Y106359368D01*
X39311866Y106377781D01*
X39324654Y106395024D01*
X39339070Y106410930D01*
X39354976Y106425346D01*
X39372219Y106438134D01*
X39390632Y106449170D01*
X39410038Y106458349D01*
X39430250Y106465581D01*
X39451074Y106470797D01*
X39472309Y106473947D01*
X39493750Y106475000D01*
X40006250Y106475000D01*
X40027691Y106473947D01*
X40027691Y106473947D01*
G37*
D13*
X39750000Y106037500D03*
D10*
G36*
X38527691Y104898947D02*
G01*
X38548926Y104895797D01*
X38569750Y104890581D01*
X38589962Y104883349D01*
X38609368Y104874170D01*
X38627781Y104863134D01*
X38645024Y104850346D01*
X38660930Y104835930D01*
X38675346Y104820024D01*
X38688134Y104802781D01*
X38699170Y104784368D01*
X38708349Y104764962D01*
X38715581Y104744750D01*
X38720797Y104723926D01*
X38723947Y104702691D01*
X38725000Y104681250D01*
X38725000Y104243750D01*
X38723947Y104222309D01*
X38720797Y104201074D01*
X38715581Y104180250D01*
X38708349Y104160038D01*
X38699170Y104140632D01*
X38688134Y104122219D01*
X38675346Y104104976D01*
X38660930Y104089070D01*
X38645024Y104074654D01*
X38627781Y104061866D01*
X38609368Y104050830D01*
X38589962Y104041651D01*
X38569750Y104034419D01*
X38548926Y104029203D01*
X38527691Y104026053D01*
X38506250Y104025000D01*
X37993750Y104025000D01*
X37972309Y104026053D01*
X37951074Y104029203D01*
X37930250Y104034419D01*
X37910038Y104041651D01*
X37890632Y104050830D01*
X37872219Y104061866D01*
X37854976Y104074654D01*
X37839070Y104089070D01*
X37824654Y104104976D01*
X37811866Y104122219D01*
X37800830Y104140632D01*
X37791651Y104160038D01*
X37784419Y104180250D01*
X37779203Y104201074D01*
X37776053Y104222309D01*
X37775000Y104243750D01*
X37775000Y104681250D01*
X37776053Y104702691D01*
X37779203Y104723926D01*
X37784419Y104744750D01*
X37791651Y104764962D01*
X37800830Y104784368D01*
X37811866Y104802781D01*
X37824654Y104820024D01*
X37839070Y104835930D01*
X37854976Y104850346D01*
X37872219Y104863134D01*
X37890632Y104874170D01*
X37910038Y104883349D01*
X37930250Y104890581D01*
X37951074Y104895797D01*
X37972309Y104898947D01*
X37993750Y104900000D01*
X38506250Y104900000D01*
X38527691Y104898947D01*
X38527691Y104898947D01*
G37*
D13*
X38250000Y104462500D03*
D10*
G36*
X38527691Y106473947D02*
G01*
X38548926Y106470797D01*
X38569750Y106465581D01*
X38589962Y106458349D01*
X38609368Y106449170D01*
X38627781Y106438134D01*
X38645024Y106425346D01*
X38660930Y106410930D01*
X38675346Y106395024D01*
X38688134Y106377781D01*
X38699170Y106359368D01*
X38708349Y106339962D01*
X38715581Y106319750D01*
X38720797Y106298926D01*
X38723947Y106277691D01*
X38725000Y106256250D01*
X38725000Y105818750D01*
X38723947Y105797309D01*
X38720797Y105776074D01*
X38715581Y105755250D01*
X38708349Y105735038D01*
X38699170Y105715632D01*
X38688134Y105697219D01*
X38675346Y105679976D01*
X38660930Y105664070D01*
X38645024Y105649654D01*
X38627781Y105636866D01*
X38609368Y105625830D01*
X38589962Y105616651D01*
X38569750Y105609419D01*
X38548926Y105604203D01*
X38527691Y105601053D01*
X38506250Y105600000D01*
X37993750Y105600000D01*
X37972309Y105601053D01*
X37951074Y105604203D01*
X37930250Y105609419D01*
X37910038Y105616651D01*
X37890632Y105625830D01*
X37872219Y105636866D01*
X37854976Y105649654D01*
X37839070Y105664070D01*
X37824654Y105679976D01*
X37811866Y105697219D01*
X37800830Y105715632D01*
X37791651Y105735038D01*
X37784419Y105755250D01*
X37779203Y105776074D01*
X37776053Y105797309D01*
X37775000Y105818750D01*
X37775000Y106256250D01*
X37776053Y106277691D01*
X37779203Y106298926D01*
X37784419Y106319750D01*
X37791651Y106339962D01*
X37800830Y106359368D01*
X37811866Y106377781D01*
X37824654Y106395024D01*
X37839070Y106410930D01*
X37854976Y106425346D01*
X37872219Y106438134D01*
X37890632Y106449170D01*
X37910038Y106458349D01*
X37930250Y106465581D01*
X37951074Y106470797D01*
X37972309Y106473947D01*
X37993750Y106475000D01*
X38506250Y106475000D01*
X38527691Y106473947D01*
X38527691Y106473947D01*
G37*
D13*
X38250000Y106037500D03*
M02*
