G04 #@! TF.GenerationSoftware,KiCad,Pcbnew,(5.1.5)-3*
G04 #@! TF.CreationDate,2020-06-01T09:55:04+02:00*
G04 #@! TF.ProjectId,cz-badge-hardware,637a2d62-6164-4676-952d-686172647761,rev?*
G04 #@! TF.SameCoordinates,PX17d7840PY7735940*
G04 #@! TF.FileFunction,Other,User*
%FSLAX46Y46*%
G04 Gerber Fmt 4.6, Leading zero omitted, Abs format (unit mm)*
G04 Created by KiCad (PCBNEW (5.1.5)-3) date 2020-06-01 09:55:04*
%MOMM*%
%LPD*%
G04 APERTURE LIST*
%ADD10C,0.050000*%
%ADD11C,0.120000*%
G04 APERTURE END LIST*
D10*
X100800000Y2500000D02*
G75*
G03X100800000Y2500000I-3300000J0D01*
G01*
X100800000Y97500000D02*
G75*
G03X100800000Y97500000I-3300000J0D01*
G01*
X5803407Y97500000D02*
G75*
G03X5803407Y97500000I-3303407J0D01*
G01*
X93850000Y30000000D02*
G75*
G03X93850000Y30000000I-1250000J0D01*
G01*
X13850000Y16400000D02*
G75*
G03X13850000Y16400000I-1250000J0D01*
G01*
X11850000Y82400000D02*
G75*
G03X11850000Y82400000I-1250000J0D01*
G01*
X82170000Y79680000D02*
G75*
G03X82170000Y79680000I-1250000J0D01*
G01*
X89810000Y71850000D02*
G75*
G03X89810000Y71850000I-1250000J0D01*
G01*
X83150000Y96050000D02*
G75*
G03X83150000Y96050000I-1250000J0D01*
G01*
X77800000Y102050000D02*
G75*
G03X77800000Y102050000I-1250000J0D01*
G01*
X63850000Y95900000D02*
G75*
G03X63850000Y95900000I-1250000J0D01*
G01*
X94800000Y75100000D02*
X94800000Y68100000D01*
X94800000Y68100000D02*
X98800000Y68100000D01*
X98800000Y68100000D02*
X98800000Y75100000D01*
X98800000Y75100000D02*
X94800000Y75100000D01*
X29400000Y47450000D02*
G75*
G03X29400000Y47450000I-1250000J0D01*
G01*
X25850000Y47400000D02*
G75*
G03X25850000Y47400000I-1250000J0D01*
G01*
X25750000Y44000000D02*
G75*
G03X25750000Y44000000I-1250000J0D01*
G01*
X29250000Y44000000D02*
G75*
G03X29250000Y44000000I-1250000J0D01*
G01*
X38020000Y26870000D02*
X40980000Y26870000D01*
X38020000Y28330000D02*
X38020000Y26870000D01*
X40980000Y28330000D02*
X38020000Y28330000D01*
X40980000Y26870000D02*
X40980000Y28330000D01*
X40720000Y13270000D02*
X43680000Y13270000D01*
X40720000Y14730000D02*
X40720000Y13270000D01*
X43680000Y14730000D02*
X40720000Y14730000D01*
X43680000Y13270000D02*
X43680000Y14730000D01*
X43270000Y37380000D02*
X43270000Y34420000D01*
X44730000Y37380000D02*
X43270000Y37380000D01*
X44730000Y34420000D02*
X44730000Y37380000D01*
X43270000Y34420000D02*
X44730000Y34420000D01*
X55780000Y60780000D02*
X55780000Y64380000D01*
X51980000Y60780000D02*
X55780000Y60780000D01*
X51980000Y64380000D02*
X51980000Y60780000D01*
X55780000Y64380000D02*
X51980000Y64380000D01*
X49520000Y64470000D02*
X52480000Y64470000D01*
X49520000Y65930000D02*
X49520000Y64470000D01*
X52480000Y65930000D02*
X49520000Y65930000D01*
X52480000Y64470000D02*
X52480000Y65930000D01*
X55580000Y65930000D02*
X52620000Y65930000D01*
X55580000Y64470000D02*
X55580000Y65930000D01*
X52620000Y64470000D02*
X55580000Y64470000D01*
X52620000Y65930000D02*
X52620000Y64470000D01*
X55592500Y60730000D02*
X52632500Y60730000D01*
X55592500Y59270000D02*
X55592500Y60730000D01*
X52632500Y59270000D02*
X55592500Y59270000D01*
X52632500Y60730000D02*
X52632500Y59270000D01*
X48620000Y66270000D02*
X51580000Y66270000D01*
X48620000Y67730000D02*
X48620000Y66270000D01*
X51580000Y67730000D02*
X48620000Y67730000D01*
X51580000Y66270000D02*
X51580000Y67730000D01*
X52160000Y24900000D02*
X44750000Y24900000D01*
X52160000Y34100000D02*
X44750000Y34100000D01*
X44750000Y34100000D02*
X44750000Y24900000D01*
X52160000Y34100000D02*
X52160000Y24900000D01*
X52160000Y15550000D02*
X44750000Y15550000D01*
X52160000Y24750000D02*
X44750000Y24750000D01*
X44750000Y24750000D02*
X44750000Y15550000D01*
X52160000Y24750000D02*
X52160000Y15550000D01*
X52160000Y6200000D02*
X44750000Y6200000D01*
X52160000Y15400000D02*
X44750000Y15400000D01*
X44750000Y15400000D02*
X44750000Y6200000D01*
X52160000Y15400000D02*
X52160000Y6200000D01*
X41580000Y37326000D02*
X41580000Y34366000D01*
X43040000Y37326000D02*
X41580000Y37326000D01*
X43040000Y34366000D02*
X43040000Y37326000D01*
X41580000Y34366000D02*
X43040000Y34366000D01*
X39970000Y25780000D02*
X39970000Y22820000D01*
X41430000Y25780000D02*
X39970000Y25780000D01*
X41430000Y22820000D02*
X41430000Y25780000D01*
X39970000Y22820000D02*
X41430000Y22820000D01*
X40576000Y19368000D02*
X43536000Y19368000D01*
X40576000Y20828000D02*
X40576000Y19368000D01*
X43536000Y20828000D02*
X40576000Y20828000D01*
X43536000Y19368000D02*
X43536000Y20828000D01*
X69012000Y103112000D02*
X69012000Y100152000D01*
X70472000Y103112000D02*
X69012000Y103112000D01*
X70472000Y100152000D02*
X70472000Y103112000D01*
X69012000Y100152000D02*
X70472000Y100152000D01*
X71996000Y100152000D02*
X71996000Y103112000D01*
X70536000Y100152000D02*
X71996000Y100152000D01*
X70536000Y103112000D02*
X70536000Y100152000D01*
X71996000Y103112000D02*
X70536000Y103112000D01*
X68948000Y100152000D02*
X68948000Y103112000D01*
X67488000Y100152000D02*
X68948000Y100152000D01*
X67488000Y103112000D02*
X67488000Y100152000D01*
X68948000Y103112000D02*
X67488000Y103112000D01*
X49148000Y71406000D02*
G75*
G03X49148000Y71406000I-1250000J0D01*
G01*
D11*
X99850000Y8850000D02*
X98850000Y8850000D01*
X99850000Y17850000D02*
X99850000Y8850000D01*
X94450000Y17850000D02*
X99850000Y17850000D01*
X94450000Y8850000D02*
X94450000Y17850000D01*
X98850000Y8850000D02*
X94450000Y8850000D01*
D10*
X99850000Y31100000D02*
X99850000Y19700000D01*
X91350000Y31100000D02*
X99850000Y31100000D01*
X91350000Y19700000D02*
X91350000Y31100000D01*
X99850000Y19700000D02*
X91350000Y19700000D01*
X59450000Y109950000D02*
X39950000Y109950000D01*
X39950000Y78050000D02*
X39950000Y109950000D01*
X59450000Y78050000D02*
X39950000Y78050000D01*
X59450000Y109950000D02*
X59450000Y78050000D01*
X48250000Y47650000D02*
X48250000Y46600000D01*
X46150000Y47650000D02*
X48250000Y47650000D01*
X46150000Y46600000D02*
X46150000Y47650000D01*
X48250000Y46600000D02*
X48950000Y46600000D01*
X45450000Y46600000D02*
X46150000Y46600000D01*
X45450000Y46600000D02*
X44300000Y45450000D01*
X48950000Y46600000D02*
X50100000Y45450000D01*
X44300000Y45450000D02*
X44300000Y40800000D01*
X50100000Y45450000D02*
X50100000Y40800000D01*
X48250000Y40800000D02*
X50100000Y40800000D01*
X48250000Y39750000D02*
X48250000Y40800000D01*
X46150000Y39750000D02*
X48250000Y39750000D01*
X46150000Y40800000D02*
X46150000Y39750000D01*
X44300000Y40800000D02*
X46150000Y40800000D01*
X45575000Y74600000D02*
G75*
G03X45575000Y74600000I-1250000J0D01*
G01*
X48850000Y75950000D02*
G75*
G03X48850000Y75950000I-1250000J0D01*
G01*
X51820000Y60450000D02*
G75*
G03X51820000Y60450000I-1250000J0D01*
G01*
X40400000Y57250000D02*
G75*
G03X40400000Y57250000I-1250000J0D01*
G01*
X81850000Y61400000D02*
G75*
G03X81850000Y61400000I-1250000J0D01*
G01*
X48650000Y67000000D02*
G75*
G03X48650000Y67000000I-1250000J0D01*
G01*
X86332500Y21270000D02*
X89292500Y21270000D01*
X86332500Y22730000D02*
X86332500Y21270000D01*
X89292500Y22730000D02*
X86332500Y22730000D01*
X89292500Y21270000D02*
X89292500Y22730000D01*
X86320000Y18170000D02*
X89280000Y18170000D01*
X86320000Y19630000D02*
X86320000Y18170000D01*
X89280000Y19630000D02*
X86320000Y19630000D01*
X89280000Y18170000D02*
X89280000Y19630000D01*
X89280000Y21180000D02*
X86320000Y21180000D01*
X89280000Y19720000D02*
X89280000Y21180000D01*
X86320000Y19720000D02*
X89280000Y19720000D01*
X86320000Y21180000D02*
X86320000Y19720000D01*
X69150000Y97650000D02*
X69150000Y96600000D01*
X67050000Y97650000D02*
X69150000Y97650000D01*
X67050000Y96600000D02*
X67050000Y97650000D01*
X69150000Y96600000D02*
X69850000Y96600000D01*
X66350000Y96600000D02*
X67050000Y96600000D01*
X66350000Y96600000D02*
X65200000Y95450000D01*
X69850000Y96600000D02*
X71000000Y95450000D01*
X65200000Y95450000D02*
X65200000Y90800000D01*
X71000000Y95450000D02*
X71000000Y90800000D01*
X69150000Y90800000D02*
X71000000Y90800000D01*
X69150000Y89750000D02*
X69150000Y90800000D01*
X67050000Y89750000D02*
X69150000Y89750000D01*
X67050000Y90800000D02*
X67050000Y89750000D01*
X65200000Y90800000D02*
X67050000Y90800000D01*
X90950000Y29450000D02*
X89900000Y29450000D01*
X90950000Y31550000D02*
X90950000Y29450000D01*
X89900000Y31550000D02*
X90950000Y31550000D01*
X89900000Y29450000D02*
X89900000Y28750000D01*
X89900000Y32250000D02*
X89900000Y31550000D01*
X89900000Y32250000D02*
X88750000Y33400000D01*
X89900000Y28750000D02*
X88750000Y27600000D01*
X88750000Y33400000D02*
X84100000Y33400000D01*
X88750000Y27600000D02*
X84100000Y27600000D01*
X84100000Y29450000D02*
X84100000Y27600000D01*
X83050000Y29450000D02*
X84100000Y29450000D01*
X83050000Y31550000D02*
X83050000Y29450000D01*
X84100000Y31550000D02*
X83050000Y31550000D01*
X84100000Y33400000D02*
X84100000Y31550000D01*
X74800000Y95000000D02*
X78400000Y95000000D01*
X74800000Y98800000D02*
X74800000Y95000000D01*
X78400000Y98800000D02*
X74800000Y98800000D01*
X78400000Y95000000D02*
X78400000Y98800000D01*
X93600000Y40800000D02*
X97200000Y40800000D01*
X97200000Y40800000D02*
X97200000Y37000000D01*
X97200000Y37000000D02*
X93600000Y37000000D01*
X93600000Y37000000D02*
X93600000Y40800000D01*
X88600000Y2500000D02*
X88600000Y9900000D01*
X94000000Y2500000D02*
X88600000Y2500000D01*
X94000000Y9900000D02*
X94000000Y2500000D01*
X88600000Y9900000D02*
X94000000Y9900000D01*
X98930000Y39020000D02*
X98930000Y41980000D01*
X97470000Y39020000D02*
X98930000Y39020000D01*
X97470000Y41980000D02*
X97470000Y39020000D01*
X98930000Y41980000D02*
X97470000Y41980000D01*
X97980000Y36830000D02*
X95020000Y36830000D01*
X97980000Y35370000D02*
X97980000Y36830000D01*
X95020000Y35370000D02*
X97980000Y35370000D01*
X95020000Y36830000D02*
X95020000Y35370000D01*
X97270000Y34280000D02*
X97270000Y31320000D01*
X98730000Y34280000D02*
X97270000Y34280000D01*
X98730000Y31320000D02*
X98730000Y34280000D01*
X97270000Y31320000D02*
X98730000Y31320000D01*
X97330000Y19530000D02*
X94370000Y19530000D01*
X97330000Y18070000D02*
X97330000Y19530000D01*
X94370000Y18070000D02*
X97330000Y18070000D01*
X94370000Y19530000D02*
X94370000Y18070000D01*
X89120000Y12980000D02*
X89120000Y10020000D01*
X90580000Y12980000D02*
X89120000Y12980000D01*
X90580000Y10020000D02*
X90580000Y12980000D01*
X89120000Y10020000D02*
X90580000Y10020000D01*
X83670000Y2420000D02*
X86630000Y2420000D01*
X83670000Y3880000D02*
X83670000Y2420000D01*
X86630000Y3880000D02*
X83670000Y3880000D01*
X86630000Y2420000D02*
X86630000Y3880000D01*
X83670000Y820000D02*
X86630000Y820000D01*
X83670000Y2280000D02*
X83670000Y820000D01*
X86630000Y2280000D02*
X83670000Y2280000D01*
X86630000Y820000D02*
X86630000Y2280000D01*
X87980000Y5930000D02*
X85020000Y5930000D01*
X87980000Y4470000D02*
X87980000Y5930000D01*
X85020000Y4470000D02*
X87980000Y4470000D01*
X85020000Y5930000D02*
X85020000Y4470000D01*
X84930000Y5720000D02*
X84930000Y8680000D01*
X83470000Y5720000D02*
X84930000Y5720000D01*
X83470000Y8680000D02*
X83470000Y5720000D01*
X84930000Y8680000D02*
X83470000Y8680000D01*
X94950000Y42200000D02*
X98450000Y42200000D01*
X94950000Y45600000D02*
X94950000Y42200000D01*
X98450000Y45600000D02*
X94950000Y45600000D01*
X98450000Y42200000D02*
X98450000Y45600000D01*
X91350000Y42200000D02*
X94850000Y42200000D01*
X91350000Y45600000D02*
X91350000Y42200000D01*
X94850000Y45600000D02*
X91350000Y45600000D01*
X94850000Y42200000D02*
X94850000Y45600000D01*
X90700000Y10850000D02*
X94200000Y10850000D01*
X90700000Y14250000D02*
X90700000Y10850000D01*
X94200000Y14250000D02*
X90700000Y14250000D01*
X94200000Y10850000D02*
X94200000Y14250000D01*
X92900000Y31700000D02*
X96400000Y31700000D01*
X92900000Y35100000D02*
X92900000Y31700000D01*
X96400000Y35100000D02*
X92900000Y35100000D01*
X96400000Y31700000D02*
X96400000Y35100000D01*
X90700000Y15700000D02*
X94200000Y15700000D01*
X90700000Y19100000D02*
X90700000Y15700000D01*
X94200000Y19100000D02*
X90700000Y19100000D01*
X94200000Y15700000D02*
X94200000Y19100000D01*
X85000000Y9850000D02*
X85000000Y6350000D01*
X88400000Y9850000D02*
X85000000Y9850000D01*
X88400000Y6350000D02*
X88400000Y9850000D01*
X85000000Y6350000D02*
X88400000Y6350000D01*
X93850000Y87000000D02*
X97350000Y87000000D01*
X93850000Y94000000D02*
X93850000Y87000000D01*
X97350000Y94000000D02*
X93850000Y94000000D01*
X97350000Y87000000D02*
X97350000Y94000000D01*
X80570000Y2420000D02*
X83530000Y2420000D01*
X80570000Y3880000D02*
X80570000Y2420000D01*
X83530000Y3880000D02*
X80570000Y3880000D01*
X83530000Y2420000D02*
X83530000Y3880000D01*
X80570000Y820000D02*
X83530000Y820000D01*
X80570000Y2280000D02*
X80570000Y820000D01*
X83530000Y2280000D02*
X80570000Y2280000D01*
X83530000Y820000D02*
X83530000Y2280000D01*
X74630000Y97720000D02*
X74630000Y100680000D01*
X73170000Y97720000D02*
X74630000Y97720000D01*
X73170000Y100680000D02*
X73170000Y97720000D01*
X74630000Y100680000D02*
X73170000Y100680000D01*
X78580000Y93630000D02*
X75620000Y93630000D01*
X78580000Y92170000D02*
X78580000Y93630000D01*
X75620000Y92170000D02*
X78580000Y92170000D01*
X75620000Y93630000D02*
X75620000Y92170000D01*
X93530000Y37020000D02*
X93530000Y39980000D01*
X92070000Y37020000D02*
X93530000Y37020000D01*
X92070000Y39980000D02*
X92070000Y37020000D01*
X93530000Y39980000D02*
X92070000Y39980000D01*
X7170000Y107530000D02*
X7170000Y104570000D01*
X8630000Y107530000D02*
X7170000Y107530000D01*
X8630000Y104570000D02*
X8630000Y107530000D01*
X7170000Y104570000D02*
X8630000Y104570000D01*
X12430000Y97630000D02*
X9470000Y97630000D01*
X12430000Y96170000D02*
X12430000Y97630000D01*
X9470000Y96170000D02*
X12430000Y96170000D01*
X9470000Y97630000D02*
X9470000Y96170000D01*
X8770000Y107530000D02*
X8770000Y104570000D01*
X10230000Y107530000D02*
X8770000Y107530000D01*
X10230000Y104570000D02*
X10230000Y107530000D01*
X8770000Y104570000D02*
X10230000Y104570000D01*
X10370000Y107530000D02*
X10370000Y104570000D01*
X11830000Y107530000D02*
X10370000Y107530000D01*
X11830000Y104570000D02*
X11830000Y107530000D01*
X10370000Y104570000D02*
X11830000Y104570000D01*
X12430000Y100830000D02*
X9470000Y100830000D01*
X12430000Y99370000D02*
X12430000Y100830000D01*
X9470000Y99370000D02*
X12430000Y99370000D01*
X9470000Y100830000D02*
X9470000Y99370000D01*
X12430000Y99230000D02*
X9470000Y99230000D01*
X12430000Y97770000D02*
X12430000Y99230000D01*
X9470000Y97770000D02*
X12430000Y97770000D01*
X9470000Y99230000D02*
X9470000Y97770000D01*
X52880000Y77955000D02*
X49920000Y77955000D01*
X52880000Y76495000D02*
X52880000Y77955000D01*
X49920000Y76495000D02*
X52880000Y76495000D01*
X49920000Y77955000D02*
X49920000Y76495000D01*
X52970000Y76830000D02*
X52970000Y73870000D01*
X54430000Y76830000D02*
X52970000Y76830000D01*
X54430000Y73870000D02*
X54430000Y76830000D01*
X52970000Y73870000D02*
X54430000Y73870000D01*
X90680000Y101330000D02*
X87720000Y101330000D01*
X90680000Y99870000D02*
X90680000Y101330000D01*
X87720000Y99870000D02*
X90680000Y99870000D01*
X87720000Y101330000D02*
X87720000Y99870000D01*
X68931014Y74014214D02*
X71158400Y76241600D01*
X69920963Y73024264D02*
X68931014Y74014214D01*
X69496699Y72600000D02*
X69920963Y73024264D01*
X69920963Y72175736D02*
X69496699Y72600000D01*
X68931014Y71185786D02*
X69920963Y72175736D01*
X71158400Y68958400D02*
X68931014Y71185786D01*
X76214214Y66731014D02*
X78441600Y68958400D01*
X75224264Y67720963D02*
X76214214Y66731014D01*
X74800000Y67296699D02*
X75224264Y67720963D01*
X74375736Y67720963D02*
X74800000Y67296699D01*
X73385786Y66731014D02*
X74375736Y67720963D01*
X71158400Y68958400D02*
X73385786Y66731014D01*
X73385786Y78468986D02*
X71158400Y76241600D01*
X74375736Y77479037D02*
X73385786Y78468986D01*
X74800000Y77903301D02*
X74375736Y77479037D01*
X75224264Y77479037D02*
X74800000Y77903301D01*
X76214214Y78468986D02*
X75224264Y77479037D01*
X78441600Y76241600D02*
X76214214Y78468986D01*
X80668986Y71185786D02*
X78441600Y68958400D01*
X79679037Y72175736D02*
X80668986Y71185786D01*
X80103301Y72600000D02*
X79679037Y72175736D01*
X79679037Y73024264D02*
X80103301Y72600000D01*
X80668986Y74014214D02*
X79679037Y73024264D01*
X78441600Y76241600D02*
X80668986Y74014214D01*
X83100000Y69050000D02*
X87300000Y69050000D01*
X83100000Y65650000D02*
X83100000Y69050000D01*
X87300000Y65650000D02*
X83100000Y65650000D01*
X87300000Y69050000D02*
X87300000Y65650000D01*
X82130000Y97720000D02*
X82130000Y100680000D01*
X80670000Y97720000D02*
X82130000Y97720000D01*
X80670000Y100680000D02*
X80670000Y97720000D01*
X82130000Y100680000D02*
X80670000Y100680000D01*
X81780000Y64230000D02*
X78820000Y64230000D01*
X81780000Y62770000D02*
X81780000Y64230000D01*
X78820000Y62770000D02*
X81780000Y62770000D01*
X78820000Y64230000D02*
X78820000Y62770000D01*
X49805000Y74455000D02*
X46845000Y74455000D01*
X49805000Y72995000D02*
X49805000Y74455000D01*
X46845000Y72995000D02*
X49805000Y72995000D01*
X46845000Y74455000D02*
X46845000Y72995000D01*
X61470000Y101280000D02*
X61470000Y98320000D01*
X62930000Y101280000D02*
X61470000Y101280000D01*
X62930000Y98320000D02*
X62930000Y101280000D01*
X61470000Y98320000D02*
X62930000Y98320000D01*
X73270000Y78670000D02*
X76230000Y78670000D01*
X73270000Y80130000D02*
X73270000Y78670000D01*
X76230000Y80130000D02*
X73270000Y80130000D01*
X76230000Y78670000D02*
X76230000Y80130000D01*
X81030000Y65855000D02*
X78070000Y65855000D01*
X81030000Y64395000D02*
X81030000Y65855000D01*
X78070000Y64395000D02*
X81030000Y64395000D01*
X78070000Y65855000D02*
X78070000Y64395000D01*
X84380000Y74830000D02*
X81420000Y74830000D01*
X84380000Y73370000D02*
X84380000Y74830000D01*
X81420000Y73370000D02*
X84380000Y73370000D01*
X81420000Y74830000D02*
X81420000Y73370000D01*
X83030000Y65920000D02*
X83030000Y68880000D01*
X81570000Y65920000D02*
X83030000Y65920000D01*
X81570000Y68880000D02*
X81570000Y65920000D01*
X83030000Y68880000D02*
X81570000Y68880000D01*
X87370000Y68880000D02*
X87370000Y65920000D01*
X88830000Y68880000D02*
X87370000Y68880000D01*
X88830000Y65920000D02*
X88830000Y68880000D01*
X87370000Y65920000D02*
X88830000Y65920000D01*
X50670000Y43670000D02*
X53630000Y43670000D01*
X50670000Y45130000D02*
X50670000Y43670000D01*
X53630000Y45130000D02*
X50670000Y45130000D01*
X53630000Y43670000D02*
X53630000Y45130000D01*
X40970000Y44170000D02*
X43930000Y44170000D01*
X40970000Y45630000D02*
X40970000Y44170000D01*
X43930000Y45630000D02*
X40970000Y45630000D01*
X43930000Y44170000D02*
X43930000Y45630000D01*
X85680000Y101130000D02*
X82720000Y101130000D01*
X85680000Y99670000D02*
X85680000Y101130000D01*
X82720000Y99670000D02*
X85680000Y99670000D01*
X82720000Y101130000D02*
X82720000Y99670000D01*
X-50000Y93180000D02*
X14650000Y93180000D01*
X14650000Y77020000D02*
X14650000Y93180000D01*
X-50000Y77020000D02*
X-50000Y93180000D01*
X-50000Y77020000D02*
X14650000Y77020000D01*
X49220000Y47300000D02*
X49220000Y54700000D01*
X54780000Y47300000D02*
X49220000Y47300000D01*
X54780000Y54700000D02*
X54780000Y47300000D01*
X49220000Y54700000D02*
X54780000Y54700000D01*
X40020000Y64100000D02*
X40020000Y71500000D01*
X45580000Y64100000D02*
X40020000Y64100000D01*
X45580000Y71500000D02*
X45580000Y64100000D01*
X40020000Y71500000D02*
X45580000Y71500000D01*
X39820000Y47300000D02*
X39820000Y54700000D01*
X45380000Y47300000D02*
X39820000Y47300000D01*
X45380000Y54700000D02*
X45380000Y47300000D01*
X39820000Y54700000D02*
X45380000Y54700000D01*
X54870000Y51280000D02*
X54870000Y48320000D01*
X56330000Y51280000D02*
X54870000Y51280000D01*
X56330000Y48320000D02*
X56330000Y51280000D01*
X54870000Y48320000D02*
X56330000Y48320000D01*
X54870000Y54280000D02*
X54870000Y51320000D01*
X56330000Y54280000D02*
X54870000Y54280000D01*
X56330000Y51320000D02*
X56330000Y54280000D01*
X54870000Y51320000D02*
X56330000Y51320000D01*
X53070000Y58930000D02*
X53070000Y55970000D01*
X54530000Y58930000D02*
X53070000Y58930000D01*
X54530000Y55970000D02*
X54530000Y58930000D01*
X53070000Y55970000D02*
X54530000Y55970000D01*
X53030000Y55970000D02*
X53030000Y58930000D01*
X51570000Y55970000D02*
X53030000Y55970000D01*
X51570000Y58930000D02*
X51570000Y55970000D01*
X53030000Y58930000D02*
X51570000Y58930000D01*
X45770000Y51080000D02*
X45770000Y48120000D01*
X47230000Y51080000D02*
X45770000Y51080000D01*
X47230000Y48120000D02*
X47230000Y51080000D01*
X45770000Y48120000D02*
X47230000Y48120000D01*
X45770000Y54080000D02*
X45770000Y51120000D01*
X47230000Y54080000D02*
X45770000Y54080000D01*
X47230000Y51120000D02*
X47230000Y54080000D01*
X45770000Y51120000D02*
X47230000Y51120000D01*
X43370000Y58680000D02*
X43370000Y55720000D01*
X44830000Y58680000D02*
X43370000Y58680000D01*
X44830000Y55720000D02*
X44830000Y58680000D01*
X43370000Y55720000D02*
X44830000Y55720000D01*
X43310000Y55720000D02*
X43310000Y58680000D01*
X41850000Y55720000D02*
X43310000Y55720000D01*
X41850000Y58680000D02*
X41850000Y55720000D01*
X43310000Y58680000D02*
X41850000Y58680000D01*
X48145000Y57830000D02*
X48145000Y54870000D01*
X49605000Y57830000D02*
X48145000Y57830000D01*
X49605000Y54870000D02*
X49605000Y57830000D01*
X48145000Y54870000D02*
X49605000Y54870000D01*
X50670000Y45170000D02*
X53630000Y45170000D01*
X50670000Y46630000D02*
X50670000Y45170000D01*
X53630000Y46630000D02*
X50670000Y46630000D01*
X53630000Y45170000D02*
X53630000Y46630000D01*
X45030000Y60620000D02*
X45030000Y63580000D01*
X43570000Y60620000D02*
X45030000Y60620000D01*
X43570000Y63580000D02*
X43570000Y60620000D01*
X45030000Y63580000D02*
X43570000Y63580000D01*
X47250000Y60420000D02*
X47250000Y63780000D01*
X45350000Y60420000D02*
X47250000Y60420000D01*
X45350000Y63780000D02*
X45350000Y60420000D01*
X47250000Y63780000D02*
X45350000Y63780000D01*
X50060000Y58930000D02*
X50060000Y55970000D01*
X51520000Y58930000D02*
X50060000Y58930000D01*
X51520000Y55970000D02*
X51520000Y58930000D01*
X50060000Y55970000D02*
X51520000Y55970000D01*
X40370000Y58680000D02*
X40370000Y55720000D01*
X41830000Y58680000D02*
X40370000Y58680000D01*
X41830000Y55720000D02*
X41830000Y58680000D01*
X40370000Y55720000D02*
X41830000Y55720000D01*
X40970000Y45670000D02*
X43930000Y45670000D01*
X40970000Y47130000D02*
X40970000Y45670000D01*
X43930000Y47130000D02*
X40970000Y47130000D01*
X43930000Y45670000D02*
X43930000Y47130000D01*
X38270000Y55680000D02*
X38270000Y52720000D01*
X39730000Y55680000D02*
X38270000Y55680000D01*
X39730000Y52720000D02*
X39730000Y55680000D01*
X38270000Y52720000D02*
X39730000Y52720000D01*
X76250000Y24650000D02*
X78550000Y24650000D01*
X78550000Y19950000D02*
X78550000Y24650000D01*
X76250000Y19950000D02*
X78550000Y19950000D01*
X76250000Y24650000D02*
X76250000Y19950000D01*
X71450000Y24650000D02*
X73750000Y24650000D01*
X73750000Y19950000D02*
X73750000Y24650000D01*
X71450000Y19950000D02*
X73750000Y19950000D01*
X71450000Y24650000D02*
X71450000Y19950000D01*
X26250000Y23450000D02*
X28550000Y23450000D01*
X28550000Y18750000D02*
X28550000Y23450000D01*
X26250000Y18750000D02*
X28550000Y18750000D01*
X26250000Y23450000D02*
X26250000Y18750000D01*
X21450000Y23450000D02*
X23750000Y23450000D01*
X23750000Y18750000D02*
X23750000Y23450000D01*
X21450000Y18750000D02*
X23750000Y18750000D01*
X21450000Y23450000D02*
X21450000Y18750000D01*
X78550000Y25650000D02*
X76250000Y25650000D01*
X76250000Y30350000D02*
X76250000Y25650000D01*
X78550000Y30350000D02*
X76250000Y30350000D01*
X78550000Y25650000D02*
X78550000Y30350000D01*
X73750000Y25650000D02*
X71450000Y25650000D01*
X71450000Y30350000D02*
X71450000Y25650000D01*
X73750000Y30350000D02*
X71450000Y30350000D01*
X73750000Y25650000D02*
X73750000Y30350000D01*
X28550000Y25150000D02*
X26250000Y25150000D01*
X26250000Y29850000D02*
X26250000Y25150000D01*
X28550000Y29850000D02*
X26250000Y29850000D01*
X28550000Y25150000D02*
X28550000Y29850000D01*
X23750000Y25150000D02*
X21450000Y25150000D01*
X21450000Y29850000D02*
X21450000Y25150000D01*
X23750000Y29850000D02*
X21450000Y29850000D01*
X23750000Y25150000D02*
X23750000Y29850000D01*
X78700000Y56450000D02*
X76400000Y56450000D01*
X76400000Y61150000D02*
X76400000Y56450000D01*
X78700000Y61150000D02*
X76400000Y61150000D01*
X78700000Y56450000D02*
X78700000Y61150000D01*
X74150000Y56150000D02*
X71850000Y56150000D01*
X71850000Y60850000D02*
X71850000Y56150000D01*
X74150000Y60850000D02*
X71850000Y60850000D01*
X74150000Y56150000D02*
X74150000Y60850000D01*
X26080000Y69800000D02*
X28380000Y69800000D01*
X28380000Y65100000D02*
X28380000Y69800000D01*
X26080000Y65100000D02*
X28380000Y65100000D01*
X26080000Y69800000D02*
X26080000Y65100000D01*
X21510000Y69810000D02*
X23810000Y69810000D01*
X23810000Y65110000D02*
X23810000Y69810000D01*
X21510000Y65110000D02*
X23810000Y65110000D01*
X21510000Y69810000D02*
X21510000Y65110000D01*
X97650000Y76150000D02*
X95350000Y76150000D01*
X95350000Y80850000D02*
X95350000Y76150000D01*
X97650000Y80850000D02*
X95350000Y80850000D01*
X97650000Y76150000D02*
X97650000Y80850000D01*
X73050000Y81050000D02*
X70750000Y81050000D01*
X70750000Y85750000D02*
X70750000Y81050000D01*
X73050000Y85750000D02*
X70750000Y85750000D01*
X73050000Y81050000D02*
X73050000Y85750000D01*
X28340000Y70610000D02*
X26040000Y70610000D01*
X26040000Y75310000D02*
X26040000Y70610000D01*
X28340000Y75310000D02*
X26040000Y75310000D01*
X28340000Y70610000D02*
X28340000Y75310000D01*
X23800000Y70620000D02*
X21500000Y70620000D01*
X21500000Y75320000D02*
X21500000Y70620000D01*
X23800000Y75320000D02*
X21500000Y75320000D01*
X23800000Y70620000D02*
X23800000Y75320000D01*
X74770000Y92095000D02*
X74770000Y89135000D01*
X76230000Y92095000D02*
X74770000Y92095000D01*
X76230000Y89135000D02*
X76230000Y92095000D01*
X74770000Y89135000D02*
X76230000Y89135000D01*
X77730000Y89120000D02*
X77730000Y92080000D01*
X76270000Y89120000D02*
X77730000Y89120000D01*
X76270000Y92080000D02*
X76270000Y89120000D01*
X77730000Y92080000D02*
X76270000Y92080000D01*
X37080000Y103270000D02*
X37080000Y106230000D01*
X35620000Y103270000D02*
X37080000Y103270000D01*
X35620000Y106230000D02*
X35620000Y103270000D01*
X37080000Y106230000D02*
X35620000Y106230000D01*
X37170000Y106230000D02*
X37170000Y103270000D01*
X38630000Y106230000D02*
X37170000Y106230000D01*
X38630000Y103270000D02*
X38630000Y106230000D01*
X37170000Y103270000D02*
X38630000Y103270000D01*
X35620000Y109330000D02*
X35620000Y106370000D01*
X37080000Y109330000D02*
X35620000Y109330000D01*
X37080000Y106370000D02*
X37080000Y109330000D01*
X35620000Y106370000D02*
X37080000Y106370000D01*
X37170000Y109330000D02*
X37170000Y106370000D01*
X38630000Y109330000D02*
X37170000Y109330000D01*
X38630000Y106370000D02*
X38630000Y109330000D01*
X37170000Y106370000D02*
X38630000Y106370000D01*
X74730000Y89145000D02*
X74730000Y92105000D01*
X73270000Y89145000D02*
X74730000Y89145000D01*
X73270000Y92105000D02*
X73270000Y89145000D01*
X74730000Y92105000D02*
X73270000Y92105000D01*
X59870000Y102967500D02*
X59870000Y100007500D01*
X61330000Y102967500D02*
X59870000Y102967500D01*
X61330000Y100007500D02*
X61330000Y102967500D01*
X59870000Y100007500D02*
X61330000Y100007500D01*
X61355000Y96845000D02*
X61355000Y99805000D01*
X59895000Y96845000D02*
X61355000Y96845000D01*
X59895000Y99805000D02*
X59895000Y96845000D01*
X61355000Y99805000D02*
X59895000Y99805000D01*
X76060000Y21691500D02*
X76060000Y24651500D01*
X74600000Y21691500D02*
X76060000Y21691500D01*
X74600000Y24651500D02*
X74600000Y21691500D01*
X76060000Y24651500D02*
X74600000Y24651500D01*
X71234000Y21666000D02*
X71234000Y24626000D01*
X69774000Y21666000D02*
X71234000Y21666000D01*
X69774000Y24626000D02*
X69774000Y21666000D01*
X71234000Y24626000D02*
X69774000Y24626000D01*
X30086000Y20650000D02*
X30086000Y23610000D01*
X28626000Y20650000D02*
X30086000Y20650000D01*
X28626000Y23610000D02*
X28626000Y20650000D01*
X30086000Y23610000D02*
X28626000Y23610000D01*
X21196000Y23698000D02*
X21196000Y26658000D01*
X19736000Y23698000D02*
X21196000Y23698000D01*
X19736000Y26658000D02*
X19736000Y23698000D01*
X21196000Y26658000D02*
X19736000Y26658000D01*
X81330000Y111040000D02*
X91870000Y111040000D01*
X81330000Y102110000D02*
X81330000Y111040000D01*
X91870000Y102110000D02*
X81330000Y102110000D01*
X91870000Y111040000D02*
X91870000Y102110000D01*
M02*
