G04 #@! TF.GenerationSoftware,KiCad,Pcbnew,(5.1.5)-3*
G04 #@! TF.CreationDate,2020-05-31T21:02:15+02:00*
G04 #@! TF.ProjectId,cz-badge-hardware,637a2d62-6164-4676-952d-686172647761,rev?*
G04 #@! TF.SameCoordinates,PX17d7840PY7735940*
G04 #@! TF.FileFunction,Legend,Top*
G04 #@! TF.FilePolarity,Positive*
%FSLAX46Y46*%
G04 Gerber Fmt 4.6, Leading zero omitted, Abs format (unit mm)*
G04 Created by KiCad (PCBNEW (5.1.5)-3) date 2020-05-31 21:02:15*
%MOMM*%
%LPD*%
G04 APERTURE LIST*
%ADD10C,0.150000*%
%ADD11C,0.120000*%
%ADD12C,0.010000*%
%ADD13C,0.100000*%
%ADD14C,1.092600*%
%ADD15C,1.626000*%
%ADD16C,1.102000*%
%ADD17R,1.102000X0.902000*%
%ADD18C,0.752000*%
G04 APERTURE END LIST*
D10*
X109222380Y50952381D02*
X109222380Y50380953D01*
X109222380Y50666667D02*
X108222380Y50666667D01*
X108365238Y50571429D01*
X108460476Y50476191D01*
X108508095Y50380953D01*
X109222380Y51904762D02*
X109222380Y51333334D01*
X109222380Y51619048D02*
X108222380Y51619048D01*
X108365238Y51523810D01*
X108460476Y51428572D01*
X108508095Y51333334D01*
X108222380Y52523810D02*
X108222380Y52619048D01*
X108270000Y52714286D01*
X108317619Y52761905D01*
X108412857Y52809524D01*
X108603333Y52857143D01*
X108841428Y52857143D01*
X109031904Y52809524D01*
X109127142Y52761905D01*
X109174761Y52714286D01*
X109222380Y52619048D01*
X109222380Y52523810D01*
X109174761Y52428572D01*
X109127142Y52380953D01*
X109031904Y52333334D01*
X108841428Y52285715D01*
X108603333Y52285715D01*
X108412857Y52333334D01*
X108317619Y52380953D01*
X108270000Y52428572D01*
X108222380Y52523810D01*
X109127142Y53285715D02*
X109174761Y53333334D01*
X109222380Y53285715D01*
X109174761Y53238096D01*
X109127142Y53285715D01*
X109222380Y53285715D01*
X108222380Y53952381D02*
X108222380Y54047620D01*
X108270000Y54142858D01*
X108317619Y54190477D01*
X108412857Y54238096D01*
X108603333Y54285715D01*
X108841428Y54285715D01*
X109031904Y54238096D01*
X109127142Y54190477D01*
X109174761Y54142858D01*
X109222380Y54047620D01*
X109222380Y53952381D01*
X109174761Y53857143D01*
X109127142Y53809524D01*
X109031904Y53761905D01*
X108841428Y53714286D01*
X108603333Y53714286D01*
X108412857Y53761905D01*
X108317619Y53809524D01*
X108270000Y53857143D01*
X108222380Y53952381D01*
X108222380Y54904762D02*
X108222380Y55000000D01*
X108270000Y55095239D01*
X108317619Y55142858D01*
X108412857Y55190477D01*
X108603333Y55238096D01*
X108841428Y55238096D01*
X109031904Y55190477D01*
X109127142Y55142858D01*
X109174761Y55095239D01*
X109222380Y55000000D01*
X109222380Y54904762D01*
X109174761Y54809524D01*
X109127142Y54761905D01*
X109031904Y54714286D01*
X108841428Y54666667D01*
X108603333Y54666667D01*
X108412857Y54714286D01*
X108317619Y54761905D01*
X108270000Y54809524D01*
X108222380Y54904762D01*
X108222380Y55857143D02*
X108222380Y55952381D01*
X108270000Y56047620D01*
X108317619Y56095239D01*
X108412857Y56142858D01*
X108603333Y56190477D01*
X108841428Y56190477D01*
X109031904Y56142858D01*
X109127142Y56095239D01*
X109174761Y56047620D01*
X109222380Y55952381D01*
X109222380Y55857143D01*
X109174761Y55761905D01*
X109127142Y55714286D01*
X109031904Y55666667D01*
X108841428Y55619048D01*
X108603333Y55619048D01*
X108412857Y55666667D01*
X108317619Y55714286D01*
X108270000Y55761905D01*
X108222380Y55857143D01*
X109222380Y57380953D02*
X108555714Y57380953D01*
X108650952Y57380953D02*
X108603333Y57428572D01*
X108555714Y57523810D01*
X108555714Y57666667D01*
X108603333Y57761905D01*
X108698571Y57809524D01*
X109222380Y57809524D01*
X108698571Y57809524D02*
X108603333Y57857143D01*
X108555714Y57952381D01*
X108555714Y58095239D01*
X108603333Y58190477D01*
X108698571Y58238096D01*
X109222380Y58238096D01*
X109222380Y58714286D02*
X108555714Y58714286D01*
X108650952Y58714286D02*
X108603333Y58761905D01*
X108555714Y58857143D01*
X108555714Y59000000D01*
X108603333Y59095239D01*
X108698571Y59142858D01*
X109222380Y59142858D01*
X108698571Y59142858D02*
X108603333Y59190477D01*
X108555714Y59285715D01*
X108555714Y59428572D01*
X108603333Y59523810D01*
X108698571Y59571429D01*
X109222380Y59571429D01*
D11*
X107500000Y0D02*
X107500000Y110000000D01*
X100000000Y0D02*
X108086421Y0D01*
X100000000Y110000000D02*
X108086421Y110000000D01*
X107500000Y110000000D02*
X108086421Y108873496D01*
X107500000Y110000000D02*
X106913579Y108873496D01*
X107500000Y0D02*
X108086421Y1126504D01*
X107500000Y0D02*
X106913579Y1126504D01*
D10*
X45952380Y-9222380D02*
X45380952Y-9222380D01*
X45666666Y-9222380D02*
X45666666Y-8222380D01*
X45571428Y-8365238D01*
X45476190Y-8460476D01*
X45380952Y-8508095D01*
X46571428Y-8222380D02*
X46666666Y-8222380D01*
X46761904Y-8270000D01*
X46809523Y-8317619D01*
X46857142Y-8412857D01*
X46904761Y-8603333D01*
X46904761Y-8841428D01*
X46857142Y-9031904D01*
X46809523Y-9127142D01*
X46761904Y-9174761D01*
X46666666Y-9222380D01*
X46571428Y-9222380D01*
X46476190Y-9174761D01*
X46428571Y-9127142D01*
X46380952Y-9031904D01*
X46333333Y-8841428D01*
X46333333Y-8603333D01*
X46380952Y-8412857D01*
X46428571Y-8317619D01*
X46476190Y-8270000D01*
X46571428Y-8222380D01*
X47523809Y-8222380D02*
X47619047Y-8222380D01*
X47714285Y-8270000D01*
X47761904Y-8317619D01*
X47809523Y-8412857D01*
X47857142Y-8603333D01*
X47857142Y-8841428D01*
X47809523Y-9031904D01*
X47761904Y-9127142D01*
X47714285Y-9174761D01*
X47619047Y-9222380D01*
X47523809Y-9222380D01*
X47428571Y-9174761D01*
X47380952Y-9127142D01*
X47333333Y-9031904D01*
X47285714Y-8841428D01*
X47285714Y-8603333D01*
X47333333Y-8412857D01*
X47380952Y-8317619D01*
X47428571Y-8270000D01*
X47523809Y-8222380D01*
X48285714Y-9127142D02*
X48333333Y-9174761D01*
X48285714Y-9222380D01*
X48238095Y-9174761D01*
X48285714Y-9127142D01*
X48285714Y-9222380D01*
X48952380Y-8222380D02*
X49047619Y-8222380D01*
X49142857Y-8270000D01*
X49190476Y-8317619D01*
X49238095Y-8412857D01*
X49285714Y-8603333D01*
X49285714Y-8841428D01*
X49238095Y-9031904D01*
X49190476Y-9127142D01*
X49142857Y-9174761D01*
X49047619Y-9222380D01*
X48952380Y-9222380D01*
X48857142Y-9174761D01*
X48809523Y-9127142D01*
X48761904Y-9031904D01*
X48714285Y-8841428D01*
X48714285Y-8603333D01*
X48761904Y-8412857D01*
X48809523Y-8317619D01*
X48857142Y-8270000D01*
X48952380Y-8222380D01*
X49904761Y-8222380D02*
X50000000Y-8222380D01*
X50095238Y-8270000D01*
X50142857Y-8317619D01*
X50190476Y-8412857D01*
X50238095Y-8603333D01*
X50238095Y-8841428D01*
X50190476Y-9031904D01*
X50142857Y-9127142D01*
X50095238Y-9174761D01*
X50000000Y-9222380D01*
X49904761Y-9222380D01*
X49809523Y-9174761D01*
X49761904Y-9127142D01*
X49714285Y-9031904D01*
X49666666Y-8841428D01*
X49666666Y-8603333D01*
X49714285Y-8412857D01*
X49761904Y-8317619D01*
X49809523Y-8270000D01*
X49904761Y-8222380D01*
X50857142Y-8222380D02*
X50952380Y-8222380D01*
X51047619Y-8270000D01*
X51095238Y-8317619D01*
X51142857Y-8412857D01*
X51190476Y-8603333D01*
X51190476Y-8841428D01*
X51142857Y-9031904D01*
X51095238Y-9127142D01*
X51047619Y-9174761D01*
X50952380Y-9222380D01*
X50857142Y-9222380D01*
X50761904Y-9174761D01*
X50714285Y-9127142D01*
X50666666Y-9031904D01*
X50619047Y-8841428D01*
X50619047Y-8603333D01*
X50666666Y-8412857D01*
X50714285Y-8317619D01*
X50761904Y-8270000D01*
X50857142Y-8222380D01*
X52380952Y-9222380D02*
X52380952Y-8555714D01*
X52380952Y-8650952D02*
X52428571Y-8603333D01*
X52523809Y-8555714D01*
X52666666Y-8555714D01*
X52761904Y-8603333D01*
X52809523Y-8698571D01*
X52809523Y-9222380D01*
X52809523Y-8698571D02*
X52857142Y-8603333D01*
X52952380Y-8555714D01*
X53095238Y-8555714D01*
X53190476Y-8603333D01*
X53238095Y-8698571D01*
X53238095Y-9222380D01*
X53714285Y-9222380D02*
X53714285Y-8555714D01*
X53714285Y-8650952D02*
X53761904Y-8603333D01*
X53857142Y-8555714D01*
X54000000Y-8555714D01*
X54095238Y-8603333D01*
X54142857Y-8698571D01*
X54142857Y-9222380D01*
X54142857Y-8698571D02*
X54190476Y-8603333D01*
X54285714Y-8555714D01*
X54428571Y-8555714D01*
X54523809Y-8603333D01*
X54571428Y-8698571D01*
X54571428Y-9222380D01*
D11*
X0Y-7500000D02*
X100000000Y-7500000D01*
X0Y0D02*
X0Y-8086421D01*
X100000000Y0D02*
X100000000Y-8086421D01*
X100000000Y-7500000D02*
X98873496Y-8086421D01*
X100000000Y-7500000D02*
X98873496Y-6913579D01*
X0Y-7500000D02*
X1126504Y-8086421D01*
X0Y-7500000D02*
X1126504Y-6913579D01*
X85550000Y11000000D02*
X89450000Y11000000D01*
X85550000Y14000000D02*
X89450000Y14000000D01*
X85550000Y13200000D02*
X85550000Y14000000D01*
X85550000Y36000000D02*
X89450000Y36000000D01*
X85550000Y39000000D02*
X89450000Y39000000D01*
X85550000Y38200000D02*
X85550000Y39000000D01*
X85550000Y61000000D02*
X89450000Y61000000D01*
X85550000Y64000000D02*
X89450000Y64000000D01*
X85550000Y63200000D02*
X85550000Y64000000D01*
X85550000Y86000000D02*
X89450000Y86000000D01*
X85550000Y89000000D02*
X89450000Y89000000D01*
X85550000Y88200000D02*
X85550000Y89000000D01*
X60550000Y11000000D02*
X64450000Y11000000D01*
X60550000Y14000000D02*
X64450000Y14000000D01*
X60550000Y13200000D02*
X60550000Y14000000D01*
X60550000Y36000000D02*
X64450000Y36000000D01*
X60550000Y39000000D02*
X64450000Y39000000D01*
X60550000Y38200000D02*
X60550000Y39000000D01*
X60550000Y61000000D02*
X64450000Y61000000D01*
X60550000Y64000000D02*
X64450000Y64000000D01*
X60550000Y63200000D02*
X60550000Y64000000D01*
X60550000Y86000000D02*
X64450000Y86000000D01*
X60550000Y89000000D02*
X64450000Y89000000D01*
X60550000Y88200000D02*
X60550000Y89000000D01*
X35550000Y11000000D02*
X39450000Y11000000D01*
X35550000Y14000000D02*
X39450000Y14000000D01*
X35550000Y13200000D02*
X35550000Y14000000D01*
X35550000Y36000000D02*
X39450000Y36000000D01*
X35550000Y39000000D02*
X39450000Y39000000D01*
X35550000Y38200000D02*
X35550000Y39000000D01*
X35550000Y61000000D02*
X39450000Y61000000D01*
X35550000Y64000000D02*
X39450000Y64000000D01*
X35550000Y63200000D02*
X35550000Y64000000D01*
X35550000Y86000000D02*
X39450000Y86000000D01*
X35550000Y89000000D02*
X39450000Y89000000D01*
X35550000Y88200000D02*
X35550000Y89000000D01*
X10550000Y11000000D02*
X14450000Y11000000D01*
X10550000Y14000000D02*
X14450000Y14000000D01*
X10550000Y13200000D02*
X10550000Y14000000D01*
X10550000Y36000000D02*
X14450000Y36000000D01*
X10550000Y39000000D02*
X14450000Y39000000D01*
X10550000Y38200000D02*
X10550000Y39000000D01*
X10550000Y61000000D02*
X14450000Y61000000D01*
X10550000Y64000000D02*
X14450000Y64000000D01*
X10550000Y63200000D02*
X10550000Y64000000D01*
X10550000Y86000000D02*
X14450000Y86000000D01*
X10550000Y89000000D02*
X14450000Y89000000D01*
X10550000Y88200000D02*
X10550000Y89000000D01*
D10*
X61190476Y46595239D02*
X61333333Y46547620D01*
X61571428Y46547620D01*
X61666666Y46595239D01*
X61714285Y46642858D01*
X61761904Y46738096D01*
X61761904Y46833334D01*
X61714285Y46928572D01*
X61666666Y46976191D01*
X61571428Y47023810D01*
X61380952Y47071429D01*
X61285714Y47119048D01*
X61238095Y47166667D01*
X61190476Y47261905D01*
X61190476Y47357143D01*
X61238095Y47452381D01*
X61285714Y47500000D01*
X61380952Y47547620D01*
X61619047Y47547620D01*
X61761904Y47500000D01*
X62095238Y47547620D02*
X62333333Y46547620D01*
X62523809Y47261905D01*
X62714285Y46547620D01*
X62952380Y47547620D01*
X63857142Y46547620D02*
X63285714Y46547620D01*
X63571428Y46547620D02*
X63571428Y47547620D01*
X63476190Y47404762D01*
X63380952Y47309524D01*
X63285714Y47261905D01*
X64809523Y46547620D02*
X64238095Y46547620D01*
X64523809Y46547620D02*
X64523809Y47547620D01*
X64428571Y47404762D01*
X64333333Y47309524D01*
X64238095Y47261905D01*
X86666666Y96595239D02*
X86809523Y96547620D01*
X87047619Y96547620D01*
X87142857Y96595239D01*
X87190476Y96642858D01*
X87238095Y96738096D01*
X87238095Y96833334D01*
X87190476Y96928572D01*
X87142857Y96976191D01*
X87047619Y97023810D01*
X86857142Y97071429D01*
X86761904Y97119048D01*
X86714285Y97166667D01*
X86666666Y97261905D01*
X86666666Y97357143D01*
X86714285Y97452381D01*
X86761904Y97500000D01*
X86857142Y97547620D01*
X87095238Y97547620D01*
X87238095Y97500000D01*
X87571428Y97547620D02*
X87809523Y96547620D01*
X88000000Y97261905D01*
X88190476Y96547620D01*
X88428571Y97547620D01*
X89238095Y97214286D02*
X89238095Y96547620D01*
X89000000Y97595239D02*
X88761904Y96880953D01*
X89380952Y96880953D01*
X61666666Y96595239D02*
X61809523Y96547620D01*
X62047619Y96547620D01*
X62142857Y96595239D01*
X62190476Y96642858D01*
X62238095Y96738096D01*
X62238095Y96833334D01*
X62190476Y96928572D01*
X62142857Y96976191D01*
X62047619Y97023810D01*
X61857142Y97071429D01*
X61761904Y97119048D01*
X61714285Y97166667D01*
X61666666Y97261905D01*
X61666666Y97357143D01*
X61714285Y97452381D01*
X61761904Y97500000D01*
X61857142Y97547620D01*
X62095238Y97547620D01*
X62238095Y97500000D01*
X62571428Y97547620D02*
X62809523Y96547620D01*
X63000000Y97261905D01*
X63190476Y96547620D01*
X63428571Y97547620D01*
X63714285Y97547620D02*
X64333333Y97547620D01*
X64000000Y97166667D01*
X64142857Y97166667D01*
X64238095Y97119048D01*
X64285714Y97071429D01*
X64333333Y96976191D01*
X64333333Y96738096D01*
X64285714Y96642858D01*
X64238095Y96595239D01*
X64142857Y96547620D01*
X63857142Y96547620D01*
X63761904Y96595239D01*
X63714285Y96642858D01*
X35666666Y71595239D02*
X35809523Y71547620D01*
X36047619Y71547620D01*
X36142857Y71595239D01*
X36190476Y71642858D01*
X36238095Y71738096D01*
X36238095Y71833334D01*
X36190476Y71928572D01*
X36142857Y71976191D01*
X36047619Y72023810D01*
X35857142Y72071429D01*
X35761904Y72119048D01*
X35714285Y72166667D01*
X35666666Y72261905D01*
X35666666Y72357143D01*
X35714285Y72452381D01*
X35761904Y72500000D01*
X35857142Y72547620D01*
X36095238Y72547620D01*
X36238095Y72500000D01*
X36571428Y72547620D02*
X36809523Y71547620D01*
X37000000Y72261905D01*
X37190476Y71547620D01*
X37428571Y72547620D01*
X38238095Y72547620D02*
X38047619Y72547620D01*
X37952380Y72500000D01*
X37904761Y72452381D01*
X37809523Y72309524D01*
X37761904Y72119048D01*
X37761904Y71738096D01*
X37809523Y71642858D01*
X37857142Y71595239D01*
X37952380Y71547620D01*
X38142857Y71547620D01*
X38238095Y71595239D01*
X38285714Y71642858D01*
X38333333Y71738096D01*
X38333333Y71976191D01*
X38285714Y72071429D01*
X38238095Y72119048D01*
X38142857Y72166667D01*
X37952380Y72166667D01*
X37857142Y72119048D01*
X37809523Y72071429D01*
X37761904Y71976191D01*
X85190476Y21595239D02*
X85333333Y21547620D01*
X85571428Y21547620D01*
X85666666Y21595239D01*
X85714285Y21642858D01*
X85761904Y21738096D01*
X85761904Y21833334D01*
X85714285Y21928572D01*
X85666666Y21976191D01*
X85571428Y22023810D01*
X85380952Y22071429D01*
X85285714Y22119048D01*
X85238095Y22166667D01*
X85190476Y22261905D01*
X85190476Y22357143D01*
X85238095Y22452381D01*
X85285714Y22500000D01*
X85380952Y22547620D01*
X85619047Y22547620D01*
X85761904Y22500000D01*
X86095238Y22547620D02*
X86333333Y21547620D01*
X86523809Y22261905D01*
X86714285Y21547620D01*
X86952380Y22547620D01*
X87857142Y21547620D02*
X87285714Y21547620D01*
X87571428Y21547620D02*
X87571428Y22547620D01*
X87476190Y22404762D01*
X87380952Y22309524D01*
X87285714Y22261905D01*
X88714285Y22547620D02*
X88523809Y22547620D01*
X88428571Y22500000D01*
X88380952Y22452381D01*
X88285714Y22309524D01*
X88238095Y22119048D01*
X88238095Y21738096D01*
X88285714Y21642858D01*
X88333333Y21595239D01*
X88428571Y21547620D01*
X88619047Y21547620D01*
X88714285Y21595239D01*
X88761904Y21642858D01*
X88809523Y21738096D01*
X88809523Y21976191D01*
X88761904Y22071429D01*
X88714285Y22119048D01*
X88619047Y22166667D01*
X88428571Y22166667D01*
X88333333Y22119048D01*
X88285714Y22071429D01*
X88238095Y21976191D01*
X35190476Y21595239D02*
X35333333Y21547620D01*
X35571428Y21547620D01*
X35666666Y21595239D01*
X35714285Y21642858D01*
X35761904Y21738096D01*
X35761904Y21833334D01*
X35714285Y21928572D01*
X35666666Y21976191D01*
X35571428Y22023810D01*
X35380952Y22071429D01*
X35285714Y22119048D01*
X35238095Y22166667D01*
X35190476Y22261905D01*
X35190476Y22357143D01*
X35238095Y22452381D01*
X35285714Y22500000D01*
X35380952Y22547620D01*
X35619047Y22547620D01*
X35761904Y22500000D01*
X36095238Y22547620D02*
X36333333Y21547620D01*
X36523809Y22261905D01*
X36714285Y21547620D01*
X36952380Y22547620D01*
X37857142Y21547620D02*
X37285714Y21547620D01*
X37571428Y21547620D02*
X37571428Y22547620D01*
X37476190Y22404762D01*
X37380952Y22309524D01*
X37285714Y22261905D01*
X38714285Y22214286D02*
X38714285Y21547620D01*
X38476190Y22595239D02*
X38238095Y21880953D01*
X38857142Y21880953D01*
X85190476Y46595239D02*
X85333333Y46547620D01*
X85571428Y46547620D01*
X85666666Y46595239D01*
X85714285Y46642858D01*
X85761904Y46738096D01*
X85761904Y46833334D01*
X85714285Y46928572D01*
X85666666Y46976191D01*
X85571428Y47023810D01*
X85380952Y47071429D01*
X85285714Y47119048D01*
X85238095Y47166667D01*
X85190476Y47261905D01*
X85190476Y47357143D01*
X85238095Y47452381D01*
X85285714Y47500000D01*
X85380952Y47547620D01*
X85619047Y47547620D01*
X85761904Y47500000D01*
X86095238Y47547620D02*
X86333333Y46547620D01*
X86523809Y47261905D01*
X86714285Y46547620D01*
X86952380Y47547620D01*
X87857142Y46547620D02*
X87285714Y46547620D01*
X87571428Y46547620D02*
X87571428Y47547620D01*
X87476190Y47404762D01*
X87380952Y47309524D01*
X87285714Y47261905D01*
X88238095Y47452381D02*
X88285714Y47500000D01*
X88380952Y47547620D01*
X88619047Y47547620D01*
X88714285Y47500000D01*
X88761904Y47452381D01*
X88809523Y47357143D01*
X88809523Y47261905D01*
X88761904Y47119048D01*
X88190476Y46547620D01*
X88809523Y46547620D01*
X35190476Y46595239D02*
X35333333Y46547620D01*
X35571428Y46547620D01*
X35666666Y46595239D01*
X35714285Y46642858D01*
X35761904Y46738096D01*
X35761904Y46833334D01*
X35714285Y46928572D01*
X35666666Y46976191D01*
X35571428Y47023810D01*
X35380952Y47071429D01*
X35285714Y47119048D01*
X35238095Y47166667D01*
X35190476Y47261905D01*
X35190476Y47357143D01*
X35238095Y47452381D01*
X35285714Y47500000D01*
X35380952Y47547620D01*
X35619047Y47547620D01*
X35761904Y47500000D01*
X36095238Y47547620D02*
X36333333Y46547620D01*
X36523809Y47261905D01*
X36714285Y46547620D01*
X36952380Y47547620D01*
X37857142Y46547620D02*
X37285714Y46547620D01*
X37571428Y46547620D02*
X37571428Y47547620D01*
X37476190Y47404762D01*
X37380952Y47309524D01*
X37285714Y47261905D01*
X38476190Y47547620D02*
X38571428Y47547620D01*
X38666666Y47500000D01*
X38714285Y47452381D01*
X38761904Y47357143D01*
X38809523Y47166667D01*
X38809523Y46928572D01*
X38761904Y46738096D01*
X38714285Y46642858D01*
X38666666Y46595239D01*
X38571428Y46547620D01*
X38476190Y46547620D01*
X38380952Y46595239D01*
X38333333Y46642858D01*
X38285714Y46738096D01*
X38238095Y46928572D01*
X38238095Y47166667D01*
X38285714Y47357143D01*
X38333333Y47452381D01*
X38380952Y47500000D01*
X38476190Y47547620D01*
X85666666Y71595239D02*
X85809523Y71547620D01*
X86047619Y71547620D01*
X86142857Y71595239D01*
X86190476Y71642858D01*
X86238095Y71738096D01*
X86238095Y71833334D01*
X86190476Y71928572D01*
X86142857Y71976191D01*
X86047619Y72023810D01*
X85857142Y72071429D01*
X85761904Y72119048D01*
X85714285Y72166667D01*
X85666666Y72261905D01*
X85666666Y72357143D01*
X85714285Y72452381D01*
X85761904Y72500000D01*
X85857142Y72547620D01*
X86095238Y72547620D01*
X86238095Y72500000D01*
X86571428Y72547620D02*
X86809523Y71547620D01*
X87000000Y72261905D01*
X87190476Y71547620D01*
X87428571Y72547620D01*
X87952380Y72119048D02*
X87857142Y72166667D01*
X87809523Y72214286D01*
X87761904Y72309524D01*
X87761904Y72357143D01*
X87809523Y72452381D01*
X87857142Y72500000D01*
X87952380Y72547620D01*
X88142857Y72547620D01*
X88238095Y72500000D01*
X88285714Y72452381D01*
X88333333Y72357143D01*
X88333333Y72309524D01*
X88285714Y72214286D01*
X88238095Y72166667D01*
X88142857Y72119048D01*
X87952380Y72119048D01*
X87857142Y72071429D01*
X87809523Y72023810D01*
X87761904Y71928572D01*
X87761904Y71738096D01*
X87809523Y71642858D01*
X87857142Y71595239D01*
X87952380Y71547620D01*
X88142857Y71547620D01*
X88238095Y71595239D01*
X88285714Y71642858D01*
X88333333Y71738096D01*
X88333333Y71928572D01*
X88285714Y72023810D01*
X88238095Y72071429D01*
X88142857Y72119048D01*
X35666666Y96595239D02*
X35809523Y96547620D01*
X36047619Y96547620D01*
X36142857Y96595239D01*
X36190476Y96642858D01*
X36238095Y96738096D01*
X36238095Y96833334D01*
X36190476Y96928572D01*
X36142857Y96976191D01*
X36047619Y97023810D01*
X35857142Y97071429D01*
X35761904Y97119048D01*
X35714285Y97166667D01*
X35666666Y97261905D01*
X35666666Y97357143D01*
X35714285Y97452381D01*
X35761904Y97500000D01*
X35857142Y97547620D01*
X36095238Y97547620D01*
X36238095Y97500000D01*
X36571428Y97547620D02*
X36809523Y96547620D01*
X37000000Y97261905D01*
X37190476Y96547620D01*
X37428571Y97547620D01*
X37761904Y97452381D02*
X37809523Y97500000D01*
X37904761Y97547620D01*
X38142857Y97547620D01*
X38238095Y97500000D01*
X38285714Y97452381D01*
X38333333Y97357143D01*
X38333333Y97261905D01*
X38285714Y97119048D01*
X37714285Y96547620D01*
X38333333Y96547620D01*
X86285714Y14697620D02*
X86285714Y15697620D01*
X86523809Y15697620D01*
X86666666Y15650000D01*
X86761904Y15554762D01*
X86809523Y15459524D01*
X86857142Y15269048D01*
X86857142Y15126191D01*
X86809523Y14935715D01*
X86761904Y14840477D01*
X86666666Y14745239D01*
X86523809Y14697620D01*
X86285714Y14697620D01*
X87761904Y15697620D02*
X87285714Y15697620D01*
X87238095Y15221429D01*
X87285714Y15269048D01*
X87380952Y15316667D01*
X87619047Y15316667D01*
X87714285Y15269048D01*
X87761904Y15221429D01*
X87809523Y15126191D01*
X87809523Y14888096D01*
X87761904Y14792858D01*
X87714285Y14745239D01*
X87619047Y14697620D01*
X87380952Y14697620D01*
X87285714Y14745239D01*
X87238095Y14792858D01*
X88428571Y15697620D02*
X88523809Y15697620D01*
X88619047Y15650000D01*
X88666666Y15602381D01*
X88714285Y15507143D01*
X88761904Y15316667D01*
X88761904Y15078572D01*
X88714285Y14888096D01*
X88666666Y14792858D01*
X88619047Y14745239D01*
X88523809Y14697620D01*
X88428571Y14697620D01*
X88333333Y14745239D01*
X88285714Y14792858D01*
X88238095Y14888096D01*
X88190476Y15078572D01*
X88190476Y15316667D01*
X88238095Y15507143D01*
X88285714Y15602381D01*
X88333333Y15650000D01*
X88428571Y15697620D01*
X86285714Y39697620D02*
X86285714Y40697620D01*
X86523809Y40697620D01*
X86666666Y40650000D01*
X86761904Y40554762D01*
X86809523Y40459524D01*
X86857142Y40269048D01*
X86857142Y40126191D01*
X86809523Y39935715D01*
X86761904Y39840477D01*
X86666666Y39745239D01*
X86523809Y39697620D01*
X86285714Y39697620D01*
X87714285Y40364286D02*
X87714285Y39697620D01*
X87476190Y40745239D02*
X87238095Y40030953D01*
X87857142Y40030953D01*
X88285714Y39697620D02*
X88476190Y39697620D01*
X88571428Y39745239D01*
X88619047Y39792858D01*
X88714285Y39935715D01*
X88761904Y40126191D01*
X88761904Y40507143D01*
X88714285Y40602381D01*
X88666666Y40650000D01*
X88571428Y40697620D01*
X88380952Y40697620D01*
X88285714Y40650000D01*
X88238095Y40602381D01*
X88190476Y40507143D01*
X88190476Y40269048D01*
X88238095Y40173810D01*
X88285714Y40126191D01*
X88380952Y40078572D01*
X88571428Y40078572D01*
X88666666Y40126191D01*
X88714285Y40173810D01*
X88761904Y40269048D01*
X86285714Y64697620D02*
X86285714Y65697620D01*
X86523809Y65697620D01*
X86666666Y65650000D01*
X86761904Y65554762D01*
X86809523Y65459524D01*
X86857142Y65269048D01*
X86857142Y65126191D01*
X86809523Y64935715D01*
X86761904Y64840477D01*
X86666666Y64745239D01*
X86523809Y64697620D01*
X86285714Y64697620D01*
X87714285Y65364286D02*
X87714285Y64697620D01*
X87476190Y65745239D02*
X87238095Y65030953D01*
X87857142Y65030953D01*
X88380952Y65269048D02*
X88285714Y65316667D01*
X88238095Y65364286D01*
X88190476Y65459524D01*
X88190476Y65507143D01*
X88238095Y65602381D01*
X88285714Y65650000D01*
X88380952Y65697620D01*
X88571428Y65697620D01*
X88666666Y65650000D01*
X88714285Y65602381D01*
X88761904Y65507143D01*
X88761904Y65459524D01*
X88714285Y65364286D01*
X88666666Y65316667D01*
X88571428Y65269048D01*
X88380952Y65269048D01*
X88285714Y65221429D01*
X88238095Y65173810D01*
X88190476Y65078572D01*
X88190476Y64888096D01*
X88238095Y64792858D01*
X88285714Y64745239D01*
X88380952Y64697620D01*
X88571428Y64697620D01*
X88666666Y64745239D01*
X88714285Y64792858D01*
X88761904Y64888096D01*
X88761904Y65078572D01*
X88714285Y65173810D01*
X88666666Y65221429D01*
X88571428Y65269048D01*
X86285714Y89697620D02*
X86285714Y90697620D01*
X86523809Y90697620D01*
X86666666Y90650000D01*
X86761904Y90554762D01*
X86809523Y90459524D01*
X86857142Y90269048D01*
X86857142Y90126191D01*
X86809523Y89935715D01*
X86761904Y89840477D01*
X86666666Y89745239D01*
X86523809Y89697620D01*
X86285714Y89697620D01*
X87714285Y90364286D02*
X87714285Y89697620D01*
X87476190Y90745239D02*
X87238095Y90030953D01*
X87857142Y90030953D01*
X88142857Y90697620D02*
X88809523Y90697620D01*
X88380952Y89697620D01*
X61285714Y14697620D02*
X61285714Y15697620D01*
X61523809Y15697620D01*
X61666666Y15650000D01*
X61761904Y15554762D01*
X61809523Y15459524D01*
X61857142Y15269048D01*
X61857142Y15126191D01*
X61809523Y14935715D01*
X61761904Y14840477D01*
X61666666Y14745239D01*
X61523809Y14697620D01*
X61285714Y14697620D01*
X62714285Y15364286D02*
X62714285Y14697620D01*
X62476190Y15745239D02*
X62238095Y15030953D01*
X62857142Y15030953D01*
X63666666Y15697620D02*
X63476190Y15697620D01*
X63380952Y15650000D01*
X63333333Y15602381D01*
X63238095Y15459524D01*
X63190476Y15269048D01*
X63190476Y14888096D01*
X63238095Y14792858D01*
X63285714Y14745239D01*
X63380952Y14697620D01*
X63571428Y14697620D01*
X63666666Y14745239D01*
X63714285Y14792858D01*
X63761904Y14888096D01*
X63761904Y15126191D01*
X63714285Y15221429D01*
X63666666Y15269048D01*
X63571428Y15316667D01*
X63380952Y15316667D01*
X63285714Y15269048D01*
X63238095Y15221429D01*
X63190476Y15126191D01*
X61285714Y39697620D02*
X61285714Y40697620D01*
X61523809Y40697620D01*
X61666666Y40650000D01*
X61761904Y40554762D01*
X61809523Y40459524D01*
X61857142Y40269048D01*
X61857142Y40126191D01*
X61809523Y39935715D01*
X61761904Y39840477D01*
X61666666Y39745239D01*
X61523809Y39697620D01*
X61285714Y39697620D01*
X62714285Y40364286D02*
X62714285Y39697620D01*
X62476190Y40745239D02*
X62238095Y40030953D01*
X62857142Y40030953D01*
X63714285Y40697620D02*
X63238095Y40697620D01*
X63190476Y40221429D01*
X63238095Y40269048D01*
X63333333Y40316667D01*
X63571428Y40316667D01*
X63666666Y40269048D01*
X63714285Y40221429D01*
X63761904Y40126191D01*
X63761904Y39888096D01*
X63714285Y39792858D01*
X63666666Y39745239D01*
X63571428Y39697620D01*
X63333333Y39697620D01*
X63238095Y39745239D01*
X63190476Y39792858D01*
X61285714Y64697620D02*
X61285714Y65697620D01*
X61523809Y65697620D01*
X61666666Y65650000D01*
X61761904Y65554762D01*
X61809523Y65459524D01*
X61857142Y65269048D01*
X61857142Y65126191D01*
X61809523Y64935715D01*
X61761904Y64840477D01*
X61666666Y64745239D01*
X61523809Y64697620D01*
X61285714Y64697620D01*
X62714285Y65364286D02*
X62714285Y64697620D01*
X62476190Y65745239D02*
X62238095Y65030953D01*
X62857142Y65030953D01*
X63666666Y65364286D02*
X63666666Y64697620D01*
X63428571Y65745239D02*
X63190476Y65030953D01*
X63809523Y65030953D01*
X61285714Y89697620D02*
X61285714Y90697620D01*
X61523809Y90697620D01*
X61666666Y90650000D01*
X61761904Y90554762D01*
X61809523Y90459524D01*
X61857142Y90269048D01*
X61857142Y90126191D01*
X61809523Y89935715D01*
X61761904Y89840477D01*
X61666666Y89745239D01*
X61523809Y89697620D01*
X61285714Y89697620D01*
X62714285Y90364286D02*
X62714285Y89697620D01*
X62476190Y90745239D02*
X62238095Y90030953D01*
X62857142Y90030953D01*
X63142857Y90697620D02*
X63761904Y90697620D01*
X63428571Y90316667D01*
X63571428Y90316667D01*
X63666666Y90269048D01*
X63714285Y90221429D01*
X63761904Y90126191D01*
X63761904Y89888096D01*
X63714285Y89792858D01*
X63666666Y89745239D01*
X63571428Y89697620D01*
X63285714Y89697620D01*
X63190476Y89745239D01*
X63142857Y89792858D01*
X36285714Y14697620D02*
X36285714Y15697620D01*
X36523809Y15697620D01*
X36666666Y15650000D01*
X36761904Y15554762D01*
X36809523Y15459524D01*
X36857142Y15269048D01*
X36857142Y15126191D01*
X36809523Y14935715D01*
X36761904Y14840477D01*
X36666666Y14745239D01*
X36523809Y14697620D01*
X36285714Y14697620D01*
X37714285Y15364286D02*
X37714285Y14697620D01*
X37476190Y15745239D02*
X37238095Y15030953D01*
X37857142Y15030953D01*
X38190476Y15602381D02*
X38238095Y15650000D01*
X38333333Y15697620D01*
X38571428Y15697620D01*
X38666666Y15650000D01*
X38714285Y15602381D01*
X38761904Y15507143D01*
X38761904Y15411905D01*
X38714285Y15269048D01*
X38142857Y14697620D01*
X38761904Y14697620D01*
X36285714Y39697620D02*
X36285714Y40697620D01*
X36523809Y40697620D01*
X36666666Y40650000D01*
X36761904Y40554762D01*
X36809523Y40459524D01*
X36857142Y40269048D01*
X36857142Y40126191D01*
X36809523Y39935715D01*
X36761904Y39840477D01*
X36666666Y39745239D01*
X36523809Y39697620D01*
X36285714Y39697620D01*
X37714285Y40364286D02*
X37714285Y39697620D01*
X37476190Y40745239D02*
X37238095Y40030953D01*
X37857142Y40030953D01*
X38761904Y39697620D02*
X38190476Y39697620D01*
X38476190Y39697620D02*
X38476190Y40697620D01*
X38380952Y40554762D01*
X38285714Y40459524D01*
X38190476Y40411905D01*
X36285714Y64697620D02*
X36285714Y65697620D01*
X36523809Y65697620D01*
X36666666Y65650000D01*
X36761904Y65554762D01*
X36809523Y65459524D01*
X36857142Y65269048D01*
X36857142Y65126191D01*
X36809523Y64935715D01*
X36761904Y64840477D01*
X36666666Y64745239D01*
X36523809Y64697620D01*
X36285714Y64697620D01*
X37714285Y65364286D02*
X37714285Y64697620D01*
X37476190Y65745239D02*
X37238095Y65030953D01*
X37857142Y65030953D01*
X38428571Y65697620D02*
X38523809Y65697620D01*
X38619047Y65650000D01*
X38666666Y65602381D01*
X38714285Y65507143D01*
X38761904Y65316667D01*
X38761904Y65078572D01*
X38714285Y64888096D01*
X38666666Y64792858D01*
X38619047Y64745239D01*
X38523809Y64697620D01*
X38428571Y64697620D01*
X38333333Y64745239D01*
X38285714Y64792858D01*
X38238095Y64888096D01*
X38190476Y65078572D01*
X38190476Y65316667D01*
X38238095Y65507143D01*
X38285714Y65602381D01*
X38333333Y65650000D01*
X38428571Y65697620D01*
X36285714Y89697620D02*
X36285714Y90697620D01*
X36523809Y90697620D01*
X36666666Y90650000D01*
X36761904Y90554762D01*
X36809523Y90459524D01*
X36857142Y90269048D01*
X36857142Y90126191D01*
X36809523Y89935715D01*
X36761904Y89840477D01*
X36666666Y89745239D01*
X36523809Y89697620D01*
X36285714Y89697620D01*
X37190476Y90697620D02*
X37809523Y90697620D01*
X37476190Y90316667D01*
X37619047Y90316667D01*
X37714285Y90269048D01*
X37761904Y90221429D01*
X37809523Y90126191D01*
X37809523Y89888096D01*
X37761904Y89792858D01*
X37714285Y89745239D01*
X37619047Y89697620D01*
X37333333Y89697620D01*
X37238095Y89745239D01*
X37190476Y89792858D01*
X38285714Y89697620D02*
X38476190Y89697620D01*
X38571428Y89745239D01*
X38619047Y89792858D01*
X38714285Y89935715D01*
X38761904Y90126191D01*
X38761904Y90507143D01*
X38714285Y90602381D01*
X38666666Y90650000D01*
X38571428Y90697620D01*
X38380952Y90697620D01*
X38285714Y90650000D01*
X38238095Y90602381D01*
X38190476Y90507143D01*
X38190476Y90269048D01*
X38238095Y90173810D01*
X38285714Y90126191D01*
X38380952Y90078572D01*
X38571428Y90078572D01*
X38666666Y90126191D01*
X38714285Y90173810D01*
X38761904Y90269048D01*
X11285714Y14697620D02*
X11285714Y15697620D01*
X11523809Y15697620D01*
X11666666Y15650000D01*
X11761904Y15554762D01*
X11809523Y15459524D01*
X11857142Y15269048D01*
X11857142Y15126191D01*
X11809523Y14935715D01*
X11761904Y14840477D01*
X11666666Y14745239D01*
X11523809Y14697620D01*
X11285714Y14697620D01*
X12190476Y15697620D02*
X12809523Y15697620D01*
X12476190Y15316667D01*
X12619047Y15316667D01*
X12714285Y15269048D01*
X12761904Y15221429D01*
X12809523Y15126191D01*
X12809523Y14888096D01*
X12761904Y14792858D01*
X12714285Y14745239D01*
X12619047Y14697620D01*
X12333333Y14697620D01*
X12238095Y14745239D01*
X12190476Y14792858D01*
X13380952Y15269048D02*
X13285714Y15316667D01*
X13238095Y15364286D01*
X13190476Y15459524D01*
X13190476Y15507143D01*
X13238095Y15602381D01*
X13285714Y15650000D01*
X13380952Y15697620D01*
X13571428Y15697620D01*
X13666666Y15650000D01*
X13714285Y15602381D01*
X13761904Y15507143D01*
X13761904Y15459524D01*
X13714285Y15364286D01*
X13666666Y15316667D01*
X13571428Y15269048D01*
X13380952Y15269048D01*
X13285714Y15221429D01*
X13238095Y15173810D01*
X13190476Y15078572D01*
X13190476Y14888096D01*
X13238095Y14792858D01*
X13285714Y14745239D01*
X13380952Y14697620D01*
X13571428Y14697620D01*
X13666666Y14745239D01*
X13714285Y14792858D01*
X13761904Y14888096D01*
X13761904Y15078572D01*
X13714285Y15173810D01*
X13666666Y15221429D01*
X13571428Y15269048D01*
X11285714Y39697620D02*
X11285714Y40697620D01*
X11523809Y40697620D01*
X11666666Y40650000D01*
X11761904Y40554762D01*
X11809523Y40459524D01*
X11857142Y40269048D01*
X11857142Y40126191D01*
X11809523Y39935715D01*
X11761904Y39840477D01*
X11666666Y39745239D01*
X11523809Y39697620D01*
X11285714Y39697620D01*
X12190476Y40697620D02*
X12809523Y40697620D01*
X12476190Y40316667D01*
X12619047Y40316667D01*
X12714285Y40269048D01*
X12761904Y40221429D01*
X12809523Y40126191D01*
X12809523Y39888096D01*
X12761904Y39792858D01*
X12714285Y39745239D01*
X12619047Y39697620D01*
X12333333Y39697620D01*
X12238095Y39745239D01*
X12190476Y39792858D01*
X13142857Y40697620D02*
X13809523Y40697620D01*
X13380952Y39697620D01*
X11285714Y64697620D02*
X11285714Y65697620D01*
X11523809Y65697620D01*
X11666666Y65650000D01*
X11761904Y65554762D01*
X11809523Y65459524D01*
X11857142Y65269048D01*
X11857142Y65126191D01*
X11809523Y64935715D01*
X11761904Y64840477D01*
X11666666Y64745239D01*
X11523809Y64697620D01*
X11285714Y64697620D01*
X12190476Y65697620D02*
X12809523Y65697620D01*
X12476190Y65316667D01*
X12619047Y65316667D01*
X12714285Y65269048D01*
X12761904Y65221429D01*
X12809523Y65126191D01*
X12809523Y64888096D01*
X12761904Y64792858D01*
X12714285Y64745239D01*
X12619047Y64697620D01*
X12333333Y64697620D01*
X12238095Y64745239D01*
X12190476Y64792858D01*
X13666666Y65697620D02*
X13476190Y65697620D01*
X13380952Y65650000D01*
X13333333Y65602381D01*
X13238095Y65459524D01*
X13190476Y65269048D01*
X13190476Y64888096D01*
X13238095Y64792858D01*
X13285714Y64745239D01*
X13380952Y64697620D01*
X13571428Y64697620D01*
X13666666Y64745239D01*
X13714285Y64792858D01*
X13761904Y64888096D01*
X13761904Y65126191D01*
X13714285Y65221429D01*
X13666666Y65269048D01*
X13571428Y65316667D01*
X13380952Y65316667D01*
X13285714Y65269048D01*
X13238095Y65221429D01*
X13190476Y65126191D01*
X11285714Y89697620D02*
X11285714Y90697620D01*
X11523809Y90697620D01*
X11666666Y90650000D01*
X11761904Y90554762D01*
X11809523Y90459524D01*
X11857142Y90269048D01*
X11857142Y90126191D01*
X11809523Y89935715D01*
X11761904Y89840477D01*
X11666666Y89745239D01*
X11523809Y89697620D01*
X11285714Y89697620D01*
X12190476Y90697620D02*
X12809523Y90697620D01*
X12476190Y90316667D01*
X12619047Y90316667D01*
X12714285Y90269048D01*
X12761904Y90221429D01*
X12809523Y90126191D01*
X12809523Y89888096D01*
X12761904Y89792858D01*
X12714285Y89745239D01*
X12619047Y89697620D01*
X12333333Y89697620D01*
X12238095Y89745239D01*
X12190476Y89792858D01*
X13714285Y90697620D02*
X13238095Y90697620D01*
X13190476Y90221429D01*
X13238095Y90269048D01*
X13333333Y90316667D01*
X13571428Y90316667D01*
X13666666Y90269048D01*
X13714285Y90221429D01*
X13761904Y90126191D01*
X13761904Y89888096D01*
X13714285Y89792858D01*
X13666666Y89745239D01*
X13571428Y89697620D01*
X13333333Y89697620D01*
X13238095Y89745239D01*
X13190476Y89792858D01*
X61190476Y21595239D02*
X61333333Y21547620D01*
X61571428Y21547620D01*
X61666666Y21595239D01*
X61714285Y21642858D01*
X61761904Y21738096D01*
X61761904Y21833334D01*
X61714285Y21928572D01*
X61666666Y21976191D01*
X61571428Y22023810D01*
X61380952Y22071429D01*
X61285714Y22119048D01*
X61238095Y22166667D01*
X61190476Y22261905D01*
X61190476Y22357143D01*
X61238095Y22452381D01*
X61285714Y22500000D01*
X61380952Y22547620D01*
X61619047Y22547620D01*
X61761904Y22500000D01*
X62095238Y22547620D02*
X62333333Y21547620D01*
X62523809Y22261905D01*
X62714285Y21547620D01*
X62952380Y22547620D01*
X63857142Y21547620D02*
X63285714Y21547620D01*
X63571428Y21547620D02*
X63571428Y22547620D01*
X63476190Y22404762D01*
X63380952Y22309524D01*
X63285714Y22261905D01*
X64761904Y22547620D02*
X64285714Y22547620D01*
X64238095Y22071429D01*
X64285714Y22119048D01*
X64380952Y22166667D01*
X64619047Y22166667D01*
X64714285Y22119048D01*
X64761904Y22071429D01*
X64809523Y21976191D01*
X64809523Y21738096D01*
X64761904Y21642858D01*
X64714285Y21595239D01*
X64619047Y21547620D01*
X64380952Y21547620D01*
X64285714Y21595239D01*
X64238095Y21642858D01*
X11190476Y21595239D02*
X11333333Y21547620D01*
X11571428Y21547620D01*
X11666666Y21595239D01*
X11714285Y21642858D01*
X11761904Y21738096D01*
X11761904Y21833334D01*
X11714285Y21928572D01*
X11666666Y21976191D01*
X11571428Y22023810D01*
X11380952Y22071429D01*
X11285714Y22119048D01*
X11238095Y22166667D01*
X11190476Y22261905D01*
X11190476Y22357143D01*
X11238095Y22452381D01*
X11285714Y22500000D01*
X11380952Y22547620D01*
X11619047Y22547620D01*
X11761904Y22500000D01*
X12095238Y22547620D02*
X12333333Y21547620D01*
X12523809Y22261905D01*
X12714285Y21547620D01*
X12952380Y22547620D01*
X13857142Y21547620D02*
X13285714Y21547620D01*
X13571428Y21547620D02*
X13571428Y22547620D01*
X13476190Y22404762D01*
X13380952Y22309524D01*
X13285714Y22261905D01*
X14190476Y22547620D02*
X14809523Y22547620D01*
X14476190Y22166667D01*
X14619047Y22166667D01*
X14714285Y22119048D01*
X14761904Y22071429D01*
X14809523Y21976191D01*
X14809523Y21738096D01*
X14761904Y21642858D01*
X14714285Y21595239D01*
X14619047Y21547620D01*
X14333333Y21547620D01*
X14238095Y21595239D01*
X14190476Y21642858D01*
X11666666Y46595239D02*
X11809523Y46547620D01*
X12047619Y46547620D01*
X12142857Y46595239D01*
X12190476Y46642858D01*
X12238095Y46738096D01*
X12238095Y46833334D01*
X12190476Y46928572D01*
X12142857Y46976191D01*
X12047619Y47023810D01*
X11857142Y47071429D01*
X11761904Y47119048D01*
X11714285Y47166667D01*
X11666666Y47261905D01*
X11666666Y47357143D01*
X11714285Y47452381D01*
X11761904Y47500000D01*
X11857142Y47547620D01*
X12095238Y47547620D01*
X12238095Y47500000D01*
X12571428Y47547620D02*
X12809523Y46547620D01*
X13000000Y47261905D01*
X13190476Y46547620D01*
X13428571Y47547620D01*
X13857142Y46547620D02*
X14047619Y46547620D01*
X14142857Y46595239D01*
X14190476Y46642858D01*
X14285714Y46785715D01*
X14333333Y46976191D01*
X14333333Y47357143D01*
X14285714Y47452381D01*
X14238095Y47500000D01*
X14142857Y47547620D01*
X13952380Y47547620D01*
X13857142Y47500000D01*
X13809523Y47452381D01*
X13761904Y47357143D01*
X13761904Y47119048D01*
X13809523Y47023810D01*
X13857142Y46976191D01*
X13952380Y46928572D01*
X14142857Y46928572D01*
X14238095Y46976191D01*
X14285714Y47023810D01*
X14333333Y47119048D01*
X61666666Y71595239D02*
X61809523Y71547620D01*
X62047619Y71547620D01*
X62142857Y71595239D01*
X62190476Y71642858D01*
X62238095Y71738096D01*
X62238095Y71833334D01*
X62190476Y71928572D01*
X62142857Y71976191D01*
X62047619Y72023810D01*
X61857142Y72071429D01*
X61761904Y72119048D01*
X61714285Y72166667D01*
X61666666Y72261905D01*
X61666666Y72357143D01*
X61714285Y72452381D01*
X61761904Y72500000D01*
X61857142Y72547620D01*
X62095238Y72547620D01*
X62238095Y72500000D01*
X62571428Y72547620D02*
X62809523Y71547620D01*
X63000000Y72261905D01*
X63190476Y71547620D01*
X63428571Y72547620D01*
X63714285Y72547620D02*
X64380952Y72547620D01*
X63952380Y71547620D01*
X11666666Y71595239D02*
X11809523Y71547620D01*
X12047619Y71547620D01*
X12142857Y71595239D01*
X12190476Y71642858D01*
X12238095Y71738096D01*
X12238095Y71833334D01*
X12190476Y71928572D01*
X12142857Y71976191D01*
X12047619Y72023810D01*
X11857142Y72071429D01*
X11761904Y72119048D01*
X11714285Y72166667D01*
X11666666Y72261905D01*
X11666666Y72357143D01*
X11714285Y72452381D01*
X11761904Y72500000D01*
X11857142Y72547620D01*
X12095238Y72547620D01*
X12238095Y72500000D01*
X12571428Y72547620D02*
X12809523Y71547620D01*
X13000000Y72261905D01*
X13190476Y71547620D01*
X13428571Y72547620D01*
X14285714Y72547620D02*
X13809523Y72547620D01*
X13761904Y72071429D01*
X13809523Y72119048D01*
X13904761Y72166667D01*
X14142857Y72166667D01*
X14238095Y72119048D01*
X14285714Y72071429D01*
X14333333Y71976191D01*
X14333333Y71738096D01*
X14285714Y71642858D01*
X14238095Y71595239D01*
X14142857Y71547620D01*
X13904761Y71547620D01*
X13809523Y71595239D01*
X13761904Y71642858D01*
X11666666Y96595239D02*
X11809523Y96547620D01*
X12047619Y96547620D01*
X12142857Y96595239D01*
X12190476Y96642858D01*
X12238095Y96738096D01*
X12238095Y96833334D01*
X12190476Y96928572D01*
X12142857Y96976191D01*
X12047619Y97023810D01*
X11857142Y97071429D01*
X11761904Y97119048D01*
X11714285Y97166667D01*
X11666666Y97261905D01*
X11666666Y97357143D01*
X11714285Y97452381D01*
X11761904Y97500000D01*
X11857142Y97547620D01*
X12095238Y97547620D01*
X12238095Y97500000D01*
X12571428Y97547620D02*
X12809523Y96547620D01*
X13000000Y97261905D01*
X13190476Y96547620D01*
X13428571Y97547620D01*
X14333333Y96547620D02*
X13761904Y96547620D01*
X14047619Y96547620D02*
X14047619Y97547620D01*
X13952380Y97404762D01*
X13857142Y97309524D01*
X13761904Y97261905D01*
%LPC*%
D12*
G36*
X79299392Y108457114D02*
G01*
X79526579Y108442704D01*
X79718462Y108412319D01*
X79911941Y108360749D01*
X80064637Y108310444D01*
X80652534Y108055199D01*
X81165183Y107720827D01*
X81601413Y107308502D01*
X81960051Y106819394D01*
X82239926Y106254676D01*
X82310445Y106064637D01*
X82379554Y105848734D01*
X82423905Y105659732D01*
X82448709Y105460732D01*
X82459175Y105214831D01*
X82460761Y105000000D01*
X82457115Y104700608D01*
X82442705Y104473421D01*
X82412320Y104281538D01*
X82360750Y104088059D01*
X82310445Y103935363D01*
X82055248Y103348738D01*
X81720350Y102835463D01*
X81308893Y102398689D01*
X80824017Y102041567D01*
X80268866Y101767249D01*
X80081147Y101698897D01*
X79699091Y101601177D01*
X79271873Y101541730D01*
X78844824Y101524325D01*
X78463273Y101552735D01*
X78416748Y101560460D01*
X77823793Y101720569D01*
X77278611Y101975369D01*
X76789393Y102317729D01*
X76364328Y102740516D01*
X76011608Y103236597D01*
X75739424Y103798839D01*
X75689556Y103935363D01*
X75620447Y104151265D01*
X75576096Y104340267D01*
X75551292Y104539267D01*
X75540826Y104785168D01*
X75539240Y105000000D01*
X75539285Y105003757D01*
X77470538Y105003757D01*
X77508216Y104932131D01*
X77609203Y104805870D01*
X77755430Y104643133D01*
X77928828Y104462078D01*
X78111328Y104280865D01*
X78284860Y104117651D01*
X78431357Y103990596D01*
X78532748Y103917858D01*
X78561363Y103907526D01*
X78621524Y103944735D01*
X78746662Y104049284D01*
X78925216Y104210555D01*
X79145626Y104417932D01*
X79396334Y104660798D01*
X79586635Y104849199D01*
X79848634Y105114246D01*
X80082646Y105357440D01*
X80278038Y105567197D01*
X80424174Y105731933D01*
X80510418Y105840065D01*
X80529463Y105876124D01*
X80482504Y106002478D01*
X80371031Y106082992D01*
X80314340Y106092473D01*
X80252360Y106055329D01*
X80126428Y105951443D01*
X79949023Y105792132D01*
X79732622Y105588713D01*
X79489704Y105352506D01*
X79397017Y105260477D01*
X78563720Y104428481D01*
X78166060Y104823488D01*
X77991569Y104989133D01*
X77838369Y105120598D01*
X77726752Y105201218D01*
X77685017Y105218494D01*
X77560144Y105171382D01*
X77480022Y105060094D01*
X77470538Y105003757D01*
X75539285Y105003757D01*
X75542886Y105299391D01*
X75557296Y105526578D01*
X75587681Y105718461D01*
X75639251Y105911940D01*
X75689556Y106064637D01*
X75944801Y106652533D01*
X76279173Y107165182D01*
X76691498Y107601412D01*
X77180606Y107960050D01*
X77745324Y108239925D01*
X77935363Y108310444D01*
X78151266Y108379553D01*
X78340268Y108423904D01*
X78539268Y108448708D01*
X78785169Y108459174D01*
X79000000Y108460760D01*
X79299392Y108457114D01*
G37*
X79299392Y108457114D02*
X79526579Y108442704D01*
X79718462Y108412319D01*
X79911941Y108360749D01*
X80064637Y108310444D01*
X80652534Y108055199D01*
X81165183Y107720827D01*
X81601413Y107308502D01*
X81960051Y106819394D01*
X82239926Y106254676D01*
X82310445Y106064637D01*
X82379554Y105848734D01*
X82423905Y105659732D01*
X82448709Y105460732D01*
X82459175Y105214831D01*
X82460761Y105000000D01*
X82457115Y104700608D01*
X82442705Y104473421D01*
X82412320Y104281538D01*
X82360750Y104088059D01*
X82310445Y103935363D01*
X82055248Y103348738D01*
X81720350Y102835463D01*
X81308893Y102398689D01*
X80824017Y102041567D01*
X80268866Y101767249D01*
X80081147Y101698897D01*
X79699091Y101601177D01*
X79271873Y101541730D01*
X78844824Y101524325D01*
X78463273Y101552735D01*
X78416748Y101560460D01*
X77823793Y101720569D01*
X77278611Y101975369D01*
X76789393Y102317729D01*
X76364328Y102740516D01*
X76011608Y103236597D01*
X75739424Y103798839D01*
X75689556Y103935363D01*
X75620447Y104151265D01*
X75576096Y104340267D01*
X75551292Y104539267D01*
X75540826Y104785168D01*
X75539240Y105000000D01*
X75539285Y105003757D01*
X77470538Y105003757D01*
X77508216Y104932131D01*
X77609203Y104805870D01*
X77755430Y104643133D01*
X77928828Y104462078D01*
X78111328Y104280865D01*
X78284860Y104117651D01*
X78431357Y103990596D01*
X78532748Y103917858D01*
X78561363Y103907526D01*
X78621524Y103944735D01*
X78746662Y104049284D01*
X78925216Y104210555D01*
X79145626Y104417932D01*
X79396334Y104660798D01*
X79586635Y104849199D01*
X79848634Y105114246D01*
X80082646Y105357440D01*
X80278038Y105567197D01*
X80424174Y105731933D01*
X80510418Y105840065D01*
X80529463Y105876124D01*
X80482504Y106002478D01*
X80371031Y106082992D01*
X80314340Y106092473D01*
X80252360Y106055329D01*
X80126428Y105951443D01*
X79949023Y105792132D01*
X79732622Y105588713D01*
X79489704Y105352506D01*
X79397017Y105260477D01*
X78563720Y104428481D01*
X78166060Y104823488D01*
X77991569Y104989133D01*
X77838369Y105120598D01*
X77726752Y105201218D01*
X77685017Y105218494D01*
X77560144Y105171382D01*
X77480022Y105060094D01*
X77470538Y105003757D01*
X75539285Y105003757D01*
X75542886Y105299391D01*
X75557296Y105526578D01*
X75587681Y105718461D01*
X75639251Y105911940D01*
X75689556Y106064637D01*
X75944801Y106652533D01*
X76279173Y107165182D01*
X76691498Y107601412D01*
X77180606Y107960050D01*
X77745324Y108239925D01*
X77935363Y108310444D01*
X78151266Y108379553D01*
X78340268Y108423904D01*
X78539268Y108448708D01*
X78785169Y108459174D01*
X79000000Y108460760D01*
X79299392Y108457114D01*
G36*
X68299392Y108457114D02*
G01*
X68526579Y108442704D01*
X68718462Y108412319D01*
X68911941Y108360749D01*
X69064637Y108310444D01*
X69652534Y108055199D01*
X70165183Y107720827D01*
X70601413Y107308502D01*
X70960051Y106819394D01*
X71239926Y106254676D01*
X71310445Y106064637D01*
X71379554Y105848734D01*
X71423905Y105659732D01*
X71448709Y105460732D01*
X71459175Y105214831D01*
X71460761Y105000000D01*
X71457115Y104700608D01*
X71442705Y104473421D01*
X71412320Y104281538D01*
X71360750Y104088059D01*
X71310445Y103935363D01*
X71055248Y103348738D01*
X70720350Y102835463D01*
X70308893Y102398689D01*
X69824017Y102041567D01*
X69268866Y101767249D01*
X69081147Y101698897D01*
X68699091Y101601177D01*
X68271873Y101541730D01*
X67844824Y101524325D01*
X67463273Y101552735D01*
X67416748Y101560460D01*
X66823793Y101720569D01*
X66278611Y101975369D01*
X65789393Y102317729D01*
X65364328Y102740516D01*
X65011608Y103236597D01*
X64739424Y103798839D01*
X64712528Y103872474D01*
X66698840Y103872474D01*
X66718302Y103799195D01*
X66754581Y103754580D01*
X66822420Y103706788D01*
X66900691Y103702937D01*
X67002836Y103751004D01*
X67142295Y103858967D01*
X67332511Y104034803D01*
X67493705Y104193222D01*
X68000000Y104697412D01*
X68506296Y104193222D01*
X68737704Y103967838D01*
X68909418Y103815631D01*
X69034878Y103728624D01*
X69127526Y103698839D01*
X69200805Y103718301D01*
X69245420Y103754580D01*
X69293212Y103822419D01*
X69297063Y103900690D01*
X69248996Y104002835D01*
X69141033Y104142294D01*
X68965197Y104332510D01*
X68806778Y104493704D01*
X68302588Y105000000D01*
X68806778Y105506295D01*
X69032162Y105737703D01*
X69184369Y105909417D01*
X69271376Y106034877D01*
X69301161Y106127526D01*
X69281699Y106200804D01*
X69245420Y106245419D01*
X69177581Y106293211D01*
X69099310Y106297062D01*
X68997165Y106248995D01*
X68857706Y106141032D01*
X68667490Y105965196D01*
X68506296Y105806777D01*
X68000000Y105302587D01*
X67493705Y105806777D01*
X67262297Y106032161D01*
X67090583Y106184368D01*
X66965123Y106271376D01*
X66872474Y106301160D01*
X66799196Y106281698D01*
X66754581Y106245419D01*
X66706789Y106177580D01*
X66702938Y106099309D01*
X66751005Y105997164D01*
X66858968Y105857705D01*
X67034804Y105667489D01*
X67193223Y105506295D01*
X67697413Y105000000D01*
X67193223Y104493704D01*
X66967839Y104262296D01*
X66815632Y104090582D01*
X66728624Y103965122D01*
X66698840Y103872474D01*
X64712528Y103872474D01*
X64689556Y103935363D01*
X64620447Y104151265D01*
X64576096Y104340267D01*
X64551292Y104539267D01*
X64540826Y104785168D01*
X64539240Y105000000D01*
X64542886Y105299391D01*
X64557296Y105526578D01*
X64587681Y105718461D01*
X64639251Y105911940D01*
X64689556Y106064637D01*
X64944801Y106652533D01*
X65279173Y107165182D01*
X65691498Y107601412D01*
X66180606Y107960050D01*
X66745324Y108239925D01*
X66935363Y108310444D01*
X67151266Y108379553D01*
X67340268Y108423904D01*
X67539268Y108448708D01*
X67785169Y108459174D01*
X68000000Y108460760D01*
X68299392Y108457114D01*
G37*
X68299392Y108457114D02*
X68526579Y108442704D01*
X68718462Y108412319D01*
X68911941Y108360749D01*
X69064637Y108310444D01*
X69652534Y108055199D01*
X70165183Y107720827D01*
X70601413Y107308502D01*
X70960051Y106819394D01*
X71239926Y106254676D01*
X71310445Y106064637D01*
X71379554Y105848734D01*
X71423905Y105659732D01*
X71448709Y105460732D01*
X71459175Y105214831D01*
X71460761Y105000000D01*
X71457115Y104700608D01*
X71442705Y104473421D01*
X71412320Y104281538D01*
X71360750Y104088059D01*
X71310445Y103935363D01*
X71055248Y103348738D01*
X70720350Y102835463D01*
X70308893Y102398689D01*
X69824017Y102041567D01*
X69268866Y101767249D01*
X69081147Y101698897D01*
X68699091Y101601177D01*
X68271873Y101541730D01*
X67844824Y101524325D01*
X67463273Y101552735D01*
X67416748Y101560460D01*
X66823793Y101720569D01*
X66278611Y101975369D01*
X65789393Y102317729D01*
X65364328Y102740516D01*
X65011608Y103236597D01*
X64739424Y103798839D01*
X64712528Y103872474D01*
X66698840Y103872474D01*
X66718302Y103799195D01*
X66754581Y103754580D01*
X66822420Y103706788D01*
X66900691Y103702937D01*
X67002836Y103751004D01*
X67142295Y103858967D01*
X67332511Y104034803D01*
X67493705Y104193222D01*
X68000000Y104697412D01*
X68506296Y104193222D01*
X68737704Y103967838D01*
X68909418Y103815631D01*
X69034878Y103728624D01*
X69127526Y103698839D01*
X69200805Y103718301D01*
X69245420Y103754580D01*
X69293212Y103822419D01*
X69297063Y103900690D01*
X69248996Y104002835D01*
X69141033Y104142294D01*
X68965197Y104332510D01*
X68806778Y104493704D01*
X68302588Y105000000D01*
X68806778Y105506295D01*
X69032162Y105737703D01*
X69184369Y105909417D01*
X69271376Y106034877D01*
X69301161Y106127526D01*
X69281699Y106200804D01*
X69245420Y106245419D01*
X69177581Y106293211D01*
X69099310Y106297062D01*
X68997165Y106248995D01*
X68857706Y106141032D01*
X68667490Y105965196D01*
X68506296Y105806777D01*
X68000000Y105302587D01*
X67493705Y105806777D01*
X67262297Y106032161D01*
X67090583Y106184368D01*
X66965123Y106271376D01*
X66872474Y106301160D01*
X66799196Y106281698D01*
X66754581Y106245419D01*
X66706789Y106177580D01*
X66702938Y106099309D01*
X66751005Y105997164D01*
X66858968Y105857705D01*
X67034804Y105667489D01*
X67193223Y105506295D01*
X67697413Y105000000D01*
X67193223Y104493704D01*
X66967839Y104262296D01*
X66815632Y104090582D01*
X66728624Y103965122D01*
X66698840Y103872474D01*
X64712528Y103872474D01*
X64689556Y103935363D01*
X64620447Y104151265D01*
X64576096Y104340267D01*
X64551292Y104539267D01*
X64540826Y104785168D01*
X64539240Y105000000D01*
X64542886Y105299391D01*
X64557296Y105526578D01*
X64587681Y105718461D01*
X64639251Y105911940D01*
X64689556Y106064637D01*
X64944801Y106652533D01*
X65279173Y107165182D01*
X65691498Y107601412D01*
X66180606Y107960050D01*
X66745324Y108239925D01*
X66935363Y108310444D01*
X67151266Y108379553D01*
X67340268Y108423904D01*
X67539268Y108448708D01*
X67785169Y108459174D01*
X68000000Y108460760D01*
X68299392Y108457114D01*
G36*
X32299392Y108457114D02*
G01*
X32526579Y108442704D01*
X32718462Y108412319D01*
X32911941Y108360749D01*
X33064637Y108310444D01*
X33652534Y108055199D01*
X34165183Y107720827D01*
X34601413Y107308502D01*
X34960051Y106819394D01*
X35239926Y106254676D01*
X35310445Y106064637D01*
X35379554Y105848734D01*
X35423905Y105659732D01*
X35448709Y105460732D01*
X35459175Y105214831D01*
X35460761Y105000000D01*
X35457115Y104700608D01*
X35442705Y104473421D01*
X35412320Y104281538D01*
X35360750Y104088059D01*
X35310445Y103935363D01*
X35055248Y103348738D01*
X34720350Y102835463D01*
X34308893Y102398689D01*
X33824017Y102041567D01*
X33268866Y101767249D01*
X33081147Y101698897D01*
X32699091Y101601177D01*
X32271873Y101541730D01*
X31844824Y101524325D01*
X31463273Y101552735D01*
X31416748Y101560460D01*
X30823793Y101720569D01*
X30278611Y101975369D01*
X29789393Y102317729D01*
X29364328Y102740516D01*
X29011608Y103236597D01*
X28739424Y103798839D01*
X28689556Y103935363D01*
X28620447Y104151265D01*
X28576096Y104340267D01*
X28551292Y104539267D01*
X28540826Y104785168D01*
X28539240Y105000000D01*
X28542886Y105299391D01*
X28557296Y105526578D01*
X28587681Y105718461D01*
X28639251Y105911940D01*
X28689556Y106064637D01*
X28798061Y106314553D01*
X31344517Y106314553D01*
X31381469Y106248919D01*
X31483496Y106122210D01*
X31637354Y105949519D01*
X31829799Y105745935D01*
X31958142Y105615370D01*
X32571767Y105000000D01*
X31958142Y104384629D01*
X31748917Y104169762D01*
X31570341Y103976742D01*
X31435657Y103820660D01*
X31358110Y103716607D01*
X31344517Y103685446D01*
X31391662Y103560139D01*
X31503189Y103479967D01*
X31559548Y103470537D01*
X31623152Y103507595D01*
X31749469Y103610658D01*
X31924892Y103767559D01*
X32135819Y103966131D01*
X32367978Y104193542D01*
X32596424Y104425717D01*
X32795282Y104635846D01*
X32952367Y104810389D01*
X33055493Y104935808D01*
X33092474Y104998508D01*
X33054828Y105064838D01*
X32951877Y105190288D01*
X32798595Y105359889D01*
X32609958Y105558667D01*
X32400944Y105771653D01*
X32186528Y105983874D01*
X31981685Y106180360D01*
X31801392Y106346138D01*
X31660626Y106466238D01*
X31574362Y106525688D01*
X31561039Y106529462D01*
X31434643Y106482586D01*
X31354047Y106371304D01*
X31344517Y106314553D01*
X28798061Y106314553D01*
X28944801Y106652533D01*
X29279173Y107165182D01*
X29691498Y107601412D01*
X30180606Y107960050D01*
X30745324Y108239925D01*
X30935363Y108310444D01*
X31151266Y108379553D01*
X31340268Y108423904D01*
X31539268Y108448708D01*
X31785169Y108459174D01*
X32000000Y108460760D01*
X32299392Y108457114D01*
G37*
X32299392Y108457114D02*
X32526579Y108442704D01*
X32718462Y108412319D01*
X32911941Y108360749D01*
X33064637Y108310444D01*
X33652534Y108055199D01*
X34165183Y107720827D01*
X34601413Y107308502D01*
X34960051Y106819394D01*
X35239926Y106254676D01*
X35310445Y106064637D01*
X35379554Y105848734D01*
X35423905Y105659732D01*
X35448709Y105460732D01*
X35459175Y105214831D01*
X35460761Y105000000D01*
X35457115Y104700608D01*
X35442705Y104473421D01*
X35412320Y104281538D01*
X35360750Y104088059D01*
X35310445Y103935363D01*
X35055248Y103348738D01*
X34720350Y102835463D01*
X34308893Y102398689D01*
X33824017Y102041567D01*
X33268866Y101767249D01*
X33081147Y101698897D01*
X32699091Y101601177D01*
X32271873Y101541730D01*
X31844824Y101524325D01*
X31463273Y101552735D01*
X31416748Y101560460D01*
X30823793Y101720569D01*
X30278611Y101975369D01*
X29789393Y102317729D01*
X29364328Y102740516D01*
X29011608Y103236597D01*
X28739424Y103798839D01*
X28689556Y103935363D01*
X28620447Y104151265D01*
X28576096Y104340267D01*
X28551292Y104539267D01*
X28540826Y104785168D01*
X28539240Y105000000D01*
X28542886Y105299391D01*
X28557296Y105526578D01*
X28587681Y105718461D01*
X28639251Y105911940D01*
X28689556Y106064637D01*
X28798061Y106314553D01*
X31344517Y106314553D01*
X31381469Y106248919D01*
X31483496Y106122210D01*
X31637354Y105949519D01*
X31829799Y105745935D01*
X31958142Y105615370D01*
X32571767Y105000000D01*
X31958142Y104384629D01*
X31748917Y104169762D01*
X31570341Y103976742D01*
X31435657Y103820660D01*
X31358110Y103716607D01*
X31344517Y103685446D01*
X31391662Y103560139D01*
X31503189Y103479967D01*
X31559548Y103470537D01*
X31623152Y103507595D01*
X31749469Y103610658D01*
X31924892Y103767559D01*
X32135819Y103966131D01*
X32367978Y104193542D01*
X32596424Y104425717D01*
X32795282Y104635846D01*
X32952367Y104810389D01*
X33055493Y104935808D01*
X33092474Y104998508D01*
X33054828Y105064838D01*
X32951877Y105190288D01*
X32798595Y105359889D01*
X32609958Y105558667D01*
X32400944Y105771653D01*
X32186528Y105983874D01*
X31981685Y106180360D01*
X31801392Y106346138D01*
X31660626Y106466238D01*
X31574362Y106525688D01*
X31561039Y106529462D01*
X31434643Y106482586D01*
X31354047Y106371304D01*
X31344517Y106314553D01*
X28798061Y106314553D01*
X28944801Y106652533D01*
X29279173Y107165182D01*
X29691498Y107601412D01*
X30180606Y107960050D01*
X30745324Y108239925D01*
X30935363Y108310444D01*
X31151266Y108379553D01*
X31340268Y108423904D01*
X31539268Y108448708D01*
X31785169Y108459174D01*
X32000000Y108460760D01*
X32299392Y108457114D01*
G36*
X21299392Y108457114D02*
G01*
X21526579Y108442704D01*
X21718462Y108412319D01*
X21911941Y108360749D01*
X22064637Y108310444D01*
X22652534Y108055199D01*
X23165183Y107720827D01*
X23601413Y107308502D01*
X23960051Y106819394D01*
X24239926Y106254676D01*
X24310445Y106064637D01*
X24379554Y105848734D01*
X24423905Y105659732D01*
X24448709Y105460732D01*
X24459175Y105214831D01*
X24460761Y105000000D01*
X24457115Y104700608D01*
X24442705Y104473421D01*
X24412320Y104281538D01*
X24360750Y104088059D01*
X24310445Y103935363D01*
X24055248Y103348738D01*
X23720350Y102835463D01*
X23308893Y102398689D01*
X22824017Y102041567D01*
X22268866Y101767249D01*
X22081147Y101698897D01*
X21699091Y101601177D01*
X21271873Y101541730D01*
X20844824Y101524325D01*
X20463273Y101552735D01*
X20416748Y101560460D01*
X19823793Y101720569D01*
X19278611Y101975369D01*
X18789393Y102317729D01*
X18364328Y102740516D01*
X18011608Y103236597D01*
X17739424Y103798839D01*
X17689556Y103935363D01*
X17620447Y104151265D01*
X17576096Y104340267D01*
X17551292Y104539267D01*
X17540826Y104785168D01*
X17539240Y105000000D01*
X19907527Y105000000D01*
X19945176Y104933979D01*
X20048137Y104808835D01*
X20201430Y104639526D01*
X20390077Y104441013D01*
X20599099Y104228255D01*
X20813517Y104016211D01*
X21018353Y103819842D01*
X21198626Y103654106D01*
X21339358Y103533964D01*
X21425570Y103474376D01*
X21438962Y103470537D01*
X21551723Y103506878D01*
X21589936Y103536086D01*
X21648532Y103641042D01*
X21655484Y103685446D01*
X21618532Y103751080D01*
X21516505Y103877789D01*
X21362647Y104050480D01*
X21170202Y104254064D01*
X21041859Y104384629D01*
X20428234Y105000000D01*
X21041859Y105615370D01*
X21251084Y105830238D01*
X21429660Y106023257D01*
X21564344Y106179339D01*
X21641891Y106283392D01*
X21655484Y106314553D01*
X21608257Y106440007D01*
X21496139Y106520002D01*
X21438962Y106529462D01*
X21372857Y106491862D01*
X21247551Y106389034D01*
X21078024Y106235938D01*
X20879255Y106047533D01*
X20666222Y105838780D01*
X20453905Y105624639D01*
X20257282Y105420067D01*
X20091333Y105240026D01*
X19971036Y105099475D01*
X19911371Y105013374D01*
X19907527Y105000000D01*
X17539240Y105000000D01*
X17542886Y105299391D01*
X17557296Y105526578D01*
X17587681Y105718461D01*
X17639251Y105911940D01*
X17689556Y106064637D01*
X17944801Y106652533D01*
X18279173Y107165182D01*
X18691498Y107601412D01*
X19180606Y107960050D01*
X19745324Y108239925D01*
X19935363Y108310444D01*
X20151266Y108379553D01*
X20340268Y108423904D01*
X20539268Y108448708D01*
X20785169Y108459174D01*
X21000000Y108460760D01*
X21299392Y108457114D01*
G37*
X21299392Y108457114D02*
X21526579Y108442704D01*
X21718462Y108412319D01*
X21911941Y108360749D01*
X22064637Y108310444D01*
X22652534Y108055199D01*
X23165183Y107720827D01*
X23601413Y107308502D01*
X23960051Y106819394D01*
X24239926Y106254676D01*
X24310445Y106064637D01*
X24379554Y105848734D01*
X24423905Y105659732D01*
X24448709Y105460732D01*
X24459175Y105214831D01*
X24460761Y105000000D01*
X24457115Y104700608D01*
X24442705Y104473421D01*
X24412320Y104281538D01*
X24360750Y104088059D01*
X24310445Y103935363D01*
X24055248Y103348738D01*
X23720350Y102835463D01*
X23308893Y102398689D01*
X22824017Y102041567D01*
X22268866Y101767249D01*
X22081147Y101698897D01*
X21699091Y101601177D01*
X21271873Y101541730D01*
X20844824Y101524325D01*
X20463273Y101552735D01*
X20416748Y101560460D01*
X19823793Y101720569D01*
X19278611Y101975369D01*
X18789393Y102317729D01*
X18364328Y102740516D01*
X18011608Y103236597D01*
X17739424Y103798839D01*
X17689556Y103935363D01*
X17620447Y104151265D01*
X17576096Y104340267D01*
X17551292Y104539267D01*
X17540826Y104785168D01*
X17539240Y105000000D01*
X19907527Y105000000D01*
X19945176Y104933979D01*
X20048137Y104808835D01*
X20201430Y104639526D01*
X20390077Y104441013D01*
X20599099Y104228255D01*
X20813517Y104016211D01*
X21018353Y103819842D01*
X21198626Y103654106D01*
X21339358Y103533964D01*
X21425570Y103474376D01*
X21438962Y103470537D01*
X21551723Y103506878D01*
X21589936Y103536086D01*
X21648532Y103641042D01*
X21655484Y103685446D01*
X21618532Y103751080D01*
X21516505Y103877789D01*
X21362647Y104050480D01*
X21170202Y104254064D01*
X21041859Y104384629D01*
X20428234Y105000000D01*
X21041859Y105615370D01*
X21251084Y105830238D01*
X21429660Y106023257D01*
X21564344Y106179339D01*
X21641891Y106283392D01*
X21655484Y106314553D01*
X21608257Y106440007D01*
X21496139Y106520002D01*
X21438962Y106529462D01*
X21372857Y106491862D01*
X21247551Y106389034D01*
X21078024Y106235938D01*
X20879255Y106047533D01*
X20666222Y105838780D01*
X20453905Y105624639D01*
X20257282Y105420067D01*
X20091333Y105240026D01*
X19971036Y105099475D01*
X19911371Y105013374D01*
X19907527Y105000000D01*
X17539240Y105000000D01*
X17542886Y105299391D01*
X17557296Y105526578D01*
X17587681Y105718461D01*
X17639251Y105911940D01*
X17689556Y106064637D01*
X17944801Y106652533D01*
X18279173Y107165182D01*
X18691498Y107601412D01*
X19180606Y107960050D01*
X19745324Y108239925D01*
X19935363Y108310444D01*
X20151266Y108379553D01*
X20340268Y108423904D01*
X20539268Y108448708D01*
X20785169Y108459174D01*
X21000000Y108460760D01*
X21299392Y108457114D01*
G36*
X50436990Y105792043D02*
G01*
X50873979Y105357616D01*
X50873979Y103907526D01*
X49126022Y103907526D01*
X49126022Y105357616D01*
X49563011Y105792043D01*
X50000000Y106226469D01*
X50436990Y105792043D01*
G37*
X50436990Y105792043D02*
X50873979Y105357616D01*
X50873979Y103907526D01*
X49126022Y103907526D01*
X49126022Y105357616D01*
X49563011Y105792043D01*
X50000000Y106226469D01*
X50436990Y105792043D01*
G36*
X50299392Y108457114D02*
G01*
X50526579Y108442704D01*
X50718462Y108412319D01*
X50911941Y108360749D01*
X51064637Y108310444D01*
X51652534Y108055199D01*
X52165183Y107720827D01*
X52601413Y107308502D01*
X52960051Y106819394D01*
X53239926Y106254676D01*
X53310445Y106064637D01*
X53379554Y105848734D01*
X53423905Y105659732D01*
X53448709Y105460732D01*
X53459175Y105214831D01*
X53460761Y105000000D01*
X53457115Y104700608D01*
X53442705Y104473421D01*
X53412320Y104281538D01*
X53360750Y104088059D01*
X53310445Y103935363D01*
X53055248Y103348738D01*
X52720350Y102835463D01*
X52308893Y102398689D01*
X51824017Y102041567D01*
X51268866Y101767249D01*
X51081147Y101698897D01*
X50699091Y101601177D01*
X50271873Y101541730D01*
X49844824Y101524325D01*
X49463273Y101552735D01*
X49416748Y101560460D01*
X48823793Y101720569D01*
X48278611Y101975369D01*
X47789393Y102317729D01*
X47364328Y102740516D01*
X47011608Y103236597D01*
X46739424Y103798839D01*
X46689556Y103935363D01*
X46620447Y104151265D01*
X46576096Y104340267D01*
X46551292Y104539267D01*
X46540826Y104785168D01*
X46539405Y104977734D01*
X48260201Y104977734D01*
X48260241Y104972434D01*
X48329652Y104845168D01*
X48450859Y104791145D01*
X48579597Y104823334D01*
X48625976Y104848080D01*
X48656965Y104842589D01*
X48675663Y104790519D01*
X48685172Y104675526D01*
X48688594Y104481269D01*
X48689033Y104246656D01*
X48695153Y103907605D01*
X48713472Y103675644D01*
X48743930Y103551425D01*
X48754581Y103536086D01*
X48831120Y103513114D01*
X48997013Y103494724D01*
X49232466Y103480916D01*
X49517681Y103471690D01*
X49832864Y103467045D01*
X50158217Y103466982D01*
X50473945Y103471500D01*
X50760252Y103480601D01*
X50997341Y103494282D01*
X51165416Y103512546D01*
X51244682Y103535391D01*
X51245420Y103536086D01*
X51279253Y103630140D01*
X51300964Y103832121D01*
X51310492Y104141373D01*
X51310968Y104246656D01*
X51311684Y104519573D01*
X51315899Y104699587D01*
X51326715Y104803040D01*
X51347232Y104846275D01*
X51380553Y104845634D01*
X51420404Y104823334D01*
X51540281Y104783687D01*
X51625243Y104815070D01*
X51720955Y104913711D01*
X51722421Y105036512D01*
X51627966Y105192584D01*
X51537323Y105293050D01*
X51414624Y105427059D01*
X51346208Y105539870D01*
X51313896Y105675547D01*
X51299959Y105868298D01*
X51281003Y106083211D01*
X51244676Y106212639D01*
X51188065Y106277697D01*
X51062431Y106302844D01*
X50948005Y106238150D01*
X50875685Y106101230D01*
X50875221Y106099315D01*
X50855117Y106051992D01*
X50816537Y106047521D01*
X50744990Y106095268D01*
X50625982Y106204597D01*
X50465767Y106363947D01*
X50295281Y106527684D01*
X50145636Y106656649D01*
X50037552Y106733727D01*
X50000805Y106747957D01*
X49930758Y106710163D01*
X49802201Y106606049D01*
X49628757Y106449512D01*
X49424051Y106254450D01*
X49201707Y106034761D01*
X48975349Y105804342D01*
X48758602Y105577092D01*
X48565089Y105366908D01*
X48408435Y105187689D01*
X48302265Y105053332D01*
X48260201Y104977734D01*
X46539405Y104977734D01*
X46539240Y105000000D01*
X46542886Y105299391D01*
X46557296Y105526578D01*
X46587681Y105718461D01*
X46639251Y105911940D01*
X46689556Y106064637D01*
X46944801Y106652533D01*
X47279173Y107165182D01*
X47691498Y107601412D01*
X48180606Y107960050D01*
X48745324Y108239925D01*
X48935363Y108310444D01*
X49151266Y108379553D01*
X49340268Y108423904D01*
X49539268Y108448708D01*
X49785169Y108459174D01*
X50000000Y108460760D01*
X50299392Y108457114D01*
G37*
X50299392Y108457114D02*
X50526579Y108442704D01*
X50718462Y108412319D01*
X50911941Y108360749D01*
X51064637Y108310444D01*
X51652534Y108055199D01*
X52165183Y107720827D01*
X52601413Y107308502D01*
X52960051Y106819394D01*
X53239926Y106254676D01*
X53310445Y106064637D01*
X53379554Y105848734D01*
X53423905Y105659732D01*
X53448709Y105460732D01*
X53459175Y105214831D01*
X53460761Y105000000D01*
X53457115Y104700608D01*
X53442705Y104473421D01*
X53412320Y104281538D01*
X53360750Y104088059D01*
X53310445Y103935363D01*
X53055248Y103348738D01*
X52720350Y102835463D01*
X52308893Y102398689D01*
X51824017Y102041567D01*
X51268866Y101767249D01*
X51081147Y101698897D01*
X50699091Y101601177D01*
X50271873Y101541730D01*
X49844824Y101524325D01*
X49463273Y101552735D01*
X49416748Y101560460D01*
X48823793Y101720569D01*
X48278611Y101975369D01*
X47789393Y102317729D01*
X47364328Y102740516D01*
X47011608Y103236597D01*
X46739424Y103798839D01*
X46689556Y103935363D01*
X46620447Y104151265D01*
X46576096Y104340267D01*
X46551292Y104539267D01*
X46540826Y104785168D01*
X46539405Y104977734D01*
X48260201Y104977734D01*
X48260241Y104972434D01*
X48329652Y104845168D01*
X48450859Y104791145D01*
X48579597Y104823334D01*
X48625976Y104848080D01*
X48656965Y104842589D01*
X48675663Y104790519D01*
X48685172Y104675526D01*
X48688594Y104481269D01*
X48689033Y104246656D01*
X48695153Y103907605D01*
X48713472Y103675644D01*
X48743930Y103551425D01*
X48754581Y103536086D01*
X48831120Y103513114D01*
X48997013Y103494724D01*
X49232466Y103480916D01*
X49517681Y103471690D01*
X49832864Y103467045D01*
X50158217Y103466982D01*
X50473945Y103471500D01*
X50760252Y103480601D01*
X50997341Y103494282D01*
X51165416Y103512546D01*
X51244682Y103535391D01*
X51245420Y103536086D01*
X51279253Y103630140D01*
X51300964Y103832121D01*
X51310492Y104141373D01*
X51310968Y104246656D01*
X51311684Y104519573D01*
X51315899Y104699587D01*
X51326715Y104803040D01*
X51347232Y104846275D01*
X51380553Y104845634D01*
X51420404Y104823334D01*
X51540281Y104783687D01*
X51625243Y104815070D01*
X51720955Y104913711D01*
X51722421Y105036512D01*
X51627966Y105192584D01*
X51537323Y105293050D01*
X51414624Y105427059D01*
X51346208Y105539870D01*
X51313896Y105675547D01*
X51299959Y105868298D01*
X51281003Y106083211D01*
X51244676Y106212639D01*
X51188065Y106277697D01*
X51062431Y106302844D01*
X50948005Y106238150D01*
X50875685Y106101230D01*
X50875221Y106099315D01*
X50855117Y106051992D01*
X50816537Y106047521D01*
X50744990Y106095268D01*
X50625982Y106204597D01*
X50465767Y106363947D01*
X50295281Y106527684D01*
X50145636Y106656649D01*
X50037552Y106733727D01*
X50000805Y106747957D01*
X49930758Y106710163D01*
X49802201Y106606049D01*
X49628757Y106449512D01*
X49424051Y106254450D01*
X49201707Y106034761D01*
X48975349Y105804342D01*
X48758602Y105577092D01*
X48565089Y105366908D01*
X48408435Y105187689D01*
X48302265Y105053332D01*
X48260201Y104977734D01*
X46539405Y104977734D01*
X46539240Y105000000D01*
X46542886Y105299391D01*
X46557296Y105526578D01*
X46587681Y105718461D01*
X46639251Y105911940D01*
X46689556Y106064637D01*
X46944801Y106652533D01*
X47279173Y107165182D01*
X47691498Y107601412D01*
X48180606Y107960050D01*
X48745324Y108239925D01*
X48935363Y108310444D01*
X49151266Y108379553D01*
X49340268Y108423904D01*
X49539268Y108448708D01*
X49785169Y108459174D01*
X50000000Y108460760D01*
X50299392Y108457114D01*
D13*
G36*
X62000000Y41700000D02*
G01*
X62000000Y45800000D01*
X62800000Y45800000D01*
X64000000Y45700000D01*
X65000000Y45400000D01*
X65800000Y45100000D01*
X66500000Y44800000D01*
X67300000Y44300000D01*
X68000000Y43800000D01*
X68600000Y43200000D01*
X69100000Y42600000D01*
X69500000Y42000000D01*
X69900000Y41300000D01*
X70300000Y40400000D01*
X70500000Y39800000D01*
X70700000Y38900000D01*
X70800000Y38500000D01*
X66600000Y38500000D01*
X66400000Y39100000D01*
X66100000Y39700000D01*
X65600000Y40400000D01*
X65000000Y40900000D01*
X64600000Y41200000D01*
X64200000Y41400000D01*
X63700000Y41600000D01*
X63200000Y41700000D01*
X62000000Y41700000D01*
G37*
X62000000Y41700000D02*
X62000000Y45800000D01*
X62800000Y45800000D01*
X64000000Y45700000D01*
X65000000Y45400000D01*
X65800000Y45100000D01*
X66500000Y44800000D01*
X67300000Y44300000D01*
X68000000Y43800000D01*
X68600000Y43200000D01*
X69100000Y42600000D01*
X69500000Y42000000D01*
X69900000Y41300000D01*
X70300000Y40400000D01*
X70500000Y39800000D01*
X70700000Y38900000D01*
X70800000Y38500000D01*
X66600000Y38500000D01*
X66400000Y39100000D01*
X66100000Y39700000D01*
X65600000Y40400000D01*
X65000000Y40900000D01*
X64600000Y41200000D01*
X64200000Y41400000D01*
X63700000Y41600000D01*
X63200000Y41700000D01*
X62000000Y41700000D01*
G36*
X54200000Y37500000D02*
G01*
X54200000Y37900000D01*
X54300000Y38900000D01*
X54600000Y40100000D01*
X55000000Y41100000D01*
X55300000Y41700000D01*
X55800000Y42400000D01*
X56400000Y43200000D01*
X57300000Y44000000D01*
X58000000Y44500000D01*
X58700000Y44900000D01*
X59600000Y45300000D01*
X60500000Y45600000D01*
X61100000Y45700000D01*
X62000000Y45800000D01*
X62000000Y41700000D01*
X61400000Y41600000D01*
X60800000Y41400000D01*
X60300000Y41100000D01*
X59700000Y40700000D01*
X59100000Y40000000D01*
X58600000Y39200000D01*
X58400000Y38500000D01*
X58300000Y37500000D01*
X54200000Y37500000D01*
G37*
X54200000Y37500000D02*
X54200000Y37900000D01*
X54300000Y38900000D01*
X54600000Y40100000D01*
X55000000Y41100000D01*
X55300000Y41700000D01*
X55800000Y42400000D01*
X56400000Y43200000D01*
X57300000Y44000000D01*
X58000000Y44500000D01*
X58700000Y44900000D01*
X59600000Y45300000D01*
X60500000Y45600000D01*
X61100000Y45700000D01*
X62000000Y45800000D01*
X62000000Y41700000D01*
X61400000Y41600000D01*
X60800000Y41400000D01*
X60300000Y41100000D01*
X59700000Y40700000D01*
X59100000Y40000000D01*
X58600000Y39200000D01*
X58400000Y38500000D01*
X58300000Y37500000D01*
X54200000Y37500000D01*
G36*
X65200000Y29600000D02*
G01*
X65700000Y29800000D01*
X66500000Y30200000D01*
X67300000Y30700000D01*
X67900000Y31200000D01*
X68300000Y31500000D01*
X68800000Y32100000D01*
X69500000Y33000000D01*
X69800000Y33500000D01*
X70100000Y34100000D01*
X70300000Y34600000D01*
X70500000Y35200000D01*
X70600000Y35600000D01*
X70700000Y36200000D01*
X70800000Y38100000D01*
X70800000Y38500000D01*
X66600000Y38500000D01*
X66700000Y38200000D01*
X66700000Y37800000D01*
X66700000Y36900000D01*
X66600000Y36400000D01*
X66400000Y35800000D01*
X66100000Y35300000D01*
X65800000Y34800000D01*
X65200000Y34200000D01*
X65200000Y29600000D01*
G37*
X65200000Y29600000D02*
X65700000Y29800000D01*
X66500000Y30200000D01*
X67300000Y30700000D01*
X67900000Y31200000D01*
X68300000Y31500000D01*
X68800000Y32100000D01*
X69500000Y33000000D01*
X69800000Y33500000D01*
X70100000Y34100000D01*
X70300000Y34600000D01*
X70500000Y35200000D01*
X70600000Y35600000D01*
X70700000Y36200000D01*
X70800000Y38100000D01*
X70800000Y38500000D01*
X66600000Y38500000D01*
X66700000Y38200000D01*
X66700000Y37800000D01*
X66700000Y36900000D01*
X66600000Y36400000D01*
X66400000Y35800000D01*
X66100000Y35300000D01*
X65800000Y34800000D01*
X65200000Y34200000D01*
X65200000Y29600000D01*
G36*
X54200000Y37500000D02*
G01*
X58300000Y37500000D01*
X58300000Y37000000D01*
X58600000Y35800000D01*
X59300000Y34700000D01*
X60100000Y34000000D01*
X60800000Y33600000D01*
X61900000Y33300000D01*
X63000000Y33300000D01*
X64200000Y33600000D01*
X65200000Y34200000D01*
X65200000Y29600000D01*
X63400000Y29200000D01*
X62000000Y29200000D01*
X60500000Y29400000D01*
X59300000Y29800000D01*
X58400000Y30200000D01*
X57500000Y30800000D01*
X56300000Y31900000D01*
X55500000Y33000000D01*
X55000000Y33800000D01*
X54400000Y35400000D01*
X54200000Y36800000D01*
X54200000Y37500000D01*
G37*
X54200000Y37500000D02*
X58300000Y37500000D01*
X58300000Y37000000D01*
X58600000Y35800000D01*
X59300000Y34700000D01*
X60100000Y34000000D01*
X60800000Y33600000D01*
X61900000Y33300000D01*
X63000000Y33300000D01*
X64200000Y33600000D01*
X65200000Y34200000D01*
X65200000Y29600000D01*
X63400000Y29200000D01*
X62000000Y29200000D01*
X60500000Y29400000D01*
X59300000Y29800000D01*
X58400000Y30200000D01*
X57500000Y30800000D01*
X56300000Y31900000D01*
X55500000Y33000000D01*
X55000000Y33800000D01*
X54400000Y35400000D01*
X54200000Y36800000D01*
X54200000Y37500000D01*
G36*
X87000000Y91700000D02*
G01*
X87000000Y95800000D01*
X87800000Y95800000D01*
X89000000Y95700000D01*
X90000000Y95400000D01*
X90800000Y95100000D01*
X91500000Y94800000D01*
X92300000Y94300000D01*
X93000000Y93800000D01*
X93600000Y93200000D01*
X94100000Y92600000D01*
X94500000Y92000000D01*
X94900000Y91300000D01*
X95300000Y90400000D01*
X95500000Y89800000D01*
X95700000Y88900000D01*
X95800000Y88500000D01*
X91600000Y88500000D01*
X91400000Y89100000D01*
X91100000Y89700000D01*
X90600000Y90400000D01*
X90000000Y90900000D01*
X89600000Y91200000D01*
X89200000Y91400000D01*
X88700000Y91600000D01*
X88200000Y91700000D01*
X87000000Y91700000D01*
G37*
X87000000Y91700000D02*
X87000000Y95800000D01*
X87800000Y95800000D01*
X89000000Y95700000D01*
X90000000Y95400000D01*
X90800000Y95100000D01*
X91500000Y94800000D01*
X92300000Y94300000D01*
X93000000Y93800000D01*
X93600000Y93200000D01*
X94100000Y92600000D01*
X94500000Y92000000D01*
X94900000Y91300000D01*
X95300000Y90400000D01*
X95500000Y89800000D01*
X95700000Y88900000D01*
X95800000Y88500000D01*
X91600000Y88500000D01*
X91400000Y89100000D01*
X91100000Y89700000D01*
X90600000Y90400000D01*
X90000000Y90900000D01*
X89600000Y91200000D01*
X89200000Y91400000D01*
X88700000Y91600000D01*
X88200000Y91700000D01*
X87000000Y91700000D01*
G36*
X79200000Y87500000D02*
G01*
X79200000Y87900000D01*
X79300000Y88900000D01*
X79600000Y90100000D01*
X80000000Y91100000D01*
X80300000Y91700000D01*
X80800000Y92400000D01*
X81400000Y93200000D01*
X82300000Y94000000D01*
X83000000Y94500000D01*
X83700000Y94900000D01*
X84600000Y95300000D01*
X85500000Y95600000D01*
X86100000Y95700000D01*
X87000000Y95800000D01*
X87000000Y91700000D01*
X86400000Y91600000D01*
X85800000Y91400000D01*
X85300000Y91100000D01*
X84700000Y90700000D01*
X84100000Y90000000D01*
X83600000Y89200000D01*
X83400000Y88500000D01*
X83300000Y87500000D01*
X79200000Y87500000D01*
G37*
X79200000Y87500000D02*
X79200000Y87900000D01*
X79300000Y88900000D01*
X79600000Y90100000D01*
X80000000Y91100000D01*
X80300000Y91700000D01*
X80800000Y92400000D01*
X81400000Y93200000D01*
X82300000Y94000000D01*
X83000000Y94500000D01*
X83700000Y94900000D01*
X84600000Y95300000D01*
X85500000Y95600000D01*
X86100000Y95700000D01*
X87000000Y95800000D01*
X87000000Y91700000D01*
X86400000Y91600000D01*
X85800000Y91400000D01*
X85300000Y91100000D01*
X84700000Y90700000D01*
X84100000Y90000000D01*
X83600000Y89200000D01*
X83400000Y88500000D01*
X83300000Y87500000D01*
X79200000Y87500000D01*
G36*
X90200000Y79600000D02*
G01*
X90700000Y79800000D01*
X91500000Y80200000D01*
X92300000Y80700000D01*
X92900000Y81200000D01*
X93300000Y81500000D01*
X93800000Y82100000D01*
X94500000Y83000000D01*
X94800000Y83500000D01*
X95100000Y84100000D01*
X95300000Y84600000D01*
X95500000Y85200000D01*
X95600000Y85600000D01*
X95700000Y86200000D01*
X95800000Y88100000D01*
X95800000Y88500000D01*
X91600000Y88500000D01*
X91700000Y88200000D01*
X91700000Y87800000D01*
X91700000Y86900000D01*
X91600000Y86400000D01*
X91400000Y85800000D01*
X91100000Y85300000D01*
X90800000Y84800000D01*
X90200000Y84200000D01*
X90200000Y79600000D01*
G37*
X90200000Y79600000D02*
X90700000Y79800000D01*
X91500000Y80200000D01*
X92300000Y80700000D01*
X92900000Y81200000D01*
X93300000Y81500000D01*
X93800000Y82100000D01*
X94500000Y83000000D01*
X94800000Y83500000D01*
X95100000Y84100000D01*
X95300000Y84600000D01*
X95500000Y85200000D01*
X95600000Y85600000D01*
X95700000Y86200000D01*
X95800000Y88100000D01*
X95800000Y88500000D01*
X91600000Y88500000D01*
X91700000Y88200000D01*
X91700000Y87800000D01*
X91700000Y86900000D01*
X91600000Y86400000D01*
X91400000Y85800000D01*
X91100000Y85300000D01*
X90800000Y84800000D01*
X90200000Y84200000D01*
X90200000Y79600000D01*
G36*
X79200000Y87500000D02*
G01*
X83300000Y87500000D01*
X83300000Y87000000D01*
X83600000Y85800000D01*
X84300000Y84700000D01*
X85100000Y84000000D01*
X85800000Y83600000D01*
X86900000Y83300000D01*
X88000000Y83300000D01*
X89200000Y83600000D01*
X90200000Y84200000D01*
X90200000Y79600000D01*
X88400000Y79200000D01*
X87000000Y79200000D01*
X85500000Y79400000D01*
X84300000Y79800000D01*
X83400000Y80200000D01*
X82500000Y80800000D01*
X81300000Y81900000D01*
X80500000Y83000000D01*
X80000000Y83800000D01*
X79400000Y85400000D01*
X79200000Y86800000D01*
X79200000Y87500000D01*
G37*
X79200000Y87500000D02*
X83300000Y87500000D01*
X83300000Y87000000D01*
X83600000Y85800000D01*
X84300000Y84700000D01*
X85100000Y84000000D01*
X85800000Y83600000D01*
X86900000Y83300000D01*
X88000000Y83300000D01*
X89200000Y83600000D01*
X90200000Y84200000D01*
X90200000Y79600000D01*
X88400000Y79200000D01*
X87000000Y79200000D01*
X85500000Y79400000D01*
X84300000Y79800000D01*
X83400000Y80200000D01*
X82500000Y80800000D01*
X81300000Y81900000D01*
X80500000Y83000000D01*
X80000000Y83800000D01*
X79400000Y85400000D01*
X79200000Y86800000D01*
X79200000Y87500000D01*
G36*
X62000000Y91700000D02*
G01*
X62000000Y95800000D01*
X62800000Y95800000D01*
X64000000Y95700000D01*
X65000000Y95400000D01*
X65800000Y95100000D01*
X66500000Y94800000D01*
X67300000Y94300000D01*
X68000000Y93800000D01*
X68600000Y93200000D01*
X69100000Y92600000D01*
X69500000Y92000000D01*
X69900000Y91300000D01*
X70300000Y90400000D01*
X70500000Y89800000D01*
X70700000Y88900000D01*
X70800000Y88500000D01*
X66600000Y88500000D01*
X66400000Y89100000D01*
X66100000Y89700000D01*
X65600000Y90400000D01*
X65000000Y90900000D01*
X64600000Y91200000D01*
X64200000Y91400000D01*
X63700000Y91600000D01*
X63200000Y91700000D01*
X62000000Y91700000D01*
G37*
X62000000Y91700000D02*
X62000000Y95800000D01*
X62800000Y95800000D01*
X64000000Y95700000D01*
X65000000Y95400000D01*
X65800000Y95100000D01*
X66500000Y94800000D01*
X67300000Y94300000D01*
X68000000Y93800000D01*
X68600000Y93200000D01*
X69100000Y92600000D01*
X69500000Y92000000D01*
X69900000Y91300000D01*
X70300000Y90400000D01*
X70500000Y89800000D01*
X70700000Y88900000D01*
X70800000Y88500000D01*
X66600000Y88500000D01*
X66400000Y89100000D01*
X66100000Y89700000D01*
X65600000Y90400000D01*
X65000000Y90900000D01*
X64600000Y91200000D01*
X64200000Y91400000D01*
X63700000Y91600000D01*
X63200000Y91700000D01*
X62000000Y91700000D01*
G36*
X54200000Y87500000D02*
G01*
X54200000Y87900000D01*
X54300000Y88900000D01*
X54600000Y90100000D01*
X55000000Y91100000D01*
X55300000Y91700000D01*
X55800000Y92400000D01*
X56400000Y93200000D01*
X57300000Y94000000D01*
X58000000Y94500000D01*
X58700000Y94900000D01*
X59600000Y95300000D01*
X60500000Y95600000D01*
X61100000Y95700000D01*
X62000000Y95800000D01*
X62000000Y91700000D01*
X61400000Y91600000D01*
X60800000Y91400000D01*
X60300000Y91100000D01*
X59700000Y90700000D01*
X59100000Y90000000D01*
X58600000Y89200000D01*
X58400000Y88500000D01*
X58300000Y87500000D01*
X54200000Y87500000D01*
G37*
X54200000Y87500000D02*
X54200000Y87900000D01*
X54300000Y88900000D01*
X54600000Y90100000D01*
X55000000Y91100000D01*
X55300000Y91700000D01*
X55800000Y92400000D01*
X56400000Y93200000D01*
X57300000Y94000000D01*
X58000000Y94500000D01*
X58700000Y94900000D01*
X59600000Y95300000D01*
X60500000Y95600000D01*
X61100000Y95700000D01*
X62000000Y95800000D01*
X62000000Y91700000D01*
X61400000Y91600000D01*
X60800000Y91400000D01*
X60300000Y91100000D01*
X59700000Y90700000D01*
X59100000Y90000000D01*
X58600000Y89200000D01*
X58400000Y88500000D01*
X58300000Y87500000D01*
X54200000Y87500000D01*
G36*
X65200000Y79600000D02*
G01*
X65700000Y79800000D01*
X66500000Y80200000D01*
X67300000Y80700000D01*
X67900000Y81200000D01*
X68300000Y81500000D01*
X68800000Y82100000D01*
X69500000Y83000000D01*
X69800000Y83500000D01*
X70100000Y84100000D01*
X70300000Y84600000D01*
X70500000Y85200000D01*
X70600000Y85600000D01*
X70700000Y86200000D01*
X70800000Y88100000D01*
X70800000Y88500000D01*
X66600000Y88500000D01*
X66700000Y88200000D01*
X66700000Y87800000D01*
X66700000Y86900000D01*
X66600000Y86400000D01*
X66400000Y85800000D01*
X66100000Y85300000D01*
X65800000Y84800000D01*
X65200000Y84200000D01*
X65200000Y79600000D01*
G37*
X65200000Y79600000D02*
X65700000Y79800000D01*
X66500000Y80200000D01*
X67300000Y80700000D01*
X67900000Y81200000D01*
X68300000Y81500000D01*
X68800000Y82100000D01*
X69500000Y83000000D01*
X69800000Y83500000D01*
X70100000Y84100000D01*
X70300000Y84600000D01*
X70500000Y85200000D01*
X70600000Y85600000D01*
X70700000Y86200000D01*
X70800000Y88100000D01*
X70800000Y88500000D01*
X66600000Y88500000D01*
X66700000Y88200000D01*
X66700000Y87800000D01*
X66700000Y86900000D01*
X66600000Y86400000D01*
X66400000Y85800000D01*
X66100000Y85300000D01*
X65800000Y84800000D01*
X65200000Y84200000D01*
X65200000Y79600000D01*
G36*
X54200000Y87500000D02*
G01*
X58300000Y87500000D01*
X58300000Y87000000D01*
X58600000Y85800000D01*
X59300000Y84700000D01*
X60100000Y84000000D01*
X60800000Y83600000D01*
X61900000Y83300000D01*
X63000000Y83300000D01*
X64200000Y83600000D01*
X65200000Y84200000D01*
X65200000Y79600000D01*
X63400000Y79200000D01*
X62000000Y79200000D01*
X60500000Y79400000D01*
X59300000Y79800000D01*
X58400000Y80200000D01*
X57500000Y80800000D01*
X56300000Y81900000D01*
X55500000Y83000000D01*
X55000000Y83800000D01*
X54400000Y85400000D01*
X54200000Y86800000D01*
X54200000Y87500000D01*
G37*
X54200000Y87500000D02*
X58300000Y87500000D01*
X58300000Y87000000D01*
X58600000Y85800000D01*
X59300000Y84700000D01*
X60100000Y84000000D01*
X60800000Y83600000D01*
X61900000Y83300000D01*
X63000000Y83300000D01*
X64200000Y83600000D01*
X65200000Y84200000D01*
X65200000Y79600000D01*
X63400000Y79200000D01*
X62000000Y79200000D01*
X60500000Y79400000D01*
X59300000Y79800000D01*
X58400000Y80200000D01*
X57500000Y80800000D01*
X56300000Y81900000D01*
X55500000Y83000000D01*
X55000000Y83800000D01*
X54400000Y85400000D01*
X54200000Y86800000D01*
X54200000Y87500000D01*
G36*
X38000000Y66700000D02*
G01*
X38000000Y70800000D01*
X37200000Y70800000D01*
X36000000Y70700000D01*
X35000000Y70400000D01*
X34200000Y70100000D01*
X33500000Y69800000D01*
X32700000Y69300000D01*
X32000000Y68800000D01*
X31400000Y68200000D01*
X30900000Y67600000D01*
X30500000Y67000000D01*
X30100000Y66300000D01*
X29700000Y65400000D01*
X29500000Y64800000D01*
X29300000Y63900000D01*
X29200000Y63500000D01*
X33400000Y63500000D01*
X33600000Y64100000D01*
X33900000Y64700000D01*
X34400000Y65400000D01*
X35000000Y65900000D01*
X35400000Y66200000D01*
X35800000Y66400000D01*
X36300000Y66600000D01*
X36800000Y66700000D01*
X38000000Y66700000D01*
G37*
X38000000Y66700000D02*
X38000000Y70800000D01*
X37200000Y70800000D01*
X36000000Y70700000D01*
X35000000Y70400000D01*
X34200000Y70100000D01*
X33500000Y69800000D01*
X32700000Y69300000D01*
X32000000Y68800000D01*
X31400000Y68200000D01*
X30900000Y67600000D01*
X30500000Y67000000D01*
X30100000Y66300000D01*
X29700000Y65400000D01*
X29500000Y64800000D01*
X29300000Y63900000D01*
X29200000Y63500000D01*
X33400000Y63500000D01*
X33600000Y64100000D01*
X33900000Y64700000D01*
X34400000Y65400000D01*
X35000000Y65900000D01*
X35400000Y66200000D01*
X35800000Y66400000D01*
X36300000Y66600000D01*
X36800000Y66700000D01*
X38000000Y66700000D01*
G36*
X45800000Y62500000D02*
G01*
X45800000Y62900000D01*
X45700000Y63900000D01*
X45400000Y65100000D01*
X45000000Y66100000D01*
X44700000Y66700000D01*
X44200000Y67400000D01*
X43600000Y68200000D01*
X42700000Y69000000D01*
X42000000Y69500000D01*
X41300000Y69900000D01*
X40400000Y70300000D01*
X39500000Y70600000D01*
X38900000Y70700000D01*
X38000000Y70800000D01*
X38000000Y66700000D01*
X38600000Y66600000D01*
X39200000Y66400000D01*
X39700000Y66100000D01*
X40300000Y65700000D01*
X40900000Y65000000D01*
X41400000Y64200000D01*
X41600000Y63500000D01*
X41700000Y62500000D01*
X45800000Y62500000D01*
G37*
X45800000Y62500000D02*
X45800000Y62900000D01*
X45700000Y63900000D01*
X45400000Y65100000D01*
X45000000Y66100000D01*
X44700000Y66700000D01*
X44200000Y67400000D01*
X43600000Y68200000D01*
X42700000Y69000000D01*
X42000000Y69500000D01*
X41300000Y69900000D01*
X40400000Y70300000D01*
X39500000Y70600000D01*
X38900000Y70700000D01*
X38000000Y70800000D01*
X38000000Y66700000D01*
X38600000Y66600000D01*
X39200000Y66400000D01*
X39700000Y66100000D01*
X40300000Y65700000D01*
X40900000Y65000000D01*
X41400000Y64200000D01*
X41600000Y63500000D01*
X41700000Y62500000D01*
X45800000Y62500000D01*
G36*
X34800000Y54600000D02*
G01*
X34300000Y54800000D01*
X33500000Y55200000D01*
X32700000Y55700000D01*
X32100000Y56200000D01*
X31700000Y56500000D01*
X31200000Y57100000D01*
X30500000Y58000000D01*
X30200000Y58500000D01*
X29900000Y59100000D01*
X29700000Y59600000D01*
X29500000Y60200000D01*
X29400000Y60600000D01*
X29300000Y61200000D01*
X29200000Y63100000D01*
X29200000Y63500000D01*
X33400000Y63500000D01*
X33300000Y63200000D01*
X33300000Y62800000D01*
X33300000Y61900000D01*
X33400000Y61400000D01*
X33600000Y60800000D01*
X33900000Y60300000D01*
X34200000Y59800000D01*
X34800000Y59200000D01*
X34800000Y54600000D01*
G37*
X34800000Y54600000D02*
X34300000Y54800000D01*
X33500000Y55200000D01*
X32700000Y55700000D01*
X32100000Y56200000D01*
X31700000Y56500000D01*
X31200000Y57100000D01*
X30500000Y58000000D01*
X30200000Y58500000D01*
X29900000Y59100000D01*
X29700000Y59600000D01*
X29500000Y60200000D01*
X29400000Y60600000D01*
X29300000Y61200000D01*
X29200000Y63100000D01*
X29200000Y63500000D01*
X33400000Y63500000D01*
X33300000Y63200000D01*
X33300000Y62800000D01*
X33300000Y61900000D01*
X33400000Y61400000D01*
X33600000Y60800000D01*
X33900000Y60300000D01*
X34200000Y59800000D01*
X34800000Y59200000D01*
X34800000Y54600000D01*
G36*
X45800000Y62500000D02*
G01*
X41700000Y62500000D01*
X41700000Y62000000D01*
X41400000Y60800000D01*
X40700000Y59700000D01*
X39900000Y59000000D01*
X39200000Y58600000D01*
X38100000Y58300000D01*
X37000000Y58300000D01*
X35800000Y58600000D01*
X34800000Y59200000D01*
X34800000Y54600000D01*
X36600000Y54200000D01*
X38000000Y54200000D01*
X39500000Y54400000D01*
X40700000Y54800000D01*
X41600000Y55200000D01*
X42500000Y55800000D01*
X43700000Y56900000D01*
X44500000Y58000000D01*
X45000000Y58800000D01*
X45600000Y60400000D01*
X45800000Y61800000D01*
X45800000Y62500000D01*
G37*
X45800000Y62500000D02*
X41700000Y62500000D01*
X41700000Y62000000D01*
X41400000Y60800000D01*
X40700000Y59700000D01*
X39900000Y59000000D01*
X39200000Y58600000D01*
X38100000Y58300000D01*
X37000000Y58300000D01*
X35800000Y58600000D01*
X34800000Y59200000D01*
X34800000Y54600000D01*
X36600000Y54200000D01*
X38000000Y54200000D01*
X39500000Y54400000D01*
X40700000Y54800000D01*
X41600000Y55200000D01*
X42500000Y55800000D01*
X43700000Y56900000D01*
X44500000Y58000000D01*
X45000000Y58800000D01*
X45600000Y60400000D01*
X45800000Y61800000D01*
X45800000Y62500000D01*
G36*
X88000000Y16700000D02*
G01*
X88000000Y20800000D01*
X87200000Y20800000D01*
X86000000Y20700000D01*
X85000000Y20400000D01*
X84200000Y20100000D01*
X83500000Y19800000D01*
X82700000Y19300000D01*
X82000000Y18800000D01*
X81400000Y18200000D01*
X80900000Y17600000D01*
X80500000Y17000000D01*
X80100000Y16300000D01*
X79700000Y15400000D01*
X79500000Y14800000D01*
X79300000Y13900000D01*
X79200000Y13500000D01*
X83400000Y13500000D01*
X83600000Y14100000D01*
X83900000Y14700000D01*
X84400000Y15400000D01*
X85000000Y15900000D01*
X85400000Y16200000D01*
X85800000Y16400000D01*
X86300000Y16600000D01*
X86800000Y16700000D01*
X88000000Y16700000D01*
G37*
X88000000Y16700000D02*
X88000000Y20800000D01*
X87200000Y20800000D01*
X86000000Y20700000D01*
X85000000Y20400000D01*
X84200000Y20100000D01*
X83500000Y19800000D01*
X82700000Y19300000D01*
X82000000Y18800000D01*
X81400000Y18200000D01*
X80900000Y17600000D01*
X80500000Y17000000D01*
X80100000Y16300000D01*
X79700000Y15400000D01*
X79500000Y14800000D01*
X79300000Y13900000D01*
X79200000Y13500000D01*
X83400000Y13500000D01*
X83600000Y14100000D01*
X83900000Y14700000D01*
X84400000Y15400000D01*
X85000000Y15900000D01*
X85400000Y16200000D01*
X85800000Y16400000D01*
X86300000Y16600000D01*
X86800000Y16700000D01*
X88000000Y16700000D01*
G36*
X95800000Y12500000D02*
G01*
X95800000Y12900000D01*
X95700000Y13900000D01*
X95400000Y15100000D01*
X95000000Y16100000D01*
X94700000Y16700000D01*
X94200000Y17400000D01*
X93600000Y18200000D01*
X92700000Y19000000D01*
X92000000Y19500000D01*
X91300000Y19900000D01*
X90400000Y20300000D01*
X89500000Y20600000D01*
X88900000Y20700000D01*
X88000000Y20800000D01*
X88000000Y16700000D01*
X88600000Y16600000D01*
X89200000Y16400000D01*
X89700000Y16100000D01*
X90300000Y15700000D01*
X90900000Y15000000D01*
X91400000Y14200000D01*
X91600000Y13500000D01*
X91700000Y12500000D01*
X95800000Y12500000D01*
G37*
X95800000Y12500000D02*
X95800000Y12900000D01*
X95700000Y13900000D01*
X95400000Y15100000D01*
X95000000Y16100000D01*
X94700000Y16700000D01*
X94200000Y17400000D01*
X93600000Y18200000D01*
X92700000Y19000000D01*
X92000000Y19500000D01*
X91300000Y19900000D01*
X90400000Y20300000D01*
X89500000Y20600000D01*
X88900000Y20700000D01*
X88000000Y20800000D01*
X88000000Y16700000D01*
X88600000Y16600000D01*
X89200000Y16400000D01*
X89700000Y16100000D01*
X90300000Y15700000D01*
X90900000Y15000000D01*
X91400000Y14200000D01*
X91600000Y13500000D01*
X91700000Y12500000D01*
X95800000Y12500000D01*
G36*
X84800000Y4600000D02*
G01*
X84300000Y4800000D01*
X83500000Y5200000D01*
X82700000Y5700000D01*
X82100000Y6200000D01*
X81700000Y6500000D01*
X81200000Y7100000D01*
X80500000Y8000000D01*
X80200000Y8500000D01*
X79900000Y9100000D01*
X79700000Y9600000D01*
X79500000Y10200000D01*
X79400000Y10600000D01*
X79300000Y11200000D01*
X79200000Y13100000D01*
X79200000Y13500000D01*
X83400000Y13500000D01*
X83300000Y13200000D01*
X83300000Y12800000D01*
X83300000Y11900000D01*
X83400000Y11400000D01*
X83600000Y10800000D01*
X83900000Y10300000D01*
X84200000Y9800000D01*
X84800000Y9200000D01*
X84800000Y4600000D01*
G37*
X84800000Y4600000D02*
X84300000Y4800000D01*
X83500000Y5200000D01*
X82700000Y5700000D01*
X82100000Y6200000D01*
X81700000Y6500000D01*
X81200000Y7100000D01*
X80500000Y8000000D01*
X80200000Y8500000D01*
X79900000Y9100000D01*
X79700000Y9600000D01*
X79500000Y10200000D01*
X79400000Y10600000D01*
X79300000Y11200000D01*
X79200000Y13100000D01*
X79200000Y13500000D01*
X83400000Y13500000D01*
X83300000Y13200000D01*
X83300000Y12800000D01*
X83300000Y11900000D01*
X83400000Y11400000D01*
X83600000Y10800000D01*
X83900000Y10300000D01*
X84200000Y9800000D01*
X84800000Y9200000D01*
X84800000Y4600000D01*
G36*
X95800000Y12500000D02*
G01*
X91700000Y12500000D01*
X91700000Y12000000D01*
X91400000Y10800000D01*
X90700000Y9700000D01*
X89900000Y9000000D01*
X89200000Y8600000D01*
X88100000Y8300000D01*
X87000000Y8300000D01*
X85800000Y8600000D01*
X84800000Y9200000D01*
X84800000Y4600000D01*
X86600000Y4200000D01*
X88000000Y4200000D01*
X89500000Y4400000D01*
X90700000Y4800000D01*
X91600000Y5200000D01*
X92500000Y5800000D01*
X93700000Y6900000D01*
X94500000Y8000000D01*
X95000000Y8800000D01*
X95600000Y10400000D01*
X95800000Y11800000D01*
X95800000Y12500000D01*
G37*
X95800000Y12500000D02*
X91700000Y12500000D01*
X91700000Y12000000D01*
X91400000Y10800000D01*
X90700000Y9700000D01*
X89900000Y9000000D01*
X89200000Y8600000D01*
X88100000Y8300000D01*
X87000000Y8300000D01*
X85800000Y8600000D01*
X84800000Y9200000D01*
X84800000Y4600000D01*
X86600000Y4200000D01*
X88000000Y4200000D01*
X89500000Y4400000D01*
X90700000Y4800000D01*
X91600000Y5200000D01*
X92500000Y5800000D01*
X93700000Y6900000D01*
X94500000Y8000000D01*
X95000000Y8800000D01*
X95600000Y10400000D01*
X95800000Y11800000D01*
X95800000Y12500000D01*
G36*
X38000000Y16700000D02*
G01*
X38000000Y20800000D01*
X37200000Y20800000D01*
X36000000Y20700000D01*
X35000000Y20400000D01*
X34200000Y20100000D01*
X33500000Y19800000D01*
X32700000Y19300000D01*
X32000000Y18800000D01*
X31400000Y18200000D01*
X30900000Y17600000D01*
X30500000Y17000000D01*
X30100000Y16300000D01*
X29700000Y15400000D01*
X29500000Y14800000D01*
X29300000Y13900000D01*
X29200000Y13500000D01*
X33400000Y13500000D01*
X33600000Y14100000D01*
X33900000Y14700000D01*
X34400000Y15400000D01*
X35000000Y15900000D01*
X35400000Y16200000D01*
X35800000Y16400000D01*
X36300000Y16600000D01*
X36800000Y16700000D01*
X38000000Y16700000D01*
G37*
X38000000Y16700000D02*
X38000000Y20800000D01*
X37200000Y20800000D01*
X36000000Y20700000D01*
X35000000Y20400000D01*
X34200000Y20100000D01*
X33500000Y19800000D01*
X32700000Y19300000D01*
X32000000Y18800000D01*
X31400000Y18200000D01*
X30900000Y17600000D01*
X30500000Y17000000D01*
X30100000Y16300000D01*
X29700000Y15400000D01*
X29500000Y14800000D01*
X29300000Y13900000D01*
X29200000Y13500000D01*
X33400000Y13500000D01*
X33600000Y14100000D01*
X33900000Y14700000D01*
X34400000Y15400000D01*
X35000000Y15900000D01*
X35400000Y16200000D01*
X35800000Y16400000D01*
X36300000Y16600000D01*
X36800000Y16700000D01*
X38000000Y16700000D01*
G36*
X45800000Y12500000D02*
G01*
X45800000Y12900000D01*
X45700000Y13900000D01*
X45400000Y15100000D01*
X45000000Y16100000D01*
X44700000Y16700000D01*
X44200000Y17400000D01*
X43600000Y18200000D01*
X42700000Y19000000D01*
X42000000Y19500000D01*
X41300000Y19900000D01*
X40400000Y20300000D01*
X39500000Y20600000D01*
X38900000Y20700000D01*
X38000000Y20800000D01*
X38000000Y16700000D01*
X38600000Y16600000D01*
X39200000Y16400000D01*
X39700000Y16100000D01*
X40300000Y15700000D01*
X40900000Y15000000D01*
X41400000Y14200000D01*
X41600000Y13500000D01*
X41700000Y12500000D01*
X45800000Y12500000D01*
G37*
X45800000Y12500000D02*
X45800000Y12900000D01*
X45700000Y13900000D01*
X45400000Y15100000D01*
X45000000Y16100000D01*
X44700000Y16700000D01*
X44200000Y17400000D01*
X43600000Y18200000D01*
X42700000Y19000000D01*
X42000000Y19500000D01*
X41300000Y19900000D01*
X40400000Y20300000D01*
X39500000Y20600000D01*
X38900000Y20700000D01*
X38000000Y20800000D01*
X38000000Y16700000D01*
X38600000Y16600000D01*
X39200000Y16400000D01*
X39700000Y16100000D01*
X40300000Y15700000D01*
X40900000Y15000000D01*
X41400000Y14200000D01*
X41600000Y13500000D01*
X41700000Y12500000D01*
X45800000Y12500000D01*
G36*
X34800000Y4600000D02*
G01*
X34300000Y4800000D01*
X33500000Y5200000D01*
X32700000Y5700000D01*
X32100000Y6200000D01*
X31700000Y6500000D01*
X31200000Y7100000D01*
X30500000Y8000000D01*
X30200000Y8500000D01*
X29900000Y9100000D01*
X29700000Y9600000D01*
X29500000Y10200000D01*
X29400000Y10600000D01*
X29300000Y11200000D01*
X29200000Y13100000D01*
X29200000Y13500000D01*
X33400000Y13500000D01*
X33300000Y13200000D01*
X33300000Y12800000D01*
X33300000Y11900000D01*
X33400000Y11400000D01*
X33600000Y10800000D01*
X33900000Y10300000D01*
X34200000Y9800000D01*
X34800000Y9200000D01*
X34800000Y4600000D01*
G37*
X34800000Y4600000D02*
X34300000Y4800000D01*
X33500000Y5200000D01*
X32700000Y5700000D01*
X32100000Y6200000D01*
X31700000Y6500000D01*
X31200000Y7100000D01*
X30500000Y8000000D01*
X30200000Y8500000D01*
X29900000Y9100000D01*
X29700000Y9600000D01*
X29500000Y10200000D01*
X29400000Y10600000D01*
X29300000Y11200000D01*
X29200000Y13100000D01*
X29200000Y13500000D01*
X33400000Y13500000D01*
X33300000Y13200000D01*
X33300000Y12800000D01*
X33300000Y11900000D01*
X33400000Y11400000D01*
X33600000Y10800000D01*
X33900000Y10300000D01*
X34200000Y9800000D01*
X34800000Y9200000D01*
X34800000Y4600000D01*
G36*
X45800000Y12500000D02*
G01*
X41700000Y12500000D01*
X41700000Y12000000D01*
X41400000Y10800000D01*
X40700000Y9700000D01*
X39900000Y9000000D01*
X39200000Y8600000D01*
X38100000Y8300000D01*
X37000000Y8300000D01*
X35800000Y8600000D01*
X34800000Y9200000D01*
X34800000Y4600000D01*
X36600000Y4200000D01*
X38000000Y4200000D01*
X39500000Y4400000D01*
X40700000Y4800000D01*
X41600000Y5200000D01*
X42500000Y5800000D01*
X43700000Y6900000D01*
X44500000Y8000000D01*
X45000000Y8800000D01*
X45600000Y10400000D01*
X45800000Y11800000D01*
X45800000Y12500000D01*
G37*
X45800000Y12500000D02*
X41700000Y12500000D01*
X41700000Y12000000D01*
X41400000Y10800000D01*
X40700000Y9700000D01*
X39900000Y9000000D01*
X39200000Y8600000D01*
X38100000Y8300000D01*
X37000000Y8300000D01*
X35800000Y8600000D01*
X34800000Y9200000D01*
X34800000Y4600000D01*
X36600000Y4200000D01*
X38000000Y4200000D01*
X39500000Y4400000D01*
X40700000Y4800000D01*
X41600000Y5200000D01*
X42500000Y5800000D01*
X43700000Y6900000D01*
X44500000Y8000000D01*
X45000000Y8800000D01*
X45600000Y10400000D01*
X45800000Y11800000D01*
X45800000Y12500000D01*
G36*
X88000000Y41700000D02*
G01*
X88000000Y45800000D01*
X87200000Y45800000D01*
X86000000Y45700000D01*
X85000000Y45400000D01*
X84200000Y45100000D01*
X83500000Y44800000D01*
X82700000Y44300000D01*
X82000000Y43800000D01*
X81400000Y43200000D01*
X80900000Y42600000D01*
X80500000Y42000000D01*
X80100000Y41300000D01*
X79700000Y40400000D01*
X79500000Y39800000D01*
X79300000Y38900000D01*
X79200000Y38500000D01*
X83400000Y38500000D01*
X83600000Y39100000D01*
X83900000Y39700000D01*
X84400000Y40400000D01*
X85000000Y40900000D01*
X85400000Y41200000D01*
X85800000Y41400000D01*
X86300000Y41600000D01*
X86800000Y41700000D01*
X88000000Y41700000D01*
G37*
X88000000Y41700000D02*
X88000000Y45800000D01*
X87200000Y45800000D01*
X86000000Y45700000D01*
X85000000Y45400000D01*
X84200000Y45100000D01*
X83500000Y44800000D01*
X82700000Y44300000D01*
X82000000Y43800000D01*
X81400000Y43200000D01*
X80900000Y42600000D01*
X80500000Y42000000D01*
X80100000Y41300000D01*
X79700000Y40400000D01*
X79500000Y39800000D01*
X79300000Y38900000D01*
X79200000Y38500000D01*
X83400000Y38500000D01*
X83600000Y39100000D01*
X83900000Y39700000D01*
X84400000Y40400000D01*
X85000000Y40900000D01*
X85400000Y41200000D01*
X85800000Y41400000D01*
X86300000Y41600000D01*
X86800000Y41700000D01*
X88000000Y41700000D01*
G36*
X95800000Y37500000D02*
G01*
X95800000Y37900000D01*
X95700000Y38900000D01*
X95400000Y40100000D01*
X95000000Y41100000D01*
X94700000Y41700000D01*
X94200000Y42400000D01*
X93600000Y43200000D01*
X92700000Y44000000D01*
X92000000Y44500000D01*
X91300000Y44900000D01*
X90400000Y45300000D01*
X89500000Y45600000D01*
X88900000Y45700000D01*
X88000000Y45800000D01*
X88000000Y41700000D01*
X88600000Y41600000D01*
X89200000Y41400000D01*
X89700000Y41100000D01*
X90300000Y40700000D01*
X90900000Y40000000D01*
X91400000Y39200000D01*
X91600000Y38500000D01*
X91700000Y37500000D01*
X95800000Y37500000D01*
G37*
X95800000Y37500000D02*
X95800000Y37900000D01*
X95700000Y38900000D01*
X95400000Y40100000D01*
X95000000Y41100000D01*
X94700000Y41700000D01*
X94200000Y42400000D01*
X93600000Y43200000D01*
X92700000Y44000000D01*
X92000000Y44500000D01*
X91300000Y44900000D01*
X90400000Y45300000D01*
X89500000Y45600000D01*
X88900000Y45700000D01*
X88000000Y45800000D01*
X88000000Y41700000D01*
X88600000Y41600000D01*
X89200000Y41400000D01*
X89700000Y41100000D01*
X90300000Y40700000D01*
X90900000Y40000000D01*
X91400000Y39200000D01*
X91600000Y38500000D01*
X91700000Y37500000D01*
X95800000Y37500000D01*
G36*
X84800000Y29600000D02*
G01*
X84300000Y29800000D01*
X83500000Y30200000D01*
X82700000Y30700000D01*
X82100000Y31200000D01*
X81700000Y31500000D01*
X81200000Y32100000D01*
X80500000Y33000000D01*
X80200000Y33500000D01*
X79900000Y34100000D01*
X79700000Y34600000D01*
X79500000Y35200000D01*
X79400000Y35600000D01*
X79300000Y36200000D01*
X79200000Y38100000D01*
X79200000Y38500000D01*
X83400000Y38500000D01*
X83300000Y38200000D01*
X83300000Y37800000D01*
X83300000Y36900000D01*
X83400000Y36400000D01*
X83600000Y35800000D01*
X83900000Y35300000D01*
X84200000Y34800000D01*
X84800000Y34200000D01*
X84800000Y29600000D01*
G37*
X84800000Y29600000D02*
X84300000Y29800000D01*
X83500000Y30200000D01*
X82700000Y30700000D01*
X82100000Y31200000D01*
X81700000Y31500000D01*
X81200000Y32100000D01*
X80500000Y33000000D01*
X80200000Y33500000D01*
X79900000Y34100000D01*
X79700000Y34600000D01*
X79500000Y35200000D01*
X79400000Y35600000D01*
X79300000Y36200000D01*
X79200000Y38100000D01*
X79200000Y38500000D01*
X83400000Y38500000D01*
X83300000Y38200000D01*
X83300000Y37800000D01*
X83300000Y36900000D01*
X83400000Y36400000D01*
X83600000Y35800000D01*
X83900000Y35300000D01*
X84200000Y34800000D01*
X84800000Y34200000D01*
X84800000Y29600000D01*
G36*
X95800000Y37500000D02*
G01*
X91700000Y37500000D01*
X91700000Y37000000D01*
X91400000Y35800000D01*
X90700000Y34700000D01*
X89900000Y34000000D01*
X89200000Y33600000D01*
X88100000Y33300000D01*
X87000000Y33300000D01*
X85800000Y33600000D01*
X84800000Y34200000D01*
X84800000Y29600000D01*
X86600000Y29200000D01*
X88000000Y29200000D01*
X89500000Y29400000D01*
X90700000Y29800000D01*
X91600000Y30200000D01*
X92500000Y30800000D01*
X93700000Y31900000D01*
X94500000Y33000000D01*
X95000000Y33800000D01*
X95600000Y35400000D01*
X95800000Y36800000D01*
X95800000Y37500000D01*
G37*
X95800000Y37500000D02*
X91700000Y37500000D01*
X91700000Y37000000D01*
X91400000Y35800000D01*
X90700000Y34700000D01*
X89900000Y34000000D01*
X89200000Y33600000D01*
X88100000Y33300000D01*
X87000000Y33300000D01*
X85800000Y33600000D01*
X84800000Y34200000D01*
X84800000Y29600000D01*
X86600000Y29200000D01*
X88000000Y29200000D01*
X89500000Y29400000D01*
X90700000Y29800000D01*
X91600000Y30200000D01*
X92500000Y30800000D01*
X93700000Y31900000D01*
X94500000Y33000000D01*
X95000000Y33800000D01*
X95600000Y35400000D01*
X95800000Y36800000D01*
X95800000Y37500000D01*
G36*
X38000000Y41700000D02*
G01*
X38000000Y45800000D01*
X37200000Y45800000D01*
X36000000Y45700000D01*
X35000000Y45400000D01*
X34200000Y45100000D01*
X33500000Y44800000D01*
X32700000Y44300000D01*
X32000000Y43800000D01*
X31400000Y43200000D01*
X30900000Y42600000D01*
X30500000Y42000000D01*
X30100000Y41300000D01*
X29700000Y40400000D01*
X29500000Y39800000D01*
X29300000Y38900000D01*
X29200000Y38500000D01*
X33400000Y38500000D01*
X33600000Y39100000D01*
X33900000Y39700000D01*
X34400000Y40400000D01*
X35000000Y40900000D01*
X35400000Y41200000D01*
X35800000Y41400000D01*
X36300000Y41600000D01*
X36800000Y41700000D01*
X38000000Y41700000D01*
G37*
X38000000Y41700000D02*
X38000000Y45800000D01*
X37200000Y45800000D01*
X36000000Y45700000D01*
X35000000Y45400000D01*
X34200000Y45100000D01*
X33500000Y44800000D01*
X32700000Y44300000D01*
X32000000Y43800000D01*
X31400000Y43200000D01*
X30900000Y42600000D01*
X30500000Y42000000D01*
X30100000Y41300000D01*
X29700000Y40400000D01*
X29500000Y39800000D01*
X29300000Y38900000D01*
X29200000Y38500000D01*
X33400000Y38500000D01*
X33600000Y39100000D01*
X33900000Y39700000D01*
X34400000Y40400000D01*
X35000000Y40900000D01*
X35400000Y41200000D01*
X35800000Y41400000D01*
X36300000Y41600000D01*
X36800000Y41700000D01*
X38000000Y41700000D01*
G36*
X45800000Y37500000D02*
G01*
X45800000Y37900000D01*
X45700000Y38900000D01*
X45400000Y40100000D01*
X45000000Y41100000D01*
X44700000Y41700000D01*
X44200000Y42400000D01*
X43600000Y43200000D01*
X42700000Y44000000D01*
X42000000Y44500000D01*
X41300000Y44900000D01*
X40400000Y45300000D01*
X39500000Y45600000D01*
X38900000Y45700000D01*
X38000000Y45800000D01*
X38000000Y41700000D01*
X38600000Y41600000D01*
X39200000Y41400000D01*
X39700000Y41100000D01*
X40300000Y40700000D01*
X40900000Y40000000D01*
X41400000Y39200000D01*
X41600000Y38500000D01*
X41700000Y37500000D01*
X45800000Y37500000D01*
G37*
X45800000Y37500000D02*
X45800000Y37900000D01*
X45700000Y38900000D01*
X45400000Y40100000D01*
X45000000Y41100000D01*
X44700000Y41700000D01*
X44200000Y42400000D01*
X43600000Y43200000D01*
X42700000Y44000000D01*
X42000000Y44500000D01*
X41300000Y44900000D01*
X40400000Y45300000D01*
X39500000Y45600000D01*
X38900000Y45700000D01*
X38000000Y45800000D01*
X38000000Y41700000D01*
X38600000Y41600000D01*
X39200000Y41400000D01*
X39700000Y41100000D01*
X40300000Y40700000D01*
X40900000Y40000000D01*
X41400000Y39200000D01*
X41600000Y38500000D01*
X41700000Y37500000D01*
X45800000Y37500000D01*
G36*
X34800000Y29600000D02*
G01*
X34300000Y29800000D01*
X33500000Y30200000D01*
X32700000Y30700000D01*
X32100000Y31200000D01*
X31700000Y31500000D01*
X31200000Y32100000D01*
X30500000Y33000000D01*
X30200000Y33500000D01*
X29900000Y34100000D01*
X29700000Y34600000D01*
X29500000Y35200000D01*
X29400000Y35600000D01*
X29300000Y36200000D01*
X29200000Y38100000D01*
X29200000Y38500000D01*
X33400000Y38500000D01*
X33300000Y38200000D01*
X33300000Y37800000D01*
X33300000Y36900000D01*
X33400000Y36400000D01*
X33600000Y35800000D01*
X33900000Y35300000D01*
X34200000Y34800000D01*
X34800000Y34200000D01*
X34800000Y29600000D01*
G37*
X34800000Y29600000D02*
X34300000Y29800000D01*
X33500000Y30200000D01*
X32700000Y30700000D01*
X32100000Y31200000D01*
X31700000Y31500000D01*
X31200000Y32100000D01*
X30500000Y33000000D01*
X30200000Y33500000D01*
X29900000Y34100000D01*
X29700000Y34600000D01*
X29500000Y35200000D01*
X29400000Y35600000D01*
X29300000Y36200000D01*
X29200000Y38100000D01*
X29200000Y38500000D01*
X33400000Y38500000D01*
X33300000Y38200000D01*
X33300000Y37800000D01*
X33300000Y36900000D01*
X33400000Y36400000D01*
X33600000Y35800000D01*
X33900000Y35300000D01*
X34200000Y34800000D01*
X34800000Y34200000D01*
X34800000Y29600000D01*
G36*
X45800000Y37500000D02*
G01*
X41700000Y37500000D01*
X41700000Y37000000D01*
X41400000Y35800000D01*
X40700000Y34700000D01*
X39900000Y34000000D01*
X39200000Y33600000D01*
X38100000Y33300000D01*
X37000000Y33300000D01*
X35800000Y33600000D01*
X34800000Y34200000D01*
X34800000Y29600000D01*
X36600000Y29200000D01*
X38000000Y29200000D01*
X39500000Y29400000D01*
X40700000Y29800000D01*
X41600000Y30200000D01*
X42500000Y30800000D01*
X43700000Y31900000D01*
X44500000Y33000000D01*
X45000000Y33800000D01*
X45600000Y35400000D01*
X45800000Y36800000D01*
X45800000Y37500000D01*
G37*
X45800000Y37500000D02*
X41700000Y37500000D01*
X41700000Y37000000D01*
X41400000Y35800000D01*
X40700000Y34700000D01*
X39900000Y34000000D01*
X39200000Y33600000D01*
X38100000Y33300000D01*
X37000000Y33300000D01*
X35800000Y33600000D01*
X34800000Y34200000D01*
X34800000Y29600000D01*
X36600000Y29200000D01*
X38000000Y29200000D01*
X39500000Y29400000D01*
X40700000Y29800000D01*
X41600000Y30200000D01*
X42500000Y30800000D01*
X43700000Y31900000D01*
X44500000Y33000000D01*
X45000000Y33800000D01*
X45600000Y35400000D01*
X45800000Y36800000D01*
X45800000Y37500000D01*
G36*
X88000000Y66700000D02*
G01*
X88000000Y70800000D01*
X87200000Y70800000D01*
X86000000Y70700000D01*
X85000000Y70400000D01*
X84200000Y70100000D01*
X83500000Y69800000D01*
X82700000Y69300000D01*
X82000000Y68800000D01*
X81400000Y68200000D01*
X80900000Y67600000D01*
X80500000Y67000000D01*
X80100000Y66300000D01*
X79700000Y65400000D01*
X79500000Y64800000D01*
X79300000Y63900000D01*
X79200000Y63500000D01*
X83400000Y63500000D01*
X83600000Y64100000D01*
X83900000Y64700000D01*
X84400000Y65400000D01*
X85000000Y65900000D01*
X85400000Y66200000D01*
X85800000Y66400000D01*
X86300000Y66600000D01*
X86800000Y66700000D01*
X88000000Y66700000D01*
G37*
X88000000Y66700000D02*
X88000000Y70800000D01*
X87200000Y70800000D01*
X86000000Y70700000D01*
X85000000Y70400000D01*
X84200000Y70100000D01*
X83500000Y69800000D01*
X82700000Y69300000D01*
X82000000Y68800000D01*
X81400000Y68200000D01*
X80900000Y67600000D01*
X80500000Y67000000D01*
X80100000Y66300000D01*
X79700000Y65400000D01*
X79500000Y64800000D01*
X79300000Y63900000D01*
X79200000Y63500000D01*
X83400000Y63500000D01*
X83600000Y64100000D01*
X83900000Y64700000D01*
X84400000Y65400000D01*
X85000000Y65900000D01*
X85400000Y66200000D01*
X85800000Y66400000D01*
X86300000Y66600000D01*
X86800000Y66700000D01*
X88000000Y66700000D01*
G36*
X95800000Y62500000D02*
G01*
X95800000Y62900000D01*
X95700000Y63900000D01*
X95400000Y65100000D01*
X95000000Y66100000D01*
X94700000Y66700000D01*
X94200000Y67400000D01*
X93600000Y68200000D01*
X92700000Y69000000D01*
X92000000Y69500000D01*
X91300000Y69900000D01*
X90400000Y70300000D01*
X89500000Y70600000D01*
X88900000Y70700000D01*
X88000000Y70800000D01*
X88000000Y66700000D01*
X88600000Y66600000D01*
X89200000Y66400000D01*
X89700000Y66100000D01*
X90300000Y65700000D01*
X90900000Y65000000D01*
X91400000Y64200000D01*
X91600000Y63500000D01*
X91700000Y62500000D01*
X95800000Y62500000D01*
G37*
X95800000Y62500000D02*
X95800000Y62900000D01*
X95700000Y63900000D01*
X95400000Y65100000D01*
X95000000Y66100000D01*
X94700000Y66700000D01*
X94200000Y67400000D01*
X93600000Y68200000D01*
X92700000Y69000000D01*
X92000000Y69500000D01*
X91300000Y69900000D01*
X90400000Y70300000D01*
X89500000Y70600000D01*
X88900000Y70700000D01*
X88000000Y70800000D01*
X88000000Y66700000D01*
X88600000Y66600000D01*
X89200000Y66400000D01*
X89700000Y66100000D01*
X90300000Y65700000D01*
X90900000Y65000000D01*
X91400000Y64200000D01*
X91600000Y63500000D01*
X91700000Y62500000D01*
X95800000Y62500000D01*
G36*
X84800000Y54600000D02*
G01*
X84300000Y54800000D01*
X83500000Y55200000D01*
X82700000Y55700000D01*
X82100000Y56200000D01*
X81700000Y56500000D01*
X81200000Y57100000D01*
X80500000Y58000000D01*
X80200000Y58500000D01*
X79900000Y59100000D01*
X79700000Y59600000D01*
X79500000Y60200000D01*
X79400000Y60600000D01*
X79300000Y61200000D01*
X79200000Y63100000D01*
X79200000Y63500000D01*
X83400000Y63500000D01*
X83300000Y63200000D01*
X83300000Y62800000D01*
X83300000Y61900000D01*
X83400000Y61400000D01*
X83600000Y60800000D01*
X83900000Y60300000D01*
X84200000Y59800000D01*
X84800000Y59200000D01*
X84800000Y54600000D01*
G37*
X84800000Y54600000D02*
X84300000Y54800000D01*
X83500000Y55200000D01*
X82700000Y55700000D01*
X82100000Y56200000D01*
X81700000Y56500000D01*
X81200000Y57100000D01*
X80500000Y58000000D01*
X80200000Y58500000D01*
X79900000Y59100000D01*
X79700000Y59600000D01*
X79500000Y60200000D01*
X79400000Y60600000D01*
X79300000Y61200000D01*
X79200000Y63100000D01*
X79200000Y63500000D01*
X83400000Y63500000D01*
X83300000Y63200000D01*
X83300000Y62800000D01*
X83300000Y61900000D01*
X83400000Y61400000D01*
X83600000Y60800000D01*
X83900000Y60300000D01*
X84200000Y59800000D01*
X84800000Y59200000D01*
X84800000Y54600000D01*
G36*
X95800000Y62500000D02*
G01*
X91700000Y62500000D01*
X91700000Y62000000D01*
X91400000Y60800000D01*
X90700000Y59700000D01*
X89900000Y59000000D01*
X89200000Y58600000D01*
X88100000Y58300000D01*
X87000000Y58300000D01*
X85800000Y58600000D01*
X84800000Y59200000D01*
X84800000Y54600000D01*
X86600000Y54200000D01*
X88000000Y54200000D01*
X89500000Y54400000D01*
X90700000Y54800000D01*
X91600000Y55200000D01*
X92500000Y55800000D01*
X93700000Y56900000D01*
X94500000Y58000000D01*
X95000000Y58800000D01*
X95600000Y60400000D01*
X95800000Y61800000D01*
X95800000Y62500000D01*
G37*
X95800000Y62500000D02*
X91700000Y62500000D01*
X91700000Y62000000D01*
X91400000Y60800000D01*
X90700000Y59700000D01*
X89900000Y59000000D01*
X89200000Y58600000D01*
X88100000Y58300000D01*
X87000000Y58300000D01*
X85800000Y58600000D01*
X84800000Y59200000D01*
X84800000Y54600000D01*
X86600000Y54200000D01*
X88000000Y54200000D01*
X89500000Y54400000D01*
X90700000Y54800000D01*
X91600000Y55200000D01*
X92500000Y55800000D01*
X93700000Y56900000D01*
X94500000Y58000000D01*
X95000000Y58800000D01*
X95600000Y60400000D01*
X95800000Y61800000D01*
X95800000Y62500000D01*
G36*
X38000000Y91700000D02*
G01*
X38000000Y95800000D01*
X37200000Y95800000D01*
X36000000Y95700000D01*
X35000000Y95400000D01*
X34200000Y95100000D01*
X33500000Y94800000D01*
X32700000Y94300000D01*
X32000000Y93800000D01*
X31400000Y93200000D01*
X30900000Y92600000D01*
X30500000Y92000000D01*
X30100000Y91300000D01*
X29700000Y90400000D01*
X29500000Y89800000D01*
X29300000Y88900000D01*
X29200000Y88500000D01*
X33400000Y88500000D01*
X33600000Y89100000D01*
X33900000Y89700000D01*
X34400000Y90400000D01*
X35000000Y90900000D01*
X35400000Y91200000D01*
X35800000Y91400000D01*
X36300000Y91600000D01*
X36800000Y91700000D01*
X38000000Y91700000D01*
G37*
X38000000Y91700000D02*
X38000000Y95800000D01*
X37200000Y95800000D01*
X36000000Y95700000D01*
X35000000Y95400000D01*
X34200000Y95100000D01*
X33500000Y94800000D01*
X32700000Y94300000D01*
X32000000Y93800000D01*
X31400000Y93200000D01*
X30900000Y92600000D01*
X30500000Y92000000D01*
X30100000Y91300000D01*
X29700000Y90400000D01*
X29500000Y89800000D01*
X29300000Y88900000D01*
X29200000Y88500000D01*
X33400000Y88500000D01*
X33600000Y89100000D01*
X33900000Y89700000D01*
X34400000Y90400000D01*
X35000000Y90900000D01*
X35400000Y91200000D01*
X35800000Y91400000D01*
X36300000Y91600000D01*
X36800000Y91700000D01*
X38000000Y91700000D01*
G36*
X45800000Y87500000D02*
G01*
X45800000Y87900000D01*
X45700000Y88900000D01*
X45400000Y90100000D01*
X45000000Y91100000D01*
X44700000Y91700000D01*
X44200000Y92400000D01*
X43600000Y93200000D01*
X42700000Y94000000D01*
X42000000Y94500000D01*
X41300000Y94900000D01*
X40400000Y95300000D01*
X39500000Y95600000D01*
X38900000Y95700000D01*
X38000000Y95800000D01*
X38000000Y91700000D01*
X38600000Y91600000D01*
X39200000Y91400000D01*
X39700000Y91100000D01*
X40300000Y90700000D01*
X40900000Y90000000D01*
X41400000Y89200000D01*
X41600000Y88500000D01*
X41700000Y87500000D01*
X45800000Y87500000D01*
G37*
X45800000Y87500000D02*
X45800000Y87900000D01*
X45700000Y88900000D01*
X45400000Y90100000D01*
X45000000Y91100000D01*
X44700000Y91700000D01*
X44200000Y92400000D01*
X43600000Y93200000D01*
X42700000Y94000000D01*
X42000000Y94500000D01*
X41300000Y94900000D01*
X40400000Y95300000D01*
X39500000Y95600000D01*
X38900000Y95700000D01*
X38000000Y95800000D01*
X38000000Y91700000D01*
X38600000Y91600000D01*
X39200000Y91400000D01*
X39700000Y91100000D01*
X40300000Y90700000D01*
X40900000Y90000000D01*
X41400000Y89200000D01*
X41600000Y88500000D01*
X41700000Y87500000D01*
X45800000Y87500000D01*
G36*
X34800000Y79600000D02*
G01*
X34300000Y79800000D01*
X33500000Y80200000D01*
X32700000Y80700000D01*
X32100000Y81200000D01*
X31700000Y81500000D01*
X31200000Y82100000D01*
X30500000Y83000000D01*
X30200000Y83500000D01*
X29900000Y84100000D01*
X29700000Y84600000D01*
X29500000Y85200000D01*
X29400000Y85600000D01*
X29300000Y86200000D01*
X29200000Y88100000D01*
X29200000Y88500000D01*
X33400000Y88500000D01*
X33300000Y88200000D01*
X33300000Y87800000D01*
X33300000Y86900000D01*
X33400000Y86400000D01*
X33600000Y85800000D01*
X33900000Y85300000D01*
X34200000Y84800000D01*
X34800000Y84200000D01*
X34800000Y79600000D01*
G37*
X34800000Y79600000D02*
X34300000Y79800000D01*
X33500000Y80200000D01*
X32700000Y80700000D01*
X32100000Y81200000D01*
X31700000Y81500000D01*
X31200000Y82100000D01*
X30500000Y83000000D01*
X30200000Y83500000D01*
X29900000Y84100000D01*
X29700000Y84600000D01*
X29500000Y85200000D01*
X29400000Y85600000D01*
X29300000Y86200000D01*
X29200000Y88100000D01*
X29200000Y88500000D01*
X33400000Y88500000D01*
X33300000Y88200000D01*
X33300000Y87800000D01*
X33300000Y86900000D01*
X33400000Y86400000D01*
X33600000Y85800000D01*
X33900000Y85300000D01*
X34200000Y84800000D01*
X34800000Y84200000D01*
X34800000Y79600000D01*
G36*
X45800000Y87500000D02*
G01*
X41700000Y87500000D01*
X41700000Y87000000D01*
X41400000Y85800000D01*
X40700000Y84700000D01*
X39900000Y84000000D01*
X39200000Y83600000D01*
X38100000Y83300000D01*
X37000000Y83300000D01*
X35800000Y83600000D01*
X34800000Y84200000D01*
X34800000Y79600000D01*
X36600000Y79200000D01*
X38000000Y79200000D01*
X39500000Y79400000D01*
X40700000Y79800000D01*
X41600000Y80200000D01*
X42500000Y80800000D01*
X43700000Y81900000D01*
X44500000Y83000000D01*
X45000000Y83800000D01*
X45600000Y85400000D01*
X45800000Y86800000D01*
X45800000Y87500000D01*
G37*
X45800000Y87500000D02*
X41700000Y87500000D01*
X41700000Y87000000D01*
X41400000Y85800000D01*
X40700000Y84700000D01*
X39900000Y84000000D01*
X39200000Y83600000D01*
X38100000Y83300000D01*
X37000000Y83300000D01*
X35800000Y83600000D01*
X34800000Y84200000D01*
X34800000Y79600000D01*
X36600000Y79200000D01*
X38000000Y79200000D01*
X39500000Y79400000D01*
X40700000Y79800000D01*
X41600000Y80200000D01*
X42500000Y80800000D01*
X43700000Y81900000D01*
X44500000Y83000000D01*
X45000000Y83800000D01*
X45600000Y85400000D01*
X45800000Y86800000D01*
X45800000Y87500000D01*
G36*
X62000000Y16700000D02*
G01*
X62000000Y20800000D01*
X62800000Y20800000D01*
X64000000Y20700000D01*
X65000000Y20400000D01*
X65800000Y20100000D01*
X66500000Y19800000D01*
X67300000Y19300000D01*
X68000000Y18800000D01*
X68600000Y18200000D01*
X69100000Y17600000D01*
X69500000Y17000000D01*
X69900000Y16300000D01*
X70300000Y15400000D01*
X70500000Y14800000D01*
X70700000Y13900000D01*
X70800000Y13500000D01*
X66600000Y13500000D01*
X66400000Y14100000D01*
X66100000Y14700000D01*
X65600000Y15400000D01*
X65000000Y15900000D01*
X64600000Y16200000D01*
X64200000Y16400000D01*
X63700000Y16600000D01*
X63200000Y16700000D01*
X62000000Y16700000D01*
G37*
X62000000Y16700000D02*
X62000000Y20800000D01*
X62800000Y20800000D01*
X64000000Y20700000D01*
X65000000Y20400000D01*
X65800000Y20100000D01*
X66500000Y19800000D01*
X67300000Y19300000D01*
X68000000Y18800000D01*
X68600000Y18200000D01*
X69100000Y17600000D01*
X69500000Y17000000D01*
X69900000Y16300000D01*
X70300000Y15400000D01*
X70500000Y14800000D01*
X70700000Y13900000D01*
X70800000Y13500000D01*
X66600000Y13500000D01*
X66400000Y14100000D01*
X66100000Y14700000D01*
X65600000Y15400000D01*
X65000000Y15900000D01*
X64600000Y16200000D01*
X64200000Y16400000D01*
X63700000Y16600000D01*
X63200000Y16700000D01*
X62000000Y16700000D01*
G36*
X54200000Y12500000D02*
G01*
X54200000Y12900000D01*
X54300000Y13900000D01*
X54600000Y15100000D01*
X55000000Y16100000D01*
X55300000Y16700000D01*
X55800000Y17400000D01*
X56400000Y18200000D01*
X57300000Y19000000D01*
X58000000Y19500000D01*
X58700000Y19900000D01*
X59600000Y20300000D01*
X60500000Y20600000D01*
X61100000Y20700000D01*
X62000000Y20800000D01*
X62000000Y16700000D01*
X61400000Y16600000D01*
X60800000Y16400000D01*
X60300000Y16100000D01*
X59700000Y15700000D01*
X59100000Y15000000D01*
X58600000Y14200000D01*
X58400000Y13500000D01*
X58300000Y12500000D01*
X54200000Y12500000D01*
G37*
X54200000Y12500000D02*
X54200000Y12900000D01*
X54300000Y13900000D01*
X54600000Y15100000D01*
X55000000Y16100000D01*
X55300000Y16700000D01*
X55800000Y17400000D01*
X56400000Y18200000D01*
X57300000Y19000000D01*
X58000000Y19500000D01*
X58700000Y19900000D01*
X59600000Y20300000D01*
X60500000Y20600000D01*
X61100000Y20700000D01*
X62000000Y20800000D01*
X62000000Y16700000D01*
X61400000Y16600000D01*
X60800000Y16400000D01*
X60300000Y16100000D01*
X59700000Y15700000D01*
X59100000Y15000000D01*
X58600000Y14200000D01*
X58400000Y13500000D01*
X58300000Y12500000D01*
X54200000Y12500000D01*
G36*
X65200000Y4600000D02*
G01*
X65700000Y4800000D01*
X66500000Y5200000D01*
X67300000Y5700000D01*
X67900000Y6200000D01*
X68300000Y6500000D01*
X68800000Y7100000D01*
X69500000Y8000000D01*
X69800000Y8500000D01*
X70100000Y9100000D01*
X70300000Y9600000D01*
X70500000Y10200000D01*
X70600000Y10600000D01*
X70700000Y11200000D01*
X70800000Y13100000D01*
X70800000Y13500000D01*
X66600000Y13500000D01*
X66700000Y13200000D01*
X66700000Y12800000D01*
X66700000Y11900000D01*
X66600000Y11400000D01*
X66400000Y10800000D01*
X66100000Y10300000D01*
X65800000Y9800000D01*
X65200000Y9200000D01*
X65200000Y4600000D01*
G37*
X65200000Y4600000D02*
X65700000Y4800000D01*
X66500000Y5200000D01*
X67300000Y5700000D01*
X67900000Y6200000D01*
X68300000Y6500000D01*
X68800000Y7100000D01*
X69500000Y8000000D01*
X69800000Y8500000D01*
X70100000Y9100000D01*
X70300000Y9600000D01*
X70500000Y10200000D01*
X70600000Y10600000D01*
X70700000Y11200000D01*
X70800000Y13100000D01*
X70800000Y13500000D01*
X66600000Y13500000D01*
X66700000Y13200000D01*
X66700000Y12800000D01*
X66700000Y11900000D01*
X66600000Y11400000D01*
X66400000Y10800000D01*
X66100000Y10300000D01*
X65800000Y9800000D01*
X65200000Y9200000D01*
X65200000Y4600000D01*
G36*
X54200000Y12500000D02*
G01*
X58300000Y12500000D01*
X58300000Y12000000D01*
X58600000Y10800000D01*
X59300000Y9700000D01*
X60100000Y9000000D01*
X60800000Y8600000D01*
X61900000Y8300000D01*
X63000000Y8300000D01*
X64200000Y8600000D01*
X65200000Y9200000D01*
X65200000Y4600000D01*
X63400000Y4200000D01*
X62000000Y4200000D01*
X60500000Y4400000D01*
X59300000Y4800000D01*
X58400000Y5200000D01*
X57500000Y5800000D01*
X56300000Y6900000D01*
X55500000Y8000000D01*
X55000000Y8800000D01*
X54400000Y10400000D01*
X54200000Y11800000D01*
X54200000Y12500000D01*
G37*
X54200000Y12500000D02*
X58300000Y12500000D01*
X58300000Y12000000D01*
X58600000Y10800000D01*
X59300000Y9700000D01*
X60100000Y9000000D01*
X60800000Y8600000D01*
X61900000Y8300000D01*
X63000000Y8300000D01*
X64200000Y8600000D01*
X65200000Y9200000D01*
X65200000Y4600000D01*
X63400000Y4200000D01*
X62000000Y4200000D01*
X60500000Y4400000D01*
X59300000Y4800000D01*
X58400000Y5200000D01*
X57500000Y5800000D01*
X56300000Y6900000D01*
X55500000Y8000000D01*
X55000000Y8800000D01*
X54400000Y10400000D01*
X54200000Y11800000D01*
X54200000Y12500000D01*
G36*
X12000000Y16700000D02*
G01*
X12000000Y20800000D01*
X12800000Y20800000D01*
X14000000Y20700000D01*
X15000000Y20400000D01*
X15800000Y20100000D01*
X16500000Y19800000D01*
X17300000Y19300000D01*
X18000000Y18800000D01*
X18600000Y18200000D01*
X19100000Y17600000D01*
X19500000Y17000000D01*
X19900000Y16300000D01*
X20300000Y15400000D01*
X20500000Y14800000D01*
X20700000Y13900000D01*
X20800000Y13500000D01*
X16600000Y13500000D01*
X16400000Y14100000D01*
X16100000Y14700000D01*
X15600000Y15400000D01*
X15000000Y15900000D01*
X14600000Y16200000D01*
X14200000Y16400000D01*
X13700000Y16600000D01*
X13200000Y16700000D01*
X12000000Y16700000D01*
G37*
X12000000Y16700000D02*
X12000000Y20800000D01*
X12800000Y20800000D01*
X14000000Y20700000D01*
X15000000Y20400000D01*
X15800000Y20100000D01*
X16500000Y19800000D01*
X17300000Y19300000D01*
X18000000Y18800000D01*
X18600000Y18200000D01*
X19100000Y17600000D01*
X19500000Y17000000D01*
X19900000Y16300000D01*
X20300000Y15400000D01*
X20500000Y14800000D01*
X20700000Y13900000D01*
X20800000Y13500000D01*
X16600000Y13500000D01*
X16400000Y14100000D01*
X16100000Y14700000D01*
X15600000Y15400000D01*
X15000000Y15900000D01*
X14600000Y16200000D01*
X14200000Y16400000D01*
X13700000Y16600000D01*
X13200000Y16700000D01*
X12000000Y16700000D01*
G36*
X4200000Y12500000D02*
G01*
X4200000Y12900000D01*
X4300000Y13900000D01*
X4600000Y15100000D01*
X5000000Y16100000D01*
X5300000Y16700000D01*
X5800000Y17400000D01*
X6400000Y18200000D01*
X7300000Y19000000D01*
X8000000Y19500000D01*
X8700000Y19900000D01*
X9600000Y20300000D01*
X10500000Y20600000D01*
X11100000Y20700000D01*
X12000000Y20800000D01*
X12000000Y16700000D01*
X11400000Y16600000D01*
X10800000Y16400000D01*
X10300000Y16100000D01*
X9700000Y15700000D01*
X9100000Y15000000D01*
X8600000Y14200000D01*
X8400000Y13500000D01*
X8300000Y12500000D01*
X4200000Y12500000D01*
G37*
X4200000Y12500000D02*
X4200000Y12900000D01*
X4300000Y13900000D01*
X4600000Y15100000D01*
X5000000Y16100000D01*
X5300000Y16700000D01*
X5800000Y17400000D01*
X6400000Y18200000D01*
X7300000Y19000000D01*
X8000000Y19500000D01*
X8700000Y19900000D01*
X9600000Y20300000D01*
X10500000Y20600000D01*
X11100000Y20700000D01*
X12000000Y20800000D01*
X12000000Y16700000D01*
X11400000Y16600000D01*
X10800000Y16400000D01*
X10300000Y16100000D01*
X9700000Y15700000D01*
X9100000Y15000000D01*
X8600000Y14200000D01*
X8400000Y13500000D01*
X8300000Y12500000D01*
X4200000Y12500000D01*
G36*
X15200000Y4600000D02*
G01*
X15700000Y4800000D01*
X16500000Y5200000D01*
X17300000Y5700000D01*
X17900000Y6200000D01*
X18300000Y6500000D01*
X18800000Y7100000D01*
X19500000Y8000000D01*
X19800000Y8500000D01*
X20100000Y9100000D01*
X20300000Y9600000D01*
X20500000Y10200000D01*
X20600000Y10600000D01*
X20700000Y11200000D01*
X20800000Y13100000D01*
X20800000Y13500000D01*
X16600000Y13500000D01*
X16700000Y13200000D01*
X16700000Y12800000D01*
X16700000Y11900000D01*
X16600000Y11400000D01*
X16400000Y10800000D01*
X16100000Y10300000D01*
X15800000Y9800000D01*
X15200000Y9200000D01*
X15200000Y4600000D01*
G37*
X15200000Y4600000D02*
X15700000Y4800000D01*
X16500000Y5200000D01*
X17300000Y5700000D01*
X17900000Y6200000D01*
X18300000Y6500000D01*
X18800000Y7100000D01*
X19500000Y8000000D01*
X19800000Y8500000D01*
X20100000Y9100000D01*
X20300000Y9600000D01*
X20500000Y10200000D01*
X20600000Y10600000D01*
X20700000Y11200000D01*
X20800000Y13100000D01*
X20800000Y13500000D01*
X16600000Y13500000D01*
X16700000Y13200000D01*
X16700000Y12800000D01*
X16700000Y11900000D01*
X16600000Y11400000D01*
X16400000Y10800000D01*
X16100000Y10300000D01*
X15800000Y9800000D01*
X15200000Y9200000D01*
X15200000Y4600000D01*
G36*
X4200000Y12500000D02*
G01*
X8300000Y12500000D01*
X8300000Y12000000D01*
X8600000Y10800000D01*
X9300000Y9700000D01*
X10100000Y9000000D01*
X10800000Y8600000D01*
X11900000Y8300000D01*
X13000000Y8300000D01*
X14200000Y8600000D01*
X15200000Y9200000D01*
X15200000Y4600000D01*
X13400000Y4200000D01*
X12000000Y4200000D01*
X10500000Y4400000D01*
X9300000Y4800000D01*
X8400000Y5200000D01*
X7500000Y5800000D01*
X6300000Y6900000D01*
X5500000Y8000000D01*
X5000000Y8800000D01*
X4400000Y10400000D01*
X4200000Y11800000D01*
X4200000Y12500000D01*
G37*
X4200000Y12500000D02*
X8300000Y12500000D01*
X8300000Y12000000D01*
X8600000Y10800000D01*
X9300000Y9700000D01*
X10100000Y9000000D01*
X10800000Y8600000D01*
X11900000Y8300000D01*
X13000000Y8300000D01*
X14200000Y8600000D01*
X15200000Y9200000D01*
X15200000Y4600000D01*
X13400000Y4200000D01*
X12000000Y4200000D01*
X10500000Y4400000D01*
X9300000Y4800000D01*
X8400000Y5200000D01*
X7500000Y5800000D01*
X6300000Y6900000D01*
X5500000Y8000000D01*
X5000000Y8800000D01*
X4400000Y10400000D01*
X4200000Y11800000D01*
X4200000Y12500000D01*
G36*
X12000000Y41700000D02*
G01*
X12000000Y45800000D01*
X12800000Y45800000D01*
X14000000Y45700000D01*
X15000000Y45400000D01*
X15800000Y45100000D01*
X16500000Y44800000D01*
X17300000Y44300000D01*
X18000000Y43800000D01*
X18600000Y43200000D01*
X19100000Y42600000D01*
X19500000Y42000000D01*
X19900000Y41300000D01*
X20300000Y40400000D01*
X20500000Y39800000D01*
X20700000Y38900000D01*
X20800000Y38500000D01*
X16600000Y38500000D01*
X16400000Y39100000D01*
X16100000Y39700000D01*
X15600000Y40400000D01*
X15000000Y40900000D01*
X14600000Y41200000D01*
X14200000Y41400000D01*
X13700000Y41600000D01*
X13200000Y41700000D01*
X12000000Y41700000D01*
G37*
X12000000Y41700000D02*
X12000000Y45800000D01*
X12800000Y45800000D01*
X14000000Y45700000D01*
X15000000Y45400000D01*
X15800000Y45100000D01*
X16500000Y44800000D01*
X17300000Y44300000D01*
X18000000Y43800000D01*
X18600000Y43200000D01*
X19100000Y42600000D01*
X19500000Y42000000D01*
X19900000Y41300000D01*
X20300000Y40400000D01*
X20500000Y39800000D01*
X20700000Y38900000D01*
X20800000Y38500000D01*
X16600000Y38500000D01*
X16400000Y39100000D01*
X16100000Y39700000D01*
X15600000Y40400000D01*
X15000000Y40900000D01*
X14600000Y41200000D01*
X14200000Y41400000D01*
X13700000Y41600000D01*
X13200000Y41700000D01*
X12000000Y41700000D01*
G36*
X4200000Y37500000D02*
G01*
X4200000Y37900000D01*
X4300000Y38900000D01*
X4600000Y40100000D01*
X5000000Y41100000D01*
X5300000Y41700000D01*
X5800000Y42400000D01*
X6400000Y43200000D01*
X7300000Y44000000D01*
X8000000Y44500000D01*
X8700000Y44900000D01*
X9600000Y45300000D01*
X10500000Y45600000D01*
X11100000Y45700000D01*
X12000000Y45800000D01*
X12000000Y41700000D01*
X11400000Y41600000D01*
X10800000Y41400000D01*
X10300000Y41100000D01*
X9700000Y40700000D01*
X9100000Y40000000D01*
X8600000Y39200000D01*
X8400000Y38500000D01*
X8300000Y37500000D01*
X4200000Y37500000D01*
G37*
X4200000Y37500000D02*
X4200000Y37900000D01*
X4300000Y38900000D01*
X4600000Y40100000D01*
X5000000Y41100000D01*
X5300000Y41700000D01*
X5800000Y42400000D01*
X6400000Y43200000D01*
X7300000Y44000000D01*
X8000000Y44500000D01*
X8700000Y44900000D01*
X9600000Y45300000D01*
X10500000Y45600000D01*
X11100000Y45700000D01*
X12000000Y45800000D01*
X12000000Y41700000D01*
X11400000Y41600000D01*
X10800000Y41400000D01*
X10300000Y41100000D01*
X9700000Y40700000D01*
X9100000Y40000000D01*
X8600000Y39200000D01*
X8400000Y38500000D01*
X8300000Y37500000D01*
X4200000Y37500000D01*
G36*
X15200000Y29600000D02*
G01*
X15700000Y29800000D01*
X16500000Y30200000D01*
X17300000Y30700000D01*
X17900000Y31200000D01*
X18300000Y31500000D01*
X18800000Y32100000D01*
X19500000Y33000000D01*
X19800000Y33500000D01*
X20100000Y34100000D01*
X20300000Y34600000D01*
X20500000Y35200000D01*
X20600000Y35600000D01*
X20700000Y36200000D01*
X20800000Y38100000D01*
X20800000Y38500000D01*
X16600000Y38500000D01*
X16700000Y38200000D01*
X16700000Y37800000D01*
X16700000Y36900000D01*
X16600000Y36400000D01*
X16400000Y35800000D01*
X16100000Y35300000D01*
X15800000Y34800000D01*
X15200000Y34200000D01*
X15200000Y29600000D01*
G37*
X15200000Y29600000D02*
X15700000Y29800000D01*
X16500000Y30200000D01*
X17300000Y30700000D01*
X17900000Y31200000D01*
X18300000Y31500000D01*
X18800000Y32100000D01*
X19500000Y33000000D01*
X19800000Y33500000D01*
X20100000Y34100000D01*
X20300000Y34600000D01*
X20500000Y35200000D01*
X20600000Y35600000D01*
X20700000Y36200000D01*
X20800000Y38100000D01*
X20800000Y38500000D01*
X16600000Y38500000D01*
X16700000Y38200000D01*
X16700000Y37800000D01*
X16700000Y36900000D01*
X16600000Y36400000D01*
X16400000Y35800000D01*
X16100000Y35300000D01*
X15800000Y34800000D01*
X15200000Y34200000D01*
X15200000Y29600000D01*
G36*
X4200000Y37500000D02*
G01*
X8300000Y37500000D01*
X8300000Y37000000D01*
X8600000Y35800000D01*
X9300000Y34700000D01*
X10100000Y34000000D01*
X10800000Y33600000D01*
X11900000Y33300000D01*
X13000000Y33300000D01*
X14200000Y33600000D01*
X15200000Y34200000D01*
X15200000Y29600000D01*
X13400000Y29200000D01*
X12000000Y29200000D01*
X10500000Y29400000D01*
X9300000Y29800000D01*
X8400000Y30200000D01*
X7500000Y30800000D01*
X6300000Y31900000D01*
X5500000Y33000000D01*
X5000000Y33800000D01*
X4400000Y35400000D01*
X4200000Y36800000D01*
X4200000Y37500000D01*
G37*
X4200000Y37500000D02*
X8300000Y37500000D01*
X8300000Y37000000D01*
X8600000Y35800000D01*
X9300000Y34700000D01*
X10100000Y34000000D01*
X10800000Y33600000D01*
X11900000Y33300000D01*
X13000000Y33300000D01*
X14200000Y33600000D01*
X15200000Y34200000D01*
X15200000Y29600000D01*
X13400000Y29200000D01*
X12000000Y29200000D01*
X10500000Y29400000D01*
X9300000Y29800000D01*
X8400000Y30200000D01*
X7500000Y30800000D01*
X6300000Y31900000D01*
X5500000Y33000000D01*
X5000000Y33800000D01*
X4400000Y35400000D01*
X4200000Y36800000D01*
X4200000Y37500000D01*
G36*
X62000000Y66700000D02*
G01*
X62000000Y70800000D01*
X62800000Y70800000D01*
X64000000Y70700000D01*
X65000000Y70400000D01*
X65800000Y70100000D01*
X66500000Y69800000D01*
X67300000Y69300000D01*
X68000000Y68800000D01*
X68600000Y68200000D01*
X69100000Y67600000D01*
X69500000Y67000000D01*
X69900000Y66300000D01*
X70300000Y65400000D01*
X70500000Y64800000D01*
X70700000Y63900000D01*
X70800000Y63500000D01*
X66600000Y63500000D01*
X66400000Y64100000D01*
X66100000Y64700000D01*
X65600000Y65400000D01*
X65000000Y65900000D01*
X64600000Y66200000D01*
X64200000Y66400000D01*
X63700000Y66600000D01*
X63200000Y66700000D01*
X62000000Y66700000D01*
G37*
X62000000Y66700000D02*
X62000000Y70800000D01*
X62800000Y70800000D01*
X64000000Y70700000D01*
X65000000Y70400000D01*
X65800000Y70100000D01*
X66500000Y69800000D01*
X67300000Y69300000D01*
X68000000Y68800000D01*
X68600000Y68200000D01*
X69100000Y67600000D01*
X69500000Y67000000D01*
X69900000Y66300000D01*
X70300000Y65400000D01*
X70500000Y64800000D01*
X70700000Y63900000D01*
X70800000Y63500000D01*
X66600000Y63500000D01*
X66400000Y64100000D01*
X66100000Y64700000D01*
X65600000Y65400000D01*
X65000000Y65900000D01*
X64600000Y66200000D01*
X64200000Y66400000D01*
X63700000Y66600000D01*
X63200000Y66700000D01*
X62000000Y66700000D01*
G36*
X54200000Y62500000D02*
G01*
X54200000Y62900000D01*
X54300000Y63900000D01*
X54600000Y65100000D01*
X55000000Y66100000D01*
X55300000Y66700000D01*
X55800000Y67400000D01*
X56400000Y68200000D01*
X57300000Y69000000D01*
X58000000Y69500000D01*
X58700000Y69900000D01*
X59600000Y70300000D01*
X60500000Y70600000D01*
X61100000Y70700000D01*
X62000000Y70800000D01*
X62000000Y66700000D01*
X61400000Y66600000D01*
X60800000Y66400000D01*
X60300000Y66100000D01*
X59700000Y65700000D01*
X59100000Y65000000D01*
X58600000Y64200000D01*
X58400000Y63500000D01*
X58300000Y62500000D01*
X54200000Y62500000D01*
G37*
X54200000Y62500000D02*
X54200000Y62900000D01*
X54300000Y63900000D01*
X54600000Y65100000D01*
X55000000Y66100000D01*
X55300000Y66700000D01*
X55800000Y67400000D01*
X56400000Y68200000D01*
X57300000Y69000000D01*
X58000000Y69500000D01*
X58700000Y69900000D01*
X59600000Y70300000D01*
X60500000Y70600000D01*
X61100000Y70700000D01*
X62000000Y70800000D01*
X62000000Y66700000D01*
X61400000Y66600000D01*
X60800000Y66400000D01*
X60300000Y66100000D01*
X59700000Y65700000D01*
X59100000Y65000000D01*
X58600000Y64200000D01*
X58400000Y63500000D01*
X58300000Y62500000D01*
X54200000Y62500000D01*
G36*
X65200000Y54600000D02*
G01*
X65700000Y54800000D01*
X66500000Y55200000D01*
X67300000Y55700000D01*
X67900000Y56200000D01*
X68300000Y56500000D01*
X68800000Y57100000D01*
X69500000Y58000000D01*
X69800000Y58500000D01*
X70100000Y59100000D01*
X70300000Y59600000D01*
X70500000Y60200000D01*
X70600000Y60600000D01*
X70700000Y61200000D01*
X70800000Y63100000D01*
X70800000Y63500000D01*
X66600000Y63500000D01*
X66700000Y63200000D01*
X66700000Y62800000D01*
X66700000Y61900000D01*
X66600000Y61400000D01*
X66400000Y60800000D01*
X66100000Y60300000D01*
X65800000Y59800000D01*
X65200000Y59200000D01*
X65200000Y54600000D01*
G37*
X65200000Y54600000D02*
X65700000Y54800000D01*
X66500000Y55200000D01*
X67300000Y55700000D01*
X67900000Y56200000D01*
X68300000Y56500000D01*
X68800000Y57100000D01*
X69500000Y58000000D01*
X69800000Y58500000D01*
X70100000Y59100000D01*
X70300000Y59600000D01*
X70500000Y60200000D01*
X70600000Y60600000D01*
X70700000Y61200000D01*
X70800000Y63100000D01*
X70800000Y63500000D01*
X66600000Y63500000D01*
X66700000Y63200000D01*
X66700000Y62800000D01*
X66700000Y61900000D01*
X66600000Y61400000D01*
X66400000Y60800000D01*
X66100000Y60300000D01*
X65800000Y59800000D01*
X65200000Y59200000D01*
X65200000Y54600000D01*
G36*
X54200000Y62500000D02*
G01*
X58300000Y62500000D01*
X58300000Y62000000D01*
X58600000Y60800000D01*
X59300000Y59700000D01*
X60100000Y59000000D01*
X60800000Y58600000D01*
X61900000Y58300000D01*
X63000000Y58300000D01*
X64200000Y58600000D01*
X65200000Y59200000D01*
X65200000Y54600000D01*
X63400000Y54200000D01*
X62000000Y54200000D01*
X60500000Y54400000D01*
X59300000Y54800000D01*
X58400000Y55200000D01*
X57500000Y55800000D01*
X56300000Y56900000D01*
X55500000Y58000000D01*
X55000000Y58800000D01*
X54400000Y60400000D01*
X54200000Y61800000D01*
X54200000Y62500000D01*
G37*
X54200000Y62500000D02*
X58300000Y62500000D01*
X58300000Y62000000D01*
X58600000Y60800000D01*
X59300000Y59700000D01*
X60100000Y59000000D01*
X60800000Y58600000D01*
X61900000Y58300000D01*
X63000000Y58300000D01*
X64200000Y58600000D01*
X65200000Y59200000D01*
X65200000Y54600000D01*
X63400000Y54200000D01*
X62000000Y54200000D01*
X60500000Y54400000D01*
X59300000Y54800000D01*
X58400000Y55200000D01*
X57500000Y55800000D01*
X56300000Y56900000D01*
X55500000Y58000000D01*
X55000000Y58800000D01*
X54400000Y60400000D01*
X54200000Y61800000D01*
X54200000Y62500000D01*
G36*
X12000000Y66700000D02*
G01*
X12000000Y70800000D01*
X12800000Y70800000D01*
X14000000Y70700000D01*
X15000000Y70400000D01*
X15800000Y70100000D01*
X16500000Y69800000D01*
X17300000Y69300000D01*
X18000000Y68800000D01*
X18600000Y68200000D01*
X19100000Y67600000D01*
X19500000Y67000000D01*
X19900000Y66300000D01*
X20300000Y65400000D01*
X20500000Y64800000D01*
X20700000Y63900000D01*
X20800000Y63500000D01*
X16600000Y63500000D01*
X16400000Y64100000D01*
X16100000Y64700000D01*
X15600000Y65400000D01*
X15000000Y65900000D01*
X14600000Y66200000D01*
X14200000Y66400000D01*
X13700000Y66600000D01*
X13200000Y66700000D01*
X12000000Y66700000D01*
G37*
X12000000Y66700000D02*
X12000000Y70800000D01*
X12800000Y70800000D01*
X14000000Y70700000D01*
X15000000Y70400000D01*
X15800000Y70100000D01*
X16500000Y69800000D01*
X17300000Y69300000D01*
X18000000Y68800000D01*
X18600000Y68200000D01*
X19100000Y67600000D01*
X19500000Y67000000D01*
X19900000Y66300000D01*
X20300000Y65400000D01*
X20500000Y64800000D01*
X20700000Y63900000D01*
X20800000Y63500000D01*
X16600000Y63500000D01*
X16400000Y64100000D01*
X16100000Y64700000D01*
X15600000Y65400000D01*
X15000000Y65900000D01*
X14600000Y66200000D01*
X14200000Y66400000D01*
X13700000Y66600000D01*
X13200000Y66700000D01*
X12000000Y66700000D01*
G36*
X4200000Y62500000D02*
G01*
X4200000Y62900000D01*
X4300000Y63900000D01*
X4600000Y65100000D01*
X5000000Y66100000D01*
X5300000Y66700000D01*
X5800000Y67400000D01*
X6400000Y68200000D01*
X7300000Y69000000D01*
X8000000Y69500000D01*
X8700000Y69900000D01*
X9600000Y70300000D01*
X10500000Y70600000D01*
X11100000Y70700000D01*
X12000000Y70800000D01*
X12000000Y66700000D01*
X11400000Y66600000D01*
X10800000Y66400000D01*
X10300000Y66100000D01*
X9700000Y65700000D01*
X9100000Y65000000D01*
X8600000Y64200000D01*
X8400000Y63500000D01*
X8300000Y62500000D01*
X4200000Y62500000D01*
G37*
X4200000Y62500000D02*
X4200000Y62900000D01*
X4300000Y63900000D01*
X4600000Y65100000D01*
X5000000Y66100000D01*
X5300000Y66700000D01*
X5800000Y67400000D01*
X6400000Y68200000D01*
X7300000Y69000000D01*
X8000000Y69500000D01*
X8700000Y69900000D01*
X9600000Y70300000D01*
X10500000Y70600000D01*
X11100000Y70700000D01*
X12000000Y70800000D01*
X12000000Y66700000D01*
X11400000Y66600000D01*
X10800000Y66400000D01*
X10300000Y66100000D01*
X9700000Y65700000D01*
X9100000Y65000000D01*
X8600000Y64200000D01*
X8400000Y63500000D01*
X8300000Y62500000D01*
X4200000Y62500000D01*
G36*
X15200000Y54600000D02*
G01*
X15700000Y54800000D01*
X16500000Y55200000D01*
X17300000Y55700000D01*
X17900000Y56200000D01*
X18300000Y56500000D01*
X18800000Y57100000D01*
X19500000Y58000000D01*
X19800000Y58500000D01*
X20100000Y59100000D01*
X20300000Y59600000D01*
X20500000Y60200000D01*
X20600000Y60600000D01*
X20700000Y61200000D01*
X20800000Y63100000D01*
X20800000Y63500000D01*
X16600000Y63500000D01*
X16700000Y63200000D01*
X16700000Y62800000D01*
X16700000Y61900000D01*
X16600000Y61400000D01*
X16400000Y60800000D01*
X16100000Y60300000D01*
X15800000Y59800000D01*
X15200000Y59200000D01*
X15200000Y54600000D01*
G37*
X15200000Y54600000D02*
X15700000Y54800000D01*
X16500000Y55200000D01*
X17300000Y55700000D01*
X17900000Y56200000D01*
X18300000Y56500000D01*
X18800000Y57100000D01*
X19500000Y58000000D01*
X19800000Y58500000D01*
X20100000Y59100000D01*
X20300000Y59600000D01*
X20500000Y60200000D01*
X20600000Y60600000D01*
X20700000Y61200000D01*
X20800000Y63100000D01*
X20800000Y63500000D01*
X16600000Y63500000D01*
X16700000Y63200000D01*
X16700000Y62800000D01*
X16700000Y61900000D01*
X16600000Y61400000D01*
X16400000Y60800000D01*
X16100000Y60300000D01*
X15800000Y59800000D01*
X15200000Y59200000D01*
X15200000Y54600000D01*
G36*
X4200000Y62500000D02*
G01*
X8300000Y62500000D01*
X8300000Y62000000D01*
X8600000Y60800000D01*
X9300000Y59700000D01*
X10100000Y59000000D01*
X10800000Y58600000D01*
X11900000Y58300000D01*
X13000000Y58300000D01*
X14200000Y58600000D01*
X15200000Y59200000D01*
X15200000Y54600000D01*
X13400000Y54200000D01*
X12000000Y54200000D01*
X10500000Y54400000D01*
X9300000Y54800000D01*
X8400000Y55200000D01*
X7500000Y55800000D01*
X6300000Y56900000D01*
X5500000Y58000000D01*
X5000000Y58800000D01*
X4400000Y60400000D01*
X4200000Y61800000D01*
X4200000Y62500000D01*
G37*
X4200000Y62500000D02*
X8300000Y62500000D01*
X8300000Y62000000D01*
X8600000Y60800000D01*
X9300000Y59700000D01*
X10100000Y59000000D01*
X10800000Y58600000D01*
X11900000Y58300000D01*
X13000000Y58300000D01*
X14200000Y58600000D01*
X15200000Y59200000D01*
X15200000Y54600000D01*
X13400000Y54200000D01*
X12000000Y54200000D01*
X10500000Y54400000D01*
X9300000Y54800000D01*
X8400000Y55200000D01*
X7500000Y55800000D01*
X6300000Y56900000D01*
X5500000Y58000000D01*
X5000000Y58800000D01*
X4400000Y60400000D01*
X4200000Y61800000D01*
X4200000Y62500000D01*
G36*
X12000000Y91700000D02*
G01*
X12000000Y95800000D01*
X12800000Y95800000D01*
X14000000Y95700000D01*
X15000000Y95400000D01*
X15800000Y95100000D01*
X16500000Y94800000D01*
X17300000Y94300000D01*
X18000000Y93800000D01*
X18600000Y93200000D01*
X19100000Y92600000D01*
X19500000Y92000000D01*
X19900000Y91300000D01*
X20300000Y90400000D01*
X20500000Y89800000D01*
X20700000Y88900000D01*
X20800000Y88500000D01*
X16600000Y88500000D01*
X16400000Y89100000D01*
X16100000Y89700000D01*
X15600000Y90400000D01*
X15000000Y90900000D01*
X14600000Y91200000D01*
X14200000Y91400000D01*
X13700000Y91600000D01*
X13200000Y91700000D01*
X12000000Y91700000D01*
G37*
X12000000Y91700000D02*
X12000000Y95800000D01*
X12800000Y95800000D01*
X14000000Y95700000D01*
X15000000Y95400000D01*
X15800000Y95100000D01*
X16500000Y94800000D01*
X17300000Y94300000D01*
X18000000Y93800000D01*
X18600000Y93200000D01*
X19100000Y92600000D01*
X19500000Y92000000D01*
X19900000Y91300000D01*
X20300000Y90400000D01*
X20500000Y89800000D01*
X20700000Y88900000D01*
X20800000Y88500000D01*
X16600000Y88500000D01*
X16400000Y89100000D01*
X16100000Y89700000D01*
X15600000Y90400000D01*
X15000000Y90900000D01*
X14600000Y91200000D01*
X14200000Y91400000D01*
X13700000Y91600000D01*
X13200000Y91700000D01*
X12000000Y91700000D01*
G36*
X4200000Y87500000D02*
G01*
X4200000Y87900000D01*
X4300000Y88900000D01*
X4600000Y90100000D01*
X5000000Y91100000D01*
X5300000Y91700000D01*
X5800000Y92400000D01*
X6400000Y93200000D01*
X7300000Y94000000D01*
X8000000Y94500000D01*
X8700000Y94900000D01*
X9600000Y95300000D01*
X10500000Y95600000D01*
X11100000Y95700000D01*
X12000000Y95800000D01*
X12000000Y91700000D01*
X11400000Y91600000D01*
X10800000Y91400000D01*
X10300000Y91100000D01*
X9700000Y90700000D01*
X9100000Y90000000D01*
X8600000Y89200000D01*
X8400000Y88500000D01*
X8300000Y87500000D01*
X4200000Y87500000D01*
G37*
X4200000Y87500000D02*
X4200000Y87900000D01*
X4300000Y88900000D01*
X4600000Y90100000D01*
X5000000Y91100000D01*
X5300000Y91700000D01*
X5800000Y92400000D01*
X6400000Y93200000D01*
X7300000Y94000000D01*
X8000000Y94500000D01*
X8700000Y94900000D01*
X9600000Y95300000D01*
X10500000Y95600000D01*
X11100000Y95700000D01*
X12000000Y95800000D01*
X12000000Y91700000D01*
X11400000Y91600000D01*
X10800000Y91400000D01*
X10300000Y91100000D01*
X9700000Y90700000D01*
X9100000Y90000000D01*
X8600000Y89200000D01*
X8400000Y88500000D01*
X8300000Y87500000D01*
X4200000Y87500000D01*
G36*
X15200000Y79600000D02*
G01*
X15700000Y79800000D01*
X16500000Y80200000D01*
X17300000Y80700000D01*
X17900000Y81200000D01*
X18300000Y81500000D01*
X18800000Y82100000D01*
X19500000Y83000000D01*
X19800000Y83500000D01*
X20100000Y84100000D01*
X20300000Y84600000D01*
X20500000Y85200000D01*
X20600000Y85600000D01*
X20700000Y86200000D01*
X20800000Y88100000D01*
X20800000Y88500000D01*
X16600000Y88500000D01*
X16700000Y88200000D01*
X16700000Y87800000D01*
X16700000Y86900000D01*
X16600000Y86400000D01*
X16400000Y85800000D01*
X16100000Y85300000D01*
X15800000Y84800000D01*
X15200000Y84200000D01*
X15200000Y79600000D01*
G37*
X15200000Y79600000D02*
X15700000Y79800000D01*
X16500000Y80200000D01*
X17300000Y80700000D01*
X17900000Y81200000D01*
X18300000Y81500000D01*
X18800000Y82100000D01*
X19500000Y83000000D01*
X19800000Y83500000D01*
X20100000Y84100000D01*
X20300000Y84600000D01*
X20500000Y85200000D01*
X20600000Y85600000D01*
X20700000Y86200000D01*
X20800000Y88100000D01*
X20800000Y88500000D01*
X16600000Y88500000D01*
X16700000Y88200000D01*
X16700000Y87800000D01*
X16700000Y86900000D01*
X16600000Y86400000D01*
X16400000Y85800000D01*
X16100000Y85300000D01*
X15800000Y84800000D01*
X15200000Y84200000D01*
X15200000Y79600000D01*
G36*
X4200000Y87500000D02*
G01*
X8300000Y87500000D01*
X8300000Y87000000D01*
X8600000Y85800000D01*
X9300000Y84700000D01*
X10100000Y84000000D01*
X10800000Y83600000D01*
X11900000Y83300000D01*
X13000000Y83300000D01*
X14200000Y83600000D01*
X15200000Y84200000D01*
X15200000Y79600000D01*
X13400000Y79200000D01*
X12000000Y79200000D01*
X10500000Y79400000D01*
X9300000Y79800000D01*
X8400000Y80200000D01*
X7500000Y80800000D01*
X6300000Y81900000D01*
X5500000Y83000000D01*
X5000000Y83800000D01*
X4400000Y85400000D01*
X4200000Y86800000D01*
X4200000Y87500000D01*
G37*
X4200000Y87500000D02*
X8300000Y87500000D01*
X8300000Y87000000D01*
X8600000Y85800000D01*
X9300000Y84700000D01*
X10100000Y84000000D01*
X10800000Y83600000D01*
X11900000Y83300000D01*
X13000000Y83300000D01*
X14200000Y83600000D01*
X15200000Y84200000D01*
X15200000Y79600000D01*
X13400000Y79200000D01*
X12000000Y79200000D01*
X10500000Y79400000D01*
X9300000Y79800000D01*
X8400000Y80200000D01*
X7500000Y80800000D01*
X6300000Y81900000D01*
X5500000Y83000000D01*
X5000000Y83800000D01*
X4400000Y85400000D01*
X4200000Y86800000D01*
X4200000Y87500000D01*
D14*
X96800000Y74140000D03*
X97816000Y69060000D03*
X95784000Y69060000D03*
D15*
X81000000Y104000000D03*
X70000000Y105000000D03*
X34000000Y104000000D03*
X23000000Y105000000D03*
X52500000Y104000000D03*
D16*
X97300000Y11850000D03*
X97300000Y14850000D03*
D17*
X86250000Y11800000D03*
X88750000Y11800000D03*
X88750000Y13200000D03*
X86250000Y13200000D03*
X86250000Y36800000D03*
X88750000Y36800000D03*
X88750000Y38200000D03*
X86250000Y38200000D03*
X86250000Y61800000D03*
X88750000Y61800000D03*
X88750000Y63200000D03*
X86250000Y63200000D03*
X86250000Y86800000D03*
X88750000Y86800000D03*
X88750000Y88200000D03*
X86250000Y88200000D03*
X61250000Y11800000D03*
X63750000Y11800000D03*
X63750000Y13200000D03*
X61250000Y13200000D03*
X61250000Y36800000D03*
X63750000Y36800000D03*
X63750000Y38200000D03*
X61250000Y38200000D03*
X61250000Y61800000D03*
X63750000Y61800000D03*
X63750000Y63200000D03*
X61250000Y63200000D03*
X61250000Y86800000D03*
X63750000Y86800000D03*
X63750000Y88200000D03*
X61250000Y88200000D03*
X36250000Y11800000D03*
X38750000Y11800000D03*
X38750000Y13200000D03*
X36250000Y13200000D03*
X36250000Y36800000D03*
X38750000Y36800000D03*
X38750000Y38200000D03*
X36250000Y38200000D03*
X36250000Y61800000D03*
X38750000Y61800000D03*
X38750000Y63200000D03*
X36250000Y63200000D03*
X36250000Y86800000D03*
X38750000Y86800000D03*
X38750000Y88200000D03*
X36250000Y88200000D03*
X11250000Y11800000D03*
X13750000Y11800000D03*
X13750000Y13200000D03*
X11250000Y13200000D03*
X11250000Y36800000D03*
X13750000Y36800000D03*
X13750000Y38200000D03*
X11250000Y38200000D03*
X11250000Y61800000D03*
X13750000Y61800000D03*
X13750000Y63200000D03*
X11250000Y63200000D03*
X11250000Y86800000D03*
X13750000Y86800000D03*
X13750000Y88200000D03*
X11250000Y88200000D03*
D18*
X83710000Y104700000D03*
X89490000Y104700000D03*
M02*
