M48
; DRILL file {KiCad (5.1.5)-3} date 6/1/2020 9:52:23 AM
; FORMAT={-:-/ absolute / metric / decimal}
; #@! TF.CreationDate,2020-06-01T09:52:23+02:00
; #@! TF.GenerationSoftware,Kicad,Pcbnew,(5.1.5)-3
; #@! TF.FileFunction,Plated,1,2,PTH
FMAT,2
METRIC
T1C0.300
T2C0.400
%
G90
G05
T1
X1.25Y80.65
X1.3Y83.3
X2.5Y82.05
X2.5Y75.4
X4.4Y73.75
X5.8Y75.35
X7.85Y102.95
X8.49Y101.71
X8.91Y100.39
X9.798Y86.9
X9.9Y75.95
X10.2Y72.15
X10.337Y39.687
X10.337Y14.795
X10.814Y65.429
X12.1Y104.45
X12.1Y86.8
X12.2Y61.7
X12.2Y13.2
X12.3Y88.2
X12.3Y63.2
X12.3Y36.8
X12.3Y11.8
X12.4Y38.2
X13.4Y72.05
X14.9Y36.8
X15.29Y61.79
X15.4Y11.8
X15.56Y86.8
X15.6Y95.8
X15.7Y101.1
X16.402Y75.724
X16.402Y72.93
X16.8Y96.8
X17.8Y96.0
X17.95Y101.05
X19.1Y29.7
X19.1Y24.8
X19.8Y94.1
X19.95Y101.1
X20.6Y22.7
X22.2Y100.2
X22.3Y64.26
X22.4Y96.0
X22.6Y80.4
X22.6Y30.7
X22.6Y17.9
X23.0Y91.4
X23.64Y95.5
X23.82Y101.72
X23.82Y99.52
X24.07Y69.38
X24.31Y97.72
X25.23Y95.49
X25.38Y97.83
X25.78Y69.56
X25.875Y78.65
X26.7Y15.1
X26.81Y99.86
X26.82Y101.79
X27.4Y30.8
X27.4Y17.9
X27.82Y99.49
X27.83Y64.2
X28.34Y13.748
X28.82Y99.51
X29.356Y20.098
X29.82Y99.55
X30.1Y25.0
X30.372Y18.828
X30.8Y93.4
X30.8Y29.4
X30.82Y99.55
X33.746Y62.298
X34.1Y86.8
X34.2Y99.4
X34.2Y36.7
X34.436Y39.148
X34.436Y37.878
X34.6Y88.2
X34.7Y28.7
X34.8Y63.1
X34.8Y14.7
X34.9Y25.2
X35.0Y102.0
X35.198Y61.754
X35.452Y89.694
X36.0Y60.4
X36.4Y14.6
X36.528Y96.248
X36.6Y98.8
X36.8Y34.3
X36.9Y84.7
X37.1Y101.3
X37.4Y14.3
X37.5Y102.65
X38.55Y102.7
X38.85Y101.2
X39.2Y52.2
X39.32Y107.68
X39.678Y96.028
X39.77Y22.384
X40.0Y99.7
X40.4Y46.4
X40.532Y12.986
X40.7Y22.4
X40.8Y52.2
X41.025Y78.175
X42.31Y21.876
X42.686Y100.475
X42.7Y24.1
X42.8Y73.625
X42.95Y95.8
X43.05Y97.6
X43.4Y21.4
X43.58Y75.978
X44.088Y22.892
X44.088Y19.844
X44.342Y76.232
X44.342Y23.908
X44.342Y24.924
X44.35Y95.15
X44.615Y97.26
X44.8Y6.1
X45.0Y68.6
X45.5Y98.05
X45.5Y92.5
X46.12Y70.898
X46.12Y34.83
X46.36Y78.25
X46.374Y74.962
X46.628Y69.374
X46.85Y94.15
X46.885Y14.4
X47.136Y33.56
X47.3Y82.6
X47.3Y13.6
X47.39Y31.02
X47.39Y21.876
X47.39Y20.86
X47.6Y12.4
X47.65Y86.35
X47.7Y9.3
X47.8Y6.1
X47.898Y69.12
X48.0Y61.1
X48.005Y23.146
X48.15Y90.9
X48.152Y32.29
X48.4Y11.7
X48.406Y87.662
X48.66Y31.02
X48.807Y21.368
X48.914Y89.948
X48.914Y33.306
X48.925Y75.25
X49.2Y80.85
X49.3Y9.4
X49.35Y84.4
X49.422Y31.782
X49.422Y22.384
X49.422Y12.224
X49.461Y13.24
X49.93Y90.71
X49.93Y87.408
X50.1Y52.0
X50.438Y70.644
X50.946Y81.566
X50.946Y35.338
X50.946Y34.068
X51.1Y6.1
X51.2Y69.12
X51.2Y24.924
X51.4Y75.318
X51.4Y49.8
X51.708Y36.1
X51.962Y33.814
X52.25Y98.75
X52.25Y79.025
X52.635Y47.111
X52.724Y36.862
X52.724Y32.036
X52.724Y23.654
X52.724Y13.494
X53.232Y88.424
X53.232Y14.256
X53.6Y33.9
X53.74Y102.902
X53.74Y89.44
X54.502Y68.866
X54.625Y78.95
X54.756Y46.26
X54.863Y97.385
X55.264Y102.902
X55.264Y70.644
X55.264Y45.498
X55.385Y96.5
X55.411Y44.228
X55.518Y47.784
X55.75Y81.325
X55.75Y80.425
X55.772Y25.94
X55.772Y23.146
X56.28Y98.33
X56.788Y71.152
X56.788Y51.34
X57.375Y78.05
X58.82Y25.94
X59.0Y87.0
X59.074Y23.146
X59.582Y73.545
X59.836Y74.708
X59.836Y14.51
X60.09Y60.484
X60.344Y85.63
X60.344Y84.614
X60.344Y76.486
X60.516Y75.517
X60.852Y59.722
X61.03Y47.53
X61.106Y48.546
X61.106Y15.018
X61.36Y90.964
X61.36Y83.999
X61.36Y34.576
X61.523Y77.562
X61.614Y85.63
X61.614Y65.31
X61.76Y78.365
X61.868Y47.022
X61.9Y97.5
X62.122Y34.068
X62.376Y66.072
X62.376Y14.764
X62.427Y46.463
X63.392Y35.338
X63.5Y89.815
X63.646Y84.36
X63.691Y98.691
X63.825Y78.05
X64.0Y103.5
X64.431Y89.581
X64.55Y78.879
X64.615Y98.0
X64.888Y51.622
X64.916Y39.656
X65.0Y100.0
X65.05Y88.0
X65.074Y101.886
X65.17Y65.056
X65.424Y63.278
X65.424Y13.494
X65.932Y87.916
X65.932Y86.646
X66.572Y75.162
X66.675Y79.35
X66.875Y71.115
X66.925Y75.95
X67.775Y76.725
X68.65Y70.85
X68.672Y68.812
X68.8Y73.545
X68.98Y99.092
X68.98Y19.844
X69.234Y76.994
X69.234Y22.384
X69.45Y81.575
X69.742Y67.596
X70.0Y93.0
X70.25Y97.822
X70.25Y76.994
X70.758Y83.598
X71.266Y99.346
X71.266Y50.578
X71.266Y34.83
X71.52Y41.434
X71.52Y36.354
X71.52Y14.256
X71.774Y88.932
X71.9Y73.0
X71.95Y90.325
X71.98Y66.374
X72.0Y86.3
X72.237Y71.103
X72.4Y71.95
X72.536Y83.344
X72.536Y61.5
X72.536Y31.02
X72.536Y19.336
X72.79Y50.832
X72.79Y91.726
X72.79Y88.678
X72.79Y55.658
X72.79Y41.434
X72.888Y79.388
X72.975Y70.343
X73.044Y93.504
X73.044Y36.354
X73.044Y34.83
X73.073Y73.173
X73.31Y61.297
X73.6Y5.9
X73.806Y85.122
X74.052Y74.954
X74.06Y71.914
X74.568Y92.996
X74.6Y96.9
X74.626Y73.349
X75.055Y74.012
X75.076Y64.802
X75.076Y47.53
X75.175Y76.275
X75.33Y58.198
X75.33Y20.86
X76.346Y81.312
X76.6Y97.1
X77.2Y72.325
X77.362Y31.274
X77.362Y19.336
X77.575Y84.275
X77.616Y73.5
X77.616Y61.5
X78.025Y79.55
X78.124Y67.088
X78.25Y63.75
X78.886Y77.502
X79.3Y100.7
X79.3Y99.3
X79.625Y69.75
X79.676Y77.25
X80.0Y68.05
X80.156Y75.47
X80.3Y5.9
X80.6Y69.75
X80.664Y47.53
X80.665Y96.7
X80.75Y81.5
X80.825Y71.975
X80.918Y74.962
X80.925Y73.45
X81.925Y71.975
X82.1Y101.0
X82.175Y69.75
X82.4Y76.675
X82.75Y79.75
X83.05Y72.05
X83.6Y26.2
X83.6Y24.35
X83.6Y22.5
X83.65Y20.85
X83.7Y28.5
X83.9Y71.215
X84.2Y11.9
X84.22Y77.33
X84.4Y37.9
X84.6Y37.0
X84.7Y74.1
X84.75Y28.65
X84.8Y35.6
X84.8Y21.9
X84.9Y13.1
X84.91Y71.23
X85.3Y75.8
X85.8Y10.6
X87.522Y99.092
X87.522Y86.646
X88.284Y59.468
X88.538Y50.832
X88.792Y89.694
X89.2Y23.05
X89.3Y59.468
X89.554Y84.614
X90.022Y14.978
X90.062Y85.376
X90.062Y60.484
X90.464Y96.7
X90.5Y86.7
X90.75Y37.804
X90.824Y99.092
X90.824Y62.262
X91.2Y20.9
X91.55Y24.75
X92.85Y100.3
X92.875Y55.025
X93.11Y47.784
X93.95Y70.7
X94.05Y5.95
X94.15Y21.0
X94.38Y99.092
X94.634Y69.12
X94.85Y7.35
X94.888Y55.15
X95.0Y78.55
X95.0Y76.3
X95.45Y17.05
X95.904Y66.834
X95.95Y18.1
X96.15Y72.9
X96.45Y81.9
X96.666Y83.852
X96.8Y68.45
X96.92Y78.518
X96.92Y56.928
X97.35Y13.35
X97.45Y71.6
X97.5Y72.9
X97.6Y84.4
X97.9Y7.85
X97.936Y91.218
X98.19Y37.116
X98.4Y34.75
X98.4Y23.35
X98.698Y94.52
X98.952Y81.566
T2
X2.4Y85.05
X10.337Y46.991
X13.0Y107.4
X13.05Y105.25
X13.1Y100.15
X15.5Y108.9
X16.5Y106.9
X21.5Y3.5
X24.0Y58.0
X25.0Y108.9
X25.0Y33.0
X26.0Y106.9
X27.375Y79.8
X28.0Y108.4
X28.475Y80.2
X29.0Y28.5
X29.0Y3.5
X29.425Y77.525
X29.5Y81.2
X30.425Y78.5
X30.575Y81.3
X30.88Y49.054
X31.425Y78.45
X31.525Y50.07
X32.425Y78.625
X32.9Y50.2
X33.35Y51.3
X34.436Y46.514
X34.5Y108.9
X36.4Y102.7
X38.5Y46.514
X39.4Y49.0
X39.7Y47.784
X44.55Y101.1
X45.5Y43.4
X49.0Y50.275
X50.8Y51.125
X52.0Y40.0
X61.0Y106.4
X61.8Y103.3
X63.0Y108.4
X69.0Y30.0
X69.5Y54.0
X70.0Y4.0
X72.5Y108.4
X72.5Y54.0
X73.0Y106.2
X74.0Y103.5
X74.0Y66.0
X75.0Y108.4
X78.0Y4.0
X78.0Y94.1
X84.2Y107.6
X84.2Y101.8
X86.0Y107.6
X88.0Y107.6
X89.0Y101.8
X90.75Y51.8
X93.5Y96.15
T0
M30
