G04 #@! TF.GenerationSoftware,KiCad,Pcbnew,(5.1.4-0-10_14)*
G04 #@! TF.CreationDate,2019-12-13T16:10:25+01:00*
G04 #@! TF.ProjectId,cz-badge-hardware,637a2d62-6164-4676-952d-686172647761,rev?*
G04 #@! TF.SameCoordinates,PX17d7840PY7735940*
G04 #@! TF.FileFunction,Soldermask,Top*
G04 #@! TF.FilePolarity,Negative*
%FSLAX46Y46*%
G04 Gerber Fmt 4.6, Leading zero omitted, Abs format (unit mm)*
G04 Created by KiCad (PCBNEW (5.1.4-0-10_14)) date 2019-12-13 16:10:25*
%MOMM*%
%LPD*%
G04 APERTURE LIST*
%ADD10C,0.100000*%
G04 APERTURE END LIST*
D10*
G36*
X87000000Y16700000D02*
G01*
X87000000Y20800000D01*
X87800000Y20800000D01*
X89000000Y20700000D01*
X90000000Y20400000D01*
X90800000Y20100000D01*
X91500000Y19800000D01*
X92300000Y19300000D01*
X93000000Y18800000D01*
X93600000Y18200000D01*
X94100000Y17600000D01*
X94500000Y17000000D01*
X94900000Y16300000D01*
X95300000Y15400000D01*
X95500000Y14800000D01*
X95700000Y13900000D01*
X95800000Y13500000D01*
X91600000Y13500000D01*
X91400000Y14100000D01*
X91100000Y14700000D01*
X90600000Y15400000D01*
X90000000Y15900000D01*
X89600000Y16200000D01*
X89200000Y16400000D01*
X88700000Y16600000D01*
X88200000Y16700000D01*
X87000000Y16700000D01*
G37*
X87000000Y16700000D02*
X87000000Y20800000D01*
X87800000Y20800000D01*
X89000000Y20700000D01*
X90000000Y20400000D01*
X90800000Y20100000D01*
X91500000Y19800000D01*
X92300000Y19300000D01*
X93000000Y18800000D01*
X93600000Y18200000D01*
X94100000Y17600000D01*
X94500000Y17000000D01*
X94900000Y16300000D01*
X95300000Y15400000D01*
X95500000Y14800000D01*
X95700000Y13900000D01*
X95800000Y13500000D01*
X91600000Y13500000D01*
X91400000Y14100000D01*
X91100000Y14700000D01*
X90600000Y15400000D01*
X90000000Y15900000D01*
X89600000Y16200000D01*
X89200000Y16400000D01*
X88700000Y16600000D01*
X88200000Y16700000D01*
X87000000Y16700000D01*
G36*
X79200000Y12500000D02*
G01*
X79200000Y12900000D01*
X79300000Y13900000D01*
X79600000Y15100000D01*
X80000000Y16100000D01*
X80300000Y16700000D01*
X80800000Y17400000D01*
X81400000Y18200000D01*
X82300000Y19000000D01*
X83000000Y19500000D01*
X83700000Y19900000D01*
X84600000Y20300000D01*
X85500000Y20600000D01*
X86100000Y20700000D01*
X87000000Y20800000D01*
X87000000Y16700000D01*
X86400000Y16600000D01*
X85800000Y16400000D01*
X85300000Y16100000D01*
X84700000Y15700000D01*
X84100000Y15000000D01*
X83600000Y14200000D01*
X83400000Y13500000D01*
X83300000Y12500000D01*
X79200000Y12500000D01*
G37*
X79200000Y12500000D02*
X79200000Y12900000D01*
X79300000Y13900000D01*
X79600000Y15100000D01*
X80000000Y16100000D01*
X80300000Y16700000D01*
X80800000Y17400000D01*
X81400000Y18200000D01*
X82300000Y19000000D01*
X83000000Y19500000D01*
X83700000Y19900000D01*
X84600000Y20300000D01*
X85500000Y20600000D01*
X86100000Y20700000D01*
X87000000Y20800000D01*
X87000000Y16700000D01*
X86400000Y16600000D01*
X85800000Y16400000D01*
X85300000Y16100000D01*
X84700000Y15700000D01*
X84100000Y15000000D01*
X83600000Y14200000D01*
X83400000Y13500000D01*
X83300000Y12500000D01*
X79200000Y12500000D01*
G36*
X90200000Y4600000D02*
G01*
X90700000Y4800000D01*
X91500000Y5200000D01*
X92300000Y5700000D01*
X92900000Y6200000D01*
X93300000Y6500000D01*
X93800000Y7100000D01*
X94500000Y8000000D01*
X94800000Y8500000D01*
X95100000Y9100000D01*
X95300000Y9600000D01*
X95500000Y10200000D01*
X95600000Y10600000D01*
X95700000Y11200000D01*
X95800000Y13100000D01*
X95800000Y13500000D01*
X91600000Y13500000D01*
X91700000Y13200000D01*
X91700000Y12800000D01*
X91700000Y11900000D01*
X91600000Y11400000D01*
X91400000Y10800000D01*
X91100000Y10300000D01*
X90800000Y9800000D01*
X90200000Y9200000D01*
X90200000Y4600000D01*
G37*
X90200000Y4600000D02*
X90700000Y4800000D01*
X91500000Y5200000D01*
X92300000Y5700000D01*
X92900000Y6200000D01*
X93300000Y6500000D01*
X93800000Y7100000D01*
X94500000Y8000000D01*
X94800000Y8500000D01*
X95100000Y9100000D01*
X95300000Y9600000D01*
X95500000Y10200000D01*
X95600000Y10600000D01*
X95700000Y11200000D01*
X95800000Y13100000D01*
X95800000Y13500000D01*
X91600000Y13500000D01*
X91700000Y13200000D01*
X91700000Y12800000D01*
X91700000Y11900000D01*
X91600000Y11400000D01*
X91400000Y10800000D01*
X91100000Y10300000D01*
X90800000Y9800000D01*
X90200000Y9200000D01*
X90200000Y4600000D01*
G36*
X79200000Y12500000D02*
G01*
X83300000Y12500000D01*
X83300000Y12000000D01*
X83600000Y10800000D01*
X84300000Y9700000D01*
X85100000Y9000000D01*
X85800000Y8600000D01*
X86900000Y8300000D01*
X88000000Y8300000D01*
X89200000Y8600000D01*
X90200000Y9200000D01*
X90200000Y4600000D01*
X88400000Y4200000D01*
X87000000Y4200000D01*
X85500000Y4400000D01*
X84300000Y4800000D01*
X83400000Y5200000D01*
X82500000Y5800000D01*
X81300000Y6900000D01*
X80500000Y8000000D01*
X80000000Y8800000D01*
X79400000Y10400000D01*
X79200000Y11800000D01*
X79200000Y12500000D01*
G37*
X79200000Y12500000D02*
X83300000Y12500000D01*
X83300000Y12000000D01*
X83600000Y10800000D01*
X84300000Y9700000D01*
X85100000Y9000000D01*
X85800000Y8600000D01*
X86900000Y8300000D01*
X88000000Y8300000D01*
X89200000Y8600000D01*
X90200000Y9200000D01*
X90200000Y4600000D01*
X88400000Y4200000D01*
X87000000Y4200000D01*
X85500000Y4400000D01*
X84300000Y4800000D01*
X83400000Y5200000D01*
X82500000Y5800000D01*
X81300000Y6900000D01*
X80500000Y8000000D01*
X80000000Y8800000D01*
X79400000Y10400000D01*
X79200000Y11800000D01*
X79200000Y12500000D01*
G36*
X62000000Y16700000D02*
G01*
X62000000Y20800000D01*
X62800000Y20800000D01*
X64000000Y20700000D01*
X65000000Y20400000D01*
X65800000Y20100000D01*
X66500000Y19800000D01*
X67300000Y19300000D01*
X68000000Y18800000D01*
X68600000Y18200000D01*
X69100000Y17600000D01*
X69500000Y17000000D01*
X69900000Y16300000D01*
X70300000Y15400000D01*
X70500000Y14800000D01*
X70700000Y13900000D01*
X70800000Y13500000D01*
X66600000Y13500000D01*
X66400000Y14100000D01*
X66100000Y14700000D01*
X65600000Y15400000D01*
X65000000Y15900000D01*
X64600000Y16200000D01*
X64200000Y16400000D01*
X63700000Y16600000D01*
X63200000Y16700000D01*
X62000000Y16700000D01*
G37*
X62000000Y16700000D02*
X62000000Y20800000D01*
X62800000Y20800000D01*
X64000000Y20700000D01*
X65000000Y20400000D01*
X65800000Y20100000D01*
X66500000Y19800000D01*
X67300000Y19300000D01*
X68000000Y18800000D01*
X68600000Y18200000D01*
X69100000Y17600000D01*
X69500000Y17000000D01*
X69900000Y16300000D01*
X70300000Y15400000D01*
X70500000Y14800000D01*
X70700000Y13900000D01*
X70800000Y13500000D01*
X66600000Y13500000D01*
X66400000Y14100000D01*
X66100000Y14700000D01*
X65600000Y15400000D01*
X65000000Y15900000D01*
X64600000Y16200000D01*
X64200000Y16400000D01*
X63700000Y16600000D01*
X63200000Y16700000D01*
X62000000Y16700000D01*
G36*
X54200000Y12500000D02*
G01*
X54200000Y12900000D01*
X54300000Y13900000D01*
X54600000Y15100000D01*
X55000000Y16100000D01*
X55300000Y16700000D01*
X55800000Y17400000D01*
X56400000Y18200000D01*
X57300000Y19000000D01*
X58000000Y19500000D01*
X58700000Y19900000D01*
X59600000Y20300000D01*
X60500000Y20600000D01*
X61100000Y20700000D01*
X62000000Y20800000D01*
X62000000Y16700000D01*
X61400000Y16600000D01*
X60800000Y16400000D01*
X60300000Y16100000D01*
X59700000Y15700000D01*
X59100000Y15000000D01*
X58600000Y14200000D01*
X58400000Y13500000D01*
X58300000Y12500000D01*
X54200000Y12500000D01*
G37*
X54200000Y12500000D02*
X54200000Y12900000D01*
X54300000Y13900000D01*
X54600000Y15100000D01*
X55000000Y16100000D01*
X55300000Y16700000D01*
X55800000Y17400000D01*
X56400000Y18200000D01*
X57300000Y19000000D01*
X58000000Y19500000D01*
X58700000Y19900000D01*
X59600000Y20300000D01*
X60500000Y20600000D01*
X61100000Y20700000D01*
X62000000Y20800000D01*
X62000000Y16700000D01*
X61400000Y16600000D01*
X60800000Y16400000D01*
X60300000Y16100000D01*
X59700000Y15700000D01*
X59100000Y15000000D01*
X58600000Y14200000D01*
X58400000Y13500000D01*
X58300000Y12500000D01*
X54200000Y12500000D01*
G36*
X65200000Y4600000D02*
G01*
X65700000Y4800000D01*
X66500000Y5200000D01*
X67300000Y5700000D01*
X67900000Y6200000D01*
X68300000Y6500000D01*
X68800000Y7100000D01*
X69500000Y8000000D01*
X69800000Y8500000D01*
X70100000Y9100000D01*
X70300000Y9600000D01*
X70500000Y10200000D01*
X70600000Y10600000D01*
X70700000Y11200000D01*
X70800000Y13100000D01*
X70800000Y13500000D01*
X66600000Y13500000D01*
X66700000Y13200000D01*
X66700000Y12800000D01*
X66700000Y11900000D01*
X66600000Y11400000D01*
X66400000Y10800000D01*
X66100000Y10300000D01*
X65800000Y9800000D01*
X65200000Y9200000D01*
X65200000Y4600000D01*
G37*
X65200000Y4600000D02*
X65700000Y4800000D01*
X66500000Y5200000D01*
X67300000Y5700000D01*
X67900000Y6200000D01*
X68300000Y6500000D01*
X68800000Y7100000D01*
X69500000Y8000000D01*
X69800000Y8500000D01*
X70100000Y9100000D01*
X70300000Y9600000D01*
X70500000Y10200000D01*
X70600000Y10600000D01*
X70700000Y11200000D01*
X70800000Y13100000D01*
X70800000Y13500000D01*
X66600000Y13500000D01*
X66700000Y13200000D01*
X66700000Y12800000D01*
X66700000Y11900000D01*
X66600000Y11400000D01*
X66400000Y10800000D01*
X66100000Y10300000D01*
X65800000Y9800000D01*
X65200000Y9200000D01*
X65200000Y4600000D01*
G36*
X54200000Y12500000D02*
G01*
X58300000Y12500000D01*
X58300000Y12000000D01*
X58600000Y10800000D01*
X59300000Y9700000D01*
X60100000Y9000000D01*
X60800000Y8600000D01*
X61900000Y8300000D01*
X63000000Y8300000D01*
X64200000Y8600000D01*
X65200000Y9200000D01*
X65200000Y4600000D01*
X63400000Y4200000D01*
X62000000Y4200000D01*
X60500000Y4400000D01*
X59300000Y4800000D01*
X58400000Y5200000D01*
X57500000Y5800000D01*
X56300000Y6900000D01*
X55500000Y8000000D01*
X55000000Y8800000D01*
X54400000Y10400000D01*
X54200000Y11800000D01*
X54200000Y12500000D01*
G37*
X54200000Y12500000D02*
X58300000Y12500000D01*
X58300000Y12000000D01*
X58600000Y10800000D01*
X59300000Y9700000D01*
X60100000Y9000000D01*
X60800000Y8600000D01*
X61900000Y8300000D01*
X63000000Y8300000D01*
X64200000Y8600000D01*
X65200000Y9200000D01*
X65200000Y4600000D01*
X63400000Y4200000D01*
X62000000Y4200000D01*
X60500000Y4400000D01*
X59300000Y4800000D01*
X58400000Y5200000D01*
X57500000Y5800000D01*
X56300000Y6900000D01*
X55500000Y8000000D01*
X55000000Y8800000D01*
X54400000Y10400000D01*
X54200000Y11800000D01*
X54200000Y12500000D01*
G36*
X37000000Y16700000D02*
G01*
X37000000Y20800000D01*
X37800000Y20800000D01*
X39000000Y20700000D01*
X40000000Y20400000D01*
X40800000Y20100000D01*
X41500000Y19800000D01*
X42300000Y19300000D01*
X43000000Y18800000D01*
X43600000Y18200000D01*
X44100000Y17600000D01*
X44500000Y17000000D01*
X44900000Y16300000D01*
X45300000Y15400000D01*
X45500000Y14800000D01*
X45700000Y13900000D01*
X45800000Y13500000D01*
X41600000Y13500000D01*
X41400000Y14100000D01*
X41100000Y14700000D01*
X40600000Y15400000D01*
X40000000Y15900000D01*
X39600000Y16200000D01*
X39200000Y16400000D01*
X38700000Y16600000D01*
X38200000Y16700000D01*
X37000000Y16700000D01*
G37*
X37000000Y16700000D02*
X37000000Y20800000D01*
X37800000Y20800000D01*
X39000000Y20700000D01*
X40000000Y20400000D01*
X40800000Y20100000D01*
X41500000Y19800000D01*
X42300000Y19300000D01*
X43000000Y18800000D01*
X43600000Y18200000D01*
X44100000Y17600000D01*
X44500000Y17000000D01*
X44900000Y16300000D01*
X45300000Y15400000D01*
X45500000Y14800000D01*
X45700000Y13900000D01*
X45800000Y13500000D01*
X41600000Y13500000D01*
X41400000Y14100000D01*
X41100000Y14700000D01*
X40600000Y15400000D01*
X40000000Y15900000D01*
X39600000Y16200000D01*
X39200000Y16400000D01*
X38700000Y16600000D01*
X38200000Y16700000D01*
X37000000Y16700000D01*
G36*
X29200000Y12500000D02*
G01*
X29200000Y12900000D01*
X29300000Y13900000D01*
X29600000Y15100000D01*
X30000000Y16100000D01*
X30300000Y16700000D01*
X30800000Y17400000D01*
X31400000Y18200000D01*
X32300000Y19000000D01*
X33000000Y19500000D01*
X33700000Y19900000D01*
X34600000Y20300000D01*
X35500000Y20600000D01*
X36100000Y20700000D01*
X37000000Y20800000D01*
X37000000Y16700000D01*
X36400000Y16600000D01*
X35800000Y16400000D01*
X35300000Y16100000D01*
X34700000Y15700000D01*
X34100000Y15000000D01*
X33600000Y14200000D01*
X33400000Y13500000D01*
X33300000Y12500000D01*
X29200000Y12500000D01*
G37*
X29200000Y12500000D02*
X29200000Y12900000D01*
X29300000Y13900000D01*
X29600000Y15100000D01*
X30000000Y16100000D01*
X30300000Y16700000D01*
X30800000Y17400000D01*
X31400000Y18200000D01*
X32300000Y19000000D01*
X33000000Y19500000D01*
X33700000Y19900000D01*
X34600000Y20300000D01*
X35500000Y20600000D01*
X36100000Y20700000D01*
X37000000Y20800000D01*
X37000000Y16700000D01*
X36400000Y16600000D01*
X35800000Y16400000D01*
X35300000Y16100000D01*
X34700000Y15700000D01*
X34100000Y15000000D01*
X33600000Y14200000D01*
X33400000Y13500000D01*
X33300000Y12500000D01*
X29200000Y12500000D01*
G36*
X40200000Y4600000D02*
G01*
X40700000Y4800000D01*
X41500000Y5200000D01*
X42300000Y5700000D01*
X42900000Y6200000D01*
X43300000Y6500000D01*
X43800000Y7100000D01*
X44500000Y8000000D01*
X44800000Y8500000D01*
X45100000Y9100000D01*
X45300000Y9600000D01*
X45500000Y10200000D01*
X45600000Y10600000D01*
X45700000Y11200000D01*
X45800000Y13100000D01*
X45800000Y13500000D01*
X41600000Y13500000D01*
X41700000Y13200000D01*
X41700000Y12800000D01*
X41700000Y11900000D01*
X41600000Y11400000D01*
X41400000Y10800000D01*
X41100000Y10300000D01*
X40800000Y9800000D01*
X40200000Y9200000D01*
X40200000Y4600000D01*
G37*
X40200000Y4600000D02*
X40700000Y4800000D01*
X41500000Y5200000D01*
X42300000Y5700000D01*
X42900000Y6200000D01*
X43300000Y6500000D01*
X43800000Y7100000D01*
X44500000Y8000000D01*
X44800000Y8500000D01*
X45100000Y9100000D01*
X45300000Y9600000D01*
X45500000Y10200000D01*
X45600000Y10600000D01*
X45700000Y11200000D01*
X45800000Y13100000D01*
X45800000Y13500000D01*
X41600000Y13500000D01*
X41700000Y13200000D01*
X41700000Y12800000D01*
X41700000Y11900000D01*
X41600000Y11400000D01*
X41400000Y10800000D01*
X41100000Y10300000D01*
X40800000Y9800000D01*
X40200000Y9200000D01*
X40200000Y4600000D01*
G36*
X29200000Y12500000D02*
G01*
X33300000Y12500000D01*
X33300000Y12000000D01*
X33600000Y10800000D01*
X34300000Y9700000D01*
X35100000Y9000000D01*
X35800000Y8600000D01*
X36900000Y8300000D01*
X38000000Y8300000D01*
X39200000Y8600000D01*
X40200000Y9200000D01*
X40200000Y4600000D01*
X38400000Y4200000D01*
X37000000Y4200000D01*
X35500000Y4400000D01*
X34300000Y4800000D01*
X33400000Y5200000D01*
X32500000Y5800000D01*
X31300000Y6900000D01*
X30500000Y8000000D01*
X30000000Y8800000D01*
X29400000Y10400000D01*
X29200000Y11800000D01*
X29200000Y12500000D01*
G37*
X29200000Y12500000D02*
X33300000Y12500000D01*
X33300000Y12000000D01*
X33600000Y10800000D01*
X34300000Y9700000D01*
X35100000Y9000000D01*
X35800000Y8600000D01*
X36900000Y8300000D01*
X38000000Y8300000D01*
X39200000Y8600000D01*
X40200000Y9200000D01*
X40200000Y4600000D01*
X38400000Y4200000D01*
X37000000Y4200000D01*
X35500000Y4400000D01*
X34300000Y4800000D01*
X33400000Y5200000D01*
X32500000Y5800000D01*
X31300000Y6900000D01*
X30500000Y8000000D01*
X30000000Y8800000D01*
X29400000Y10400000D01*
X29200000Y11800000D01*
X29200000Y12500000D01*
G36*
X12000000Y16700000D02*
G01*
X12000000Y20800000D01*
X12800000Y20800000D01*
X14000000Y20700000D01*
X15000000Y20400000D01*
X15800000Y20100000D01*
X16500000Y19800000D01*
X17300000Y19300000D01*
X18000000Y18800000D01*
X18600000Y18200000D01*
X19100000Y17600000D01*
X19500000Y17000000D01*
X19900000Y16300000D01*
X20300000Y15400000D01*
X20500000Y14800000D01*
X20700000Y13900000D01*
X20800000Y13500000D01*
X16600000Y13500000D01*
X16400000Y14100000D01*
X16100000Y14700000D01*
X15600000Y15400000D01*
X15000000Y15900000D01*
X14600000Y16200000D01*
X14200000Y16400000D01*
X13700000Y16600000D01*
X13200000Y16700000D01*
X12000000Y16700000D01*
G37*
X12000000Y16700000D02*
X12000000Y20800000D01*
X12800000Y20800000D01*
X14000000Y20700000D01*
X15000000Y20400000D01*
X15800000Y20100000D01*
X16500000Y19800000D01*
X17300000Y19300000D01*
X18000000Y18800000D01*
X18600000Y18200000D01*
X19100000Y17600000D01*
X19500000Y17000000D01*
X19900000Y16300000D01*
X20300000Y15400000D01*
X20500000Y14800000D01*
X20700000Y13900000D01*
X20800000Y13500000D01*
X16600000Y13500000D01*
X16400000Y14100000D01*
X16100000Y14700000D01*
X15600000Y15400000D01*
X15000000Y15900000D01*
X14600000Y16200000D01*
X14200000Y16400000D01*
X13700000Y16600000D01*
X13200000Y16700000D01*
X12000000Y16700000D01*
G36*
X4200000Y12500000D02*
G01*
X4200000Y12900000D01*
X4300000Y13900000D01*
X4600000Y15100000D01*
X5000000Y16100000D01*
X5300000Y16700000D01*
X5800000Y17400000D01*
X6400000Y18200000D01*
X7300000Y19000000D01*
X8000000Y19500000D01*
X8700000Y19900000D01*
X9600000Y20300000D01*
X10500000Y20600000D01*
X11100000Y20700000D01*
X12000000Y20800000D01*
X12000000Y16700000D01*
X11400000Y16600000D01*
X10800000Y16400000D01*
X10300000Y16100000D01*
X9700000Y15700000D01*
X9100000Y15000000D01*
X8600000Y14200000D01*
X8400000Y13500000D01*
X8300000Y12500000D01*
X4200000Y12500000D01*
G37*
X4200000Y12500000D02*
X4200000Y12900000D01*
X4300000Y13900000D01*
X4600000Y15100000D01*
X5000000Y16100000D01*
X5300000Y16700000D01*
X5800000Y17400000D01*
X6400000Y18200000D01*
X7300000Y19000000D01*
X8000000Y19500000D01*
X8700000Y19900000D01*
X9600000Y20300000D01*
X10500000Y20600000D01*
X11100000Y20700000D01*
X12000000Y20800000D01*
X12000000Y16700000D01*
X11400000Y16600000D01*
X10800000Y16400000D01*
X10300000Y16100000D01*
X9700000Y15700000D01*
X9100000Y15000000D01*
X8600000Y14200000D01*
X8400000Y13500000D01*
X8300000Y12500000D01*
X4200000Y12500000D01*
G36*
X15200000Y4600000D02*
G01*
X15700000Y4800000D01*
X16500000Y5200000D01*
X17300000Y5700000D01*
X17900000Y6200000D01*
X18300000Y6500000D01*
X18800000Y7100000D01*
X19500000Y8000000D01*
X19800000Y8500000D01*
X20100000Y9100000D01*
X20300000Y9600000D01*
X20500000Y10200000D01*
X20600000Y10600000D01*
X20700000Y11200000D01*
X20800000Y13100000D01*
X20800000Y13500000D01*
X16600000Y13500000D01*
X16700000Y13200000D01*
X16700000Y12800000D01*
X16700000Y11900000D01*
X16600000Y11400000D01*
X16400000Y10800000D01*
X16100000Y10300000D01*
X15800000Y9800000D01*
X15200000Y9200000D01*
X15200000Y4600000D01*
G37*
X15200000Y4600000D02*
X15700000Y4800000D01*
X16500000Y5200000D01*
X17300000Y5700000D01*
X17900000Y6200000D01*
X18300000Y6500000D01*
X18800000Y7100000D01*
X19500000Y8000000D01*
X19800000Y8500000D01*
X20100000Y9100000D01*
X20300000Y9600000D01*
X20500000Y10200000D01*
X20600000Y10600000D01*
X20700000Y11200000D01*
X20800000Y13100000D01*
X20800000Y13500000D01*
X16600000Y13500000D01*
X16700000Y13200000D01*
X16700000Y12800000D01*
X16700000Y11900000D01*
X16600000Y11400000D01*
X16400000Y10800000D01*
X16100000Y10300000D01*
X15800000Y9800000D01*
X15200000Y9200000D01*
X15200000Y4600000D01*
G36*
X4200000Y12500000D02*
G01*
X8300000Y12500000D01*
X8300000Y12000000D01*
X8600000Y10800000D01*
X9300000Y9700000D01*
X10100000Y9000000D01*
X10800000Y8600000D01*
X11900000Y8300000D01*
X13000000Y8300000D01*
X14200000Y8600000D01*
X15200000Y9200000D01*
X15200000Y4600000D01*
X13400000Y4200000D01*
X12000000Y4200000D01*
X10500000Y4400000D01*
X9300000Y4800000D01*
X8400000Y5200000D01*
X7500000Y5800000D01*
X6300000Y6900000D01*
X5500000Y8000000D01*
X5000000Y8800000D01*
X4400000Y10400000D01*
X4200000Y11800000D01*
X4200000Y12500000D01*
G37*
X4200000Y12500000D02*
X8300000Y12500000D01*
X8300000Y12000000D01*
X8600000Y10800000D01*
X9300000Y9700000D01*
X10100000Y9000000D01*
X10800000Y8600000D01*
X11900000Y8300000D01*
X13000000Y8300000D01*
X14200000Y8600000D01*
X15200000Y9200000D01*
X15200000Y4600000D01*
X13400000Y4200000D01*
X12000000Y4200000D01*
X10500000Y4400000D01*
X9300000Y4800000D01*
X8400000Y5200000D01*
X7500000Y5800000D01*
X6300000Y6900000D01*
X5500000Y8000000D01*
X5000000Y8800000D01*
X4400000Y10400000D01*
X4200000Y11800000D01*
X4200000Y12500000D01*
G36*
X87000000Y41700000D02*
G01*
X87000000Y45800000D01*
X87800000Y45800000D01*
X89000000Y45700000D01*
X90000000Y45400000D01*
X90800000Y45100000D01*
X91500000Y44800000D01*
X92300000Y44300000D01*
X93000000Y43800000D01*
X93600000Y43200000D01*
X94100000Y42600000D01*
X94500000Y42000000D01*
X94900000Y41300000D01*
X95300000Y40400000D01*
X95500000Y39800000D01*
X95700000Y38900000D01*
X95800000Y38500000D01*
X91600000Y38500000D01*
X91400000Y39100000D01*
X91100000Y39700000D01*
X90600000Y40400000D01*
X90000000Y40900000D01*
X89600000Y41200000D01*
X89200000Y41400000D01*
X88700000Y41600000D01*
X88200000Y41700000D01*
X87000000Y41700000D01*
G37*
X87000000Y41700000D02*
X87000000Y45800000D01*
X87800000Y45800000D01*
X89000000Y45700000D01*
X90000000Y45400000D01*
X90800000Y45100000D01*
X91500000Y44800000D01*
X92300000Y44300000D01*
X93000000Y43800000D01*
X93600000Y43200000D01*
X94100000Y42600000D01*
X94500000Y42000000D01*
X94900000Y41300000D01*
X95300000Y40400000D01*
X95500000Y39800000D01*
X95700000Y38900000D01*
X95800000Y38500000D01*
X91600000Y38500000D01*
X91400000Y39100000D01*
X91100000Y39700000D01*
X90600000Y40400000D01*
X90000000Y40900000D01*
X89600000Y41200000D01*
X89200000Y41400000D01*
X88700000Y41600000D01*
X88200000Y41700000D01*
X87000000Y41700000D01*
G36*
X79200000Y37500000D02*
G01*
X79200000Y37900000D01*
X79300000Y38900000D01*
X79600000Y40100000D01*
X80000000Y41100000D01*
X80300000Y41700000D01*
X80800000Y42400000D01*
X81400000Y43200000D01*
X82300000Y44000000D01*
X83000000Y44500000D01*
X83700000Y44900000D01*
X84600000Y45300000D01*
X85500000Y45600000D01*
X86100000Y45700000D01*
X87000000Y45800000D01*
X87000000Y41700000D01*
X86400000Y41600000D01*
X85800000Y41400000D01*
X85300000Y41100000D01*
X84700000Y40700000D01*
X84100000Y40000000D01*
X83600000Y39200000D01*
X83400000Y38500000D01*
X83300000Y37500000D01*
X79200000Y37500000D01*
G37*
X79200000Y37500000D02*
X79200000Y37900000D01*
X79300000Y38900000D01*
X79600000Y40100000D01*
X80000000Y41100000D01*
X80300000Y41700000D01*
X80800000Y42400000D01*
X81400000Y43200000D01*
X82300000Y44000000D01*
X83000000Y44500000D01*
X83700000Y44900000D01*
X84600000Y45300000D01*
X85500000Y45600000D01*
X86100000Y45700000D01*
X87000000Y45800000D01*
X87000000Y41700000D01*
X86400000Y41600000D01*
X85800000Y41400000D01*
X85300000Y41100000D01*
X84700000Y40700000D01*
X84100000Y40000000D01*
X83600000Y39200000D01*
X83400000Y38500000D01*
X83300000Y37500000D01*
X79200000Y37500000D01*
G36*
X90200000Y29600000D02*
G01*
X90700000Y29800000D01*
X91500000Y30200000D01*
X92300000Y30700000D01*
X92900000Y31200000D01*
X93300000Y31500000D01*
X93800000Y32100000D01*
X94500000Y33000000D01*
X94800000Y33500000D01*
X95100000Y34100000D01*
X95300000Y34600000D01*
X95500000Y35200000D01*
X95600000Y35600000D01*
X95700000Y36200000D01*
X95800000Y38100000D01*
X95800000Y38500000D01*
X91600000Y38500000D01*
X91700000Y38200000D01*
X91700000Y37800000D01*
X91700000Y36900000D01*
X91600000Y36400000D01*
X91400000Y35800000D01*
X91100000Y35300000D01*
X90800000Y34800000D01*
X90200000Y34200000D01*
X90200000Y29600000D01*
G37*
X90200000Y29600000D02*
X90700000Y29800000D01*
X91500000Y30200000D01*
X92300000Y30700000D01*
X92900000Y31200000D01*
X93300000Y31500000D01*
X93800000Y32100000D01*
X94500000Y33000000D01*
X94800000Y33500000D01*
X95100000Y34100000D01*
X95300000Y34600000D01*
X95500000Y35200000D01*
X95600000Y35600000D01*
X95700000Y36200000D01*
X95800000Y38100000D01*
X95800000Y38500000D01*
X91600000Y38500000D01*
X91700000Y38200000D01*
X91700000Y37800000D01*
X91700000Y36900000D01*
X91600000Y36400000D01*
X91400000Y35800000D01*
X91100000Y35300000D01*
X90800000Y34800000D01*
X90200000Y34200000D01*
X90200000Y29600000D01*
G36*
X79200000Y37500000D02*
G01*
X83300000Y37500000D01*
X83300000Y37000000D01*
X83600000Y35800000D01*
X84300000Y34700000D01*
X85100000Y34000000D01*
X85800000Y33600000D01*
X86900000Y33300000D01*
X88000000Y33300000D01*
X89200000Y33600000D01*
X90200000Y34200000D01*
X90200000Y29600000D01*
X88400000Y29200000D01*
X87000000Y29200000D01*
X85500000Y29400000D01*
X84300000Y29800000D01*
X83400000Y30200000D01*
X82500000Y30800000D01*
X81300000Y31900000D01*
X80500000Y33000000D01*
X80000000Y33800000D01*
X79400000Y35400000D01*
X79200000Y36800000D01*
X79200000Y37500000D01*
G37*
X79200000Y37500000D02*
X83300000Y37500000D01*
X83300000Y37000000D01*
X83600000Y35800000D01*
X84300000Y34700000D01*
X85100000Y34000000D01*
X85800000Y33600000D01*
X86900000Y33300000D01*
X88000000Y33300000D01*
X89200000Y33600000D01*
X90200000Y34200000D01*
X90200000Y29600000D01*
X88400000Y29200000D01*
X87000000Y29200000D01*
X85500000Y29400000D01*
X84300000Y29800000D01*
X83400000Y30200000D01*
X82500000Y30800000D01*
X81300000Y31900000D01*
X80500000Y33000000D01*
X80000000Y33800000D01*
X79400000Y35400000D01*
X79200000Y36800000D01*
X79200000Y37500000D01*
G36*
X62000000Y41700000D02*
G01*
X62000000Y45800000D01*
X62800000Y45800000D01*
X64000000Y45700000D01*
X65000000Y45400000D01*
X65800000Y45100000D01*
X66500000Y44800000D01*
X67300000Y44300000D01*
X68000000Y43800000D01*
X68600000Y43200000D01*
X69100000Y42600000D01*
X69500000Y42000000D01*
X69900000Y41300000D01*
X70300000Y40400000D01*
X70500000Y39800000D01*
X70700000Y38900000D01*
X70800000Y38500000D01*
X66600000Y38500000D01*
X66400000Y39100000D01*
X66100000Y39700000D01*
X65600000Y40400000D01*
X65000000Y40900000D01*
X64600000Y41200000D01*
X64200000Y41400000D01*
X63700000Y41600000D01*
X63200000Y41700000D01*
X62000000Y41700000D01*
G37*
X62000000Y41700000D02*
X62000000Y45800000D01*
X62800000Y45800000D01*
X64000000Y45700000D01*
X65000000Y45400000D01*
X65800000Y45100000D01*
X66500000Y44800000D01*
X67300000Y44300000D01*
X68000000Y43800000D01*
X68600000Y43200000D01*
X69100000Y42600000D01*
X69500000Y42000000D01*
X69900000Y41300000D01*
X70300000Y40400000D01*
X70500000Y39800000D01*
X70700000Y38900000D01*
X70800000Y38500000D01*
X66600000Y38500000D01*
X66400000Y39100000D01*
X66100000Y39700000D01*
X65600000Y40400000D01*
X65000000Y40900000D01*
X64600000Y41200000D01*
X64200000Y41400000D01*
X63700000Y41600000D01*
X63200000Y41700000D01*
X62000000Y41700000D01*
G36*
X54200000Y37500000D02*
G01*
X54200000Y37900000D01*
X54300000Y38900000D01*
X54600000Y40100000D01*
X55000000Y41100000D01*
X55300000Y41700000D01*
X55800000Y42400000D01*
X56400000Y43200000D01*
X57300000Y44000000D01*
X58000000Y44500000D01*
X58700000Y44900000D01*
X59600000Y45300000D01*
X60500000Y45600000D01*
X61100000Y45700000D01*
X62000000Y45800000D01*
X62000000Y41700000D01*
X61400000Y41600000D01*
X60800000Y41400000D01*
X60300000Y41100000D01*
X59700000Y40700000D01*
X59100000Y40000000D01*
X58600000Y39200000D01*
X58400000Y38500000D01*
X58300000Y37500000D01*
X54200000Y37500000D01*
G37*
X54200000Y37500000D02*
X54200000Y37900000D01*
X54300000Y38900000D01*
X54600000Y40100000D01*
X55000000Y41100000D01*
X55300000Y41700000D01*
X55800000Y42400000D01*
X56400000Y43200000D01*
X57300000Y44000000D01*
X58000000Y44500000D01*
X58700000Y44900000D01*
X59600000Y45300000D01*
X60500000Y45600000D01*
X61100000Y45700000D01*
X62000000Y45800000D01*
X62000000Y41700000D01*
X61400000Y41600000D01*
X60800000Y41400000D01*
X60300000Y41100000D01*
X59700000Y40700000D01*
X59100000Y40000000D01*
X58600000Y39200000D01*
X58400000Y38500000D01*
X58300000Y37500000D01*
X54200000Y37500000D01*
G36*
X65200000Y29600000D02*
G01*
X65700000Y29800000D01*
X66500000Y30200000D01*
X67300000Y30700000D01*
X67900000Y31200000D01*
X68300000Y31500000D01*
X68800000Y32100000D01*
X69500000Y33000000D01*
X69800000Y33500000D01*
X70100000Y34100000D01*
X70300000Y34600000D01*
X70500000Y35200000D01*
X70600000Y35600000D01*
X70700000Y36200000D01*
X70800000Y38100000D01*
X70800000Y38500000D01*
X66600000Y38500000D01*
X66700000Y38200000D01*
X66700000Y37800000D01*
X66700000Y36900000D01*
X66600000Y36400000D01*
X66400000Y35800000D01*
X66100000Y35300000D01*
X65800000Y34800000D01*
X65200000Y34200000D01*
X65200000Y29600000D01*
G37*
X65200000Y29600000D02*
X65700000Y29800000D01*
X66500000Y30200000D01*
X67300000Y30700000D01*
X67900000Y31200000D01*
X68300000Y31500000D01*
X68800000Y32100000D01*
X69500000Y33000000D01*
X69800000Y33500000D01*
X70100000Y34100000D01*
X70300000Y34600000D01*
X70500000Y35200000D01*
X70600000Y35600000D01*
X70700000Y36200000D01*
X70800000Y38100000D01*
X70800000Y38500000D01*
X66600000Y38500000D01*
X66700000Y38200000D01*
X66700000Y37800000D01*
X66700000Y36900000D01*
X66600000Y36400000D01*
X66400000Y35800000D01*
X66100000Y35300000D01*
X65800000Y34800000D01*
X65200000Y34200000D01*
X65200000Y29600000D01*
G36*
X54200000Y37500000D02*
G01*
X58300000Y37500000D01*
X58300000Y37000000D01*
X58600000Y35800000D01*
X59300000Y34700000D01*
X60100000Y34000000D01*
X60800000Y33600000D01*
X61900000Y33300000D01*
X63000000Y33300000D01*
X64200000Y33600000D01*
X65200000Y34200000D01*
X65200000Y29600000D01*
X63400000Y29200000D01*
X62000000Y29200000D01*
X60500000Y29400000D01*
X59300000Y29800000D01*
X58400000Y30200000D01*
X57500000Y30800000D01*
X56300000Y31900000D01*
X55500000Y33000000D01*
X55000000Y33800000D01*
X54400000Y35400000D01*
X54200000Y36800000D01*
X54200000Y37500000D01*
G37*
X54200000Y37500000D02*
X58300000Y37500000D01*
X58300000Y37000000D01*
X58600000Y35800000D01*
X59300000Y34700000D01*
X60100000Y34000000D01*
X60800000Y33600000D01*
X61900000Y33300000D01*
X63000000Y33300000D01*
X64200000Y33600000D01*
X65200000Y34200000D01*
X65200000Y29600000D01*
X63400000Y29200000D01*
X62000000Y29200000D01*
X60500000Y29400000D01*
X59300000Y29800000D01*
X58400000Y30200000D01*
X57500000Y30800000D01*
X56300000Y31900000D01*
X55500000Y33000000D01*
X55000000Y33800000D01*
X54400000Y35400000D01*
X54200000Y36800000D01*
X54200000Y37500000D01*
G36*
X37000000Y41700000D02*
G01*
X37000000Y45800000D01*
X37800000Y45800000D01*
X39000000Y45700000D01*
X40000000Y45400000D01*
X40800000Y45100000D01*
X41500000Y44800000D01*
X42300000Y44300000D01*
X43000000Y43800000D01*
X43600000Y43200000D01*
X44100000Y42600000D01*
X44500000Y42000000D01*
X44900000Y41300000D01*
X45300000Y40400000D01*
X45500000Y39800000D01*
X45700000Y38900000D01*
X45800000Y38500000D01*
X41600000Y38500000D01*
X41400000Y39100000D01*
X41100000Y39700000D01*
X40600000Y40400000D01*
X40000000Y40900000D01*
X39600000Y41200000D01*
X39200000Y41400000D01*
X38700000Y41600000D01*
X38200000Y41700000D01*
X37000000Y41700000D01*
G37*
X37000000Y41700000D02*
X37000000Y45800000D01*
X37800000Y45800000D01*
X39000000Y45700000D01*
X40000000Y45400000D01*
X40800000Y45100000D01*
X41500000Y44800000D01*
X42300000Y44300000D01*
X43000000Y43800000D01*
X43600000Y43200000D01*
X44100000Y42600000D01*
X44500000Y42000000D01*
X44900000Y41300000D01*
X45300000Y40400000D01*
X45500000Y39800000D01*
X45700000Y38900000D01*
X45800000Y38500000D01*
X41600000Y38500000D01*
X41400000Y39100000D01*
X41100000Y39700000D01*
X40600000Y40400000D01*
X40000000Y40900000D01*
X39600000Y41200000D01*
X39200000Y41400000D01*
X38700000Y41600000D01*
X38200000Y41700000D01*
X37000000Y41700000D01*
G36*
X29200000Y37500000D02*
G01*
X29200000Y37900000D01*
X29300000Y38900000D01*
X29600000Y40100000D01*
X30000000Y41100000D01*
X30300000Y41700000D01*
X30800000Y42400000D01*
X31400000Y43200000D01*
X32300000Y44000000D01*
X33000000Y44500000D01*
X33700000Y44900000D01*
X34600000Y45300000D01*
X35500000Y45600000D01*
X36100000Y45700000D01*
X37000000Y45800000D01*
X37000000Y41700000D01*
X36400000Y41600000D01*
X35800000Y41400000D01*
X35300000Y41100000D01*
X34700000Y40700000D01*
X34100000Y40000000D01*
X33600000Y39200000D01*
X33400000Y38500000D01*
X33300000Y37500000D01*
X29200000Y37500000D01*
G37*
X29200000Y37500000D02*
X29200000Y37900000D01*
X29300000Y38900000D01*
X29600000Y40100000D01*
X30000000Y41100000D01*
X30300000Y41700000D01*
X30800000Y42400000D01*
X31400000Y43200000D01*
X32300000Y44000000D01*
X33000000Y44500000D01*
X33700000Y44900000D01*
X34600000Y45300000D01*
X35500000Y45600000D01*
X36100000Y45700000D01*
X37000000Y45800000D01*
X37000000Y41700000D01*
X36400000Y41600000D01*
X35800000Y41400000D01*
X35300000Y41100000D01*
X34700000Y40700000D01*
X34100000Y40000000D01*
X33600000Y39200000D01*
X33400000Y38500000D01*
X33300000Y37500000D01*
X29200000Y37500000D01*
G36*
X40200000Y29600000D02*
G01*
X40700000Y29800000D01*
X41500000Y30200000D01*
X42300000Y30700000D01*
X42900000Y31200000D01*
X43300000Y31500000D01*
X43800000Y32100000D01*
X44500000Y33000000D01*
X44800000Y33500000D01*
X45100000Y34100000D01*
X45300000Y34600000D01*
X45500000Y35200000D01*
X45600000Y35600000D01*
X45700000Y36200000D01*
X45800000Y38100000D01*
X45800000Y38500000D01*
X41600000Y38500000D01*
X41700000Y38200000D01*
X41700000Y37800000D01*
X41700000Y36900000D01*
X41600000Y36400000D01*
X41400000Y35800000D01*
X41100000Y35300000D01*
X40800000Y34800000D01*
X40200000Y34200000D01*
X40200000Y29600000D01*
G37*
X40200000Y29600000D02*
X40700000Y29800000D01*
X41500000Y30200000D01*
X42300000Y30700000D01*
X42900000Y31200000D01*
X43300000Y31500000D01*
X43800000Y32100000D01*
X44500000Y33000000D01*
X44800000Y33500000D01*
X45100000Y34100000D01*
X45300000Y34600000D01*
X45500000Y35200000D01*
X45600000Y35600000D01*
X45700000Y36200000D01*
X45800000Y38100000D01*
X45800000Y38500000D01*
X41600000Y38500000D01*
X41700000Y38200000D01*
X41700000Y37800000D01*
X41700000Y36900000D01*
X41600000Y36400000D01*
X41400000Y35800000D01*
X41100000Y35300000D01*
X40800000Y34800000D01*
X40200000Y34200000D01*
X40200000Y29600000D01*
G36*
X29200000Y37500000D02*
G01*
X33300000Y37500000D01*
X33300000Y37000000D01*
X33600000Y35800000D01*
X34300000Y34700000D01*
X35100000Y34000000D01*
X35800000Y33600000D01*
X36900000Y33300000D01*
X38000000Y33300000D01*
X39200000Y33600000D01*
X40200000Y34200000D01*
X40200000Y29600000D01*
X38400000Y29200000D01*
X37000000Y29200000D01*
X35500000Y29400000D01*
X34300000Y29800000D01*
X33400000Y30200000D01*
X32500000Y30800000D01*
X31300000Y31900000D01*
X30500000Y33000000D01*
X30000000Y33800000D01*
X29400000Y35400000D01*
X29200000Y36800000D01*
X29200000Y37500000D01*
G37*
X29200000Y37500000D02*
X33300000Y37500000D01*
X33300000Y37000000D01*
X33600000Y35800000D01*
X34300000Y34700000D01*
X35100000Y34000000D01*
X35800000Y33600000D01*
X36900000Y33300000D01*
X38000000Y33300000D01*
X39200000Y33600000D01*
X40200000Y34200000D01*
X40200000Y29600000D01*
X38400000Y29200000D01*
X37000000Y29200000D01*
X35500000Y29400000D01*
X34300000Y29800000D01*
X33400000Y30200000D01*
X32500000Y30800000D01*
X31300000Y31900000D01*
X30500000Y33000000D01*
X30000000Y33800000D01*
X29400000Y35400000D01*
X29200000Y36800000D01*
X29200000Y37500000D01*
G36*
X12000000Y41700000D02*
G01*
X12000000Y45800000D01*
X12800000Y45800000D01*
X14000000Y45700000D01*
X15000000Y45400000D01*
X15800000Y45100000D01*
X16500000Y44800000D01*
X17300000Y44300000D01*
X18000000Y43800000D01*
X18600000Y43200000D01*
X19100000Y42600000D01*
X19500000Y42000000D01*
X19900000Y41300000D01*
X20300000Y40400000D01*
X20500000Y39800000D01*
X20700000Y38900000D01*
X20800000Y38500000D01*
X16600000Y38500000D01*
X16400000Y39100000D01*
X16100000Y39700000D01*
X15600000Y40400000D01*
X15000000Y40900000D01*
X14600000Y41200000D01*
X14200000Y41400000D01*
X13700000Y41600000D01*
X13200000Y41700000D01*
X12000000Y41700000D01*
G37*
X12000000Y41700000D02*
X12000000Y45800000D01*
X12800000Y45800000D01*
X14000000Y45700000D01*
X15000000Y45400000D01*
X15800000Y45100000D01*
X16500000Y44800000D01*
X17300000Y44300000D01*
X18000000Y43800000D01*
X18600000Y43200000D01*
X19100000Y42600000D01*
X19500000Y42000000D01*
X19900000Y41300000D01*
X20300000Y40400000D01*
X20500000Y39800000D01*
X20700000Y38900000D01*
X20800000Y38500000D01*
X16600000Y38500000D01*
X16400000Y39100000D01*
X16100000Y39700000D01*
X15600000Y40400000D01*
X15000000Y40900000D01*
X14600000Y41200000D01*
X14200000Y41400000D01*
X13700000Y41600000D01*
X13200000Y41700000D01*
X12000000Y41700000D01*
G36*
X4200000Y37500000D02*
G01*
X4200000Y37900000D01*
X4300000Y38900000D01*
X4600000Y40100000D01*
X5000000Y41100000D01*
X5300000Y41700000D01*
X5800000Y42400000D01*
X6400000Y43200000D01*
X7300000Y44000000D01*
X8000000Y44500000D01*
X8700000Y44900000D01*
X9600000Y45300000D01*
X10500000Y45600000D01*
X11100000Y45700000D01*
X12000000Y45800000D01*
X12000000Y41700000D01*
X11400000Y41600000D01*
X10800000Y41400000D01*
X10300000Y41100000D01*
X9700000Y40700000D01*
X9100000Y40000000D01*
X8600000Y39200000D01*
X8400000Y38500000D01*
X8300000Y37500000D01*
X4200000Y37500000D01*
G37*
X4200000Y37500000D02*
X4200000Y37900000D01*
X4300000Y38900000D01*
X4600000Y40100000D01*
X5000000Y41100000D01*
X5300000Y41700000D01*
X5800000Y42400000D01*
X6400000Y43200000D01*
X7300000Y44000000D01*
X8000000Y44500000D01*
X8700000Y44900000D01*
X9600000Y45300000D01*
X10500000Y45600000D01*
X11100000Y45700000D01*
X12000000Y45800000D01*
X12000000Y41700000D01*
X11400000Y41600000D01*
X10800000Y41400000D01*
X10300000Y41100000D01*
X9700000Y40700000D01*
X9100000Y40000000D01*
X8600000Y39200000D01*
X8400000Y38500000D01*
X8300000Y37500000D01*
X4200000Y37500000D01*
G36*
X15200000Y29600000D02*
G01*
X15700000Y29800000D01*
X16500000Y30200000D01*
X17300000Y30700000D01*
X17900000Y31200000D01*
X18300000Y31500000D01*
X18800000Y32100000D01*
X19500000Y33000000D01*
X19800000Y33500000D01*
X20100000Y34100000D01*
X20300000Y34600000D01*
X20500000Y35200000D01*
X20600000Y35600000D01*
X20700000Y36200000D01*
X20800000Y38100000D01*
X20800000Y38500000D01*
X16600000Y38500000D01*
X16700000Y38200000D01*
X16700000Y37800000D01*
X16700000Y36900000D01*
X16600000Y36400000D01*
X16400000Y35800000D01*
X16100000Y35300000D01*
X15800000Y34800000D01*
X15200000Y34200000D01*
X15200000Y29600000D01*
G37*
X15200000Y29600000D02*
X15700000Y29800000D01*
X16500000Y30200000D01*
X17300000Y30700000D01*
X17900000Y31200000D01*
X18300000Y31500000D01*
X18800000Y32100000D01*
X19500000Y33000000D01*
X19800000Y33500000D01*
X20100000Y34100000D01*
X20300000Y34600000D01*
X20500000Y35200000D01*
X20600000Y35600000D01*
X20700000Y36200000D01*
X20800000Y38100000D01*
X20800000Y38500000D01*
X16600000Y38500000D01*
X16700000Y38200000D01*
X16700000Y37800000D01*
X16700000Y36900000D01*
X16600000Y36400000D01*
X16400000Y35800000D01*
X16100000Y35300000D01*
X15800000Y34800000D01*
X15200000Y34200000D01*
X15200000Y29600000D01*
G36*
X4200000Y37500000D02*
G01*
X8300000Y37500000D01*
X8300000Y37000000D01*
X8600000Y35800000D01*
X9300000Y34700000D01*
X10100000Y34000000D01*
X10800000Y33600000D01*
X11900000Y33300000D01*
X13000000Y33300000D01*
X14200000Y33600000D01*
X15200000Y34200000D01*
X15200000Y29600000D01*
X13400000Y29200000D01*
X12000000Y29200000D01*
X10500000Y29400000D01*
X9300000Y29800000D01*
X8400000Y30200000D01*
X7500000Y30800000D01*
X6300000Y31900000D01*
X5500000Y33000000D01*
X5000000Y33800000D01*
X4400000Y35400000D01*
X4200000Y36800000D01*
X4200000Y37500000D01*
G37*
X4200000Y37500000D02*
X8300000Y37500000D01*
X8300000Y37000000D01*
X8600000Y35800000D01*
X9300000Y34700000D01*
X10100000Y34000000D01*
X10800000Y33600000D01*
X11900000Y33300000D01*
X13000000Y33300000D01*
X14200000Y33600000D01*
X15200000Y34200000D01*
X15200000Y29600000D01*
X13400000Y29200000D01*
X12000000Y29200000D01*
X10500000Y29400000D01*
X9300000Y29800000D01*
X8400000Y30200000D01*
X7500000Y30800000D01*
X6300000Y31900000D01*
X5500000Y33000000D01*
X5000000Y33800000D01*
X4400000Y35400000D01*
X4200000Y36800000D01*
X4200000Y37500000D01*
G36*
X87000000Y66700000D02*
G01*
X87000000Y70800000D01*
X87800000Y70800000D01*
X89000000Y70700000D01*
X90000000Y70400000D01*
X90800000Y70100000D01*
X91500000Y69800000D01*
X92300000Y69300000D01*
X93000000Y68800000D01*
X93600000Y68200000D01*
X94100000Y67600000D01*
X94500000Y67000000D01*
X94900000Y66300000D01*
X95300000Y65400000D01*
X95500000Y64800000D01*
X95700000Y63900000D01*
X95800000Y63500000D01*
X91600000Y63500000D01*
X91400000Y64100000D01*
X91100000Y64700000D01*
X90600000Y65400000D01*
X90000000Y65900000D01*
X89600000Y66200000D01*
X89200000Y66400000D01*
X88700000Y66600000D01*
X88200000Y66700000D01*
X87000000Y66700000D01*
G37*
X87000000Y66700000D02*
X87000000Y70800000D01*
X87800000Y70800000D01*
X89000000Y70700000D01*
X90000000Y70400000D01*
X90800000Y70100000D01*
X91500000Y69800000D01*
X92300000Y69300000D01*
X93000000Y68800000D01*
X93600000Y68200000D01*
X94100000Y67600000D01*
X94500000Y67000000D01*
X94900000Y66300000D01*
X95300000Y65400000D01*
X95500000Y64800000D01*
X95700000Y63900000D01*
X95800000Y63500000D01*
X91600000Y63500000D01*
X91400000Y64100000D01*
X91100000Y64700000D01*
X90600000Y65400000D01*
X90000000Y65900000D01*
X89600000Y66200000D01*
X89200000Y66400000D01*
X88700000Y66600000D01*
X88200000Y66700000D01*
X87000000Y66700000D01*
G36*
X79200000Y62500000D02*
G01*
X79200000Y62900000D01*
X79300000Y63900000D01*
X79600000Y65100000D01*
X80000000Y66100000D01*
X80300000Y66700000D01*
X80800000Y67400000D01*
X81400000Y68200000D01*
X82300000Y69000000D01*
X83000000Y69500000D01*
X83700000Y69900000D01*
X84600000Y70300000D01*
X85500000Y70600000D01*
X86100000Y70700000D01*
X87000000Y70800000D01*
X87000000Y66700000D01*
X86400000Y66600000D01*
X85800000Y66400000D01*
X85300000Y66100000D01*
X84700000Y65700000D01*
X84100000Y65000000D01*
X83600000Y64200000D01*
X83400000Y63500000D01*
X83300000Y62500000D01*
X79200000Y62500000D01*
G37*
X79200000Y62500000D02*
X79200000Y62900000D01*
X79300000Y63900000D01*
X79600000Y65100000D01*
X80000000Y66100000D01*
X80300000Y66700000D01*
X80800000Y67400000D01*
X81400000Y68200000D01*
X82300000Y69000000D01*
X83000000Y69500000D01*
X83700000Y69900000D01*
X84600000Y70300000D01*
X85500000Y70600000D01*
X86100000Y70700000D01*
X87000000Y70800000D01*
X87000000Y66700000D01*
X86400000Y66600000D01*
X85800000Y66400000D01*
X85300000Y66100000D01*
X84700000Y65700000D01*
X84100000Y65000000D01*
X83600000Y64200000D01*
X83400000Y63500000D01*
X83300000Y62500000D01*
X79200000Y62500000D01*
G36*
X90200000Y54600000D02*
G01*
X90700000Y54800000D01*
X91500000Y55200000D01*
X92300000Y55700000D01*
X92900000Y56200000D01*
X93300000Y56500000D01*
X93800000Y57100000D01*
X94500000Y58000000D01*
X94800000Y58500000D01*
X95100000Y59100000D01*
X95300000Y59600000D01*
X95500000Y60200000D01*
X95600000Y60600000D01*
X95700000Y61200000D01*
X95800000Y63100000D01*
X95800000Y63500000D01*
X91600000Y63500000D01*
X91700000Y63200000D01*
X91700000Y62800000D01*
X91700000Y61900000D01*
X91600000Y61400000D01*
X91400000Y60800000D01*
X91100000Y60300000D01*
X90800000Y59800000D01*
X90200000Y59200000D01*
X90200000Y54600000D01*
G37*
X90200000Y54600000D02*
X90700000Y54800000D01*
X91500000Y55200000D01*
X92300000Y55700000D01*
X92900000Y56200000D01*
X93300000Y56500000D01*
X93800000Y57100000D01*
X94500000Y58000000D01*
X94800000Y58500000D01*
X95100000Y59100000D01*
X95300000Y59600000D01*
X95500000Y60200000D01*
X95600000Y60600000D01*
X95700000Y61200000D01*
X95800000Y63100000D01*
X95800000Y63500000D01*
X91600000Y63500000D01*
X91700000Y63200000D01*
X91700000Y62800000D01*
X91700000Y61900000D01*
X91600000Y61400000D01*
X91400000Y60800000D01*
X91100000Y60300000D01*
X90800000Y59800000D01*
X90200000Y59200000D01*
X90200000Y54600000D01*
G36*
X79200000Y62500000D02*
G01*
X83300000Y62500000D01*
X83300000Y62000000D01*
X83600000Y60800000D01*
X84300000Y59700000D01*
X85100000Y59000000D01*
X85800000Y58600000D01*
X86900000Y58300000D01*
X88000000Y58300000D01*
X89200000Y58600000D01*
X90200000Y59200000D01*
X90200000Y54600000D01*
X88400000Y54200000D01*
X87000000Y54200000D01*
X85500000Y54400000D01*
X84300000Y54800000D01*
X83400000Y55200000D01*
X82500000Y55800000D01*
X81300000Y56900000D01*
X80500000Y58000000D01*
X80000000Y58800000D01*
X79400000Y60400000D01*
X79200000Y61800000D01*
X79200000Y62500000D01*
G37*
X79200000Y62500000D02*
X83300000Y62500000D01*
X83300000Y62000000D01*
X83600000Y60800000D01*
X84300000Y59700000D01*
X85100000Y59000000D01*
X85800000Y58600000D01*
X86900000Y58300000D01*
X88000000Y58300000D01*
X89200000Y58600000D01*
X90200000Y59200000D01*
X90200000Y54600000D01*
X88400000Y54200000D01*
X87000000Y54200000D01*
X85500000Y54400000D01*
X84300000Y54800000D01*
X83400000Y55200000D01*
X82500000Y55800000D01*
X81300000Y56900000D01*
X80500000Y58000000D01*
X80000000Y58800000D01*
X79400000Y60400000D01*
X79200000Y61800000D01*
X79200000Y62500000D01*
G36*
X62000000Y66700000D02*
G01*
X62000000Y70800000D01*
X62800000Y70800000D01*
X64000000Y70700000D01*
X65000000Y70400000D01*
X65800000Y70100000D01*
X66500000Y69800000D01*
X67300000Y69300000D01*
X68000000Y68800000D01*
X68600000Y68200000D01*
X69100000Y67600000D01*
X69500000Y67000000D01*
X69900000Y66300000D01*
X70300000Y65400000D01*
X70500000Y64800000D01*
X70700000Y63900000D01*
X70800000Y63500000D01*
X66600000Y63500000D01*
X66400000Y64100000D01*
X66100000Y64700000D01*
X65600000Y65400000D01*
X65000000Y65900000D01*
X64600000Y66200000D01*
X64200000Y66400000D01*
X63700000Y66600000D01*
X63200000Y66700000D01*
X62000000Y66700000D01*
G37*
X62000000Y66700000D02*
X62000000Y70800000D01*
X62800000Y70800000D01*
X64000000Y70700000D01*
X65000000Y70400000D01*
X65800000Y70100000D01*
X66500000Y69800000D01*
X67300000Y69300000D01*
X68000000Y68800000D01*
X68600000Y68200000D01*
X69100000Y67600000D01*
X69500000Y67000000D01*
X69900000Y66300000D01*
X70300000Y65400000D01*
X70500000Y64800000D01*
X70700000Y63900000D01*
X70800000Y63500000D01*
X66600000Y63500000D01*
X66400000Y64100000D01*
X66100000Y64700000D01*
X65600000Y65400000D01*
X65000000Y65900000D01*
X64600000Y66200000D01*
X64200000Y66400000D01*
X63700000Y66600000D01*
X63200000Y66700000D01*
X62000000Y66700000D01*
G36*
X54200000Y62500000D02*
G01*
X54200000Y62900000D01*
X54300000Y63900000D01*
X54600000Y65100000D01*
X55000000Y66100000D01*
X55300000Y66700000D01*
X55800000Y67400000D01*
X56400000Y68200000D01*
X57300000Y69000000D01*
X58000000Y69500000D01*
X58700000Y69900000D01*
X59600000Y70300000D01*
X60500000Y70600000D01*
X61100000Y70700000D01*
X62000000Y70800000D01*
X62000000Y66700000D01*
X61400000Y66600000D01*
X60800000Y66400000D01*
X60300000Y66100000D01*
X59700000Y65700000D01*
X59100000Y65000000D01*
X58600000Y64200000D01*
X58400000Y63500000D01*
X58300000Y62500000D01*
X54200000Y62500000D01*
G37*
X54200000Y62500000D02*
X54200000Y62900000D01*
X54300000Y63900000D01*
X54600000Y65100000D01*
X55000000Y66100000D01*
X55300000Y66700000D01*
X55800000Y67400000D01*
X56400000Y68200000D01*
X57300000Y69000000D01*
X58000000Y69500000D01*
X58700000Y69900000D01*
X59600000Y70300000D01*
X60500000Y70600000D01*
X61100000Y70700000D01*
X62000000Y70800000D01*
X62000000Y66700000D01*
X61400000Y66600000D01*
X60800000Y66400000D01*
X60300000Y66100000D01*
X59700000Y65700000D01*
X59100000Y65000000D01*
X58600000Y64200000D01*
X58400000Y63500000D01*
X58300000Y62500000D01*
X54200000Y62500000D01*
G36*
X65200000Y54600000D02*
G01*
X65700000Y54800000D01*
X66500000Y55200000D01*
X67300000Y55700000D01*
X67900000Y56200000D01*
X68300000Y56500000D01*
X68800000Y57100000D01*
X69500000Y58000000D01*
X69800000Y58500000D01*
X70100000Y59100000D01*
X70300000Y59600000D01*
X70500000Y60200000D01*
X70600000Y60600000D01*
X70700000Y61200000D01*
X70800000Y63100000D01*
X70800000Y63500000D01*
X66600000Y63500000D01*
X66700000Y63200000D01*
X66700000Y62800000D01*
X66700000Y61900000D01*
X66600000Y61400000D01*
X66400000Y60800000D01*
X66100000Y60300000D01*
X65800000Y59800000D01*
X65200000Y59200000D01*
X65200000Y54600000D01*
G37*
X65200000Y54600000D02*
X65700000Y54800000D01*
X66500000Y55200000D01*
X67300000Y55700000D01*
X67900000Y56200000D01*
X68300000Y56500000D01*
X68800000Y57100000D01*
X69500000Y58000000D01*
X69800000Y58500000D01*
X70100000Y59100000D01*
X70300000Y59600000D01*
X70500000Y60200000D01*
X70600000Y60600000D01*
X70700000Y61200000D01*
X70800000Y63100000D01*
X70800000Y63500000D01*
X66600000Y63500000D01*
X66700000Y63200000D01*
X66700000Y62800000D01*
X66700000Y61900000D01*
X66600000Y61400000D01*
X66400000Y60800000D01*
X66100000Y60300000D01*
X65800000Y59800000D01*
X65200000Y59200000D01*
X65200000Y54600000D01*
G36*
X54200000Y62500000D02*
G01*
X58300000Y62500000D01*
X58300000Y62000000D01*
X58600000Y60800000D01*
X59300000Y59700000D01*
X60100000Y59000000D01*
X60800000Y58600000D01*
X61900000Y58300000D01*
X63000000Y58300000D01*
X64200000Y58600000D01*
X65200000Y59200000D01*
X65200000Y54600000D01*
X63400000Y54200000D01*
X62000000Y54200000D01*
X60500000Y54400000D01*
X59300000Y54800000D01*
X58400000Y55200000D01*
X57500000Y55800000D01*
X56300000Y56900000D01*
X55500000Y58000000D01*
X55000000Y58800000D01*
X54400000Y60400000D01*
X54200000Y61800000D01*
X54200000Y62500000D01*
G37*
X54200000Y62500000D02*
X58300000Y62500000D01*
X58300000Y62000000D01*
X58600000Y60800000D01*
X59300000Y59700000D01*
X60100000Y59000000D01*
X60800000Y58600000D01*
X61900000Y58300000D01*
X63000000Y58300000D01*
X64200000Y58600000D01*
X65200000Y59200000D01*
X65200000Y54600000D01*
X63400000Y54200000D01*
X62000000Y54200000D01*
X60500000Y54400000D01*
X59300000Y54800000D01*
X58400000Y55200000D01*
X57500000Y55800000D01*
X56300000Y56900000D01*
X55500000Y58000000D01*
X55000000Y58800000D01*
X54400000Y60400000D01*
X54200000Y61800000D01*
X54200000Y62500000D01*
G36*
X37000000Y66700000D02*
G01*
X37000000Y70800000D01*
X37800000Y70800000D01*
X39000000Y70700000D01*
X40000000Y70400000D01*
X40800000Y70100000D01*
X41500000Y69800000D01*
X42300000Y69300000D01*
X43000000Y68800000D01*
X43600000Y68200000D01*
X44100000Y67600000D01*
X44500000Y67000000D01*
X44900000Y66300000D01*
X45300000Y65400000D01*
X45500000Y64800000D01*
X45700000Y63900000D01*
X45800000Y63500000D01*
X41600000Y63500000D01*
X41400000Y64100000D01*
X41100000Y64700000D01*
X40600000Y65400000D01*
X40000000Y65900000D01*
X39600000Y66200000D01*
X39200000Y66400000D01*
X38700000Y66600000D01*
X38200000Y66700000D01*
X37000000Y66700000D01*
G37*
X37000000Y66700000D02*
X37000000Y70800000D01*
X37800000Y70800000D01*
X39000000Y70700000D01*
X40000000Y70400000D01*
X40800000Y70100000D01*
X41500000Y69800000D01*
X42300000Y69300000D01*
X43000000Y68800000D01*
X43600000Y68200000D01*
X44100000Y67600000D01*
X44500000Y67000000D01*
X44900000Y66300000D01*
X45300000Y65400000D01*
X45500000Y64800000D01*
X45700000Y63900000D01*
X45800000Y63500000D01*
X41600000Y63500000D01*
X41400000Y64100000D01*
X41100000Y64700000D01*
X40600000Y65400000D01*
X40000000Y65900000D01*
X39600000Y66200000D01*
X39200000Y66400000D01*
X38700000Y66600000D01*
X38200000Y66700000D01*
X37000000Y66700000D01*
G36*
X29200000Y62500000D02*
G01*
X29200000Y62900000D01*
X29300000Y63900000D01*
X29600000Y65100000D01*
X30000000Y66100000D01*
X30300000Y66700000D01*
X30800000Y67400000D01*
X31400000Y68200000D01*
X32300000Y69000000D01*
X33000000Y69500000D01*
X33700000Y69900000D01*
X34600000Y70300000D01*
X35500000Y70600000D01*
X36100000Y70700000D01*
X37000000Y70800000D01*
X37000000Y66700000D01*
X36400000Y66600000D01*
X35800000Y66400000D01*
X35300000Y66100000D01*
X34700000Y65700000D01*
X34100000Y65000000D01*
X33600000Y64200000D01*
X33400000Y63500000D01*
X33300000Y62500000D01*
X29200000Y62500000D01*
G37*
X29200000Y62500000D02*
X29200000Y62900000D01*
X29300000Y63900000D01*
X29600000Y65100000D01*
X30000000Y66100000D01*
X30300000Y66700000D01*
X30800000Y67400000D01*
X31400000Y68200000D01*
X32300000Y69000000D01*
X33000000Y69500000D01*
X33700000Y69900000D01*
X34600000Y70300000D01*
X35500000Y70600000D01*
X36100000Y70700000D01*
X37000000Y70800000D01*
X37000000Y66700000D01*
X36400000Y66600000D01*
X35800000Y66400000D01*
X35300000Y66100000D01*
X34700000Y65700000D01*
X34100000Y65000000D01*
X33600000Y64200000D01*
X33400000Y63500000D01*
X33300000Y62500000D01*
X29200000Y62500000D01*
G36*
X40200000Y54600000D02*
G01*
X40700000Y54800000D01*
X41500000Y55200000D01*
X42300000Y55700000D01*
X42900000Y56200000D01*
X43300000Y56500000D01*
X43800000Y57100000D01*
X44500000Y58000000D01*
X44800000Y58500000D01*
X45100000Y59100000D01*
X45300000Y59600000D01*
X45500000Y60200000D01*
X45600000Y60600000D01*
X45700000Y61200000D01*
X45800000Y63100000D01*
X45800000Y63500000D01*
X41600000Y63500000D01*
X41700000Y63200000D01*
X41700000Y62800000D01*
X41700000Y61900000D01*
X41600000Y61400000D01*
X41400000Y60800000D01*
X41100000Y60300000D01*
X40800000Y59800000D01*
X40200000Y59200000D01*
X40200000Y54600000D01*
G37*
X40200000Y54600000D02*
X40700000Y54800000D01*
X41500000Y55200000D01*
X42300000Y55700000D01*
X42900000Y56200000D01*
X43300000Y56500000D01*
X43800000Y57100000D01*
X44500000Y58000000D01*
X44800000Y58500000D01*
X45100000Y59100000D01*
X45300000Y59600000D01*
X45500000Y60200000D01*
X45600000Y60600000D01*
X45700000Y61200000D01*
X45800000Y63100000D01*
X45800000Y63500000D01*
X41600000Y63500000D01*
X41700000Y63200000D01*
X41700000Y62800000D01*
X41700000Y61900000D01*
X41600000Y61400000D01*
X41400000Y60800000D01*
X41100000Y60300000D01*
X40800000Y59800000D01*
X40200000Y59200000D01*
X40200000Y54600000D01*
G36*
X29200000Y62500000D02*
G01*
X33300000Y62500000D01*
X33300000Y62000000D01*
X33600000Y60800000D01*
X34300000Y59700000D01*
X35100000Y59000000D01*
X35800000Y58600000D01*
X36900000Y58300000D01*
X38000000Y58300000D01*
X39200000Y58600000D01*
X40200000Y59200000D01*
X40200000Y54600000D01*
X38400000Y54200000D01*
X37000000Y54200000D01*
X35500000Y54400000D01*
X34300000Y54800000D01*
X33400000Y55200000D01*
X32500000Y55800000D01*
X31300000Y56900000D01*
X30500000Y58000000D01*
X30000000Y58800000D01*
X29400000Y60400000D01*
X29200000Y61800000D01*
X29200000Y62500000D01*
G37*
X29200000Y62500000D02*
X33300000Y62500000D01*
X33300000Y62000000D01*
X33600000Y60800000D01*
X34300000Y59700000D01*
X35100000Y59000000D01*
X35800000Y58600000D01*
X36900000Y58300000D01*
X38000000Y58300000D01*
X39200000Y58600000D01*
X40200000Y59200000D01*
X40200000Y54600000D01*
X38400000Y54200000D01*
X37000000Y54200000D01*
X35500000Y54400000D01*
X34300000Y54800000D01*
X33400000Y55200000D01*
X32500000Y55800000D01*
X31300000Y56900000D01*
X30500000Y58000000D01*
X30000000Y58800000D01*
X29400000Y60400000D01*
X29200000Y61800000D01*
X29200000Y62500000D01*
G36*
X12000000Y66700000D02*
G01*
X12000000Y70800000D01*
X12800000Y70800000D01*
X14000000Y70700000D01*
X15000000Y70400000D01*
X15800000Y70100000D01*
X16500000Y69800000D01*
X17300000Y69300000D01*
X18000000Y68800000D01*
X18600000Y68200000D01*
X19100000Y67600000D01*
X19500000Y67000000D01*
X19900000Y66300000D01*
X20300000Y65400000D01*
X20500000Y64800000D01*
X20700000Y63900000D01*
X20800000Y63500000D01*
X16600000Y63500000D01*
X16400000Y64100000D01*
X16100000Y64700000D01*
X15600000Y65400000D01*
X15000000Y65900000D01*
X14600000Y66200000D01*
X14200000Y66400000D01*
X13700000Y66600000D01*
X13200000Y66700000D01*
X12000000Y66700000D01*
G37*
X12000000Y66700000D02*
X12000000Y70800000D01*
X12800000Y70800000D01*
X14000000Y70700000D01*
X15000000Y70400000D01*
X15800000Y70100000D01*
X16500000Y69800000D01*
X17300000Y69300000D01*
X18000000Y68800000D01*
X18600000Y68200000D01*
X19100000Y67600000D01*
X19500000Y67000000D01*
X19900000Y66300000D01*
X20300000Y65400000D01*
X20500000Y64800000D01*
X20700000Y63900000D01*
X20800000Y63500000D01*
X16600000Y63500000D01*
X16400000Y64100000D01*
X16100000Y64700000D01*
X15600000Y65400000D01*
X15000000Y65900000D01*
X14600000Y66200000D01*
X14200000Y66400000D01*
X13700000Y66600000D01*
X13200000Y66700000D01*
X12000000Y66700000D01*
G36*
X4200000Y62500000D02*
G01*
X4200000Y62900000D01*
X4300000Y63900000D01*
X4600000Y65100000D01*
X5000000Y66100000D01*
X5300000Y66700000D01*
X5800000Y67400000D01*
X6400000Y68200000D01*
X7300000Y69000000D01*
X8000000Y69500000D01*
X8700000Y69900000D01*
X9600000Y70300000D01*
X10500000Y70600000D01*
X11100000Y70700000D01*
X12000000Y70800000D01*
X12000000Y66700000D01*
X11400000Y66600000D01*
X10800000Y66400000D01*
X10300000Y66100000D01*
X9700000Y65700000D01*
X9100000Y65000000D01*
X8600000Y64200000D01*
X8400000Y63500000D01*
X8300000Y62500000D01*
X4200000Y62500000D01*
G37*
X4200000Y62500000D02*
X4200000Y62900000D01*
X4300000Y63900000D01*
X4600000Y65100000D01*
X5000000Y66100000D01*
X5300000Y66700000D01*
X5800000Y67400000D01*
X6400000Y68200000D01*
X7300000Y69000000D01*
X8000000Y69500000D01*
X8700000Y69900000D01*
X9600000Y70300000D01*
X10500000Y70600000D01*
X11100000Y70700000D01*
X12000000Y70800000D01*
X12000000Y66700000D01*
X11400000Y66600000D01*
X10800000Y66400000D01*
X10300000Y66100000D01*
X9700000Y65700000D01*
X9100000Y65000000D01*
X8600000Y64200000D01*
X8400000Y63500000D01*
X8300000Y62500000D01*
X4200000Y62500000D01*
G36*
X15200000Y54600000D02*
G01*
X15700000Y54800000D01*
X16500000Y55200000D01*
X17300000Y55700000D01*
X17900000Y56200000D01*
X18300000Y56500000D01*
X18800000Y57100000D01*
X19500000Y58000000D01*
X19800000Y58500000D01*
X20100000Y59100000D01*
X20300000Y59600000D01*
X20500000Y60200000D01*
X20600000Y60600000D01*
X20700000Y61200000D01*
X20800000Y63100000D01*
X20800000Y63500000D01*
X16600000Y63500000D01*
X16700000Y63200000D01*
X16700000Y62800000D01*
X16700000Y61900000D01*
X16600000Y61400000D01*
X16400000Y60800000D01*
X16100000Y60300000D01*
X15800000Y59800000D01*
X15200000Y59200000D01*
X15200000Y54600000D01*
G37*
X15200000Y54600000D02*
X15700000Y54800000D01*
X16500000Y55200000D01*
X17300000Y55700000D01*
X17900000Y56200000D01*
X18300000Y56500000D01*
X18800000Y57100000D01*
X19500000Y58000000D01*
X19800000Y58500000D01*
X20100000Y59100000D01*
X20300000Y59600000D01*
X20500000Y60200000D01*
X20600000Y60600000D01*
X20700000Y61200000D01*
X20800000Y63100000D01*
X20800000Y63500000D01*
X16600000Y63500000D01*
X16700000Y63200000D01*
X16700000Y62800000D01*
X16700000Y61900000D01*
X16600000Y61400000D01*
X16400000Y60800000D01*
X16100000Y60300000D01*
X15800000Y59800000D01*
X15200000Y59200000D01*
X15200000Y54600000D01*
G36*
X4200000Y62500000D02*
G01*
X8300000Y62500000D01*
X8300000Y62000000D01*
X8600000Y60800000D01*
X9300000Y59700000D01*
X10100000Y59000000D01*
X10800000Y58600000D01*
X11900000Y58300000D01*
X13000000Y58300000D01*
X14200000Y58600000D01*
X15200000Y59200000D01*
X15200000Y54600000D01*
X13400000Y54200000D01*
X12000000Y54200000D01*
X10500000Y54400000D01*
X9300000Y54800000D01*
X8400000Y55200000D01*
X7500000Y55800000D01*
X6300000Y56900000D01*
X5500000Y58000000D01*
X5000000Y58800000D01*
X4400000Y60400000D01*
X4200000Y61800000D01*
X4200000Y62500000D01*
G37*
X4200000Y62500000D02*
X8300000Y62500000D01*
X8300000Y62000000D01*
X8600000Y60800000D01*
X9300000Y59700000D01*
X10100000Y59000000D01*
X10800000Y58600000D01*
X11900000Y58300000D01*
X13000000Y58300000D01*
X14200000Y58600000D01*
X15200000Y59200000D01*
X15200000Y54600000D01*
X13400000Y54200000D01*
X12000000Y54200000D01*
X10500000Y54400000D01*
X9300000Y54800000D01*
X8400000Y55200000D01*
X7500000Y55800000D01*
X6300000Y56900000D01*
X5500000Y58000000D01*
X5000000Y58800000D01*
X4400000Y60400000D01*
X4200000Y61800000D01*
X4200000Y62500000D01*
G36*
X87000000Y91700000D02*
G01*
X87000000Y95800000D01*
X87800000Y95800000D01*
X89000000Y95700000D01*
X90000000Y95400000D01*
X90800000Y95100000D01*
X91500000Y94800000D01*
X92300000Y94300000D01*
X93000000Y93800000D01*
X93600000Y93200000D01*
X94100000Y92600000D01*
X94500000Y92000000D01*
X94900000Y91300000D01*
X95300000Y90400000D01*
X95500000Y89800000D01*
X95700000Y88900000D01*
X95800000Y88500000D01*
X91600000Y88500000D01*
X91400000Y89100000D01*
X91100000Y89700000D01*
X90600000Y90400000D01*
X90000000Y90900000D01*
X89600000Y91200000D01*
X89200000Y91400000D01*
X88700000Y91600000D01*
X88200000Y91700000D01*
X87000000Y91700000D01*
G37*
X87000000Y91700000D02*
X87000000Y95800000D01*
X87800000Y95800000D01*
X89000000Y95700000D01*
X90000000Y95400000D01*
X90800000Y95100000D01*
X91500000Y94800000D01*
X92300000Y94300000D01*
X93000000Y93800000D01*
X93600000Y93200000D01*
X94100000Y92600000D01*
X94500000Y92000000D01*
X94900000Y91300000D01*
X95300000Y90400000D01*
X95500000Y89800000D01*
X95700000Y88900000D01*
X95800000Y88500000D01*
X91600000Y88500000D01*
X91400000Y89100000D01*
X91100000Y89700000D01*
X90600000Y90400000D01*
X90000000Y90900000D01*
X89600000Y91200000D01*
X89200000Y91400000D01*
X88700000Y91600000D01*
X88200000Y91700000D01*
X87000000Y91700000D01*
G36*
X79200000Y87500000D02*
G01*
X79200000Y87900000D01*
X79300000Y88900000D01*
X79600000Y90100000D01*
X80000000Y91100000D01*
X80300000Y91700000D01*
X80800000Y92400000D01*
X81400000Y93200000D01*
X82300000Y94000000D01*
X83000000Y94500000D01*
X83700000Y94900000D01*
X84600000Y95300000D01*
X85500000Y95600000D01*
X86100000Y95700000D01*
X87000000Y95800000D01*
X87000000Y91700000D01*
X86400000Y91600000D01*
X85800000Y91400000D01*
X85300000Y91100000D01*
X84700000Y90700000D01*
X84100000Y90000000D01*
X83600000Y89200000D01*
X83400000Y88500000D01*
X83300000Y87500000D01*
X79200000Y87500000D01*
G37*
X79200000Y87500000D02*
X79200000Y87900000D01*
X79300000Y88900000D01*
X79600000Y90100000D01*
X80000000Y91100000D01*
X80300000Y91700000D01*
X80800000Y92400000D01*
X81400000Y93200000D01*
X82300000Y94000000D01*
X83000000Y94500000D01*
X83700000Y94900000D01*
X84600000Y95300000D01*
X85500000Y95600000D01*
X86100000Y95700000D01*
X87000000Y95800000D01*
X87000000Y91700000D01*
X86400000Y91600000D01*
X85800000Y91400000D01*
X85300000Y91100000D01*
X84700000Y90700000D01*
X84100000Y90000000D01*
X83600000Y89200000D01*
X83400000Y88500000D01*
X83300000Y87500000D01*
X79200000Y87500000D01*
G36*
X90200000Y79600000D02*
G01*
X90700000Y79800000D01*
X91500000Y80200000D01*
X92300000Y80700000D01*
X92900000Y81200000D01*
X93300000Y81500000D01*
X93800000Y82100000D01*
X94500000Y83000000D01*
X94800000Y83500000D01*
X95100000Y84100000D01*
X95300000Y84600000D01*
X95500000Y85200000D01*
X95600000Y85600000D01*
X95700000Y86200000D01*
X95800000Y88100000D01*
X95800000Y88500000D01*
X91600000Y88500000D01*
X91700000Y88200000D01*
X91700000Y87800000D01*
X91700000Y86900000D01*
X91600000Y86400000D01*
X91400000Y85800000D01*
X91100000Y85300000D01*
X90800000Y84800000D01*
X90200000Y84200000D01*
X90200000Y79600000D01*
G37*
X90200000Y79600000D02*
X90700000Y79800000D01*
X91500000Y80200000D01*
X92300000Y80700000D01*
X92900000Y81200000D01*
X93300000Y81500000D01*
X93800000Y82100000D01*
X94500000Y83000000D01*
X94800000Y83500000D01*
X95100000Y84100000D01*
X95300000Y84600000D01*
X95500000Y85200000D01*
X95600000Y85600000D01*
X95700000Y86200000D01*
X95800000Y88100000D01*
X95800000Y88500000D01*
X91600000Y88500000D01*
X91700000Y88200000D01*
X91700000Y87800000D01*
X91700000Y86900000D01*
X91600000Y86400000D01*
X91400000Y85800000D01*
X91100000Y85300000D01*
X90800000Y84800000D01*
X90200000Y84200000D01*
X90200000Y79600000D01*
G36*
X79200000Y87500000D02*
G01*
X83300000Y87500000D01*
X83300000Y87000000D01*
X83600000Y85800000D01*
X84300000Y84700000D01*
X85100000Y84000000D01*
X85800000Y83600000D01*
X86900000Y83300000D01*
X88000000Y83300000D01*
X89200000Y83600000D01*
X90200000Y84200000D01*
X90200000Y79600000D01*
X88400000Y79200000D01*
X87000000Y79200000D01*
X85500000Y79400000D01*
X84300000Y79800000D01*
X83400000Y80200000D01*
X82500000Y80800000D01*
X81300000Y81900000D01*
X80500000Y83000000D01*
X80000000Y83800000D01*
X79400000Y85400000D01*
X79200000Y86800000D01*
X79200000Y87500000D01*
G37*
X79200000Y87500000D02*
X83300000Y87500000D01*
X83300000Y87000000D01*
X83600000Y85800000D01*
X84300000Y84700000D01*
X85100000Y84000000D01*
X85800000Y83600000D01*
X86900000Y83300000D01*
X88000000Y83300000D01*
X89200000Y83600000D01*
X90200000Y84200000D01*
X90200000Y79600000D01*
X88400000Y79200000D01*
X87000000Y79200000D01*
X85500000Y79400000D01*
X84300000Y79800000D01*
X83400000Y80200000D01*
X82500000Y80800000D01*
X81300000Y81900000D01*
X80500000Y83000000D01*
X80000000Y83800000D01*
X79400000Y85400000D01*
X79200000Y86800000D01*
X79200000Y87500000D01*
G36*
X62000000Y91700000D02*
G01*
X62000000Y95800000D01*
X62800000Y95800000D01*
X64000000Y95700000D01*
X65000000Y95400000D01*
X65800000Y95100000D01*
X66500000Y94800000D01*
X67300000Y94300000D01*
X68000000Y93800000D01*
X68600000Y93200000D01*
X69100000Y92600000D01*
X69500000Y92000000D01*
X69900000Y91300000D01*
X70300000Y90400000D01*
X70500000Y89800000D01*
X70700000Y88900000D01*
X70800000Y88500000D01*
X66600000Y88500000D01*
X66400000Y89100000D01*
X66100000Y89700000D01*
X65600000Y90400000D01*
X65000000Y90900000D01*
X64600000Y91200000D01*
X64200000Y91400000D01*
X63700000Y91600000D01*
X63200000Y91700000D01*
X62000000Y91700000D01*
G37*
X62000000Y91700000D02*
X62000000Y95800000D01*
X62800000Y95800000D01*
X64000000Y95700000D01*
X65000000Y95400000D01*
X65800000Y95100000D01*
X66500000Y94800000D01*
X67300000Y94300000D01*
X68000000Y93800000D01*
X68600000Y93200000D01*
X69100000Y92600000D01*
X69500000Y92000000D01*
X69900000Y91300000D01*
X70300000Y90400000D01*
X70500000Y89800000D01*
X70700000Y88900000D01*
X70800000Y88500000D01*
X66600000Y88500000D01*
X66400000Y89100000D01*
X66100000Y89700000D01*
X65600000Y90400000D01*
X65000000Y90900000D01*
X64600000Y91200000D01*
X64200000Y91400000D01*
X63700000Y91600000D01*
X63200000Y91700000D01*
X62000000Y91700000D01*
G36*
X54200000Y87500000D02*
G01*
X54200000Y87900000D01*
X54300000Y88900000D01*
X54600000Y90100000D01*
X55000000Y91100000D01*
X55300000Y91700000D01*
X55800000Y92400000D01*
X56400000Y93200000D01*
X57300000Y94000000D01*
X58000000Y94500000D01*
X58700000Y94900000D01*
X59600000Y95300000D01*
X60500000Y95600000D01*
X61100000Y95700000D01*
X62000000Y95800000D01*
X62000000Y91700000D01*
X61400000Y91600000D01*
X60800000Y91400000D01*
X60300000Y91100000D01*
X59700000Y90700000D01*
X59100000Y90000000D01*
X58600000Y89200000D01*
X58400000Y88500000D01*
X58300000Y87500000D01*
X54200000Y87500000D01*
G37*
X54200000Y87500000D02*
X54200000Y87900000D01*
X54300000Y88900000D01*
X54600000Y90100000D01*
X55000000Y91100000D01*
X55300000Y91700000D01*
X55800000Y92400000D01*
X56400000Y93200000D01*
X57300000Y94000000D01*
X58000000Y94500000D01*
X58700000Y94900000D01*
X59600000Y95300000D01*
X60500000Y95600000D01*
X61100000Y95700000D01*
X62000000Y95800000D01*
X62000000Y91700000D01*
X61400000Y91600000D01*
X60800000Y91400000D01*
X60300000Y91100000D01*
X59700000Y90700000D01*
X59100000Y90000000D01*
X58600000Y89200000D01*
X58400000Y88500000D01*
X58300000Y87500000D01*
X54200000Y87500000D01*
G36*
X65200000Y79600000D02*
G01*
X65700000Y79800000D01*
X66500000Y80200000D01*
X67300000Y80700000D01*
X67900000Y81200000D01*
X68300000Y81500000D01*
X68800000Y82100000D01*
X69500000Y83000000D01*
X69800000Y83500000D01*
X70100000Y84100000D01*
X70300000Y84600000D01*
X70500000Y85200000D01*
X70600000Y85600000D01*
X70700000Y86200000D01*
X70800000Y88100000D01*
X70800000Y88500000D01*
X66600000Y88500000D01*
X66700000Y88200000D01*
X66700000Y87800000D01*
X66700000Y86900000D01*
X66600000Y86400000D01*
X66400000Y85800000D01*
X66100000Y85300000D01*
X65800000Y84800000D01*
X65200000Y84200000D01*
X65200000Y79600000D01*
G37*
X65200000Y79600000D02*
X65700000Y79800000D01*
X66500000Y80200000D01*
X67300000Y80700000D01*
X67900000Y81200000D01*
X68300000Y81500000D01*
X68800000Y82100000D01*
X69500000Y83000000D01*
X69800000Y83500000D01*
X70100000Y84100000D01*
X70300000Y84600000D01*
X70500000Y85200000D01*
X70600000Y85600000D01*
X70700000Y86200000D01*
X70800000Y88100000D01*
X70800000Y88500000D01*
X66600000Y88500000D01*
X66700000Y88200000D01*
X66700000Y87800000D01*
X66700000Y86900000D01*
X66600000Y86400000D01*
X66400000Y85800000D01*
X66100000Y85300000D01*
X65800000Y84800000D01*
X65200000Y84200000D01*
X65200000Y79600000D01*
G36*
X54200000Y87500000D02*
G01*
X58300000Y87500000D01*
X58300000Y87000000D01*
X58600000Y85800000D01*
X59300000Y84700000D01*
X60100000Y84000000D01*
X60800000Y83600000D01*
X61900000Y83300000D01*
X63000000Y83300000D01*
X64200000Y83600000D01*
X65200000Y84200000D01*
X65200000Y79600000D01*
X63400000Y79200000D01*
X62000000Y79200000D01*
X60500000Y79400000D01*
X59300000Y79800000D01*
X58400000Y80200000D01*
X57500000Y80800000D01*
X56300000Y81900000D01*
X55500000Y83000000D01*
X55000000Y83800000D01*
X54400000Y85400000D01*
X54200000Y86800000D01*
X54200000Y87500000D01*
G37*
X54200000Y87500000D02*
X58300000Y87500000D01*
X58300000Y87000000D01*
X58600000Y85800000D01*
X59300000Y84700000D01*
X60100000Y84000000D01*
X60800000Y83600000D01*
X61900000Y83300000D01*
X63000000Y83300000D01*
X64200000Y83600000D01*
X65200000Y84200000D01*
X65200000Y79600000D01*
X63400000Y79200000D01*
X62000000Y79200000D01*
X60500000Y79400000D01*
X59300000Y79800000D01*
X58400000Y80200000D01*
X57500000Y80800000D01*
X56300000Y81900000D01*
X55500000Y83000000D01*
X55000000Y83800000D01*
X54400000Y85400000D01*
X54200000Y86800000D01*
X54200000Y87500000D01*
G36*
X37000000Y91700000D02*
G01*
X37000000Y95800000D01*
X37800000Y95800000D01*
X39000000Y95700000D01*
X40000000Y95400000D01*
X40800000Y95100000D01*
X41500000Y94800000D01*
X42300000Y94300000D01*
X43000000Y93800000D01*
X43600000Y93200000D01*
X44100000Y92600000D01*
X44500000Y92000000D01*
X44900000Y91300000D01*
X45300000Y90400000D01*
X45500000Y89800000D01*
X45700000Y88900000D01*
X45800000Y88500000D01*
X41600000Y88500000D01*
X41400000Y89100000D01*
X41100000Y89700000D01*
X40600000Y90400000D01*
X40000000Y90900000D01*
X39600000Y91200000D01*
X39200000Y91400000D01*
X38700000Y91600000D01*
X38200000Y91700000D01*
X37000000Y91700000D01*
G37*
X37000000Y91700000D02*
X37000000Y95800000D01*
X37800000Y95800000D01*
X39000000Y95700000D01*
X40000000Y95400000D01*
X40800000Y95100000D01*
X41500000Y94800000D01*
X42300000Y94300000D01*
X43000000Y93800000D01*
X43600000Y93200000D01*
X44100000Y92600000D01*
X44500000Y92000000D01*
X44900000Y91300000D01*
X45300000Y90400000D01*
X45500000Y89800000D01*
X45700000Y88900000D01*
X45800000Y88500000D01*
X41600000Y88500000D01*
X41400000Y89100000D01*
X41100000Y89700000D01*
X40600000Y90400000D01*
X40000000Y90900000D01*
X39600000Y91200000D01*
X39200000Y91400000D01*
X38700000Y91600000D01*
X38200000Y91700000D01*
X37000000Y91700000D01*
G36*
X29200000Y87500000D02*
G01*
X29200000Y87900000D01*
X29300000Y88900000D01*
X29600000Y90100000D01*
X30000000Y91100000D01*
X30300000Y91700000D01*
X30800000Y92400000D01*
X31400000Y93200000D01*
X32300000Y94000000D01*
X33000000Y94500000D01*
X33700000Y94900000D01*
X34600000Y95300000D01*
X35500000Y95600000D01*
X36100000Y95700000D01*
X37000000Y95800000D01*
X37000000Y91700000D01*
X36400000Y91600000D01*
X35800000Y91400000D01*
X35300000Y91100000D01*
X34700000Y90700000D01*
X34100000Y90000000D01*
X33600000Y89200000D01*
X33400000Y88500000D01*
X33300000Y87500000D01*
X29200000Y87500000D01*
G37*
X29200000Y87500000D02*
X29200000Y87900000D01*
X29300000Y88900000D01*
X29600000Y90100000D01*
X30000000Y91100000D01*
X30300000Y91700000D01*
X30800000Y92400000D01*
X31400000Y93200000D01*
X32300000Y94000000D01*
X33000000Y94500000D01*
X33700000Y94900000D01*
X34600000Y95300000D01*
X35500000Y95600000D01*
X36100000Y95700000D01*
X37000000Y95800000D01*
X37000000Y91700000D01*
X36400000Y91600000D01*
X35800000Y91400000D01*
X35300000Y91100000D01*
X34700000Y90700000D01*
X34100000Y90000000D01*
X33600000Y89200000D01*
X33400000Y88500000D01*
X33300000Y87500000D01*
X29200000Y87500000D01*
G36*
X40200000Y79600000D02*
G01*
X40700000Y79800000D01*
X41500000Y80200000D01*
X42300000Y80700000D01*
X42900000Y81200000D01*
X43300000Y81500000D01*
X43800000Y82100000D01*
X44500000Y83000000D01*
X44800000Y83500000D01*
X45100000Y84100000D01*
X45300000Y84600000D01*
X45500000Y85200000D01*
X45600000Y85600000D01*
X45700000Y86200000D01*
X45800000Y88100000D01*
X45800000Y88500000D01*
X41600000Y88500000D01*
X41700000Y88200000D01*
X41700000Y87800000D01*
X41700000Y86900000D01*
X41600000Y86400000D01*
X41400000Y85800000D01*
X41100000Y85300000D01*
X40800000Y84800000D01*
X40200000Y84200000D01*
X40200000Y79600000D01*
G37*
X40200000Y79600000D02*
X40700000Y79800000D01*
X41500000Y80200000D01*
X42300000Y80700000D01*
X42900000Y81200000D01*
X43300000Y81500000D01*
X43800000Y82100000D01*
X44500000Y83000000D01*
X44800000Y83500000D01*
X45100000Y84100000D01*
X45300000Y84600000D01*
X45500000Y85200000D01*
X45600000Y85600000D01*
X45700000Y86200000D01*
X45800000Y88100000D01*
X45800000Y88500000D01*
X41600000Y88500000D01*
X41700000Y88200000D01*
X41700000Y87800000D01*
X41700000Y86900000D01*
X41600000Y86400000D01*
X41400000Y85800000D01*
X41100000Y85300000D01*
X40800000Y84800000D01*
X40200000Y84200000D01*
X40200000Y79600000D01*
G36*
X29200000Y87500000D02*
G01*
X33300000Y87500000D01*
X33300000Y87000000D01*
X33600000Y85800000D01*
X34300000Y84700000D01*
X35100000Y84000000D01*
X35800000Y83600000D01*
X36900000Y83300000D01*
X38000000Y83300000D01*
X39200000Y83600000D01*
X40200000Y84200000D01*
X40200000Y79600000D01*
X38400000Y79200000D01*
X37000000Y79200000D01*
X35500000Y79400000D01*
X34300000Y79800000D01*
X33400000Y80200000D01*
X32500000Y80800000D01*
X31300000Y81900000D01*
X30500000Y83000000D01*
X30000000Y83800000D01*
X29400000Y85400000D01*
X29200000Y86800000D01*
X29200000Y87500000D01*
G37*
X29200000Y87500000D02*
X33300000Y87500000D01*
X33300000Y87000000D01*
X33600000Y85800000D01*
X34300000Y84700000D01*
X35100000Y84000000D01*
X35800000Y83600000D01*
X36900000Y83300000D01*
X38000000Y83300000D01*
X39200000Y83600000D01*
X40200000Y84200000D01*
X40200000Y79600000D01*
X38400000Y79200000D01*
X37000000Y79200000D01*
X35500000Y79400000D01*
X34300000Y79800000D01*
X33400000Y80200000D01*
X32500000Y80800000D01*
X31300000Y81900000D01*
X30500000Y83000000D01*
X30000000Y83800000D01*
X29400000Y85400000D01*
X29200000Y86800000D01*
X29200000Y87500000D01*
G36*
X12000000Y91700000D02*
G01*
X12000000Y95800000D01*
X12800000Y95800000D01*
X14000000Y95700000D01*
X15000000Y95400000D01*
X15800000Y95100000D01*
X16500000Y94800000D01*
X17300000Y94300000D01*
X18000000Y93800000D01*
X18600000Y93200000D01*
X19100000Y92600000D01*
X19500000Y92000000D01*
X19900000Y91300000D01*
X20300000Y90400000D01*
X20500000Y89800000D01*
X20700000Y88900000D01*
X20800000Y88500000D01*
X16600000Y88500000D01*
X16400000Y89100000D01*
X16100000Y89700000D01*
X15600000Y90400000D01*
X15000000Y90900000D01*
X14600000Y91200000D01*
X14200000Y91400000D01*
X13700000Y91600000D01*
X13200000Y91700000D01*
X12000000Y91700000D01*
G37*
X12000000Y91700000D02*
X12000000Y95800000D01*
X12800000Y95800000D01*
X14000000Y95700000D01*
X15000000Y95400000D01*
X15800000Y95100000D01*
X16500000Y94800000D01*
X17300000Y94300000D01*
X18000000Y93800000D01*
X18600000Y93200000D01*
X19100000Y92600000D01*
X19500000Y92000000D01*
X19900000Y91300000D01*
X20300000Y90400000D01*
X20500000Y89800000D01*
X20700000Y88900000D01*
X20800000Y88500000D01*
X16600000Y88500000D01*
X16400000Y89100000D01*
X16100000Y89700000D01*
X15600000Y90400000D01*
X15000000Y90900000D01*
X14600000Y91200000D01*
X14200000Y91400000D01*
X13700000Y91600000D01*
X13200000Y91700000D01*
X12000000Y91700000D01*
G36*
X4200000Y87500000D02*
G01*
X4200000Y87900000D01*
X4300000Y88900000D01*
X4600000Y90100000D01*
X5000000Y91100000D01*
X5300000Y91700000D01*
X5800000Y92400000D01*
X6400000Y93200000D01*
X7300000Y94000000D01*
X8000000Y94500000D01*
X8700000Y94900000D01*
X9600000Y95300000D01*
X10500000Y95600000D01*
X11100000Y95700000D01*
X12000000Y95800000D01*
X12000000Y91700000D01*
X11400000Y91600000D01*
X10800000Y91400000D01*
X10300000Y91100000D01*
X9700000Y90700000D01*
X9100000Y90000000D01*
X8600000Y89200000D01*
X8400000Y88500000D01*
X8300000Y87500000D01*
X4200000Y87500000D01*
G37*
X4200000Y87500000D02*
X4200000Y87900000D01*
X4300000Y88900000D01*
X4600000Y90100000D01*
X5000000Y91100000D01*
X5300000Y91700000D01*
X5800000Y92400000D01*
X6400000Y93200000D01*
X7300000Y94000000D01*
X8000000Y94500000D01*
X8700000Y94900000D01*
X9600000Y95300000D01*
X10500000Y95600000D01*
X11100000Y95700000D01*
X12000000Y95800000D01*
X12000000Y91700000D01*
X11400000Y91600000D01*
X10800000Y91400000D01*
X10300000Y91100000D01*
X9700000Y90700000D01*
X9100000Y90000000D01*
X8600000Y89200000D01*
X8400000Y88500000D01*
X8300000Y87500000D01*
X4200000Y87500000D01*
G36*
X15200000Y79600000D02*
G01*
X15700000Y79800000D01*
X16500000Y80200000D01*
X17300000Y80700000D01*
X17900000Y81200000D01*
X18300000Y81500000D01*
X18800000Y82100000D01*
X19500000Y83000000D01*
X19800000Y83500000D01*
X20100000Y84100000D01*
X20300000Y84600000D01*
X20500000Y85200000D01*
X20600000Y85600000D01*
X20700000Y86200000D01*
X20800000Y88100000D01*
X20800000Y88500000D01*
X16600000Y88500000D01*
X16700000Y88200000D01*
X16700000Y87800000D01*
X16700000Y86900000D01*
X16600000Y86400000D01*
X16400000Y85800000D01*
X16100000Y85300000D01*
X15800000Y84800000D01*
X15200000Y84200000D01*
X15200000Y79600000D01*
G37*
X15200000Y79600000D02*
X15700000Y79800000D01*
X16500000Y80200000D01*
X17300000Y80700000D01*
X17900000Y81200000D01*
X18300000Y81500000D01*
X18800000Y82100000D01*
X19500000Y83000000D01*
X19800000Y83500000D01*
X20100000Y84100000D01*
X20300000Y84600000D01*
X20500000Y85200000D01*
X20600000Y85600000D01*
X20700000Y86200000D01*
X20800000Y88100000D01*
X20800000Y88500000D01*
X16600000Y88500000D01*
X16700000Y88200000D01*
X16700000Y87800000D01*
X16700000Y86900000D01*
X16600000Y86400000D01*
X16400000Y85800000D01*
X16100000Y85300000D01*
X15800000Y84800000D01*
X15200000Y84200000D01*
X15200000Y79600000D01*
G36*
X4200000Y87500000D02*
G01*
X8300000Y87500000D01*
X8300000Y87000000D01*
X8600000Y85800000D01*
X9300000Y84700000D01*
X10100000Y84000000D01*
X10800000Y83600000D01*
X11900000Y83300000D01*
X13000000Y83300000D01*
X14200000Y83600000D01*
X15200000Y84200000D01*
X15200000Y79600000D01*
X13400000Y79200000D01*
X12000000Y79200000D01*
X10500000Y79400000D01*
X9300000Y79800000D01*
X8400000Y80200000D01*
X7500000Y80800000D01*
X6300000Y81900000D01*
X5500000Y83000000D01*
X5000000Y83800000D01*
X4400000Y85400000D01*
X4200000Y86800000D01*
X4200000Y87500000D01*
G37*
X4200000Y87500000D02*
X8300000Y87500000D01*
X8300000Y87000000D01*
X8600000Y85800000D01*
X9300000Y84700000D01*
X10100000Y84000000D01*
X10800000Y83600000D01*
X11900000Y83300000D01*
X13000000Y83300000D01*
X14200000Y83600000D01*
X15200000Y84200000D01*
X15200000Y79600000D01*
X13400000Y79200000D01*
X12000000Y79200000D01*
X10500000Y79400000D01*
X9300000Y79800000D01*
X8400000Y80200000D01*
X7500000Y80800000D01*
X6300000Y81900000D01*
X5500000Y83000000D01*
X5000000Y83800000D01*
X4400000Y85400000D01*
X4200000Y86800000D01*
X4200000Y87500000D01*
G36*
X90751000Y10349000D02*
G01*
X89149000Y10349000D01*
X89149000Y11451000D01*
X90751000Y11451000D01*
X90751000Y10349000D01*
X90751000Y10349000D01*
G37*
G36*
X85851000Y10349000D02*
G01*
X84249000Y10349000D01*
X84249000Y11451000D01*
X85851000Y11451000D01*
X85851000Y10349000D01*
X85851000Y10349000D01*
G37*
G36*
X65751000Y10349000D02*
G01*
X64149000Y10349000D01*
X64149000Y11451000D01*
X65751000Y11451000D01*
X65751000Y10349000D01*
X65751000Y10349000D01*
G37*
G36*
X60851000Y10349000D02*
G01*
X59249000Y10349000D01*
X59249000Y11451000D01*
X60851000Y11451000D01*
X60851000Y10349000D01*
X60851000Y10349000D01*
G37*
G36*
X40751000Y10349000D02*
G01*
X39149000Y10349000D01*
X39149000Y11451000D01*
X40751000Y11451000D01*
X40751000Y10349000D01*
X40751000Y10349000D01*
G37*
G36*
X35851000Y10349000D02*
G01*
X34249000Y10349000D01*
X34249000Y11451000D01*
X35851000Y11451000D01*
X35851000Y10349000D01*
X35851000Y10349000D01*
G37*
G36*
X15751000Y10349000D02*
G01*
X14149000Y10349000D01*
X14149000Y11451000D01*
X15751000Y11451000D01*
X15751000Y10349000D01*
X15751000Y10349000D01*
G37*
G36*
X10851000Y10349000D02*
G01*
X9249000Y10349000D01*
X9249000Y11451000D01*
X10851000Y11451000D01*
X10851000Y10349000D01*
X10851000Y10349000D01*
G37*
G36*
X60851000Y13549000D02*
G01*
X59249000Y13549000D01*
X59249000Y14651000D01*
X60851000Y14651000D01*
X60851000Y13549000D01*
X60851000Y13549000D01*
G37*
G36*
X10851000Y13549000D02*
G01*
X9249000Y13549000D01*
X9249000Y14651000D01*
X10851000Y14651000D01*
X10851000Y13549000D01*
X10851000Y13549000D01*
G37*
G36*
X15751000Y13549000D02*
G01*
X14149000Y13549000D01*
X14149000Y14651000D01*
X15751000Y14651000D01*
X15751000Y13549000D01*
X15751000Y13549000D01*
G37*
G36*
X85851000Y13549000D02*
G01*
X84249000Y13549000D01*
X84249000Y14651000D01*
X85851000Y14651000D01*
X85851000Y13549000D01*
X85851000Y13549000D01*
G37*
G36*
X35851000Y13549000D02*
G01*
X34249000Y13549000D01*
X34249000Y14651000D01*
X35851000Y14651000D01*
X35851000Y13549000D01*
X35851000Y13549000D01*
G37*
G36*
X65751000Y13549000D02*
G01*
X64149000Y13549000D01*
X64149000Y14651000D01*
X65751000Y14651000D01*
X65751000Y13549000D01*
X65751000Y13549000D01*
G37*
G36*
X40751000Y13549000D02*
G01*
X39149000Y13549000D01*
X39149000Y14651000D01*
X40751000Y14651000D01*
X40751000Y13549000D01*
X40751000Y13549000D01*
G37*
G36*
X90751000Y13549000D02*
G01*
X89149000Y13549000D01*
X89149000Y14651000D01*
X90751000Y14651000D01*
X90751000Y13549000D01*
X90751000Y13549000D01*
G37*
G36*
X90751000Y35349000D02*
G01*
X89149000Y35349000D01*
X89149000Y36451000D01*
X90751000Y36451000D01*
X90751000Y35349000D01*
X90751000Y35349000D01*
G37*
G36*
X85851000Y35349000D02*
G01*
X84249000Y35349000D01*
X84249000Y36451000D01*
X85851000Y36451000D01*
X85851000Y35349000D01*
X85851000Y35349000D01*
G37*
G36*
X10851000Y35349000D02*
G01*
X9249000Y35349000D01*
X9249000Y36451000D01*
X10851000Y36451000D01*
X10851000Y35349000D01*
X10851000Y35349000D01*
G37*
G36*
X65751000Y35349000D02*
G01*
X64149000Y35349000D01*
X64149000Y36451000D01*
X65751000Y36451000D01*
X65751000Y35349000D01*
X65751000Y35349000D01*
G37*
G36*
X60851000Y35349000D02*
G01*
X59249000Y35349000D01*
X59249000Y36451000D01*
X60851000Y36451000D01*
X60851000Y35349000D01*
X60851000Y35349000D01*
G37*
G36*
X40751000Y35349000D02*
G01*
X39149000Y35349000D01*
X39149000Y36451000D01*
X40751000Y36451000D01*
X40751000Y35349000D01*
X40751000Y35349000D01*
G37*
G36*
X35851000Y35349000D02*
G01*
X34249000Y35349000D01*
X34249000Y36451000D01*
X35851000Y36451000D01*
X35851000Y35349000D01*
X35851000Y35349000D01*
G37*
G36*
X15751000Y35349000D02*
G01*
X14149000Y35349000D01*
X14149000Y36451000D01*
X15751000Y36451000D01*
X15751000Y35349000D01*
X15751000Y35349000D01*
G37*
G36*
X10851000Y38549000D02*
G01*
X9249000Y38549000D01*
X9249000Y39651000D01*
X10851000Y39651000D01*
X10851000Y38549000D01*
X10851000Y38549000D01*
G37*
G36*
X15751000Y38549000D02*
G01*
X14149000Y38549000D01*
X14149000Y39651000D01*
X15751000Y39651000D01*
X15751000Y38549000D01*
X15751000Y38549000D01*
G37*
G36*
X35851000Y38549000D02*
G01*
X34249000Y38549000D01*
X34249000Y39651000D01*
X35851000Y39651000D01*
X35851000Y38549000D01*
X35851000Y38549000D01*
G37*
G36*
X40751000Y38549000D02*
G01*
X39149000Y38549000D01*
X39149000Y39651000D01*
X40751000Y39651000D01*
X40751000Y38549000D01*
X40751000Y38549000D01*
G37*
G36*
X60851000Y38549000D02*
G01*
X59249000Y38549000D01*
X59249000Y39651000D01*
X60851000Y39651000D01*
X60851000Y38549000D01*
X60851000Y38549000D01*
G37*
G36*
X65751000Y38549000D02*
G01*
X64149000Y38549000D01*
X64149000Y39651000D01*
X65751000Y39651000D01*
X65751000Y38549000D01*
X65751000Y38549000D01*
G37*
G36*
X85851000Y38549000D02*
G01*
X84249000Y38549000D01*
X84249000Y39651000D01*
X85851000Y39651000D01*
X85851000Y38549000D01*
X85851000Y38549000D01*
G37*
G36*
X90751000Y38549000D02*
G01*
X89149000Y38549000D01*
X89149000Y39651000D01*
X90751000Y39651000D01*
X90751000Y38549000D01*
X90751000Y38549000D01*
G37*
G36*
X90751000Y60349000D02*
G01*
X89149000Y60349000D01*
X89149000Y61451000D01*
X90751000Y61451000D01*
X90751000Y60349000D01*
X90751000Y60349000D01*
G37*
G36*
X15751000Y60349000D02*
G01*
X14149000Y60349000D01*
X14149000Y61451000D01*
X15751000Y61451000D01*
X15751000Y60349000D01*
X15751000Y60349000D01*
G37*
G36*
X85851000Y60349000D02*
G01*
X84249000Y60349000D01*
X84249000Y61451000D01*
X85851000Y61451000D01*
X85851000Y60349000D01*
X85851000Y60349000D01*
G37*
G36*
X35851000Y60349000D02*
G01*
X34249000Y60349000D01*
X34249000Y61451000D01*
X35851000Y61451000D01*
X35851000Y60349000D01*
X35851000Y60349000D01*
G37*
G36*
X65751000Y60349000D02*
G01*
X64149000Y60349000D01*
X64149000Y61451000D01*
X65751000Y61451000D01*
X65751000Y60349000D01*
X65751000Y60349000D01*
G37*
G36*
X40751000Y60349000D02*
G01*
X39149000Y60349000D01*
X39149000Y61451000D01*
X40751000Y61451000D01*
X40751000Y60349000D01*
X40751000Y60349000D01*
G37*
G36*
X60851000Y60349000D02*
G01*
X59249000Y60349000D01*
X59249000Y61451000D01*
X60851000Y61451000D01*
X60851000Y60349000D01*
X60851000Y60349000D01*
G37*
G36*
X10851000Y60349000D02*
G01*
X9249000Y60349000D01*
X9249000Y61451000D01*
X10851000Y61451000D01*
X10851000Y60349000D01*
X10851000Y60349000D01*
G37*
G36*
X10851000Y63549000D02*
G01*
X9249000Y63549000D01*
X9249000Y64651000D01*
X10851000Y64651000D01*
X10851000Y63549000D01*
X10851000Y63549000D01*
G37*
G36*
X15751000Y63549000D02*
G01*
X14149000Y63549000D01*
X14149000Y64651000D01*
X15751000Y64651000D01*
X15751000Y63549000D01*
X15751000Y63549000D01*
G37*
G36*
X35851000Y63549000D02*
G01*
X34249000Y63549000D01*
X34249000Y64651000D01*
X35851000Y64651000D01*
X35851000Y63549000D01*
X35851000Y63549000D01*
G37*
G36*
X40751000Y63549000D02*
G01*
X39149000Y63549000D01*
X39149000Y64651000D01*
X40751000Y64651000D01*
X40751000Y63549000D01*
X40751000Y63549000D01*
G37*
G36*
X60851000Y63549000D02*
G01*
X59249000Y63549000D01*
X59249000Y64651000D01*
X60851000Y64651000D01*
X60851000Y63549000D01*
X60851000Y63549000D01*
G37*
G36*
X65751000Y63549000D02*
G01*
X64149000Y63549000D01*
X64149000Y64651000D01*
X65751000Y64651000D01*
X65751000Y63549000D01*
X65751000Y63549000D01*
G37*
G36*
X85851000Y63549000D02*
G01*
X84249000Y63549000D01*
X84249000Y64651000D01*
X85851000Y64651000D01*
X85851000Y63549000D01*
X85851000Y63549000D01*
G37*
G36*
X90751000Y63549000D02*
G01*
X89149000Y63549000D01*
X89149000Y64651000D01*
X90751000Y64651000D01*
X90751000Y63549000D01*
X90751000Y63549000D01*
G37*
G36*
X90751000Y85349000D02*
G01*
X89149000Y85349000D01*
X89149000Y86451000D01*
X90751000Y86451000D01*
X90751000Y85349000D01*
X90751000Y85349000D01*
G37*
G36*
X85851000Y85349000D02*
G01*
X84249000Y85349000D01*
X84249000Y86451000D01*
X85851000Y86451000D01*
X85851000Y85349000D01*
X85851000Y85349000D01*
G37*
G36*
X65751000Y85349000D02*
G01*
X64149000Y85349000D01*
X64149000Y86451000D01*
X65751000Y86451000D01*
X65751000Y85349000D01*
X65751000Y85349000D01*
G37*
G36*
X60851000Y85349000D02*
G01*
X59249000Y85349000D01*
X59249000Y86451000D01*
X60851000Y86451000D01*
X60851000Y85349000D01*
X60851000Y85349000D01*
G37*
G36*
X40751000Y85349000D02*
G01*
X39149000Y85349000D01*
X39149000Y86451000D01*
X40751000Y86451000D01*
X40751000Y85349000D01*
X40751000Y85349000D01*
G37*
G36*
X35851000Y85349000D02*
G01*
X34249000Y85349000D01*
X34249000Y86451000D01*
X35851000Y86451000D01*
X35851000Y85349000D01*
X35851000Y85349000D01*
G37*
G36*
X10851000Y85349000D02*
G01*
X9249000Y85349000D01*
X9249000Y86451000D01*
X10851000Y86451000D01*
X10851000Y85349000D01*
X10851000Y85349000D01*
G37*
G36*
X15751000Y85349000D02*
G01*
X14149000Y85349000D01*
X14149000Y86451000D01*
X15751000Y86451000D01*
X15751000Y85349000D01*
X15751000Y85349000D01*
G37*
G36*
X35851000Y88549000D02*
G01*
X34249000Y88549000D01*
X34249000Y89651000D01*
X35851000Y89651000D01*
X35851000Y88549000D01*
X35851000Y88549000D01*
G37*
G36*
X15751000Y88549000D02*
G01*
X14149000Y88549000D01*
X14149000Y89651000D01*
X15751000Y89651000D01*
X15751000Y88549000D01*
X15751000Y88549000D01*
G37*
G36*
X90751000Y88549000D02*
G01*
X89149000Y88549000D01*
X89149000Y89651000D01*
X90751000Y89651000D01*
X90751000Y88549000D01*
X90751000Y88549000D01*
G37*
G36*
X40751000Y88549000D02*
G01*
X39149000Y88549000D01*
X39149000Y89651000D01*
X40751000Y89651000D01*
X40751000Y88549000D01*
X40751000Y88549000D01*
G37*
G36*
X85851000Y88549000D02*
G01*
X84249000Y88549000D01*
X84249000Y89651000D01*
X85851000Y89651000D01*
X85851000Y88549000D01*
X85851000Y88549000D01*
G37*
G36*
X60851000Y88549000D02*
G01*
X59249000Y88549000D01*
X59249000Y89651000D01*
X60851000Y89651000D01*
X60851000Y88549000D01*
X60851000Y88549000D01*
G37*
G36*
X65751000Y88549000D02*
G01*
X64149000Y88549000D01*
X64149000Y89651000D01*
X65751000Y89651000D01*
X65751000Y88549000D01*
X65751000Y88549000D01*
G37*
G36*
X10851000Y88549000D02*
G01*
X9249000Y88549000D01*
X9249000Y89651000D01*
X10851000Y89651000D01*
X10851000Y88549000D01*
X10851000Y88549000D01*
G37*
G36*
X97806416Y102700121D02*
G01*
X97997592Y102620933D01*
X97997594Y102620932D01*
X98169648Y102505969D01*
X98315969Y102359648D01*
X98419477Y102204738D01*
X98430933Y102187592D01*
X98510121Y101996416D01*
X98550490Y101793466D01*
X98550490Y101586534D01*
X98510121Y101383584D01*
X98430933Y101192408D01*
X98430932Y101192406D01*
X98315969Y101020352D01*
X98169648Y100874031D01*
X97997594Y100759068D01*
X97997593Y100759067D01*
X97997592Y100759067D01*
X97806416Y100679879D01*
X97603466Y100639510D01*
X97396534Y100639510D01*
X97193584Y100679879D01*
X97002408Y100759067D01*
X97002407Y100759067D01*
X97002406Y100759068D01*
X96830352Y100874031D01*
X96684031Y101020352D01*
X96569068Y101192406D01*
X96569067Y101192408D01*
X96489879Y101383584D01*
X96449510Y101586534D01*
X96449510Y101793466D01*
X96489879Y101996416D01*
X96569067Y102187592D01*
X96580524Y102204738D01*
X96684031Y102359648D01*
X96830352Y102505969D01*
X97002406Y102620932D01*
X97002408Y102620933D01*
X97193584Y102700121D01*
X97396534Y102740490D01*
X97603466Y102740490D01*
X97806416Y102700121D01*
X97806416Y102700121D01*
G37*
G36*
X3550490Y100699510D02*
G01*
X1449510Y100699510D01*
X1449510Y102800490D01*
X3550490Y102800490D01*
X3550490Y100699510D01*
X3550490Y100699510D01*
G37*
G36*
X91659928Y102193236D02*
G01*
X91681009Y102186840D01*
X91700445Y102176452D01*
X91717476Y102162476D01*
X91731452Y102145445D01*
X91741840Y102126009D01*
X91748236Y102104928D01*
X91751000Y102076860D01*
X91751000Y101613140D01*
X91748236Y101585072D01*
X91741840Y101563991D01*
X91731452Y101544555D01*
X91717476Y101527524D01*
X91700445Y101513548D01*
X91681009Y101503160D01*
X91659928Y101496764D01*
X91631860Y101494000D01*
X90218140Y101494000D01*
X90190072Y101496764D01*
X90168991Y101503160D01*
X90149555Y101513548D01*
X90132524Y101527524D01*
X90118548Y101544555D01*
X90108160Y101563991D01*
X90101764Y101585072D01*
X90099000Y101613140D01*
X90099000Y102076860D01*
X90101764Y102104928D01*
X90108160Y102126009D01*
X90118548Y102145445D01*
X90132524Y102162476D01*
X90149555Y102176452D01*
X90168991Y102186840D01*
X90190072Y102193236D01*
X90218140Y102196000D01*
X91631860Y102196000D01*
X91659928Y102193236D01*
X91659928Y102193236D01*
G37*
G36*
X86309928Y102193236D02*
G01*
X86331009Y102186840D01*
X86350445Y102176452D01*
X86367476Y102162476D01*
X86381452Y102145445D01*
X86391840Y102126009D01*
X86398236Y102104928D01*
X86401000Y102076860D01*
X86401000Y101613140D01*
X86398236Y101585072D01*
X86391840Y101563991D01*
X86381452Y101544555D01*
X86367476Y101527524D01*
X86350445Y101513548D01*
X86331009Y101503160D01*
X86309928Y101496764D01*
X86281860Y101494000D01*
X84868140Y101494000D01*
X84840072Y101496764D01*
X84818991Y101503160D01*
X84799555Y101513548D01*
X84782524Y101527524D01*
X84768548Y101544555D01*
X84758160Y101563991D01*
X84751764Y101585072D01*
X84749000Y101613140D01*
X84749000Y102076860D01*
X84751764Y102104928D01*
X84758160Y102126009D01*
X84768548Y102145445D01*
X84782524Y102162476D01*
X84799555Y102176452D01*
X84818991Y102186840D01*
X84840072Y102193236D01*
X84868140Y102196000D01*
X86281860Y102196000D01*
X86309928Y102193236D01*
X86309928Y102193236D01*
G37*
G36*
X11409928Y102343236D02*
G01*
X11431009Y102336840D01*
X11450445Y102326452D01*
X11467476Y102312476D01*
X11481452Y102295445D01*
X11491840Y102276009D01*
X11498236Y102254928D01*
X11501000Y102226860D01*
X11501000Y101763140D01*
X11498236Y101735072D01*
X11491840Y101713991D01*
X11481452Y101694555D01*
X11467476Y101677524D01*
X11450445Y101663548D01*
X11431009Y101653160D01*
X11409928Y101646764D01*
X11381860Y101644000D01*
X9968140Y101644000D01*
X9940072Y101646764D01*
X9918991Y101653160D01*
X9899555Y101663548D01*
X9882524Y101677524D01*
X9868548Y101694555D01*
X9858160Y101713991D01*
X9851764Y101735072D01*
X9849000Y101763140D01*
X9849000Y102226860D01*
X9851764Y102254928D01*
X9858160Y102276009D01*
X9868548Y102295445D01*
X9882524Y102312476D01*
X9899555Y102326452D01*
X9918991Y102336840D01*
X9940072Y102343236D01*
X9968140Y102346000D01*
X11381860Y102346000D01*
X11409928Y102343236D01*
X11409928Y102343236D01*
G37*
G36*
X6059928Y102343236D02*
G01*
X6081009Y102336840D01*
X6100445Y102326452D01*
X6117476Y102312476D01*
X6131452Y102295445D01*
X6141840Y102276009D01*
X6148236Y102254928D01*
X6151000Y102226860D01*
X6151000Y101763140D01*
X6148236Y101735072D01*
X6141840Y101713991D01*
X6131452Y101694555D01*
X6117476Y101677524D01*
X6100445Y101663548D01*
X6081009Y101653160D01*
X6059928Y101646764D01*
X6031860Y101644000D01*
X4618140Y101644000D01*
X4590072Y101646764D01*
X4568991Y101653160D01*
X4549555Y101663548D01*
X4532524Y101677524D01*
X4518548Y101694555D01*
X4508160Y101713991D01*
X4501764Y101735072D01*
X4499000Y101763140D01*
X4499000Y102226860D01*
X4501764Y102254928D01*
X4508160Y102276009D01*
X4518548Y102295445D01*
X4532524Y102312476D01*
X4549555Y102326452D01*
X4568991Y102336840D01*
X4590072Y102343236D01*
X4618140Y102346000D01*
X6031860Y102346000D01*
X6059928Y102343236D01*
X6059928Y102343236D01*
G37*
G36*
X58809468Y103246435D02*
G01*
X58848138Y103234704D01*
X58883777Y103215654D01*
X58915017Y103190017D01*
X58940654Y103158777D01*
X58959704Y103123138D01*
X58971435Y103084468D01*
X58976000Y103038112D01*
X58976000Y101961888D01*
X58971435Y101915532D01*
X58959704Y101876862D01*
X58940654Y101841223D01*
X58915017Y101809983D01*
X58883777Y101784346D01*
X58848138Y101765296D01*
X58809468Y101753565D01*
X58763112Y101749000D01*
X58111888Y101749000D01*
X58065532Y101753565D01*
X58026862Y101765296D01*
X57991223Y101784346D01*
X57959983Y101809983D01*
X57934346Y101841223D01*
X57915296Y101876862D01*
X57903565Y101915532D01*
X57899000Y101961888D01*
X57899000Y103038112D01*
X57903565Y103084468D01*
X57915296Y103123138D01*
X57934346Y103158777D01*
X57959983Y103190017D01*
X57991223Y103215654D01*
X58026862Y103234704D01*
X58065532Y103246435D01*
X58111888Y103251000D01*
X58763112Y103251000D01*
X58809468Y103246435D01*
X58809468Y103246435D01*
G37*
G36*
X56934468Y103246435D02*
G01*
X56973138Y103234704D01*
X57008777Y103215654D01*
X57040017Y103190017D01*
X57065654Y103158777D01*
X57084704Y103123138D01*
X57096435Y103084468D01*
X57101000Y103038112D01*
X57101000Y101961888D01*
X57096435Y101915532D01*
X57084704Y101876862D01*
X57065654Y101841223D01*
X57040017Y101809983D01*
X57008777Y101784346D01*
X56973138Y101765296D01*
X56934468Y101753565D01*
X56888112Y101749000D01*
X56236888Y101749000D01*
X56190532Y101753565D01*
X56151862Y101765296D01*
X56116223Y101784346D01*
X56084983Y101809983D01*
X56059346Y101841223D01*
X56040296Y101876862D01*
X56028565Y101915532D01*
X56024000Y101961888D01*
X56024000Y103038112D01*
X56028565Y103084468D01*
X56040296Y103123138D01*
X56059346Y103158777D01*
X56084983Y103190017D01*
X56116223Y103215654D01*
X56151862Y103234704D01*
X56190532Y103246435D01*
X56236888Y103251000D01*
X56888112Y103251000D01*
X56934468Y103246435D01*
X56934468Y103246435D01*
G37*
G36*
X55159928Y102693236D02*
G01*
X55181009Y102686840D01*
X55200445Y102676452D01*
X55217476Y102662476D01*
X55231452Y102645445D01*
X55241840Y102626009D01*
X55248236Y102604928D01*
X55251000Y102576860D01*
X55251000Y102113140D01*
X55248236Y102085072D01*
X55241840Y102063991D01*
X55231452Y102044555D01*
X55217476Y102027524D01*
X55200445Y102013548D01*
X55181009Y102003160D01*
X55159928Y101996764D01*
X55131860Y101994000D01*
X53718140Y101994000D01*
X53690072Y101996764D01*
X53668991Y102003160D01*
X53649555Y102013548D01*
X53632524Y102027524D01*
X53618548Y102044555D01*
X53608160Y102063991D01*
X53601764Y102085072D01*
X53599000Y102113140D01*
X53599000Y102576860D01*
X53601764Y102604928D01*
X53608160Y102626009D01*
X53618548Y102645445D01*
X53632524Y102662476D01*
X53649555Y102676452D01*
X53668991Y102686840D01*
X53690072Y102693236D01*
X53718140Y102696000D01*
X55131860Y102696000D01*
X55159928Y102693236D01*
X55159928Y102693236D01*
G37*
G36*
X49809928Y102693236D02*
G01*
X49831009Y102686840D01*
X49850445Y102676452D01*
X49867476Y102662476D01*
X49881452Y102645445D01*
X49891840Y102626009D01*
X49898236Y102604928D01*
X49901000Y102576860D01*
X49901000Y102113140D01*
X49898236Y102085072D01*
X49891840Y102063991D01*
X49881452Y102044555D01*
X49867476Y102027524D01*
X49850445Y102013548D01*
X49831009Y102003160D01*
X49809928Y101996764D01*
X49781860Y101994000D01*
X48368140Y101994000D01*
X48340072Y101996764D01*
X48318991Y102003160D01*
X48299555Y102013548D01*
X48282524Y102027524D01*
X48268548Y102044555D01*
X48258160Y102063991D01*
X48251764Y102085072D01*
X48249000Y102113140D01*
X48249000Y102576860D01*
X48251764Y102604928D01*
X48258160Y102626009D01*
X48268548Y102645445D01*
X48282524Y102662476D01*
X48299555Y102676452D01*
X48318991Y102686840D01*
X48340072Y102693236D01*
X48368140Y102696000D01*
X49781860Y102696000D01*
X49809928Y102693236D01*
X49809928Y102693236D01*
G37*
G36*
X94879591Y103446915D02*
G01*
X94913569Y103436607D01*
X94944890Y103419866D01*
X94972339Y103397339D01*
X94994866Y103369890D01*
X95011607Y103338569D01*
X95021915Y103304591D01*
X95026000Y103263110D01*
X95026000Y102661890D01*
X95021915Y102620409D01*
X95011607Y102586431D01*
X94994866Y102555110D01*
X94972339Y102527661D01*
X94944890Y102505134D01*
X94913569Y102488393D01*
X94879591Y102478085D01*
X94838110Y102474000D01*
X94161890Y102474000D01*
X94120409Y102478085D01*
X94086431Y102488393D01*
X94055110Y102505134D01*
X94027661Y102527661D01*
X94005134Y102555110D01*
X93988393Y102586431D01*
X93978085Y102620409D01*
X93974000Y102661890D01*
X93974000Y103263110D01*
X93978085Y103304591D01*
X93988393Y103338569D01*
X94005134Y103369890D01*
X94027661Y103397339D01*
X94055110Y103419866D01*
X94086431Y103436607D01*
X94120409Y103446915D01*
X94161890Y103451000D01*
X94838110Y103451000D01*
X94879591Y103446915D01*
X94879591Y103446915D01*
G37*
G36*
X93379591Y103446915D02*
G01*
X93413569Y103436607D01*
X93444890Y103419866D01*
X93472339Y103397339D01*
X93494866Y103369890D01*
X93511607Y103338569D01*
X93521915Y103304591D01*
X93526000Y103263110D01*
X93526000Y102661890D01*
X93521915Y102620409D01*
X93511607Y102586431D01*
X93494866Y102555110D01*
X93472339Y102527661D01*
X93444890Y102505134D01*
X93413569Y102488393D01*
X93379591Y102478085D01*
X93338110Y102474000D01*
X92661890Y102474000D01*
X92620409Y102478085D01*
X92586431Y102488393D01*
X92555110Y102505134D01*
X92527661Y102527661D01*
X92505134Y102555110D01*
X92488393Y102586431D01*
X92478085Y102620409D01*
X92474000Y102661890D01*
X92474000Y103263110D01*
X92478085Y103304591D01*
X92488393Y103338569D01*
X92505134Y103369890D01*
X92527661Y103397339D01*
X92555110Y103419866D01*
X92586431Y103436607D01*
X92620409Y103446915D01*
X92661890Y103451000D01*
X93338110Y103451000D01*
X93379591Y103446915D01*
X93379591Y103446915D01*
G37*
G36*
X91659928Y103463236D02*
G01*
X91681009Y103456840D01*
X91700445Y103446452D01*
X91717476Y103432476D01*
X91731452Y103415445D01*
X91741840Y103396009D01*
X91748236Y103374928D01*
X91751000Y103346860D01*
X91751000Y102883140D01*
X91748236Y102855072D01*
X91741840Y102833991D01*
X91731452Y102814555D01*
X91717476Y102797524D01*
X91700445Y102783548D01*
X91681009Y102773160D01*
X91659928Y102766764D01*
X91631860Y102764000D01*
X90218140Y102764000D01*
X90190072Y102766764D01*
X90168991Y102773160D01*
X90149555Y102783548D01*
X90132524Y102797524D01*
X90118548Y102814555D01*
X90108160Y102833991D01*
X90101764Y102855072D01*
X90099000Y102883140D01*
X90099000Y103346860D01*
X90101764Y103374928D01*
X90108160Y103396009D01*
X90118548Y103415445D01*
X90132524Y103432476D01*
X90149555Y103446452D01*
X90168991Y103456840D01*
X90190072Y103463236D01*
X90218140Y103466000D01*
X91631860Y103466000D01*
X91659928Y103463236D01*
X91659928Y103463236D01*
G37*
G36*
X86309928Y103463236D02*
G01*
X86331009Y103456840D01*
X86350445Y103446452D01*
X86367476Y103432476D01*
X86381452Y103415445D01*
X86391840Y103396009D01*
X86398236Y103374928D01*
X86401000Y103346860D01*
X86401000Y102883140D01*
X86398236Y102855072D01*
X86391840Y102833991D01*
X86381452Y102814555D01*
X86367476Y102797524D01*
X86350445Y102783548D01*
X86331009Y102773160D01*
X86309928Y102766764D01*
X86281860Y102764000D01*
X84868140Y102764000D01*
X84840072Y102766764D01*
X84818991Y102773160D01*
X84799555Y102783548D01*
X84782524Y102797524D01*
X84768548Y102814555D01*
X84758160Y102833991D01*
X84751764Y102855072D01*
X84749000Y102883140D01*
X84749000Y103346860D01*
X84751764Y103374928D01*
X84758160Y103396009D01*
X84768548Y103415445D01*
X84782524Y103432476D01*
X84799555Y103446452D01*
X84818991Y103456840D01*
X84840072Y103463236D01*
X84868140Y103466000D01*
X86281860Y103466000D01*
X86309928Y103463236D01*
X86309928Y103463236D01*
G37*
G36*
X6059928Y103613236D02*
G01*
X6081009Y103606840D01*
X6100445Y103596452D01*
X6117476Y103582476D01*
X6131452Y103565445D01*
X6141840Y103546009D01*
X6148236Y103524928D01*
X6151000Y103496860D01*
X6151000Y103033140D01*
X6148236Y103005072D01*
X6141840Y102983991D01*
X6131452Y102964555D01*
X6117476Y102947524D01*
X6100445Y102933548D01*
X6081009Y102923160D01*
X6059928Y102916764D01*
X6031860Y102914000D01*
X4618140Y102914000D01*
X4590072Y102916764D01*
X4568991Y102923160D01*
X4549555Y102933548D01*
X4532524Y102947524D01*
X4518548Y102964555D01*
X4508160Y102983991D01*
X4501764Y103005072D01*
X4499000Y103033140D01*
X4499000Y103496860D01*
X4501764Y103524928D01*
X4508160Y103546009D01*
X4518548Y103565445D01*
X4532524Y103582476D01*
X4549555Y103596452D01*
X4568991Y103606840D01*
X4590072Y103613236D01*
X4618140Y103616000D01*
X6031860Y103616000D01*
X6059928Y103613236D01*
X6059928Y103613236D01*
G37*
G36*
X11409928Y103613236D02*
G01*
X11431009Y103606840D01*
X11450445Y103596452D01*
X11467476Y103582476D01*
X11481452Y103565445D01*
X11491840Y103546009D01*
X11498236Y103524928D01*
X11501000Y103496860D01*
X11501000Y103033140D01*
X11498236Y103005072D01*
X11491840Y102983991D01*
X11481452Y102964555D01*
X11467476Y102947524D01*
X11450445Y102933548D01*
X11431009Y102923160D01*
X11409928Y102916764D01*
X11381860Y102914000D01*
X9968140Y102914000D01*
X9940072Y102916764D01*
X9918991Y102923160D01*
X9899555Y102933548D01*
X9882524Y102947524D01*
X9868548Y102964555D01*
X9858160Y102983991D01*
X9851764Y103005072D01*
X9849000Y103033140D01*
X9849000Y103496860D01*
X9851764Y103524928D01*
X9858160Y103546009D01*
X9868548Y103565445D01*
X9882524Y103582476D01*
X9899555Y103596452D01*
X9918991Y103606840D01*
X9940072Y103613236D01*
X9968140Y103616000D01*
X11381860Y103616000D01*
X11409928Y103613236D01*
X11409928Y103613236D01*
G37*
G36*
X55159928Y103963236D02*
G01*
X55181009Y103956840D01*
X55200445Y103946452D01*
X55217476Y103932476D01*
X55231452Y103915445D01*
X55241840Y103896009D01*
X55248236Y103874928D01*
X55251000Y103846860D01*
X55251000Y103383140D01*
X55248236Y103355072D01*
X55241840Y103333991D01*
X55231452Y103314555D01*
X55217476Y103297524D01*
X55200445Y103283548D01*
X55181009Y103273160D01*
X55159928Y103266764D01*
X55131860Y103264000D01*
X53718140Y103264000D01*
X53690072Y103266764D01*
X53668991Y103273160D01*
X53649555Y103283548D01*
X53632524Y103297524D01*
X53618548Y103314555D01*
X53608160Y103333991D01*
X53601764Y103355072D01*
X53599000Y103383140D01*
X53599000Y103846860D01*
X53601764Y103874928D01*
X53608160Y103896009D01*
X53618548Y103915445D01*
X53632524Y103932476D01*
X53649555Y103946452D01*
X53668991Y103956840D01*
X53690072Y103963236D01*
X53718140Y103966000D01*
X55131860Y103966000D01*
X55159928Y103963236D01*
X55159928Y103963236D01*
G37*
G36*
X49809928Y103963236D02*
G01*
X49831009Y103956840D01*
X49850445Y103946452D01*
X49867476Y103932476D01*
X49881452Y103915445D01*
X49891840Y103896009D01*
X49898236Y103874928D01*
X49901000Y103846860D01*
X49901000Y103383140D01*
X49898236Y103355072D01*
X49891840Y103333991D01*
X49881452Y103314555D01*
X49867476Y103297524D01*
X49850445Y103283548D01*
X49831009Y103273160D01*
X49809928Y103266764D01*
X49781860Y103264000D01*
X48368140Y103264000D01*
X48340072Y103266764D01*
X48318991Y103273160D01*
X48299555Y103283548D01*
X48282524Y103297524D01*
X48268548Y103314555D01*
X48258160Y103333991D01*
X48251764Y103355072D01*
X48249000Y103383140D01*
X48249000Y103846860D01*
X48251764Y103874928D01*
X48258160Y103896009D01*
X48268548Y103915445D01*
X48282524Y103932476D01*
X48299555Y103946452D01*
X48318991Y103956840D01*
X48340072Y103963236D01*
X48368140Y103966000D01*
X49781860Y103966000D01*
X49809928Y103963236D01*
X49809928Y103963236D01*
G37*
G36*
X82054591Y104771915D02*
G01*
X82088569Y104761607D01*
X82119890Y104744866D01*
X82147339Y104722339D01*
X82169866Y104694890D01*
X82186607Y104663569D01*
X82196915Y104629591D01*
X82201000Y104588110D01*
X82201000Y103911890D01*
X82196915Y103870409D01*
X82186607Y103836431D01*
X82169866Y103805110D01*
X82147339Y103777661D01*
X82119890Y103755134D01*
X82088569Y103738393D01*
X82054591Y103728085D01*
X82013110Y103724000D01*
X81411890Y103724000D01*
X81370409Y103728085D01*
X81336431Y103738393D01*
X81305110Y103755134D01*
X81277661Y103777661D01*
X81255134Y103805110D01*
X81238393Y103836431D01*
X81228085Y103870409D01*
X81224000Y103911890D01*
X81224000Y104588110D01*
X81228085Y104629591D01*
X81238393Y104663569D01*
X81255134Y104694890D01*
X81277661Y104722339D01*
X81305110Y104744866D01*
X81336431Y104761607D01*
X81370409Y104771915D01*
X81411890Y104776000D01*
X82013110Y104776000D01*
X82054591Y104771915D01*
X82054591Y104771915D01*
G37*
G36*
X83629591Y104771915D02*
G01*
X83663569Y104761607D01*
X83694890Y104744866D01*
X83722339Y104722339D01*
X83744866Y104694890D01*
X83761607Y104663569D01*
X83771915Y104629591D01*
X83776000Y104588110D01*
X83776000Y103911890D01*
X83771915Y103870409D01*
X83761607Y103836431D01*
X83744866Y103805110D01*
X83722339Y103777661D01*
X83694890Y103755134D01*
X83663569Y103738393D01*
X83629591Y103728085D01*
X83588110Y103724000D01*
X82986890Y103724000D01*
X82945409Y103728085D01*
X82911431Y103738393D01*
X82880110Y103755134D01*
X82852661Y103777661D01*
X82830134Y103805110D01*
X82813393Y103836431D01*
X82803085Y103870409D01*
X82799000Y103911890D01*
X82799000Y104588110D01*
X82803085Y104629591D01*
X82813393Y104663569D01*
X82830134Y104694890D01*
X82852661Y104722339D01*
X82880110Y104744866D01*
X82911431Y104761607D01*
X82945409Y104771915D01*
X82986890Y104776000D01*
X83588110Y104776000D01*
X83629591Y104771915D01*
X83629591Y104771915D01*
G37*
G36*
X78554591Y105021915D02*
G01*
X78588569Y105011607D01*
X78619890Y104994866D01*
X78647339Y104972339D01*
X78669866Y104944890D01*
X78686607Y104913569D01*
X78696915Y104879591D01*
X78701000Y104838110D01*
X78701000Y104161890D01*
X78696915Y104120409D01*
X78686607Y104086431D01*
X78669866Y104055110D01*
X78647339Y104027661D01*
X78619890Y104005134D01*
X78588569Y103988393D01*
X78554591Y103978085D01*
X78513110Y103974000D01*
X77911890Y103974000D01*
X77870409Y103978085D01*
X77836431Y103988393D01*
X77805110Y104005134D01*
X77777661Y104027661D01*
X77755134Y104055110D01*
X77738393Y104086431D01*
X77728085Y104120409D01*
X77724000Y104161890D01*
X77724000Y104838110D01*
X77728085Y104879591D01*
X77738393Y104913569D01*
X77755134Y104944890D01*
X77777661Y104972339D01*
X77805110Y104994866D01*
X77836431Y105011607D01*
X77870409Y105021915D01*
X77911890Y105026000D01*
X78513110Y105026000D01*
X78554591Y105021915D01*
X78554591Y105021915D01*
G37*
G36*
X80129591Y105021915D02*
G01*
X80163569Y105011607D01*
X80194890Y104994866D01*
X80222339Y104972339D01*
X80244866Y104944890D01*
X80261607Y104913569D01*
X80271915Y104879591D01*
X80276000Y104838110D01*
X80276000Y104161890D01*
X80271915Y104120409D01*
X80261607Y104086431D01*
X80244866Y104055110D01*
X80222339Y104027661D01*
X80194890Y104005134D01*
X80163569Y103988393D01*
X80129591Y103978085D01*
X80088110Y103974000D01*
X79486890Y103974000D01*
X79445409Y103978085D01*
X79411431Y103988393D01*
X79380110Y104005134D01*
X79352661Y104027661D01*
X79330134Y104055110D01*
X79313393Y104086431D01*
X79303085Y104120409D01*
X79299000Y104161890D01*
X79299000Y104838110D01*
X79303085Y104879591D01*
X79313393Y104913569D01*
X79330134Y104944890D01*
X79352661Y104972339D01*
X79380110Y104994866D01*
X79411431Y105011607D01*
X79445409Y105021915D01*
X79486890Y105026000D01*
X80088110Y105026000D01*
X80129591Y105021915D01*
X80129591Y105021915D01*
G37*
G36*
X16389591Y104946915D02*
G01*
X16423569Y104936607D01*
X16454890Y104919866D01*
X16482339Y104897339D01*
X16504866Y104869890D01*
X16521607Y104838569D01*
X16531915Y104804591D01*
X16536000Y104763110D01*
X16536000Y104161890D01*
X16531915Y104120409D01*
X16521607Y104086431D01*
X16504866Y104055110D01*
X16482339Y104027661D01*
X16454890Y104005134D01*
X16423569Y103988393D01*
X16389591Y103978085D01*
X16348110Y103974000D01*
X15671890Y103974000D01*
X15630409Y103978085D01*
X15596431Y103988393D01*
X15565110Y104005134D01*
X15537661Y104027661D01*
X15515134Y104055110D01*
X15498393Y104086431D01*
X15488085Y104120409D01*
X15484000Y104161890D01*
X15484000Y104763110D01*
X15488085Y104804591D01*
X15498393Y104838569D01*
X15515134Y104869890D01*
X15537661Y104897339D01*
X15565110Y104919866D01*
X15596431Y104936607D01*
X15630409Y104946915D01*
X15671890Y104951000D01*
X16348110Y104951000D01*
X16389591Y104946915D01*
X16389591Y104946915D01*
G37*
G36*
X58629591Y105021915D02*
G01*
X58663569Y105011607D01*
X58694890Y104994866D01*
X58722339Y104972339D01*
X58744866Y104944890D01*
X58761607Y104913569D01*
X58771915Y104879591D01*
X58776000Y104838110D01*
X58776000Y104161890D01*
X58771915Y104120409D01*
X58761607Y104086431D01*
X58744866Y104055110D01*
X58722339Y104027661D01*
X58694890Y104005134D01*
X58663569Y103988393D01*
X58629591Y103978085D01*
X58588110Y103974000D01*
X57986890Y103974000D01*
X57945409Y103978085D01*
X57911431Y103988393D01*
X57880110Y104005134D01*
X57852661Y104027661D01*
X57830134Y104055110D01*
X57813393Y104086431D01*
X57803085Y104120409D01*
X57799000Y104161890D01*
X57799000Y104838110D01*
X57803085Y104879591D01*
X57813393Y104913569D01*
X57830134Y104944890D01*
X57852661Y104972339D01*
X57880110Y104994866D01*
X57911431Y105011607D01*
X57945409Y105021915D01*
X57986890Y105026000D01*
X58588110Y105026000D01*
X58629591Y105021915D01*
X58629591Y105021915D01*
G37*
G36*
X57054591Y105021915D02*
G01*
X57088569Y105011607D01*
X57119890Y104994866D01*
X57147339Y104972339D01*
X57169866Y104944890D01*
X57186607Y104913569D01*
X57196915Y104879591D01*
X57201000Y104838110D01*
X57201000Y104161890D01*
X57196915Y104120409D01*
X57186607Y104086431D01*
X57169866Y104055110D01*
X57147339Y104027661D01*
X57119890Y104005134D01*
X57088569Y103988393D01*
X57054591Y103978085D01*
X57013110Y103974000D01*
X56411890Y103974000D01*
X56370409Y103978085D01*
X56336431Y103988393D01*
X56305110Y104005134D01*
X56277661Y104027661D01*
X56255134Y104055110D01*
X56238393Y104086431D01*
X56228085Y104120409D01*
X56224000Y104161890D01*
X56224000Y104838110D01*
X56228085Y104879591D01*
X56238393Y104913569D01*
X56255134Y104944890D01*
X56277661Y104972339D01*
X56305110Y104994866D01*
X56336431Y105011607D01*
X56370409Y105021915D01*
X56411890Y105026000D01*
X57013110Y105026000D01*
X57054591Y105021915D01*
X57054591Y105021915D01*
G37*
G36*
X13379591Y104946915D02*
G01*
X13413569Y104936607D01*
X13444890Y104919866D01*
X13472339Y104897339D01*
X13494866Y104869890D01*
X13511607Y104838569D01*
X13521915Y104804591D01*
X13526000Y104763110D01*
X13526000Y104161890D01*
X13521915Y104120409D01*
X13511607Y104086431D01*
X13494866Y104055110D01*
X13472339Y104027661D01*
X13444890Y104005134D01*
X13413569Y103988393D01*
X13379591Y103978085D01*
X13338110Y103974000D01*
X12661890Y103974000D01*
X12620409Y103978085D01*
X12586431Y103988393D01*
X12555110Y104005134D01*
X12527661Y104027661D01*
X12505134Y104055110D01*
X12488393Y104086431D01*
X12478085Y104120409D01*
X12474000Y104161890D01*
X12474000Y104763110D01*
X12478085Y104804591D01*
X12488393Y104838569D01*
X12505134Y104869890D01*
X12527661Y104897339D01*
X12555110Y104919866D01*
X12586431Y104936607D01*
X12620409Y104946915D01*
X12661890Y104951000D01*
X13338110Y104951000D01*
X13379591Y104946915D01*
X13379591Y104946915D01*
G37*
G36*
X14879591Y104946915D02*
G01*
X14913569Y104936607D01*
X14944890Y104919866D01*
X14972339Y104897339D01*
X14994866Y104869890D01*
X15011607Y104838569D01*
X15021915Y104804591D01*
X15026000Y104763110D01*
X15026000Y104161890D01*
X15021915Y104120409D01*
X15011607Y104086431D01*
X14994866Y104055110D01*
X14972339Y104027661D01*
X14944890Y104005134D01*
X14913569Y103988393D01*
X14879591Y103978085D01*
X14838110Y103974000D01*
X14161890Y103974000D01*
X14120409Y103978085D01*
X14086431Y103988393D01*
X14055110Y104005134D01*
X14027661Y104027661D01*
X14005134Y104055110D01*
X13988393Y104086431D01*
X13978085Y104120409D01*
X13974000Y104161890D01*
X13974000Y104763110D01*
X13978085Y104804591D01*
X13988393Y104838569D01*
X14005134Y104869890D01*
X14027661Y104897339D01*
X14055110Y104919866D01*
X14086431Y104936607D01*
X14120409Y104946915D01*
X14161890Y104951000D01*
X14838110Y104951000D01*
X14879591Y104946915D01*
X14879591Y104946915D01*
G37*
G36*
X91659928Y104733236D02*
G01*
X91681009Y104726840D01*
X91700445Y104716452D01*
X91717476Y104702476D01*
X91731452Y104685445D01*
X91741840Y104666009D01*
X91748236Y104644928D01*
X91751000Y104616860D01*
X91751000Y104153140D01*
X91748236Y104125072D01*
X91741840Y104103991D01*
X91731452Y104084555D01*
X91717476Y104067524D01*
X91700445Y104053548D01*
X91681009Y104043160D01*
X91659928Y104036764D01*
X91631860Y104034000D01*
X90218140Y104034000D01*
X90190072Y104036764D01*
X90168991Y104043160D01*
X90149555Y104053548D01*
X90132524Y104067524D01*
X90118548Y104084555D01*
X90108160Y104103991D01*
X90101764Y104125072D01*
X90099000Y104153140D01*
X90099000Y104616860D01*
X90101764Y104644928D01*
X90108160Y104666009D01*
X90118548Y104685445D01*
X90132524Y104702476D01*
X90149555Y104716452D01*
X90168991Y104726840D01*
X90190072Y104733236D01*
X90218140Y104736000D01*
X91631860Y104736000D01*
X91659928Y104733236D01*
X91659928Y104733236D01*
G37*
G36*
X86309928Y104733236D02*
G01*
X86331009Y104726840D01*
X86350445Y104716452D01*
X86367476Y104702476D01*
X86381452Y104685445D01*
X86391840Y104666009D01*
X86398236Y104644928D01*
X86401000Y104616860D01*
X86401000Y104153140D01*
X86398236Y104125072D01*
X86391840Y104103991D01*
X86381452Y104084555D01*
X86367476Y104067524D01*
X86350445Y104053548D01*
X86331009Y104043160D01*
X86309928Y104036764D01*
X86281860Y104034000D01*
X84868140Y104034000D01*
X84840072Y104036764D01*
X84818991Y104043160D01*
X84799555Y104053548D01*
X84782524Y104067524D01*
X84768548Y104084555D01*
X84758160Y104103991D01*
X84751764Y104125072D01*
X84749000Y104153140D01*
X84749000Y104616860D01*
X84751764Y104644928D01*
X84758160Y104666009D01*
X84768548Y104685445D01*
X84782524Y104702476D01*
X84799555Y104716452D01*
X84818991Y104726840D01*
X84840072Y104733236D01*
X84868140Y104736000D01*
X86281860Y104736000D01*
X86309928Y104733236D01*
X86309928Y104733236D01*
G37*
G36*
X94879591Y105021915D02*
G01*
X94913569Y105011607D01*
X94944890Y104994866D01*
X94972339Y104972339D01*
X94994866Y104944890D01*
X95011607Y104913569D01*
X95021915Y104879591D01*
X95026000Y104838110D01*
X95026000Y104236890D01*
X95021915Y104195409D01*
X95011607Y104161431D01*
X94994866Y104130110D01*
X94972339Y104102661D01*
X94944890Y104080134D01*
X94913569Y104063393D01*
X94879591Y104053085D01*
X94838110Y104049000D01*
X94161890Y104049000D01*
X94120409Y104053085D01*
X94086431Y104063393D01*
X94055110Y104080134D01*
X94027661Y104102661D01*
X94005134Y104130110D01*
X93988393Y104161431D01*
X93978085Y104195409D01*
X93974000Y104236890D01*
X93974000Y104838110D01*
X93978085Y104879591D01*
X93988393Y104913569D01*
X94005134Y104944890D01*
X94027661Y104972339D01*
X94055110Y104994866D01*
X94086431Y105011607D01*
X94120409Y105021915D01*
X94161890Y105026000D01*
X94838110Y105026000D01*
X94879591Y105021915D01*
X94879591Y105021915D01*
G37*
G36*
X93379591Y105021915D02*
G01*
X93413569Y105011607D01*
X93444890Y104994866D01*
X93472339Y104972339D01*
X93494866Y104944890D01*
X93511607Y104913569D01*
X93521915Y104879591D01*
X93526000Y104838110D01*
X93526000Y104236890D01*
X93521915Y104195409D01*
X93511607Y104161431D01*
X93494866Y104130110D01*
X93472339Y104102661D01*
X93444890Y104080134D01*
X93413569Y104063393D01*
X93379591Y104053085D01*
X93338110Y104049000D01*
X92661890Y104049000D01*
X92620409Y104053085D01*
X92586431Y104063393D01*
X92555110Y104080134D01*
X92527661Y104102661D01*
X92505134Y104130110D01*
X92488393Y104161431D01*
X92478085Y104195409D01*
X92474000Y104236890D01*
X92474000Y104838110D01*
X92478085Y104879591D01*
X92488393Y104913569D01*
X92505134Y104944890D01*
X92527661Y104972339D01*
X92555110Y104994866D01*
X92586431Y105011607D01*
X92620409Y105021915D01*
X92661890Y105026000D01*
X93338110Y105026000D01*
X93379591Y105021915D01*
X93379591Y105021915D01*
G37*
G36*
X11409928Y104883236D02*
G01*
X11431009Y104876840D01*
X11450445Y104866452D01*
X11467476Y104852476D01*
X11481452Y104835445D01*
X11491840Y104816009D01*
X11498236Y104794928D01*
X11501000Y104766860D01*
X11501000Y104303140D01*
X11498236Y104275072D01*
X11491840Y104253991D01*
X11481452Y104234555D01*
X11467476Y104217524D01*
X11450445Y104203548D01*
X11431009Y104193160D01*
X11409928Y104186764D01*
X11381860Y104184000D01*
X9968140Y104184000D01*
X9940072Y104186764D01*
X9918991Y104193160D01*
X9899555Y104203548D01*
X9882524Y104217524D01*
X9868548Y104234555D01*
X9858160Y104253991D01*
X9851764Y104275072D01*
X9849000Y104303140D01*
X9849000Y104766860D01*
X9851764Y104794928D01*
X9858160Y104816009D01*
X9868548Y104835445D01*
X9882524Y104852476D01*
X9899555Y104866452D01*
X9918991Y104876840D01*
X9940072Y104883236D01*
X9968140Y104886000D01*
X11381860Y104886000D01*
X11409928Y104883236D01*
X11409928Y104883236D01*
G37*
G36*
X6059928Y104883236D02*
G01*
X6081009Y104876840D01*
X6100445Y104866452D01*
X6117476Y104852476D01*
X6131452Y104835445D01*
X6141840Y104816009D01*
X6148236Y104794928D01*
X6151000Y104766860D01*
X6151000Y104303140D01*
X6148236Y104275072D01*
X6141840Y104253991D01*
X6131452Y104234555D01*
X6117476Y104217524D01*
X6100445Y104203548D01*
X6081009Y104193160D01*
X6059928Y104186764D01*
X6031860Y104184000D01*
X4618140Y104184000D01*
X4590072Y104186764D01*
X4568991Y104193160D01*
X4549555Y104203548D01*
X4532524Y104217524D01*
X4518548Y104234555D01*
X4508160Y104253991D01*
X4501764Y104275072D01*
X4499000Y104303140D01*
X4499000Y104766860D01*
X4501764Y104794928D01*
X4508160Y104816009D01*
X4518548Y104835445D01*
X4532524Y104852476D01*
X4549555Y104866452D01*
X4568991Y104876840D01*
X4590072Y104883236D01*
X4618140Y104886000D01*
X6031860Y104886000D01*
X6059928Y104883236D01*
X6059928Y104883236D01*
G37*
G36*
X98550490Y104449510D02*
G01*
X96449510Y104449510D01*
X96449510Y106550490D01*
X98550490Y106550490D01*
X98550490Y104449510D01*
X98550490Y104449510D01*
G37*
G36*
X2806416Y106570121D02*
G01*
X2997592Y106490933D01*
X2997594Y106490932D01*
X3169648Y106375969D01*
X3315969Y106229648D01*
X3426032Y106064928D01*
X3430933Y106057592D01*
X3510121Y105866416D01*
X3550490Y105663466D01*
X3550490Y105456534D01*
X3510121Y105253584D01*
X3430933Y105062408D01*
X3430932Y105062406D01*
X3315969Y104890352D01*
X3169648Y104744031D01*
X2997594Y104629068D01*
X2997593Y104629067D01*
X2997592Y104629067D01*
X2806416Y104549879D01*
X2603466Y104509510D01*
X2396534Y104509510D01*
X2193584Y104549879D01*
X2002408Y104629067D01*
X2002407Y104629067D01*
X2002406Y104629068D01*
X1830352Y104744031D01*
X1684031Y104890352D01*
X1569068Y105062406D01*
X1569067Y105062408D01*
X1489879Y105253584D01*
X1449510Y105456534D01*
X1449510Y105663466D01*
X1489879Y105866416D01*
X1569067Y106057592D01*
X1573969Y106064928D01*
X1684031Y106229648D01*
X1830352Y106375969D01*
X2002406Y106490932D01*
X2002408Y106490933D01*
X2193584Y106570121D01*
X2396534Y106610490D01*
X2603466Y106610490D01*
X2806416Y106570121D01*
X2806416Y106570121D01*
G37*
G36*
X49809928Y105233236D02*
G01*
X49831009Y105226840D01*
X49850445Y105216452D01*
X49867476Y105202476D01*
X49881452Y105185445D01*
X49891840Y105166009D01*
X49898236Y105144928D01*
X49901000Y105116860D01*
X49901000Y104653140D01*
X49898236Y104625072D01*
X49891840Y104603991D01*
X49881452Y104584555D01*
X49867476Y104567524D01*
X49850445Y104553548D01*
X49831009Y104543160D01*
X49809928Y104536764D01*
X49781860Y104534000D01*
X48368140Y104534000D01*
X48340072Y104536764D01*
X48318991Y104543160D01*
X48299555Y104553548D01*
X48282524Y104567524D01*
X48268548Y104584555D01*
X48258160Y104603991D01*
X48251764Y104625072D01*
X48249000Y104653140D01*
X48249000Y105116860D01*
X48251764Y105144928D01*
X48258160Y105166009D01*
X48268548Y105185445D01*
X48282524Y105202476D01*
X48299555Y105216452D01*
X48318991Y105226840D01*
X48340072Y105233236D01*
X48368140Y105236000D01*
X49781860Y105236000D01*
X49809928Y105233236D01*
X49809928Y105233236D01*
G37*
G36*
X55159928Y105233236D02*
G01*
X55181009Y105226840D01*
X55200445Y105216452D01*
X55217476Y105202476D01*
X55231452Y105185445D01*
X55241840Y105166009D01*
X55248236Y105144928D01*
X55251000Y105116860D01*
X55251000Y104653140D01*
X55248236Y104625072D01*
X55241840Y104603991D01*
X55231452Y104584555D01*
X55217476Y104567524D01*
X55200445Y104553548D01*
X55181009Y104543160D01*
X55159928Y104536764D01*
X55131860Y104534000D01*
X53718140Y104534000D01*
X53690072Y104536764D01*
X53668991Y104543160D01*
X53649555Y104553548D01*
X53632524Y104567524D01*
X53618548Y104584555D01*
X53608160Y104603991D01*
X53601764Y104625072D01*
X53599000Y104653140D01*
X53599000Y105116860D01*
X53601764Y105144928D01*
X53608160Y105166009D01*
X53618548Y105185445D01*
X53632524Y105202476D01*
X53649555Y105216452D01*
X53668991Y105226840D01*
X53690072Y105233236D01*
X53718140Y105236000D01*
X55131860Y105236000D01*
X55159928Y105233236D01*
X55159928Y105233236D01*
G37*
G36*
X86309928Y106003236D02*
G01*
X86331009Y105996840D01*
X86350445Y105986452D01*
X86367476Y105972476D01*
X86381452Y105955445D01*
X86391840Y105936009D01*
X86398236Y105914928D01*
X86401000Y105886860D01*
X86401000Y105423140D01*
X86398236Y105395072D01*
X86391840Y105373991D01*
X86381452Y105354555D01*
X86367476Y105337524D01*
X86350445Y105323548D01*
X86331009Y105313160D01*
X86309928Y105306764D01*
X86281860Y105304000D01*
X84868140Y105304000D01*
X84840072Y105306764D01*
X84818991Y105313160D01*
X84799555Y105323548D01*
X84782524Y105337524D01*
X84768548Y105354555D01*
X84758160Y105373991D01*
X84751764Y105395072D01*
X84749000Y105423140D01*
X84749000Y105886860D01*
X84751764Y105914928D01*
X84758160Y105936009D01*
X84768548Y105955445D01*
X84782524Y105972476D01*
X84799555Y105986452D01*
X84818991Y105996840D01*
X84840072Y106003236D01*
X84868140Y106006000D01*
X86281860Y106006000D01*
X86309928Y106003236D01*
X86309928Y106003236D01*
G37*
G36*
X91659928Y106003236D02*
G01*
X91681009Y105996840D01*
X91700445Y105986452D01*
X91717476Y105972476D01*
X91731452Y105955445D01*
X91741840Y105936009D01*
X91748236Y105914928D01*
X91751000Y105886860D01*
X91751000Y105423140D01*
X91748236Y105395072D01*
X91741840Y105373991D01*
X91731452Y105354555D01*
X91717476Y105337524D01*
X91700445Y105323548D01*
X91681009Y105313160D01*
X91659928Y105306764D01*
X91631860Y105304000D01*
X90218140Y105304000D01*
X90190072Y105306764D01*
X90168991Y105313160D01*
X90149555Y105323548D01*
X90132524Y105337524D01*
X90118548Y105354555D01*
X90108160Y105373991D01*
X90101764Y105395072D01*
X90099000Y105423140D01*
X90099000Y105886860D01*
X90101764Y105914928D01*
X90108160Y105936009D01*
X90118548Y105955445D01*
X90132524Y105972476D01*
X90149555Y105986452D01*
X90168991Y105996840D01*
X90190072Y106003236D01*
X90218140Y106006000D01*
X91631860Y106006000D01*
X91659928Y106003236D01*
X91659928Y106003236D01*
G37*
G36*
X80129591Y106501915D02*
G01*
X80163569Y106491607D01*
X80194890Y106474866D01*
X80222339Y106452339D01*
X80244866Y106424890D01*
X80261607Y106393569D01*
X80271915Y106359591D01*
X80276000Y106318110D01*
X80276000Y105641890D01*
X80271915Y105600409D01*
X80261607Y105566431D01*
X80244866Y105535110D01*
X80222339Y105507661D01*
X80194890Y105485134D01*
X80163569Y105468393D01*
X80129591Y105458085D01*
X80088110Y105454000D01*
X79486890Y105454000D01*
X79445409Y105458085D01*
X79411431Y105468393D01*
X79380110Y105485134D01*
X79352661Y105507661D01*
X79330134Y105535110D01*
X79313393Y105566431D01*
X79303085Y105600409D01*
X79299000Y105641890D01*
X79299000Y106318110D01*
X79303085Y106359591D01*
X79313393Y106393569D01*
X79330134Y106424890D01*
X79352661Y106452339D01*
X79380110Y106474866D01*
X79411431Y106491607D01*
X79445409Y106501915D01*
X79486890Y106506000D01*
X80088110Y106506000D01*
X80129591Y106501915D01*
X80129591Y106501915D01*
G37*
G36*
X78554591Y106501915D02*
G01*
X78588569Y106491607D01*
X78619890Y106474866D01*
X78647339Y106452339D01*
X78669866Y106424890D01*
X78686607Y106393569D01*
X78696915Y106359591D01*
X78701000Y106318110D01*
X78701000Y105641890D01*
X78696915Y105600409D01*
X78686607Y105566431D01*
X78669866Y105535110D01*
X78647339Y105507661D01*
X78619890Y105485134D01*
X78588569Y105468393D01*
X78554591Y105458085D01*
X78513110Y105454000D01*
X77911890Y105454000D01*
X77870409Y105458085D01*
X77836431Y105468393D01*
X77805110Y105485134D01*
X77777661Y105507661D01*
X77755134Y105535110D01*
X77738393Y105566431D01*
X77728085Y105600409D01*
X77724000Y105641890D01*
X77724000Y106318110D01*
X77728085Y106359591D01*
X77738393Y106393569D01*
X77755134Y106424890D01*
X77777661Y106452339D01*
X77805110Y106474866D01*
X77836431Y106491607D01*
X77870409Y106501915D01*
X77911890Y106506000D01*
X78513110Y106506000D01*
X78554591Y106501915D01*
X78554591Y106501915D01*
G37*
G36*
X11409928Y106153236D02*
G01*
X11431009Y106146840D01*
X11450445Y106136452D01*
X11467476Y106122476D01*
X11481452Y106105445D01*
X11491840Y106086009D01*
X11498236Y106064928D01*
X11501000Y106036860D01*
X11501000Y105573140D01*
X11498236Y105545072D01*
X11491840Y105523991D01*
X11481452Y105504555D01*
X11467476Y105487524D01*
X11450445Y105473548D01*
X11431009Y105463160D01*
X11409928Y105456764D01*
X11381860Y105454000D01*
X9968140Y105454000D01*
X9940072Y105456764D01*
X9918991Y105463160D01*
X9899555Y105473548D01*
X9882524Y105487524D01*
X9868548Y105504555D01*
X9858160Y105523991D01*
X9851764Y105545072D01*
X9849000Y105573140D01*
X9849000Y106036860D01*
X9851764Y106064928D01*
X9858160Y106086009D01*
X9868548Y106105445D01*
X9882524Y106122476D01*
X9899555Y106136452D01*
X9918991Y106146840D01*
X9940072Y106153236D01*
X9968140Y106156000D01*
X11381860Y106156000D01*
X11409928Y106153236D01*
X11409928Y106153236D01*
G37*
G36*
X6059928Y106153236D02*
G01*
X6081009Y106146840D01*
X6100445Y106136452D01*
X6117476Y106122476D01*
X6131452Y106105445D01*
X6141840Y106086009D01*
X6148236Y106064928D01*
X6151000Y106036860D01*
X6151000Y105573140D01*
X6148236Y105545072D01*
X6141840Y105523991D01*
X6131452Y105504555D01*
X6117476Y105487524D01*
X6100445Y105473548D01*
X6081009Y105463160D01*
X6059928Y105456764D01*
X6031860Y105454000D01*
X4618140Y105454000D01*
X4590072Y105456764D01*
X4568991Y105463160D01*
X4549555Y105473548D01*
X4532524Y105487524D01*
X4518548Y105504555D01*
X4508160Y105523991D01*
X4501764Y105545072D01*
X4499000Y105573140D01*
X4499000Y106036860D01*
X4501764Y106064928D01*
X4508160Y106086009D01*
X4518548Y106105445D01*
X4532524Y106122476D01*
X4549555Y106136452D01*
X4568991Y106146840D01*
X4590072Y106153236D01*
X4618140Y106156000D01*
X6031860Y106156000D01*
X6059928Y106153236D01*
X6059928Y106153236D01*
G37*
G36*
X14879591Y106521915D02*
G01*
X14913569Y106511607D01*
X14944890Y106494866D01*
X14972339Y106472339D01*
X14994866Y106444890D01*
X15011607Y106413569D01*
X15021915Y106379591D01*
X15026000Y106338110D01*
X15026000Y105736890D01*
X15021915Y105695409D01*
X15011607Y105661431D01*
X14994866Y105630110D01*
X14972339Y105602661D01*
X14944890Y105580134D01*
X14913569Y105563393D01*
X14879591Y105553085D01*
X14838110Y105549000D01*
X14161890Y105549000D01*
X14120409Y105553085D01*
X14086431Y105563393D01*
X14055110Y105580134D01*
X14027661Y105602661D01*
X14005134Y105630110D01*
X13988393Y105661431D01*
X13978085Y105695409D01*
X13974000Y105736890D01*
X13974000Y106338110D01*
X13978085Y106379591D01*
X13988393Y106413569D01*
X14005134Y106444890D01*
X14027661Y106472339D01*
X14055110Y106494866D01*
X14086431Y106511607D01*
X14120409Y106521915D01*
X14161890Y106526000D01*
X14838110Y106526000D01*
X14879591Y106521915D01*
X14879591Y106521915D01*
G37*
G36*
X13379591Y106521915D02*
G01*
X13413569Y106511607D01*
X13444890Y106494866D01*
X13472339Y106472339D01*
X13494866Y106444890D01*
X13511607Y106413569D01*
X13521915Y106379591D01*
X13526000Y106338110D01*
X13526000Y105736890D01*
X13521915Y105695409D01*
X13511607Y105661431D01*
X13494866Y105630110D01*
X13472339Y105602661D01*
X13444890Y105580134D01*
X13413569Y105563393D01*
X13379591Y105553085D01*
X13338110Y105549000D01*
X12661890Y105549000D01*
X12620409Y105553085D01*
X12586431Y105563393D01*
X12555110Y105580134D01*
X12527661Y105602661D01*
X12505134Y105630110D01*
X12488393Y105661431D01*
X12478085Y105695409D01*
X12474000Y105736890D01*
X12474000Y106338110D01*
X12478085Y106379591D01*
X12488393Y106413569D01*
X12505134Y106444890D01*
X12527661Y106472339D01*
X12555110Y106494866D01*
X12586431Y106511607D01*
X12620409Y106521915D01*
X12661890Y106526000D01*
X13338110Y106526000D01*
X13379591Y106521915D01*
X13379591Y106521915D01*
G37*
G36*
X16389591Y106521915D02*
G01*
X16423569Y106511607D01*
X16454890Y106494866D01*
X16482339Y106472339D01*
X16504866Y106444890D01*
X16521607Y106413569D01*
X16531915Y106379591D01*
X16536000Y106338110D01*
X16536000Y105736890D01*
X16531915Y105695409D01*
X16521607Y105661431D01*
X16504866Y105630110D01*
X16482339Y105602661D01*
X16454890Y105580134D01*
X16423569Y105563393D01*
X16389591Y105553085D01*
X16348110Y105549000D01*
X15671890Y105549000D01*
X15630409Y105553085D01*
X15596431Y105563393D01*
X15565110Y105580134D01*
X15537661Y105602661D01*
X15515134Y105630110D01*
X15498393Y105661431D01*
X15488085Y105695409D01*
X15484000Y105736890D01*
X15484000Y106338110D01*
X15488085Y106379591D01*
X15498393Y106413569D01*
X15515134Y106444890D01*
X15537661Y106472339D01*
X15565110Y106494866D01*
X15596431Y106511607D01*
X15630409Y106521915D01*
X15671890Y106526000D01*
X16348110Y106526000D01*
X16389591Y106521915D01*
X16389591Y106521915D01*
G37*
G36*
X49809928Y106503236D02*
G01*
X49831009Y106496840D01*
X49850445Y106486452D01*
X49867476Y106472476D01*
X49881452Y106455445D01*
X49891840Y106436009D01*
X49898236Y106414928D01*
X49901000Y106386860D01*
X49901000Y105923140D01*
X49898236Y105895072D01*
X49891840Y105873991D01*
X49881452Y105854555D01*
X49867476Y105837524D01*
X49850445Y105823548D01*
X49831009Y105813160D01*
X49809928Y105806764D01*
X49781860Y105804000D01*
X48368140Y105804000D01*
X48340072Y105806764D01*
X48318991Y105813160D01*
X48299555Y105823548D01*
X48282524Y105837524D01*
X48268548Y105854555D01*
X48258160Y105873991D01*
X48251764Y105895072D01*
X48249000Y105923140D01*
X48249000Y106386860D01*
X48251764Y106414928D01*
X48258160Y106436009D01*
X48268548Y106455445D01*
X48282524Y106472476D01*
X48299555Y106486452D01*
X48318991Y106496840D01*
X48340072Y106503236D01*
X48368140Y106506000D01*
X49781860Y106506000D01*
X49809928Y106503236D01*
X49809928Y106503236D01*
G37*
G36*
X55159928Y106503236D02*
G01*
X55181009Y106496840D01*
X55200445Y106486452D01*
X55217476Y106472476D01*
X55231452Y106455445D01*
X55241840Y106436009D01*
X55248236Y106414928D01*
X55251000Y106386860D01*
X55251000Y105923140D01*
X55248236Y105895072D01*
X55241840Y105873991D01*
X55231452Y105854555D01*
X55217476Y105837524D01*
X55200445Y105823548D01*
X55181009Y105813160D01*
X55159928Y105806764D01*
X55131860Y105804000D01*
X53718140Y105804000D01*
X53690072Y105806764D01*
X53668991Y105813160D01*
X53649555Y105823548D01*
X53632524Y105837524D01*
X53618548Y105854555D01*
X53608160Y105873991D01*
X53601764Y105895072D01*
X53599000Y105923140D01*
X53599000Y106386860D01*
X53601764Y106414928D01*
X53608160Y106436009D01*
X53618548Y106455445D01*
X53632524Y106472476D01*
X53649555Y106486452D01*
X53668991Y106496840D01*
X53690072Y106503236D01*
X53718140Y106506000D01*
X55131860Y106506000D01*
X55159928Y106503236D01*
X55159928Y106503236D01*
G37*
G36*
X65098254Y109972182D02*
G01*
X65442958Y109829401D01*
X65471513Y109817573D01*
X65807436Y109593116D01*
X66093116Y109307436D01*
X66313182Y108978085D01*
X66317574Y108971511D01*
X66472182Y108598254D01*
X66551000Y108202007D01*
X66551000Y107797993D01*
X66472182Y107401746D01*
X66328601Y107055110D01*
X66317573Y107028487D01*
X66093116Y106692564D01*
X65807436Y106406884D01*
X65471513Y106182427D01*
X65471512Y106182426D01*
X65471511Y106182426D01*
X65098254Y106027818D01*
X64702007Y105949000D01*
X64297993Y105949000D01*
X63901746Y106027818D01*
X63528489Y106182426D01*
X63528488Y106182426D01*
X63528487Y106182427D01*
X63192564Y106406884D01*
X62906884Y106692564D01*
X62682427Y107028487D01*
X62671399Y107055110D01*
X62527818Y107401746D01*
X62449000Y107797993D01*
X62449000Y108202007D01*
X62527818Y108598254D01*
X62682426Y108971511D01*
X62686819Y108978085D01*
X62906884Y109307436D01*
X63192564Y109593116D01*
X63528487Y109817573D01*
X63557042Y109829401D01*
X63901746Y109972182D01*
X64297993Y110051000D01*
X64702007Y110051000D01*
X65098254Y109972182D01*
X65098254Y109972182D01*
G37*
G36*
X71598254Y109972182D02*
G01*
X71942958Y109829401D01*
X71971513Y109817573D01*
X72307436Y109593116D01*
X72593116Y109307436D01*
X72813182Y108978085D01*
X72817574Y108971511D01*
X72972182Y108598254D01*
X73051000Y108202007D01*
X73051000Y107797993D01*
X72972182Y107401746D01*
X72828601Y107055110D01*
X72817573Y107028487D01*
X72593116Y106692564D01*
X72307436Y106406884D01*
X71971513Y106182427D01*
X71971512Y106182426D01*
X71971511Y106182426D01*
X71598254Y106027818D01*
X71202007Y105949000D01*
X70797993Y105949000D01*
X70401746Y106027818D01*
X70028489Y106182426D01*
X70028488Y106182426D01*
X70028487Y106182427D01*
X69692564Y106406884D01*
X69406884Y106692564D01*
X69182427Y107028487D01*
X69171399Y107055110D01*
X69027818Y107401746D01*
X68949000Y107797993D01*
X68949000Y108202007D01*
X69027818Y108598254D01*
X69182426Y108971511D01*
X69186819Y108978085D01*
X69406884Y109307436D01*
X69692564Y109593116D01*
X70028487Y109817573D01*
X70057042Y109829401D01*
X70401746Y109972182D01*
X70797993Y110051000D01*
X71202007Y110051000D01*
X71598254Y109972182D01*
X71598254Y109972182D01*
G37*
G36*
X91129591Y108021915D02*
G01*
X91163569Y108011607D01*
X91194890Y107994866D01*
X91222339Y107972339D01*
X91244866Y107944890D01*
X91261607Y107913569D01*
X91271915Y107879591D01*
X91276000Y107838110D01*
X91276000Y107161890D01*
X91271915Y107120409D01*
X91261607Y107086431D01*
X91244866Y107055110D01*
X91222339Y107027661D01*
X91194890Y107005134D01*
X91163569Y106988393D01*
X91129591Y106978085D01*
X91088110Y106974000D01*
X90486890Y106974000D01*
X90445409Y106978085D01*
X90411431Y106988393D01*
X90380110Y107005134D01*
X90352661Y107027661D01*
X90330134Y107055110D01*
X90313393Y107086431D01*
X90303085Y107120409D01*
X90299000Y107161890D01*
X90299000Y107838110D01*
X90303085Y107879591D01*
X90313393Y107913569D01*
X90330134Y107944890D01*
X90352661Y107972339D01*
X90380110Y107994866D01*
X90411431Y108011607D01*
X90445409Y108021915D01*
X90486890Y108026000D01*
X91088110Y108026000D01*
X91129591Y108021915D01*
X91129591Y108021915D01*
G37*
G36*
X80129591Y108021915D02*
G01*
X80163569Y108011607D01*
X80194890Y107994866D01*
X80222339Y107972339D01*
X80244866Y107944890D01*
X80261607Y107913569D01*
X80271915Y107879591D01*
X80276000Y107838110D01*
X80276000Y107161890D01*
X80271915Y107120409D01*
X80261607Y107086431D01*
X80244866Y107055110D01*
X80222339Y107027661D01*
X80194890Y107005134D01*
X80163569Y106988393D01*
X80129591Y106978085D01*
X80088110Y106974000D01*
X79486890Y106974000D01*
X79445409Y106978085D01*
X79411431Y106988393D01*
X79380110Y107005134D01*
X79352661Y107027661D01*
X79330134Y107055110D01*
X79313393Y107086431D01*
X79303085Y107120409D01*
X79299000Y107161890D01*
X79299000Y107838110D01*
X79303085Y107879591D01*
X79313393Y107913569D01*
X79330134Y107944890D01*
X79352661Y107972339D01*
X79380110Y107994866D01*
X79411431Y108011607D01*
X79445409Y108021915D01*
X79486890Y108026000D01*
X80088110Y108026000D01*
X80129591Y108021915D01*
X80129591Y108021915D01*
G37*
G36*
X78554591Y108021915D02*
G01*
X78588569Y108011607D01*
X78619890Y107994866D01*
X78647339Y107972339D01*
X78669866Y107944890D01*
X78686607Y107913569D01*
X78696915Y107879591D01*
X78701000Y107838110D01*
X78701000Y107161890D01*
X78696915Y107120409D01*
X78686607Y107086431D01*
X78669866Y107055110D01*
X78647339Y107027661D01*
X78619890Y107005134D01*
X78588569Y106988393D01*
X78554591Y106978085D01*
X78513110Y106974000D01*
X77911890Y106974000D01*
X77870409Y106978085D01*
X77836431Y106988393D01*
X77805110Y107005134D01*
X77777661Y107027661D01*
X77755134Y107055110D01*
X77738393Y107086431D01*
X77728085Y107120409D01*
X77724000Y107161890D01*
X77724000Y107838110D01*
X77728085Y107879591D01*
X77738393Y107913569D01*
X77755134Y107944890D01*
X77777661Y107972339D01*
X77805110Y107994866D01*
X77836431Y108011607D01*
X77870409Y108021915D01*
X77911890Y108026000D01*
X78513110Y108026000D01*
X78554591Y108021915D01*
X78554591Y108021915D01*
G37*
G36*
X88129591Y108021915D02*
G01*
X88163569Y108011607D01*
X88194890Y107994866D01*
X88222339Y107972339D01*
X88244866Y107944890D01*
X88261607Y107913569D01*
X88271915Y107879591D01*
X88276000Y107838110D01*
X88276000Y107161890D01*
X88271915Y107120409D01*
X88261607Y107086431D01*
X88244866Y107055110D01*
X88222339Y107027661D01*
X88194890Y107005134D01*
X88163569Y106988393D01*
X88129591Y106978085D01*
X88088110Y106974000D01*
X87486890Y106974000D01*
X87445409Y106978085D01*
X87411431Y106988393D01*
X87380110Y107005134D01*
X87352661Y107027661D01*
X87330134Y107055110D01*
X87313393Y107086431D01*
X87303085Y107120409D01*
X87299000Y107161890D01*
X87299000Y107838110D01*
X87303085Y107879591D01*
X87313393Y107913569D01*
X87330134Y107944890D01*
X87352661Y107972339D01*
X87380110Y107994866D01*
X87411431Y108011607D01*
X87445409Y108021915D01*
X87486890Y108026000D01*
X88088110Y108026000D01*
X88129591Y108021915D01*
X88129591Y108021915D01*
G37*
G36*
X86554591Y108021915D02*
G01*
X86588569Y108011607D01*
X86619890Y107994866D01*
X86647339Y107972339D01*
X86669866Y107944890D01*
X86686607Y107913569D01*
X86696915Y107879591D01*
X86701000Y107838110D01*
X86701000Y107161890D01*
X86696915Y107120409D01*
X86686607Y107086431D01*
X86669866Y107055110D01*
X86647339Y107027661D01*
X86619890Y107005134D01*
X86588569Y106988393D01*
X86554591Y106978085D01*
X86513110Y106974000D01*
X85911890Y106974000D01*
X85870409Y106978085D01*
X85836431Y106988393D01*
X85805110Y107005134D01*
X85777661Y107027661D01*
X85755134Y107055110D01*
X85738393Y107086431D01*
X85728085Y107120409D01*
X85724000Y107161890D01*
X85724000Y107838110D01*
X85728085Y107879591D01*
X85738393Y107913569D01*
X85755134Y107944890D01*
X85777661Y107972339D01*
X85805110Y107994866D01*
X85836431Y108011607D01*
X85870409Y108021915D01*
X85911890Y108026000D01*
X86513110Y108026000D01*
X86554591Y108021915D01*
X86554591Y108021915D01*
G37*
G36*
X89554591Y108021915D02*
G01*
X89588569Y108011607D01*
X89619890Y107994866D01*
X89647339Y107972339D01*
X89669866Y107944890D01*
X89686607Y107913569D01*
X89696915Y107879591D01*
X89701000Y107838110D01*
X89701000Y107161890D01*
X89696915Y107120409D01*
X89686607Y107086431D01*
X89669866Y107055110D01*
X89647339Y107027661D01*
X89619890Y107005134D01*
X89588569Y106988393D01*
X89554591Y106978085D01*
X89513110Y106974000D01*
X88911890Y106974000D01*
X88870409Y106978085D01*
X88836431Y106988393D01*
X88805110Y107005134D01*
X88777661Y107027661D01*
X88755134Y107055110D01*
X88738393Y107086431D01*
X88728085Y107120409D01*
X88724000Y107161890D01*
X88724000Y107838110D01*
X88728085Y107879591D01*
X88738393Y107913569D01*
X88755134Y107944890D01*
X88777661Y107972339D01*
X88805110Y107994866D01*
X88836431Y108011607D01*
X88870409Y108021915D01*
X88911890Y108026000D01*
X89513110Y108026000D01*
X89554591Y108021915D01*
X89554591Y108021915D01*
G37*
G36*
X8054591Y108021915D02*
G01*
X8088569Y108011607D01*
X8119890Y107994866D01*
X8147339Y107972339D01*
X8169866Y107944890D01*
X8186607Y107913569D01*
X8196915Y107879591D01*
X8201000Y107838110D01*
X8201000Y107161890D01*
X8196915Y107120409D01*
X8186607Y107086431D01*
X8169866Y107055110D01*
X8147339Y107027661D01*
X8119890Y107005134D01*
X8088569Y106988393D01*
X8054591Y106978085D01*
X8013110Y106974000D01*
X7411890Y106974000D01*
X7370409Y106978085D01*
X7336431Y106988393D01*
X7305110Y107005134D01*
X7277661Y107027661D01*
X7255134Y107055110D01*
X7238393Y107086431D01*
X7228085Y107120409D01*
X7224000Y107161890D01*
X7224000Y107838110D01*
X7228085Y107879591D01*
X7238393Y107913569D01*
X7255134Y107944890D01*
X7277661Y107972339D01*
X7305110Y107994866D01*
X7336431Y108011607D01*
X7370409Y108021915D01*
X7411890Y108026000D01*
X8013110Y108026000D01*
X8054591Y108021915D01*
X8054591Y108021915D01*
G37*
G36*
X9629591Y108021915D02*
G01*
X9663569Y108011607D01*
X9694890Y107994866D01*
X9722339Y107972339D01*
X9744866Y107944890D01*
X9761607Y107913569D01*
X9771915Y107879591D01*
X9776000Y107838110D01*
X9776000Y107161890D01*
X9771915Y107120409D01*
X9761607Y107086431D01*
X9744866Y107055110D01*
X9722339Y107027661D01*
X9694890Y107005134D01*
X9663569Y106988393D01*
X9629591Y106978085D01*
X9588110Y106974000D01*
X8986890Y106974000D01*
X8945409Y106978085D01*
X8911431Y106988393D01*
X8880110Y107005134D01*
X8852661Y107027661D01*
X8830134Y107055110D01*
X8813393Y107086431D01*
X8803085Y107120409D01*
X8799000Y107161890D01*
X8799000Y107838110D01*
X8803085Y107879591D01*
X8813393Y107913569D01*
X8830134Y107944890D01*
X8852661Y107972339D01*
X8880110Y107994866D01*
X8911431Y108011607D01*
X8945409Y108021915D01*
X8986890Y108026000D01*
X9588110Y108026000D01*
X9629591Y108021915D01*
X9629591Y108021915D01*
G37*
G36*
X6379591Y108521915D02*
G01*
X6413569Y108511607D01*
X6444890Y108494866D01*
X6472339Y108472339D01*
X6494866Y108444890D01*
X6511607Y108413569D01*
X6521915Y108379591D01*
X6526000Y108338110D01*
X6526000Y107661890D01*
X6521915Y107620409D01*
X6511607Y107586431D01*
X6494866Y107555110D01*
X6472339Y107527661D01*
X6444890Y107505134D01*
X6413569Y107488393D01*
X6379591Y107478085D01*
X6338110Y107474000D01*
X5736890Y107474000D01*
X5695409Y107478085D01*
X5661431Y107488393D01*
X5630110Y107505134D01*
X5602661Y107527661D01*
X5580134Y107555110D01*
X5563393Y107586431D01*
X5553085Y107620409D01*
X5549000Y107661890D01*
X5549000Y108338110D01*
X5553085Y108379591D01*
X5563393Y108413569D01*
X5580134Y108444890D01*
X5602661Y108472339D01*
X5630110Y108494866D01*
X5661431Y108511607D01*
X5695409Y108521915D01*
X5736890Y108526000D01*
X6338110Y108526000D01*
X6379591Y108521915D01*
X6379591Y108521915D01*
G37*
G36*
X4804591Y108521915D02*
G01*
X4838569Y108511607D01*
X4869890Y108494866D01*
X4897339Y108472339D01*
X4919866Y108444890D01*
X4936607Y108413569D01*
X4946915Y108379591D01*
X4951000Y108338110D01*
X4951000Y107661890D01*
X4946915Y107620409D01*
X4936607Y107586431D01*
X4919866Y107555110D01*
X4897339Y107527661D01*
X4869890Y107505134D01*
X4838569Y107488393D01*
X4804591Y107478085D01*
X4763110Y107474000D01*
X4161890Y107474000D01*
X4120409Y107478085D01*
X4086431Y107488393D01*
X4055110Y107505134D01*
X4027661Y107527661D01*
X4005134Y107555110D01*
X3988393Y107586431D01*
X3978085Y107620409D01*
X3974000Y107661890D01*
X3974000Y108338110D01*
X3978085Y108379591D01*
X3988393Y108413569D01*
X4005134Y108444890D01*
X4027661Y108472339D01*
X4055110Y108494866D01*
X4086431Y108511607D01*
X4120409Y108521915D01*
X4161890Y108526000D01*
X4763110Y108526000D01*
X4804591Y108521915D01*
X4804591Y108521915D01*
G37*
G36*
X54417091Y108771915D02*
G01*
X54451069Y108761607D01*
X54482390Y108744866D01*
X54509839Y108722339D01*
X54532366Y108694890D01*
X54549107Y108663569D01*
X54559415Y108629591D01*
X54563500Y108588110D01*
X54563500Y107911890D01*
X54559415Y107870409D01*
X54549107Y107836431D01*
X54532366Y107805110D01*
X54509839Y107777661D01*
X54482390Y107755134D01*
X54451069Y107738393D01*
X54417091Y107728085D01*
X54375610Y107724000D01*
X53774390Y107724000D01*
X53732909Y107728085D01*
X53698931Y107738393D01*
X53667610Y107755134D01*
X53640161Y107777661D01*
X53617634Y107805110D01*
X53600893Y107836431D01*
X53590585Y107870409D01*
X53586500Y107911890D01*
X53586500Y108588110D01*
X53590585Y108629591D01*
X53600893Y108663569D01*
X53617634Y108694890D01*
X53640161Y108722339D01*
X53667610Y108744866D01*
X53698931Y108761607D01*
X53732909Y108771915D01*
X53774390Y108776000D01*
X54375610Y108776000D01*
X54417091Y108771915D01*
X54417091Y108771915D01*
G37*
G36*
X52842091Y108771915D02*
G01*
X52876069Y108761607D01*
X52907390Y108744866D01*
X52934839Y108722339D01*
X52957366Y108694890D01*
X52974107Y108663569D01*
X52984415Y108629591D01*
X52988500Y108588110D01*
X52988500Y107911890D01*
X52984415Y107870409D01*
X52974107Y107836431D01*
X52957366Y107805110D01*
X52934839Y107777661D01*
X52907390Y107755134D01*
X52876069Y107738393D01*
X52842091Y107728085D01*
X52800610Y107724000D01*
X52199390Y107724000D01*
X52157909Y107728085D01*
X52123931Y107738393D01*
X52092610Y107755134D01*
X52065161Y107777661D01*
X52042634Y107805110D01*
X52025893Y107836431D01*
X52015585Y107870409D01*
X52011500Y107911890D01*
X52011500Y108588110D01*
X52015585Y108629591D01*
X52025893Y108663569D01*
X52042634Y108694890D01*
X52065161Y108722339D01*
X52092610Y108744866D01*
X52123931Y108761607D01*
X52157909Y108771915D01*
X52199390Y108776000D01*
X52800610Y108776000D01*
X52842091Y108771915D01*
X52842091Y108771915D01*
G37*
G36*
X9629591Y109481915D02*
G01*
X9663569Y109471607D01*
X9694890Y109454866D01*
X9722339Y109432339D01*
X9744866Y109404890D01*
X9761607Y109373569D01*
X9771915Y109339591D01*
X9776000Y109298110D01*
X9776000Y108621890D01*
X9771915Y108580409D01*
X9761607Y108546431D01*
X9744866Y108515110D01*
X9722339Y108487661D01*
X9694890Y108465134D01*
X9663569Y108448393D01*
X9629591Y108438085D01*
X9588110Y108434000D01*
X8986890Y108434000D01*
X8945409Y108438085D01*
X8911431Y108448393D01*
X8880110Y108465134D01*
X8852661Y108487661D01*
X8830134Y108515110D01*
X8813393Y108546431D01*
X8803085Y108580409D01*
X8799000Y108621890D01*
X8799000Y109298110D01*
X8803085Y109339591D01*
X8813393Y109373569D01*
X8830134Y109404890D01*
X8852661Y109432339D01*
X8880110Y109454866D01*
X8911431Y109471607D01*
X8945409Y109481915D01*
X8986890Y109486000D01*
X9588110Y109486000D01*
X9629591Y109481915D01*
X9629591Y109481915D01*
G37*
G36*
X8054591Y109481915D02*
G01*
X8088569Y109471607D01*
X8119890Y109454866D01*
X8147339Y109432339D01*
X8169866Y109404890D01*
X8186607Y109373569D01*
X8196915Y109339591D01*
X8201000Y109298110D01*
X8201000Y108621890D01*
X8196915Y108580409D01*
X8186607Y108546431D01*
X8169866Y108515110D01*
X8147339Y108487661D01*
X8119890Y108465134D01*
X8088569Y108448393D01*
X8054591Y108438085D01*
X8013110Y108434000D01*
X7411890Y108434000D01*
X7370409Y108438085D01*
X7336431Y108448393D01*
X7305110Y108465134D01*
X7277661Y108487661D01*
X7255134Y108515110D01*
X7238393Y108546431D01*
X7228085Y108580409D01*
X7224000Y108621890D01*
X7224000Y109298110D01*
X7228085Y109339591D01*
X7238393Y109373569D01*
X7255134Y109404890D01*
X7277661Y109432339D01*
X7305110Y109454866D01*
X7336431Y109471607D01*
X7370409Y109481915D01*
X7411890Y109486000D01*
X8013110Y109486000D01*
X8054591Y109481915D01*
X8054591Y109481915D01*
G37*
G36*
X93304591Y109771915D02*
G01*
X93338569Y109761607D01*
X93369890Y109744866D01*
X93397339Y109722339D01*
X93419866Y109694890D01*
X93436607Y109663569D01*
X93446915Y109629591D01*
X93451000Y109588110D01*
X93451000Y108911890D01*
X93446915Y108870409D01*
X93436607Y108836431D01*
X93419866Y108805110D01*
X93397339Y108777661D01*
X93369890Y108755134D01*
X93338569Y108738393D01*
X93304591Y108728085D01*
X93263110Y108724000D01*
X92661890Y108724000D01*
X92620409Y108728085D01*
X92586431Y108738393D01*
X92555110Y108755134D01*
X92527661Y108777661D01*
X92505134Y108805110D01*
X92488393Y108836431D01*
X92478085Y108870409D01*
X92474000Y108911890D01*
X92474000Y109588110D01*
X92478085Y109629591D01*
X92488393Y109663569D01*
X92505134Y109694890D01*
X92527661Y109722339D01*
X92555110Y109744866D01*
X92586431Y109761607D01*
X92620409Y109771915D01*
X92661890Y109776000D01*
X93263110Y109776000D01*
X93304591Y109771915D01*
X93304591Y109771915D01*
G37*
G36*
X94879591Y109771915D02*
G01*
X94913569Y109761607D01*
X94944890Y109744866D01*
X94972339Y109722339D01*
X94994866Y109694890D01*
X95011607Y109663569D01*
X95021915Y109629591D01*
X95026000Y109588110D01*
X95026000Y108911890D01*
X95021915Y108870409D01*
X95011607Y108836431D01*
X94994866Y108805110D01*
X94972339Y108777661D01*
X94944890Y108755134D01*
X94913569Y108738393D01*
X94879591Y108728085D01*
X94838110Y108724000D01*
X94236890Y108724000D01*
X94195409Y108728085D01*
X94161431Y108738393D01*
X94130110Y108755134D01*
X94102661Y108777661D01*
X94080134Y108805110D01*
X94063393Y108836431D01*
X94053085Y108870409D01*
X94049000Y108911890D01*
X94049000Y109588110D01*
X94053085Y109629591D01*
X94063393Y109663569D01*
X94080134Y109694890D01*
X94102661Y109722339D01*
X94130110Y109744866D01*
X94161431Y109761607D01*
X94195409Y109771915D01*
X94236890Y109776000D01*
X94838110Y109776000D01*
X94879591Y109771915D01*
X94879591Y109771915D01*
G37*
G36*
X6379591Y110021915D02*
G01*
X6413569Y110011607D01*
X6444890Y109994866D01*
X6472339Y109972339D01*
X6494866Y109944890D01*
X6511607Y109913569D01*
X6521915Y109879591D01*
X6526000Y109838110D01*
X6526000Y109161890D01*
X6521915Y109120409D01*
X6511607Y109086431D01*
X6494866Y109055110D01*
X6472339Y109027661D01*
X6444890Y109005134D01*
X6413569Y108988393D01*
X6379591Y108978085D01*
X6338110Y108974000D01*
X5736890Y108974000D01*
X5695409Y108978085D01*
X5661431Y108988393D01*
X5630110Y109005134D01*
X5602661Y109027661D01*
X5580134Y109055110D01*
X5563393Y109086431D01*
X5553085Y109120409D01*
X5549000Y109161890D01*
X5549000Y109838110D01*
X5553085Y109879591D01*
X5563393Y109913569D01*
X5580134Y109944890D01*
X5602661Y109972339D01*
X5630110Y109994866D01*
X5661431Y110011607D01*
X5695409Y110021915D01*
X5736890Y110026000D01*
X6338110Y110026000D01*
X6379591Y110021915D01*
X6379591Y110021915D01*
G37*
G36*
X4804591Y110021915D02*
G01*
X4838569Y110011607D01*
X4869890Y109994866D01*
X4897339Y109972339D01*
X4919866Y109944890D01*
X4936607Y109913569D01*
X4946915Y109879591D01*
X4951000Y109838110D01*
X4951000Y109161890D01*
X4946915Y109120409D01*
X4936607Y109086431D01*
X4919866Y109055110D01*
X4897339Y109027661D01*
X4869890Y109005134D01*
X4838569Y108988393D01*
X4804591Y108978085D01*
X4763110Y108974000D01*
X4161890Y108974000D01*
X4120409Y108978085D01*
X4086431Y108988393D01*
X4055110Y109005134D01*
X4027661Y109027661D01*
X4005134Y109055110D01*
X3988393Y109086431D01*
X3978085Y109120409D01*
X3974000Y109161890D01*
X3974000Y109838110D01*
X3978085Y109879591D01*
X3988393Y109913569D01*
X4005134Y109944890D01*
X4027661Y109972339D01*
X4055110Y109994866D01*
X4086431Y110011607D01*
X4120409Y110021915D01*
X4161890Y110026000D01*
X4763110Y110026000D01*
X4804591Y110021915D01*
X4804591Y110021915D01*
G37*
G36*
X6629591Y112521915D02*
G01*
X6663569Y112511607D01*
X6694890Y112494866D01*
X6722339Y112472339D01*
X6744866Y112444890D01*
X6761607Y112413569D01*
X6771915Y112379591D01*
X6776000Y112338110D01*
X6776000Y111661890D01*
X6771915Y111620409D01*
X6761607Y111586431D01*
X6744866Y111555110D01*
X6722339Y111527661D01*
X6694890Y111505134D01*
X6663569Y111488393D01*
X6629591Y111478085D01*
X6588110Y111474000D01*
X5986890Y111474000D01*
X5945409Y111478085D01*
X5911431Y111488393D01*
X5880110Y111505134D01*
X5852661Y111527661D01*
X5830134Y111555110D01*
X5813393Y111586431D01*
X5803085Y111620409D01*
X5799000Y111661890D01*
X5799000Y112338110D01*
X5803085Y112379591D01*
X5813393Y112413569D01*
X5830134Y112444890D01*
X5852661Y112472339D01*
X5880110Y112494866D01*
X5911431Y112511607D01*
X5945409Y112521915D01*
X5986890Y112526000D01*
X6588110Y112526000D01*
X6629591Y112521915D01*
X6629591Y112521915D01*
G37*
G36*
X5054591Y112521915D02*
G01*
X5088569Y112511607D01*
X5119890Y112494866D01*
X5147339Y112472339D01*
X5169866Y112444890D01*
X5186607Y112413569D01*
X5196915Y112379591D01*
X5201000Y112338110D01*
X5201000Y111661890D01*
X5196915Y111620409D01*
X5186607Y111586431D01*
X5169866Y111555110D01*
X5147339Y111527661D01*
X5119890Y111505134D01*
X5088569Y111488393D01*
X5054591Y111478085D01*
X5013110Y111474000D01*
X4411890Y111474000D01*
X4370409Y111478085D01*
X4336431Y111488393D01*
X4305110Y111505134D01*
X4277661Y111527661D01*
X4255134Y111555110D01*
X4238393Y111586431D01*
X4228085Y111620409D01*
X4224000Y111661890D01*
X4224000Y112338110D01*
X4228085Y112379591D01*
X4238393Y112413569D01*
X4255134Y112444890D01*
X4277661Y112472339D01*
X4305110Y112494866D01*
X4336431Y112511607D01*
X4370409Y112521915D01*
X4411890Y112526000D01*
X5013110Y112526000D01*
X5054591Y112521915D01*
X5054591Y112521915D01*
G37*
G36*
X8999672Y114861551D02*
G01*
X8999674Y114861550D01*
X8999675Y114861550D01*
X9068103Y114833207D01*
X9129686Y114792058D01*
X9182058Y114739686D01*
X9223207Y114678103D01*
X9251550Y114609675D01*
X9266000Y114537033D01*
X9266000Y114462967D01*
X9251550Y114390325D01*
X9223207Y114321897D01*
X9182058Y114260314D01*
X9129686Y114207942D01*
X9068103Y114166793D01*
X8999675Y114138450D01*
X8999674Y114138450D01*
X8999672Y114138449D01*
X8927034Y114124000D01*
X8852966Y114124000D01*
X8780328Y114138449D01*
X8780326Y114138450D01*
X8780325Y114138450D01*
X8711897Y114166793D01*
X8650314Y114207942D01*
X8597942Y114260314D01*
X8556793Y114321897D01*
X8528450Y114390325D01*
X8514000Y114462967D01*
X8514000Y114537033D01*
X8528450Y114609675D01*
X8556793Y114678103D01*
X8597942Y114739686D01*
X8650314Y114792058D01*
X8711897Y114833207D01*
X8780325Y114861550D01*
X8780326Y114861550D01*
X8780328Y114861551D01*
X8852966Y114876000D01*
X8927034Y114876000D01*
X8999672Y114861551D01*
X8999672Y114861551D01*
G37*
G36*
X3219672Y114861551D02*
G01*
X3219674Y114861550D01*
X3219675Y114861550D01*
X3288103Y114833207D01*
X3349686Y114792058D01*
X3402058Y114739686D01*
X3443207Y114678103D01*
X3471550Y114609675D01*
X3486000Y114537033D01*
X3486000Y114462967D01*
X3471550Y114390325D01*
X3443207Y114321897D01*
X3402058Y114260314D01*
X3349686Y114207942D01*
X3288103Y114166793D01*
X3219675Y114138450D01*
X3219674Y114138450D01*
X3219672Y114138449D01*
X3147034Y114124000D01*
X3072966Y114124000D01*
X3000328Y114138449D01*
X3000326Y114138450D01*
X3000325Y114138450D01*
X2931897Y114166793D01*
X2870314Y114207942D01*
X2817942Y114260314D01*
X2776793Y114321897D01*
X2748450Y114390325D01*
X2734000Y114462967D01*
X2734000Y114537033D01*
X2748450Y114609675D01*
X2776793Y114678103D01*
X2817942Y114739686D01*
X2870314Y114792058D01*
X2931897Y114833207D01*
X3000325Y114861550D01*
X3000326Y114861550D01*
X3000328Y114861551D01*
X3072966Y114876000D01*
X3147034Y114876000D01*
X3219672Y114861551D01*
X3219672Y114861551D01*
G37*
M02*
