G04 #@! TF.GenerationSoftware,KiCad,Pcbnew,(5.1.4-0-10_14)*
G04 #@! TF.CreationDate,2019-12-13T16:10:25+01:00*
G04 #@! TF.ProjectId,cz-badge-hardware,637a2d62-6164-4676-952d-686172647761,rev?*
G04 #@! TF.SameCoordinates,PX17d7840PY7735940*
G04 #@! TF.FileFunction,Other,Fab,Bot*
%FSLAX46Y46*%
G04 Gerber Fmt 4.6, Leading zero omitted, Abs format (unit mm)*
G04 Created by KiCad (PCBNEW (5.1.4-0-10_14)) date 2019-12-13 16:10:25*
%MOMM*%
%LPD*%
G04 APERTURE LIST*
%ADD10C,0.100000*%
%ADD11C,0.120000*%
%ADD12C,0.150000*%
%ADD13C,0.060000*%
%ADD14C,0.075000*%
%ADD15C,0.125000*%
G04 APERTURE END LIST*
D10*
X35900000Y47900000D02*
X36900000Y46900000D01*
X32600000Y47900000D02*
X31600000Y46900000D01*
X32600000Y47900000D02*
X35900000Y47900000D01*
X36900000Y46900000D02*
X36900000Y42600000D01*
X31600000Y46900000D02*
X31600000Y42600000D01*
X31600000Y42600000D02*
X36900000Y42600000D01*
X36750000Y45250000D02*
G75*
G03X36750000Y45250000I-2500000J0D01*
G01*
X78150000Y110150000D02*
X79150000Y109150000D01*
X74850000Y110150000D02*
X73850000Y109150000D01*
X74850000Y110150000D02*
X78150000Y110150000D01*
X79150000Y109150000D02*
X79150000Y104850000D01*
X73850000Y109150000D02*
X73850000Y104850000D01*
X73850000Y104850000D02*
X79150000Y104850000D01*
X79000000Y107500000D02*
G75*
G03X79000000Y107500000I-2500000J0D01*
G01*
X29150000Y108150000D02*
X30150000Y107150000D01*
X25850000Y108150000D02*
X24850000Y107150000D01*
X25850000Y108150000D02*
X29150000Y108150000D01*
X30150000Y107150000D02*
X30150000Y102850000D01*
X24850000Y107150000D02*
X24850000Y102850000D01*
X24850000Y102850000D02*
X30150000Y102850000D01*
X30000000Y105500000D02*
G75*
G03X30000000Y105500000I-2500000J0D01*
G01*
X66230000Y100340000D02*
X66230000Y99740000D01*
X67230000Y100340000D02*
X66230000Y100340000D01*
X66230000Y99740000D02*
X67230000Y99740000D01*
X70770000Y97800000D02*
X69770000Y97800000D01*
X70770000Y97200000D02*
X70770000Y97800000D01*
X69770000Y97200000D02*
X70770000Y97200000D01*
X66230000Y95260000D02*
X66230000Y94660000D01*
X67230000Y95260000D02*
X66230000Y95260000D01*
X66230000Y94660000D02*
X67230000Y94660000D01*
X67230000Y94225000D02*
X67865000Y93590000D01*
X67230000Y101410000D02*
X67230000Y94225000D01*
X69770000Y101410000D02*
X67230000Y101410000D01*
X69770000Y93590000D02*
X69770000Y101410000D01*
X67865000Y93590000D02*
X69770000Y93590000D01*
X2800000Y110900000D02*
X1200000Y110900000D01*
X2800000Y110100000D02*
X2800000Y110900000D01*
X1200000Y110100000D02*
X2800000Y110100000D01*
X1200000Y110900000D02*
X1200000Y110100000D01*
X1200000Y108600000D02*
X2800000Y108600000D01*
X1200000Y109400000D02*
X1200000Y108600000D01*
X2800000Y109400000D02*
X1200000Y109400000D01*
X2800000Y108600000D02*
X2800000Y109400000D01*
X1530000Y113020000D02*
X10470000Y113020000D01*
X10470000Y113020000D02*
X10470000Y120340000D01*
X10470000Y120340000D02*
X1530000Y120340000D01*
X1530000Y113020000D02*
X1530000Y120340000D01*
X81700000Y106000000D02*
X81700000Y119700000D01*
X81700000Y119700000D02*
X95300000Y119700000D01*
X95300000Y119700000D02*
X95300000Y106000000D01*
X95300000Y106000000D02*
X81700000Y106000000D01*
D11*
X8000000Y106535000D02*
X8000000Y106535000D01*
X51750000Y101615000D02*
X51750000Y101615000D01*
X88250000Y101115000D02*
X88250000Y101115000D01*
D10*
X72900000Y119100000D02*
X72900000Y112400000D01*
X76600000Y112400000D02*
X72900000Y112400000D01*
X75600000Y119100000D02*
X72900000Y119100000D01*
X76600000Y118100000D02*
X76600000Y112400000D01*
X76600000Y118100000D02*
X75600000Y119100000D01*
X9150000Y103200000D02*
X9150000Y104800000D01*
X8350000Y103200000D02*
X9150000Y103200000D01*
X8350000Y104800000D02*
X8350000Y103200000D01*
X9150000Y104800000D02*
X8350000Y104800000D01*
X94900000Y2600000D02*
X94900000Y5400000D01*
X94900000Y5400000D02*
X93100000Y5400000D01*
X93100000Y5400000D02*
X93100000Y2600000D01*
X93100000Y2600000D02*
X94900000Y2600000D01*
X94000000Y3250000D02*
X94000000Y3650000D01*
X94000000Y3650000D02*
X94550000Y3650000D01*
X94000000Y3650000D02*
X93450000Y3650000D01*
X94000000Y3650000D02*
X94400000Y4250000D01*
X94400000Y4250000D02*
X93600000Y4250000D01*
X93600000Y4250000D02*
X94000000Y3650000D01*
X94000000Y4250000D02*
X94000000Y4750000D01*
X73400000Y2600000D02*
X73400000Y5400000D01*
X73400000Y5400000D02*
X71600000Y5400000D01*
X71600000Y5400000D02*
X71600000Y2600000D01*
X71600000Y2600000D02*
X73400000Y2600000D01*
X72500000Y3250000D02*
X72500000Y3650000D01*
X72500000Y3650000D02*
X73050000Y3650000D01*
X72500000Y3650000D02*
X71950000Y3650000D01*
X72500000Y3650000D02*
X72900000Y4250000D01*
X72900000Y4250000D02*
X72100000Y4250000D01*
X72100000Y4250000D02*
X72500000Y3650000D01*
X72500000Y4250000D02*
X72500000Y4750000D01*
X45400000Y2100000D02*
X45400000Y4900000D01*
X45400000Y4900000D02*
X43600000Y4900000D01*
X43600000Y4900000D02*
X43600000Y2100000D01*
X43600000Y2100000D02*
X45400000Y2100000D01*
X44500000Y2750000D02*
X44500000Y3150000D01*
X44500000Y3150000D02*
X45050000Y3150000D01*
X44500000Y3150000D02*
X43950000Y3150000D01*
X44500000Y3150000D02*
X44900000Y3750000D01*
X44900000Y3750000D02*
X44100000Y3750000D01*
X44100000Y3750000D02*
X44500000Y3150000D01*
X44500000Y3750000D02*
X44500000Y4250000D01*
X23400000Y2600000D02*
X23400000Y5400000D01*
X23400000Y5400000D02*
X21600000Y5400000D01*
X21600000Y5400000D02*
X21600000Y2600000D01*
X21600000Y2600000D02*
X23400000Y2600000D01*
X22500000Y3250000D02*
X22500000Y3650000D01*
X22500000Y3650000D02*
X23050000Y3650000D01*
X22500000Y3650000D02*
X21950000Y3650000D01*
X22500000Y3650000D02*
X22900000Y4250000D01*
X22900000Y4250000D02*
X22100000Y4250000D01*
X22100000Y4250000D02*
X22500000Y3650000D01*
X22500000Y4250000D02*
X22500000Y4750000D01*
X95400000Y25600000D02*
X95400000Y28400000D01*
X95400000Y28400000D02*
X93600000Y28400000D01*
X93600000Y28400000D02*
X93600000Y25600000D01*
X93600000Y25600000D02*
X95400000Y25600000D01*
X94500000Y26250000D02*
X94500000Y26650000D01*
X94500000Y26650000D02*
X95050000Y26650000D01*
X94500000Y26650000D02*
X93950000Y26650000D01*
X94500000Y26650000D02*
X94900000Y27250000D01*
X94900000Y27250000D02*
X94100000Y27250000D01*
X94100000Y27250000D02*
X94500000Y26650000D01*
X94500000Y27250000D02*
X94500000Y27750000D01*
X73400000Y27100000D02*
X73400000Y29900000D01*
X73400000Y29900000D02*
X71600000Y29900000D01*
X71600000Y29900000D02*
X71600000Y27100000D01*
X71600000Y27100000D02*
X73400000Y27100000D01*
X72500000Y27750000D02*
X72500000Y28150000D01*
X72500000Y28150000D02*
X73050000Y28150000D01*
X72500000Y28150000D02*
X71950000Y28150000D01*
X72500000Y28150000D02*
X72900000Y28750000D01*
X72900000Y28750000D02*
X72100000Y28750000D01*
X72100000Y28750000D02*
X72500000Y28150000D01*
X72500000Y28750000D02*
X72500000Y29250000D01*
X45900000Y27100000D02*
X45900000Y29900000D01*
X45900000Y29900000D02*
X44100000Y29900000D01*
X44100000Y29900000D02*
X44100000Y27100000D01*
X44100000Y27100000D02*
X45900000Y27100000D01*
X45000000Y27750000D02*
X45000000Y28150000D01*
X45000000Y28150000D02*
X45550000Y28150000D01*
X45000000Y28150000D02*
X44450000Y28150000D01*
X45000000Y28150000D02*
X45400000Y28750000D01*
X45400000Y28750000D02*
X44600000Y28750000D01*
X44600000Y28750000D02*
X45000000Y28150000D01*
X45000000Y28750000D02*
X45000000Y29250000D01*
X23400000Y27100000D02*
X23400000Y29900000D01*
X23400000Y29900000D02*
X21600000Y29900000D01*
X21600000Y29900000D02*
X21600000Y27100000D01*
X21600000Y27100000D02*
X23400000Y27100000D01*
X22500000Y27750000D02*
X22500000Y28150000D01*
X22500000Y28150000D02*
X23050000Y28150000D01*
X22500000Y28150000D02*
X21950000Y28150000D01*
X22500000Y28150000D02*
X22900000Y28750000D01*
X22900000Y28750000D02*
X22100000Y28750000D01*
X22100000Y28750000D02*
X22500000Y28150000D01*
X22500000Y28750000D02*
X22500000Y29250000D01*
X95400000Y51600000D02*
X95400000Y54400000D01*
X95400000Y54400000D02*
X93600000Y54400000D01*
X93600000Y54400000D02*
X93600000Y51600000D01*
X93600000Y51600000D02*
X95400000Y51600000D01*
X94500000Y52250000D02*
X94500000Y52650000D01*
X94500000Y52650000D02*
X95050000Y52650000D01*
X94500000Y52650000D02*
X93950000Y52650000D01*
X94500000Y52650000D02*
X94900000Y53250000D01*
X94900000Y53250000D02*
X94100000Y53250000D01*
X94100000Y53250000D02*
X94500000Y52650000D01*
X94500000Y53250000D02*
X94500000Y53750000D01*
X73400000Y52100000D02*
X73400000Y54900000D01*
X73400000Y54900000D02*
X71600000Y54900000D01*
X71600000Y54900000D02*
X71600000Y52100000D01*
X71600000Y52100000D02*
X73400000Y52100000D01*
X72500000Y52750000D02*
X72500000Y53150000D01*
X72500000Y53150000D02*
X73050000Y53150000D01*
X72500000Y53150000D02*
X71950000Y53150000D01*
X72500000Y53150000D02*
X72900000Y53750000D01*
X72900000Y53750000D02*
X72100000Y53750000D01*
X72100000Y53750000D02*
X72500000Y53150000D01*
X72500000Y53750000D02*
X72500000Y54250000D01*
X45900000Y52600000D02*
X45900000Y55400000D01*
X45900000Y55400000D02*
X44100000Y55400000D01*
X44100000Y55400000D02*
X44100000Y52600000D01*
X44100000Y52600000D02*
X45900000Y52600000D01*
X45000000Y53250000D02*
X45000000Y53650000D01*
X45000000Y53650000D02*
X45550000Y53650000D01*
X45000000Y53650000D02*
X44450000Y53650000D01*
X45000000Y53650000D02*
X45400000Y54250000D01*
X45400000Y54250000D02*
X44600000Y54250000D01*
X44600000Y54250000D02*
X45000000Y53650000D01*
X45000000Y54250000D02*
X45000000Y54750000D01*
X23400000Y52100000D02*
X23400000Y54900000D01*
X23400000Y54900000D02*
X21600000Y54900000D01*
X21600000Y54900000D02*
X21600000Y52100000D01*
X21600000Y52100000D02*
X23400000Y52100000D01*
X22500000Y52750000D02*
X22500000Y53150000D01*
X22500000Y53150000D02*
X23050000Y53150000D01*
X22500000Y53150000D02*
X21950000Y53150000D01*
X22500000Y53150000D02*
X22900000Y53750000D01*
X22900000Y53750000D02*
X22100000Y53750000D01*
X22100000Y53750000D02*
X22500000Y53150000D01*
X22500000Y53750000D02*
X22500000Y54250000D01*
X97400000Y77100000D02*
X97400000Y79900000D01*
X97400000Y79900000D02*
X95600000Y79900000D01*
X95600000Y79900000D02*
X95600000Y77100000D01*
X95600000Y77100000D02*
X97400000Y77100000D01*
X96500000Y77750000D02*
X96500000Y78150000D01*
X96500000Y78150000D02*
X97050000Y78150000D01*
X96500000Y78150000D02*
X95950000Y78150000D01*
X96500000Y78150000D02*
X96900000Y78750000D01*
X96900000Y78750000D02*
X96100000Y78750000D01*
X96100000Y78750000D02*
X96500000Y78150000D01*
X96500000Y78750000D02*
X96500000Y79250000D01*
X73400000Y77100000D02*
X73400000Y79900000D01*
X73400000Y79900000D02*
X71600000Y79900000D01*
X71600000Y79900000D02*
X71600000Y77100000D01*
X71600000Y77100000D02*
X73400000Y77100000D01*
X72500000Y77750000D02*
X72500000Y78150000D01*
X72500000Y78150000D02*
X73050000Y78150000D01*
X72500000Y78150000D02*
X71950000Y78150000D01*
X72500000Y78150000D02*
X72900000Y78750000D01*
X72900000Y78750000D02*
X72100000Y78750000D01*
X72100000Y78750000D02*
X72500000Y78150000D01*
X72500000Y78750000D02*
X72500000Y79250000D01*
X45400000Y77100000D02*
X45400000Y79900000D01*
X45400000Y79900000D02*
X43600000Y79900000D01*
X43600000Y79900000D02*
X43600000Y77100000D01*
X43600000Y77100000D02*
X45400000Y77100000D01*
X44500000Y77750000D02*
X44500000Y78150000D01*
X44500000Y78150000D02*
X45050000Y78150000D01*
X44500000Y78150000D02*
X43950000Y78150000D01*
X44500000Y78150000D02*
X44900000Y78750000D01*
X44900000Y78750000D02*
X44100000Y78750000D01*
X44100000Y78750000D02*
X44500000Y78150000D01*
X44500000Y78750000D02*
X44500000Y79250000D01*
X23400000Y77100000D02*
X23400000Y79900000D01*
X23400000Y79900000D02*
X21600000Y79900000D01*
X21600000Y79900000D02*
X21600000Y77100000D01*
X21600000Y77100000D02*
X23400000Y77100000D01*
X22500000Y77750000D02*
X22500000Y78150000D01*
X22500000Y78150000D02*
X23050000Y78150000D01*
X22500000Y78150000D02*
X21950000Y78150000D01*
X22500000Y78150000D02*
X22900000Y78750000D01*
X22900000Y78750000D02*
X22100000Y78750000D01*
X22100000Y78750000D02*
X22500000Y78150000D01*
X22500000Y78750000D02*
X22500000Y79250000D01*
X61000000Y118020000D02*
X60500000Y118520000D01*
X60500000Y118520000D02*
X61000000Y119020000D01*
X61000000Y118020000D02*
X61000000Y99240000D01*
X61000000Y124745000D02*
X43000000Y124745000D01*
X61000000Y124745000D02*
X61000000Y119020000D01*
X61000000Y99240000D02*
X43000000Y99240000D01*
X43000000Y99240000D02*
X43000000Y124745000D01*
X13525000Y113450000D02*
X12550000Y112475000D01*
X22450000Y113450000D02*
X13525000Y113450000D01*
X22450000Y109550000D02*
X22450000Y113450000D01*
X12550000Y109550000D02*
X22450000Y109550000D01*
X12550000Y112475000D02*
X12550000Y109550000D01*
X70100000Y109290000D02*
X70100000Y107690000D01*
X70900000Y109290000D02*
X70100000Y109290000D01*
X70900000Y107690000D02*
X70900000Y109290000D01*
X70100000Y107690000D02*
X70900000Y107690000D01*
X69400000Y107690000D02*
X69400000Y109290000D01*
X68600000Y107690000D02*
X69400000Y107690000D01*
X68600000Y109290000D02*
X68600000Y107690000D01*
X69400000Y109290000D02*
X68600000Y109290000D01*
X60300000Y97900000D02*
X58700000Y97900000D01*
X60300000Y97100000D02*
X60300000Y97900000D01*
X58700000Y97100000D02*
X60300000Y97100000D01*
X58700000Y97900000D02*
X58700000Y97100000D01*
X45600000Y96300000D02*
X45600000Y94700000D01*
X46400000Y96300000D02*
X45600000Y96300000D01*
X46400000Y94700000D02*
X46400000Y96300000D01*
X45600000Y94700000D02*
X46400000Y94700000D01*
X58700000Y95600000D02*
X60300000Y95600000D01*
X58700000Y96400000D02*
X58700000Y95600000D01*
X60300000Y96400000D02*
X58700000Y96400000D01*
X60300000Y95600000D02*
X60300000Y96400000D01*
X65600000Y116300000D02*
X65600000Y114700000D01*
X66400000Y116300000D02*
X65600000Y116300000D01*
X66400000Y114700000D02*
X66400000Y116300000D01*
X65600000Y114700000D02*
X66400000Y114700000D01*
X32700000Y115100000D02*
X34300000Y115100000D01*
X32700000Y115900000D02*
X32700000Y115100000D01*
X34300000Y115900000D02*
X32700000Y115900000D01*
X34300000Y115100000D02*
X34300000Y115900000D01*
X30800000Y115900000D02*
X29200000Y115900000D01*
X30800000Y115100000D02*
X30800000Y115900000D01*
X29200000Y115100000D02*
X30800000Y115100000D01*
X29200000Y115900000D02*
X29200000Y115100000D01*
X17200000Y105600000D02*
X18800000Y105600000D01*
X17200000Y106400000D02*
X17200000Y105600000D01*
X18800000Y106400000D02*
X17200000Y106400000D01*
X18800000Y105600000D02*
X18800000Y106400000D01*
X11200000Y104100000D02*
X12800000Y104100000D01*
X11200000Y104900000D02*
X11200000Y104100000D01*
X12800000Y104900000D02*
X11200000Y104900000D01*
X12800000Y104100000D02*
X12800000Y104900000D01*
X17800000Y104520000D02*
X19200000Y104520000D01*
X19200000Y101480000D02*
X19200000Y104520000D01*
X17800000Y102050000D02*
X18350000Y101480000D01*
X18350000Y101480000D02*
X19200000Y101480000D01*
X17800000Y102050000D02*
X17800000Y104500000D01*
X10700000Y108480000D02*
X9300000Y108480000D01*
X9300000Y111520000D02*
X9300000Y108480000D01*
X10700000Y110950000D02*
X10150000Y111520000D01*
X10150000Y111520000D02*
X9300000Y111520000D01*
X10700000Y110950000D02*
X10700000Y108500000D01*
X32700000Y116600000D02*
X32700000Y117400000D01*
X34300000Y116600000D02*
X32700000Y116600000D01*
X34300000Y117100000D02*
X34300000Y116600000D01*
X34000000Y117400000D02*
X34300000Y117100000D01*
X32700000Y117400000D02*
X34000000Y117400000D01*
X29200000Y116600000D02*
X29200000Y117400000D01*
X30800000Y116600000D02*
X29200000Y116600000D01*
X30800000Y117100000D02*
X30800000Y116600000D01*
X30500000Y117400000D02*
X30800000Y117100000D01*
X29200000Y117400000D02*
X30500000Y117400000D01*
X67900000Y107700000D02*
X67900000Y109300000D01*
X67100000Y107700000D02*
X67900000Y107700000D01*
X67100000Y109300000D02*
X67100000Y107700000D01*
X67900000Y109300000D02*
X67100000Y109300000D01*
X68600000Y116300000D02*
X68600000Y114700000D01*
X69400000Y116300000D02*
X68600000Y116300000D01*
X69400000Y114700000D02*
X69400000Y116300000D01*
X68600000Y114700000D02*
X69400000Y114700000D01*
X67100000Y116300000D02*
X67100000Y114700000D01*
X67900000Y116300000D02*
X67100000Y116300000D01*
X67900000Y114700000D02*
X67900000Y116300000D01*
X67100000Y114700000D02*
X67900000Y114700000D01*
X12800000Y106400000D02*
X11200000Y106400000D01*
X12800000Y105600000D02*
X12800000Y106400000D01*
X11200000Y105600000D02*
X12800000Y105600000D01*
X11200000Y106400000D02*
X11200000Y105600000D01*
X69400000Y110700000D02*
X69400000Y112300000D01*
X68600000Y110700000D02*
X69400000Y110700000D01*
X68600000Y112300000D02*
X68600000Y110700000D01*
X69400000Y112300000D02*
X68600000Y112300000D01*
X67900000Y110700000D02*
X67900000Y112300000D01*
X67100000Y110700000D02*
X67900000Y110700000D01*
X67100000Y112300000D02*
X67100000Y110700000D01*
X67900000Y112300000D02*
X67100000Y112300000D01*
X40150000Y104450000D02*
X40150000Y106050000D01*
X39350000Y104450000D02*
X40150000Y104450000D01*
X39350000Y106050000D02*
X39350000Y104450000D01*
X40150000Y106050000D02*
X39350000Y106050000D01*
X38650000Y104450000D02*
X38650000Y106050000D01*
X37850000Y104450000D02*
X38650000Y104450000D01*
X37850000Y106050000D02*
X37850000Y104450000D01*
X38650000Y106050000D02*
X37850000Y106050000D01*
D12*
X38402380Y46797620D02*
X38402380Y47369048D01*
X38402380Y47083334D02*
X37402380Y47083334D01*
X37545238Y47178572D01*
X37640476Y47273810D01*
X37688095Y47369048D01*
X37402380Y46178572D02*
X37402380Y46083334D01*
X37450000Y45988096D01*
X37497619Y45940477D01*
X37592857Y45892858D01*
X37783333Y45845239D01*
X38021428Y45845239D01*
X38211904Y45892858D01*
X38307142Y45940477D01*
X38354761Y45988096D01*
X38402380Y46083334D01*
X38402380Y46178572D01*
X38354761Y46273810D01*
X38307142Y46321429D01*
X38211904Y46369048D01*
X38021428Y46416667D01*
X37783333Y46416667D01*
X37592857Y46369048D01*
X37497619Y46321429D01*
X37450000Y46273810D01*
X37402380Y46178572D01*
X37402380Y45226191D02*
X37402380Y45130953D01*
X37450000Y45035715D01*
X37497619Y44988096D01*
X37592857Y44940477D01*
X37783333Y44892858D01*
X38021428Y44892858D01*
X38211904Y44940477D01*
X38307142Y44988096D01*
X38354761Y45035715D01*
X38402380Y45130953D01*
X38402380Y45226191D01*
X38354761Y45321429D01*
X38307142Y45369048D01*
X38211904Y45416667D01*
X38021428Y45464286D01*
X37783333Y45464286D01*
X37592857Y45416667D01*
X37497619Y45369048D01*
X37450000Y45321429D01*
X37402380Y45226191D01*
X37735714Y44035715D02*
X38402380Y44035715D01*
X37735714Y44464286D02*
X38259523Y44464286D01*
X38354761Y44416667D01*
X38402380Y44321429D01*
X38402380Y44178572D01*
X38354761Y44083334D01*
X38307142Y44035715D01*
X37878571Y43226191D02*
X37878571Y43559524D01*
X38402380Y43559524D02*
X37402380Y43559524D01*
X37402380Y43083334D01*
X34607142Y45892858D02*
X34654761Y45940477D01*
X34702380Y46083334D01*
X34702380Y46178572D01*
X34654761Y46321429D01*
X34559523Y46416667D01*
X34464285Y46464286D01*
X34273809Y46511905D01*
X34130952Y46511905D01*
X33940476Y46464286D01*
X33845238Y46416667D01*
X33750000Y46321429D01*
X33702380Y46178572D01*
X33702380Y46083334D01*
X33750000Y45940477D01*
X33797619Y45892858D01*
X34702380Y44940477D02*
X34702380Y45511905D01*
X34702380Y45226191D02*
X33702380Y45226191D01*
X33845238Y45321429D01*
X33940476Y45416667D01*
X33988095Y45511905D01*
X33702380Y44607143D02*
X33702380Y43940477D01*
X34702380Y44369048D01*
X80652380Y109047620D02*
X80652380Y109619048D01*
X80652380Y109333334D02*
X79652380Y109333334D01*
X79795238Y109428572D01*
X79890476Y109523810D01*
X79938095Y109619048D01*
X79652380Y108428572D02*
X79652380Y108333334D01*
X79700000Y108238096D01*
X79747619Y108190477D01*
X79842857Y108142858D01*
X80033333Y108095239D01*
X80271428Y108095239D01*
X80461904Y108142858D01*
X80557142Y108190477D01*
X80604761Y108238096D01*
X80652380Y108333334D01*
X80652380Y108428572D01*
X80604761Y108523810D01*
X80557142Y108571429D01*
X80461904Y108619048D01*
X80271428Y108666667D01*
X80033333Y108666667D01*
X79842857Y108619048D01*
X79747619Y108571429D01*
X79700000Y108523810D01*
X79652380Y108428572D01*
X79652380Y107476191D02*
X79652380Y107380953D01*
X79700000Y107285715D01*
X79747619Y107238096D01*
X79842857Y107190477D01*
X80033333Y107142858D01*
X80271428Y107142858D01*
X80461904Y107190477D01*
X80557142Y107238096D01*
X80604761Y107285715D01*
X80652380Y107380953D01*
X80652380Y107476191D01*
X80604761Y107571429D01*
X80557142Y107619048D01*
X80461904Y107666667D01*
X80271428Y107714286D01*
X80033333Y107714286D01*
X79842857Y107666667D01*
X79747619Y107619048D01*
X79700000Y107571429D01*
X79652380Y107476191D01*
X79985714Y106285715D02*
X80652380Y106285715D01*
X79985714Y106714286D02*
X80509523Y106714286D01*
X80604761Y106666667D01*
X80652380Y106571429D01*
X80652380Y106428572D01*
X80604761Y106333334D01*
X80557142Y106285715D01*
X80128571Y105476191D02*
X80128571Y105809524D01*
X80652380Y105809524D02*
X79652380Y105809524D01*
X79652380Y105333334D01*
X76857142Y108142858D02*
X76904761Y108190477D01*
X76952380Y108333334D01*
X76952380Y108428572D01*
X76904761Y108571429D01*
X76809523Y108666667D01*
X76714285Y108714286D01*
X76523809Y108761905D01*
X76380952Y108761905D01*
X76190476Y108714286D01*
X76095238Y108666667D01*
X76000000Y108571429D01*
X75952380Y108428572D01*
X75952380Y108333334D01*
X76000000Y108190477D01*
X76047619Y108142858D01*
X76952380Y107190477D02*
X76952380Y107761905D01*
X76952380Y107476191D02*
X75952380Y107476191D01*
X76095238Y107571429D01*
X76190476Y107666667D01*
X76238095Y107761905D01*
X75952380Y106333334D02*
X75952380Y106523810D01*
X76000000Y106619048D01*
X76047619Y106666667D01*
X76190476Y106761905D01*
X76380952Y106809524D01*
X76761904Y106809524D01*
X76857142Y106761905D01*
X76904761Y106714286D01*
X76952380Y106619048D01*
X76952380Y106428572D01*
X76904761Y106333334D01*
X76857142Y106285715D01*
X76761904Y106238096D01*
X76523809Y106238096D01*
X76428571Y106285715D01*
X76380952Y106333334D01*
X76333333Y106428572D01*
X76333333Y106619048D01*
X76380952Y106714286D01*
X76428571Y106761905D01*
X76523809Y106809524D01*
X31652380Y107047620D02*
X31652380Y107619048D01*
X31652380Y107333334D02*
X30652380Y107333334D01*
X30795238Y107428572D01*
X30890476Y107523810D01*
X30938095Y107619048D01*
X30652380Y106428572D02*
X30652380Y106333334D01*
X30700000Y106238096D01*
X30747619Y106190477D01*
X30842857Y106142858D01*
X31033333Y106095239D01*
X31271428Y106095239D01*
X31461904Y106142858D01*
X31557142Y106190477D01*
X31604761Y106238096D01*
X31652380Y106333334D01*
X31652380Y106428572D01*
X31604761Y106523810D01*
X31557142Y106571429D01*
X31461904Y106619048D01*
X31271428Y106666667D01*
X31033333Y106666667D01*
X30842857Y106619048D01*
X30747619Y106571429D01*
X30700000Y106523810D01*
X30652380Y106428572D01*
X30652380Y105476191D02*
X30652380Y105380953D01*
X30700000Y105285715D01*
X30747619Y105238096D01*
X30842857Y105190477D01*
X31033333Y105142858D01*
X31271428Y105142858D01*
X31461904Y105190477D01*
X31557142Y105238096D01*
X31604761Y105285715D01*
X31652380Y105380953D01*
X31652380Y105476191D01*
X31604761Y105571429D01*
X31557142Y105619048D01*
X31461904Y105666667D01*
X31271428Y105714286D01*
X31033333Y105714286D01*
X30842857Y105666667D01*
X30747619Y105619048D01*
X30700000Y105571429D01*
X30652380Y105476191D01*
X30985714Y104285715D02*
X31652380Y104285715D01*
X30985714Y104714286D02*
X31509523Y104714286D01*
X31604761Y104666667D01*
X31652380Y104571429D01*
X31652380Y104428572D01*
X31604761Y104333334D01*
X31557142Y104285715D01*
X31128571Y103476191D02*
X31128571Y103809524D01*
X31652380Y103809524D02*
X30652380Y103809524D01*
X30652380Y103333334D01*
X27857142Y106142858D02*
X27904761Y106190477D01*
X27952380Y106333334D01*
X27952380Y106428572D01*
X27904761Y106571429D01*
X27809523Y106666667D01*
X27714285Y106714286D01*
X27523809Y106761905D01*
X27380952Y106761905D01*
X27190476Y106714286D01*
X27095238Y106666667D01*
X27000000Y106571429D01*
X26952380Y106428572D01*
X26952380Y106333334D01*
X27000000Y106190477D01*
X27047619Y106142858D01*
X27952380Y105190477D02*
X27952380Y105761905D01*
X27952380Y105476191D02*
X26952380Y105476191D01*
X27095238Y105571429D01*
X27190476Y105666667D01*
X27238095Y105761905D01*
X26952380Y104285715D02*
X26952380Y104761905D01*
X27428571Y104809524D01*
X27380952Y104761905D01*
X27333333Y104666667D01*
X27333333Y104428572D01*
X27380952Y104333334D01*
X27428571Y104285715D01*
X27523809Y104238096D01*
X27761904Y104238096D01*
X27857142Y104285715D01*
X27904761Y104333334D01*
X27952380Y104428572D01*
X27952380Y104666667D01*
X27904761Y104761905D01*
X27857142Y104809524D01*
X69047619Y97166667D02*
X68333333Y97166667D01*
X68190476Y97119048D01*
X68095238Y97023810D01*
X68047619Y96880953D01*
X68047619Y96785715D01*
X69047619Y98119048D02*
X69047619Y97642858D01*
X68571428Y97595239D01*
X68619047Y97642858D01*
X68666666Y97738096D01*
X68666666Y97976191D01*
X68619047Y98071429D01*
X68571428Y98119048D01*
X68476190Y98166667D01*
X68238095Y98166667D01*
X68142857Y98119048D01*
X68095238Y98071429D01*
X68047619Y97976191D01*
X68047619Y97738096D01*
X68095238Y97642858D01*
X68142857Y97595239D01*
X2392857Y112297620D02*
X2869047Y112297620D01*
X2916666Y111821429D01*
X2869047Y111869048D01*
X2773809Y111916667D01*
X2535714Y111916667D01*
X2440476Y111869048D01*
X2392857Y111821429D01*
X2345238Y111726191D01*
X2345238Y111488096D01*
X2392857Y111392858D01*
X2440476Y111345239D01*
X2535714Y111297620D01*
X2773809Y111297620D01*
X2869047Y111345239D01*
X2916666Y111392858D01*
X1916666Y111297620D02*
X1916666Y112297620D01*
X1821428Y111678572D02*
X1535714Y111297620D01*
X1535714Y111964286D02*
X1916666Y111583334D01*
X583333Y111297620D02*
X1154761Y111297620D01*
X869047Y111297620D02*
X869047Y112297620D01*
X964285Y112154762D01*
X1059523Y112059524D01*
X1154761Y112011905D01*
D13*
X2257142Y110319048D02*
X2390476Y110509524D01*
X2485714Y110319048D02*
X2485714Y110719048D01*
X2333333Y110719048D01*
X2295238Y110700000D01*
X2276190Y110680953D01*
X2257142Y110642858D01*
X2257142Y110585715D01*
X2276190Y110547620D01*
X2295238Y110528572D01*
X2333333Y110509524D01*
X2485714Y110509524D01*
X2104761Y110680953D02*
X2085714Y110700000D01*
X2047619Y110719048D01*
X1952380Y110719048D01*
X1914285Y110700000D01*
X1895238Y110680953D01*
X1876190Y110642858D01*
X1876190Y110604762D01*
X1895238Y110547620D01*
X2123809Y110319048D01*
X1876190Y110319048D01*
X1533333Y110585715D02*
X1533333Y110319048D01*
X1628571Y110738096D02*
X1723809Y110452381D01*
X1476190Y110452381D01*
D12*
X2392857Y108117620D02*
X2869047Y108117620D01*
X2916666Y107641429D01*
X2869047Y107689048D01*
X2773809Y107736667D01*
X2535714Y107736667D01*
X2440476Y107689048D01*
X2392857Y107641429D01*
X2345238Y107546191D01*
X2345238Y107308096D01*
X2392857Y107212858D01*
X2440476Y107165239D01*
X2535714Y107117620D01*
X2773809Y107117620D01*
X2869047Y107165239D01*
X2916666Y107212858D01*
X1916666Y107117620D02*
X1916666Y108117620D01*
X1821428Y107498572D02*
X1535714Y107117620D01*
X1535714Y107784286D02*
X1916666Y107403334D01*
X583333Y107117620D02*
X1154761Y107117620D01*
X869047Y107117620D02*
X869047Y108117620D01*
X964285Y107974762D01*
X1059523Y107879524D01*
X1154761Y107831905D01*
D13*
X2257142Y108819048D02*
X2390476Y109009524D01*
X2485714Y108819048D02*
X2485714Y109219048D01*
X2333333Y109219048D01*
X2295238Y109200000D01*
X2276190Y109180953D01*
X2257142Y109142858D01*
X2257142Y109085715D01*
X2276190Y109047620D01*
X2295238Y109028572D01*
X2333333Y109009524D01*
X2485714Y109009524D01*
X2104761Y109180953D02*
X2085714Y109200000D01*
X2047619Y109219048D01*
X1952380Y109219048D01*
X1914285Y109200000D01*
X1895238Y109180953D01*
X1876190Y109142858D01*
X1876190Y109104762D01*
X1895238Y109047620D01*
X2123809Y108819048D01*
X1876190Y108819048D01*
X1742857Y109219048D02*
X1495238Y109219048D01*
X1628571Y109066667D01*
X1571428Y109066667D01*
X1533333Y109047620D01*
X1514285Y109028572D01*
X1495238Y108990477D01*
X1495238Y108895239D01*
X1514285Y108857143D01*
X1533333Y108838096D01*
X1571428Y108819048D01*
X1685714Y108819048D01*
X1723809Y108838096D01*
X1742857Y108857143D01*
D12*
X10190476Y122287620D02*
X10190476Y121478096D01*
X10142857Y121382858D01*
X10095238Y121335239D01*
X10000000Y121287620D01*
X9809523Y121287620D01*
X9714285Y121335239D01*
X9666666Y121382858D01*
X9619047Y121478096D01*
X9619047Y122287620D01*
X9190476Y121335239D02*
X9047619Y121287620D01*
X8809523Y121287620D01*
X8714285Y121335239D01*
X8666666Y121382858D01*
X8619047Y121478096D01*
X8619047Y121573334D01*
X8666666Y121668572D01*
X8714285Y121716191D01*
X8809523Y121763810D01*
X9000000Y121811429D01*
X9095238Y121859048D01*
X9142857Y121906667D01*
X9190476Y122001905D01*
X9190476Y122097143D01*
X9142857Y122192381D01*
X9095238Y122240000D01*
X9000000Y122287620D01*
X8761904Y122287620D01*
X8619047Y122240000D01*
X7857142Y121811429D02*
X7714285Y121763810D01*
X7666666Y121716191D01*
X7619047Y121620953D01*
X7619047Y121478096D01*
X7666666Y121382858D01*
X7714285Y121335239D01*
X7809523Y121287620D01*
X8190476Y121287620D01*
X8190476Y122287620D01*
X7857142Y122287620D01*
X7761904Y122240000D01*
X7714285Y122192381D01*
X7666666Y122097143D01*
X7666666Y122001905D01*
X7714285Y121906667D01*
X7761904Y121859048D01*
X7857142Y121811429D01*
X8190476Y121811429D01*
X7428571Y121192381D02*
X6666666Y121192381D01*
X5857142Y121382858D02*
X5904761Y121335239D01*
X6047619Y121287620D01*
X6142857Y121287620D01*
X6285714Y121335239D01*
X6380952Y121430477D01*
X6428571Y121525715D01*
X6476190Y121716191D01*
X6476190Y121859048D01*
X6428571Y122049524D01*
X6380952Y122144762D01*
X6285714Y122240000D01*
X6142857Y122287620D01*
X6047619Y122287620D01*
X5904761Y122240000D01*
X5857142Y122192381D01*
X5666666Y121192381D02*
X4904761Y121192381D01*
X4666666Y121287620D02*
X4666666Y122287620D01*
X4285714Y122287620D01*
X4190476Y122240000D01*
X4142857Y122192381D01*
X4095238Y122097143D01*
X4095238Y121954286D01*
X4142857Y121859048D01*
X4190476Y121811429D01*
X4285714Y121763810D01*
X4666666Y121763810D01*
X3523809Y121287620D02*
X3619047Y121335239D01*
X3666666Y121430477D01*
X3666666Y122287620D01*
X2714285Y121954286D02*
X2714285Y121287620D01*
X3142857Y121954286D02*
X3142857Y121430477D01*
X3095238Y121335239D01*
X3000000Y121287620D01*
X2857142Y121287620D01*
X2761904Y121335239D01*
X2714285Y121382858D01*
X1809523Y121954286D02*
X1809523Y121144762D01*
X1857142Y121049524D01*
X1904761Y121001905D01*
X2000000Y120954286D01*
X2142857Y120954286D01*
X2238095Y121001905D01*
X1809523Y121335239D02*
X1904761Y121287620D01*
X2095238Y121287620D01*
X2190476Y121335239D01*
X2238095Y121382858D01*
X2285714Y121478096D01*
X2285714Y121763810D01*
X2238095Y121859048D01*
X2190476Y121906667D01*
X2095238Y121954286D01*
X1904761Y121954286D01*
X1809523Y121906667D01*
X6333333Y117227620D02*
X6333333Y116513334D01*
X6380952Y116370477D01*
X6476190Y116275239D01*
X6619047Y116227620D01*
X6714285Y116227620D01*
X5333333Y116227620D02*
X5904761Y116227620D01*
X5619047Y116227620D02*
X5619047Y117227620D01*
X5714285Y117084762D01*
X5809523Y116989524D01*
X5904761Y116941905D01*
X93964285Y111047620D02*
X93964285Y112047620D01*
X93630952Y111333334D01*
X93297619Y112047620D01*
X93297619Y111047620D01*
X92821428Y111047620D02*
X92821428Y111714286D01*
X92821428Y112047620D02*
X92869047Y112000000D01*
X92821428Y111952381D01*
X92773809Y112000000D01*
X92821428Y112047620D01*
X92821428Y111952381D01*
X91916666Y111095239D02*
X92011904Y111047620D01*
X92202380Y111047620D01*
X92297619Y111095239D01*
X92345238Y111142858D01*
X92392857Y111238096D01*
X92392857Y111523810D01*
X92345238Y111619048D01*
X92297619Y111666667D01*
X92202380Y111714286D01*
X92011904Y111714286D01*
X91916666Y111666667D01*
X91488095Y111047620D02*
X91488095Y111714286D01*
X91488095Y111523810D02*
X91440476Y111619048D01*
X91392857Y111666667D01*
X91297619Y111714286D01*
X91202380Y111714286D01*
X90726190Y111047620D02*
X90821428Y111095239D01*
X90869047Y111142858D01*
X90916666Y111238096D01*
X90916666Y111523810D01*
X90869047Y111619048D01*
X90821428Y111666667D01*
X90726190Y111714286D01*
X90583333Y111714286D01*
X90488095Y111666667D01*
X90440476Y111619048D01*
X90392857Y111523810D01*
X90392857Y111238096D01*
X90440476Y111142858D01*
X90488095Y111095239D01*
X90583333Y111047620D01*
X90726190Y111047620D01*
X90202380Y110952381D02*
X89440476Y110952381D01*
X89250000Y111095239D02*
X89107142Y111047620D01*
X88869047Y111047620D01*
X88773809Y111095239D01*
X88726190Y111142858D01*
X88678571Y111238096D01*
X88678571Y111333334D01*
X88726190Y111428572D01*
X88773809Y111476191D01*
X88869047Y111523810D01*
X89059523Y111571429D01*
X89154761Y111619048D01*
X89202380Y111666667D01*
X89250000Y111761905D01*
X89250000Y111857143D01*
X89202380Y111952381D01*
X89154761Y112000000D01*
X89059523Y112047620D01*
X88821428Y112047620D01*
X88678571Y112000000D01*
X88250000Y111047620D02*
X88250000Y112047620D01*
X88011904Y112047620D01*
X87869047Y112000000D01*
X87773809Y111904762D01*
X87726190Y111809524D01*
X87678571Y111619048D01*
X87678571Y111476191D01*
X87726190Y111285715D01*
X87773809Y111190477D01*
X87869047Y111095239D01*
X88011904Y111047620D01*
X88250000Y111047620D01*
X87488095Y110952381D02*
X86726190Y110952381D01*
X85916666Y111142858D02*
X85964285Y111095239D01*
X86107142Y111047620D01*
X86202380Y111047620D01*
X86345238Y111095239D01*
X86440476Y111190477D01*
X86488095Y111285715D01*
X86535714Y111476191D01*
X86535714Y111619048D01*
X86488095Y111809524D01*
X86440476Y111904762D01*
X86345238Y112000000D01*
X86202380Y112047620D01*
X86107142Y112047620D01*
X85964285Y112000000D01*
X85916666Y111952381D01*
X85059523Y111047620D02*
X85059523Y111571429D01*
X85107142Y111666667D01*
X85202380Y111714286D01*
X85392857Y111714286D01*
X85488095Y111666667D01*
X85059523Y111095239D02*
X85154761Y111047620D01*
X85392857Y111047620D01*
X85488095Y111095239D01*
X85535714Y111190477D01*
X85535714Y111285715D01*
X85488095Y111380953D01*
X85392857Y111428572D01*
X85154761Y111428572D01*
X85059523Y111476191D01*
X84583333Y111047620D02*
X84583333Y111714286D01*
X84583333Y111523810D02*
X84535714Y111619048D01*
X84488095Y111666667D01*
X84392857Y111714286D01*
X84297619Y111714286D01*
X83535714Y111047620D02*
X83535714Y112047620D01*
X83535714Y111095239D02*
X83630952Y111047620D01*
X83821428Y111047620D01*
X83916666Y111095239D01*
X83964285Y111142858D01*
X84011904Y111238096D01*
X84011904Y111523810D01*
X83964285Y111619048D01*
X83916666Y111666667D01*
X83821428Y111714286D01*
X83630952Y111714286D01*
X83535714Y111666667D01*
X88833333Y113397620D02*
X88833333Y112683334D01*
X88880952Y112540477D01*
X88976190Y112445239D01*
X89119047Y112397620D01*
X89214285Y112397620D01*
X88404761Y113302381D02*
X88357142Y113350000D01*
X88261904Y113397620D01*
X88023809Y113397620D01*
X87928571Y113350000D01*
X87880952Y113302381D01*
X87833333Y113207143D01*
X87833333Y113111905D01*
X87880952Y112969048D01*
X88452380Y112397620D01*
X87833333Y112397620D01*
X80750000Y111333334D02*
X80273809Y111333334D01*
X80845238Y111047620D02*
X80511904Y112047620D01*
X80178571Y111047620D01*
X79845238Y111047620D02*
X79845238Y112047620D01*
X79511904Y111333334D01*
X79178571Y112047620D01*
X79178571Y111047620D01*
X78750000Y111095239D02*
X78607142Y111047620D01*
X78369047Y111047620D01*
X78273809Y111095239D01*
X78226190Y111142858D01*
X78178571Y111238096D01*
X78178571Y111333334D01*
X78226190Y111428572D01*
X78273809Y111476191D01*
X78369047Y111523810D01*
X78559523Y111571429D01*
X78654761Y111619048D01*
X78702380Y111666667D01*
X78750000Y111761905D01*
X78750000Y111857143D01*
X78702380Y111952381D01*
X78654761Y112000000D01*
X78559523Y112047620D01*
X78321428Y112047620D01*
X78178571Y112000000D01*
X77226190Y111047620D02*
X77797619Y111047620D01*
X77511904Y111047620D02*
X77511904Y112047620D01*
X77607142Y111904762D01*
X77702380Y111809524D01*
X77797619Y111761905D01*
X76273809Y111047620D02*
X76845238Y111047620D01*
X76559523Y111047620D02*
X76559523Y112047620D01*
X76654761Y111904762D01*
X76750000Y111809524D01*
X76845238Y111761905D01*
X75321428Y111047620D02*
X75892857Y111047620D01*
X75607142Y111047620D02*
X75607142Y112047620D01*
X75702380Y111904762D01*
X75797619Y111809524D01*
X75892857Y111761905D01*
X74988095Y112047620D02*
X74321428Y112047620D01*
X74750000Y111047620D01*
X73940476Y111428572D02*
X73178571Y111428572D01*
X72797619Y112047620D02*
X72178571Y112047620D01*
X72511904Y111666667D01*
X72369047Y111666667D01*
X72273809Y111619048D01*
X72226190Y111571429D01*
X72178571Y111476191D01*
X72178571Y111238096D01*
X72226190Y111142858D01*
X72273809Y111095239D01*
X72369047Y111047620D01*
X72654761Y111047620D01*
X72750000Y111095239D01*
X72797619Y111142858D01*
X71750000Y111142858D02*
X71702380Y111095239D01*
X71750000Y111047620D01*
X71797619Y111095239D01*
X71750000Y111142858D01*
X71750000Y111047620D01*
X71369047Y112047620D02*
X70750000Y112047620D01*
X71083333Y111666667D01*
X70940476Y111666667D01*
X70845238Y111619048D01*
X70797619Y111571429D01*
X70750000Y111476191D01*
X70750000Y111238096D01*
X70797619Y111142858D01*
X70845238Y111095239D01*
X70940476Y111047620D01*
X71226190Y111047620D01*
X71321428Y111095239D01*
X71369047Y111142858D01*
D11*
X74311904Y116359524D02*
X74959523Y116359524D01*
X75035714Y116321429D01*
X75073809Y116283334D01*
X75111904Y116207143D01*
X75111904Y116054762D01*
X75073809Y115978572D01*
X75035714Y115940477D01*
X74959523Y115902381D01*
X74311904Y115902381D01*
X74311904Y115597620D02*
X74311904Y115102381D01*
X74616666Y115369048D01*
X74616666Y115254762D01*
X74654761Y115178572D01*
X74692857Y115140477D01*
X74769047Y115102381D01*
X74959523Y115102381D01*
X75035714Y115140477D01*
X75073809Y115178572D01*
X75111904Y115254762D01*
X75111904Y115483334D01*
X75073809Y115559524D01*
X75035714Y115597620D01*
D12*
X9202380Y101595239D02*
X9202380Y102166667D01*
X9202380Y101880953D02*
X8202380Y101880953D01*
X8345238Y101976191D01*
X8440476Y102071429D01*
X8488095Y102166667D01*
X8535714Y100738096D02*
X9202380Y100738096D01*
X8535714Y101166667D02*
X9059523Y101166667D01*
X9154761Y101119048D01*
X9202380Y101023810D01*
X9202380Y100880953D01*
X9154761Y100785715D01*
X9107142Y100738096D01*
X8678571Y99928572D02*
X8678571Y100261905D01*
X9202380Y100261905D02*
X8202380Y100261905D01*
X8202380Y99785715D01*
D13*
X8892857Y104257143D02*
X8911904Y104276191D01*
X8930952Y104333334D01*
X8930952Y104371429D01*
X8911904Y104428572D01*
X8873809Y104466667D01*
X8835714Y104485715D01*
X8759523Y104504762D01*
X8702380Y104504762D01*
X8626190Y104485715D01*
X8588095Y104466667D01*
X8550000Y104428572D01*
X8530952Y104371429D01*
X8530952Y104333334D01*
X8550000Y104276191D01*
X8569047Y104257143D01*
X8930952Y103876191D02*
X8930952Y104104762D01*
X8930952Y103990477D02*
X8530952Y103990477D01*
X8588095Y104028572D01*
X8626190Y104066667D01*
X8645238Y104104762D01*
X8530952Y103742858D02*
X8530952Y103495239D01*
X8683333Y103628572D01*
X8683333Y103571429D01*
X8702380Y103533334D01*
X8721428Y103514286D01*
X8759523Y103495239D01*
X8854761Y103495239D01*
X8892857Y103514286D01*
X8911904Y103533334D01*
X8930952Y103571429D01*
X8930952Y103685715D01*
X8911904Y103723810D01*
X8892857Y103742858D01*
D12*
X92352380Y6714286D02*
X92352380Y7285715D01*
X92352380Y7000000D02*
X91352380Y7000000D01*
X91495238Y7095239D01*
X91590476Y7190477D01*
X91638095Y7285715D01*
X92352380Y6285715D02*
X91352380Y6285715D01*
X92352380Y5714286D01*
X91352380Y5714286D01*
X91685714Y4809524D02*
X92352380Y4809524D01*
X91304761Y5047620D02*
X92019047Y5285715D01*
X92019047Y4666667D01*
X92352380Y3761905D02*
X92352380Y4333334D01*
X92352380Y4047620D02*
X91352380Y4047620D01*
X91495238Y4142858D01*
X91590476Y4238096D01*
X91638095Y4333334D01*
X91685714Y2904762D02*
X92352380Y2904762D01*
X91304761Y3142858D02*
X92019047Y3380953D01*
X92019047Y2761905D01*
X91780952Y2238096D02*
X91733333Y2333334D01*
X91685714Y2380953D01*
X91590476Y2428572D01*
X91542857Y2428572D01*
X91447619Y2380953D01*
X91400000Y2333334D01*
X91352380Y2238096D01*
X91352380Y2047620D01*
X91400000Y1952381D01*
X91447619Y1904762D01*
X91542857Y1857143D01*
X91590476Y1857143D01*
X91685714Y1904762D01*
X91733333Y1952381D01*
X91780952Y2047620D01*
X91780952Y2238096D01*
X91828571Y2333334D01*
X91876190Y2380953D01*
X91971428Y2428572D01*
X92161904Y2428572D01*
X92257142Y2380953D01*
X92304761Y2333334D01*
X92352380Y2238096D01*
X92352380Y2047620D01*
X92304761Y1952381D01*
X92257142Y1904762D01*
X92161904Y1857143D01*
X91971428Y1857143D01*
X91876190Y1904762D01*
X91828571Y1952381D01*
X91780952Y2047620D01*
X91352380Y1523810D02*
X92352380Y1285715D01*
X91638095Y1095239D01*
X92352380Y904762D01*
X91352380Y666667D01*
X96452380Y5214286D02*
X95452380Y5214286D01*
X95452380Y4976191D01*
X95500000Y4833334D01*
X95595238Y4738096D01*
X95690476Y4690477D01*
X95880952Y4642858D01*
X96023809Y4642858D01*
X96214285Y4690477D01*
X96309523Y4738096D01*
X96404761Y4833334D01*
X96452380Y4976191D01*
X96452380Y5214286D01*
X96452380Y3690477D02*
X96452380Y4261905D01*
X96452380Y3976191D02*
X95452380Y3976191D01*
X95595238Y4071429D01*
X95690476Y4166667D01*
X95738095Y4261905D01*
X95452380Y2833334D02*
X95452380Y3023810D01*
X95500000Y3119048D01*
X95547619Y3166667D01*
X95690476Y3261905D01*
X95880952Y3309524D01*
X96261904Y3309524D01*
X96357142Y3261905D01*
X96404761Y3214286D01*
X96452380Y3119048D01*
X96452380Y2928572D01*
X96404761Y2833334D01*
X96357142Y2785715D01*
X96261904Y2738096D01*
X96023809Y2738096D01*
X95928571Y2785715D01*
X95880952Y2833334D01*
X95833333Y2928572D01*
X95833333Y3119048D01*
X95880952Y3214286D01*
X95928571Y3261905D01*
X96023809Y3309524D01*
X70852380Y6714286D02*
X70852380Y7285715D01*
X70852380Y7000000D02*
X69852380Y7000000D01*
X69995238Y7095239D01*
X70090476Y7190477D01*
X70138095Y7285715D01*
X70852380Y6285715D02*
X69852380Y6285715D01*
X70852380Y5714286D01*
X69852380Y5714286D01*
X70185714Y4809524D02*
X70852380Y4809524D01*
X69804761Y5047620D02*
X70519047Y5285715D01*
X70519047Y4666667D01*
X70852380Y3761905D02*
X70852380Y4333334D01*
X70852380Y4047620D02*
X69852380Y4047620D01*
X69995238Y4142858D01*
X70090476Y4238096D01*
X70138095Y4333334D01*
X70185714Y2904762D02*
X70852380Y2904762D01*
X69804761Y3142858D02*
X70519047Y3380953D01*
X70519047Y2761905D01*
X70280952Y2238096D02*
X70233333Y2333334D01*
X70185714Y2380953D01*
X70090476Y2428572D01*
X70042857Y2428572D01*
X69947619Y2380953D01*
X69900000Y2333334D01*
X69852380Y2238096D01*
X69852380Y2047620D01*
X69900000Y1952381D01*
X69947619Y1904762D01*
X70042857Y1857143D01*
X70090476Y1857143D01*
X70185714Y1904762D01*
X70233333Y1952381D01*
X70280952Y2047620D01*
X70280952Y2238096D01*
X70328571Y2333334D01*
X70376190Y2380953D01*
X70471428Y2428572D01*
X70661904Y2428572D01*
X70757142Y2380953D01*
X70804761Y2333334D01*
X70852380Y2238096D01*
X70852380Y2047620D01*
X70804761Y1952381D01*
X70757142Y1904762D01*
X70661904Y1857143D01*
X70471428Y1857143D01*
X70376190Y1904762D01*
X70328571Y1952381D01*
X70280952Y2047620D01*
X69852380Y1523810D02*
X70852380Y1285715D01*
X70138095Y1095239D01*
X70852380Y904762D01*
X69852380Y666667D01*
X74952380Y5214286D02*
X73952380Y5214286D01*
X73952380Y4976191D01*
X74000000Y4833334D01*
X74095238Y4738096D01*
X74190476Y4690477D01*
X74380952Y4642858D01*
X74523809Y4642858D01*
X74714285Y4690477D01*
X74809523Y4738096D01*
X74904761Y4833334D01*
X74952380Y4976191D01*
X74952380Y5214286D01*
X74952380Y3690477D02*
X74952380Y4261905D01*
X74952380Y3976191D02*
X73952380Y3976191D01*
X74095238Y4071429D01*
X74190476Y4166667D01*
X74238095Y4261905D01*
X73952380Y2785715D02*
X73952380Y3261905D01*
X74428571Y3309524D01*
X74380952Y3261905D01*
X74333333Y3166667D01*
X74333333Y2928572D01*
X74380952Y2833334D01*
X74428571Y2785715D01*
X74523809Y2738096D01*
X74761904Y2738096D01*
X74857142Y2785715D01*
X74904761Y2833334D01*
X74952380Y2928572D01*
X74952380Y3166667D01*
X74904761Y3261905D01*
X74857142Y3309524D01*
X42852380Y6214286D02*
X42852380Y6785715D01*
X42852380Y6500000D02*
X41852380Y6500000D01*
X41995238Y6595239D01*
X42090476Y6690477D01*
X42138095Y6785715D01*
X42852380Y5785715D02*
X41852380Y5785715D01*
X42852380Y5214286D01*
X41852380Y5214286D01*
X42185714Y4309524D02*
X42852380Y4309524D01*
X41804761Y4547620D02*
X42519047Y4785715D01*
X42519047Y4166667D01*
X42852380Y3261905D02*
X42852380Y3833334D01*
X42852380Y3547620D02*
X41852380Y3547620D01*
X41995238Y3642858D01*
X42090476Y3738096D01*
X42138095Y3833334D01*
X42185714Y2404762D02*
X42852380Y2404762D01*
X41804761Y2642858D02*
X42519047Y2880953D01*
X42519047Y2261905D01*
X42280952Y1738096D02*
X42233333Y1833334D01*
X42185714Y1880953D01*
X42090476Y1928572D01*
X42042857Y1928572D01*
X41947619Y1880953D01*
X41900000Y1833334D01*
X41852380Y1738096D01*
X41852380Y1547620D01*
X41900000Y1452381D01*
X41947619Y1404762D01*
X42042857Y1357143D01*
X42090476Y1357143D01*
X42185714Y1404762D01*
X42233333Y1452381D01*
X42280952Y1547620D01*
X42280952Y1738096D01*
X42328571Y1833334D01*
X42376190Y1880953D01*
X42471428Y1928572D01*
X42661904Y1928572D01*
X42757142Y1880953D01*
X42804761Y1833334D01*
X42852380Y1738096D01*
X42852380Y1547620D01*
X42804761Y1452381D01*
X42757142Y1404762D01*
X42661904Y1357143D01*
X42471428Y1357143D01*
X42376190Y1404762D01*
X42328571Y1452381D01*
X42280952Y1547620D01*
X41852380Y1023810D02*
X42852380Y785715D01*
X42138095Y595239D01*
X42852380Y404762D01*
X41852380Y166667D01*
X46952380Y4714286D02*
X45952380Y4714286D01*
X45952380Y4476191D01*
X46000000Y4333334D01*
X46095238Y4238096D01*
X46190476Y4190477D01*
X46380952Y4142858D01*
X46523809Y4142858D01*
X46714285Y4190477D01*
X46809523Y4238096D01*
X46904761Y4333334D01*
X46952380Y4476191D01*
X46952380Y4714286D01*
X46952380Y3190477D02*
X46952380Y3761905D01*
X46952380Y3476191D02*
X45952380Y3476191D01*
X46095238Y3571429D01*
X46190476Y3666667D01*
X46238095Y3761905D01*
X46285714Y2333334D02*
X46952380Y2333334D01*
X45904761Y2571429D02*
X46619047Y2809524D01*
X46619047Y2190477D01*
X20852380Y6714286D02*
X20852380Y7285715D01*
X20852380Y7000000D02*
X19852380Y7000000D01*
X19995238Y7095239D01*
X20090476Y7190477D01*
X20138095Y7285715D01*
X20852380Y6285715D02*
X19852380Y6285715D01*
X20852380Y5714286D01*
X19852380Y5714286D01*
X20185714Y4809524D02*
X20852380Y4809524D01*
X19804761Y5047620D02*
X20519047Y5285715D01*
X20519047Y4666667D01*
X20852380Y3761905D02*
X20852380Y4333334D01*
X20852380Y4047620D02*
X19852380Y4047620D01*
X19995238Y4142858D01*
X20090476Y4238096D01*
X20138095Y4333334D01*
X20185714Y2904762D02*
X20852380Y2904762D01*
X19804761Y3142858D02*
X20519047Y3380953D01*
X20519047Y2761905D01*
X20280952Y2238096D02*
X20233333Y2333334D01*
X20185714Y2380953D01*
X20090476Y2428572D01*
X20042857Y2428572D01*
X19947619Y2380953D01*
X19900000Y2333334D01*
X19852380Y2238096D01*
X19852380Y2047620D01*
X19900000Y1952381D01*
X19947619Y1904762D01*
X20042857Y1857143D01*
X20090476Y1857143D01*
X20185714Y1904762D01*
X20233333Y1952381D01*
X20280952Y2047620D01*
X20280952Y2238096D01*
X20328571Y2333334D01*
X20376190Y2380953D01*
X20471428Y2428572D01*
X20661904Y2428572D01*
X20757142Y2380953D01*
X20804761Y2333334D01*
X20852380Y2238096D01*
X20852380Y2047620D01*
X20804761Y1952381D01*
X20757142Y1904762D01*
X20661904Y1857143D01*
X20471428Y1857143D01*
X20376190Y1904762D01*
X20328571Y1952381D01*
X20280952Y2047620D01*
X19852380Y1523810D02*
X20852380Y1285715D01*
X20138095Y1095239D01*
X20852380Y904762D01*
X19852380Y666667D01*
X24952380Y5214286D02*
X23952380Y5214286D01*
X23952380Y4976191D01*
X24000000Y4833334D01*
X24095238Y4738096D01*
X24190476Y4690477D01*
X24380952Y4642858D01*
X24523809Y4642858D01*
X24714285Y4690477D01*
X24809523Y4738096D01*
X24904761Y4833334D01*
X24952380Y4976191D01*
X24952380Y5214286D01*
X24952380Y3690477D02*
X24952380Y4261905D01*
X24952380Y3976191D02*
X23952380Y3976191D01*
X24095238Y4071429D01*
X24190476Y4166667D01*
X24238095Y4261905D01*
X23952380Y3357143D02*
X23952380Y2738096D01*
X24333333Y3071429D01*
X24333333Y2928572D01*
X24380952Y2833334D01*
X24428571Y2785715D01*
X24523809Y2738096D01*
X24761904Y2738096D01*
X24857142Y2785715D01*
X24904761Y2833334D01*
X24952380Y2928572D01*
X24952380Y3214286D01*
X24904761Y3309524D01*
X24857142Y3357143D01*
X92852380Y29714286D02*
X92852380Y30285715D01*
X92852380Y30000000D02*
X91852380Y30000000D01*
X91995238Y30095239D01*
X92090476Y30190477D01*
X92138095Y30285715D01*
X92852380Y29285715D02*
X91852380Y29285715D01*
X92852380Y28714286D01*
X91852380Y28714286D01*
X92185714Y27809524D02*
X92852380Y27809524D01*
X91804761Y28047620D02*
X92519047Y28285715D01*
X92519047Y27666667D01*
X92852380Y26761905D02*
X92852380Y27333334D01*
X92852380Y27047620D02*
X91852380Y27047620D01*
X91995238Y27142858D01*
X92090476Y27238096D01*
X92138095Y27333334D01*
X92185714Y25904762D02*
X92852380Y25904762D01*
X91804761Y26142858D02*
X92519047Y26380953D01*
X92519047Y25761905D01*
X92280952Y25238096D02*
X92233333Y25333334D01*
X92185714Y25380953D01*
X92090476Y25428572D01*
X92042857Y25428572D01*
X91947619Y25380953D01*
X91900000Y25333334D01*
X91852380Y25238096D01*
X91852380Y25047620D01*
X91900000Y24952381D01*
X91947619Y24904762D01*
X92042857Y24857143D01*
X92090476Y24857143D01*
X92185714Y24904762D01*
X92233333Y24952381D01*
X92280952Y25047620D01*
X92280952Y25238096D01*
X92328571Y25333334D01*
X92376190Y25380953D01*
X92471428Y25428572D01*
X92661904Y25428572D01*
X92757142Y25380953D01*
X92804761Y25333334D01*
X92852380Y25238096D01*
X92852380Y25047620D01*
X92804761Y24952381D01*
X92757142Y24904762D01*
X92661904Y24857143D01*
X92471428Y24857143D01*
X92376190Y24904762D01*
X92328571Y24952381D01*
X92280952Y25047620D01*
X91852380Y24523810D02*
X92852380Y24285715D01*
X92138095Y24095239D01*
X92852380Y23904762D01*
X91852380Y23666667D01*
X96952380Y28214286D02*
X95952380Y28214286D01*
X95952380Y27976191D01*
X96000000Y27833334D01*
X96095238Y27738096D01*
X96190476Y27690477D01*
X96380952Y27642858D01*
X96523809Y27642858D01*
X96714285Y27690477D01*
X96809523Y27738096D01*
X96904761Y27833334D01*
X96952380Y27976191D01*
X96952380Y28214286D01*
X96952380Y26690477D02*
X96952380Y27261905D01*
X96952380Y26976191D02*
X95952380Y26976191D01*
X96095238Y27071429D01*
X96190476Y27166667D01*
X96238095Y27261905D01*
X96047619Y26309524D02*
X96000000Y26261905D01*
X95952380Y26166667D01*
X95952380Y25928572D01*
X96000000Y25833334D01*
X96047619Y25785715D01*
X96142857Y25738096D01*
X96238095Y25738096D01*
X96380952Y25785715D01*
X96952380Y26357143D01*
X96952380Y25738096D01*
X70852380Y31214286D02*
X70852380Y31785715D01*
X70852380Y31500000D02*
X69852380Y31500000D01*
X69995238Y31595239D01*
X70090476Y31690477D01*
X70138095Y31785715D01*
X70852380Y30785715D02*
X69852380Y30785715D01*
X70852380Y30214286D01*
X69852380Y30214286D01*
X70185714Y29309524D02*
X70852380Y29309524D01*
X69804761Y29547620D02*
X70519047Y29785715D01*
X70519047Y29166667D01*
X70852380Y28261905D02*
X70852380Y28833334D01*
X70852380Y28547620D02*
X69852380Y28547620D01*
X69995238Y28642858D01*
X70090476Y28738096D01*
X70138095Y28833334D01*
X70185714Y27404762D02*
X70852380Y27404762D01*
X69804761Y27642858D02*
X70519047Y27880953D01*
X70519047Y27261905D01*
X70280952Y26738096D02*
X70233333Y26833334D01*
X70185714Y26880953D01*
X70090476Y26928572D01*
X70042857Y26928572D01*
X69947619Y26880953D01*
X69900000Y26833334D01*
X69852380Y26738096D01*
X69852380Y26547620D01*
X69900000Y26452381D01*
X69947619Y26404762D01*
X70042857Y26357143D01*
X70090476Y26357143D01*
X70185714Y26404762D01*
X70233333Y26452381D01*
X70280952Y26547620D01*
X70280952Y26738096D01*
X70328571Y26833334D01*
X70376190Y26880953D01*
X70471428Y26928572D01*
X70661904Y26928572D01*
X70757142Y26880953D01*
X70804761Y26833334D01*
X70852380Y26738096D01*
X70852380Y26547620D01*
X70804761Y26452381D01*
X70757142Y26404762D01*
X70661904Y26357143D01*
X70471428Y26357143D01*
X70376190Y26404762D01*
X70328571Y26452381D01*
X70280952Y26547620D01*
X69852380Y26023810D02*
X70852380Y25785715D01*
X70138095Y25595239D01*
X70852380Y25404762D01*
X69852380Y25166667D01*
X74952380Y29714286D02*
X73952380Y29714286D01*
X73952380Y29476191D01*
X74000000Y29333334D01*
X74095238Y29238096D01*
X74190476Y29190477D01*
X74380952Y29142858D01*
X74523809Y29142858D01*
X74714285Y29190477D01*
X74809523Y29238096D01*
X74904761Y29333334D01*
X74952380Y29476191D01*
X74952380Y29714286D01*
X74952380Y28190477D02*
X74952380Y28761905D01*
X74952380Y28476191D02*
X73952380Y28476191D01*
X74095238Y28571429D01*
X74190476Y28666667D01*
X74238095Y28761905D01*
X74952380Y27238096D02*
X74952380Y27809524D01*
X74952380Y27523810D02*
X73952380Y27523810D01*
X74095238Y27619048D01*
X74190476Y27714286D01*
X74238095Y27809524D01*
X43352380Y31214286D02*
X43352380Y31785715D01*
X43352380Y31500000D02*
X42352380Y31500000D01*
X42495238Y31595239D01*
X42590476Y31690477D01*
X42638095Y31785715D01*
X43352380Y30785715D02*
X42352380Y30785715D01*
X43352380Y30214286D01*
X42352380Y30214286D01*
X42685714Y29309524D02*
X43352380Y29309524D01*
X42304761Y29547620D02*
X43019047Y29785715D01*
X43019047Y29166667D01*
X43352380Y28261905D02*
X43352380Y28833334D01*
X43352380Y28547620D02*
X42352380Y28547620D01*
X42495238Y28642858D01*
X42590476Y28738096D01*
X42638095Y28833334D01*
X42685714Y27404762D02*
X43352380Y27404762D01*
X42304761Y27642858D02*
X43019047Y27880953D01*
X43019047Y27261905D01*
X42780952Y26738096D02*
X42733333Y26833334D01*
X42685714Y26880953D01*
X42590476Y26928572D01*
X42542857Y26928572D01*
X42447619Y26880953D01*
X42400000Y26833334D01*
X42352380Y26738096D01*
X42352380Y26547620D01*
X42400000Y26452381D01*
X42447619Y26404762D01*
X42542857Y26357143D01*
X42590476Y26357143D01*
X42685714Y26404762D01*
X42733333Y26452381D01*
X42780952Y26547620D01*
X42780952Y26738096D01*
X42828571Y26833334D01*
X42876190Y26880953D01*
X42971428Y26928572D01*
X43161904Y26928572D01*
X43257142Y26880953D01*
X43304761Y26833334D01*
X43352380Y26738096D01*
X43352380Y26547620D01*
X43304761Y26452381D01*
X43257142Y26404762D01*
X43161904Y26357143D01*
X42971428Y26357143D01*
X42876190Y26404762D01*
X42828571Y26452381D01*
X42780952Y26547620D01*
X42352380Y26023810D02*
X43352380Y25785715D01*
X42638095Y25595239D01*
X43352380Y25404762D01*
X42352380Y25166667D01*
X47452380Y29714286D02*
X46452380Y29714286D01*
X46452380Y29476191D01*
X46500000Y29333334D01*
X46595238Y29238096D01*
X46690476Y29190477D01*
X46880952Y29142858D01*
X47023809Y29142858D01*
X47214285Y29190477D01*
X47309523Y29238096D01*
X47404761Y29333334D01*
X47452380Y29476191D01*
X47452380Y29714286D01*
X47452380Y28190477D02*
X47452380Y28761905D01*
X47452380Y28476191D02*
X46452380Y28476191D01*
X46595238Y28571429D01*
X46690476Y28666667D01*
X46738095Y28761905D01*
X46452380Y27571429D02*
X46452380Y27476191D01*
X46500000Y27380953D01*
X46547619Y27333334D01*
X46642857Y27285715D01*
X46833333Y27238096D01*
X47071428Y27238096D01*
X47261904Y27285715D01*
X47357142Y27333334D01*
X47404761Y27380953D01*
X47452380Y27476191D01*
X47452380Y27571429D01*
X47404761Y27666667D01*
X47357142Y27714286D01*
X47261904Y27761905D01*
X47071428Y27809524D01*
X46833333Y27809524D01*
X46642857Y27761905D01*
X46547619Y27714286D01*
X46500000Y27666667D01*
X46452380Y27571429D01*
X20852380Y31214286D02*
X20852380Y31785715D01*
X20852380Y31500000D02*
X19852380Y31500000D01*
X19995238Y31595239D01*
X20090476Y31690477D01*
X20138095Y31785715D01*
X20852380Y30785715D02*
X19852380Y30785715D01*
X20852380Y30214286D01*
X19852380Y30214286D01*
X20185714Y29309524D02*
X20852380Y29309524D01*
X19804761Y29547620D02*
X20519047Y29785715D01*
X20519047Y29166667D01*
X20852380Y28261905D02*
X20852380Y28833334D01*
X20852380Y28547620D02*
X19852380Y28547620D01*
X19995238Y28642858D01*
X20090476Y28738096D01*
X20138095Y28833334D01*
X20185714Y27404762D02*
X20852380Y27404762D01*
X19804761Y27642858D02*
X20519047Y27880953D01*
X20519047Y27261905D01*
X20280952Y26738096D02*
X20233333Y26833334D01*
X20185714Y26880953D01*
X20090476Y26928572D01*
X20042857Y26928572D01*
X19947619Y26880953D01*
X19900000Y26833334D01*
X19852380Y26738096D01*
X19852380Y26547620D01*
X19900000Y26452381D01*
X19947619Y26404762D01*
X20042857Y26357143D01*
X20090476Y26357143D01*
X20185714Y26404762D01*
X20233333Y26452381D01*
X20280952Y26547620D01*
X20280952Y26738096D01*
X20328571Y26833334D01*
X20376190Y26880953D01*
X20471428Y26928572D01*
X20661904Y26928572D01*
X20757142Y26880953D01*
X20804761Y26833334D01*
X20852380Y26738096D01*
X20852380Y26547620D01*
X20804761Y26452381D01*
X20757142Y26404762D01*
X20661904Y26357143D01*
X20471428Y26357143D01*
X20376190Y26404762D01*
X20328571Y26452381D01*
X20280952Y26547620D01*
X19852380Y26023810D02*
X20852380Y25785715D01*
X20138095Y25595239D01*
X20852380Y25404762D01*
X19852380Y25166667D01*
X24952380Y29238096D02*
X23952380Y29238096D01*
X23952380Y29000000D01*
X24000000Y28857143D01*
X24095238Y28761905D01*
X24190476Y28714286D01*
X24380952Y28666667D01*
X24523809Y28666667D01*
X24714285Y28714286D01*
X24809523Y28761905D01*
X24904761Y28857143D01*
X24952380Y29000000D01*
X24952380Y29238096D01*
X24952380Y28190477D02*
X24952380Y28000000D01*
X24904761Y27904762D01*
X24857142Y27857143D01*
X24714285Y27761905D01*
X24523809Y27714286D01*
X24142857Y27714286D01*
X24047619Y27761905D01*
X24000000Y27809524D01*
X23952380Y27904762D01*
X23952380Y28095239D01*
X24000000Y28190477D01*
X24047619Y28238096D01*
X24142857Y28285715D01*
X24380952Y28285715D01*
X24476190Y28238096D01*
X24523809Y28190477D01*
X24571428Y28095239D01*
X24571428Y27904762D01*
X24523809Y27809524D01*
X24476190Y27761905D01*
X24380952Y27714286D01*
X92852380Y55714286D02*
X92852380Y56285715D01*
X92852380Y56000000D02*
X91852380Y56000000D01*
X91995238Y56095239D01*
X92090476Y56190477D01*
X92138095Y56285715D01*
X92852380Y55285715D02*
X91852380Y55285715D01*
X92852380Y54714286D01*
X91852380Y54714286D01*
X92185714Y53809524D02*
X92852380Y53809524D01*
X91804761Y54047620D02*
X92519047Y54285715D01*
X92519047Y53666667D01*
X92852380Y52761905D02*
X92852380Y53333334D01*
X92852380Y53047620D02*
X91852380Y53047620D01*
X91995238Y53142858D01*
X92090476Y53238096D01*
X92138095Y53333334D01*
X92185714Y51904762D02*
X92852380Y51904762D01*
X91804761Y52142858D02*
X92519047Y52380953D01*
X92519047Y51761905D01*
X92280952Y51238096D02*
X92233333Y51333334D01*
X92185714Y51380953D01*
X92090476Y51428572D01*
X92042857Y51428572D01*
X91947619Y51380953D01*
X91900000Y51333334D01*
X91852380Y51238096D01*
X91852380Y51047620D01*
X91900000Y50952381D01*
X91947619Y50904762D01*
X92042857Y50857143D01*
X92090476Y50857143D01*
X92185714Y50904762D01*
X92233333Y50952381D01*
X92280952Y51047620D01*
X92280952Y51238096D01*
X92328571Y51333334D01*
X92376190Y51380953D01*
X92471428Y51428572D01*
X92661904Y51428572D01*
X92757142Y51380953D01*
X92804761Y51333334D01*
X92852380Y51238096D01*
X92852380Y51047620D01*
X92804761Y50952381D01*
X92757142Y50904762D01*
X92661904Y50857143D01*
X92471428Y50857143D01*
X92376190Y50904762D01*
X92328571Y50952381D01*
X92280952Y51047620D01*
X91852380Y50523810D02*
X92852380Y50285715D01*
X92138095Y50095239D01*
X92852380Y49904762D01*
X91852380Y49666667D01*
X96952380Y53738096D02*
X95952380Y53738096D01*
X95952380Y53500000D01*
X96000000Y53357143D01*
X96095238Y53261905D01*
X96190476Y53214286D01*
X96380952Y53166667D01*
X96523809Y53166667D01*
X96714285Y53214286D01*
X96809523Y53261905D01*
X96904761Y53357143D01*
X96952380Y53500000D01*
X96952380Y53738096D01*
X96380952Y52595239D02*
X96333333Y52690477D01*
X96285714Y52738096D01*
X96190476Y52785715D01*
X96142857Y52785715D01*
X96047619Y52738096D01*
X96000000Y52690477D01*
X95952380Y52595239D01*
X95952380Y52404762D01*
X96000000Y52309524D01*
X96047619Y52261905D01*
X96142857Y52214286D01*
X96190476Y52214286D01*
X96285714Y52261905D01*
X96333333Y52309524D01*
X96380952Y52404762D01*
X96380952Y52595239D01*
X96428571Y52690477D01*
X96476190Y52738096D01*
X96571428Y52785715D01*
X96761904Y52785715D01*
X96857142Y52738096D01*
X96904761Y52690477D01*
X96952380Y52595239D01*
X96952380Y52404762D01*
X96904761Y52309524D01*
X96857142Y52261905D01*
X96761904Y52214286D01*
X96571428Y52214286D01*
X96476190Y52261905D01*
X96428571Y52309524D01*
X96380952Y52404762D01*
X70852380Y56214286D02*
X70852380Y56785715D01*
X70852380Y56500000D02*
X69852380Y56500000D01*
X69995238Y56595239D01*
X70090476Y56690477D01*
X70138095Y56785715D01*
X70852380Y55785715D02*
X69852380Y55785715D01*
X70852380Y55214286D01*
X69852380Y55214286D01*
X70185714Y54309524D02*
X70852380Y54309524D01*
X69804761Y54547620D02*
X70519047Y54785715D01*
X70519047Y54166667D01*
X70852380Y53261905D02*
X70852380Y53833334D01*
X70852380Y53547620D02*
X69852380Y53547620D01*
X69995238Y53642858D01*
X70090476Y53738096D01*
X70138095Y53833334D01*
X70185714Y52404762D02*
X70852380Y52404762D01*
X69804761Y52642858D02*
X70519047Y52880953D01*
X70519047Y52261905D01*
X70280952Y51738096D02*
X70233333Y51833334D01*
X70185714Y51880953D01*
X70090476Y51928572D01*
X70042857Y51928572D01*
X69947619Y51880953D01*
X69900000Y51833334D01*
X69852380Y51738096D01*
X69852380Y51547620D01*
X69900000Y51452381D01*
X69947619Y51404762D01*
X70042857Y51357143D01*
X70090476Y51357143D01*
X70185714Y51404762D01*
X70233333Y51452381D01*
X70280952Y51547620D01*
X70280952Y51738096D01*
X70328571Y51833334D01*
X70376190Y51880953D01*
X70471428Y51928572D01*
X70661904Y51928572D01*
X70757142Y51880953D01*
X70804761Y51833334D01*
X70852380Y51738096D01*
X70852380Y51547620D01*
X70804761Y51452381D01*
X70757142Y51404762D01*
X70661904Y51357143D01*
X70471428Y51357143D01*
X70376190Y51404762D01*
X70328571Y51452381D01*
X70280952Y51547620D01*
X69852380Y51023810D02*
X70852380Y50785715D01*
X70138095Y50595239D01*
X70852380Y50404762D01*
X69852380Y50166667D01*
X74952380Y54238096D02*
X73952380Y54238096D01*
X73952380Y54000000D01*
X74000000Y53857143D01*
X74095238Y53761905D01*
X74190476Y53714286D01*
X74380952Y53666667D01*
X74523809Y53666667D01*
X74714285Y53714286D01*
X74809523Y53761905D01*
X74904761Y53857143D01*
X74952380Y54000000D01*
X74952380Y54238096D01*
X73952380Y53333334D02*
X73952380Y52666667D01*
X74952380Y53095239D01*
X43352380Y56714286D02*
X43352380Y57285715D01*
X43352380Y57000000D02*
X42352380Y57000000D01*
X42495238Y57095239D01*
X42590476Y57190477D01*
X42638095Y57285715D01*
X43352380Y56285715D02*
X42352380Y56285715D01*
X43352380Y55714286D01*
X42352380Y55714286D01*
X42685714Y54809524D02*
X43352380Y54809524D01*
X42304761Y55047620D02*
X43019047Y55285715D01*
X43019047Y54666667D01*
X43352380Y53761905D02*
X43352380Y54333334D01*
X43352380Y54047620D02*
X42352380Y54047620D01*
X42495238Y54142858D01*
X42590476Y54238096D01*
X42638095Y54333334D01*
X42685714Y52904762D02*
X43352380Y52904762D01*
X42304761Y53142858D02*
X43019047Y53380953D01*
X43019047Y52761905D01*
X42780952Y52238096D02*
X42733333Y52333334D01*
X42685714Y52380953D01*
X42590476Y52428572D01*
X42542857Y52428572D01*
X42447619Y52380953D01*
X42400000Y52333334D01*
X42352380Y52238096D01*
X42352380Y52047620D01*
X42400000Y51952381D01*
X42447619Y51904762D01*
X42542857Y51857143D01*
X42590476Y51857143D01*
X42685714Y51904762D01*
X42733333Y51952381D01*
X42780952Y52047620D01*
X42780952Y52238096D01*
X42828571Y52333334D01*
X42876190Y52380953D01*
X42971428Y52428572D01*
X43161904Y52428572D01*
X43257142Y52380953D01*
X43304761Y52333334D01*
X43352380Y52238096D01*
X43352380Y52047620D01*
X43304761Y51952381D01*
X43257142Y51904762D01*
X43161904Y51857143D01*
X42971428Y51857143D01*
X42876190Y51904762D01*
X42828571Y51952381D01*
X42780952Y52047620D01*
X42352380Y51523810D02*
X43352380Y51285715D01*
X42638095Y51095239D01*
X43352380Y50904762D01*
X42352380Y50666667D01*
X47452380Y54738096D02*
X46452380Y54738096D01*
X46452380Y54500000D01*
X46500000Y54357143D01*
X46595238Y54261905D01*
X46690476Y54214286D01*
X46880952Y54166667D01*
X47023809Y54166667D01*
X47214285Y54214286D01*
X47309523Y54261905D01*
X47404761Y54357143D01*
X47452380Y54500000D01*
X47452380Y54738096D01*
X46452380Y53309524D02*
X46452380Y53500000D01*
X46500000Y53595239D01*
X46547619Y53642858D01*
X46690476Y53738096D01*
X46880952Y53785715D01*
X47261904Y53785715D01*
X47357142Y53738096D01*
X47404761Y53690477D01*
X47452380Y53595239D01*
X47452380Y53404762D01*
X47404761Y53309524D01*
X47357142Y53261905D01*
X47261904Y53214286D01*
X47023809Y53214286D01*
X46928571Y53261905D01*
X46880952Y53309524D01*
X46833333Y53404762D01*
X46833333Y53595239D01*
X46880952Y53690477D01*
X46928571Y53738096D01*
X47023809Y53785715D01*
X20852380Y56214286D02*
X20852380Y56785715D01*
X20852380Y56500000D02*
X19852380Y56500000D01*
X19995238Y56595239D01*
X20090476Y56690477D01*
X20138095Y56785715D01*
X20852380Y55785715D02*
X19852380Y55785715D01*
X20852380Y55214286D01*
X19852380Y55214286D01*
X20185714Y54309524D02*
X20852380Y54309524D01*
X19804761Y54547620D02*
X20519047Y54785715D01*
X20519047Y54166667D01*
X20852380Y53261905D02*
X20852380Y53833334D01*
X20852380Y53547620D02*
X19852380Y53547620D01*
X19995238Y53642858D01*
X20090476Y53738096D01*
X20138095Y53833334D01*
X20185714Y52404762D02*
X20852380Y52404762D01*
X19804761Y52642858D02*
X20519047Y52880953D01*
X20519047Y52261905D01*
X20280952Y51738096D02*
X20233333Y51833334D01*
X20185714Y51880953D01*
X20090476Y51928572D01*
X20042857Y51928572D01*
X19947619Y51880953D01*
X19900000Y51833334D01*
X19852380Y51738096D01*
X19852380Y51547620D01*
X19900000Y51452381D01*
X19947619Y51404762D01*
X20042857Y51357143D01*
X20090476Y51357143D01*
X20185714Y51404762D01*
X20233333Y51452381D01*
X20280952Y51547620D01*
X20280952Y51738096D01*
X20328571Y51833334D01*
X20376190Y51880953D01*
X20471428Y51928572D01*
X20661904Y51928572D01*
X20757142Y51880953D01*
X20804761Y51833334D01*
X20852380Y51738096D01*
X20852380Y51547620D01*
X20804761Y51452381D01*
X20757142Y51404762D01*
X20661904Y51357143D01*
X20471428Y51357143D01*
X20376190Y51404762D01*
X20328571Y51452381D01*
X20280952Y51547620D01*
X19852380Y51023810D02*
X20852380Y50785715D01*
X20138095Y50595239D01*
X20852380Y50404762D01*
X19852380Y50166667D01*
X24952380Y54238096D02*
X23952380Y54238096D01*
X23952380Y54000000D01*
X24000000Y53857143D01*
X24095238Y53761905D01*
X24190476Y53714286D01*
X24380952Y53666667D01*
X24523809Y53666667D01*
X24714285Y53714286D01*
X24809523Y53761905D01*
X24904761Y53857143D01*
X24952380Y54000000D01*
X24952380Y54238096D01*
X23952380Y52761905D02*
X23952380Y53238096D01*
X24428571Y53285715D01*
X24380952Y53238096D01*
X24333333Y53142858D01*
X24333333Y52904762D01*
X24380952Y52809524D01*
X24428571Y52761905D01*
X24523809Y52714286D01*
X24761904Y52714286D01*
X24857142Y52761905D01*
X24904761Y52809524D01*
X24952380Y52904762D01*
X24952380Y53142858D01*
X24904761Y53238096D01*
X24857142Y53285715D01*
X94852380Y81214286D02*
X94852380Y81785715D01*
X94852380Y81500000D02*
X93852380Y81500000D01*
X93995238Y81595239D01*
X94090476Y81690477D01*
X94138095Y81785715D01*
X94852380Y80785715D02*
X93852380Y80785715D01*
X94852380Y80214286D01*
X93852380Y80214286D01*
X94185714Y79309524D02*
X94852380Y79309524D01*
X93804761Y79547620D02*
X94519047Y79785715D01*
X94519047Y79166667D01*
X94852380Y78261905D02*
X94852380Y78833334D01*
X94852380Y78547620D02*
X93852380Y78547620D01*
X93995238Y78642858D01*
X94090476Y78738096D01*
X94138095Y78833334D01*
X94185714Y77404762D02*
X94852380Y77404762D01*
X93804761Y77642858D02*
X94519047Y77880953D01*
X94519047Y77261905D01*
X94280952Y76738096D02*
X94233333Y76833334D01*
X94185714Y76880953D01*
X94090476Y76928572D01*
X94042857Y76928572D01*
X93947619Y76880953D01*
X93900000Y76833334D01*
X93852380Y76738096D01*
X93852380Y76547620D01*
X93900000Y76452381D01*
X93947619Y76404762D01*
X94042857Y76357143D01*
X94090476Y76357143D01*
X94185714Y76404762D01*
X94233333Y76452381D01*
X94280952Y76547620D01*
X94280952Y76738096D01*
X94328571Y76833334D01*
X94376190Y76880953D01*
X94471428Y76928572D01*
X94661904Y76928572D01*
X94757142Y76880953D01*
X94804761Y76833334D01*
X94852380Y76738096D01*
X94852380Y76547620D01*
X94804761Y76452381D01*
X94757142Y76404762D01*
X94661904Y76357143D01*
X94471428Y76357143D01*
X94376190Y76404762D01*
X94328571Y76452381D01*
X94280952Y76547620D01*
X93852380Y76023810D02*
X94852380Y75785715D01*
X94138095Y75595239D01*
X94852380Y75404762D01*
X93852380Y75166667D01*
X98952380Y79238096D02*
X97952380Y79238096D01*
X97952380Y79000000D01*
X98000000Y78857143D01*
X98095238Y78761905D01*
X98190476Y78714286D01*
X98380952Y78666667D01*
X98523809Y78666667D01*
X98714285Y78714286D01*
X98809523Y78761905D01*
X98904761Y78857143D01*
X98952380Y79000000D01*
X98952380Y79238096D01*
X98285714Y77809524D02*
X98952380Y77809524D01*
X97904761Y78047620D02*
X98619047Y78285715D01*
X98619047Y77666667D01*
X70852380Y81214286D02*
X70852380Y81785715D01*
X70852380Y81500000D02*
X69852380Y81500000D01*
X69995238Y81595239D01*
X70090476Y81690477D01*
X70138095Y81785715D01*
X70852380Y80785715D02*
X69852380Y80785715D01*
X70852380Y80214286D01*
X69852380Y80214286D01*
X70185714Y79309524D02*
X70852380Y79309524D01*
X69804761Y79547620D02*
X70519047Y79785715D01*
X70519047Y79166667D01*
X70852380Y78261905D02*
X70852380Y78833334D01*
X70852380Y78547620D02*
X69852380Y78547620D01*
X69995238Y78642858D01*
X70090476Y78738096D01*
X70138095Y78833334D01*
X70185714Y77404762D02*
X70852380Y77404762D01*
X69804761Y77642858D02*
X70519047Y77880953D01*
X70519047Y77261905D01*
X70280952Y76738096D02*
X70233333Y76833334D01*
X70185714Y76880953D01*
X70090476Y76928572D01*
X70042857Y76928572D01*
X69947619Y76880953D01*
X69900000Y76833334D01*
X69852380Y76738096D01*
X69852380Y76547620D01*
X69900000Y76452381D01*
X69947619Y76404762D01*
X70042857Y76357143D01*
X70090476Y76357143D01*
X70185714Y76404762D01*
X70233333Y76452381D01*
X70280952Y76547620D01*
X70280952Y76738096D01*
X70328571Y76833334D01*
X70376190Y76880953D01*
X70471428Y76928572D01*
X70661904Y76928572D01*
X70757142Y76880953D01*
X70804761Y76833334D01*
X70852380Y76738096D01*
X70852380Y76547620D01*
X70804761Y76452381D01*
X70757142Y76404762D01*
X70661904Y76357143D01*
X70471428Y76357143D01*
X70376190Y76404762D01*
X70328571Y76452381D01*
X70280952Y76547620D01*
X69852380Y76023810D02*
X70852380Y75785715D01*
X70138095Y75595239D01*
X70852380Y75404762D01*
X69852380Y75166667D01*
X74952380Y79238096D02*
X73952380Y79238096D01*
X73952380Y79000000D01*
X74000000Y78857143D01*
X74095238Y78761905D01*
X74190476Y78714286D01*
X74380952Y78666667D01*
X74523809Y78666667D01*
X74714285Y78714286D01*
X74809523Y78761905D01*
X74904761Y78857143D01*
X74952380Y79000000D01*
X74952380Y79238096D01*
X73952380Y78333334D02*
X73952380Y77714286D01*
X74333333Y78047620D01*
X74333333Y77904762D01*
X74380952Y77809524D01*
X74428571Y77761905D01*
X74523809Y77714286D01*
X74761904Y77714286D01*
X74857142Y77761905D01*
X74904761Y77809524D01*
X74952380Y77904762D01*
X74952380Y78190477D01*
X74904761Y78285715D01*
X74857142Y78333334D01*
X42852380Y81214286D02*
X42852380Y81785715D01*
X42852380Y81500000D02*
X41852380Y81500000D01*
X41995238Y81595239D01*
X42090476Y81690477D01*
X42138095Y81785715D01*
X42852380Y80785715D02*
X41852380Y80785715D01*
X42852380Y80214286D01*
X41852380Y80214286D01*
X42185714Y79309524D02*
X42852380Y79309524D01*
X41804761Y79547620D02*
X42519047Y79785715D01*
X42519047Y79166667D01*
X42852380Y78261905D02*
X42852380Y78833334D01*
X42852380Y78547620D02*
X41852380Y78547620D01*
X41995238Y78642858D01*
X42090476Y78738096D01*
X42138095Y78833334D01*
X42185714Y77404762D02*
X42852380Y77404762D01*
X41804761Y77642858D02*
X42519047Y77880953D01*
X42519047Y77261905D01*
X42280952Y76738096D02*
X42233333Y76833334D01*
X42185714Y76880953D01*
X42090476Y76928572D01*
X42042857Y76928572D01*
X41947619Y76880953D01*
X41900000Y76833334D01*
X41852380Y76738096D01*
X41852380Y76547620D01*
X41900000Y76452381D01*
X41947619Y76404762D01*
X42042857Y76357143D01*
X42090476Y76357143D01*
X42185714Y76404762D01*
X42233333Y76452381D01*
X42280952Y76547620D01*
X42280952Y76738096D01*
X42328571Y76833334D01*
X42376190Y76880953D01*
X42471428Y76928572D01*
X42661904Y76928572D01*
X42757142Y76880953D01*
X42804761Y76833334D01*
X42852380Y76738096D01*
X42852380Y76547620D01*
X42804761Y76452381D01*
X42757142Y76404762D01*
X42661904Y76357143D01*
X42471428Y76357143D01*
X42376190Y76404762D01*
X42328571Y76452381D01*
X42280952Y76547620D01*
X41852380Y76023810D02*
X42852380Y75785715D01*
X42138095Y75595239D01*
X42852380Y75404762D01*
X41852380Y75166667D01*
X46952380Y79238096D02*
X45952380Y79238096D01*
X45952380Y79000000D01*
X46000000Y78857143D01*
X46095238Y78761905D01*
X46190476Y78714286D01*
X46380952Y78666667D01*
X46523809Y78666667D01*
X46714285Y78714286D01*
X46809523Y78761905D01*
X46904761Y78857143D01*
X46952380Y79000000D01*
X46952380Y79238096D01*
X46047619Y78285715D02*
X46000000Y78238096D01*
X45952380Y78142858D01*
X45952380Y77904762D01*
X46000000Y77809524D01*
X46047619Y77761905D01*
X46142857Y77714286D01*
X46238095Y77714286D01*
X46380952Y77761905D01*
X46952380Y78333334D01*
X46952380Y77714286D01*
X20852380Y81214286D02*
X20852380Y81785715D01*
X20852380Y81500000D02*
X19852380Y81500000D01*
X19995238Y81595239D01*
X20090476Y81690477D01*
X20138095Y81785715D01*
X20852380Y80785715D02*
X19852380Y80785715D01*
X20852380Y80214286D01*
X19852380Y80214286D01*
X20185714Y79309524D02*
X20852380Y79309524D01*
X19804761Y79547620D02*
X20519047Y79785715D01*
X20519047Y79166667D01*
X20852380Y78261905D02*
X20852380Y78833334D01*
X20852380Y78547620D02*
X19852380Y78547620D01*
X19995238Y78642858D01*
X20090476Y78738096D01*
X20138095Y78833334D01*
X20185714Y77404762D02*
X20852380Y77404762D01*
X19804761Y77642858D02*
X20519047Y77880953D01*
X20519047Y77261905D01*
X20280952Y76738096D02*
X20233333Y76833334D01*
X20185714Y76880953D01*
X20090476Y76928572D01*
X20042857Y76928572D01*
X19947619Y76880953D01*
X19900000Y76833334D01*
X19852380Y76738096D01*
X19852380Y76547620D01*
X19900000Y76452381D01*
X19947619Y76404762D01*
X20042857Y76357143D01*
X20090476Y76357143D01*
X20185714Y76404762D01*
X20233333Y76452381D01*
X20280952Y76547620D01*
X20280952Y76738096D01*
X20328571Y76833334D01*
X20376190Y76880953D01*
X20471428Y76928572D01*
X20661904Y76928572D01*
X20757142Y76880953D01*
X20804761Y76833334D01*
X20852380Y76738096D01*
X20852380Y76547620D01*
X20804761Y76452381D01*
X20757142Y76404762D01*
X20661904Y76357143D01*
X20471428Y76357143D01*
X20376190Y76404762D01*
X20328571Y76452381D01*
X20280952Y76547620D01*
X19852380Y76023810D02*
X20852380Y75785715D01*
X20138095Y75595239D01*
X20852380Y75404762D01*
X19852380Y75166667D01*
X24952380Y79238096D02*
X23952380Y79238096D01*
X23952380Y79000000D01*
X24000000Y78857143D01*
X24095238Y78761905D01*
X24190476Y78714286D01*
X24380952Y78666667D01*
X24523809Y78666667D01*
X24714285Y78714286D01*
X24809523Y78761905D01*
X24904761Y78857143D01*
X24952380Y79000000D01*
X24952380Y79238096D01*
X24952380Y77714286D02*
X24952380Y78285715D01*
X24952380Y78000000D02*
X23952380Y78000000D01*
X24095238Y78095239D01*
X24190476Y78190477D01*
X24238095Y78285715D01*
X57892857Y114553572D02*
X57642857Y114553572D01*
X57535714Y114160715D02*
X57892857Y114160715D01*
X57892857Y114910715D01*
X57535714Y114910715D01*
X57250000Y114196429D02*
X57142857Y114160715D01*
X56964285Y114160715D01*
X56892857Y114196429D01*
X56857142Y114232143D01*
X56821428Y114303572D01*
X56821428Y114375000D01*
X56857142Y114446429D01*
X56892857Y114482143D01*
X56964285Y114517858D01*
X57107142Y114553572D01*
X57178571Y114589286D01*
X57214285Y114625000D01*
X57250000Y114696429D01*
X57250000Y114767858D01*
X57214285Y114839286D01*
X57178571Y114875000D01*
X57107142Y114910715D01*
X56928571Y114910715D01*
X56821428Y114875000D01*
X56500000Y114160715D02*
X56500000Y114910715D01*
X56214285Y114910715D01*
X56142857Y114875000D01*
X56107142Y114839286D01*
X56071428Y114767858D01*
X56071428Y114660715D01*
X56107142Y114589286D01*
X56142857Y114553572D01*
X56214285Y114517858D01*
X56500000Y114517858D01*
X55821428Y114910715D02*
X55357142Y114910715D01*
X55607142Y114625000D01*
X55500000Y114625000D01*
X55428571Y114589286D01*
X55392857Y114553572D01*
X55357142Y114482143D01*
X55357142Y114303572D01*
X55392857Y114232143D01*
X55428571Y114196429D01*
X55500000Y114160715D01*
X55714285Y114160715D01*
X55785714Y114196429D01*
X55821428Y114232143D01*
X55071428Y114839286D02*
X55035714Y114875000D01*
X54964285Y114910715D01*
X54785714Y114910715D01*
X54714285Y114875000D01*
X54678571Y114839286D01*
X54642857Y114767858D01*
X54642857Y114696429D01*
X54678571Y114589286D01*
X55107142Y114160715D01*
X54642857Y114160715D01*
X54321428Y114446429D02*
X53750000Y114446429D01*
X53464285Y114910715D02*
X53285714Y114160715D01*
X53142857Y114696429D01*
X53000000Y114160715D01*
X52821428Y114910715D01*
X52107142Y114160715D02*
X52357142Y114517858D01*
X52535714Y114160715D02*
X52535714Y114910715D01*
X52250000Y114910715D01*
X52178571Y114875000D01*
X52142857Y114839286D01*
X52107142Y114767858D01*
X52107142Y114660715D01*
X52142857Y114589286D01*
X52178571Y114553572D01*
X52250000Y114517858D01*
X52535714Y114517858D01*
X51642857Y114910715D02*
X51500000Y114910715D01*
X51428571Y114875000D01*
X51357142Y114803572D01*
X51321428Y114660715D01*
X51321428Y114410715D01*
X51357142Y114267858D01*
X51428571Y114196429D01*
X51500000Y114160715D01*
X51642857Y114160715D01*
X51714285Y114196429D01*
X51785714Y114267858D01*
X51821428Y114410715D01*
X51821428Y114660715D01*
X51785714Y114803572D01*
X51714285Y114875000D01*
X51642857Y114910715D01*
X50857142Y114910715D02*
X50714285Y114910715D01*
X50642857Y114875000D01*
X50571428Y114803572D01*
X50535714Y114660715D01*
X50535714Y114410715D01*
X50571428Y114267858D01*
X50642857Y114196429D01*
X50714285Y114160715D01*
X50857142Y114160715D01*
X50928571Y114196429D01*
X51000000Y114267858D01*
X51035714Y114410715D01*
X51035714Y114660715D01*
X51000000Y114803572D01*
X50928571Y114875000D01*
X50857142Y114910715D01*
X50214285Y114160715D02*
X50214285Y114910715D01*
X49964285Y114375000D01*
X49714285Y114910715D01*
X49714285Y114160715D01*
X49357142Y114446429D02*
X48785714Y114446429D01*
X48500000Y114910715D02*
X48035714Y114910715D01*
X48285714Y114625000D01*
X48178571Y114625000D01*
X48107142Y114589286D01*
X48071428Y114553572D01*
X48035714Y114482143D01*
X48035714Y114303572D01*
X48071428Y114232143D01*
X48107142Y114196429D01*
X48178571Y114160715D01*
X48392857Y114160715D01*
X48464285Y114196429D01*
X48500000Y114232143D01*
X47750000Y114839286D02*
X47714285Y114875000D01*
X47642857Y114910715D01*
X47464285Y114910715D01*
X47392857Y114875000D01*
X47357142Y114839286D01*
X47321428Y114767858D01*
X47321428Y114696429D01*
X47357142Y114589286D01*
X47785714Y114160715D01*
X47321428Y114160715D01*
X47000000Y114160715D02*
X47000000Y114910715D01*
X46821428Y114910715D01*
X46714285Y114875000D01*
X46642857Y114803572D01*
X46607142Y114732143D01*
X46571428Y114589286D01*
X46571428Y114482143D01*
X46607142Y114339286D01*
X46642857Y114267858D01*
X46714285Y114196429D01*
X46821428Y114160715D01*
X47000000Y114160715D01*
X52761904Y109547620D02*
X52761904Y108738096D01*
X52714285Y108642858D01*
X52666666Y108595239D01*
X52571428Y108547620D01*
X52380952Y108547620D01*
X52285714Y108595239D01*
X52238095Y108642858D01*
X52190476Y108738096D01*
X52190476Y109547620D01*
X51761904Y109452381D02*
X51714285Y109500000D01*
X51619047Y109547620D01*
X51380952Y109547620D01*
X51285714Y109500000D01*
X51238095Y109452381D01*
X51190476Y109357143D01*
X51190476Y109261905D01*
X51238095Y109119048D01*
X51809523Y108547620D01*
X51190476Y108547620D01*
X23757142Y113642858D02*
X23804761Y113690477D01*
X23852380Y113833334D01*
X23852380Y113928572D01*
X23804761Y114071429D01*
X23709523Y114166667D01*
X23614285Y114214286D01*
X23423809Y114261905D01*
X23280952Y114261905D01*
X23090476Y114214286D01*
X22995238Y114166667D01*
X22900000Y114071429D01*
X22852380Y113928572D01*
X22852380Y113833334D01*
X22900000Y113690477D01*
X22947619Y113642858D01*
X23852380Y113214286D02*
X22852380Y113214286D01*
X23328571Y113214286D02*
X23328571Y112642858D01*
X23852380Y112642858D02*
X22852380Y112642858D01*
X22852380Y112261905D02*
X22852380Y111642858D01*
X23233333Y111976191D01*
X23233333Y111833334D01*
X23280952Y111738096D01*
X23328571Y111690477D01*
X23423809Y111642858D01*
X23661904Y111642858D01*
X23757142Y111690477D01*
X23804761Y111738096D01*
X23852380Y111833334D01*
X23852380Y112119048D01*
X23804761Y112214286D01*
X23757142Y112261905D01*
X23185714Y110785715D02*
X23852380Y110785715D01*
X22804761Y111023810D02*
X23519047Y111261905D01*
X23519047Y110642858D01*
X22852380Y110071429D02*
X22852380Y109976191D01*
X22900000Y109880953D01*
X22947619Y109833334D01*
X23042857Y109785715D01*
X23233333Y109738096D01*
X23471428Y109738096D01*
X23661904Y109785715D01*
X23757142Y109833334D01*
X23804761Y109880953D01*
X23852380Y109976191D01*
X23852380Y110071429D01*
X23804761Y110166667D01*
X23757142Y110214286D01*
X23661904Y110261905D01*
X23471428Y110309524D01*
X23233333Y110309524D01*
X23042857Y110261905D01*
X22947619Y110214286D01*
X22900000Y110166667D01*
X22852380Y110071429D01*
X23757142Y108738096D02*
X23804761Y108785715D01*
X23852380Y108928572D01*
X23852380Y109023810D01*
X23804761Y109166667D01*
X23709523Y109261905D01*
X23614285Y109309524D01*
X23423809Y109357143D01*
X23280952Y109357143D01*
X23090476Y109309524D01*
X22995238Y109261905D01*
X22900000Y109166667D01*
X22852380Y109023810D01*
X22852380Y108928572D01*
X22900000Y108785715D01*
X22947619Y108738096D01*
X16963333Y112246667D02*
X17756666Y112246667D01*
X17850000Y112200000D01*
X17896666Y112153334D01*
X17943333Y112060000D01*
X17943333Y111873334D01*
X17896666Y111780000D01*
X17850000Y111733334D01*
X17756666Y111686667D01*
X16963333Y111686667D01*
X17943333Y110706667D02*
X17943333Y111266667D01*
X17943333Y110986667D02*
X16963333Y110986667D01*
X17103333Y111080000D01*
X17196666Y111173334D01*
X17243333Y111266667D01*
X70952380Y106345239D02*
X70952380Y106916667D01*
X70952380Y106630953D02*
X69952380Y106630953D01*
X70095238Y106726191D01*
X70190476Y106821429D01*
X70238095Y106916667D01*
X69952380Y105726191D02*
X69952380Y105630953D01*
X70000000Y105535715D01*
X70047619Y105488096D01*
X70142857Y105440477D01*
X70333333Y105392858D01*
X70571428Y105392858D01*
X70761904Y105440477D01*
X70857142Y105488096D01*
X70904761Y105535715D01*
X70952380Y105630953D01*
X70952380Y105726191D01*
X70904761Y105821429D01*
X70857142Y105869048D01*
X70761904Y105916667D01*
X70571428Y105964286D01*
X70333333Y105964286D01*
X70142857Y105916667D01*
X70047619Y105869048D01*
X70000000Y105821429D01*
X69952380Y105726191D01*
X70952380Y104964286D02*
X69952380Y104964286D01*
X70571428Y104869048D02*
X70952380Y104583334D01*
X70285714Y104583334D02*
X70666666Y104964286D01*
D13*
X70680952Y108747143D02*
X70490476Y108880477D01*
X70680952Y108975715D02*
X70280952Y108975715D01*
X70280952Y108823334D01*
X70300000Y108785239D01*
X70319047Y108766191D01*
X70357142Y108747143D01*
X70414285Y108747143D01*
X70452380Y108766191D01*
X70471428Y108785239D01*
X70490476Y108823334D01*
X70490476Y108975715D01*
X70680952Y108366191D02*
X70680952Y108594762D01*
X70680952Y108480477D02*
X70280952Y108480477D01*
X70338095Y108518572D01*
X70376190Y108556667D01*
X70395238Y108594762D01*
X70280952Y108232858D02*
X70280952Y107966191D01*
X70680952Y108137620D01*
D12*
X69452380Y106345239D02*
X69452380Y106916667D01*
X69452380Y106630953D02*
X68452380Y106630953D01*
X68595238Y106726191D01*
X68690476Y106821429D01*
X68738095Y106916667D01*
X68452380Y105726191D02*
X68452380Y105630953D01*
X68500000Y105535715D01*
X68547619Y105488096D01*
X68642857Y105440477D01*
X68833333Y105392858D01*
X69071428Y105392858D01*
X69261904Y105440477D01*
X69357142Y105488096D01*
X69404761Y105535715D01*
X69452380Y105630953D01*
X69452380Y105726191D01*
X69404761Y105821429D01*
X69357142Y105869048D01*
X69261904Y105916667D01*
X69071428Y105964286D01*
X68833333Y105964286D01*
X68642857Y105916667D01*
X68547619Y105869048D01*
X68500000Y105821429D01*
X68452380Y105726191D01*
X69452380Y104964286D02*
X68452380Y104964286D01*
X69071428Y104869048D02*
X69452380Y104583334D01*
X68785714Y104583334D02*
X69166666Y104964286D01*
D13*
X69180952Y108747143D02*
X68990476Y108880477D01*
X69180952Y108975715D02*
X68780952Y108975715D01*
X68780952Y108823334D01*
X68800000Y108785239D01*
X68819047Y108766191D01*
X68857142Y108747143D01*
X68914285Y108747143D01*
X68952380Y108766191D01*
X68971428Y108785239D01*
X68990476Y108823334D01*
X68990476Y108975715D01*
X69180952Y108366191D02*
X69180952Y108594762D01*
X69180952Y108480477D02*
X68780952Y108480477D01*
X68838095Y108518572D01*
X68876190Y108556667D01*
X68895238Y108594762D01*
X68914285Y108023334D02*
X69180952Y108023334D01*
X68761904Y108118572D02*
X69047619Y108213810D01*
X69047619Y107966191D01*
D12*
X57095238Y97047620D02*
X57666666Y97047620D01*
X57380952Y97047620D02*
X57380952Y98047620D01*
X57476190Y97904762D01*
X57571428Y97809524D01*
X57666666Y97761905D01*
X56476190Y98047620D02*
X56380952Y98047620D01*
X56285714Y98000000D01*
X56238095Y97952381D01*
X56190476Y97857143D01*
X56142857Y97666667D01*
X56142857Y97428572D01*
X56190476Y97238096D01*
X56238095Y97142858D01*
X56285714Y97095239D01*
X56380952Y97047620D01*
X56476190Y97047620D01*
X56571428Y97095239D01*
X56619047Y97142858D01*
X56666666Y97238096D01*
X56714285Y97428572D01*
X56714285Y97666667D01*
X56666666Y97857143D01*
X56619047Y97952381D01*
X56571428Y98000000D01*
X56476190Y98047620D01*
X55714285Y97047620D02*
X55714285Y98047620D01*
X55619047Y97428572D02*
X55333333Y97047620D01*
X55333333Y97714286D02*
X55714285Y97333334D01*
D13*
X59757142Y97319048D02*
X59890476Y97509524D01*
X59985714Y97319048D02*
X59985714Y97719048D01*
X59833333Y97719048D01*
X59795238Y97700000D01*
X59776190Y97680953D01*
X59757142Y97642858D01*
X59757142Y97585715D01*
X59776190Y97547620D01*
X59795238Y97528572D01*
X59833333Y97509524D01*
X59985714Y97509524D01*
X59376190Y97319048D02*
X59604761Y97319048D01*
X59490476Y97319048D02*
X59490476Y97719048D01*
X59528571Y97661905D01*
X59566666Y97623810D01*
X59604761Y97604762D01*
X59223809Y97680953D02*
X59204761Y97700000D01*
X59166666Y97719048D01*
X59071428Y97719048D01*
X59033333Y97700000D01*
X59014285Y97680953D01*
X58995238Y97642858D01*
X58995238Y97604762D01*
X59014285Y97547620D01*
X59242857Y97319048D01*
X58995238Y97319048D01*
D12*
X45022380Y96095239D02*
X45022380Y96666667D01*
X45022380Y96380953D02*
X44022380Y96380953D01*
X44165238Y96476191D01*
X44260476Y96571429D01*
X44308095Y96666667D01*
X44022380Y95476191D02*
X44022380Y95380953D01*
X44070000Y95285715D01*
X44117619Y95238096D01*
X44212857Y95190477D01*
X44403333Y95142858D01*
X44641428Y95142858D01*
X44831904Y95190477D01*
X44927142Y95238096D01*
X44974761Y95285715D01*
X45022380Y95380953D01*
X45022380Y95476191D01*
X44974761Y95571429D01*
X44927142Y95619048D01*
X44831904Y95666667D01*
X44641428Y95714286D01*
X44403333Y95714286D01*
X44212857Y95666667D01*
X44117619Y95619048D01*
X44070000Y95571429D01*
X44022380Y95476191D01*
X45022380Y94714286D02*
X44022380Y94714286D01*
X44641428Y94619048D02*
X45022380Y94333334D01*
X44355714Y94333334D02*
X44736666Y94714286D01*
D13*
X46180952Y95757143D02*
X45990476Y95890477D01*
X46180952Y95985715D02*
X45780952Y95985715D01*
X45780952Y95833334D01*
X45800000Y95795239D01*
X45819047Y95776191D01*
X45857142Y95757143D01*
X45914285Y95757143D01*
X45952380Y95776191D01*
X45971428Y95795239D01*
X45990476Y95833334D01*
X45990476Y95985715D01*
X46180952Y95376191D02*
X46180952Y95604762D01*
X46180952Y95490477D02*
X45780952Y95490477D01*
X45838095Y95528572D01*
X45876190Y95566667D01*
X45895238Y95604762D01*
X46180952Y94995239D02*
X46180952Y95223810D01*
X46180952Y95109524D02*
X45780952Y95109524D01*
X45838095Y95147620D01*
X45876190Y95185715D01*
X45895238Y95223810D01*
D12*
X57095238Y95547620D02*
X57666666Y95547620D01*
X57380952Y95547620D02*
X57380952Y96547620D01*
X57476190Y96404762D01*
X57571428Y96309524D01*
X57666666Y96261905D01*
X56476190Y96547620D02*
X56380952Y96547620D01*
X56285714Y96500000D01*
X56238095Y96452381D01*
X56190476Y96357143D01*
X56142857Y96166667D01*
X56142857Y95928572D01*
X56190476Y95738096D01*
X56238095Y95642858D01*
X56285714Y95595239D01*
X56380952Y95547620D01*
X56476190Y95547620D01*
X56571428Y95595239D01*
X56619047Y95642858D01*
X56666666Y95738096D01*
X56714285Y95928572D01*
X56714285Y96166667D01*
X56666666Y96357143D01*
X56619047Y96452381D01*
X56571428Y96500000D01*
X56476190Y96547620D01*
X55714285Y95547620D02*
X55714285Y96547620D01*
X55619047Y95928572D02*
X55333333Y95547620D01*
X55333333Y96214286D02*
X55714285Y95833334D01*
D13*
X59757142Y95819048D02*
X59890476Y96009524D01*
X59985714Y95819048D02*
X59985714Y96219048D01*
X59833333Y96219048D01*
X59795238Y96200000D01*
X59776190Y96180953D01*
X59757142Y96142858D01*
X59757142Y96085715D01*
X59776190Y96047620D01*
X59795238Y96028572D01*
X59833333Y96009524D01*
X59985714Y96009524D01*
X59376190Y95819048D02*
X59604761Y95819048D01*
X59490476Y95819048D02*
X59490476Y96219048D01*
X59528571Y96161905D01*
X59566666Y96123810D01*
X59604761Y96104762D01*
X59128571Y96219048D02*
X59090476Y96219048D01*
X59052380Y96200000D01*
X59033333Y96180953D01*
X59014285Y96142858D01*
X58995238Y96066667D01*
X58995238Y95971429D01*
X59014285Y95895239D01*
X59033333Y95857143D01*
X59052380Y95838096D01*
X59090476Y95819048D01*
X59128571Y95819048D01*
X59166666Y95838096D01*
X59185714Y95857143D01*
X59204761Y95895239D01*
X59223809Y95971429D01*
X59223809Y96066667D01*
X59204761Y96142858D01*
X59185714Y96180953D01*
X59166666Y96200000D01*
X59128571Y96219048D01*
D12*
X66452380Y118845239D02*
X66452380Y119416667D01*
X66452380Y119130953D02*
X65452380Y119130953D01*
X65595238Y119226191D01*
X65690476Y119321429D01*
X65738095Y119416667D01*
X65452380Y118226191D02*
X65452380Y118130953D01*
X65500000Y118035715D01*
X65547619Y117988096D01*
X65642857Y117940477D01*
X65833333Y117892858D01*
X66071428Y117892858D01*
X66261904Y117940477D01*
X66357142Y117988096D01*
X66404761Y118035715D01*
X66452380Y118130953D01*
X66452380Y118226191D01*
X66404761Y118321429D01*
X66357142Y118369048D01*
X66261904Y118416667D01*
X66071428Y118464286D01*
X65833333Y118464286D01*
X65642857Y118416667D01*
X65547619Y118369048D01*
X65500000Y118321429D01*
X65452380Y118226191D01*
X66452380Y117464286D02*
X65452380Y117464286D01*
X66071428Y117369048D02*
X66452380Y117083334D01*
X65785714Y117083334D02*
X66166666Y117464286D01*
D13*
X66180952Y115566667D02*
X65990476Y115700000D01*
X66180952Y115795239D02*
X65780952Y115795239D01*
X65780952Y115642858D01*
X65800000Y115604762D01*
X65819047Y115585715D01*
X65857142Y115566667D01*
X65914285Y115566667D01*
X65952380Y115585715D01*
X65971428Y115604762D01*
X65990476Y115642858D01*
X65990476Y115795239D01*
X66180952Y115376191D02*
X66180952Y115300000D01*
X66161904Y115261905D01*
X66142857Y115242858D01*
X66085714Y115204762D01*
X66009523Y115185715D01*
X65857142Y115185715D01*
X65819047Y115204762D01*
X65800000Y115223810D01*
X65780952Y115261905D01*
X65780952Y115338096D01*
X65800000Y115376191D01*
X65819047Y115395239D01*
X65857142Y115414286D01*
X65952380Y115414286D01*
X65990476Y115395239D01*
X66009523Y115376191D01*
X66028571Y115338096D01*
X66028571Y115261905D01*
X66009523Y115223810D01*
X65990476Y115204762D01*
X65952380Y115185715D01*
D12*
X34095238Y113617620D02*
X34666666Y113617620D01*
X34380952Y113617620D02*
X34380952Y114617620D01*
X34476190Y114474762D01*
X34571428Y114379524D01*
X34666666Y114331905D01*
X33666666Y113617620D02*
X33666666Y114617620D01*
X33571428Y113998572D02*
X33285714Y113617620D01*
X33285714Y114284286D02*
X33666666Y113903334D01*
X32904761Y114522381D02*
X32857142Y114570000D01*
X32761904Y114617620D01*
X32523809Y114617620D01*
X32428571Y114570000D01*
X32380952Y114522381D01*
X32333333Y114427143D01*
X32333333Y114331905D01*
X32380952Y114189048D01*
X32952380Y113617620D01*
X32333333Y113617620D01*
D13*
X33566666Y115319048D02*
X33700000Y115509524D01*
X33795238Y115319048D02*
X33795238Y115719048D01*
X33642857Y115719048D01*
X33604761Y115700000D01*
X33585714Y115680953D01*
X33566666Y115642858D01*
X33566666Y115585715D01*
X33585714Y115547620D01*
X33604761Y115528572D01*
X33642857Y115509524D01*
X33795238Y115509524D01*
X33338095Y115547620D02*
X33376190Y115566667D01*
X33395238Y115585715D01*
X33414285Y115623810D01*
X33414285Y115642858D01*
X33395238Y115680953D01*
X33376190Y115700000D01*
X33338095Y115719048D01*
X33261904Y115719048D01*
X33223809Y115700000D01*
X33204761Y115680953D01*
X33185714Y115642858D01*
X33185714Y115623810D01*
X33204761Y115585715D01*
X33223809Y115566667D01*
X33261904Y115547620D01*
X33338095Y115547620D01*
X33376190Y115528572D01*
X33395238Y115509524D01*
X33414285Y115471429D01*
X33414285Y115395239D01*
X33395238Y115357143D01*
X33376190Y115338096D01*
X33338095Y115319048D01*
X33261904Y115319048D01*
X33223809Y115338096D01*
X33204761Y115357143D01*
X33185714Y115395239D01*
X33185714Y115471429D01*
X33204761Y115509524D01*
X33223809Y115528572D01*
X33261904Y115547620D01*
D12*
X30595238Y113547620D02*
X31166666Y113547620D01*
X30880952Y113547620D02*
X30880952Y114547620D01*
X30976190Y114404762D01*
X31071428Y114309524D01*
X31166666Y114261905D01*
X30166666Y113547620D02*
X30166666Y114547620D01*
X30071428Y113928572D02*
X29785714Y113547620D01*
X29785714Y114214286D02*
X30166666Y113833334D01*
X29404761Y114452381D02*
X29357142Y114500000D01*
X29261904Y114547620D01*
X29023809Y114547620D01*
X28928571Y114500000D01*
X28880952Y114452381D01*
X28833333Y114357143D01*
X28833333Y114261905D01*
X28880952Y114119048D01*
X29452380Y113547620D01*
X28833333Y113547620D01*
D13*
X30066666Y115319048D02*
X30200000Y115509524D01*
X30295238Y115319048D02*
X30295238Y115719048D01*
X30142857Y115719048D01*
X30104761Y115700000D01*
X30085714Y115680953D01*
X30066666Y115642858D01*
X30066666Y115585715D01*
X30085714Y115547620D01*
X30104761Y115528572D01*
X30142857Y115509524D01*
X30295238Y115509524D01*
X29933333Y115719048D02*
X29666666Y115719048D01*
X29838095Y115319048D01*
D12*
X21345238Y105547620D02*
X21916666Y105547620D01*
X21630952Y105547620D02*
X21630952Y106547620D01*
X21726190Y106404762D01*
X21821428Y106309524D01*
X21916666Y106261905D01*
X20726190Y106547620D02*
X20630952Y106547620D01*
X20535714Y106500000D01*
X20488095Y106452381D01*
X20440476Y106357143D01*
X20392857Y106166667D01*
X20392857Y105928572D01*
X20440476Y105738096D01*
X20488095Y105642858D01*
X20535714Y105595239D01*
X20630952Y105547620D01*
X20726190Y105547620D01*
X20821428Y105595239D01*
X20869047Y105642858D01*
X20916666Y105738096D01*
X20964285Y105928572D01*
X20964285Y106166667D01*
X20916666Y106357143D01*
X20869047Y106452381D01*
X20821428Y106500000D01*
X20726190Y106547620D01*
X19964285Y105547620D02*
X19964285Y106547620D01*
X19869047Y105928572D02*
X19583333Y105547620D01*
X19583333Y106214286D02*
X19964285Y105833334D01*
D13*
X18066666Y105819048D02*
X18200000Y106009524D01*
X18295238Y105819048D02*
X18295238Y106219048D01*
X18142857Y106219048D01*
X18104761Y106200000D01*
X18085714Y106180953D01*
X18066666Y106142858D01*
X18066666Y106085715D01*
X18085714Y106047620D01*
X18104761Y106028572D01*
X18142857Y106009524D01*
X18295238Y106009524D01*
X17723809Y106219048D02*
X17800000Y106219048D01*
X17838095Y106200000D01*
X17857142Y106180953D01*
X17895238Y106123810D01*
X17914285Y106047620D01*
X17914285Y105895239D01*
X17895238Y105857143D01*
X17876190Y105838096D01*
X17838095Y105819048D01*
X17761904Y105819048D01*
X17723809Y105838096D01*
X17704761Y105857143D01*
X17685714Y105895239D01*
X17685714Y105990477D01*
X17704761Y106028572D01*
X17723809Y106047620D01*
X17761904Y106066667D01*
X17838095Y106066667D01*
X17876190Y106047620D01*
X17895238Y106028572D01*
X17914285Y105990477D01*
D12*
X9595238Y104047620D02*
X10166666Y104047620D01*
X9880952Y104047620D02*
X9880952Y105047620D01*
X9976190Y104904762D01*
X10071428Y104809524D01*
X10166666Y104761905D01*
X8976190Y105047620D02*
X8880952Y105047620D01*
X8785714Y105000000D01*
X8738095Y104952381D01*
X8690476Y104857143D01*
X8642857Y104666667D01*
X8642857Y104428572D01*
X8690476Y104238096D01*
X8738095Y104142858D01*
X8785714Y104095239D01*
X8880952Y104047620D01*
X8976190Y104047620D01*
X9071428Y104095239D01*
X9119047Y104142858D01*
X9166666Y104238096D01*
X9214285Y104428572D01*
X9214285Y104666667D01*
X9166666Y104857143D01*
X9119047Y104952381D01*
X9071428Y105000000D01*
X8976190Y105047620D01*
X8214285Y104047620D02*
X8214285Y105047620D01*
X8119047Y104428572D02*
X7833333Y104047620D01*
X7833333Y104714286D02*
X8214285Y104333334D01*
D13*
X12066666Y104319048D02*
X12200000Y104509524D01*
X12295238Y104319048D02*
X12295238Y104719048D01*
X12142857Y104719048D01*
X12104761Y104700000D01*
X12085714Y104680953D01*
X12066666Y104642858D01*
X12066666Y104585715D01*
X12085714Y104547620D01*
X12104761Y104528572D01*
X12142857Y104509524D01*
X12295238Y104509524D01*
X11704761Y104719048D02*
X11895238Y104719048D01*
X11914285Y104528572D01*
X11895238Y104547620D01*
X11857142Y104566667D01*
X11761904Y104566667D01*
X11723809Y104547620D01*
X11704761Y104528572D01*
X11685714Y104490477D01*
X11685714Y104395239D01*
X11704761Y104357143D01*
X11723809Y104338096D01*
X11761904Y104319048D01*
X11857142Y104319048D01*
X11895238Y104338096D01*
X11914285Y104357143D01*
D12*
X21166666Y107476191D02*
X21166666Y107000000D01*
X21452380Y107571429D02*
X20452380Y107238096D01*
X21452380Y106904762D01*
X20452380Y106380953D02*
X20452380Y106190477D01*
X20500000Y106095239D01*
X20595238Y106000000D01*
X20785714Y105952381D01*
X21119047Y105952381D01*
X21309523Y106000000D01*
X21404761Y106095239D01*
X21452380Y106190477D01*
X21452380Y106380953D01*
X21404761Y106476191D01*
X21309523Y106571429D01*
X21119047Y106619048D01*
X20785714Y106619048D01*
X20595238Y106571429D01*
X20500000Y106476191D01*
X20452380Y106380953D01*
X20452380Y105619048D02*
X20452380Y105000001D01*
X20833333Y105333334D01*
X20833333Y105190477D01*
X20880952Y105095239D01*
X20928571Y105047620D01*
X21023809Y105000001D01*
X21261904Y105000001D01*
X21357142Y105047620D01*
X21404761Y105095239D01*
X21452380Y105190477D01*
X21452380Y105476191D01*
X21404761Y105571429D01*
X21357142Y105619048D01*
X20785714Y104142858D02*
X21452380Y104142858D01*
X20404761Y104380953D02*
X21119047Y104619048D01*
X21119047Y104000001D01*
X20452380Y103428572D02*
X20452380Y103333334D01*
X20500000Y103238096D01*
X20547619Y103190477D01*
X20642857Y103142858D01*
X20833333Y103095239D01*
X21071428Y103095239D01*
X21261904Y103142858D01*
X21357142Y103190477D01*
X21404761Y103238096D01*
X21452380Y103333334D01*
X21452380Y103428572D01*
X21404761Y103523810D01*
X21357142Y103571429D01*
X21261904Y103619048D01*
X21071428Y103666667D01*
X20833333Y103666667D01*
X20642857Y103619048D01*
X20547619Y103571429D01*
X20500000Y103523810D01*
X20452380Y103428572D01*
X20452380Y102476191D02*
X20452380Y102380953D01*
X20500000Y102285715D01*
X20547619Y102238096D01*
X20642857Y102190477D01*
X20833333Y102142858D01*
X21071428Y102142858D01*
X21261904Y102190477D01*
X21357142Y102238096D01*
X21404761Y102285715D01*
X21452380Y102380953D01*
X21452380Y102476191D01*
X21404761Y102571429D01*
X21357142Y102619048D01*
X21261904Y102666667D01*
X21071428Y102714286D01*
X20833333Y102714286D01*
X20642857Y102666667D01*
X20547619Y102619048D01*
X20500000Y102571429D01*
X20452380Y102476191D01*
X21833333Y100666667D02*
X21785714Y100714286D01*
X21642857Y100809524D01*
X21547619Y100857143D01*
X21404761Y100904762D01*
X21166666Y100952381D01*
X20976190Y100952381D01*
X20738095Y100904762D01*
X20595238Y100857143D01*
X20500000Y100809524D01*
X20357142Y100714286D01*
X20309523Y100666667D01*
X21166666Y100333334D02*
X21166666Y99857143D01*
X21452380Y100428572D02*
X20452380Y100095239D01*
X21452380Y99761905D01*
X20452380Y99238096D02*
X20452380Y99142858D01*
X20500000Y99047620D01*
X20547619Y99000001D01*
X20642857Y98952381D01*
X20833333Y98904762D01*
X21071428Y98904762D01*
X21261904Y98952381D01*
X21357142Y99000001D01*
X21404761Y99047620D01*
X21452380Y99142858D01*
X21452380Y99238096D01*
X21404761Y99333334D01*
X21357142Y99380953D01*
X21261904Y99428572D01*
X21071428Y99476191D01*
X20833333Y99476191D01*
X20642857Y99428572D01*
X20547619Y99380953D01*
X20500000Y99333334D01*
X20452380Y99238096D01*
X21452380Y98428572D02*
X21452380Y98238096D01*
X21404761Y98142858D01*
X21357142Y98095239D01*
X21214285Y98000001D01*
X21023809Y97952381D01*
X20642857Y97952381D01*
X20547619Y98000001D01*
X20500000Y98047620D01*
X20452380Y98142858D01*
X20452380Y98333334D01*
X20500000Y98428572D01*
X20547619Y98476191D01*
X20642857Y98523810D01*
X20880952Y98523810D01*
X20976190Y98476191D01*
X21023809Y98428572D01*
X21071428Y98333334D01*
X21071428Y98142858D01*
X21023809Y98047620D01*
X20976190Y98000001D01*
X20880952Y97952381D01*
X20452380Y97666667D02*
X20452380Y97095239D01*
X21452380Y97380953D02*
X20452380Y97380953D01*
X21833333Y96857143D02*
X21785714Y96809524D01*
X21642857Y96714286D01*
X21547619Y96666667D01*
X21404761Y96619048D01*
X21166666Y96571429D01*
X20976190Y96571429D01*
X20738095Y96619048D01*
X20595238Y96666667D01*
X20500000Y96714286D01*
X20357142Y96809524D01*
X20309523Y96857143D01*
D14*
X18226190Y102952381D02*
X18250000Y102904762D01*
X18297619Y102857143D01*
X18369047Y102785715D01*
X18392857Y102738096D01*
X18392857Y102690477D01*
X18273809Y102714286D02*
X18297619Y102666667D01*
X18345238Y102619048D01*
X18440476Y102595239D01*
X18607142Y102595239D01*
X18702380Y102619048D01*
X18750000Y102666667D01*
X18773809Y102714286D01*
X18773809Y102809524D01*
X18750000Y102857143D01*
X18702380Y102904762D01*
X18607142Y102928572D01*
X18440476Y102928572D01*
X18345238Y102904762D01*
X18297619Y102857143D01*
X18273809Y102809524D01*
X18273809Y102714286D01*
X18726190Y103119048D02*
X18750000Y103142858D01*
X18773809Y103190477D01*
X18773809Y103309524D01*
X18750000Y103357143D01*
X18726190Y103380953D01*
X18678571Y103404762D01*
X18630952Y103404762D01*
X18559523Y103380953D01*
X18273809Y103095239D01*
X18273809Y103404762D01*
D12*
X7666666Y114226191D02*
X7666666Y113750000D01*
X7952380Y114321429D02*
X6952380Y113988096D01*
X7952380Y113654762D01*
X6952380Y113130953D02*
X6952380Y112940477D01*
X7000000Y112845239D01*
X7095238Y112750000D01*
X7285714Y112702381D01*
X7619047Y112702381D01*
X7809523Y112750000D01*
X7904761Y112845239D01*
X7952380Y112940477D01*
X7952380Y113130953D01*
X7904761Y113226191D01*
X7809523Y113321429D01*
X7619047Y113369048D01*
X7285714Y113369048D01*
X7095238Y113321429D01*
X7000000Y113226191D01*
X6952380Y113130953D01*
X6952380Y112369048D02*
X6952380Y111750000D01*
X7333333Y112083334D01*
X7333333Y111940477D01*
X7380952Y111845239D01*
X7428571Y111797620D01*
X7523809Y111750000D01*
X7761904Y111750000D01*
X7857142Y111797620D01*
X7904761Y111845239D01*
X7952380Y111940477D01*
X7952380Y112226191D01*
X7904761Y112321429D01*
X7857142Y112369048D01*
X7285714Y110892858D02*
X7952380Y110892858D01*
X6904761Y111130953D02*
X7619047Y111369048D01*
X7619047Y110750000D01*
X6952380Y110178572D02*
X6952380Y110083334D01*
X7000000Y109988096D01*
X7047619Y109940477D01*
X7142857Y109892858D01*
X7333333Y109845239D01*
X7571428Y109845239D01*
X7761904Y109892858D01*
X7857142Y109940477D01*
X7904761Y109988096D01*
X7952380Y110083334D01*
X7952380Y110178572D01*
X7904761Y110273810D01*
X7857142Y110321429D01*
X7761904Y110369048D01*
X7571428Y110416667D01*
X7333333Y110416667D01*
X7142857Y110369048D01*
X7047619Y110321429D01*
X7000000Y110273810D01*
X6952380Y110178572D01*
X6952380Y109226191D02*
X6952380Y109130953D01*
X7000000Y109035715D01*
X7047619Y108988096D01*
X7142857Y108940477D01*
X7333333Y108892858D01*
X7571428Y108892858D01*
X7761904Y108940477D01*
X7857142Y108988096D01*
X7904761Y109035715D01*
X7952380Y109130953D01*
X7952380Y109226191D01*
X7904761Y109321429D01*
X7857142Y109369048D01*
X7761904Y109416667D01*
X7571428Y109464286D01*
X7333333Y109464286D01*
X7142857Y109416667D01*
X7047619Y109369048D01*
X7000000Y109321429D01*
X6952380Y109226191D01*
X8333333Y107416667D02*
X8285714Y107464286D01*
X8142857Y107559524D01*
X8047619Y107607143D01*
X7904761Y107654762D01*
X7666666Y107702381D01*
X7476190Y107702381D01*
X7238095Y107654762D01*
X7095238Y107607143D01*
X7000000Y107559524D01*
X6857142Y107464286D01*
X6809523Y107416667D01*
X7666666Y107083334D02*
X7666666Y106607143D01*
X7952380Y107178572D02*
X6952380Y106845239D01*
X7952380Y106511905D01*
X6952380Y105988096D02*
X6952380Y105892858D01*
X7000000Y105797620D01*
X7047619Y105750001D01*
X7142857Y105702381D01*
X7333333Y105654762D01*
X7571428Y105654762D01*
X7761904Y105702381D01*
X7857142Y105750001D01*
X7904761Y105797620D01*
X7952380Y105892858D01*
X7952380Y105988096D01*
X7904761Y106083334D01*
X7857142Y106130953D01*
X7761904Y106178572D01*
X7571428Y106226191D01*
X7333333Y106226191D01*
X7142857Y106178572D01*
X7047619Y106130953D01*
X7000000Y106083334D01*
X6952380Y105988096D01*
X7952380Y105178572D02*
X7952380Y104988096D01*
X7904761Y104892858D01*
X7857142Y104845239D01*
X7714285Y104750001D01*
X7523809Y104702381D01*
X7142857Y104702381D01*
X7047619Y104750001D01*
X7000000Y104797620D01*
X6952380Y104892858D01*
X6952380Y105083334D01*
X7000000Y105178572D01*
X7047619Y105226191D01*
X7142857Y105273810D01*
X7380952Y105273810D01*
X7476190Y105226191D01*
X7523809Y105178572D01*
X7571428Y105083334D01*
X7571428Y104892858D01*
X7523809Y104797620D01*
X7476190Y104750001D01*
X7380952Y104702381D01*
X6952380Y104416667D02*
X6952380Y103845239D01*
X7952380Y104130953D02*
X6952380Y104130953D01*
X8333333Y103607143D02*
X8285714Y103559524D01*
X8142857Y103464286D01*
X8047619Y103416667D01*
X7904761Y103369048D01*
X7666666Y103321429D01*
X7476190Y103321429D01*
X7238095Y103369048D01*
X7095238Y103416667D01*
X7000000Y103464286D01*
X6857142Y103559524D01*
X6809523Y103607143D01*
D14*
X10273809Y110047620D02*
X10250000Y110095239D01*
X10202380Y110142858D01*
X10130952Y110214286D01*
X10107142Y110261905D01*
X10107142Y110309524D01*
X10226190Y110285715D02*
X10202380Y110333334D01*
X10154761Y110380953D01*
X10059523Y110404762D01*
X9892857Y110404762D01*
X9797619Y110380953D01*
X9750000Y110333334D01*
X9726190Y110285715D01*
X9726190Y110190477D01*
X9750000Y110142858D01*
X9797619Y110095239D01*
X9892857Y110071429D01*
X10059523Y110071429D01*
X10154761Y110095239D01*
X10202380Y110142858D01*
X10226190Y110190477D01*
X10226190Y110285715D01*
X10226190Y109595239D02*
X10226190Y109880953D01*
X10226190Y109738096D02*
X9726190Y109738096D01*
X9797619Y109785715D01*
X9845238Y109833334D01*
X9869047Y109880953D01*
D12*
X35916666Y119000000D02*
X36011904Y119047620D01*
X36154761Y119047620D01*
X36297619Y119000000D01*
X36392857Y118904762D01*
X36440476Y118809524D01*
X36488095Y118619048D01*
X36488095Y118476191D01*
X36440476Y118285715D01*
X36392857Y118190477D01*
X36297619Y118095239D01*
X36154761Y118047620D01*
X36059523Y118047620D01*
X35916666Y118095239D01*
X35869047Y118142858D01*
X35869047Y118476191D01*
X36059523Y118476191D01*
X34869047Y118047620D02*
X35202380Y118523810D01*
X35440476Y118047620D02*
X35440476Y119047620D01*
X35059523Y119047620D01*
X34964285Y119000000D01*
X34916666Y118952381D01*
X34869047Y118857143D01*
X34869047Y118714286D01*
X34916666Y118619048D01*
X34964285Y118571429D01*
X35059523Y118523810D01*
X35440476Y118523810D01*
X34440476Y118571429D02*
X34107142Y118571429D01*
X33964285Y118047620D02*
X34440476Y118047620D01*
X34440476Y119047620D01*
X33964285Y119047620D01*
X33535714Y118571429D02*
X33202380Y118571429D01*
X33059523Y118047620D02*
X33535714Y118047620D01*
X33535714Y119047620D01*
X33059523Y119047620D01*
X32630952Y118047620D02*
X32630952Y119047620D01*
X32059523Y118047620D01*
X32059523Y119047620D01*
D13*
X33985714Y116819048D02*
X33985714Y117219048D01*
X33890476Y117219048D01*
X33833333Y117200000D01*
X33795238Y117161905D01*
X33776190Y117123810D01*
X33757142Y117047620D01*
X33757142Y116990477D01*
X33776190Y116914286D01*
X33795238Y116876191D01*
X33833333Y116838096D01*
X33890476Y116819048D01*
X33985714Y116819048D01*
X33623809Y117219048D02*
X33376190Y117219048D01*
X33509523Y117066667D01*
X33452380Y117066667D01*
X33414285Y117047620D01*
X33395238Y117028572D01*
X33376190Y116990477D01*
X33376190Y116895239D01*
X33395238Y116857143D01*
X33414285Y116838096D01*
X33452380Y116819048D01*
X33566666Y116819048D01*
X33604761Y116838096D01*
X33623809Y116857143D01*
X33033333Y117085715D02*
X33033333Y116819048D01*
X33128571Y117238096D02*
X33223809Y116952381D01*
X32976190Y116952381D01*
D12*
X31059523Y118571429D02*
X30916666Y118523810D01*
X30869047Y118476191D01*
X30821428Y118380953D01*
X30821428Y118238096D01*
X30869047Y118142858D01*
X30916666Y118095239D01*
X31011904Y118047620D01*
X31392857Y118047620D01*
X31392857Y119047620D01*
X31059523Y119047620D01*
X30964285Y119000000D01*
X30916666Y118952381D01*
X30869047Y118857143D01*
X30869047Y118761905D01*
X30916666Y118666667D01*
X30964285Y118619048D01*
X31059523Y118571429D01*
X31392857Y118571429D01*
X29916666Y118047620D02*
X30392857Y118047620D01*
X30392857Y119047620D01*
X29583333Y119047620D02*
X29583333Y118238096D01*
X29535714Y118142858D01*
X29488095Y118095239D01*
X29392857Y118047620D01*
X29202380Y118047620D01*
X29107142Y118095239D01*
X29059523Y118142858D01*
X29011904Y118238096D01*
X29011904Y119047620D01*
X28535714Y118571429D02*
X28202380Y118571429D01*
X28059523Y118047620D02*
X28535714Y118047620D01*
X28535714Y119047620D01*
X28059523Y119047620D01*
D13*
X30485714Y116819048D02*
X30485714Y117219048D01*
X30390476Y117219048D01*
X30333333Y117200000D01*
X30295238Y117161905D01*
X30276190Y117123810D01*
X30257142Y117047620D01*
X30257142Y116990477D01*
X30276190Y116914286D01*
X30295238Y116876191D01*
X30333333Y116838096D01*
X30390476Y116819048D01*
X30485714Y116819048D01*
X30123809Y117219048D02*
X29876190Y117219048D01*
X30009523Y117066667D01*
X29952380Y117066667D01*
X29914285Y117047620D01*
X29895238Y117028572D01*
X29876190Y116990477D01*
X29876190Y116895239D01*
X29895238Y116857143D01*
X29914285Y116838096D01*
X29952380Y116819048D01*
X30066666Y116819048D01*
X30104761Y116838096D01*
X30123809Y116857143D01*
X29742857Y117219048D02*
X29495238Y117219048D01*
X29628571Y117066667D01*
X29571428Y117066667D01*
X29533333Y117047620D01*
X29514285Y117028572D01*
X29495238Y116990477D01*
X29495238Y116895239D01*
X29514285Y116857143D01*
X29533333Y116838096D01*
X29571428Y116819048D01*
X29685714Y116819048D01*
X29723809Y116838096D01*
X29742857Y116857143D01*
D12*
X67952380Y106297620D02*
X67952380Y106869048D01*
X67952380Y106583334D02*
X66952380Y106583334D01*
X67095238Y106678572D01*
X67190476Y106773810D01*
X67238095Y106869048D01*
X66952380Y105678572D02*
X66952380Y105583334D01*
X67000000Y105488096D01*
X67047619Y105440477D01*
X67142857Y105392858D01*
X67333333Y105345239D01*
X67571428Y105345239D01*
X67761904Y105392858D01*
X67857142Y105440477D01*
X67904761Y105488096D01*
X67952380Y105583334D01*
X67952380Y105678572D01*
X67904761Y105773810D01*
X67857142Y105821429D01*
X67761904Y105869048D01*
X67571428Y105916667D01*
X67333333Y105916667D01*
X67142857Y105869048D01*
X67047619Y105821429D01*
X67000000Y105773810D01*
X66952380Y105678572D01*
X66952380Y104726191D02*
X66952380Y104630953D01*
X67000000Y104535715D01*
X67047619Y104488096D01*
X67142857Y104440477D01*
X67333333Y104392858D01*
X67571428Y104392858D01*
X67761904Y104440477D01*
X67857142Y104488096D01*
X67904761Y104535715D01*
X67952380Y104630953D01*
X67952380Y104726191D01*
X67904761Y104821429D01*
X67857142Y104869048D01*
X67761904Y104916667D01*
X67571428Y104964286D01*
X67333333Y104964286D01*
X67142857Y104916667D01*
X67047619Y104869048D01*
X67000000Y104821429D01*
X66952380Y104726191D01*
X67285714Y103964286D02*
X67952380Y103964286D01*
X67380952Y103964286D02*
X67333333Y103916667D01*
X67285714Y103821429D01*
X67285714Y103678572D01*
X67333333Y103583334D01*
X67428571Y103535715D01*
X67952380Y103535715D01*
X67428571Y102726191D02*
X67428571Y103059524D01*
X67952380Y103059524D02*
X66952380Y103059524D01*
X66952380Y102583334D01*
D13*
X67642857Y108566667D02*
X67661904Y108585715D01*
X67680952Y108642858D01*
X67680952Y108680953D01*
X67661904Y108738096D01*
X67623809Y108776191D01*
X67585714Y108795239D01*
X67509523Y108814286D01*
X67452380Y108814286D01*
X67376190Y108795239D01*
X67338095Y108776191D01*
X67300000Y108738096D01*
X67280952Y108680953D01*
X67280952Y108642858D01*
X67300000Y108585715D01*
X67319047Y108566667D01*
X67280952Y108223810D02*
X67280952Y108300000D01*
X67300000Y108338096D01*
X67319047Y108357143D01*
X67376190Y108395239D01*
X67452380Y108414286D01*
X67604761Y108414286D01*
X67642857Y108395239D01*
X67661904Y108376191D01*
X67680952Y108338096D01*
X67680952Y108261905D01*
X67661904Y108223810D01*
X67642857Y108204762D01*
X67604761Y108185715D01*
X67509523Y108185715D01*
X67471428Y108204762D01*
X67452380Y108223810D01*
X67433333Y108261905D01*
X67433333Y108338096D01*
X67452380Y108376191D01*
X67471428Y108395239D01*
X67509523Y108414286D01*
D15*
X69226190Y119023810D02*
X69226190Y119309524D01*
X69226190Y119166667D02*
X68726190Y119166667D01*
X68797619Y119214286D01*
X68845238Y119261905D01*
X68869047Y119309524D01*
X68726190Y118714286D02*
X68726190Y118666667D01*
X68750000Y118619048D01*
X68773809Y118595239D01*
X68821428Y118571429D01*
X68916666Y118547620D01*
X69035714Y118547620D01*
X69130952Y118571429D01*
X69178571Y118595239D01*
X69202380Y118619048D01*
X69226190Y118666667D01*
X69226190Y118714286D01*
X69202380Y118761905D01*
X69178571Y118785715D01*
X69130952Y118809524D01*
X69035714Y118833334D01*
X68916666Y118833334D01*
X68821428Y118809524D01*
X68773809Y118785715D01*
X68750000Y118761905D01*
X68726190Y118714286D01*
X68726190Y118238096D02*
X68726190Y118190477D01*
X68750000Y118142858D01*
X68773809Y118119048D01*
X68821428Y118095239D01*
X68916666Y118071429D01*
X69035714Y118071429D01*
X69130952Y118095239D01*
X69178571Y118119048D01*
X69202380Y118142858D01*
X69226190Y118190477D01*
X69226190Y118238096D01*
X69202380Y118285715D01*
X69178571Y118309524D01*
X69130952Y118333334D01*
X69035714Y118357143D01*
X68916666Y118357143D01*
X68821428Y118333334D01*
X68773809Y118309524D01*
X68750000Y118285715D01*
X68726190Y118238096D01*
X68892857Y117857143D02*
X69226190Y117857143D01*
X68940476Y117857143D02*
X68916666Y117833334D01*
X68892857Y117785715D01*
X68892857Y117714286D01*
X68916666Y117666667D01*
X68964285Y117642858D01*
X69226190Y117642858D01*
X68964285Y117238096D02*
X68964285Y117404762D01*
X69226190Y117404762D02*
X68726190Y117404762D01*
X68726190Y117166667D01*
D13*
X69142857Y115566667D02*
X69161904Y115585715D01*
X69180952Y115642858D01*
X69180952Y115680953D01*
X69161904Y115738096D01*
X69123809Y115776191D01*
X69085714Y115795239D01*
X69009523Y115814286D01*
X68952380Y115814286D01*
X68876190Y115795239D01*
X68838095Y115776191D01*
X68800000Y115738096D01*
X68780952Y115680953D01*
X68780952Y115642858D01*
X68800000Y115585715D01*
X68819047Y115566667D01*
X68914285Y115223810D02*
X69180952Y115223810D01*
X68761904Y115319048D02*
X69047619Y115414286D01*
X69047619Y115166667D01*
D15*
X67726190Y119023810D02*
X67726190Y119309524D01*
X67726190Y119166667D02*
X67226190Y119166667D01*
X67297619Y119214286D01*
X67345238Y119261905D01*
X67369047Y119309524D01*
X67226190Y118714286D02*
X67226190Y118666667D01*
X67250000Y118619048D01*
X67273809Y118595239D01*
X67321428Y118571429D01*
X67416666Y118547620D01*
X67535714Y118547620D01*
X67630952Y118571429D01*
X67678571Y118595239D01*
X67702380Y118619048D01*
X67726190Y118666667D01*
X67726190Y118714286D01*
X67702380Y118761905D01*
X67678571Y118785715D01*
X67630952Y118809524D01*
X67535714Y118833334D01*
X67416666Y118833334D01*
X67321428Y118809524D01*
X67273809Y118785715D01*
X67250000Y118761905D01*
X67226190Y118714286D01*
X67226190Y118238096D02*
X67226190Y118190477D01*
X67250000Y118142858D01*
X67273809Y118119048D01*
X67321428Y118095239D01*
X67416666Y118071429D01*
X67535714Y118071429D01*
X67630952Y118095239D01*
X67678571Y118119048D01*
X67702380Y118142858D01*
X67726190Y118190477D01*
X67726190Y118238096D01*
X67702380Y118285715D01*
X67678571Y118309524D01*
X67630952Y118333334D01*
X67535714Y118357143D01*
X67416666Y118357143D01*
X67321428Y118333334D01*
X67273809Y118309524D01*
X67250000Y118285715D01*
X67226190Y118238096D01*
X67392857Y117857143D02*
X67726190Y117857143D01*
X67440476Y117857143D02*
X67416666Y117833334D01*
X67392857Y117785715D01*
X67392857Y117714286D01*
X67416666Y117666667D01*
X67464285Y117642858D01*
X67726190Y117642858D01*
X67464285Y117238096D02*
X67464285Y117404762D01*
X67726190Y117404762D02*
X67226190Y117404762D01*
X67226190Y117166667D01*
D13*
X67642857Y115566667D02*
X67661904Y115585715D01*
X67680952Y115642858D01*
X67680952Y115680953D01*
X67661904Y115738096D01*
X67623809Y115776191D01*
X67585714Y115795239D01*
X67509523Y115814286D01*
X67452380Y115814286D01*
X67376190Y115795239D01*
X67338095Y115776191D01*
X67300000Y115738096D01*
X67280952Y115680953D01*
X67280952Y115642858D01*
X67300000Y115585715D01*
X67319047Y115566667D01*
X67280952Y115433334D02*
X67280952Y115185715D01*
X67433333Y115319048D01*
X67433333Y115261905D01*
X67452380Y115223810D01*
X67471428Y115204762D01*
X67509523Y115185715D01*
X67604761Y115185715D01*
X67642857Y115204762D01*
X67661904Y115223810D01*
X67680952Y115261905D01*
X67680952Y115376191D01*
X67661904Y115414286D01*
X67642857Y115433334D01*
D12*
X9797619Y105547620D02*
X10369047Y105547620D01*
X10083333Y105547620D02*
X10083333Y106547620D01*
X10178571Y106404762D01*
X10273809Y106309524D01*
X10369047Y106261905D01*
X9178571Y106547620D02*
X9083333Y106547620D01*
X8988095Y106500000D01*
X8940476Y106452381D01*
X8892857Y106357143D01*
X8845238Y106166667D01*
X8845238Y105928572D01*
X8892857Y105738096D01*
X8940476Y105642858D01*
X8988095Y105595239D01*
X9083333Y105547620D01*
X9178571Y105547620D01*
X9273809Y105595239D01*
X9321428Y105642858D01*
X9369047Y105738096D01*
X9416666Y105928572D01*
X9416666Y106166667D01*
X9369047Y106357143D01*
X9321428Y106452381D01*
X9273809Y106500000D01*
X9178571Y106547620D01*
X8226190Y106547620D02*
X8130952Y106547620D01*
X8035714Y106500000D01*
X7988095Y106452381D01*
X7940476Y106357143D01*
X7892857Y106166667D01*
X7892857Y105928572D01*
X7940476Y105738096D01*
X7988095Y105642858D01*
X8035714Y105595239D01*
X8130952Y105547620D01*
X8226190Y105547620D01*
X8321428Y105595239D01*
X8369047Y105642858D01*
X8416666Y105738096D01*
X8464285Y105928572D01*
X8464285Y106166667D01*
X8416666Y106357143D01*
X8369047Y106452381D01*
X8321428Y106500000D01*
X8226190Y106547620D01*
X7464285Y106214286D02*
X7464285Y105547620D01*
X7464285Y106119048D02*
X7416666Y106166667D01*
X7321428Y106214286D01*
X7178571Y106214286D01*
X7083333Y106166667D01*
X7035714Y106071429D01*
X7035714Y105547620D01*
X6226190Y106071429D02*
X6559523Y106071429D01*
X6559523Y105547620D02*
X6559523Y106547620D01*
X6083333Y106547620D01*
D13*
X12066666Y105857143D02*
X12085714Y105838096D01*
X12142857Y105819048D01*
X12180952Y105819048D01*
X12238095Y105838096D01*
X12276190Y105876191D01*
X12295238Y105914286D01*
X12314285Y105990477D01*
X12314285Y106047620D01*
X12295238Y106123810D01*
X12276190Y106161905D01*
X12238095Y106200000D01*
X12180952Y106219048D01*
X12142857Y106219048D01*
X12085714Y106200000D01*
X12066666Y106180953D01*
X11685714Y105819048D02*
X11914285Y105819048D01*
X11800000Y105819048D02*
X11800000Y106219048D01*
X11838095Y106161905D01*
X11876190Y106123810D01*
X11914285Y106104762D01*
D12*
X70882380Y112095239D02*
X70882380Y112666667D01*
X70882380Y112380953D02*
X69882380Y112380953D01*
X70025238Y112476191D01*
X70120476Y112571429D01*
X70168095Y112666667D01*
X69882380Y111476191D02*
X69882380Y111380953D01*
X69930000Y111285715D01*
X69977619Y111238096D01*
X70072857Y111190477D01*
X70263333Y111142858D01*
X70501428Y111142858D01*
X70691904Y111190477D01*
X70787142Y111238096D01*
X70834761Y111285715D01*
X70882380Y111380953D01*
X70882380Y111476191D01*
X70834761Y111571429D01*
X70787142Y111619048D01*
X70691904Y111666667D01*
X70501428Y111714286D01*
X70263333Y111714286D01*
X70072857Y111666667D01*
X69977619Y111619048D01*
X69930000Y111571429D01*
X69882380Y111476191D01*
X70882380Y110714286D02*
X69882380Y110714286D01*
X70501428Y110619048D02*
X70882380Y110333334D01*
X70215714Y110333334D02*
X70596666Y110714286D01*
D13*
X69180952Y111566667D02*
X68990476Y111700000D01*
X69180952Y111795239D02*
X68780952Y111795239D01*
X68780952Y111642858D01*
X68800000Y111604762D01*
X68819047Y111585715D01*
X68857142Y111566667D01*
X68914285Y111566667D01*
X68952380Y111585715D01*
X68971428Y111604762D01*
X68990476Y111642858D01*
X68990476Y111795239D01*
X68914285Y111223810D02*
X69180952Y111223810D01*
X68761904Y111319048D02*
X69047619Y111414286D01*
X69047619Y111166667D01*
D12*
X66702380Y112095239D02*
X66702380Y112666667D01*
X66702380Y112380953D02*
X65702380Y112380953D01*
X65845238Y112476191D01*
X65940476Y112571429D01*
X65988095Y112666667D01*
X65702380Y111476191D02*
X65702380Y111380953D01*
X65750000Y111285715D01*
X65797619Y111238096D01*
X65892857Y111190477D01*
X66083333Y111142858D01*
X66321428Y111142858D01*
X66511904Y111190477D01*
X66607142Y111238096D01*
X66654761Y111285715D01*
X66702380Y111380953D01*
X66702380Y111476191D01*
X66654761Y111571429D01*
X66607142Y111619048D01*
X66511904Y111666667D01*
X66321428Y111714286D01*
X66083333Y111714286D01*
X65892857Y111666667D01*
X65797619Y111619048D01*
X65750000Y111571429D01*
X65702380Y111476191D01*
X66702380Y110714286D02*
X65702380Y110714286D01*
X66321428Y110619048D02*
X66702380Y110333334D01*
X66035714Y110333334D02*
X66416666Y110714286D01*
D13*
X67680952Y111566667D02*
X67490476Y111700000D01*
X67680952Y111795239D02*
X67280952Y111795239D01*
X67280952Y111642858D01*
X67300000Y111604762D01*
X67319047Y111585715D01*
X67357142Y111566667D01*
X67414285Y111566667D01*
X67452380Y111585715D01*
X67471428Y111604762D01*
X67490476Y111642858D01*
X67490476Y111795239D01*
X67280952Y111433334D02*
X67280952Y111185715D01*
X67433333Y111319048D01*
X67433333Y111261905D01*
X67452380Y111223810D01*
X67471428Y111204762D01*
X67509523Y111185715D01*
X67604761Y111185715D01*
X67642857Y111204762D01*
X67661904Y111223810D01*
X67680952Y111261905D01*
X67680952Y111376191D01*
X67661904Y111414286D01*
X67642857Y111433334D01*
D12*
X40202380Y103095239D02*
X40202380Y103666667D01*
X40202380Y103380953D02*
X39202380Y103380953D01*
X39345238Y103476191D01*
X39440476Y103571429D01*
X39488095Y103666667D01*
X39202380Y102476191D02*
X39202380Y102380953D01*
X39250000Y102285715D01*
X39297619Y102238096D01*
X39392857Y102190477D01*
X39583333Y102142858D01*
X39821428Y102142858D01*
X40011904Y102190477D01*
X40107142Y102238096D01*
X40154761Y102285715D01*
X40202380Y102380953D01*
X40202380Y102476191D01*
X40154761Y102571429D01*
X40107142Y102619048D01*
X40011904Y102666667D01*
X39821428Y102714286D01*
X39583333Y102714286D01*
X39392857Y102666667D01*
X39297619Y102619048D01*
X39250000Y102571429D01*
X39202380Y102476191D01*
X40202380Y101714286D02*
X39202380Y101714286D01*
X39821428Y101619048D02*
X40202380Y101333334D01*
X39535714Y101333334D02*
X39916666Y101714286D01*
D13*
X39930952Y105316667D02*
X39740476Y105450000D01*
X39930952Y105545239D02*
X39530952Y105545239D01*
X39530952Y105392858D01*
X39550000Y105354762D01*
X39569047Y105335715D01*
X39607142Y105316667D01*
X39664285Y105316667D01*
X39702380Y105335715D01*
X39721428Y105354762D01*
X39740476Y105392858D01*
X39740476Y105545239D01*
X39569047Y105164286D02*
X39550000Y105145239D01*
X39530952Y105107143D01*
X39530952Y105011905D01*
X39550000Y104973810D01*
X39569047Y104954762D01*
X39607142Y104935715D01*
X39645238Y104935715D01*
X39702380Y104954762D01*
X39930952Y105183334D01*
X39930952Y104935715D01*
D12*
X38452380Y103095239D02*
X38452380Y103666667D01*
X38452380Y103380953D02*
X37452380Y103380953D01*
X37595238Y103476191D01*
X37690476Y103571429D01*
X37738095Y103666667D01*
X37452380Y102476191D02*
X37452380Y102380953D01*
X37500000Y102285715D01*
X37547619Y102238096D01*
X37642857Y102190477D01*
X37833333Y102142858D01*
X38071428Y102142858D01*
X38261904Y102190477D01*
X38357142Y102238096D01*
X38404761Y102285715D01*
X38452380Y102380953D01*
X38452380Y102476191D01*
X38404761Y102571429D01*
X38357142Y102619048D01*
X38261904Y102666667D01*
X38071428Y102714286D01*
X37833333Y102714286D01*
X37642857Y102666667D01*
X37547619Y102619048D01*
X37500000Y102571429D01*
X37452380Y102476191D01*
X38452380Y101714286D02*
X37452380Y101714286D01*
X38071428Y101619048D02*
X38452380Y101333334D01*
X37785714Y101333334D02*
X38166666Y101714286D01*
D13*
X38430952Y105316667D02*
X38240476Y105450000D01*
X38430952Y105545239D02*
X38030952Y105545239D01*
X38030952Y105392858D01*
X38050000Y105354762D01*
X38069047Y105335715D01*
X38107142Y105316667D01*
X38164285Y105316667D01*
X38202380Y105335715D01*
X38221428Y105354762D01*
X38240476Y105392858D01*
X38240476Y105545239D01*
X38430952Y104935715D02*
X38430952Y105164286D01*
X38430952Y105050000D02*
X38030952Y105050000D01*
X38088095Y105088096D01*
X38126190Y105126191D01*
X38145238Y105164286D01*
M02*
