solid OpenSCAD_Model
  facet normal 0 0 1
    outer loop
      vertex 9.37391 4.65 8
      vertex 17.0629 10.2177 8
      vertex 16.0023 11.2784 8
    endloop
  endfacet
  facet normal 0 0 1
    outer loop
      vertex 17.0629 10.2177 8
      vertex 9.37391 4.65 8
      vertex 9.99523 3.15 8
    endloop
  endfacet
  facet normal 0 0 1
    outer loop
      vertex 0 3.15 8
      vertex 9.37391 4.65 8
      vertex 0 4.65 8
    endloop
  endfacet
  facet normal 0 0 1
    outer loop
      vertex 9.37391 4.65 8
      vertex 0 3.15 8
      vertex 9.99523 3.15 8
    endloop
  endfacet
  facet normal 0 0 1
    outer loop
      vertex 11.1586 1.9799 8
      vertex 19.2903 7.99031 8
      vertex 18.2296 9.05097 8
    endloop
  endfacet
  facet normal 0 0 1
    outer loop
      vertex 19.2903 7.99031 8
      vertex 11.1586 1.9799 8
      vertex 11.3 0 8
    endloop
  endfacet
  facet normal 0 0 1
    outer loop
      vertex 10 1.5 8
      vertex 11.1586 1.9799 8
      vertex 10 3.13848 8
    endloop
  endfacet
  facet normal 0 0 1
    outer loop
      vertex 11.1586 1.9799 8
      vertex 10 1.5 8
      vertex 11.3 0 8
    endloop
  endfacet
  facet normal 0 0 1
    outer loop
      vertex 0 0 8
      vertex 10 1.5 8
      vertex 0 1.5 8
    endloop
  endfacet
  facet normal 0 0 1
    outer loop
      vertex 10 1.5 8
      vertex 0 0 8
      vertex 11.3 0 8
    endloop
  endfacet
  facet normal 0 0 -1
    outer loop
      vertex 9.37391 4.65 0
      vertex 19.2903 7.99031 0
      vertex 11.3 0 0
    endloop
  endfacet
  facet normal -0 0 -1
    outer loop
      vertex 19.2903 7.99031 0
      vertex 9.37391 4.65 0
      vertex 16.0023 11.2784 0
    endloop
  endfacet
  facet normal 0 0 -1
    outer loop
      vertex 0 0 0
      vertex 9.37391 4.65 0
      vertex 11.3 0 0
    endloop
  endfacet
  facet normal -0 0 -1
    outer loop
      vertex 9.37391 4.65 0
      vertex 0 0 0
      vertex 0 4.65 0
    endloop
  endfacet
  facet normal -1 0 0
    outer loop
      vertex 0 4.65 0
      vertex 0 3.15 1
      vertex 0 4.65 8
    endloop
  endfacet
  facet normal -1 0 0
    outer loop
      vertex 0 4.65 0
      vertex 0 1.5 1
      vertex 0 3.15 1
    endloop
  endfacet
  facet normal -1 0 0
    outer loop
      vertex 0 0 0
      vertex 0 1.5 1
      vertex 0 4.65 0
    endloop
  endfacet
  facet normal -1 0 0
    outer loop
      vertex 0 0 8
      vertex 0 1.5 1
      vertex 0 0 0
    endloop
  endfacet
  facet normal -1 0 0
    outer loop
      vertex 0 1.5 1
      vertex 0 0 8
      vertex 0 1.5 8
    endloop
  endfacet
  facet normal -1 -0 0
    outer loop
      vertex 0 4.65 8
      vertex 0 3.15 1
      vertex 0 3.15 8
    endloop
  endfacet
  facet normal 0 1 -0
    outer loop
      vertex 9.37391 4.65 0
      vertex 0 4.65 8
      vertex 9.37391 4.65 8
    endloop
  endfacet
  facet normal 0 1 0
    outer loop
      vertex 0 4.65 8
      vertex 9.37391 4.65 0
      vertex 0 4.65 0
    endloop
  endfacet
  facet normal 0 -1 0
    outer loop
      vertex 0 0 0
      vertex 11.3 0 8
      vertex 0 0 8
    endloop
  endfacet
  facet normal 0 -1 -0
    outer loop
      vertex 11.3 0 8
      vertex 0 0 0
      vertex 11.3 0 0
    endloop
  endfacet
  facet normal -0.707107 0.707106 0
    outer loop
      vertex 9.37391 4.65 0
      vertex 16.0023 11.2784 8
      vertex 16.0023 11.2784 0
    endloop
  endfacet
  facet normal -0.707107 0.707106 0
    outer loop
      vertex 16.0023 11.2784 8
      vertex 9.37391 4.65 0
      vertex 9.37391 4.65 8
    endloop
  endfacet
  facet normal 0.707107 -0.707106 2.065e-05
    outer loop
      vertex 11.3 0 8
      vertex 14.3406 3.04056 6.5
      vertex 19.2903 7.99031 8
    endloop
  endfacet
  facet normal 0.707102 -0.707111 0
    outer loop
      vertex 11.3 0 8
      vertex 14.3406 3.04056 4.5
      vertex 14.3406 3.04056 6.5
    endloop
  endfacet
  facet normal 0.707107 -0.707106 -6.88334e-06
    outer loop
      vertex 19.2903 7.99031 0
      vertex 14.3406 3.04056 4.5
      vertex 11.3 0 0
    endloop
  endfacet
  facet normal 0.707102 -0.707111 0
    outer loop
      vertex 11.3 0 0
      vertex 14.3406 3.04056 4.5
      vertex 11.3 0 8
    endloop
  endfacet
  facet normal 0.70711 -0.707103 1.57134e-06
    outer loop
      vertex 18.5832 7.2832 6.5
      vertex 19.2903 7.99031 8
      vertex 14.3406 3.04056 6.5
    endloop
  endfacet
  facet normal 0.707112 -0.707102 0
    outer loop
      vertex 18.5832 7.2832 4.5
      vertex 19.2903 7.99031 8
      vertex 18.5832 7.2832 6.5
    endloop
  endfacet
  facet normal 0.707112 -0.707102 0
    outer loop
      vertex 18.5832 7.2832 4.5
      vertex 19.2903 7.99031 0
      vertex 19.2903 7.99031 8
    endloop
  endfacet
  facet normal 0.70711 -0.707103 -5.2378e-07
    outer loop
      vertex 14.3406 3.04056 4.5
      vertex 19.2903 7.99031 0
      vertex 18.5832 7.2832 4.5
    endloop
  endfacet
  facet normal 0.707093 0.70712 0
    outer loop
      vertex 19.2903 7.99031 8
      vertex 18.2296 9.05097 1
      vertex 18.2296 9.05097 8
    endloop
  endfacet
  facet normal 0.707116 0.707098 4.75695e-05
    outer loop
      vertex 18.2296 9.05097 1
      vertex 19.2903 7.99031 0
      vertex 17.0629 10.2177 1
    endloop
  endfacet
  facet normal 0.707093 0.70712 -0
    outer loop
      vertex 19.2903 7.99031 0
      vertex 18.2296 9.05097 1
      vertex 19.2903 7.99031 8
    endloop
  endfacet
  facet normal 0.70714 0.707073 -0
    outer loop
      vertex 17.0629 10.2177 1
      vertex 16.0023 11.2784 8
      vertex 17.0629 10.2177 8
    endloop
  endfacet
  facet normal 0.70714 0.707073 0
    outer loop
      vertex 17.0629 10.2177 1
      vertex 16.0023 11.2784 0
      vertex 16.0023 11.2784 8
    endloop
  endfacet
  facet normal 0.707116 0.707097 5.0182e-05
    outer loop
      vertex 16.0023 11.2784 0
      vertex 17.0629 10.2177 1
      vertex 19.2903 7.99031 0
    endloop
  endfacet
  facet normal -1 0 0
    outer loop
      vertex 10 1.5 1
      vertex 10 3.13848 8
      vertex 10 3.13848 1
    endloop
  endfacet
  facet normal -1 -0 0
    outer loop
      vertex 10 3.13848 8
      vertex 10 1.5 1
      vertex 10 1.5 8
    endloop
  endfacet
  facet normal 0 0 1
    outer loop
      vertex 17.0629 10.2177 1
      vertex 11.1586 1.9799 1
      vertex 18.2296 9.05097 1
    endloop
  endfacet
  facet normal -0 0 1
    outer loop
      vertex 9.99523 3.15 1
      vertex 11.1586 1.9799 1
      vertex 17.0629 10.2177 1
    endloop
  endfacet
  facet normal 0 0 1
    outer loop
      vertex 11.1586 1.9799 1
      vertex 9.99523 3.15 1
      vertex 10 3.13848 1
    endloop
  endfacet
  facet normal 0 0 1
    outer loop
      vertex 9.99523 3.15 1
      vertex 10 1.5 1
      vertex 10 3.13848 1
    endloop
  endfacet
  facet normal -0 0 1
    outer loop
      vertex 0 3.15 1
      vertex 10 1.5 1
      vertex 9.99523 3.15 1
    endloop
  endfacet
  facet normal 0 0 1
    outer loop
      vertex 10 1.5 1
      vertex 0 3.15 1
      vertex 0 1.5 1
    endloop
  endfacet
  facet normal 0 -1 0
    outer loop
      vertex 0 3.15 1
      vertex 9.99523 3.15 8
      vertex 0 3.15 8
    endloop
  endfacet
  facet normal 0 -1 -0
    outer loop
      vertex 9.99523 3.15 8
      vertex 0 3.15 1
      vertex 9.99523 3.15 1
    endloop
  endfacet
  facet normal 0 1 0
    outer loop
      vertex 10 1.5 8
      vertex 7 1.5 6.5
      vertex 0 1.5 8
    endloop
  endfacet
  facet normal 0 1 0
    outer loop
      vertex 10 1.5 8
      vertex 7 1.5 4.5
      vertex 7 1.5 6.5
    endloop
  endfacet
  facet normal 0 1 0
    outer loop
      vertex 0 1.5 1
      vertex 7 1.5 4.5
      vertex 10 1.5 1
    endloop
  endfacet
  facet normal 0 1 -0
    outer loop
      vertex 10 1.5 1
      vertex 7 1.5 4.5
      vertex 10 1.5 8
    endloop
  endfacet
  facet normal 0 1 -0
    outer loop
      vertex 1 1.5 6.5
      vertex 0 1.5 8
      vertex 7 1.5 6.5
    endloop
  endfacet
  facet normal 0 1 -0
    outer loop
      vertex 1 1.5 4.5
      vertex 0 1.5 8
      vertex 1 1.5 6.5
    endloop
  endfacet
  facet normal 0 1 0
    outer loop
      vertex 1 1.5 4.5
      vertex 0 1.5 1
      vertex 0 1.5 8
    endloop
  endfacet
  facet normal 0 1 0
    outer loop
      vertex 7 1.5 4.5
      vertex 0 1.5 1
      vertex 1 1.5 4.5
    endloop
  endfacet
  facet normal 0.707101 0.707113 0
    outer loop
      vertex 11.1586 1.9799 8
      vertex 10 3.13848 1
      vertex 10 3.13848 8
    endloop
  endfacet
  facet normal 0.707101 0.707113 0
    outer loop
      vertex 10 3.13848 1
      vertex 11.1586 1.9799 8
      vertex 11.1586 1.9799 1
    endloop
  endfacet
  facet normal 0.707108 -0.707105 0
    outer loop
      vertex 9.99523 3.15 8
      vertex 17.0629 10.2177 1
      vertex 17.0629 10.2177 8
    endloop
  endfacet
  facet normal 0.707108 -0.707105 0
    outer loop
      vertex 17.0629 10.2177 1
      vertex 9.99523 3.15 8
      vertex 9.99523 3.15 1
    endloop
  endfacet
  facet normal -0.707112 0.707102 0
    outer loop
      vertex 18.2296 9.05097 1
      vertex 17.5225 8.34386 4.5
      vertex 18.2296 9.05097 8
    endloop
  endfacet
  facet normal -0.70711 0.707103 6.73432e-07
    outer loop
      vertex 18.2296 9.05097 1
      vertex 13.2799 4.10122 4.5
      vertex 17.5225 8.34386 4.5
    endloop
  endfacet
  facet normal -0.70711 0.707103 0
    outer loop
      vertex 11.1586 1.9799 8
      vertex 13.2799 4.10122 4.5
      vertex 11.1586 1.9799 1
    endloop
  endfacet
  facet normal -0.70711 0.707103 2.0203e-07
    outer loop
      vertex 11.1586 1.9799 1
      vertex 13.2799 4.10122 4.5
      vertex 18.2296 9.05097 1
    endloop
  endfacet
  facet normal -0.707112 0.707102 0
    outer loop
      vertex 17.5225 8.34386 6.5
      vertex 18.2296 9.05097 8
      vertex 17.5225 8.34386 4.5
    endloop
  endfacet
  facet normal -0.70711 0.707103 -1.57134e-06
    outer loop
      vertex 13.2799 4.10122 6.5
      vertex 18.2296 9.05097 8
      vertex 17.5225 8.34386 6.5
    endloop
  endfacet
  facet normal -0.70711 0.707103 -4.71402e-07
    outer loop
      vertex 13.2799 4.10122 6.5
      vertex 11.1586 1.9799 8
      vertex 18.2296 9.05097 8
    endloop
  endfacet
  facet normal -0.70711 0.707103 0
    outer loop
      vertex 13.2799 4.10122 4.5
      vertex 11.1586 1.9799 8
      vertex 13.2799 4.10122 6.5
    endloop
  endfacet
  facet normal 1 -0 0
    outer loop
      vertex 7 1.5 6.5
      vertex 7 1.65 4.5
      vertex 7 1.65 6.5
    endloop
  endfacet
  facet normal 1 0 0
    outer loop
      vertex 7 1.65 4.5
      vertex 7 1.5 6.5
      vertex 7 1.5 4.5
    endloop
  endfacet
  facet normal -0 0 1
    outer loop
      vertex 1 1.65 6.5
      vertex 7 1.5 6.5
      vertex 7 1.65 6.5
    endloop
  endfacet
  facet normal 0 0 1
    outer loop
      vertex 7 1.5 6.5
      vertex 1 1.65 6.5
      vertex 1 1.5 6.5
    endloop
  endfacet
  facet normal 0 0 -1
    outer loop
      vertex 1 1.5 4.5
      vertex 7 1.65 4.5
      vertex 7 1.5 4.5
    endloop
  endfacet
  facet normal -0 0 -1
    outer loop
      vertex 7 1.65 4.5
      vertex 1 1.5 4.5
      vertex 1 1.65 4.5
    endloop
  endfacet
  facet normal -1 0 0
    outer loop
      vertex 1 1.5 4.5
      vertex 1 1.65 6.5
      vertex 1 1.65 4.5
    endloop
  endfacet
  facet normal -1 -0 0
    outer loop
      vertex 1 1.65 6.5
      vertex 1 1.5 4.5
      vertex 1 1.5 6.5
    endloop
  endfacet
  facet normal 0 1 -0
    outer loop
      vertex 7 1.65 4.5
      vertex 1 1.65 6.5
      vertex 7 1.65 6.5
    endloop
  endfacet
  facet normal 0 1 0
    outer loop
      vertex 1 1.65 6.5
      vertex 7 1.65 4.5
      vertex 1 1.65 4.5
    endloop
  endfacet
  facet normal 0 0 1
    outer loop
      vertex 17.4165 8.44993 6.5
      vertex 13.2799 4.10122 6.5
      vertex 17.5225 8.34386 6.5
    endloop
  endfacet
  facet normal 0 -0 1
    outer loop
      vertex 13.2799 4.10122 6.5
      vertex 17.4165 8.44993 6.5
      vertex 13.1738 4.20728 6.5
    endloop
  endfacet
  facet normal -0.706973 -0.70724 0
    outer loop
      vertex 13.2799 4.10122 4.5
      vertex 13.1738 4.20728 6.5
      vertex 13.1738 4.20728 4.5
    endloop
  endfacet
  facet normal -0.706973 -0.70724 0
    outer loop
      vertex 13.1738 4.20728 6.5
      vertex 13.2799 4.10122 4.5
      vertex 13.2799 4.10122 6.5
    endloop
  endfacet
  facet normal -0.707103 0.707111 0
    outer loop
      vertex 13.1738 4.20728 4.5
      vertex 17.4165 8.44993 6.5
      vertex 17.4165 8.44993 4.5
    endloop
  endfacet
  facet normal -0.707103 0.707111 0
    outer loop
      vertex 17.4165 8.44993 6.5
      vertex 13.1738 4.20728 4.5
      vertex 13.1738 4.20728 6.5
    endloop
  endfacet
  facet normal 0 0 -1
    outer loop
      vertex 13.2799 4.10122 4.5
      vertex 17.4165 8.44993 4.5
      vertex 17.5225 8.34386 4.5
    endloop
  endfacet
  facet normal 0 0 -1
    outer loop
      vertex 17.4165 8.44993 4.5
      vertex 13.2799 4.10122 4.5
      vertex 13.1738 4.20728 4.5
    endloop
  endfacet
  facet normal 0.70711 -0.707103 0
    outer loop
      vertex 14.3406 3.04056 6.5
      vertex 18.5832 7.2832 4.5
      vertex 18.5832 7.2832 6.5
    endloop
  endfacet
  facet normal 0.70711 -0.707103 0
    outer loop
      vertex 18.5832 7.2832 4.5
      vertex 14.3406 3.04056 6.5
      vertex 14.3406 3.04056 4.5
    endloop
  endfacet
  facet normal 0.70734 0.706873 0
    outer loop
      vertex 17.5225 8.34386 6.5
      vertex 17.4165 8.44993 4.5
      vertex 17.4165 8.44993 6.5
    endloop
  endfacet
  facet normal 0.70734 0.706873 0
    outer loop
      vertex 17.4165 8.44993 4.5
      vertex 17.5225 8.34386 6.5
      vertex 17.5225 8.34386 4.5
    endloop
  endfacet
endsolid OpenSCAD_Model
