G04 #@! TF.GenerationSoftware,KiCad,Pcbnew,(5.1.5)-3*
G04 #@! TF.CreationDate,2020-05-31T21:02:15+02:00*
G04 #@! TF.ProjectId,cz-badge-hardware,637a2d62-6164-4676-952d-686172647761,rev?*
G04 #@! TF.SameCoordinates,PX17d7840PY7735940*
G04 #@! TF.FileFunction,Paste,Top*
G04 #@! TF.FilePolarity,Positive*
%FSLAX46Y46*%
G04 Gerber Fmt 4.6, Leading zero omitted, Abs format (unit mm)*
G04 Created by KiCad (PCBNEW (5.1.5)-3) date 2020-05-31 21:02:15*
%MOMM*%
%LPD*%
G04 APERTURE LIST*
%ADD10R,1.000000X0.800000*%
G04 APERTURE END LIST*
D10*
X86250000Y11800000D03*
X88750000Y11800000D03*
X88750000Y13200000D03*
X86250000Y13200000D03*
X86250000Y36800000D03*
X88750000Y36800000D03*
X88750000Y38200000D03*
X86250000Y38200000D03*
X86250000Y61800000D03*
X88750000Y61800000D03*
X88750000Y63200000D03*
X86250000Y63200000D03*
X86250000Y86800000D03*
X88750000Y86800000D03*
X88750000Y88200000D03*
X86250000Y88200000D03*
X61250000Y11800000D03*
X63750000Y11800000D03*
X63750000Y13200000D03*
X61250000Y13200000D03*
X61250000Y36800000D03*
X63750000Y36800000D03*
X63750000Y38200000D03*
X61250000Y38200000D03*
X61250000Y61800000D03*
X63750000Y61800000D03*
X63750000Y63200000D03*
X61250000Y63200000D03*
X61250000Y86800000D03*
X63750000Y86800000D03*
X63750000Y88200000D03*
X61250000Y88200000D03*
X36250000Y11800000D03*
X38750000Y11800000D03*
X38750000Y13200000D03*
X36250000Y13200000D03*
X36250000Y36800000D03*
X38750000Y36800000D03*
X38750000Y38200000D03*
X36250000Y38200000D03*
X36250000Y61800000D03*
X38750000Y61800000D03*
X38750000Y63200000D03*
X36250000Y63200000D03*
X36250000Y86800000D03*
X38750000Y86800000D03*
X38750000Y88200000D03*
X36250000Y88200000D03*
X11250000Y11800000D03*
X13750000Y11800000D03*
X13750000Y13200000D03*
X11250000Y13200000D03*
X11250000Y36800000D03*
X13750000Y36800000D03*
X13750000Y38200000D03*
X11250000Y38200000D03*
X11250000Y61800000D03*
X13750000Y61800000D03*
X13750000Y63200000D03*
X11250000Y63200000D03*
X11250000Y86800000D03*
X13750000Y86800000D03*
X13750000Y88200000D03*
X11250000Y88200000D03*
M02*
