G04 #@! TF.GenerationSoftware,KiCad,Pcbnew,(5.1.5)-3*
G04 #@! TF.CreationDate,2020-06-01T09:55:04+02:00*
G04 #@! TF.ProjectId,cz-badge-hardware,637a2d62-6164-4676-952d-686172647761,rev?*
G04 #@! TF.SameCoordinates,PX17d7840PY7735940*
G04 #@! TF.FileFunction,Soldermask,Top*
G04 #@! TF.FilePolarity,Negative*
%FSLAX46Y46*%
G04 Gerber Fmt 4.6, Leading zero omitted, Abs format (unit mm)*
G04 Created by KiCad (PCBNEW (5.1.5)-3) date 2020-06-01 09:55:04*
%MOMM*%
%LPD*%
G04 APERTURE LIST*
%ADD10C,0.010000*%
%ADD11C,0.100000*%
G04 APERTURE END LIST*
D10*
G36*
X79299392Y108457114D02*
G01*
X79526579Y108442704D01*
X79718462Y108412319D01*
X79911941Y108360749D01*
X80064637Y108310444D01*
X80652534Y108055199D01*
X81165183Y107720827D01*
X81601413Y107308502D01*
X81960051Y106819394D01*
X82239926Y106254676D01*
X82310445Y106064637D01*
X82379554Y105848734D01*
X82423905Y105659732D01*
X82448709Y105460732D01*
X82459175Y105214831D01*
X82460761Y105000000D01*
X82457115Y104700608D01*
X82442705Y104473421D01*
X82412320Y104281538D01*
X82360750Y104088059D01*
X82310445Y103935363D01*
X82055248Y103348738D01*
X81720350Y102835463D01*
X81308893Y102398689D01*
X80824017Y102041567D01*
X80268866Y101767249D01*
X80081147Y101698897D01*
X79699091Y101601177D01*
X79271873Y101541730D01*
X78844824Y101524325D01*
X78463273Y101552735D01*
X78416748Y101560460D01*
X77823793Y101720569D01*
X77278611Y101975369D01*
X76789393Y102317729D01*
X76364328Y102740516D01*
X76011608Y103236597D01*
X75739424Y103798839D01*
X75689556Y103935363D01*
X75620447Y104151265D01*
X75576096Y104340267D01*
X75551292Y104539267D01*
X75540826Y104785168D01*
X75539240Y105000000D01*
X75539285Y105003757D01*
X77470538Y105003757D01*
X77508216Y104932131D01*
X77609203Y104805870D01*
X77755430Y104643133D01*
X77928828Y104462078D01*
X78111328Y104280865D01*
X78284860Y104117651D01*
X78431357Y103990596D01*
X78532748Y103917858D01*
X78561363Y103907526D01*
X78621524Y103944735D01*
X78746662Y104049284D01*
X78925216Y104210555D01*
X79145626Y104417932D01*
X79396334Y104660798D01*
X79586635Y104849199D01*
X79848634Y105114246D01*
X80082646Y105357440D01*
X80278038Y105567197D01*
X80424174Y105731933D01*
X80510418Y105840065D01*
X80529463Y105876124D01*
X80482504Y106002478D01*
X80371031Y106082992D01*
X80314340Y106092473D01*
X80252360Y106055329D01*
X80126428Y105951443D01*
X79949023Y105792132D01*
X79732622Y105588713D01*
X79489704Y105352506D01*
X79397017Y105260477D01*
X78563720Y104428481D01*
X78166060Y104823488D01*
X77991569Y104989133D01*
X77838369Y105120598D01*
X77726752Y105201218D01*
X77685017Y105218494D01*
X77560144Y105171382D01*
X77480022Y105060094D01*
X77470538Y105003757D01*
X75539285Y105003757D01*
X75542886Y105299391D01*
X75557296Y105526578D01*
X75587681Y105718461D01*
X75639251Y105911940D01*
X75689556Y106064637D01*
X75944801Y106652533D01*
X76279173Y107165182D01*
X76691498Y107601412D01*
X77180606Y107960050D01*
X77745324Y108239925D01*
X77935363Y108310444D01*
X78151266Y108379553D01*
X78340268Y108423904D01*
X78539268Y108448708D01*
X78785169Y108459174D01*
X79000000Y108460760D01*
X79299392Y108457114D01*
G37*
X79299392Y108457114D02*
X79526579Y108442704D01*
X79718462Y108412319D01*
X79911941Y108360749D01*
X80064637Y108310444D01*
X80652534Y108055199D01*
X81165183Y107720827D01*
X81601413Y107308502D01*
X81960051Y106819394D01*
X82239926Y106254676D01*
X82310445Y106064637D01*
X82379554Y105848734D01*
X82423905Y105659732D01*
X82448709Y105460732D01*
X82459175Y105214831D01*
X82460761Y105000000D01*
X82457115Y104700608D01*
X82442705Y104473421D01*
X82412320Y104281538D01*
X82360750Y104088059D01*
X82310445Y103935363D01*
X82055248Y103348738D01*
X81720350Y102835463D01*
X81308893Y102398689D01*
X80824017Y102041567D01*
X80268866Y101767249D01*
X80081147Y101698897D01*
X79699091Y101601177D01*
X79271873Y101541730D01*
X78844824Y101524325D01*
X78463273Y101552735D01*
X78416748Y101560460D01*
X77823793Y101720569D01*
X77278611Y101975369D01*
X76789393Y102317729D01*
X76364328Y102740516D01*
X76011608Y103236597D01*
X75739424Y103798839D01*
X75689556Y103935363D01*
X75620447Y104151265D01*
X75576096Y104340267D01*
X75551292Y104539267D01*
X75540826Y104785168D01*
X75539240Y105000000D01*
X75539285Y105003757D01*
X77470538Y105003757D01*
X77508216Y104932131D01*
X77609203Y104805870D01*
X77755430Y104643133D01*
X77928828Y104462078D01*
X78111328Y104280865D01*
X78284860Y104117651D01*
X78431357Y103990596D01*
X78532748Y103917858D01*
X78561363Y103907526D01*
X78621524Y103944735D01*
X78746662Y104049284D01*
X78925216Y104210555D01*
X79145626Y104417932D01*
X79396334Y104660798D01*
X79586635Y104849199D01*
X79848634Y105114246D01*
X80082646Y105357440D01*
X80278038Y105567197D01*
X80424174Y105731933D01*
X80510418Y105840065D01*
X80529463Y105876124D01*
X80482504Y106002478D01*
X80371031Y106082992D01*
X80314340Y106092473D01*
X80252360Y106055329D01*
X80126428Y105951443D01*
X79949023Y105792132D01*
X79732622Y105588713D01*
X79489704Y105352506D01*
X79397017Y105260477D01*
X78563720Y104428481D01*
X78166060Y104823488D01*
X77991569Y104989133D01*
X77838369Y105120598D01*
X77726752Y105201218D01*
X77685017Y105218494D01*
X77560144Y105171382D01*
X77480022Y105060094D01*
X77470538Y105003757D01*
X75539285Y105003757D01*
X75542886Y105299391D01*
X75557296Y105526578D01*
X75587681Y105718461D01*
X75639251Y105911940D01*
X75689556Y106064637D01*
X75944801Y106652533D01*
X76279173Y107165182D01*
X76691498Y107601412D01*
X77180606Y107960050D01*
X77745324Y108239925D01*
X77935363Y108310444D01*
X78151266Y108379553D01*
X78340268Y108423904D01*
X78539268Y108448708D01*
X78785169Y108459174D01*
X79000000Y108460760D01*
X79299392Y108457114D01*
G36*
X68299392Y108457114D02*
G01*
X68526579Y108442704D01*
X68718462Y108412319D01*
X68911941Y108360749D01*
X69064637Y108310444D01*
X69652534Y108055199D01*
X70165183Y107720827D01*
X70601413Y107308502D01*
X70960051Y106819394D01*
X71239926Y106254676D01*
X71310445Y106064637D01*
X71379554Y105848734D01*
X71423905Y105659732D01*
X71448709Y105460732D01*
X71459175Y105214831D01*
X71460761Y105000000D01*
X71457115Y104700608D01*
X71442705Y104473421D01*
X71412320Y104281538D01*
X71360750Y104088059D01*
X71310445Y103935363D01*
X71055248Y103348738D01*
X70720350Y102835463D01*
X70308893Y102398689D01*
X69824017Y102041567D01*
X69268866Y101767249D01*
X69081147Y101698897D01*
X68699091Y101601177D01*
X68271873Y101541730D01*
X67844824Y101524325D01*
X67463273Y101552735D01*
X67416748Y101560460D01*
X66823793Y101720569D01*
X66278611Y101975369D01*
X65789393Y102317729D01*
X65364328Y102740516D01*
X65011608Y103236597D01*
X64739424Y103798839D01*
X64712528Y103872474D01*
X66698840Y103872474D01*
X66718302Y103799195D01*
X66754581Y103754580D01*
X66822420Y103706788D01*
X66900691Y103702937D01*
X67002836Y103751004D01*
X67142295Y103858967D01*
X67332511Y104034803D01*
X67493705Y104193222D01*
X68000000Y104697412D01*
X68506296Y104193222D01*
X68737704Y103967838D01*
X68909418Y103815631D01*
X69034878Y103728624D01*
X69127526Y103698839D01*
X69200805Y103718301D01*
X69245420Y103754580D01*
X69293212Y103822419D01*
X69297063Y103900690D01*
X69248996Y104002835D01*
X69141033Y104142294D01*
X68965197Y104332510D01*
X68806778Y104493704D01*
X68302588Y105000000D01*
X68806778Y105506295D01*
X69032162Y105737703D01*
X69184369Y105909417D01*
X69271376Y106034877D01*
X69301161Y106127526D01*
X69281699Y106200804D01*
X69245420Y106245419D01*
X69177581Y106293211D01*
X69099310Y106297062D01*
X68997165Y106248995D01*
X68857706Y106141032D01*
X68667490Y105965196D01*
X68506296Y105806777D01*
X68000000Y105302587D01*
X67493705Y105806777D01*
X67262297Y106032161D01*
X67090583Y106184368D01*
X66965123Y106271376D01*
X66872474Y106301160D01*
X66799196Y106281698D01*
X66754581Y106245419D01*
X66706789Y106177580D01*
X66702938Y106099309D01*
X66751005Y105997164D01*
X66858968Y105857705D01*
X67034804Y105667489D01*
X67193223Y105506295D01*
X67697413Y105000000D01*
X67193223Y104493704D01*
X66967839Y104262296D01*
X66815632Y104090582D01*
X66728624Y103965122D01*
X66698840Y103872474D01*
X64712528Y103872474D01*
X64689556Y103935363D01*
X64620447Y104151265D01*
X64576096Y104340267D01*
X64551292Y104539267D01*
X64540826Y104785168D01*
X64539240Y105000000D01*
X64542886Y105299391D01*
X64557296Y105526578D01*
X64587681Y105718461D01*
X64639251Y105911940D01*
X64689556Y106064637D01*
X64944801Y106652533D01*
X65279173Y107165182D01*
X65691498Y107601412D01*
X66180606Y107960050D01*
X66745324Y108239925D01*
X66935363Y108310444D01*
X67151266Y108379553D01*
X67340268Y108423904D01*
X67539268Y108448708D01*
X67785169Y108459174D01*
X68000000Y108460760D01*
X68299392Y108457114D01*
G37*
X68299392Y108457114D02*
X68526579Y108442704D01*
X68718462Y108412319D01*
X68911941Y108360749D01*
X69064637Y108310444D01*
X69652534Y108055199D01*
X70165183Y107720827D01*
X70601413Y107308502D01*
X70960051Y106819394D01*
X71239926Y106254676D01*
X71310445Y106064637D01*
X71379554Y105848734D01*
X71423905Y105659732D01*
X71448709Y105460732D01*
X71459175Y105214831D01*
X71460761Y105000000D01*
X71457115Y104700608D01*
X71442705Y104473421D01*
X71412320Y104281538D01*
X71360750Y104088059D01*
X71310445Y103935363D01*
X71055248Y103348738D01*
X70720350Y102835463D01*
X70308893Y102398689D01*
X69824017Y102041567D01*
X69268866Y101767249D01*
X69081147Y101698897D01*
X68699091Y101601177D01*
X68271873Y101541730D01*
X67844824Y101524325D01*
X67463273Y101552735D01*
X67416748Y101560460D01*
X66823793Y101720569D01*
X66278611Y101975369D01*
X65789393Y102317729D01*
X65364328Y102740516D01*
X65011608Y103236597D01*
X64739424Y103798839D01*
X64712528Y103872474D01*
X66698840Y103872474D01*
X66718302Y103799195D01*
X66754581Y103754580D01*
X66822420Y103706788D01*
X66900691Y103702937D01*
X67002836Y103751004D01*
X67142295Y103858967D01*
X67332511Y104034803D01*
X67493705Y104193222D01*
X68000000Y104697412D01*
X68506296Y104193222D01*
X68737704Y103967838D01*
X68909418Y103815631D01*
X69034878Y103728624D01*
X69127526Y103698839D01*
X69200805Y103718301D01*
X69245420Y103754580D01*
X69293212Y103822419D01*
X69297063Y103900690D01*
X69248996Y104002835D01*
X69141033Y104142294D01*
X68965197Y104332510D01*
X68806778Y104493704D01*
X68302588Y105000000D01*
X68806778Y105506295D01*
X69032162Y105737703D01*
X69184369Y105909417D01*
X69271376Y106034877D01*
X69301161Y106127526D01*
X69281699Y106200804D01*
X69245420Y106245419D01*
X69177581Y106293211D01*
X69099310Y106297062D01*
X68997165Y106248995D01*
X68857706Y106141032D01*
X68667490Y105965196D01*
X68506296Y105806777D01*
X68000000Y105302587D01*
X67493705Y105806777D01*
X67262297Y106032161D01*
X67090583Y106184368D01*
X66965123Y106271376D01*
X66872474Y106301160D01*
X66799196Y106281698D01*
X66754581Y106245419D01*
X66706789Y106177580D01*
X66702938Y106099309D01*
X66751005Y105997164D01*
X66858968Y105857705D01*
X67034804Y105667489D01*
X67193223Y105506295D01*
X67697413Y105000000D01*
X67193223Y104493704D01*
X66967839Y104262296D01*
X66815632Y104090582D01*
X66728624Y103965122D01*
X66698840Y103872474D01*
X64712528Y103872474D01*
X64689556Y103935363D01*
X64620447Y104151265D01*
X64576096Y104340267D01*
X64551292Y104539267D01*
X64540826Y104785168D01*
X64539240Y105000000D01*
X64542886Y105299391D01*
X64557296Y105526578D01*
X64587681Y105718461D01*
X64639251Y105911940D01*
X64689556Y106064637D01*
X64944801Y106652533D01*
X65279173Y107165182D01*
X65691498Y107601412D01*
X66180606Y107960050D01*
X66745324Y108239925D01*
X66935363Y108310444D01*
X67151266Y108379553D01*
X67340268Y108423904D01*
X67539268Y108448708D01*
X67785169Y108459174D01*
X68000000Y108460760D01*
X68299392Y108457114D01*
G36*
X32299392Y108457114D02*
G01*
X32526579Y108442704D01*
X32718462Y108412319D01*
X32911941Y108360749D01*
X33064637Y108310444D01*
X33652534Y108055199D01*
X34165183Y107720827D01*
X34601413Y107308502D01*
X34960051Y106819394D01*
X35239926Y106254676D01*
X35310445Y106064637D01*
X35379554Y105848734D01*
X35423905Y105659732D01*
X35448709Y105460732D01*
X35459175Y105214831D01*
X35460761Y105000000D01*
X35457115Y104700608D01*
X35442705Y104473421D01*
X35412320Y104281538D01*
X35360750Y104088059D01*
X35310445Y103935363D01*
X35055248Y103348738D01*
X34720350Y102835463D01*
X34308893Y102398689D01*
X33824017Y102041567D01*
X33268866Y101767249D01*
X33081147Y101698897D01*
X32699091Y101601177D01*
X32271873Y101541730D01*
X31844824Y101524325D01*
X31463273Y101552735D01*
X31416748Y101560460D01*
X30823793Y101720569D01*
X30278611Y101975369D01*
X29789393Y102317729D01*
X29364328Y102740516D01*
X29011608Y103236597D01*
X28739424Y103798839D01*
X28689556Y103935363D01*
X28620447Y104151265D01*
X28576096Y104340267D01*
X28551292Y104539267D01*
X28540826Y104785168D01*
X28539240Y105000000D01*
X28542886Y105299391D01*
X28557296Y105526578D01*
X28587681Y105718461D01*
X28639251Y105911940D01*
X28689556Y106064637D01*
X28798061Y106314553D01*
X31344517Y106314553D01*
X31381469Y106248919D01*
X31483496Y106122210D01*
X31637354Y105949519D01*
X31829799Y105745935D01*
X31958142Y105615370D01*
X32571767Y105000000D01*
X31958142Y104384629D01*
X31748917Y104169762D01*
X31570341Y103976742D01*
X31435657Y103820660D01*
X31358110Y103716607D01*
X31344517Y103685446D01*
X31391662Y103560139D01*
X31503189Y103479967D01*
X31559548Y103470537D01*
X31623152Y103507595D01*
X31749469Y103610658D01*
X31924892Y103767559D01*
X32135819Y103966131D01*
X32367978Y104193542D01*
X32596424Y104425717D01*
X32795282Y104635846D01*
X32952367Y104810389D01*
X33055493Y104935808D01*
X33092474Y104998508D01*
X33054828Y105064838D01*
X32951877Y105190288D01*
X32798595Y105359889D01*
X32609958Y105558667D01*
X32400944Y105771653D01*
X32186528Y105983874D01*
X31981685Y106180360D01*
X31801392Y106346138D01*
X31660626Y106466238D01*
X31574362Y106525688D01*
X31561039Y106529462D01*
X31434643Y106482586D01*
X31354047Y106371304D01*
X31344517Y106314553D01*
X28798061Y106314553D01*
X28944801Y106652533D01*
X29279173Y107165182D01*
X29691498Y107601412D01*
X30180606Y107960050D01*
X30745324Y108239925D01*
X30935363Y108310444D01*
X31151266Y108379553D01*
X31340268Y108423904D01*
X31539268Y108448708D01*
X31785169Y108459174D01*
X32000000Y108460760D01*
X32299392Y108457114D01*
G37*
X32299392Y108457114D02*
X32526579Y108442704D01*
X32718462Y108412319D01*
X32911941Y108360749D01*
X33064637Y108310444D01*
X33652534Y108055199D01*
X34165183Y107720827D01*
X34601413Y107308502D01*
X34960051Y106819394D01*
X35239926Y106254676D01*
X35310445Y106064637D01*
X35379554Y105848734D01*
X35423905Y105659732D01*
X35448709Y105460732D01*
X35459175Y105214831D01*
X35460761Y105000000D01*
X35457115Y104700608D01*
X35442705Y104473421D01*
X35412320Y104281538D01*
X35360750Y104088059D01*
X35310445Y103935363D01*
X35055248Y103348738D01*
X34720350Y102835463D01*
X34308893Y102398689D01*
X33824017Y102041567D01*
X33268866Y101767249D01*
X33081147Y101698897D01*
X32699091Y101601177D01*
X32271873Y101541730D01*
X31844824Y101524325D01*
X31463273Y101552735D01*
X31416748Y101560460D01*
X30823793Y101720569D01*
X30278611Y101975369D01*
X29789393Y102317729D01*
X29364328Y102740516D01*
X29011608Y103236597D01*
X28739424Y103798839D01*
X28689556Y103935363D01*
X28620447Y104151265D01*
X28576096Y104340267D01*
X28551292Y104539267D01*
X28540826Y104785168D01*
X28539240Y105000000D01*
X28542886Y105299391D01*
X28557296Y105526578D01*
X28587681Y105718461D01*
X28639251Y105911940D01*
X28689556Y106064637D01*
X28798061Y106314553D01*
X31344517Y106314553D01*
X31381469Y106248919D01*
X31483496Y106122210D01*
X31637354Y105949519D01*
X31829799Y105745935D01*
X31958142Y105615370D01*
X32571767Y105000000D01*
X31958142Y104384629D01*
X31748917Y104169762D01*
X31570341Y103976742D01*
X31435657Y103820660D01*
X31358110Y103716607D01*
X31344517Y103685446D01*
X31391662Y103560139D01*
X31503189Y103479967D01*
X31559548Y103470537D01*
X31623152Y103507595D01*
X31749469Y103610658D01*
X31924892Y103767559D01*
X32135819Y103966131D01*
X32367978Y104193542D01*
X32596424Y104425717D01*
X32795282Y104635846D01*
X32952367Y104810389D01*
X33055493Y104935808D01*
X33092474Y104998508D01*
X33054828Y105064838D01*
X32951877Y105190288D01*
X32798595Y105359889D01*
X32609958Y105558667D01*
X32400944Y105771653D01*
X32186528Y105983874D01*
X31981685Y106180360D01*
X31801392Y106346138D01*
X31660626Y106466238D01*
X31574362Y106525688D01*
X31561039Y106529462D01*
X31434643Y106482586D01*
X31354047Y106371304D01*
X31344517Y106314553D01*
X28798061Y106314553D01*
X28944801Y106652533D01*
X29279173Y107165182D01*
X29691498Y107601412D01*
X30180606Y107960050D01*
X30745324Y108239925D01*
X30935363Y108310444D01*
X31151266Y108379553D01*
X31340268Y108423904D01*
X31539268Y108448708D01*
X31785169Y108459174D01*
X32000000Y108460760D01*
X32299392Y108457114D01*
G36*
X21299392Y108457114D02*
G01*
X21526579Y108442704D01*
X21718462Y108412319D01*
X21911941Y108360749D01*
X22064637Y108310444D01*
X22652534Y108055199D01*
X23165183Y107720827D01*
X23601413Y107308502D01*
X23960051Y106819394D01*
X24239926Y106254676D01*
X24310445Y106064637D01*
X24379554Y105848734D01*
X24423905Y105659732D01*
X24448709Y105460732D01*
X24459175Y105214831D01*
X24460761Y105000000D01*
X24457115Y104700608D01*
X24442705Y104473421D01*
X24412320Y104281538D01*
X24360750Y104088059D01*
X24310445Y103935363D01*
X24055248Y103348738D01*
X23720350Y102835463D01*
X23308893Y102398689D01*
X22824017Y102041567D01*
X22268866Y101767249D01*
X22081147Y101698897D01*
X21699091Y101601177D01*
X21271873Y101541730D01*
X20844824Y101524325D01*
X20463273Y101552735D01*
X20416748Y101560460D01*
X19823793Y101720569D01*
X19278611Y101975369D01*
X18789393Y102317729D01*
X18364328Y102740516D01*
X18011608Y103236597D01*
X17739424Y103798839D01*
X17689556Y103935363D01*
X17620447Y104151265D01*
X17576096Y104340267D01*
X17551292Y104539267D01*
X17540826Y104785168D01*
X17539240Y105000000D01*
X19907527Y105000000D01*
X19945176Y104933979D01*
X20048137Y104808835D01*
X20201430Y104639526D01*
X20390077Y104441013D01*
X20599099Y104228255D01*
X20813517Y104016211D01*
X21018353Y103819842D01*
X21198626Y103654106D01*
X21339358Y103533964D01*
X21425570Y103474376D01*
X21438962Y103470537D01*
X21551723Y103506878D01*
X21589936Y103536086D01*
X21648532Y103641042D01*
X21655484Y103685446D01*
X21618532Y103751080D01*
X21516505Y103877789D01*
X21362647Y104050480D01*
X21170202Y104254064D01*
X21041859Y104384629D01*
X20428234Y105000000D01*
X21041859Y105615370D01*
X21251084Y105830238D01*
X21429660Y106023257D01*
X21564344Y106179339D01*
X21641891Y106283392D01*
X21655484Y106314553D01*
X21608257Y106440007D01*
X21496139Y106520002D01*
X21438962Y106529462D01*
X21372857Y106491862D01*
X21247551Y106389034D01*
X21078024Y106235938D01*
X20879255Y106047533D01*
X20666222Y105838780D01*
X20453905Y105624639D01*
X20257282Y105420067D01*
X20091333Y105240026D01*
X19971036Y105099475D01*
X19911371Y105013374D01*
X19907527Y105000000D01*
X17539240Y105000000D01*
X17542886Y105299391D01*
X17557296Y105526578D01*
X17587681Y105718461D01*
X17639251Y105911940D01*
X17689556Y106064637D01*
X17944801Y106652533D01*
X18279173Y107165182D01*
X18691498Y107601412D01*
X19180606Y107960050D01*
X19745324Y108239925D01*
X19935363Y108310444D01*
X20151266Y108379553D01*
X20340268Y108423904D01*
X20539268Y108448708D01*
X20785169Y108459174D01*
X21000000Y108460760D01*
X21299392Y108457114D01*
G37*
X21299392Y108457114D02*
X21526579Y108442704D01*
X21718462Y108412319D01*
X21911941Y108360749D01*
X22064637Y108310444D01*
X22652534Y108055199D01*
X23165183Y107720827D01*
X23601413Y107308502D01*
X23960051Y106819394D01*
X24239926Y106254676D01*
X24310445Y106064637D01*
X24379554Y105848734D01*
X24423905Y105659732D01*
X24448709Y105460732D01*
X24459175Y105214831D01*
X24460761Y105000000D01*
X24457115Y104700608D01*
X24442705Y104473421D01*
X24412320Y104281538D01*
X24360750Y104088059D01*
X24310445Y103935363D01*
X24055248Y103348738D01*
X23720350Y102835463D01*
X23308893Y102398689D01*
X22824017Y102041567D01*
X22268866Y101767249D01*
X22081147Y101698897D01*
X21699091Y101601177D01*
X21271873Y101541730D01*
X20844824Y101524325D01*
X20463273Y101552735D01*
X20416748Y101560460D01*
X19823793Y101720569D01*
X19278611Y101975369D01*
X18789393Y102317729D01*
X18364328Y102740516D01*
X18011608Y103236597D01*
X17739424Y103798839D01*
X17689556Y103935363D01*
X17620447Y104151265D01*
X17576096Y104340267D01*
X17551292Y104539267D01*
X17540826Y104785168D01*
X17539240Y105000000D01*
X19907527Y105000000D01*
X19945176Y104933979D01*
X20048137Y104808835D01*
X20201430Y104639526D01*
X20390077Y104441013D01*
X20599099Y104228255D01*
X20813517Y104016211D01*
X21018353Y103819842D01*
X21198626Y103654106D01*
X21339358Y103533964D01*
X21425570Y103474376D01*
X21438962Y103470537D01*
X21551723Y103506878D01*
X21589936Y103536086D01*
X21648532Y103641042D01*
X21655484Y103685446D01*
X21618532Y103751080D01*
X21516505Y103877789D01*
X21362647Y104050480D01*
X21170202Y104254064D01*
X21041859Y104384629D01*
X20428234Y105000000D01*
X21041859Y105615370D01*
X21251084Y105830238D01*
X21429660Y106023257D01*
X21564344Y106179339D01*
X21641891Y106283392D01*
X21655484Y106314553D01*
X21608257Y106440007D01*
X21496139Y106520002D01*
X21438962Y106529462D01*
X21372857Y106491862D01*
X21247551Y106389034D01*
X21078024Y106235938D01*
X20879255Y106047533D01*
X20666222Y105838780D01*
X20453905Y105624639D01*
X20257282Y105420067D01*
X20091333Y105240026D01*
X19971036Y105099475D01*
X19911371Y105013374D01*
X19907527Y105000000D01*
X17539240Y105000000D01*
X17542886Y105299391D01*
X17557296Y105526578D01*
X17587681Y105718461D01*
X17639251Y105911940D01*
X17689556Y106064637D01*
X17944801Y106652533D01*
X18279173Y107165182D01*
X18691498Y107601412D01*
X19180606Y107960050D01*
X19745324Y108239925D01*
X19935363Y108310444D01*
X20151266Y108379553D01*
X20340268Y108423904D01*
X20539268Y108448708D01*
X20785169Y108459174D01*
X21000000Y108460760D01*
X21299392Y108457114D01*
G36*
X50436990Y105792043D02*
G01*
X50873979Y105357616D01*
X50873979Y103907526D01*
X49126022Y103907526D01*
X49126022Y105357616D01*
X49563011Y105792043D01*
X50000000Y106226469D01*
X50436990Y105792043D01*
G37*
X50436990Y105792043D02*
X50873979Y105357616D01*
X50873979Y103907526D01*
X49126022Y103907526D01*
X49126022Y105357616D01*
X49563011Y105792043D01*
X50000000Y106226469D01*
X50436990Y105792043D01*
G36*
X50299392Y108457114D02*
G01*
X50526579Y108442704D01*
X50718462Y108412319D01*
X50911941Y108360749D01*
X51064637Y108310444D01*
X51652534Y108055199D01*
X52165183Y107720827D01*
X52601413Y107308502D01*
X52960051Y106819394D01*
X53239926Y106254676D01*
X53310445Y106064637D01*
X53379554Y105848734D01*
X53423905Y105659732D01*
X53448709Y105460732D01*
X53459175Y105214831D01*
X53460761Y105000000D01*
X53457115Y104700608D01*
X53442705Y104473421D01*
X53412320Y104281538D01*
X53360750Y104088059D01*
X53310445Y103935363D01*
X53055248Y103348738D01*
X52720350Y102835463D01*
X52308893Y102398689D01*
X51824017Y102041567D01*
X51268866Y101767249D01*
X51081147Y101698897D01*
X50699091Y101601177D01*
X50271873Y101541730D01*
X49844824Y101524325D01*
X49463273Y101552735D01*
X49416748Y101560460D01*
X48823793Y101720569D01*
X48278611Y101975369D01*
X47789393Y102317729D01*
X47364328Y102740516D01*
X47011608Y103236597D01*
X46739424Y103798839D01*
X46689556Y103935363D01*
X46620447Y104151265D01*
X46576096Y104340267D01*
X46551292Y104539267D01*
X46540826Y104785168D01*
X46539405Y104977734D01*
X48260201Y104977734D01*
X48260241Y104972434D01*
X48329652Y104845168D01*
X48450859Y104791145D01*
X48579597Y104823334D01*
X48625976Y104848080D01*
X48656965Y104842589D01*
X48675663Y104790519D01*
X48685172Y104675526D01*
X48688594Y104481269D01*
X48689033Y104246656D01*
X48695153Y103907605D01*
X48713472Y103675644D01*
X48743930Y103551425D01*
X48754581Y103536086D01*
X48831120Y103513114D01*
X48997013Y103494724D01*
X49232466Y103480916D01*
X49517681Y103471690D01*
X49832864Y103467045D01*
X50158217Y103466982D01*
X50473945Y103471500D01*
X50760252Y103480601D01*
X50997341Y103494282D01*
X51165416Y103512546D01*
X51244682Y103535391D01*
X51245420Y103536086D01*
X51279253Y103630140D01*
X51300964Y103832121D01*
X51310492Y104141373D01*
X51310968Y104246656D01*
X51311684Y104519573D01*
X51315899Y104699587D01*
X51326715Y104803040D01*
X51347232Y104846275D01*
X51380553Y104845634D01*
X51420404Y104823334D01*
X51540281Y104783687D01*
X51625243Y104815070D01*
X51720955Y104913711D01*
X51722421Y105036512D01*
X51627966Y105192584D01*
X51537323Y105293050D01*
X51414624Y105427059D01*
X51346208Y105539870D01*
X51313896Y105675547D01*
X51299959Y105868298D01*
X51281003Y106083211D01*
X51244676Y106212639D01*
X51188065Y106277697D01*
X51062431Y106302844D01*
X50948005Y106238150D01*
X50875685Y106101230D01*
X50875221Y106099315D01*
X50855117Y106051992D01*
X50816537Y106047521D01*
X50744990Y106095268D01*
X50625982Y106204597D01*
X50465767Y106363947D01*
X50295281Y106527684D01*
X50145636Y106656649D01*
X50037552Y106733727D01*
X50000805Y106747957D01*
X49930758Y106710163D01*
X49802201Y106606049D01*
X49628757Y106449512D01*
X49424051Y106254450D01*
X49201707Y106034761D01*
X48975349Y105804342D01*
X48758602Y105577092D01*
X48565089Y105366908D01*
X48408435Y105187689D01*
X48302265Y105053332D01*
X48260201Y104977734D01*
X46539405Y104977734D01*
X46539240Y105000000D01*
X46542886Y105299391D01*
X46557296Y105526578D01*
X46587681Y105718461D01*
X46639251Y105911940D01*
X46689556Y106064637D01*
X46944801Y106652533D01*
X47279173Y107165182D01*
X47691498Y107601412D01*
X48180606Y107960050D01*
X48745324Y108239925D01*
X48935363Y108310444D01*
X49151266Y108379553D01*
X49340268Y108423904D01*
X49539268Y108448708D01*
X49785169Y108459174D01*
X50000000Y108460760D01*
X50299392Y108457114D01*
G37*
X50299392Y108457114D02*
X50526579Y108442704D01*
X50718462Y108412319D01*
X50911941Y108360749D01*
X51064637Y108310444D01*
X51652534Y108055199D01*
X52165183Y107720827D01*
X52601413Y107308502D01*
X52960051Y106819394D01*
X53239926Y106254676D01*
X53310445Y106064637D01*
X53379554Y105848734D01*
X53423905Y105659732D01*
X53448709Y105460732D01*
X53459175Y105214831D01*
X53460761Y105000000D01*
X53457115Y104700608D01*
X53442705Y104473421D01*
X53412320Y104281538D01*
X53360750Y104088059D01*
X53310445Y103935363D01*
X53055248Y103348738D01*
X52720350Y102835463D01*
X52308893Y102398689D01*
X51824017Y102041567D01*
X51268866Y101767249D01*
X51081147Y101698897D01*
X50699091Y101601177D01*
X50271873Y101541730D01*
X49844824Y101524325D01*
X49463273Y101552735D01*
X49416748Y101560460D01*
X48823793Y101720569D01*
X48278611Y101975369D01*
X47789393Y102317729D01*
X47364328Y102740516D01*
X47011608Y103236597D01*
X46739424Y103798839D01*
X46689556Y103935363D01*
X46620447Y104151265D01*
X46576096Y104340267D01*
X46551292Y104539267D01*
X46540826Y104785168D01*
X46539405Y104977734D01*
X48260201Y104977734D01*
X48260241Y104972434D01*
X48329652Y104845168D01*
X48450859Y104791145D01*
X48579597Y104823334D01*
X48625976Y104848080D01*
X48656965Y104842589D01*
X48675663Y104790519D01*
X48685172Y104675526D01*
X48688594Y104481269D01*
X48689033Y104246656D01*
X48695153Y103907605D01*
X48713472Y103675644D01*
X48743930Y103551425D01*
X48754581Y103536086D01*
X48831120Y103513114D01*
X48997013Y103494724D01*
X49232466Y103480916D01*
X49517681Y103471690D01*
X49832864Y103467045D01*
X50158217Y103466982D01*
X50473945Y103471500D01*
X50760252Y103480601D01*
X50997341Y103494282D01*
X51165416Y103512546D01*
X51244682Y103535391D01*
X51245420Y103536086D01*
X51279253Y103630140D01*
X51300964Y103832121D01*
X51310492Y104141373D01*
X51310968Y104246656D01*
X51311684Y104519573D01*
X51315899Y104699587D01*
X51326715Y104803040D01*
X51347232Y104846275D01*
X51380553Y104845634D01*
X51420404Y104823334D01*
X51540281Y104783687D01*
X51625243Y104815070D01*
X51720955Y104913711D01*
X51722421Y105036512D01*
X51627966Y105192584D01*
X51537323Y105293050D01*
X51414624Y105427059D01*
X51346208Y105539870D01*
X51313896Y105675547D01*
X51299959Y105868298D01*
X51281003Y106083211D01*
X51244676Y106212639D01*
X51188065Y106277697D01*
X51062431Y106302844D01*
X50948005Y106238150D01*
X50875685Y106101230D01*
X50875221Y106099315D01*
X50855117Y106051992D01*
X50816537Y106047521D01*
X50744990Y106095268D01*
X50625982Y106204597D01*
X50465767Y106363947D01*
X50295281Y106527684D01*
X50145636Y106656649D01*
X50037552Y106733727D01*
X50000805Y106747957D01*
X49930758Y106710163D01*
X49802201Y106606049D01*
X49628757Y106449512D01*
X49424051Y106254450D01*
X49201707Y106034761D01*
X48975349Y105804342D01*
X48758602Y105577092D01*
X48565089Y105366908D01*
X48408435Y105187689D01*
X48302265Y105053332D01*
X48260201Y104977734D01*
X46539405Y104977734D01*
X46539240Y105000000D01*
X46542886Y105299391D01*
X46557296Y105526578D01*
X46587681Y105718461D01*
X46639251Y105911940D01*
X46689556Y106064637D01*
X46944801Y106652533D01*
X47279173Y107165182D01*
X47691498Y107601412D01*
X48180606Y107960050D01*
X48745324Y108239925D01*
X48935363Y108310444D01*
X49151266Y108379553D01*
X49340268Y108423904D01*
X49539268Y108448708D01*
X49785169Y108459174D01*
X50000000Y108460760D01*
X50299392Y108457114D01*
D11*
G36*
X62000000Y41700000D02*
G01*
X62000000Y45800000D01*
X62800000Y45800000D01*
X64000000Y45700000D01*
X65000000Y45400000D01*
X65800000Y45100000D01*
X66500000Y44800000D01*
X67300000Y44300000D01*
X68000000Y43800000D01*
X68600000Y43200000D01*
X69100000Y42600000D01*
X69500000Y42000000D01*
X69900000Y41300000D01*
X70300000Y40400000D01*
X70500000Y39800000D01*
X70700000Y38900000D01*
X70800000Y38500000D01*
X66600000Y38500000D01*
X66400000Y39100000D01*
X66100000Y39700000D01*
X65600000Y40400000D01*
X65000000Y40900000D01*
X64600000Y41200000D01*
X64200000Y41400000D01*
X63700000Y41600000D01*
X63200000Y41700000D01*
X62000000Y41700000D01*
G37*
X62000000Y41700000D02*
X62000000Y45800000D01*
X62800000Y45800000D01*
X64000000Y45700000D01*
X65000000Y45400000D01*
X65800000Y45100000D01*
X66500000Y44800000D01*
X67300000Y44300000D01*
X68000000Y43800000D01*
X68600000Y43200000D01*
X69100000Y42600000D01*
X69500000Y42000000D01*
X69900000Y41300000D01*
X70300000Y40400000D01*
X70500000Y39800000D01*
X70700000Y38900000D01*
X70800000Y38500000D01*
X66600000Y38500000D01*
X66400000Y39100000D01*
X66100000Y39700000D01*
X65600000Y40400000D01*
X65000000Y40900000D01*
X64600000Y41200000D01*
X64200000Y41400000D01*
X63700000Y41600000D01*
X63200000Y41700000D01*
X62000000Y41700000D01*
G36*
X54200000Y37500000D02*
G01*
X54200000Y37900000D01*
X54300000Y38900000D01*
X54600000Y40100000D01*
X55000000Y41100000D01*
X55300000Y41700000D01*
X55800000Y42400000D01*
X56400000Y43200000D01*
X57300000Y44000000D01*
X58000000Y44500000D01*
X58700000Y44900000D01*
X59600000Y45300000D01*
X60500000Y45600000D01*
X61100000Y45700000D01*
X62000000Y45800000D01*
X62000000Y41700000D01*
X61400000Y41600000D01*
X60800000Y41400000D01*
X60300000Y41100000D01*
X59700000Y40700000D01*
X59100000Y40000000D01*
X58600000Y39200000D01*
X58400000Y38500000D01*
X58300000Y37500000D01*
X54200000Y37500000D01*
G37*
X54200000Y37500000D02*
X54200000Y37900000D01*
X54300000Y38900000D01*
X54600000Y40100000D01*
X55000000Y41100000D01*
X55300000Y41700000D01*
X55800000Y42400000D01*
X56400000Y43200000D01*
X57300000Y44000000D01*
X58000000Y44500000D01*
X58700000Y44900000D01*
X59600000Y45300000D01*
X60500000Y45600000D01*
X61100000Y45700000D01*
X62000000Y45800000D01*
X62000000Y41700000D01*
X61400000Y41600000D01*
X60800000Y41400000D01*
X60300000Y41100000D01*
X59700000Y40700000D01*
X59100000Y40000000D01*
X58600000Y39200000D01*
X58400000Y38500000D01*
X58300000Y37500000D01*
X54200000Y37500000D01*
G36*
X65200000Y29600000D02*
G01*
X65700000Y29800000D01*
X66500000Y30200000D01*
X67300000Y30700000D01*
X67900000Y31200000D01*
X68300000Y31500000D01*
X68800000Y32100000D01*
X69500000Y33000000D01*
X69800000Y33500000D01*
X70100000Y34100000D01*
X70300000Y34600000D01*
X70500000Y35200000D01*
X70600000Y35600000D01*
X70700000Y36200000D01*
X70800000Y38100000D01*
X70800000Y38500000D01*
X66600000Y38500000D01*
X66700000Y38200000D01*
X66700000Y37800000D01*
X66700000Y36900000D01*
X66600000Y36400000D01*
X66400000Y35800000D01*
X66100000Y35300000D01*
X65800000Y34800000D01*
X65200000Y34200000D01*
X65200000Y29600000D01*
G37*
X65200000Y29600000D02*
X65700000Y29800000D01*
X66500000Y30200000D01*
X67300000Y30700000D01*
X67900000Y31200000D01*
X68300000Y31500000D01*
X68800000Y32100000D01*
X69500000Y33000000D01*
X69800000Y33500000D01*
X70100000Y34100000D01*
X70300000Y34600000D01*
X70500000Y35200000D01*
X70600000Y35600000D01*
X70700000Y36200000D01*
X70800000Y38100000D01*
X70800000Y38500000D01*
X66600000Y38500000D01*
X66700000Y38200000D01*
X66700000Y37800000D01*
X66700000Y36900000D01*
X66600000Y36400000D01*
X66400000Y35800000D01*
X66100000Y35300000D01*
X65800000Y34800000D01*
X65200000Y34200000D01*
X65200000Y29600000D01*
G36*
X54200000Y37500000D02*
G01*
X58300000Y37500000D01*
X58300000Y37000000D01*
X58600000Y35800000D01*
X59300000Y34700000D01*
X60100000Y34000000D01*
X60800000Y33600000D01*
X61900000Y33300000D01*
X63000000Y33300000D01*
X64200000Y33600000D01*
X65200000Y34200000D01*
X65200000Y29600000D01*
X63400000Y29200000D01*
X62000000Y29200000D01*
X60500000Y29400000D01*
X59300000Y29800000D01*
X58400000Y30200000D01*
X57500000Y30800000D01*
X56300000Y31900000D01*
X55500000Y33000000D01*
X55000000Y33800000D01*
X54400000Y35400000D01*
X54200000Y36800000D01*
X54200000Y37500000D01*
G37*
X54200000Y37500000D02*
X58300000Y37500000D01*
X58300000Y37000000D01*
X58600000Y35800000D01*
X59300000Y34700000D01*
X60100000Y34000000D01*
X60800000Y33600000D01*
X61900000Y33300000D01*
X63000000Y33300000D01*
X64200000Y33600000D01*
X65200000Y34200000D01*
X65200000Y29600000D01*
X63400000Y29200000D01*
X62000000Y29200000D01*
X60500000Y29400000D01*
X59300000Y29800000D01*
X58400000Y30200000D01*
X57500000Y30800000D01*
X56300000Y31900000D01*
X55500000Y33000000D01*
X55000000Y33800000D01*
X54400000Y35400000D01*
X54200000Y36800000D01*
X54200000Y37500000D01*
G36*
X87000000Y91700000D02*
G01*
X87000000Y95800000D01*
X87800000Y95800000D01*
X89000000Y95700000D01*
X90000000Y95400000D01*
X90800000Y95100000D01*
X91500000Y94800000D01*
X92300000Y94300000D01*
X93000000Y93800000D01*
X93600000Y93200000D01*
X94100000Y92600000D01*
X94500000Y92000000D01*
X94900000Y91300000D01*
X95300000Y90400000D01*
X95500000Y89800000D01*
X95700000Y88900000D01*
X95800000Y88500000D01*
X91600000Y88500000D01*
X91400000Y89100000D01*
X91100000Y89700000D01*
X90600000Y90400000D01*
X90000000Y90900000D01*
X89600000Y91200000D01*
X89200000Y91400000D01*
X88700000Y91600000D01*
X88200000Y91700000D01*
X87000000Y91700000D01*
G37*
X87000000Y91700000D02*
X87000000Y95800000D01*
X87800000Y95800000D01*
X89000000Y95700000D01*
X90000000Y95400000D01*
X90800000Y95100000D01*
X91500000Y94800000D01*
X92300000Y94300000D01*
X93000000Y93800000D01*
X93600000Y93200000D01*
X94100000Y92600000D01*
X94500000Y92000000D01*
X94900000Y91300000D01*
X95300000Y90400000D01*
X95500000Y89800000D01*
X95700000Y88900000D01*
X95800000Y88500000D01*
X91600000Y88500000D01*
X91400000Y89100000D01*
X91100000Y89700000D01*
X90600000Y90400000D01*
X90000000Y90900000D01*
X89600000Y91200000D01*
X89200000Y91400000D01*
X88700000Y91600000D01*
X88200000Y91700000D01*
X87000000Y91700000D01*
G36*
X79200000Y87500000D02*
G01*
X79200000Y87900000D01*
X79300000Y88900000D01*
X79600000Y90100000D01*
X80000000Y91100000D01*
X80300000Y91700000D01*
X80800000Y92400000D01*
X81400000Y93200000D01*
X82300000Y94000000D01*
X83000000Y94500000D01*
X83700000Y94900000D01*
X84600000Y95300000D01*
X85500000Y95600000D01*
X86100000Y95700000D01*
X87000000Y95800000D01*
X87000000Y91700000D01*
X86400000Y91600000D01*
X85800000Y91400000D01*
X85300000Y91100000D01*
X84700000Y90700000D01*
X84100000Y90000000D01*
X83600000Y89200000D01*
X83400000Y88500000D01*
X83300000Y87500000D01*
X79200000Y87500000D01*
G37*
X79200000Y87500000D02*
X79200000Y87900000D01*
X79300000Y88900000D01*
X79600000Y90100000D01*
X80000000Y91100000D01*
X80300000Y91700000D01*
X80800000Y92400000D01*
X81400000Y93200000D01*
X82300000Y94000000D01*
X83000000Y94500000D01*
X83700000Y94900000D01*
X84600000Y95300000D01*
X85500000Y95600000D01*
X86100000Y95700000D01*
X87000000Y95800000D01*
X87000000Y91700000D01*
X86400000Y91600000D01*
X85800000Y91400000D01*
X85300000Y91100000D01*
X84700000Y90700000D01*
X84100000Y90000000D01*
X83600000Y89200000D01*
X83400000Y88500000D01*
X83300000Y87500000D01*
X79200000Y87500000D01*
G36*
X90200000Y79600000D02*
G01*
X90700000Y79800000D01*
X91500000Y80200000D01*
X92300000Y80700000D01*
X92900000Y81200000D01*
X93300000Y81500000D01*
X93800000Y82100000D01*
X94500000Y83000000D01*
X94800000Y83500000D01*
X95100000Y84100000D01*
X95300000Y84600000D01*
X95500000Y85200000D01*
X95600000Y85600000D01*
X95700000Y86200000D01*
X95800000Y88100000D01*
X95800000Y88500000D01*
X91600000Y88500000D01*
X91700000Y88200000D01*
X91700000Y87800000D01*
X91700000Y86900000D01*
X91600000Y86400000D01*
X91400000Y85800000D01*
X91100000Y85300000D01*
X90800000Y84800000D01*
X90200000Y84200000D01*
X90200000Y79600000D01*
G37*
X90200000Y79600000D02*
X90700000Y79800000D01*
X91500000Y80200000D01*
X92300000Y80700000D01*
X92900000Y81200000D01*
X93300000Y81500000D01*
X93800000Y82100000D01*
X94500000Y83000000D01*
X94800000Y83500000D01*
X95100000Y84100000D01*
X95300000Y84600000D01*
X95500000Y85200000D01*
X95600000Y85600000D01*
X95700000Y86200000D01*
X95800000Y88100000D01*
X95800000Y88500000D01*
X91600000Y88500000D01*
X91700000Y88200000D01*
X91700000Y87800000D01*
X91700000Y86900000D01*
X91600000Y86400000D01*
X91400000Y85800000D01*
X91100000Y85300000D01*
X90800000Y84800000D01*
X90200000Y84200000D01*
X90200000Y79600000D01*
G36*
X79200000Y87500000D02*
G01*
X83300000Y87500000D01*
X83300000Y87000000D01*
X83600000Y85800000D01*
X84300000Y84700000D01*
X85100000Y84000000D01*
X85800000Y83600000D01*
X86900000Y83300000D01*
X88000000Y83300000D01*
X89200000Y83600000D01*
X90200000Y84200000D01*
X90200000Y79600000D01*
X88400000Y79200000D01*
X87000000Y79200000D01*
X85500000Y79400000D01*
X84300000Y79800000D01*
X83400000Y80200000D01*
X82500000Y80800000D01*
X81300000Y81900000D01*
X80500000Y83000000D01*
X80000000Y83800000D01*
X79400000Y85400000D01*
X79200000Y86800000D01*
X79200000Y87500000D01*
G37*
X79200000Y87500000D02*
X83300000Y87500000D01*
X83300000Y87000000D01*
X83600000Y85800000D01*
X84300000Y84700000D01*
X85100000Y84000000D01*
X85800000Y83600000D01*
X86900000Y83300000D01*
X88000000Y83300000D01*
X89200000Y83600000D01*
X90200000Y84200000D01*
X90200000Y79600000D01*
X88400000Y79200000D01*
X87000000Y79200000D01*
X85500000Y79400000D01*
X84300000Y79800000D01*
X83400000Y80200000D01*
X82500000Y80800000D01*
X81300000Y81900000D01*
X80500000Y83000000D01*
X80000000Y83800000D01*
X79400000Y85400000D01*
X79200000Y86800000D01*
X79200000Y87500000D01*
G36*
X62000000Y91700000D02*
G01*
X62000000Y95800000D01*
X62800000Y95800000D01*
X64000000Y95700000D01*
X65000000Y95400000D01*
X65800000Y95100000D01*
X66500000Y94800000D01*
X67300000Y94300000D01*
X68000000Y93800000D01*
X68600000Y93200000D01*
X69100000Y92600000D01*
X69500000Y92000000D01*
X69900000Y91300000D01*
X70300000Y90400000D01*
X70500000Y89800000D01*
X70700000Y88900000D01*
X70800000Y88500000D01*
X66600000Y88500000D01*
X66400000Y89100000D01*
X66100000Y89700000D01*
X65600000Y90400000D01*
X65000000Y90900000D01*
X64600000Y91200000D01*
X64200000Y91400000D01*
X63700000Y91600000D01*
X63200000Y91700000D01*
X62000000Y91700000D01*
G37*
X62000000Y91700000D02*
X62000000Y95800000D01*
X62800000Y95800000D01*
X64000000Y95700000D01*
X65000000Y95400000D01*
X65800000Y95100000D01*
X66500000Y94800000D01*
X67300000Y94300000D01*
X68000000Y93800000D01*
X68600000Y93200000D01*
X69100000Y92600000D01*
X69500000Y92000000D01*
X69900000Y91300000D01*
X70300000Y90400000D01*
X70500000Y89800000D01*
X70700000Y88900000D01*
X70800000Y88500000D01*
X66600000Y88500000D01*
X66400000Y89100000D01*
X66100000Y89700000D01*
X65600000Y90400000D01*
X65000000Y90900000D01*
X64600000Y91200000D01*
X64200000Y91400000D01*
X63700000Y91600000D01*
X63200000Y91700000D01*
X62000000Y91700000D01*
G36*
X54200000Y87500000D02*
G01*
X54200000Y87900000D01*
X54300000Y88900000D01*
X54600000Y90100000D01*
X55000000Y91100000D01*
X55300000Y91700000D01*
X55800000Y92400000D01*
X56400000Y93200000D01*
X57300000Y94000000D01*
X58000000Y94500000D01*
X58700000Y94900000D01*
X59600000Y95300000D01*
X60500000Y95600000D01*
X61100000Y95700000D01*
X62000000Y95800000D01*
X62000000Y91700000D01*
X61400000Y91600000D01*
X60800000Y91400000D01*
X60300000Y91100000D01*
X59700000Y90700000D01*
X59100000Y90000000D01*
X58600000Y89200000D01*
X58400000Y88500000D01*
X58300000Y87500000D01*
X54200000Y87500000D01*
G37*
X54200000Y87500000D02*
X54200000Y87900000D01*
X54300000Y88900000D01*
X54600000Y90100000D01*
X55000000Y91100000D01*
X55300000Y91700000D01*
X55800000Y92400000D01*
X56400000Y93200000D01*
X57300000Y94000000D01*
X58000000Y94500000D01*
X58700000Y94900000D01*
X59600000Y95300000D01*
X60500000Y95600000D01*
X61100000Y95700000D01*
X62000000Y95800000D01*
X62000000Y91700000D01*
X61400000Y91600000D01*
X60800000Y91400000D01*
X60300000Y91100000D01*
X59700000Y90700000D01*
X59100000Y90000000D01*
X58600000Y89200000D01*
X58400000Y88500000D01*
X58300000Y87500000D01*
X54200000Y87500000D01*
G36*
X65200000Y79600000D02*
G01*
X65700000Y79800000D01*
X66500000Y80200000D01*
X67300000Y80700000D01*
X67900000Y81200000D01*
X68300000Y81500000D01*
X68800000Y82100000D01*
X69500000Y83000000D01*
X69800000Y83500000D01*
X70100000Y84100000D01*
X70300000Y84600000D01*
X70500000Y85200000D01*
X70600000Y85600000D01*
X70700000Y86200000D01*
X70800000Y88100000D01*
X70800000Y88500000D01*
X66600000Y88500000D01*
X66700000Y88200000D01*
X66700000Y87800000D01*
X66700000Y86900000D01*
X66600000Y86400000D01*
X66400000Y85800000D01*
X66100000Y85300000D01*
X65800000Y84800000D01*
X65200000Y84200000D01*
X65200000Y79600000D01*
G37*
X65200000Y79600000D02*
X65700000Y79800000D01*
X66500000Y80200000D01*
X67300000Y80700000D01*
X67900000Y81200000D01*
X68300000Y81500000D01*
X68800000Y82100000D01*
X69500000Y83000000D01*
X69800000Y83500000D01*
X70100000Y84100000D01*
X70300000Y84600000D01*
X70500000Y85200000D01*
X70600000Y85600000D01*
X70700000Y86200000D01*
X70800000Y88100000D01*
X70800000Y88500000D01*
X66600000Y88500000D01*
X66700000Y88200000D01*
X66700000Y87800000D01*
X66700000Y86900000D01*
X66600000Y86400000D01*
X66400000Y85800000D01*
X66100000Y85300000D01*
X65800000Y84800000D01*
X65200000Y84200000D01*
X65200000Y79600000D01*
G36*
X54200000Y87500000D02*
G01*
X58300000Y87500000D01*
X58300000Y87000000D01*
X58600000Y85800000D01*
X59300000Y84700000D01*
X60100000Y84000000D01*
X60800000Y83600000D01*
X61900000Y83300000D01*
X63000000Y83300000D01*
X64200000Y83600000D01*
X65200000Y84200000D01*
X65200000Y79600000D01*
X63400000Y79200000D01*
X62000000Y79200000D01*
X60500000Y79400000D01*
X59300000Y79800000D01*
X58400000Y80200000D01*
X57500000Y80800000D01*
X56300000Y81900000D01*
X55500000Y83000000D01*
X55000000Y83800000D01*
X54400000Y85400000D01*
X54200000Y86800000D01*
X54200000Y87500000D01*
G37*
X54200000Y87500000D02*
X58300000Y87500000D01*
X58300000Y87000000D01*
X58600000Y85800000D01*
X59300000Y84700000D01*
X60100000Y84000000D01*
X60800000Y83600000D01*
X61900000Y83300000D01*
X63000000Y83300000D01*
X64200000Y83600000D01*
X65200000Y84200000D01*
X65200000Y79600000D01*
X63400000Y79200000D01*
X62000000Y79200000D01*
X60500000Y79400000D01*
X59300000Y79800000D01*
X58400000Y80200000D01*
X57500000Y80800000D01*
X56300000Y81900000D01*
X55500000Y83000000D01*
X55000000Y83800000D01*
X54400000Y85400000D01*
X54200000Y86800000D01*
X54200000Y87500000D01*
G36*
X38000000Y66700000D02*
G01*
X38000000Y70800000D01*
X37200000Y70800000D01*
X36000000Y70700000D01*
X35000000Y70400000D01*
X34200000Y70100000D01*
X33500000Y69800000D01*
X32700000Y69300000D01*
X32000000Y68800000D01*
X31400000Y68200000D01*
X30900000Y67600000D01*
X30500000Y67000000D01*
X30100000Y66300000D01*
X29700000Y65400000D01*
X29500000Y64800000D01*
X29300000Y63900000D01*
X29200000Y63500000D01*
X33400000Y63500000D01*
X33600000Y64100000D01*
X33900000Y64700000D01*
X34400000Y65400000D01*
X35000000Y65900000D01*
X35400000Y66200000D01*
X35800000Y66400000D01*
X36300000Y66600000D01*
X36800000Y66700000D01*
X38000000Y66700000D01*
G37*
X38000000Y66700000D02*
X38000000Y70800000D01*
X37200000Y70800000D01*
X36000000Y70700000D01*
X35000000Y70400000D01*
X34200000Y70100000D01*
X33500000Y69800000D01*
X32700000Y69300000D01*
X32000000Y68800000D01*
X31400000Y68200000D01*
X30900000Y67600000D01*
X30500000Y67000000D01*
X30100000Y66300000D01*
X29700000Y65400000D01*
X29500000Y64800000D01*
X29300000Y63900000D01*
X29200000Y63500000D01*
X33400000Y63500000D01*
X33600000Y64100000D01*
X33900000Y64700000D01*
X34400000Y65400000D01*
X35000000Y65900000D01*
X35400000Y66200000D01*
X35800000Y66400000D01*
X36300000Y66600000D01*
X36800000Y66700000D01*
X38000000Y66700000D01*
G36*
X45800000Y62500000D02*
G01*
X45800000Y62900000D01*
X45700000Y63900000D01*
X45400000Y65100000D01*
X45000000Y66100000D01*
X44700000Y66700000D01*
X44200000Y67400000D01*
X43600000Y68200000D01*
X42700000Y69000000D01*
X42000000Y69500000D01*
X41300000Y69900000D01*
X40400000Y70300000D01*
X39500000Y70600000D01*
X38900000Y70700000D01*
X38000000Y70800000D01*
X38000000Y66700000D01*
X38600000Y66600000D01*
X39200000Y66400000D01*
X39700000Y66100000D01*
X40300000Y65700000D01*
X40900000Y65000000D01*
X41400000Y64200000D01*
X41600000Y63500000D01*
X41700000Y62500000D01*
X45800000Y62500000D01*
G37*
X45800000Y62500000D02*
X45800000Y62900000D01*
X45700000Y63900000D01*
X45400000Y65100000D01*
X45000000Y66100000D01*
X44700000Y66700000D01*
X44200000Y67400000D01*
X43600000Y68200000D01*
X42700000Y69000000D01*
X42000000Y69500000D01*
X41300000Y69900000D01*
X40400000Y70300000D01*
X39500000Y70600000D01*
X38900000Y70700000D01*
X38000000Y70800000D01*
X38000000Y66700000D01*
X38600000Y66600000D01*
X39200000Y66400000D01*
X39700000Y66100000D01*
X40300000Y65700000D01*
X40900000Y65000000D01*
X41400000Y64200000D01*
X41600000Y63500000D01*
X41700000Y62500000D01*
X45800000Y62500000D01*
G36*
X34800000Y54600000D02*
G01*
X34300000Y54800000D01*
X33500000Y55200000D01*
X32700000Y55700000D01*
X32100000Y56200000D01*
X31700000Y56500000D01*
X31200000Y57100000D01*
X30500000Y58000000D01*
X30200000Y58500000D01*
X29900000Y59100000D01*
X29700000Y59600000D01*
X29500000Y60200000D01*
X29400000Y60600000D01*
X29300000Y61200000D01*
X29200000Y63100000D01*
X29200000Y63500000D01*
X33400000Y63500000D01*
X33300000Y63200000D01*
X33300000Y62800000D01*
X33300000Y61900000D01*
X33400000Y61400000D01*
X33600000Y60800000D01*
X33900000Y60300000D01*
X34200000Y59800000D01*
X34800000Y59200000D01*
X34800000Y54600000D01*
G37*
X34800000Y54600000D02*
X34300000Y54800000D01*
X33500000Y55200000D01*
X32700000Y55700000D01*
X32100000Y56200000D01*
X31700000Y56500000D01*
X31200000Y57100000D01*
X30500000Y58000000D01*
X30200000Y58500000D01*
X29900000Y59100000D01*
X29700000Y59600000D01*
X29500000Y60200000D01*
X29400000Y60600000D01*
X29300000Y61200000D01*
X29200000Y63100000D01*
X29200000Y63500000D01*
X33400000Y63500000D01*
X33300000Y63200000D01*
X33300000Y62800000D01*
X33300000Y61900000D01*
X33400000Y61400000D01*
X33600000Y60800000D01*
X33900000Y60300000D01*
X34200000Y59800000D01*
X34800000Y59200000D01*
X34800000Y54600000D01*
G36*
X45800000Y62500000D02*
G01*
X41700000Y62500000D01*
X41700000Y62000000D01*
X41400000Y60800000D01*
X40700000Y59700000D01*
X39900000Y59000000D01*
X39200000Y58600000D01*
X38100000Y58300000D01*
X37000000Y58300000D01*
X35800000Y58600000D01*
X34800000Y59200000D01*
X34800000Y54600000D01*
X36600000Y54200000D01*
X38000000Y54200000D01*
X39500000Y54400000D01*
X40700000Y54800000D01*
X41600000Y55200000D01*
X42500000Y55800000D01*
X43700000Y56900000D01*
X44500000Y58000000D01*
X45000000Y58800000D01*
X45600000Y60400000D01*
X45800000Y61800000D01*
X45800000Y62500000D01*
G37*
X45800000Y62500000D02*
X41700000Y62500000D01*
X41700000Y62000000D01*
X41400000Y60800000D01*
X40700000Y59700000D01*
X39900000Y59000000D01*
X39200000Y58600000D01*
X38100000Y58300000D01*
X37000000Y58300000D01*
X35800000Y58600000D01*
X34800000Y59200000D01*
X34800000Y54600000D01*
X36600000Y54200000D01*
X38000000Y54200000D01*
X39500000Y54400000D01*
X40700000Y54800000D01*
X41600000Y55200000D01*
X42500000Y55800000D01*
X43700000Y56900000D01*
X44500000Y58000000D01*
X45000000Y58800000D01*
X45600000Y60400000D01*
X45800000Y61800000D01*
X45800000Y62500000D01*
G36*
X88000000Y16700000D02*
G01*
X88000000Y20800000D01*
X87200000Y20800000D01*
X86000000Y20700000D01*
X85000000Y20400000D01*
X84200000Y20100000D01*
X83500000Y19800000D01*
X82700000Y19300000D01*
X82000000Y18800000D01*
X81400000Y18200000D01*
X80900000Y17600000D01*
X80500000Y17000000D01*
X80100000Y16300000D01*
X79700000Y15400000D01*
X79500000Y14800000D01*
X79300000Y13900000D01*
X79200000Y13500000D01*
X83400000Y13500000D01*
X83600000Y14100000D01*
X83900000Y14700000D01*
X84400000Y15400000D01*
X85000000Y15900000D01*
X85400000Y16200000D01*
X85800000Y16400000D01*
X86300000Y16600000D01*
X86800000Y16700000D01*
X88000000Y16700000D01*
G37*
X88000000Y16700000D02*
X88000000Y20800000D01*
X87200000Y20800000D01*
X86000000Y20700000D01*
X85000000Y20400000D01*
X84200000Y20100000D01*
X83500000Y19800000D01*
X82700000Y19300000D01*
X82000000Y18800000D01*
X81400000Y18200000D01*
X80900000Y17600000D01*
X80500000Y17000000D01*
X80100000Y16300000D01*
X79700000Y15400000D01*
X79500000Y14800000D01*
X79300000Y13900000D01*
X79200000Y13500000D01*
X83400000Y13500000D01*
X83600000Y14100000D01*
X83900000Y14700000D01*
X84400000Y15400000D01*
X85000000Y15900000D01*
X85400000Y16200000D01*
X85800000Y16400000D01*
X86300000Y16600000D01*
X86800000Y16700000D01*
X88000000Y16700000D01*
G36*
X95800000Y12500000D02*
G01*
X95800000Y12900000D01*
X95700000Y13900000D01*
X95400000Y15100000D01*
X95000000Y16100000D01*
X94700000Y16700000D01*
X94200000Y17400000D01*
X93600000Y18200000D01*
X92700000Y19000000D01*
X92000000Y19500000D01*
X91300000Y19900000D01*
X90400000Y20300000D01*
X89500000Y20600000D01*
X88900000Y20700000D01*
X88000000Y20800000D01*
X88000000Y16700000D01*
X88600000Y16600000D01*
X89200000Y16400000D01*
X89700000Y16100000D01*
X90300000Y15700000D01*
X90900000Y15000000D01*
X91400000Y14200000D01*
X91600000Y13500000D01*
X91700000Y12500000D01*
X95800000Y12500000D01*
G37*
X95800000Y12500000D02*
X95800000Y12900000D01*
X95700000Y13900000D01*
X95400000Y15100000D01*
X95000000Y16100000D01*
X94700000Y16700000D01*
X94200000Y17400000D01*
X93600000Y18200000D01*
X92700000Y19000000D01*
X92000000Y19500000D01*
X91300000Y19900000D01*
X90400000Y20300000D01*
X89500000Y20600000D01*
X88900000Y20700000D01*
X88000000Y20800000D01*
X88000000Y16700000D01*
X88600000Y16600000D01*
X89200000Y16400000D01*
X89700000Y16100000D01*
X90300000Y15700000D01*
X90900000Y15000000D01*
X91400000Y14200000D01*
X91600000Y13500000D01*
X91700000Y12500000D01*
X95800000Y12500000D01*
G36*
X84800000Y4600000D02*
G01*
X84300000Y4800000D01*
X83500000Y5200000D01*
X82700000Y5700000D01*
X82100000Y6200000D01*
X81700000Y6500000D01*
X81200000Y7100000D01*
X80500000Y8000000D01*
X80200000Y8500000D01*
X79900000Y9100000D01*
X79700000Y9600000D01*
X79500000Y10200000D01*
X79400000Y10600000D01*
X79300000Y11200000D01*
X79200000Y13100000D01*
X79200000Y13500000D01*
X83400000Y13500000D01*
X83300000Y13200000D01*
X83300000Y12800000D01*
X83300000Y11900000D01*
X83400000Y11400000D01*
X83600000Y10800000D01*
X83900000Y10300000D01*
X84200000Y9800000D01*
X84800000Y9200000D01*
X84800000Y4600000D01*
G37*
X84800000Y4600000D02*
X84300000Y4800000D01*
X83500000Y5200000D01*
X82700000Y5700000D01*
X82100000Y6200000D01*
X81700000Y6500000D01*
X81200000Y7100000D01*
X80500000Y8000000D01*
X80200000Y8500000D01*
X79900000Y9100000D01*
X79700000Y9600000D01*
X79500000Y10200000D01*
X79400000Y10600000D01*
X79300000Y11200000D01*
X79200000Y13100000D01*
X79200000Y13500000D01*
X83400000Y13500000D01*
X83300000Y13200000D01*
X83300000Y12800000D01*
X83300000Y11900000D01*
X83400000Y11400000D01*
X83600000Y10800000D01*
X83900000Y10300000D01*
X84200000Y9800000D01*
X84800000Y9200000D01*
X84800000Y4600000D01*
G36*
X95800000Y12500000D02*
G01*
X91700000Y12500000D01*
X91700000Y12000000D01*
X91400000Y10800000D01*
X90700000Y9700000D01*
X89900000Y9000000D01*
X89200000Y8600000D01*
X88100000Y8300000D01*
X87000000Y8300000D01*
X85800000Y8600000D01*
X84800000Y9200000D01*
X84800000Y4600000D01*
X86600000Y4200000D01*
X88000000Y4200000D01*
X89500000Y4400000D01*
X90700000Y4800000D01*
X91600000Y5200000D01*
X92500000Y5800000D01*
X93700000Y6900000D01*
X94500000Y8000000D01*
X95000000Y8800000D01*
X95600000Y10400000D01*
X95800000Y11800000D01*
X95800000Y12500000D01*
G37*
X95800000Y12500000D02*
X91700000Y12500000D01*
X91700000Y12000000D01*
X91400000Y10800000D01*
X90700000Y9700000D01*
X89900000Y9000000D01*
X89200000Y8600000D01*
X88100000Y8300000D01*
X87000000Y8300000D01*
X85800000Y8600000D01*
X84800000Y9200000D01*
X84800000Y4600000D01*
X86600000Y4200000D01*
X88000000Y4200000D01*
X89500000Y4400000D01*
X90700000Y4800000D01*
X91600000Y5200000D01*
X92500000Y5800000D01*
X93700000Y6900000D01*
X94500000Y8000000D01*
X95000000Y8800000D01*
X95600000Y10400000D01*
X95800000Y11800000D01*
X95800000Y12500000D01*
G36*
X38000000Y16700000D02*
G01*
X38000000Y20800000D01*
X37200000Y20800000D01*
X36000000Y20700000D01*
X35000000Y20400000D01*
X34200000Y20100000D01*
X33500000Y19800000D01*
X32700000Y19300000D01*
X32000000Y18800000D01*
X31400000Y18200000D01*
X30900000Y17600000D01*
X30500000Y17000000D01*
X30100000Y16300000D01*
X29700000Y15400000D01*
X29500000Y14800000D01*
X29300000Y13900000D01*
X29200000Y13500000D01*
X33400000Y13500000D01*
X33600000Y14100000D01*
X33900000Y14700000D01*
X34400000Y15400000D01*
X35000000Y15900000D01*
X35400000Y16200000D01*
X35800000Y16400000D01*
X36300000Y16600000D01*
X36800000Y16700000D01*
X38000000Y16700000D01*
G37*
X38000000Y16700000D02*
X38000000Y20800000D01*
X37200000Y20800000D01*
X36000000Y20700000D01*
X35000000Y20400000D01*
X34200000Y20100000D01*
X33500000Y19800000D01*
X32700000Y19300000D01*
X32000000Y18800000D01*
X31400000Y18200000D01*
X30900000Y17600000D01*
X30500000Y17000000D01*
X30100000Y16300000D01*
X29700000Y15400000D01*
X29500000Y14800000D01*
X29300000Y13900000D01*
X29200000Y13500000D01*
X33400000Y13500000D01*
X33600000Y14100000D01*
X33900000Y14700000D01*
X34400000Y15400000D01*
X35000000Y15900000D01*
X35400000Y16200000D01*
X35800000Y16400000D01*
X36300000Y16600000D01*
X36800000Y16700000D01*
X38000000Y16700000D01*
G36*
X45800000Y12500000D02*
G01*
X45800000Y12900000D01*
X45700000Y13900000D01*
X45400000Y15100000D01*
X45000000Y16100000D01*
X44700000Y16700000D01*
X44200000Y17400000D01*
X43600000Y18200000D01*
X42700000Y19000000D01*
X42000000Y19500000D01*
X41300000Y19900000D01*
X40400000Y20300000D01*
X39500000Y20600000D01*
X38900000Y20700000D01*
X38000000Y20800000D01*
X38000000Y16700000D01*
X38600000Y16600000D01*
X39200000Y16400000D01*
X39700000Y16100000D01*
X40300000Y15700000D01*
X40900000Y15000000D01*
X41400000Y14200000D01*
X41600000Y13500000D01*
X41700000Y12500000D01*
X45800000Y12500000D01*
G37*
X45800000Y12500000D02*
X45800000Y12900000D01*
X45700000Y13900000D01*
X45400000Y15100000D01*
X45000000Y16100000D01*
X44700000Y16700000D01*
X44200000Y17400000D01*
X43600000Y18200000D01*
X42700000Y19000000D01*
X42000000Y19500000D01*
X41300000Y19900000D01*
X40400000Y20300000D01*
X39500000Y20600000D01*
X38900000Y20700000D01*
X38000000Y20800000D01*
X38000000Y16700000D01*
X38600000Y16600000D01*
X39200000Y16400000D01*
X39700000Y16100000D01*
X40300000Y15700000D01*
X40900000Y15000000D01*
X41400000Y14200000D01*
X41600000Y13500000D01*
X41700000Y12500000D01*
X45800000Y12500000D01*
G36*
X34800000Y4600000D02*
G01*
X34300000Y4800000D01*
X33500000Y5200000D01*
X32700000Y5700000D01*
X32100000Y6200000D01*
X31700000Y6500000D01*
X31200000Y7100000D01*
X30500000Y8000000D01*
X30200000Y8500000D01*
X29900000Y9100000D01*
X29700000Y9600000D01*
X29500000Y10200000D01*
X29400000Y10600000D01*
X29300000Y11200000D01*
X29200000Y13100000D01*
X29200000Y13500000D01*
X33400000Y13500000D01*
X33300000Y13200000D01*
X33300000Y12800000D01*
X33300000Y11900000D01*
X33400000Y11400000D01*
X33600000Y10800000D01*
X33900000Y10300000D01*
X34200000Y9800000D01*
X34800000Y9200000D01*
X34800000Y4600000D01*
G37*
X34800000Y4600000D02*
X34300000Y4800000D01*
X33500000Y5200000D01*
X32700000Y5700000D01*
X32100000Y6200000D01*
X31700000Y6500000D01*
X31200000Y7100000D01*
X30500000Y8000000D01*
X30200000Y8500000D01*
X29900000Y9100000D01*
X29700000Y9600000D01*
X29500000Y10200000D01*
X29400000Y10600000D01*
X29300000Y11200000D01*
X29200000Y13100000D01*
X29200000Y13500000D01*
X33400000Y13500000D01*
X33300000Y13200000D01*
X33300000Y12800000D01*
X33300000Y11900000D01*
X33400000Y11400000D01*
X33600000Y10800000D01*
X33900000Y10300000D01*
X34200000Y9800000D01*
X34800000Y9200000D01*
X34800000Y4600000D01*
G36*
X45800000Y12500000D02*
G01*
X41700000Y12500000D01*
X41700000Y12000000D01*
X41400000Y10800000D01*
X40700000Y9700000D01*
X39900000Y9000000D01*
X39200000Y8600000D01*
X38100000Y8300000D01*
X37000000Y8300000D01*
X35800000Y8600000D01*
X34800000Y9200000D01*
X34800000Y4600000D01*
X36600000Y4200000D01*
X38000000Y4200000D01*
X39500000Y4400000D01*
X40700000Y4800000D01*
X41600000Y5200000D01*
X42500000Y5800000D01*
X43700000Y6900000D01*
X44500000Y8000000D01*
X45000000Y8800000D01*
X45600000Y10400000D01*
X45800000Y11800000D01*
X45800000Y12500000D01*
G37*
X45800000Y12500000D02*
X41700000Y12500000D01*
X41700000Y12000000D01*
X41400000Y10800000D01*
X40700000Y9700000D01*
X39900000Y9000000D01*
X39200000Y8600000D01*
X38100000Y8300000D01*
X37000000Y8300000D01*
X35800000Y8600000D01*
X34800000Y9200000D01*
X34800000Y4600000D01*
X36600000Y4200000D01*
X38000000Y4200000D01*
X39500000Y4400000D01*
X40700000Y4800000D01*
X41600000Y5200000D01*
X42500000Y5800000D01*
X43700000Y6900000D01*
X44500000Y8000000D01*
X45000000Y8800000D01*
X45600000Y10400000D01*
X45800000Y11800000D01*
X45800000Y12500000D01*
G36*
X88000000Y41700000D02*
G01*
X88000000Y45800000D01*
X87200000Y45800000D01*
X86000000Y45700000D01*
X85000000Y45400000D01*
X84200000Y45100000D01*
X83500000Y44800000D01*
X82700000Y44300000D01*
X82000000Y43800000D01*
X81400000Y43200000D01*
X80900000Y42600000D01*
X80500000Y42000000D01*
X80100000Y41300000D01*
X79700000Y40400000D01*
X79500000Y39800000D01*
X79300000Y38900000D01*
X79200000Y38500000D01*
X83400000Y38500000D01*
X83600000Y39100000D01*
X83900000Y39700000D01*
X84400000Y40400000D01*
X85000000Y40900000D01*
X85400000Y41200000D01*
X85800000Y41400000D01*
X86300000Y41600000D01*
X86800000Y41700000D01*
X88000000Y41700000D01*
G37*
X88000000Y41700000D02*
X88000000Y45800000D01*
X87200000Y45800000D01*
X86000000Y45700000D01*
X85000000Y45400000D01*
X84200000Y45100000D01*
X83500000Y44800000D01*
X82700000Y44300000D01*
X82000000Y43800000D01*
X81400000Y43200000D01*
X80900000Y42600000D01*
X80500000Y42000000D01*
X80100000Y41300000D01*
X79700000Y40400000D01*
X79500000Y39800000D01*
X79300000Y38900000D01*
X79200000Y38500000D01*
X83400000Y38500000D01*
X83600000Y39100000D01*
X83900000Y39700000D01*
X84400000Y40400000D01*
X85000000Y40900000D01*
X85400000Y41200000D01*
X85800000Y41400000D01*
X86300000Y41600000D01*
X86800000Y41700000D01*
X88000000Y41700000D01*
G36*
X95800000Y37500000D02*
G01*
X95800000Y37900000D01*
X95700000Y38900000D01*
X95400000Y40100000D01*
X95000000Y41100000D01*
X94700000Y41700000D01*
X94200000Y42400000D01*
X93600000Y43200000D01*
X92700000Y44000000D01*
X92000000Y44500000D01*
X91300000Y44900000D01*
X90400000Y45300000D01*
X89500000Y45600000D01*
X88900000Y45700000D01*
X88000000Y45800000D01*
X88000000Y41700000D01*
X88600000Y41600000D01*
X89200000Y41400000D01*
X89700000Y41100000D01*
X90300000Y40700000D01*
X90900000Y40000000D01*
X91400000Y39200000D01*
X91600000Y38500000D01*
X91700000Y37500000D01*
X95800000Y37500000D01*
G37*
X95800000Y37500000D02*
X95800000Y37900000D01*
X95700000Y38900000D01*
X95400000Y40100000D01*
X95000000Y41100000D01*
X94700000Y41700000D01*
X94200000Y42400000D01*
X93600000Y43200000D01*
X92700000Y44000000D01*
X92000000Y44500000D01*
X91300000Y44900000D01*
X90400000Y45300000D01*
X89500000Y45600000D01*
X88900000Y45700000D01*
X88000000Y45800000D01*
X88000000Y41700000D01*
X88600000Y41600000D01*
X89200000Y41400000D01*
X89700000Y41100000D01*
X90300000Y40700000D01*
X90900000Y40000000D01*
X91400000Y39200000D01*
X91600000Y38500000D01*
X91700000Y37500000D01*
X95800000Y37500000D01*
G36*
X84800000Y29600000D02*
G01*
X84300000Y29800000D01*
X83500000Y30200000D01*
X82700000Y30700000D01*
X82100000Y31200000D01*
X81700000Y31500000D01*
X81200000Y32100000D01*
X80500000Y33000000D01*
X80200000Y33500000D01*
X79900000Y34100000D01*
X79700000Y34600000D01*
X79500000Y35200000D01*
X79400000Y35600000D01*
X79300000Y36200000D01*
X79200000Y38100000D01*
X79200000Y38500000D01*
X83400000Y38500000D01*
X83300000Y38200000D01*
X83300000Y37800000D01*
X83300000Y36900000D01*
X83400000Y36400000D01*
X83600000Y35800000D01*
X83900000Y35300000D01*
X84200000Y34800000D01*
X84800000Y34200000D01*
X84800000Y29600000D01*
G37*
X84800000Y29600000D02*
X84300000Y29800000D01*
X83500000Y30200000D01*
X82700000Y30700000D01*
X82100000Y31200000D01*
X81700000Y31500000D01*
X81200000Y32100000D01*
X80500000Y33000000D01*
X80200000Y33500000D01*
X79900000Y34100000D01*
X79700000Y34600000D01*
X79500000Y35200000D01*
X79400000Y35600000D01*
X79300000Y36200000D01*
X79200000Y38100000D01*
X79200000Y38500000D01*
X83400000Y38500000D01*
X83300000Y38200000D01*
X83300000Y37800000D01*
X83300000Y36900000D01*
X83400000Y36400000D01*
X83600000Y35800000D01*
X83900000Y35300000D01*
X84200000Y34800000D01*
X84800000Y34200000D01*
X84800000Y29600000D01*
G36*
X95800000Y37500000D02*
G01*
X91700000Y37500000D01*
X91700000Y37000000D01*
X91400000Y35800000D01*
X90700000Y34700000D01*
X89900000Y34000000D01*
X89200000Y33600000D01*
X88100000Y33300000D01*
X87000000Y33300000D01*
X85800000Y33600000D01*
X84800000Y34200000D01*
X84800000Y29600000D01*
X86600000Y29200000D01*
X88000000Y29200000D01*
X89500000Y29400000D01*
X90700000Y29800000D01*
X91600000Y30200000D01*
X92500000Y30800000D01*
X93700000Y31900000D01*
X94500000Y33000000D01*
X95000000Y33800000D01*
X95600000Y35400000D01*
X95800000Y36800000D01*
X95800000Y37500000D01*
G37*
X95800000Y37500000D02*
X91700000Y37500000D01*
X91700000Y37000000D01*
X91400000Y35800000D01*
X90700000Y34700000D01*
X89900000Y34000000D01*
X89200000Y33600000D01*
X88100000Y33300000D01*
X87000000Y33300000D01*
X85800000Y33600000D01*
X84800000Y34200000D01*
X84800000Y29600000D01*
X86600000Y29200000D01*
X88000000Y29200000D01*
X89500000Y29400000D01*
X90700000Y29800000D01*
X91600000Y30200000D01*
X92500000Y30800000D01*
X93700000Y31900000D01*
X94500000Y33000000D01*
X95000000Y33800000D01*
X95600000Y35400000D01*
X95800000Y36800000D01*
X95800000Y37500000D01*
G36*
X38000000Y41700000D02*
G01*
X38000000Y45800000D01*
X37200000Y45800000D01*
X36000000Y45700000D01*
X35000000Y45400000D01*
X34200000Y45100000D01*
X33500000Y44800000D01*
X32700000Y44300000D01*
X32000000Y43800000D01*
X31400000Y43200000D01*
X30900000Y42600000D01*
X30500000Y42000000D01*
X30100000Y41300000D01*
X29700000Y40400000D01*
X29500000Y39800000D01*
X29300000Y38900000D01*
X29200000Y38500000D01*
X33400000Y38500000D01*
X33600000Y39100000D01*
X33900000Y39700000D01*
X34400000Y40400000D01*
X35000000Y40900000D01*
X35400000Y41200000D01*
X35800000Y41400000D01*
X36300000Y41600000D01*
X36800000Y41700000D01*
X38000000Y41700000D01*
G37*
X38000000Y41700000D02*
X38000000Y45800000D01*
X37200000Y45800000D01*
X36000000Y45700000D01*
X35000000Y45400000D01*
X34200000Y45100000D01*
X33500000Y44800000D01*
X32700000Y44300000D01*
X32000000Y43800000D01*
X31400000Y43200000D01*
X30900000Y42600000D01*
X30500000Y42000000D01*
X30100000Y41300000D01*
X29700000Y40400000D01*
X29500000Y39800000D01*
X29300000Y38900000D01*
X29200000Y38500000D01*
X33400000Y38500000D01*
X33600000Y39100000D01*
X33900000Y39700000D01*
X34400000Y40400000D01*
X35000000Y40900000D01*
X35400000Y41200000D01*
X35800000Y41400000D01*
X36300000Y41600000D01*
X36800000Y41700000D01*
X38000000Y41700000D01*
G36*
X45800000Y37500000D02*
G01*
X45800000Y37900000D01*
X45700000Y38900000D01*
X45400000Y40100000D01*
X45000000Y41100000D01*
X44700000Y41700000D01*
X44200000Y42400000D01*
X43600000Y43200000D01*
X42700000Y44000000D01*
X42000000Y44500000D01*
X41300000Y44900000D01*
X40400000Y45300000D01*
X39500000Y45600000D01*
X38900000Y45700000D01*
X38000000Y45800000D01*
X38000000Y41700000D01*
X38600000Y41600000D01*
X39200000Y41400000D01*
X39700000Y41100000D01*
X40300000Y40700000D01*
X40900000Y40000000D01*
X41400000Y39200000D01*
X41600000Y38500000D01*
X41700000Y37500000D01*
X45800000Y37500000D01*
G37*
X45800000Y37500000D02*
X45800000Y37900000D01*
X45700000Y38900000D01*
X45400000Y40100000D01*
X45000000Y41100000D01*
X44700000Y41700000D01*
X44200000Y42400000D01*
X43600000Y43200000D01*
X42700000Y44000000D01*
X42000000Y44500000D01*
X41300000Y44900000D01*
X40400000Y45300000D01*
X39500000Y45600000D01*
X38900000Y45700000D01*
X38000000Y45800000D01*
X38000000Y41700000D01*
X38600000Y41600000D01*
X39200000Y41400000D01*
X39700000Y41100000D01*
X40300000Y40700000D01*
X40900000Y40000000D01*
X41400000Y39200000D01*
X41600000Y38500000D01*
X41700000Y37500000D01*
X45800000Y37500000D01*
G36*
X34800000Y29600000D02*
G01*
X34300000Y29800000D01*
X33500000Y30200000D01*
X32700000Y30700000D01*
X32100000Y31200000D01*
X31700000Y31500000D01*
X31200000Y32100000D01*
X30500000Y33000000D01*
X30200000Y33500000D01*
X29900000Y34100000D01*
X29700000Y34600000D01*
X29500000Y35200000D01*
X29400000Y35600000D01*
X29300000Y36200000D01*
X29200000Y38100000D01*
X29200000Y38500000D01*
X33400000Y38500000D01*
X33300000Y38200000D01*
X33300000Y37800000D01*
X33300000Y36900000D01*
X33400000Y36400000D01*
X33600000Y35800000D01*
X33900000Y35300000D01*
X34200000Y34800000D01*
X34800000Y34200000D01*
X34800000Y29600000D01*
G37*
X34800000Y29600000D02*
X34300000Y29800000D01*
X33500000Y30200000D01*
X32700000Y30700000D01*
X32100000Y31200000D01*
X31700000Y31500000D01*
X31200000Y32100000D01*
X30500000Y33000000D01*
X30200000Y33500000D01*
X29900000Y34100000D01*
X29700000Y34600000D01*
X29500000Y35200000D01*
X29400000Y35600000D01*
X29300000Y36200000D01*
X29200000Y38100000D01*
X29200000Y38500000D01*
X33400000Y38500000D01*
X33300000Y38200000D01*
X33300000Y37800000D01*
X33300000Y36900000D01*
X33400000Y36400000D01*
X33600000Y35800000D01*
X33900000Y35300000D01*
X34200000Y34800000D01*
X34800000Y34200000D01*
X34800000Y29600000D01*
G36*
X45800000Y37500000D02*
G01*
X41700000Y37500000D01*
X41700000Y37000000D01*
X41400000Y35800000D01*
X40700000Y34700000D01*
X39900000Y34000000D01*
X39200000Y33600000D01*
X38100000Y33300000D01*
X37000000Y33300000D01*
X35800000Y33600000D01*
X34800000Y34200000D01*
X34800000Y29600000D01*
X36600000Y29200000D01*
X38000000Y29200000D01*
X39500000Y29400000D01*
X40700000Y29800000D01*
X41600000Y30200000D01*
X42500000Y30800000D01*
X43700000Y31900000D01*
X44500000Y33000000D01*
X45000000Y33800000D01*
X45600000Y35400000D01*
X45800000Y36800000D01*
X45800000Y37500000D01*
G37*
X45800000Y37500000D02*
X41700000Y37500000D01*
X41700000Y37000000D01*
X41400000Y35800000D01*
X40700000Y34700000D01*
X39900000Y34000000D01*
X39200000Y33600000D01*
X38100000Y33300000D01*
X37000000Y33300000D01*
X35800000Y33600000D01*
X34800000Y34200000D01*
X34800000Y29600000D01*
X36600000Y29200000D01*
X38000000Y29200000D01*
X39500000Y29400000D01*
X40700000Y29800000D01*
X41600000Y30200000D01*
X42500000Y30800000D01*
X43700000Y31900000D01*
X44500000Y33000000D01*
X45000000Y33800000D01*
X45600000Y35400000D01*
X45800000Y36800000D01*
X45800000Y37500000D01*
G36*
X88000000Y66700000D02*
G01*
X88000000Y70800000D01*
X87200000Y70800000D01*
X86000000Y70700000D01*
X85000000Y70400000D01*
X84200000Y70100000D01*
X83500000Y69800000D01*
X82700000Y69300000D01*
X82000000Y68800000D01*
X81400000Y68200000D01*
X80900000Y67600000D01*
X80500000Y67000000D01*
X80100000Y66300000D01*
X79700000Y65400000D01*
X79500000Y64800000D01*
X79300000Y63900000D01*
X79200000Y63500000D01*
X83400000Y63500000D01*
X83600000Y64100000D01*
X83900000Y64700000D01*
X84400000Y65400000D01*
X85000000Y65900000D01*
X85400000Y66200000D01*
X85800000Y66400000D01*
X86300000Y66600000D01*
X86800000Y66700000D01*
X88000000Y66700000D01*
G37*
X88000000Y66700000D02*
X88000000Y70800000D01*
X87200000Y70800000D01*
X86000000Y70700000D01*
X85000000Y70400000D01*
X84200000Y70100000D01*
X83500000Y69800000D01*
X82700000Y69300000D01*
X82000000Y68800000D01*
X81400000Y68200000D01*
X80900000Y67600000D01*
X80500000Y67000000D01*
X80100000Y66300000D01*
X79700000Y65400000D01*
X79500000Y64800000D01*
X79300000Y63900000D01*
X79200000Y63500000D01*
X83400000Y63500000D01*
X83600000Y64100000D01*
X83900000Y64700000D01*
X84400000Y65400000D01*
X85000000Y65900000D01*
X85400000Y66200000D01*
X85800000Y66400000D01*
X86300000Y66600000D01*
X86800000Y66700000D01*
X88000000Y66700000D01*
G36*
X95800000Y62500000D02*
G01*
X95800000Y62900000D01*
X95700000Y63900000D01*
X95400000Y65100000D01*
X95000000Y66100000D01*
X94700000Y66700000D01*
X94200000Y67400000D01*
X93600000Y68200000D01*
X92700000Y69000000D01*
X92000000Y69500000D01*
X91300000Y69900000D01*
X90400000Y70300000D01*
X89500000Y70600000D01*
X88900000Y70700000D01*
X88000000Y70800000D01*
X88000000Y66700000D01*
X88600000Y66600000D01*
X89200000Y66400000D01*
X89700000Y66100000D01*
X90300000Y65700000D01*
X90900000Y65000000D01*
X91400000Y64200000D01*
X91600000Y63500000D01*
X91700000Y62500000D01*
X95800000Y62500000D01*
G37*
X95800000Y62500000D02*
X95800000Y62900000D01*
X95700000Y63900000D01*
X95400000Y65100000D01*
X95000000Y66100000D01*
X94700000Y66700000D01*
X94200000Y67400000D01*
X93600000Y68200000D01*
X92700000Y69000000D01*
X92000000Y69500000D01*
X91300000Y69900000D01*
X90400000Y70300000D01*
X89500000Y70600000D01*
X88900000Y70700000D01*
X88000000Y70800000D01*
X88000000Y66700000D01*
X88600000Y66600000D01*
X89200000Y66400000D01*
X89700000Y66100000D01*
X90300000Y65700000D01*
X90900000Y65000000D01*
X91400000Y64200000D01*
X91600000Y63500000D01*
X91700000Y62500000D01*
X95800000Y62500000D01*
G36*
X84800000Y54600000D02*
G01*
X84300000Y54800000D01*
X83500000Y55200000D01*
X82700000Y55700000D01*
X82100000Y56200000D01*
X81700000Y56500000D01*
X81200000Y57100000D01*
X80500000Y58000000D01*
X80200000Y58500000D01*
X79900000Y59100000D01*
X79700000Y59600000D01*
X79500000Y60200000D01*
X79400000Y60600000D01*
X79300000Y61200000D01*
X79200000Y63100000D01*
X79200000Y63500000D01*
X83400000Y63500000D01*
X83300000Y63200000D01*
X83300000Y62800000D01*
X83300000Y61900000D01*
X83400000Y61400000D01*
X83600000Y60800000D01*
X83900000Y60300000D01*
X84200000Y59800000D01*
X84800000Y59200000D01*
X84800000Y54600000D01*
G37*
X84800000Y54600000D02*
X84300000Y54800000D01*
X83500000Y55200000D01*
X82700000Y55700000D01*
X82100000Y56200000D01*
X81700000Y56500000D01*
X81200000Y57100000D01*
X80500000Y58000000D01*
X80200000Y58500000D01*
X79900000Y59100000D01*
X79700000Y59600000D01*
X79500000Y60200000D01*
X79400000Y60600000D01*
X79300000Y61200000D01*
X79200000Y63100000D01*
X79200000Y63500000D01*
X83400000Y63500000D01*
X83300000Y63200000D01*
X83300000Y62800000D01*
X83300000Y61900000D01*
X83400000Y61400000D01*
X83600000Y60800000D01*
X83900000Y60300000D01*
X84200000Y59800000D01*
X84800000Y59200000D01*
X84800000Y54600000D01*
G36*
X95800000Y62500000D02*
G01*
X91700000Y62500000D01*
X91700000Y62000000D01*
X91400000Y60800000D01*
X90700000Y59700000D01*
X89900000Y59000000D01*
X89200000Y58600000D01*
X88100000Y58300000D01*
X87000000Y58300000D01*
X85800000Y58600000D01*
X84800000Y59200000D01*
X84800000Y54600000D01*
X86600000Y54200000D01*
X88000000Y54200000D01*
X89500000Y54400000D01*
X90700000Y54800000D01*
X91600000Y55200000D01*
X92500000Y55800000D01*
X93700000Y56900000D01*
X94500000Y58000000D01*
X95000000Y58800000D01*
X95600000Y60400000D01*
X95800000Y61800000D01*
X95800000Y62500000D01*
G37*
X95800000Y62500000D02*
X91700000Y62500000D01*
X91700000Y62000000D01*
X91400000Y60800000D01*
X90700000Y59700000D01*
X89900000Y59000000D01*
X89200000Y58600000D01*
X88100000Y58300000D01*
X87000000Y58300000D01*
X85800000Y58600000D01*
X84800000Y59200000D01*
X84800000Y54600000D01*
X86600000Y54200000D01*
X88000000Y54200000D01*
X89500000Y54400000D01*
X90700000Y54800000D01*
X91600000Y55200000D01*
X92500000Y55800000D01*
X93700000Y56900000D01*
X94500000Y58000000D01*
X95000000Y58800000D01*
X95600000Y60400000D01*
X95800000Y61800000D01*
X95800000Y62500000D01*
G36*
X38000000Y91700000D02*
G01*
X38000000Y95800000D01*
X37200000Y95800000D01*
X36000000Y95700000D01*
X35000000Y95400000D01*
X34200000Y95100000D01*
X33500000Y94800000D01*
X32700000Y94300000D01*
X32000000Y93800000D01*
X31400000Y93200000D01*
X30900000Y92600000D01*
X30500000Y92000000D01*
X30100000Y91300000D01*
X29700000Y90400000D01*
X29500000Y89800000D01*
X29300000Y88900000D01*
X29200000Y88500000D01*
X33400000Y88500000D01*
X33600000Y89100000D01*
X33900000Y89700000D01*
X34400000Y90400000D01*
X35000000Y90900000D01*
X35400000Y91200000D01*
X35800000Y91400000D01*
X36300000Y91600000D01*
X36800000Y91700000D01*
X38000000Y91700000D01*
G37*
X38000000Y91700000D02*
X38000000Y95800000D01*
X37200000Y95800000D01*
X36000000Y95700000D01*
X35000000Y95400000D01*
X34200000Y95100000D01*
X33500000Y94800000D01*
X32700000Y94300000D01*
X32000000Y93800000D01*
X31400000Y93200000D01*
X30900000Y92600000D01*
X30500000Y92000000D01*
X30100000Y91300000D01*
X29700000Y90400000D01*
X29500000Y89800000D01*
X29300000Y88900000D01*
X29200000Y88500000D01*
X33400000Y88500000D01*
X33600000Y89100000D01*
X33900000Y89700000D01*
X34400000Y90400000D01*
X35000000Y90900000D01*
X35400000Y91200000D01*
X35800000Y91400000D01*
X36300000Y91600000D01*
X36800000Y91700000D01*
X38000000Y91700000D01*
G36*
X45800000Y87500000D02*
G01*
X45800000Y87900000D01*
X45700000Y88900000D01*
X45400000Y90100000D01*
X45000000Y91100000D01*
X44700000Y91700000D01*
X44200000Y92400000D01*
X43600000Y93200000D01*
X42700000Y94000000D01*
X42000000Y94500000D01*
X41300000Y94900000D01*
X40400000Y95300000D01*
X39500000Y95600000D01*
X38900000Y95700000D01*
X38000000Y95800000D01*
X38000000Y91700000D01*
X38600000Y91600000D01*
X39200000Y91400000D01*
X39700000Y91100000D01*
X40300000Y90700000D01*
X40900000Y90000000D01*
X41400000Y89200000D01*
X41600000Y88500000D01*
X41700000Y87500000D01*
X45800000Y87500000D01*
G37*
X45800000Y87500000D02*
X45800000Y87900000D01*
X45700000Y88900000D01*
X45400000Y90100000D01*
X45000000Y91100000D01*
X44700000Y91700000D01*
X44200000Y92400000D01*
X43600000Y93200000D01*
X42700000Y94000000D01*
X42000000Y94500000D01*
X41300000Y94900000D01*
X40400000Y95300000D01*
X39500000Y95600000D01*
X38900000Y95700000D01*
X38000000Y95800000D01*
X38000000Y91700000D01*
X38600000Y91600000D01*
X39200000Y91400000D01*
X39700000Y91100000D01*
X40300000Y90700000D01*
X40900000Y90000000D01*
X41400000Y89200000D01*
X41600000Y88500000D01*
X41700000Y87500000D01*
X45800000Y87500000D01*
G36*
X34800000Y79600000D02*
G01*
X34300000Y79800000D01*
X33500000Y80200000D01*
X32700000Y80700000D01*
X32100000Y81200000D01*
X31700000Y81500000D01*
X31200000Y82100000D01*
X30500000Y83000000D01*
X30200000Y83500000D01*
X29900000Y84100000D01*
X29700000Y84600000D01*
X29500000Y85200000D01*
X29400000Y85600000D01*
X29300000Y86200000D01*
X29200000Y88100000D01*
X29200000Y88500000D01*
X33400000Y88500000D01*
X33300000Y88200000D01*
X33300000Y87800000D01*
X33300000Y86900000D01*
X33400000Y86400000D01*
X33600000Y85800000D01*
X33900000Y85300000D01*
X34200000Y84800000D01*
X34800000Y84200000D01*
X34800000Y79600000D01*
G37*
X34800000Y79600000D02*
X34300000Y79800000D01*
X33500000Y80200000D01*
X32700000Y80700000D01*
X32100000Y81200000D01*
X31700000Y81500000D01*
X31200000Y82100000D01*
X30500000Y83000000D01*
X30200000Y83500000D01*
X29900000Y84100000D01*
X29700000Y84600000D01*
X29500000Y85200000D01*
X29400000Y85600000D01*
X29300000Y86200000D01*
X29200000Y88100000D01*
X29200000Y88500000D01*
X33400000Y88500000D01*
X33300000Y88200000D01*
X33300000Y87800000D01*
X33300000Y86900000D01*
X33400000Y86400000D01*
X33600000Y85800000D01*
X33900000Y85300000D01*
X34200000Y84800000D01*
X34800000Y84200000D01*
X34800000Y79600000D01*
G36*
X45800000Y87500000D02*
G01*
X41700000Y87500000D01*
X41700000Y87000000D01*
X41400000Y85800000D01*
X40700000Y84700000D01*
X39900000Y84000000D01*
X39200000Y83600000D01*
X38100000Y83300000D01*
X37000000Y83300000D01*
X35800000Y83600000D01*
X34800000Y84200000D01*
X34800000Y79600000D01*
X36600000Y79200000D01*
X38000000Y79200000D01*
X39500000Y79400000D01*
X40700000Y79800000D01*
X41600000Y80200000D01*
X42500000Y80800000D01*
X43700000Y81900000D01*
X44500000Y83000000D01*
X45000000Y83800000D01*
X45600000Y85400000D01*
X45800000Y86800000D01*
X45800000Y87500000D01*
G37*
X45800000Y87500000D02*
X41700000Y87500000D01*
X41700000Y87000000D01*
X41400000Y85800000D01*
X40700000Y84700000D01*
X39900000Y84000000D01*
X39200000Y83600000D01*
X38100000Y83300000D01*
X37000000Y83300000D01*
X35800000Y83600000D01*
X34800000Y84200000D01*
X34800000Y79600000D01*
X36600000Y79200000D01*
X38000000Y79200000D01*
X39500000Y79400000D01*
X40700000Y79800000D01*
X41600000Y80200000D01*
X42500000Y80800000D01*
X43700000Y81900000D01*
X44500000Y83000000D01*
X45000000Y83800000D01*
X45600000Y85400000D01*
X45800000Y86800000D01*
X45800000Y87500000D01*
G36*
X62000000Y16700000D02*
G01*
X62000000Y20800000D01*
X62800000Y20800000D01*
X64000000Y20700000D01*
X65000000Y20400000D01*
X65800000Y20100000D01*
X66500000Y19800000D01*
X67300000Y19300000D01*
X68000000Y18800000D01*
X68600000Y18200000D01*
X69100000Y17600000D01*
X69500000Y17000000D01*
X69900000Y16300000D01*
X70300000Y15400000D01*
X70500000Y14800000D01*
X70700000Y13900000D01*
X70800000Y13500000D01*
X66600000Y13500000D01*
X66400000Y14100000D01*
X66100000Y14700000D01*
X65600000Y15400000D01*
X65000000Y15900000D01*
X64600000Y16200000D01*
X64200000Y16400000D01*
X63700000Y16600000D01*
X63200000Y16700000D01*
X62000000Y16700000D01*
G37*
X62000000Y16700000D02*
X62000000Y20800000D01*
X62800000Y20800000D01*
X64000000Y20700000D01*
X65000000Y20400000D01*
X65800000Y20100000D01*
X66500000Y19800000D01*
X67300000Y19300000D01*
X68000000Y18800000D01*
X68600000Y18200000D01*
X69100000Y17600000D01*
X69500000Y17000000D01*
X69900000Y16300000D01*
X70300000Y15400000D01*
X70500000Y14800000D01*
X70700000Y13900000D01*
X70800000Y13500000D01*
X66600000Y13500000D01*
X66400000Y14100000D01*
X66100000Y14700000D01*
X65600000Y15400000D01*
X65000000Y15900000D01*
X64600000Y16200000D01*
X64200000Y16400000D01*
X63700000Y16600000D01*
X63200000Y16700000D01*
X62000000Y16700000D01*
G36*
X54200000Y12500000D02*
G01*
X54200000Y12900000D01*
X54300000Y13900000D01*
X54600000Y15100000D01*
X55000000Y16100000D01*
X55300000Y16700000D01*
X55800000Y17400000D01*
X56400000Y18200000D01*
X57300000Y19000000D01*
X58000000Y19500000D01*
X58700000Y19900000D01*
X59600000Y20300000D01*
X60500000Y20600000D01*
X61100000Y20700000D01*
X62000000Y20800000D01*
X62000000Y16700000D01*
X61400000Y16600000D01*
X60800000Y16400000D01*
X60300000Y16100000D01*
X59700000Y15700000D01*
X59100000Y15000000D01*
X58600000Y14200000D01*
X58400000Y13500000D01*
X58300000Y12500000D01*
X54200000Y12500000D01*
G37*
X54200000Y12500000D02*
X54200000Y12900000D01*
X54300000Y13900000D01*
X54600000Y15100000D01*
X55000000Y16100000D01*
X55300000Y16700000D01*
X55800000Y17400000D01*
X56400000Y18200000D01*
X57300000Y19000000D01*
X58000000Y19500000D01*
X58700000Y19900000D01*
X59600000Y20300000D01*
X60500000Y20600000D01*
X61100000Y20700000D01*
X62000000Y20800000D01*
X62000000Y16700000D01*
X61400000Y16600000D01*
X60800000Y16400000D01*
X60300000Y16100000D01*
X59700000Y15700000D01*
X59100000Y15000000D01*
X58600000Y14200000D01*
X58400000Y13500000D01*
X58300000Y12500000D01*
X54200000Y12500000D01*
G36*
X65200000Y4600000D02*
G01*
X65700000Y4800000D01*
X66500000Y5200000D01*
X67300000Y5700000D01*
X67900000Y6200000D01*
X68300000Y6500000D01*
X68800000Y7100000D01*
X69500000Y8000000D01*
X69800000Y8500000D01*
X70100000Y9100000D01*
X70300000Y9600000D01*
X70500000Y10200000D01*
X70600000Y10600000D01*
X70700000Y11200000D01*
X70800000Y13100000D01*
X70800000Y13500000D01*
X66600000Y13500000D01*
X66700000Y13200000D01*
X66700000Y12800000D01*
X66700000Y11900000D01*
X66600000Y11400000D01*
X66400000Y10800000D01*
X66100000Y10300000D01*
X65800000Y9800000D01*
X65200000Y9200000D01*
X65200000Y4600000D01*
G37*
X65200000Y4600000D02*
X65700000Y4800000D01*
X66500000Y5200000D01*
X67300000Y5700000D01*
X67900000Y6200000D01*
X68300000Y6500000D01*
X68800000Y7100000D01*
X69500000Y8000000D01*
X69800000Y8500000D01*
X70100000Y9100000D01*
X70300000Y9600000D01*
X70500000Y10200000D01*
X70600000Y10600000D01*
X70700000Y11200000D01*
X70800000Y13100000D01*
X70800000Y13500000D01*
X66600000Y13500000D01*
X66700000Y13200000D01*
X66700000Y12800000D01*
X66700000Y11900000D01*
X66600000Y11400000D01*
X66400000Y10800000D01*
X66100000Y10300000D01*
X65800000Y9800000D01*
X65200000Y9200000D01*
X65200000Y4600000D01*
G36*
X54200000Y12500000D02*
G01*
X58300000Y12500000D01*
X58300000Y12000000D01*
X58600000Y10800000D01*
X59300000Y9700000D01*
X60100000Y9000000D01*
X60800000Y8600000D01*
X61900000Y8300000D01*
X63000000Y8300000D01*
X64200000Y8600000D01*
X65200000Y9200000D01*
X65200000Y4600000D01*
X63400000Y4200000D01*
X62000000Y4200000D01*
X60500000Y4400000D01*
X59300000Y4800000D01*
X58400000Y5200000D01*
X57500000Y5800000D01*
X56300000Y6900000D01*
X55500000Y8000000D01*
X55000000Y8800000D01*
X54400000Y10400000D01*
X54200000Y11800000D01*
X54200000Y12500000D01*
G37*
X54200000Y12500000D02*
X58300000Y12500000D01*
X58300000Y12000000D01*
X58600000Y10800000D01*
X59300000Y9700000D01*
X60100000Y9000000D01*
X60800000Y8600000D01*
X61900000Y8300000D01*
X63000000Y8300000D01*
X64200000Y8600000D01*
X65200000Y9200000D01*
X65200000Y4600000D01*
X63400000Y4200000D01*
X62000000Y4200000D01*
X60500000Y4400000D01*
X59300000Y4800000D01*
X58400000Y5200000D01*
X57500000Y5800000D01*
X56300000Y6900000D01*
X55500000Y8000000D01*
X55000000Y8800000D01*
X54400000Y10400000D01*
X54200000Y11800000D01*
X54200000Y12500000D01*
G36*
X12000000Y16700000D02*
G01*
X12000000Y20800000D01*
X12800000Y20800000D01*
X14000000Y20700000D01*
X15000000Y20400000D01*
X15800000Y20100000D01*
X16500000Y19800000D01*
X17300000Y19300000D01*
X18000000Y18800000D01*
X18600000Y18200000D01*
X19100000Y17600000D01*
X19500000Y17000000D01*
X19900000Y16300000D01*
X20300000Y15400000D01*
X20500000Y14800000D01*
X20700000Y13900000D01*
X20800000Y13500000D01*
X16600000Y13500000D01*
X16400000Y14100000D01*
X16100000Y14700000D01*
X15600000Y15400000D01*
X15000000Y15900000D01*
X14600000Y16200000D01*
X14200000Y16400000D01*
X13700000Y16600000D01*
X13200000Y16700000D01*
X12000000Y16700000D01*
G37*
X12000000Y16700000D02*
X12000000Y20800000D01*
X12800000Y20800000D01*
X14000000Y20700000D01*
X15000000Y20400000D01*
X15800000Y20100000D01*
X16500000Y19800000D01*
X17300000Y19300000D01*
X18000000Y18800000D01*
X18600000Y18200000D01*
X19100000Y17600000D01*
X19500000Y17000000D01*
X19900000Y16300000D01*
X20300000Y15400000D01*
X20500000Y14800000D01*
X20700000Y13900000D01*
X20800000Y13500000D01*
X16600000Y13500000D01*
X16400000Y14100000D01*
X16100000Y14700000D01*
X15600000Y15400000D01*
X15000000Y15900000D01*
X14600000Y16200000D01*
X14200000Y16400000D01*
X13700000Y16600000D01*
X13200000Y16700000D01*
X12000000Y16700000D01*
G36*
X4200000Y12500000D02*
G01*
X4200000Y12900000D01*
X4300000Y13900000D01*
X4600000Y15100000D01*
X5000000Y16100000D01*
X5300000Y16700000D01*
X5800000Y17400000D01*
X6400000Y18200000D01*
X7300000Y19000000D01*
X8000000Y19500000D01*
X8700000Y19900000D01*
X9600000Y20300000D01*
X10500000Y20600000D01*
X11100000Y20700000D01*
X12000000Y20800000D01*
X12000000Y16700000D01*
X11400000Y16600000D01*
X10800000Y16400000D01*
X10300000Y16100000D01*
X9700000Y15700000D01*
X9100000Y15000000D01*
X8600000Y14200000D01*
X8400000Y13500000D01*
X8300000Y12500000D01*
X4200000Y12500000D01*
G37*
X4200000Y12500000D02*
X4200000Y12900000D01*
X4300000Y13900000D01*
X4600000Y15100000D01*
X5000000Y16100000D01*
X5300000Y16700000D01*
X5800000Y17400000D01*
X6400000Y18200000D01*
X7300000Y19000000D01*
X8000000Y19500000D01*
X8700000Y19900000D01*
X9600000Y20300000D01*
X10500000Y20600000D01*
X11100000Y20700000D01*
X12000000Y20800000D01*
X12000000Y16700000D01*
X11400000Y16600000D01*
X10800000Y16400000D01*
X10300000Y16100000D01*
X9700000Y15700000D01*
X9100000Y15000000D01*
X8600000Y14200000D01*
X8400000Y13500000D01*
X8300000Y12500000D01*
X4200000Y12500000D01*
G36*
X15200000Y4600000D02*
G01*
X15700000Y4800000D01*
X16500000Y5200000D01*
X17300000Y5700000D01*
X17900000Y6200000D01*
X18300000Y6500000D01*
X18800000Y7100000D01*
X19500000Y8000000D01*
X19800000Y8500000D01*
X20100000Y9100000D01*
X20300000Y9600000D01*
X20500000Y10200000D01*
X20600000Y10600000D01*
X20700000Y11200000D01*
X20800000Y13100000D01*
X20800000Y13500000D01*
X16600000Y13500000D01*
X16700000Y13200000D01*
X16700000Y12800000D01*
X16700000Y11900000D01*
X16600000Y11400000D01*
X16400000Y10800000D01*
X16100000Y10300000D01*
X15800000Y9800000D01*
X15200000Y9200000D01*
X15200000Y4600000D01*
G37*
X15200000Y4600000D02*
X15700000Y4800000D01*
X16500000Y5200000D01*
X17300000Y5700000D01*
X17900000Y6200000D01*
X18300000Y6500000D01*
X18800000Y7100000D01*
X19500000Y8000000D01*
X19800000Y8500000D01*
X20100000Y9100000D01*
X20300000Y9600000D01*
X20500000Y10200000D01*
X20600000Y10600000D01*
X20700000Y11200000D01*
X20800000Y13100000D01*
X20800000Y13500000D01*
X16600000Y13500000D01*
X16700000Y13200000D01*
X16700000Y12800000D01*
X16700000Y11900000D01*
X16600000Y11400000D01*
X16400000Y10800000D01*
X16100000Y10300000D01*
X15800000Y9800000D01*
X15200000Y9200000D01*
X15200000Y4600000D01*
G36*
X4200000Y12500000D02*
G01*
X8300000Y12500000D01*
X8300000Y12000000D01*
X8600000Y10800000D01*
X9300000Y9700000D01*
X10100000Y9000000D01*
X10800000Y8600000D01*
X11900000Y8300000D01*
X13000000Y8300000D01*
X14200000Y8600000D01*
X15200000Y9200000D01*
X15200000Y4600000D01*
X13400000Y4200000D01*
X12000000Y4200000D01*
X10500000Y4400000D01*
X9300000Y4800000D01*
X8400000Y5200000D01*
X7500000Y5800000D01*
X6300000Y6900000D01*
X5500000Y8000000D01*
X5000000Y8800000D01*
X4400000Y10400000D01*
X4200000Y11800000D01*
X4200000Y12500000D01*
G37*
X4200000Y12500000D02*
X8300000Y12500000D01*
X8300000Y12000000D01*
X8600000Y10800000D01*
X9300000Y9700000D01*
X10100000Y9000000D01*
X10800000Y8600000D01*
X11900000Y8300000D01*
X13000000Y8300000D01*
X14200000Y8600000D01*
X15200000Y9200000D01*
X15200000Y4600000D01*
X13400000Y4200000D01*
X12000000Y4200000D01*
X10500000Y4400000D01*
X9300000Y4800000D01*
X8400000Y5200000D01*
X7500000Y5800000D01*
X6300000Y6900000D01*
X5500000Y8000000D01*
X5000000Y8800000D01*
X4400000Y10400000D01*
X4200000Y11800000D01*
X4200000Y12500000D01*
G36*
X12000000Y41700000D02*
G01*
X12000000Y45800000D01*
X12800000Y45800000D01*
X14000000Y45700000D01*
X15000000Y45400000D01*
X15800000Y45100000D01*
X16500000Y44800000D01*
X17300000Y44300000D01*
X18000000Y43800000D01*
X18600000Y43200000D01*
X19100000Y42600000D01*
X19500000Y42000000D01*
X19900000Y41300000D01*
X20300000Y40400000D01*
X20500000Y39800000D01*
X20700000Y38900000D01*
X20800000Y38500000D01*
X16600000Y38500000D01*
X16400000Y39100000D01*
X16100000Y39700000D01*
X15600000Y40400000D01*
X15000000Y40900000D01*
X14600000Y41200000D01*
X14200000Y41400000D01*
X13700000Y41600000D01*
X13200000Y41700000D01*
X12000000Y41700000D01*
G37*
X12000000Y41700000D02*
X12000000Y45800000D01*
X12800000Y45800000D01*
X14000000Y45700000D01*
X15000000Y45400000D01*
X15800000Y45100000D01*
X16500000Y44800000D01*
X17300000Y44300000D01*
X18000000Y43800000D01*
X18600000Y43200000D01*
X19100000Y42600000D01*
X19500000Y42000000D01*
X19900000Y41300000D01*
X20300000Y40400000D01*
X20500000Y39800000D01*
X20700000Y38900000D01*
X20800000Y38500000D01*
X16600000Y38500000D01*
X16400000Y39100000D01*
X16100000Y39700000D01*
X15600000Y40400000D01*
X15000000Y40900000D01*
X14600000Y41200000D01*
X14200000Y41400000D01*
X13700000Y41600000D01*
X13200000Y41700000D01*
X12000000Y41700000D01*
G36*
X4200000Y37500000D02*
G01*
X4200000Y37900000D01*
X4300000Y38900000D01*
X4600000Y40100000D01*
X5000000Y41100000D01*
X5300000Y41700000D01*
X5800000Y42400000D01*
X6400000Y43200000D01*
X7300000Y44000000D01*
X8000000Y44500000D01*
X8700000Y44900000D01*
X9600000Y45300000D01*
X10500000Y45600000D01*
X11100000Y45700000D01*
X12000000Y45800000D01*
X12000000Y41700000D01*
X11400000Y41600000D01*
X10800000Y41400000D01*
X10300000Y41100000D01*
X9700000Y40700000D01*
X9100000Y40000000D01*
X8600000Y39200000D01*
X8400000Y38500000D01*
X8300000Y37500000D01*
X4200000Y37500000D01*
G37*
X4200000Y37500000D02*
X4200000Y37900000D01*
X4300000Y38900000D01*
X4600000Y40100000D01*
X5000000Y41100000D01*
X5300000Y41700000D01*
X5800000Y42400000D01*
X6400000Y43200000D01*
X7300000Y44000000D01*
X8000000Y44500000D01*
X8700000Y44900000D01*
X9600000Y45300000D01*
X10500000Y45600000D01*
X11100000Y45700000D01*
X12000000Y45800000D01*
X12000000Y41700000D01*
X11400000Y41600000D01*
X10800000Y41400000D01*
X10300000Y41100000D01*
X9700000Y40700000D01*
X9100000Y40000000D01*
X8600000Y39200000D01*
X8400000Y38500000D01*
X8300000Y37500000D01*
X4200000Y37500000D01*
G36*
X15200000Y29600000D02*
G01*
X15700000Y29800000D01*
X16500000Y30200000D01*
X17300000Y30700000D01*
X17900000Y31200000D01*
X18300000Y31500000D01*
X18800000Y32100000D01*
X19500000Y33000000D01*
X19800000Y33500000D01*
X20100000Y34100000D01*
X20300000Y34600000D01*
X20500000Y35200000D01*
X20600000Y35600000D01*
X20700000Y36200000D01*
X20800000Y38100000D01*
X20800000Y38500000D01*
X16600000Y38500000D01*
X16700000Y38200000D01*
X16700000Y37800000D01*
X16700000Y36900000D01*
X16600000Y36400000D01*
X16400000Y35800000D01*
X16100000Y35300000D01*
X15800000Y34800000D01*
X15200000Y34200000D01*
X15200000Y29600000D01*
G37*
X15200000Y29600000D02*
X15700000Y29800000D01*
X16500000Y30200000D01*
X17300000Y30700000D01*
X17900000Y31200000D01*
X18300000Y31500000D01*
X18800000Y32100000D01*
X19500000Y33000000D01*
X19800000Y33500000D01*
X20100000Y34100000D01*
X20300000Y34600000D01*
X20500000Y35200000D01*
X20600000Y35600000D01*
X20700000Y36200000D01*
X20800000Y38100000D01*
X20800000Y38500000D01*
X16600000Y38500000D01*
X16700000Y38200000D01*
X16700000Y37800000D01*
X16700000Y36900000D01*
X16600000Y36400000D01*
X16400000Y35800000D01*
X16100000Y35300000D01*
X15800000Y34800000D01*
X15200000Y34200000D01*
X15200000Y29600000D01*
G36*
X4200000Y37500000D02*
G01*
X8300000Y37500000D01*
X8300000Y37000000D01*
X8600000Y35800000D01*
X9300000Y34700000D01*
X10100000Y34000000D01*
X10800000Y33600000D01*
X11900000Y33300000D01*
X13000000Y33300000D01*
X14200000Y33600000D01*
X15200000Y34200000D01*
X15200000Y29600000D01*
X13400000Y29200000D01*
X12000000Y29200000D01*
X10500000Y29400000D01*
X9300000Y29800000D01*
X8400000Y30200000D01*
X7500000Y30800000D01*
X6300000Y31900000D01*
X5500000Y33000000D01*
X5000000Y33800000D01*
X4400000Y35400000D01*
X4200000Y36800000D01*
X4200000Y37500000D01*
G37*
X4200000Y37500000D02*
X8300000Y37500000D01*
X8300000Y37000000D01*
X8600000Y35800000D01*
X9300000Y34700000D01*
X10100000Y34000000D01*
X10800000Y33600000D01*
X11900000Y33300000D01*
X13000000Y33300000D01*
X14200000Y33600000D01*
X15200000Y34200000D01*
X15200000Y29600000D01*
X13400000Y29200000D01*
X12000000Y29200000D01*
X10500000Y29400000D01*
X9300000Y29800000D01*
X8400000Y30200000D01*
X7500000Y30800000D01*
X6300000Y31900000D01*
X5500000Y33000000D01*
X5000000Y33800000D01*
X4400000Y35400000D01*
X4200000Y36800000D01*
X4200000Y37500000D01*
G36*
X62000000Y66700000D02*
G01*
X62000000Y70800000D01*
X62800000Y70800000D01*
X64000000Y70700000D01*
X65000000Y70400000D01*
X65800000Y70100000D01*
X66500000Y69800000D01*
X67300000Y69300000D01*
X68000000Y68800000D01*
X68600000Y68200000D01*
X69100000Y67600000D01*
X69500000Y67000000D01*
X69900000Y66300000D01*
X70300000Y65400000D01*
X70500000Y64800000D01*
X70700000Y63900000D01*
X70800000Y63500000D01*
X66600000Y63500000D01*
X66400000Y64100000D01*
X66100000Y64700000D01*
X65600000Y65400000D01*
X65000000Y65900000D01*
X64600000Y66200000D01*
X64200000Y66400000D01*
X63700000Y66600000D01*
X63200000Y66700000D01*
X62000000Y66700000D01*
G37*
X62000000Y66700000D02*
X62000000Y70800000D01*
X62800000Y70800000D01*
X64000000Y70700000D01*
X65000000Y70400000D01*
X65800000Y70100000D01*
X66500000Y69800000D01*
X67300000Y69300000D01*
X68000000Y68800000D01*
X68600000Y68200000D01*
X69100000Y67600000D01*
X69500000Y67000000D01*
X69900000Y66300000D01*
X70300000Y65400000D01*
X70500000Y64800000D01*
X70700000Y63900000D01*
X70800000Y63500000D01*
X66600000Y63500000D01*
X66400000Y64100000D01*
X66100000Y64700000D01*
X65600000Y65400000D01*
X65000000Y65900000D01*
X64600000Y66200000D01*
X64200000Y66400000D01*
X63700000Y66600000D01*
X63200000Y66700000D01*
X62000000Y66700000D01*
G36*
X54200000Y62500000D02*
G01*
X54200000Y62900000D01*
X54300000Y63900000D01*
X54600000Y65100000D01*
X55000000Y66100000D01*
X55300000Y66700000D01*
X55800000Y67400000D01*
X56400000Y68200000D01*
X57300000Y69000000D01*
X58000000Y69500000D01*
X58700000Y69900000D01*
X59600000Y70300000D01*
X60500000Y70600000D01*
X61100000Y70700000D01*
X62000000Y70800000D01*
X62000000Y66700000D01*
X61400000Y66600000D01*
X60800000Y66400000D01*
X60300000Y66100000D01*
X59700000Y65700000D01*
X59100000Y65000000D01*
X58600000Y64200000D01*
X58400000Y63500000D01*
X58300000Y62500000D01*
X54200000Y62500000D01*
G37*
X54200000Y62500000D02*
X54200000Y62900000D01*
X54300000Y63900000D01*
X54600000Y65100000D01*
X55000000Y66100000D01*
X55300000Y66700000D01*
X55800000Y67400000D01*
X56400000Y68200000D01*
X57300000Y69000000D01*
X58000000Y69500000D01*
X58700000Y69900000D01*
X59600000Y70300000D01*
X60500000Y70600000D01*
X61100000Y70700000D01*
X62000000Y70800000D01*
X62000000Y66700000D01*
X61400000Y66600000D01*
X60800000Y66400000D01*
X60300000Y66100000D01*
X59700000Y65700000D01*
X59100000Y65000000D01*
X58600000Y64200000D01*
X58400000Y63500000D01*
X58300000Y62500000D01*
X54200000Y62500000D01*
G36*
X65200000Y54600000D02*
G01*
X65700000Y54800000D01*
X66500000Y55200000D01*
X67300000Y55700000D01*
X67900000Y56200000D01*
X68300000Y56500000D01*
X68800000Y57100000D01*
X69500000Y58000000D01*
X69800000Y58500000D01*
X70100000Y59100000D01*
X70300000Y59600000D01*
X70500000Y60200000D01*
X70600000Y60600000D01*
X70700000Y61200000D01*
X70800000Y63100000D01*
X70800000Y63500000D01*
X66600000Y63500000D01*
X66700000Y63200000D01*
X66700000Y62800000D01*
X66700000Y61900000D01*
X66600000Y61400000D01*
X66400000Y60800000D01*
X66100000Y60300000D01*
X65800000Y59800000D01*
X65200000Y59200000D01*
X65200000Y54600000D01*
G37*
X65200000Y54600000D02*
X65700000Y54800000D01*
X66500000Y55200000D01*
X67300000Y55700000D01*
X67900000Y56200000D01*
X68300000Y56500000D01*
X68800000Y57100000D01*
X69500000Y58000000D01*
X69800000Y58500000D01*
X70100000Y59100000D01*
X70300000Y59600000D01*
X70500000Y60200000D01*
X70600000Y60600000D01*
X70700000Y61200000D01*
X70800000Y63100000D01*
X70800000Y63500000D01*
X66600000Y63500000D01*
X66700000Y63200000D01*
X66700000Y62800000D01*
X66700000Y61900000D01*
X66600000Y61400000D01*
X66400000Y60800000D01*
X66100000Y60300000D01*
X65800000Y59800000D01*
X65200000Y59200000D01*
X65200000Y54600000D01*
G36*
X54200000Y62500000D02*
G01*
X58300000Y62500000D01*
X58300000Y62000000D01*
X58600000Y60800000D01*
X59300000Y59700000D01*
X60100000Y59000000D01*
X60800000Y58600000D01*
X61900000Y58300000D01*
X63000000Y58300000D01*
X64200000Y58600000D01*
X65200000Y59200000D01*
X65200000Y54600000D01*
X63400000Y54200000D01*
X62000000Y54200000D01*
X60500000Y54400000D01*
X59300000Y54800000D01*
X58400000Y55200000D01*
X57500000Y55800000D01*
X56300000Y56900000D01*
X55500000Y58000000D01*
X55000000Y58800000D01*
X54400000Y60400000D01*
X54200000Y61800000D01*
X54200000Y62500000D01*
G37*
X54200000Y62500000D02*
X58300000Y62500000D01*
X58300000Y62000000D01*
X58600000Y60800000D01*
X59300000Y59700000D01*
X60100000Y59000000D01*
X60800000Y58600000D01*
X61900000Y58300000D01*
X63000000Y58300000D01*
X64200000Y58600000D01*
X65200000Y59200000D01*
X65200000Y54600000D01*
X63400000Y54200000D01*
X62000000Y54200000D01*
X60500000Y54400000D01*
X59300000Y54800000D01*
X58400000Y55200000D01*
X57500000Y55800000D01*
X56300000Y56900000D01*
X55500000Y58000000D01*
X55000000Y58800000D01*
X54400000Y60400000D01*
X54200000Y61800000D01*
X54200000Y62500000D01*
G36*
X12000000Y66700000D02*
G01*
X12000000Y70800000D01*
X12800000Y70800000D01*
X14000000Y70700000D01*
X15000000Y70400000D01*
X15800000Y70100000D01*
X16500000Y69800000D01*
X17300000Y69300000D01*
X18000000Y68800000D01*
X18600000Y68200000D01*
X19100000Y67600000D01*
X19500000Y67000000D01*
X19900000Y66300000D01*
X20300000Y65400000D01*
X20500000Y64800000D01*
X20700000Y63900000D01*
X20800000Y63500000D01*
X16600000Y63500000D01*
X16400000Y64100000D01*
X16100000Y64700000D01*
X15600000Y65400000D01*
X15000000Y65900000D01*
X14600000Y66200000D01*
X14200000Y66400000D01*
X13700000Y66600000D01*
X13200000Y66700000D01*
X12000000Y66700000D01*
G37*
X12000000Y66700000D02*
X12000000Y70800000D01*
X12800000Y70800000D01*
X14000000Y70700000D01*
X15000000Y70400000D01*
X15800000Y70100000D01*
X16500000Y69800000D01*
X17300000Y69300000D01*
X18000000Y68800000D01*
X18600000Y68200000D01*
X19100000Y67600000D01*
X19500000Y67000000D01*
X19900000Y66300000D01*
X20300000Y65400000D01*
X20500000Y64800000D01*
X20700000Y63900000D01*
X20800000Y63500000D01*
X16600000Y63500000D01*
X16400000Y64100000D01*
X16100000Y64700000D01*
X15600000Y65400000D01*
X15000000Y65900000D01*
X14600000Y66200000D01*
X14200000Y66400000D01*
X13700000Y66600000D01*
X13200000Y66700000D01*
X12000000Y66700000D01*
G36*
X4200000Y62500000D02*
G01*
X4200000Y62900000D01*
X4300000Y63900000D01*
X4600000Y65100000D01*
X5000000Y66100000D01*
X5300000Y66700000D01*
X5800000Y67400000D01*
X6400000Y68200000D01*
X7300000Y69000000D01*
X8000000Y69500000D01*
X8700000Y69900000D01*
X9600000Y70300000D01*
X10500000Y70600000D01*
X11100000Y70700000D01*
X12000000Y70800000D01*
X12000000Y66700000D01*
X11400000Y66600000D01*
X10800000Y66400000D01*
X10300000Y66100000D01*
X9700000Y65700000D01*
X9100000Y65000000D01*
X8600000Y64200000D01*
X8400000Y63500000D01*
X8300000Y62500000D01*
X4200000Y62500000D01*
G37*
X4200000Y62500000D02*
X4200000Y62900000D01*
X4300000Y63900000D01*
X4600000Y65100000D01*
X5000000Y66100000D01*
X5300000Y66700000D01*
X5800000Y67400000D01*
X6400000Y68200000D01*
X7300000Y69000000D01*
X8000000Y69500000D01*
X8700000Y69900000D01*
X9600000Y70300000D01*
X10500000Y70600000D01*
X11100000Y70700000D01*
X12000000Y70800000D01*
X12000000Y66700000D01*
X11400000Y66600000D01*
X10800000Y66400000D01*
X10300000Y66100000D01*
X9700000Y65700000D01*
X9100000Y65000000D01*
X8600000Y64200000D01*
X8400000Y63500000D01*
X8300000Y62500000D01*
X4200000Y62500000D01*
G36*
X15200000Y54600000D02*
G01*
X15700000Y54800000D01*
X16500000Y55200000D01*
X17300000Y55700000D01*
X17900000Y56200000D01*
X18300000Y56500000D01*
X18800000Y57100000D01*
X19500000Y58000000D01*
X19800000Y58500000D01*
X20100000Y59100000D01*
X20300000Y59600000D01*
X20500000Y60200000D01*
X20600000Y60600000D01*
X20700000Y61200000D01*
X20800000Y63100000D01*
X20800000Y63500000D01*
X16600000Y63500000D01*
X16700000Y63200000D01*
X16700000Y62800000D01*
X16700000Y61900000D01*
X16600000Y61400000D01*
X16400000Y60800000D01*
X16100000Y60300000D01*
X15800000Y59800000D01*
X15200000Y59200000D01*
X15200000Y54600000D01*
G37*
X15200000Y54600000D02*
X15700000Y54800000D01*
X16500000Y55200000D01*
X17300000Y55700000D01*
X17900000Y56200000D01*
X18300000Y56500000D01*
X18800000Y57100000D01*
X19500000Y58000000D01*
X19800000Y58500000D01*
X20100000Y59100000D01*
X20300000Y59600000D01*
X20500000Y60200000D01*
X20600000Y60600000D01*
X20700000Y61200000D01*
X20800000Y63100000D01*
X20800000Y63500000D01*
X16600000Y63500000D01*
X16700000Y63200000D01*
X16700000Y62800000D01*
X16700000Y61900000D01*
X16600000Y61400000D01*
X16400000Y60800000D01*
X16100000Y60300000D01*
X15800000Y59800000D01*
X15200000Y59200000D01*
X15200000Y54600000D01*
G36*
X4200000Y62500000D02*
G01*
X8300000Y62500000D01*
X8300000Y62000000D01*
X8600000Y60800000D01*
X9300000Y59700000D01*
X10100000Y59000000D01*
X10800000Y58600000D01*
X11900000Y58300000D01*
X13000000Y58300000D01*
X14200000Y58600000D01*
X15200000Y59200000D01*
X15200000Y54600000D01*
X13400000Y54200000D01*
X12000000Y54200000D01*
X10500000Y54400000D01*
X9300000Y54800000D01*
X8400000Y55200000D01*
X7500000Y55800000D01*
X6300000Y56900000D01*
X5500000Y58000000D01*
X5000000Y58800000D01*
X4400000Y60400000D01*
X4200000Y61800000D01*
X4200000Y62500000D01*
G37*
X4200000Y62500000D02*
X8300000Y62500000D01*
X8300000Y62000000D01*
X8600000Y60800000D01*
X9300000Y59700000D01*
X10100000Y59000000D01*
X10800000Y58600000D01*
X11900000Y58300000D01*
X13000000Y58300000D01*
X14200000Y58600000D01*
X15200000Y59200000D01*
X15200000Y54600000D01*
X13400000Y54200000D01*
X12000000Y54200000D01*
X10500000Y54400000D01*
X9300000Y54800000D01*
X8400000Y55200000D01*
X7500000Y55800000D01*
X6300000Y56900000D01*
X5500000Y58000000D01*
X5000000Y58800000D01*
X4400000Y60400000D01*
X4200000Y61800000D01*
X4200000Y62500000D01*
G36*
X12000000Y91700000D02*
G01*
X12000000Y95800000D01*
X12800000Y95800000D01*
X14000000Y95700000D01*
X15000000Y95400000D01*
X15800000Y95100000D01*
X16500000Y94800000D01*
X17300000Y94300000D01*
X18000000Y93800000D01*
X18600000Y93200000D01*
X19100000Y92600000D01*
X19500000Y92000000D01*
X19900000Y91300000D01*
X20300000Y90400000D01*
X20500000Y89800000D01*
X20700000Y88900000D01*
X20800000Y88500000D01*
X16600000Y88500000D01*
X16400000Y89100000D01*
X16100000Y89700000D01*
X15600000Y90400000D01*
X15000000Y90900000D01*
X14600000Y91200000D01*
X14200000Y91400000D01*
X13700000Y91600000D01*
X13200000Y91700000D01*
X12000000Y91700000D01*
G37*
X12000000Y91700000D02*
X12000000Y95800000D01*
X12800000Y95800000D01*
X14000000Y95700000D01*
X15000000Y95400000D01*
X15800000Y95100000D01*
X16500000Y94800000D01*
X17300000Y94300000D01*
X18000000Y93800000D01*
X18600000Y93200000D01*
X19100000Y92600000D01*
X19500000Y92000000D01*
X19900000Y91300000D01*
X20300000Y90400000D01*
X20500000Y89800000D01*
X20700000Y88900000D01*
X20800000Y88500000D01*
X16600000Y88500000D01*
X16400000Y89100000D01*
X16100000Y89700000D01*
X15600000Y90400000D01*
X15000000Y90900000D01*
X14600000Y91200000D01*
X14200000Y91400000D01*
X13700000Y91600000D01*
X13200000Y91700000D01*
X12000000Y91700000D01*
G36*
X4200000Y87500000D02*
G01*
X4200000Y87900000D01*
X4300000Y88900000D01*
X4600000Y90100000D01*
X5000000Y91100000D01*
X5300000Y91700000D01*
X5800000Y92400000D01*
X6400000Y93200000D01*
X7300000Y94000000D01*
X8000000Y94500000D01*
X8700000Y94900000D01*
X9600000Y95300000D01*
X10500000Y95600000D01*
X11100000Y95700000D01*
X12000000Y95800000D01*
X12000000Y91700000D01*
X11400000Y91600000D01*
X10800000Y91400000D01*
X10300000Y91100000D01*
X9700000Y90700000D01*
X9100000Y90000000D01*
X8600000Y89200000D01*
X8400000Y88500000D01*
X8300000Y87500000D01*
X4200000Y87500000D01*
G37*
X4200000Y87500000D02*
X4200000Y87900000D01*
X4300000Y88900000D01*
X4600000Y90100000D01*
X5000000Y91100000D01*
X5300000Y91700000D01*
X5800000Y92400000D01*
X6400000Y93200000D01*
X7300000Y94000000D01*
X8000000Y94500000D01*
X8700000Y94900000D01*
X9600000Y95300000D01*
X10500000Y95600000D01*
X11100000Y95700000D01*
X12000000Y95800000D01*
X12000000Y91700000D01*
X11400000Y91600000D01*
X10800000Y91400000D01*
X10300000Y91100000D01*
X9700000Y90700000D01*
X9100000Y90000000D01*
X8600000Y89200000D01*
X8400000Y88500000D01*
X8300000Y87500000D01*
X4200000Y87500000D01*
G36*
X15200000Y79600000D02*
G01*
X15700000Y79800000D01*
X16500000Y80200000D01*
X17300000Y80700000D01*
X17900000Y81200000D01*
X18300000Y81500000D01*
X18800000Y82100000D01*
X19500000Y83000000D01*
X19800000Y83500000D01*
X20100000Y84100000D01*
X20300000Y84600000D01*
X20500000Y85200000D01*
X20600000Y85600000D01*
X20700000Y86200000D01*
X20800000Y88100000D01*
X20800000Y88500000D01*
X16600000Y88500000D01*
X16700000Y88200000D01*
X16700000Y87800000D01*
X16700000Y86900000D01*
X16600000Y86400000D01*
X16400000Y85800000D01*
X16100000Y85300000D01*
X15800000Y84800000D01*
X15200000Y84200000D01*
X15200000Y79600000D01*
G37*
X15200000Y79600000D02*
X15700000Y79800000D01*
X16500000Y80200000D01*
X17300000Y80700000D01*
X17900000Y81200000D01*
X18300000Y81500000D01*
X18800000Y82100000D01*
X19500000Y83000000D01*
X19800000Y83500000D01*
X20100000Y84100000D01*
X20300000Y84600000D01*
X20500000Y85200000D01*
X20600000Y85600000D01*
X20700000Y86200000D01*
X20800000Y88100000D01*
X20800000Y88500000D01*
X16600000Y88500000D01*
X16700000Y88200000D01*
X16700000Y87800000D01*
X16700000Y86900000D01*
X16600000Y86400000D01*
X16400000Y85800000D01*
X16100000Y85300000D01*
X15800000Y84800000D01*
X15200000Y84200000D01*
X15200000Y79600000D01*
G36*
X4200000Y87500000D02*
G01*
X8300000Y87500000D01*
X8300000Y87000000D01*
X8600000Y85800000D01*
X9300000Y84700000D01*
X10100000Y84000000D01*
X10800000Y83600000D01*
X11900000Y83300000D01*
X13000000Y83300000D01*
X14200000Y83600000D01*
X15200000Y84200000D01*
X15200000Y79600000D01*
X13400000Y79200000D01*
X12000000Y79200000D01*
X10500000Y79400000D01*
X9300000Y79800000D01*
X8400000Y80200000D01*
X7500000Y80800000D01*
X6300000Y81900000D01*
X5500000Y83000000D01*
X5000000Y83800000D01*
X4400000Y85400000D01*
X4200000Y86800000D01*
X4200000Y87500000D01*
G37*
X4200000Y87500000D02*
X8300000Y87500000D01*
X8300000Y87000000D01*
X8600000Y85800000D01*
X9300000Y84700000D01*
X10100000Y84000000D01*
X10800000Y83600000D01*
X11900000Y83300000D01*
X13000000Y83300000D01*
X14200000Y83600000D01*
X15200000Y84200000D01*
X15200000Y79600000D01*
X13400000Y79200000D01*
X12000000Y79200000D01*
X10500000Y79400000D01*
X9300000Y79800000D01*
X8400000Y80200000D01*
X7500000Y80800000D01*
X6300000Y81900000D01*
X5500000Y83000000D01*
X5000000Y83800000D01*
X4400000Y85400000D01*
X4200000Y86800000D01*
X4200000Y87500000D01*
G36*
X21427290Y6974381D02*
G01*
X21491689Y6961571D01*
X21673678Y6886189D01*
X21837463Y6776751D01*
X21976751Y6637463D01*
X22086189Y6473678D01*
X22161571Y6291689D01*
X22200000Y6098491D01*
X22200000Y5901509D01*
X22161571Y5708311D01*
X22086189Y5526322D01*
X21976751Y5362537D01*
X21837463Y5223249D01*
X21673678Y5113811D01*
X21491689Y5038429D01*
X21427290Y5025619D01*
X21298493Y5000000D01*
X21101507Y5000000D01*
X20972710Y5025619D01*
X20908311Y5038429D01*
X20726322Y5113811D01*
X20562537Y5223249D01*
X20423249Y5362537D01*
X20313811Y5526322D01*
X20238429Y5708311D01*
X20200000Y5901509D01*
X20200000Y6098491D01*
X20238429Y6291689D01*
X20313811Y6473678D01*
X20423249Y6637463D01*
X20562537Y6776751D01*
X20726322Y6886189D01*
X20908311Y6961571D01*
X20972710Y6974381D01*
X21101507Y7000000D01*
X21298493Y7000000D01*
X21427290Y6974381D01*
G37*
G36*
X97460721Y12379826D02*
G01*
X97560995Y12338291D01*
X97560996Y12338290D01*
X97651242Y12277990D01*
X97727990Y12201242D01*
X97727991Y12201240D01*
X97788291Y12110995D01*
X97829826Y12010721D01*
X97851000Y11904270D01*
X97851000Y11795730D01*
X97829826Y11689279D01*
X97788291Y11589005D01*
X97788290Y11589004D01*
X97727990Y11498758D01*
X97651242Y11422010D01*
X97605812Y11391655D01*
X97560995Y11361709D01*
X97460721Y11320174D01*
X97354270Y11299000D01*
X97245730Y11299000D01*
X97139279Y11320174D01*
X97039005Y11361709D01*
X96994188Y11391655D01*
X96948758Y11422010D01*
X96872010Y11498758D01*
X96811710Y11589004D01*
X96811709Y11589005D01*
X96770174Y11689279D01*
X96749000Y11795730D01*
X96749000Y11904270D01*
X96770174Y12010721D01*
X96811709Y12110995D01*
X96872009Y12201240D01*
X96872010Y12201242D01*
X96948758Y12277990D01*
X97039004Y12338290D01*
X97039005Y12338291D01*
X97139279Y12379826D01*
X97245730Y12401000D01*
X97354270Y12401000D01*
X97460721Y12379826D01*
G37*
G36*
X89301000Y11349000D02*
G01*
X88199000Y11349000D01*
X88199000Y12251000D01*
X89301000Y12251000D01*
X89301000Y11349000D01*
G37*
G36*
X86801000Y11349000D02*
G01*
X85699000Y11349000D01*
X85699000Y12251000D01*
X86801000Y12251000D01*
X86801000Y11349000D01*
G37*
G36*
X64301000Y11349000D02*
G01*
X63199000Y11349000D01*
X63199000Y12251000D01*
X64301000Y12251000D01*
X64301000Y11349000D01*
G37*
G36*
X36801000Y11349000D02*
G01*
X35699000Y11349000D01*
X35699000Y12251000D01*
X36801000Y12251000D01*
X36801000Y11349000D01*
G37*
G36*
X39301000Y11349000D02*
G01*
X38199000Y11349000D01*
X38199000Y12251000D01*
X39301000Y12251000D01*
X39301000Y11349000D01*
G37*
G36*
X11801000Y11349000D02*
G01*
X10699000Y11349000D01*
X10699000Y12251000D01*
X11801000Y12251000D01*
X11801000Y11349000D01*
G37*
G36*
X14301000Y11349000D02*
G01*
X13199000Y11349000D01*
X13199000Y12251000D01*
X14301000Y12251000D01*
X14301000Y11349000D01*
G37*
G36*
X61801000Y11349000D02*
G01*
X60699000Y11349000D01*
X60699000Y12251000D01*
X61801000Y12251000D01*
X61801000Y11349000D01*
G37*
G36*
X64301000Y12749000D02*
G01*
X63199000Y12749000D01*
X63199000Y13651000D01*
X64301000Y13651000D01*
X64301000Y12749000D01*
G37*
G36*
X11801000Y12749000D02*
G01*
X10699000Y12749000D01*
X10699000Y13651000D01*
X11801000Y13651000D01*
X11801000Y12749000D01*
G37*
G36*
X36801000Y12749000D02*
G01*
X35699000Y12749000D01*
X35699000Y13651000D01*
X36801000Y13651000D01*
X36801000Y12749000D01*
G37*
G36*
X39301000Y12749000D02*
G01*
X38199000Y12749000D01*
X38199000Y13651000D01*
X39301000Y13651000D01*
X39301000Y12749000D01*
G37*
G36*
X61801000Y12749000D02*
G01*
X60699000Y12749000D01*
X60699000Y13651000D01*
X61801000Y13651000D01*
X61801000Y12749000D01*
G37*
G36*
X86801000Y12749000D02*
G01*
X85699000Y12749000D01*
X85699000Y13651000D01*
X86801000Y13651000D01*
X86801000Y12749000D01*
G37*
G36*
X89301000Y12749000D02*
G01*
X88199000Y12749000D01*
X88199000Y13651000D01*
X89301000Y13651000D01*
X89301000Y12749000D01*
G37*
G36*
X14301000Y12749000D02*
G01*
X13199000Y12749000D01*
X13199000Y13651000D01*
X14301000Y13651000D01*
X14301000Y12749000D01*
G37*
G36*
X97460721Y15379826D02*
G01*
X97560995Y15338291D01*
X97560996Y15338290D01*
X97651242Y15277990D01*
X97727990Y15201242D01*
X97727991Y15201240D01*
X97788291Y15110995D01*
X97829826Y15010721D01*
X97851000Y14904270D01*
X97851000Y14795730D01*
X97829826Y14689279D01*
X97788291Y14589005D01*
X97788290Y14589004D01*
X97727990Y14498758D01*
X97651242Y14422010D01*
X97605812Y14391655D01*
X97560995Y14361709D01*
X97460721Y14320174D01*
X97354270Y14299000D01*
X97245730Y14299000D01*
X97139279Y14320174D01*
X97039005Y14361709D01*
X96994188Y14391655D01*
X96948758Y14422010D01*
X96872010Y14498758D01*
X96811710Y14589004D01*
X96811709Y14589005D01*
X96770174Y14689279D01*
X96749000Y14795730D01*
X96749000Y14904270D01*
X96770174Y15010721D01*
X96811709Y15110995D01*
X96872009Y15201240D01*
X96872010Y15201242D01*
X96948758Y15277990D01*
X97039004Y15338290D01*
X97039005Y15338291D01*
X97139279Y15379826D01*
X97245730Y15401000D01*
X97354270Y15401000D01*
X97460721Y15379826D01*
G37*
G36*
X93627290Y29374381D02*
G01*
X93691689Y29361571D01*
X93873678Y29286189D01*
X94037463Y29176751D01*
X94176751Y29037463D01*
X94286189Y28873678D01*
X94361571Y28691689D01*
X94400000Y28498491D01*
X94400000Y28301509D01*
X94361571Y28108311D01*
X94286189Y27926322D01*
X94176751Y27762537D01*
X94037463Y27623249D01*
X93873678Y27513811D01*
X93691689Y27438429D01*
X93627290Y27425619D01*
X93498493Y27400000D01*
X93301507Y27400000D01*
X93172710Y27425619D01*
X93108311Y27438429D01*
X92926322Y27513811D01*
X92762537Y27623249D01*
X92623249Y27762537D01*
X92513811Y27926322D01*
X92438429Y28108311D01*
X92400000Y28301509D01*
X92400000Y28498491D01*
X92438429Y28691689D01*
X92513811Y28873678D01*
X92623249Y29037463D01*
X92762537Y29176751D01*
X92926322Y29286189D01*
X93108311Y29361571D01*
X93172710Y29374381D01*
X93301507Y29400000D01*
X93498493Y29400000D01*
X93627290Y29374381D01*
G37*
G36*
X39301000Y36349000D02*
G01*
X38199000Y36349000D01*
X38199000Y37251000D01*
X39301000Y37251000D01*
X39301000Y36349000D01*
G37*
G36*
X89301000Y36349000D02*
G01*
X88199000Y36349000D01*
X88199000Y37251000D01*
X89301000Y37251000D01*
X89301000Y36349000D01*
G37*
G36*
X64301000Y36349000D02*
G01*
X63199000Y36349000D01*
X63199000Y37251000D01*
X64301000Y37251000D01*
X64301000Y36349000D01*
G37*
G36*
X14301000Y36349000D02*
G01*
X13199000Y36349000D01*
X13199000Y37251000D01*
X14301000Y37251000D01*
X14301000Y36349000D01*
G37*
G36*
X11801000Y36349000D02*
G01*
X10699000Y36349000D01*
X10699000Y37251000D01*
X11801000Y37251000D01*
X11801000Y36349000D01*
G37*
G36*
X36801000Y36349000D02*
G01*
X35699000Y36349000D01*
X35699000Y37251000D01*
X36801000Y37251000D01*
X36801000Y36349000D01*
G37*
G36*
X61801000Y36349000D02*
G01*
X60699000Y36349000D01*
X60699000Y37251000D01*
X61801000Y37251000D01*
X61801000Y36349000D01*
G37*
G36*
X86801000Y36349000D02*
G01*
X85699000Y36349000D01*
X85699000Y37251000D01*
X86801000Y37251000D01*
X86801000Y36349000D01*
G37*
G36*
X86801000Y37749000D02*
G01*
X85699000Y37749000D01*
X85699000Y38651000D01*
X86801000Y38651000D01*
X86801000Y37749000D01*
G37*
G36*
X64301000Y37749000D02*
G01*
X63199000Y37749000D01*
X63199000Y38651000D01*
X64301000Y38651000D01*
X64301000Y37749000D01*
G37*
G36*
X89301000Y37749000D02*
G01*
X88199000Y37749000D01*
X88199000Y38651000D01*
X89301000Y38651000D01*
X89301000Y37749000D01*
G37*
G36*
X61801000Y37749000D02*
G01*
X60699000Y37749000D01*
X60699000Y38651000D01*
X61801000Y38651000D01*
X61801000Y37749000D01*
G37*
G36*
X39301000Y37749000D02*
G01*
X38199000Y37749000D01*
X38199000Y38651000D01*
X39301000Y38651000D01*
X39301000Y37749000D01*
G37*
G36*
X36801000Y37749000D02*
G01*
X35699000Y37749000D01*
X35699000Y38651000D01*
X36801000Y38651000D01*
X36801000Y37749000D01*
G37*
G36*
X14301000Y37749000D02*
G01*
X13199000Y37749000D01*
X13199000Y38651000D01*
X14301000Y38651000D01*
X14301000Y37749000D01*
G37*
G36*
X11801000Y37749000D02*
G01*
X10699000Y37749000D01*
X10699000Y38651000D01*
X11801000Y38651000D01*
X11801000Y37749000D01*
G37*
G36*
X14301000Y61349000D02*
G01*
X13199000Y61349000D01*
X13199000Y62251000D01*
X14301000Y62251000D01*
X14301000Y61349000D01*
G37*
G36*
X11801000Y61349000D02*
G01*
X10699000Y61349000D01*
X10699000Y62251000D01*
X11801000Y62251000D01*
X11801000Y61349000D01*
G37*
G36*
X36801000Y61349000D02*
G01*
X35699000Y61349000D01*
X35699000Y62251000D01*
X36801000Y62251000D01*
X36801000Y61349000D01*
G37*
G36*
X61801000Y61349000D02*
G01*
X60699000Y61349000D01*
X60699000Y62251000D01*
X61801000Y62251000D01*
X61801000Y61349000D01*
G37*
G36*
X86801000Y61349000D02*
G01*
X85699000Y61349000D01*
X85699000Y62251000D01*
X86801000Y62251000D01*
X86801000Y61349000D01*
G37*
G36*
X39301000Y61349000D02*
G01*
X38199000Y61349000D01*
X38199000Y62251000D01*
X39301000Y62251000D01*
X39301000Y61349000D01*
G37*
G36*
X89301000Y61349000D02*
G01*
X88199000Y61349000D01*
X88199000Y62251000D01*
X89301000Y62251000D01*
X89301000Y61349000D01*
G37*
G36*
X64301000Y61349000D02*
G01*
X63199000Y61349000D01*
X63199000Y62251000D01*
X64301000Y62251000D01*
X64301000Y61349000D01*
G37*
G36*
X36801000Y62749000D02*
G01*
X35699000Y62749000D01*
X35699000Y63651000D01*
X36801000Y63651000D01*
X36801000Y62749000D01*
G37*
G36*
X11801000Y62749000D02*
G01*
X10699000Y62749000D01*
X10699000Y63651000D01*
X11801000Y63651000D01*
X11801000Y62749000D01*
G37*
G36*
X64301000Y62749000D02*
G01*
X63199000Y62749000D01*
X63199000Y63651000D01*
X64301000Y63651000D01*
X64301000Y62749000D01*
G37*
G36*
X61801000Y62749000D02*
G01*
X60699000Y62749000D01*
X60699000Y63651000D01*
X61801000Y63651000D01*
X61801000Y62749000D01*
G37*
G36*
X89301000Y62749000D02*
G01*
X88199000Y62749000D01*
X88199000Y63651000D01*
X89301000Y63651000D01*
X89301000Y62749000D01*
G37*
G36*
X86801000Y62749000D02*
G01*
X85699000Y62749000D01*
X85699000Y63651000D01*
X86801000Y63651000D01*
X86801000Y62749000D01*
G37*
G36*
X14301000Y62749000D02*
G01*
X13199000Y62749000D01*
X13199000Y63651000D01*
X14301000Y63651000D01*
X14301000Y62749000D01*
G37*
G36*
X39301000Y62749000D02*
G01*
X38199000Y62749000D01*
X38199000Y63651000D01*
X39301000Y63651000D01*
X39301000Y62749000D01*
G37*
G36*
X97922578Y69595803D02*
G01*
X97975350Y69585306D01*
X98074770Y69544125D01*
X98164246Y69484339D01*
X98240339Y69408246D01*
X98300125Y69318770D01*
X98341306Y69219350D01*
X98362300Y69113806D01*
X98362300Y69006194D01*
X98341306Y68900650D01*
X98300125Y68801230D01*
X98240339Y68711754D01*
X98164246Y68635661D01*
X98074770Y68575875D01*
X97975350Y68534694D01*
X97922578Y68524197D01*
X97869807Y68513700D01*
X97762193Y68513700D01*
X97709422Y68524197D01*
X97656650Y68534694D01*
X97557230Y68575875D01*
X97467754Y68635661D01*
X97391661Y68711754D01*
X97331875Y68801230D01*
X97290694Y68900650D01*
X97269700Y69006194D01*
X97269700Y69113806D01*
X97290694Y69219350D01*
X97331875Y69318770D01*
X97391661Y69408246D01*
X97467754Y69484339D01*
X97557230Y69544125D01*
X97656650Y69585306D01*
X97709422Y69595803D01*
X97762193Y69606300D01*
X97869807Y69606300D01*
X97922578Y69595803D01*
G37*
G36*
X95890578Y69595803D02*
G01*
X95943350Y69585306D01*
X96042770Y69544125D01*
X96132246Y69484339D01*
X96208339Y69408246D01*
X96268125Y69318770D01*
X96309306Y69219350D01*
X96330300Y69113806D01*
X96330300Y69006194D01*
X96309306Y68900650D01*
X96268125Y68801230D01*
X96208339Y68711754D01*
X96132246Y68635661D01*
X96042770Y68575875D01*
X95943350Y68534694D01*
X95890578Y68524197D01*
X95837807Y68513700D01*
X95730193Y68513700D01*
X95677422Y68524197D01*
X95624650Y68534694D01*
X95525230Y68575875D01*
X95435754Y68635661D01*
X95359661Y68711754D01*
X95299875Y68801230D01*
X95258694Y68900650D01*
X95237700Y69006194D01*
X95237700Y69113806D01*
X95258694Y69219350D01*
X95299875Y69318770D01*
X95359661Y69408246D01*
X95435754Y69484339D01*
X95525230Y69544125D01*
X95624650Y69585306D01*
X95677422Y69595803D01*
X95730193Y69606300D01*
X95837807Y69606300D01*
X95890578Y69595803D01*
G37*
G36*
X96906578Y74675803D02*
G01*
X96959350Y74665306D01*
X97058770Y74624125D01*
X97148246Y74564339D01*
X97224339Y74488246D01*
X97284125Y74398770D01*
X97325306Y74299350D01*
X97346300Y74193806D01*
X97346300Y74086194D01*
X97325306Y73980650D01*
X97284125Y73881230D01*
X97224339Y73791754D01*
X97148246Y73715661D01*
X97058770Y73655875D01*
X96959350Y73614694D01*
X96906578Y73604197D01*
X96853807Y73593700D01*
X96746193Y73593700D01*
X96693422Y73604197D01*
X96640650Y73614694D01*
X96541230Y73655875D01*
X96451754Y73715661D01*
X96375661Y73791754D01*
X96315875Y73881230D01*
X96274694Y73980650D01*
X96253700Y74086194D01*
X96253700Y74193806D01*
X96274694Y74299350D01*
X96315875Y74398770D01*
X96375661Y74488246D01*
X96451754Y74564339D01*
X96541230Y74624125D01*
X96640650Y74665306D01*
X96693422Y74675803D01*
X96746193Y74686300D01*
X96853807Y74686300D01*
X96906578Y74675803D01*
G37*
G36*
X7627290Y77974381D02*
G01*
X7691689Y77961571D01*
X7873678Y77886189D01*
X8037463Y77776751D01*
X8176751Y77637463D01*
X8286189Y77473678D01*
X8361571Y77291689D01*
X8400000Y77098491D01*
X8400000Y76901509D01*
X8361571Y76708311D01*
X8286189Y76526322D01*
X8176751Y76362537D01*
X8037463Y76223249D01*
X7873678Y76113811D01*
X7691689Y76038429D01*
X7627290Y76025619D01*
X7498493Y76000000D01*
X7301507Y76000000D01*
X7172710Y76025619D01*
X7108311Y76038429D01*
X6926322Y76113811D01*
X6762537Y76223249D01*
X6623249Y76362537D01*
X6513811Y76526322D01*
X6438429Y76708311D01*
X6400000Y76901509D01*
X6400000Y77098491D01*
X6438429Y77291689D01*
X6513811Y77473678D01*
X6623249Y77637463D01*
X6762537Y77776751D01*
X6926322Y77886189D01*
X7108311Y77961571D01*
X7172710Y77974381D01*
X7301507Y78000000D01*
X7498493Y78000000D01*
X7627290Y77974381D01*
G37*
G36*
X61801000Y86349000D02*
G01*
X60699000Y86349000D01*
X60699000Y87251000D01*
X61801000Y87251000D01*
X61801000Y86349000D01*
G37*
G36*
X64301000Y86349000D02*
G01*
X63199000Y86349000D01*
X63199000Y87251000D01*
X64301000Y87251000D01*
X64301000Y86349000D01*
G37*
G36*
X86801000Y86349000D02*
G01*
X85699000Y86349000D01*
X85699000Y87251000D01*
X86801000Y87251000D01*
X86801000Y86349000D01*
G37*
G36*
X14301000Y86349000D02*
G01*
X13199000Y86349000D01*
X13199000Y87251000D01*
X14301000Y87251000D01*
X14301000Y86349000D01*
G37*
G36*
X11801000Y86349000D02*
G01*
X10699000Y86349000D01*
X10699000Y87251000D01*
X11801000Y87251000D01*
X11801000Y86349000D01*
G37*
G36*
X39301000Y86349000D02*
G01*
X38199000Y86349000D01*
X38199000Y87251000D01*
X39301000Y87251000D01*
X39301000Y86349000D01*
G37*
G36*
X36801000Y86349000D02*
G01*
X35699000Y86349000D01*
X35699000Y87251000D01*
X36801000Y87251000D01*
X36801000Y86349000D01*
G37*
G36*
X89301000Y86349000D02*
G01*
X88199000Y86349000D01*
X88199000Y87251000D01*
X89301000Y87251000D01*
X89301000Y86349000D01*
G37*
G36*
X86801000Y87749000D02*
G01*
X85699000Y87749000D01*
X85699000Y88651000D01*
X86801000Y88651000D01*
X86801000Y87749000D01*
G37*
G36*
X89301000Y87749000D02*
G01*
X88199000Y87749000D01*
X88199000Y88651000D01*
X89301000Y88651000D01*
X89301000Y87749000D01*
G37*
G36*
X61801000Y87749000D02*
G01*
X60699000Y87749000D01*
X60699000Y88651000D01*
X61801000Y88651000D01*
X61801000Y87749000D01*
G37*
G36*
X39301000Y87749000D02*
G01*
X38199000Y87749000D01*
X38199000Y88651000D01*
X39301000Y88651000D01*
X39301000Y87749000D01*
G37*
G36*
X36801000Y87749000D02*
G01*
X35699000Y87749000D01*
X35699000Y88651000D01*
X36801000Y88651000D01*
X36801000Y87749000D01*
G37*
G36*
X14301000Y87749000D02*
G01*
X13199000Y87749000D01*
X13199000Y88651000D01*
X14301000Y88651000D01*
X14301000Y87749000D01*
G37*
G36*
X11801000Y87749000D02*
G01*
X10699000Y87749000D01*
X10699000Y88651000D01*
X11801000Y88651000D01*
X11801000Y87749000D01*
G37*
G36*
X64301000Y87749000D02*
G01*
X63199000Y87749000D01*
X63199000Y88651000D01*
X64301000Y88651000D01*
X64301000Y87749000D01*
G37*
G36*
X34237142Y104781758D02*
G01*
X34385101Y104720471D01*
X34518255Y104631501D01*
X34631501Y104518255D01*
X34720471Y104385101D01*
X34781758Y104237142D01*
X34813000Y104080075D01*
X34813000Y103919925D01*
X34781758Y103762858D01*
X34720471Y103614899D01*
X34631501Y103481745D01*
X34518255Y103368499D01*
X34385101Y103279529D01*
X34237142Y103218242D01*
X34080075Y103187000D01*
X33919925Y103187000D01*
X33762858Y103218242D01*
X33614899Y103279529D01*
X33481745Y103368499D01*
X33368499Y103481745D01*
X33279529Y103614899D01*
X33218242Y103762858D01*
X33187000Y103919925D01*
X33187000Y104080075D01*
X33218242Y104237142D01*
X33279529Y104385101D01*
X33368499Y104518255D01*
X33481745Y104631501D01*
X33614899Y104720471D01*
X33762858Y104781758D01*
X33919925Y104813000D01*
X34080075Y104813000D01*
X34237142Y104781758D01*
G37*
G36*
X52737142Y104781758D02*
G01*
X52885101Y104720471D01*
X53018255Y104631501D01*
X53131501Y104518255D01*
X53220471Y104385101D01*
X53281758Y104237142D01*
X53313000Y104080075D01*
X53313000Y103919925D01*
X53281758Y103762858D01*
X53220471Y103614899D01*
X53131501Y103481745D01*
X53018255Y103368499D01*
X52885101Y103279529D01*
X52737142Y103218242D01*
X52580075Y103187000D01*
X52419925Y103187000D01*
X52262858Y103218242D01*
X52114899Y103279529D01*
X51981745Y103368499D01*
X51868499Y103481745D01*
X51779529Y103614899D01*
X51718242Y103762858D01*
X51687000Y103919925D01*
X51687000Y104080075D01*
X51718242Y104237142D01*
X51779529Y104385101D01*
X51868499Y104518255D01*
X51981745Y104631501D01*
X52114899Y104720471D01*
X52262858Y104781758D01*
X52419925Y104813000D01*
X52580075Y104813000D01*
X52737142Y104781758D01*
G37*
G36*
X81237142Y104781758D02*
G01*
X81385101Y104720471D01*
X81518255Y104631501D01*
X81631501Y104518255D01*
X81720471Y104385101D01*
X81781758Y104237142D01*
X81813000Y104080075D01*
X81813000Y103919925D01*
X81781758Y103762858D01*
X81720471Y103614899D01*
X81631501Y103481745D01*
X81518255Y103368499D01*
X81385101Y103279529D01*
X81237142Y103218242D01*
X81080075Y103187000D01*
X80919925Y103187000D01*
X80762858Y103218242D01*
X80614899Y103279529D01*
X80481745Y103368499D01*
X80368499Y103481745D01*
X80279529Y103614899D01*
X80218242Y103762858D01*
X80187000Y103919925D01*
X80187000Y104080075D01*
X80218242Y104237142D01*
X80279529Y104385101D01*
X80368499Y104518255D01*
X80481745Y104631501D01*
X80614899Y104720471D01*
X80762858Y104781758D01*
X80919925Y104813000D01*
X81080075Y104813000D01*
X81237142Y104781758D01*
G37*
G36*
X70237142Y105781758D02*
G01*
X70385101Y105720471D01*
X70518255Y105631501D01*
X70631501Y105518255D01*
X70720471Y105385101D01*
X70781758Y105237142D01*
X70813000Y105080075D01*
X70813000Y104919925D01*
X70781758Y104762858D01*
X70720471Y104614899D01*
X70631501Y104481745D01*
X70518255Y104368499D01*
X70385101Y104279529D01*
X70237142Y104218242D01*
X70080075Y104187000D01*
X69919925Y104187000D01*
X69762858Y104218242D01*
X69614899Y104279529D01*
X69481745Y104368499D01*
X69368499Y104481745D01*
X69279529Y104614899D01*
X69218242Y104762858D01*
X69187000Y104919925D01*
X69187000Y105080075D01*
X69218242Y105237142D01*
X69279529Y105385101D01*
X69368499Y105518255D01*
X69481745Y105631501D01*
X69614899Y105720471D01*
X69762858Y105781758D01*
X69919925Y105813000D01*
X70080075Y105813000D01*
X70237142Y105781758D01*
G37*
G36*
X23237142Y105781758D02*
G01*
X23385101Y105720471D01*
X23518255Y105631501D01*
X23631501Y105518255D01*
X23720471Y105385101D01*
X23781758Y105237142D01*
X23813000Y105080075D01*
X23813000Y104919925D01*
X23781758Y104762858D01*
X23720471Y104614899D01*
X23631501Y104481745D01*
X23518255Y104368499D01*
X23385101Y104279529D01*
X23237142Y104218242D01*
X23080075Y104187000D01*
X22919925Y104187000D01*
X22762858Y104218242D01*
X22614899Y104279529D01*
X22481745Y104368499D01*
X22368499Y104481745D01*
X22279529Y104614899D01*
X22218242Y104762858D01*
X22187000Y104919925D01*
X22187000Y105080075D01*
X22218242Y105237142D01*
X22279529Y105385101D01*
X22368499Y105518255D01*
X22481745Y105631501D01*
X22614899Y105720471D01*
X22762858Y105781758D01*
X22919925Y105813000D01*
X23080075Y105813000D01*
X23237142Y105781758D01*
G37*
G36*
X83819672Y105061551D02*
G01*
X83819674Y105061550D01*
X83819675Y105061550D01*
X83888103Y105033207D01*
X83949686Y104992058D01*
X84002058Y104939686D01*
X84043207Y104878103D01*
X84071550Y104809675D01*
X84071551Y104809672D01*
X84086000Y104737034D01*
X84086000Y104662966D01*
X84076439Y104614899D01*
X84071550Y104590325D01*
X84043207Y104521897D01*
X84002058Y104460314D01*
X83949686Y104407942D01*
X83888103Y104366793D01*
X83819675Y104338450D01*
X83819674Y104338450D01*
X83819672Y104338449D01*
X83747034Y104324000D01*
X83672966Y104324000D01*
X83600328Y104338449D01*
X83600326Y104338450D01*
X83600325Y104338450D01*
X83531897Y104366793D01*
X83470314Y104407942D01*
X83417942Y104460314D01*
X83376793Y104521897D01*
X83348450Y104590325D01*
X83343562Y104614899D01*
X83334000Y104662966D01*
X83334000Y104737034D01*
X83348449Y104809672D01*
X83348450Y104809675D01*
X83376793Y104878103D01*
X83417942Y104939686D01*
X83470314Y104992058D01*
X83531897Y105033207D01*
X83600325Y105061550D01*
X83600326Y105061550D01*
X83600328Y105061551D01*
X83672966Y105076000D01*
X83747034Y105076000D01*
X83819672Y105061551D01*
G37*
G36*
X89599672Y105061551D02*
G01*
X89599674Y105061550D01*
X89599675Y105061550D01*
X89668103Y105033207D01*
X89729686Y104992058D01*
X89782058Y104939686D01*
X89823207Y104878103D01*
X89851550Y104809675D01*
X89851551Y104809672D01*
X89866000Y104737034D01*
X89866000Y104662966D01*
X89856439Y104614899D01*
X89851550Y104590325D01*
X89823207Y104521897D01*
X89782058Y104460314D01*
X89729686Y104407942D01*
X89668103Y104366793D01*
X89599675Y104338450D01*
X89599674Y104338450D01*
X89599672Y104338449D01*
X89527034Y104324000D01*
X89452966Y104324000D01*
X89380328Y104338449D01*
X89380326Y104338450D01*
X89380325Y104338450D01*
X89311897Y104366793D01*
X89250314Y104407942D01*
X89197942Y104460314D01*
X89156793Y104521897D01*
X89128450Y104590325D01*
X89123562Y104614899D01*
X89114000Y104662966D01*
X89114000Y104737034D01*
X89128449Y104809672D01*
X89128450Y104809675D01*
X89156793Y104878103D01*
X89197942Y104939686D01*
X89250314Y104992058D01*
X89311897Y105033207D01*
X89380325Y105061550D01*
X89380326Y105061550D01*
X89380328Y105061551D01*
X89452966Y105076000D01*
X89527034Y105076000D01*
X89599672Y105061551D01*
G37*
M02*
