G04 #@! TF.GenerationSoftware,KiCad,Pcbnew,(5.1.5)-3*
G04 #@! TF.CreationDate,2020-05-31T21:02:16+02:00*
G04 #@! TF.ProjectId,cz-badge-hardware,637a2d62-6164-4676-952d-686172647761,rev?*
G04 #@! TF.SameCoordinates,PX17d7840PY7735940*
G04 #@! TF.FileFunction,Other,User*
%FSLAX46Y46*%
G04 Gerber Fmt 4.6, Leading zero omitted, Abs format (unit mm)*
G04 Created by KiCad (PCBNEW (5.1.5)-3) date 2020-05-31 21:02:16*
%MOMM*%
%LPD*%
G04 APERTURE LIST*
%ADD10C,0.050000*%
G04 APERTURE END LIST*
D10*
X89700000Y14250000D02*
X85300000Y14250000D01*
X89700000Y10750000D02*
X89700000Y14250000D01*
X85300000Y10750000D02*
X89700000Y10750000D01*
X85300000Y14250000D02*
X85300000Y10750000D01*
X89700000Y39250000D02*
X85300000Y39250000D01*
X89700000Y35750000D02*
X89700000Y39250000D01*
X85300000Y35750000D02*
X89700000Y35750000D01*
X85300000Y39250000D02*
X85300000Y35750000D01*
X89700000Y64250000D02*
X85300000Y64250000D01*
X89700000Y60750000D02*
X89700000Y64250000D01*
X85300000Y60750000D02*
X89700000Y60750000D01*
X85300000Y64250000D02*
X85300000Y60750000D01*
X89700000Y89250000D02*
X85300000Y89250000D01*
X89700000Y85750000D02*
X89700000Y89250000D01*
X85300000Y85750000D02*
X89700000Y85750000D01*
X85300000Y89250000D02*
X85300000Y85750000D01*
X64700000Y14250000D02*
X60300000Y14250000D01*
X64700000Y10750000D02*
X64700000Y14250000D01*
X60300000Y10750000D02*
X64700000Y10750000D01*
X60300000Y14250000D02*
X60300000Y10750000D01*
X64700000Y39250000D02*
X60300000Y39250000D01*
X64700000Y35750000D02*
X64700000Y39250000D01*
X60300000Y35750000D02*
X64700000Y35750000D01*
X60300000Y39250000D02*
X60300000Y35750000D01*
X64700000Y64250000D02*
X60300000Y64250000D01*
X64700000Y60750000D02*
X64700000Y64250000D01*
X60300000Y60750000D02*
X64700000Y60750000D01*
X60300000Y64250000D02*
X60300000Y60750000D01*
X64700000Y89250000D02*
X60300000Y89250000D01*
X64700000Y85750000D02*
X64700000Y89250000D01*
X60300000Y85750000D02*
X64700000Y85750000D01*
X60300000Y89250000D02*
X60300000Y85750000D01*
X39700000Y14250000D02*
X35300000Y14250000D01*
X39700000Y10750000D02*
X39700000Y14250000D01*
X35300000Y10750000D02*
X39700000Y10750000D01*
X35300000Y14250000D02*
X35300000Y10750000D01*
X39700000Y39250000D02*
X35300000Y39250000D01*
X39700000Y35750000D02*
X39700000Y39250000D01*
X35300000Y35750000D02*
X39700000Y35750000D01*
X35300000Y39250000D02*
X35300000Y35750000D01*
X39700000Y64250000D02*
X35300000Y64250000D01*
X39700000Y60750000D02*
X39700000Y64250000D01*
X35300000Y60750000D02*
X39700000Y60750000D01*
X35300000Y64250000D02*
X35300000Y60750000D01*
X39700000Y89250000D02*
X35300000Y89250000D01*
X39700000Y85750000D02*
X39700000Y89250000D01*
X35300000Y85750000D02*
X39700000Y85750000D01*
X35300000Y89250000D02*
X35300000Y85750000D01*
X14700000Y14250000D02*
X10300000Y14250000D01*
X14700000Y10750000D02*
X14700000Y14250000D01*
X10300000Y10750000D02*
X14700000Y10750000D01*
X10300000Y14250000D02*
X10300000Y10750000D01*
X14700000Y39250000D02*
X10300000Y39250000D01*
X14700000Y35750000D02*
X14700000Y39250000D01*
X10300000Y35750000D02*
X14700000Y35750000D01*
X10300000Y39250000D02*
X10300000Y35750000D01*
X14700000Y64250000D02*
X10300000Y64250000D01*
X14700000Y60750000D02*
X14700000Y64250000D01*
X10300000Y60750000D02*
X14700000Y60750000D01*
X10300000Y64250000D02*
X10300000Y60750000D01*
X14700000Y89250000D02*
X10300000Y89250000D01*
X14700000Y85750000D02*
X14700000Y89250000D01*
X10300000Y85750000D02*
X14700000Y85750000D01*
X10300000Y89250000D02*
X10300000Y85750000D01*
M02*
